<?xml version="1.0" encoding="utf-8"?>
<!-- Generator: Adobe Illustrator 26.0.2, SVG Export Plug-In . SVG Version: 6.00 Build 0)  -->
<svg version="1.1" id="Ebene_1" xmlns="http://www.w3.org/2000/svg" xmlns:xlink="http://www.w3.org/1999/xlink" x="0px" y="0px"
	 viewBox="0 0 477.7 395.5" style="enable-background:new 0 0 477.7 395.5;" xml:space="preserve">
<style type="text/css">
	.st0{fill:#BCB4A8;}
</style>
<g>
	<path class="st0" d="M471.5,70c-4.8-5.8-10.6-9.9-18.4-10.8c-5.2-0.6-10.3-0.3-15.5,0.4c-9.7,1.4-19.1,4.1-28.3,7.3
		c-19.4,6.7-38,15.2-56.3,24.5c-17.6,8.9-35.1,18.1-52.6,27.1c-2.4,1.3-4.9,2.5-7.3,3.7c-2-2.4-3.8-4.7-5.7-7.1
		c0.4-0.3,0.8-0.5,1.2-0.7c5.2-3.1,10.2-6.3,14.7-10.4c2.3-2.2,3-4.6,2.6-7.7c-0.6-3.9-1-7.9-1.5-11.8c-0.2-1.7,0.4-2.6,1.9-3.3
		c1.2-0.6,2.3-1.1,3.5-1.8c8.4-4.8,15.8-11,22.8-17.7c0.4-0.4,0.9-0.7,1.4-1c-0.1-0.1-0.2-0.2-0.3-0.4c-0.2,0-0.3,0.1-0.5,0.1
		c-9.1,2.5-17.9,5.9-26.5,9.6c-3.9,1.7-7.9,3.1-11,6.4c-1.3,1.4-2.8,2.6-4.2,3.8c-0.6,0.5-0.8,1.1-0.8,1.9c0.4,4.2,0.7,8.4,1,12.7
		c0.1,0.9-0.2,1.3-1.1,1.6c-5.7,1.8-10.9,4.5-14.4,9.8c0,0.1-0.2,0.1-0.3,0.1c-1.2-0.6-2.4-1.2-3.7-1.8c0.1-0.2,0.1-0.3,0.2-0.4
		c0.2-0.3,0.5-0.6,0.8-0.9c4.5-5,8.4-10.4,10.7-16.9c3.6-10.1,2.1-19.1-5.5-26.9c-4.6-4.7-10.3-7.6-16.5-9.5c-1.5-0.5-3-0.8-4.7-1.3
		c0.4-0.2,0.6-0.3,0.8-0.4c3.4-1.2,6.9-2.3,10.3-3.5c3.2-1.1,6.5-2,9.2-4.3c7.5-6.3,15.1-12.5,22.5-18.9
		c6.8-5.8,13.5-11.8,20.3-17.7c1.1-1,2.1-2,2.5-3.7c-0.6,0.3-1,0.5-1.4,0.7c-5.1,2.6-9.6,6.1-14,9.7c-10.5,8.6-21,17.2-31.4,25.8
		c-2.1,1.7-4.5,3-7.1,3.7c-8.3,2.4-16.6,4.7-24.9,7c-3.2,0.9-6.4,0.9-9.6,0c-8-2.2-16-4.5-24.1-6.8c-3.3-0.9-6.2-2.4-8.8-4.6
		c-8.2-6.8-16.5-13.7-24.8-20.4c-6.2-5-12.1-10.3-19.2-14.1c-0.7-0.4-1.3-0.7-2-1c-0.1,0.1-0.2,0.2-0.3,0.3c0.8,1,1.4,2.1,2.3,3
		c2.1,2.1,4.3,4.2,6.5,6.1c12.3,10.4,24.5,20.7,36.9,31c1.5,1.2,3.4,2.1,5.2,2.8c4.5,1.7,9.1,3.2,13.7,4.7c0.3,0.1,0.6,0.3,1,0.5
		c-0.5,0.2-0.7,0.2-1,0.3c-5.1,1.2-10,3.1-14.4,5.9c-12.2,7.7-16.1,19.9-10.6,33.2c2.4,5.7,6,10.7,10.1,15.3c0.3,0.4,0.6,0.7,1,1.2
		c-1.4,0.7-2.6,1.3-3.8,1.8c-1.1-1.2-2-2.5-3.1-3.6c-3.2-3.1-7.2-5-11.5-6.3c-1-0.3-1.2-0.8-1.1-1.7c0.4-4.2,0.7-8.4,1-12.7
		c0-0.6-0.3-1.3-0.7-1.7c-1.4-1.4-2.9-2.7-4.4-4c-1.5-1.2-3-2.7-4.7-3.5c-8.3-4.1-17-7.4-25.8-10.3c-2.4-0.8-4.8-1.5-7.2-2.2
		c-0.1,0.1-0.1,0.2-0.2,0.3c1.8,1.7,3.6,3.4,5.4,5c6.9,6.1,14,11.8,22.4,15.8c1.3,0.6,1.7,1.7,1.6,3.1c-0.5,4-0.9,8-1.5,11.9
		c-0.5,3,0.2,5.5,2.5,7.6c3.9,3.6,8.2,6.5,12.7,9.2c1.1,0.7,2.2,1.3,3.2,2c-2,2.4-3.8,4.7-5.7,7.1c-2-1-4-2-6-3
		c-18.8-9.7-37.6-19.5-56.4-29c-16.4-8.2-33-15.8-50.3-22c-11.8-4.3-23.8-8-36.5-9.1c-4.6-0.4-9.2-0.3-13.8,0.7
		c-6.7,1.4-11.5,5.6-15.7,10.6c-5.2,6.3-7,13.6-5.3,21.6c1.3,6.2,4.1,11.6,7.7,16.7c8.5,12,19.4,21.4,31.2,29.8
		c0.7,0.5,1.4,1.2,1.9,2c3.3,5.3,7.3,10,12.1,14.1c9.6,8.1,20.9,12.5,33.1,14.8c13.4,2.5,26.8,2.4,40.3,0.9
		c14.6-1.5,28.9-4.6,43-8.8c1.9-0.6,3.8-1.1,5.8-1.7c0.1,0.7,0.1,1.2,0.1,1.7c0.3,5.7,1,11.3,2.6,16.7c0.8,2.6,0,4-1.9,5.4
		c-3.9,3-7.5,3.4-11.7,0.8c-2.3-1.4-4.5-3-6.8-4.6c-3.1-2.1-6.2-4.3-9.8-5.4c-4.3-1.3-8.8,0.4-11.1,4.2c-0.8,1.4-2,2.3-3.6,2.4
		c-2.1,0.2-4.3,0.3-6.5,0.5c-5.8,0.3-11.6,0.9-16.7,4c-3.4,2-6.8,4.2-10.4,6c-7.5,3.8-14.9,7.9-22.3,11.9c-1.9,1-3.6,2.5-5.7,4
		c0.8,0.2,1.2,0.3,1.6,0.4c3.1,0.5,6-0.2,8.9-1c7.1-1.9,13.7-5.1,20.2-8.5c0.8-0.4,1.3-0.5,2,0.3c0.6,0.7,1.5,1.4,2.3,1.9
		c4.5,3,9.5,3.2,14.6,1.9c5.6-1.4,10.5-4.3,15.1-7.7c0.7-0.5,1.3-0.6,2.1-0.2c3,1.2,6,2.5,9.1,3.5c6.9,2.3,13.9,4,21.3,3.6
		c3.8-0.2,7.3-1.3,10.2-3.8c1.4-1.2,2.9-2.3,4.5-3.5c2.9,5.9,6.3,11.2,10.7,16c-0.5,0.3-0.9,0.5-1.2,0.8
		c-10.4,6.7-20.8,13.3-31.1,20.1c-6.9,4.6-13.2,9.8-19.1,15.6c-2.7,2.6-4.1,5.4-3.1,9.1c0.4,1.5,1,3,1.5,4.7
		c-0.1,0.1-0.4,0.3-0.8,0.6c-4.2,3.1-8.5,6.1-12.7,9.2c-3.9,3-7.7,6.2-10.5,10.3c-2.9,4.4-3.5,9-1.2,13.9c0.2,0.4,0,1.2-0.2,1.6
		c-2,2.8-4.2,5.5-6.1,8.4c-4.7,7.1-8.4,14.7-9.7,23.2c-0.3,1.7-0.3,3.4-0.4,5.1c0.2,0,0.3,0.1,0.5,0.1c9.8-8,18.1-17.3,23.9-28.8
		c0.2,0.4,0.4,0.6,0.5,0.8c1.4,2.1,3.1,2.6,5.3,1.4c0.6-0.3,1.3-0.7,1.7-1.2c1.9-2.3,4.1-4.4,5.6-6.9c3.3-5.7,6.1-11.7,9.2-17.5
		c2.2-4.1,4.3-8.3,7.5-11.7c1.1-1.2,2.5-2,4.2-2.4c6-1.3,11.6-3.5,16.9-6.8c0.2-0.1,0.5-0.2,0.9-0.4c0,0.3,0,0.5-0.1,0.7
		c-0.6,4.5-1.2,9-1.7,13.5c-0.1,0.6,0.2,1.4,0.6,1.8c2,1.8,4.1,3.8,6.3,5.3c7.4,4.9,15.6,7.7,24.2,9.7c18.7,4.4,37.5,4.9,56.5,2
		c10.1-1.6,20-4.1,29.2-8.7c3-1.5,5.9-3.1,8.3-5.6c0,0,0,0,0,0c1.1-0.5,1.9-1.2,2.5-1.9c0.2-0.2,0.4-0.4,0.5-0.6c0,0,0-0.1-0.1-0.1
		c0.7-1.1,0.8-2.1,0.8-2.1c-0.1-1-0.3-2.1-0.4-3.1l-0.5-3.5c0-0.2-0.1-0.5-0.1-0.7l-0.3-2.2c-0.2-1.4-0.4-2.9-0.6-4.3
		c0.3,0.1,0.5,0.2,0.6,0.3c5.4,3.4,11.3,5.7,17.6,7.1c1.2,0.3,2.4,1,3.3,1.9c1.2,1.2,2.2,2.5,3.2,3.8l8.2,15.5c0,0,0,0,0,0
		c0.3,0.6,0.7,1.3,1.1,1.9l3.4,6.4c0,0,0.1,0,0.3,0c1.2,2,2.4,4,3.7,5.9c1.1,1.6,2.7,2.9,4.3,4.1c2.1,1.5,4.1,0.9,5.6-1.2
		c0.2-0.2,0.3-0.4,0.6-0.7c5.8,11.5,14.1,20.8,24.1,28.9c0.1-0.7,0.1-1,0.1-1.4c-0.1-4.3-1-8.4-2.4-12.4c-3-8.5-7.8-16-13.5-23
		c-0.6-0.8-0.9-1.4-0.3-2.3c0,0,0.1-0.1,0.1-0.1c0.2-0.1,0.4-0.2,0.5-0.4c1.7-2.2,0.7-3.8,0.6-6.2c0-0.2,0-0.4,0-0.6
		c0-0.5-0.1-1-0.3-1.5c-0.4-1.6-1.3-3-2.3-4.4c-0.7-1.1-1.4-2.1-1.8-2.9c-0.4-0.7-2.3-2.3-4.7-4.3c0.1-0.1,0.2-0.2,0.4-0.3
		c-6-4.4-12-8.8-17.7-13c0.5-1.6,1.2-2.9,1.5-4.4c0.3-1.4,0.3-2.8,0.2-4.3c-0.1-0.8-0.4-1.7-0.9-2.3c-3.5-4.4-7.7-8-12.1-11.5
		c-11.7-9.2-24.2-17.3-36.9-25c-1.6-1-3.2-1.9-4.9-2.9c4.5-4.8,7.9-10.1,10.8-16c1.6,1.3,3.1,2.4,4.5,3.5c2.4,2,5.1,3.2,8.1,3.5
		c2.8,0.3,5.6,0.4,8.4,0.1c8.3-0.8,16.1-3.4,23.7-6.7c1.2-0.5,1.9-0.4,2.9,0.3c4.8,3.5,10,6.5,16,7.7c5.8,1.1,11.2,0.3,15.6-4.1
		c0.7-0.7,1.2-0.7,2.1-0.3c5.2,2.4,10.5,4.9,15.8,7.1c3.6,1.5,7.3,2.4,11.2,2.5c1.1,0,2.2-0.2,3.3-0.3c0-0.1,0-0.3,0-0.4
		c-0.8-0.6-1.6-1.3-2.4-1.9c-5.8-4.1-12.1-7.3-18.4-10.6c-5.5-2.9-11.3-5.2-16.4-8.8c-4-2.8-8.8-3.6-13.6-4.1
		c-3.4-0.3-6.7-0.5-10.1-0.7c-1.6-0.1-2.8-0.9-3.7-2.3c-2.5-4.1-7-5.9-11.5-4.2c-2.7,1-5.2,2.5-7.6,4c-3.2,2-6.2,4.2-9.4,6.2
		c-2.2,1.4-4.6,1.7-7.1,0.9c-2.5-0.8-4.4-2.4-6-4.3c-0.2-0.3-0.2-0.9-0.1-1.3c0.9-5.3,1.8-10.6,2.7-15.9c0.2-1.4,0.3-2.9,0.4-4.4
		c0.8,0.2,1.3,0.4,1.9,0.5c18.3,5.6,37,9.7,56.2,10.7c13.7,0.7,27.2,0,40.4-4c15.2-4.6,27.6-13.1,36-26.9c0.3-0.5,0.8-1,1.3-1.4
		c9.6-6.7,18.4-14.2,26.1-23c4.8-5.5,8.9-11.3,11.6-18.2C479.3,87.6,478.5,78.3,471.5,70z M286.8,252.3c1.4-0.9,2.8-1.8,4.2-2.7
		c2.3,2.4,4.6,4.9,6.9,7.4c-0.4,0.3-0.8,0.7-1.3,1c-9.9,7.2-21,11.3-33,13.1c-15.3,2.3-30.7,2.3-46.1,0.5
		c-13.1-1.6-25.4-5.6-36.2-13.5c-0.5-0.4-1-0.8-1.5-1.2c2.4-2.5,4.6-4.9,6.9-7.3c2.7,1.6,5.3,3.3,8.1,4.7c7.8,4.1,16.2,6.1,24.9,7.1
		c11.3,1.3,22.6,1.4,33.9,0.5C265.2,261.1,276.6,258.6,286.8,252.3z"/>
	<path class="st0" d="M303.6,292.2c-0.1-0.8-0.4-1.5-0.7-2.1c0.1-0.2,0.2-0.4,0.3-0.7c-0.3,0.1-0.6,0.1-0.9,0.2
		c-0.1-0.1-0.3-0.1-0.4-0.1c-2.1-0.1-4.8,2.4-4.8,2.4l0,0c-2.8,1.3-5.4,2.6-8.2,3.6c-14.4,5.6-29.5,8.1-44.9,8.7
		c-11.2,0.5-22.3-0.5-33.4-2.6c-10.2-1.9-20.2-4.7-29.4-9.5c-2.5-1.3-4.8-2.8-7.4-4.3c0,7.7,0.4,15.3,1.6,22.8
		c0.1,0.5,0.5,1,0.9,1.3c3,2.5,6.5,4.1,10,5.5c12.4,4.8,25.3,6.7,38.5,7.5c11.5,0.7,23,0.6,34.5-0.5c9.9-0.9,19.6-2.6,29-5.9
		c4.7-1.6,9.2-3.5,13.1-6.7c0.5-0.4,0.9-1.2,1-1.8c0.4-2.5,0.6-5,0.9-7.4c0.1-1.3,0.3-2.6,0.3-3.9c0-0.1-0.1-0.3-0.1-0.4l0.1-1.5
		c0.1,0,0.2,0,0.3,0c0-1.5,0.1-2.9-0.1-4.4C303.9,292.4,303.8,292.3,303.6,292.2z"/>
	<path class="st0" d="M178.2,325.2c0,0.2,0.1,0.4,0.1,0.6c1.6,6,3.6,11.9,6.2,17.5c0.3,0.6,0.9,1.3,1.5,1.6c10.7,5.7,22.1,9,34,10.7
		c13,1.8,26.1,1.8,39.1-0.3c11.3-1.8,22.2-5,32.4-10.4c0.6-0.3,1.2-0.9,1.4-1.5c1.5-3.6,2.9-7.2,4.3-10.8c0.9-2.4,1.5-4.9,2.2-7.4
		C259,339,218.7,339,178.2,325.2z"/>
	<path class="st0" d="M193.7,358.9c0,0.2-0.1,0.3-0.1,0.5c0.1,0.1,0.1,0.2,0.2,0.3c0.1,0.2,0.3,0.4,0.4,0.7
		c11.2,16,26.1,27.3,43.9,35c0.4,0.2,1.1,0.2,1.6,0c1.9-0.8,3.9-1.7,5.8-2.6c15.3-7.6,28.1-18.1,38-32.1c0.3-0.4,0.5-0.8,0.8-1.2
		c0-0.2-0.1-0.3-0.1-0.5C253.9,369.6,223.8,369.6,193.7,358.9z"/>
</g>
</svg>
