<?xml version="1.0" encoding="utf-8"?>
<!-- Generator: Adobe Illustrator 26.0.2, SVG Export Plug-In . SVG Version: 6.00 Build 0)  -->
<svg version="1.1" id="Ebene_1" xmlns="http://www.w3.org/2000/svg" xmlns:xlink="http://www.w3.org/1999/xlink" x="0px" y="0px"
	 viewBox="0 0 313.1 356.3" style="enable-background:new 0 0 313.1 356.3;" xml:space="preserve">
<style type="text/css">
	.st0{fill:#BCB4A8;}
</style>
<path class="st0" d="M313.1,44.4c-5.2,1-10.4,2-14.9,2.8c-0.6,4.5-0.1,9.7-2.2,13.2c-2,3.2-6.8,4.7-11.2,7.4c0.1,4,1.1,9.2,5.5,13.4
	c2.1,2.1,1.3,4-2,4.1c-1.6,0-3.2-0.2-5-0.4c2.1,8.9,4.5,17.5,6.1,26.2c5.5,29.7,5.1,59-5.8,87.6c-7.3,19-19.3,34.5-36.7,45.4
	c-1.4,0.9-2.8,1.9-3.8,3.2c-11.2,14.4-26.2,21.7-43.9,24c-1.5,0.2-3.2,0.8-4.3,1.9c-3.2,3.1-5.7,7-9.1,9.8
	c-3.4,2.8-7.5,4.8-12.1,7.7c2.2,4.6,3.7,10.1,7,14.2c2.3,2.9,6.7,4.5,10.5,5.6c4.4,1.3,9.9-0.6,12.5,5.3c0.3,0.6,2.4,0.5,3.7,0.6
	c6.3,0.3,12.7,0.2,18.9,1c3.3,0.5,6.3,2.6,8.9,4.7c-6.1,0.4-12.2,0.9-18.3,1c-9.8,0.2-19.5,0-29.2,0c0.9,2.8,2,6,3,9.1
	c-0.5,0.3-1,0.6-1.6,0.9c-3.5-2-6.9-4-10.8-6.2c1.6,6.4,3,7.9,8.3,7.3c9.6-1.1,19.1-2.5,28.6-4c5.4-0.8,9.2,1.4,12.4,4.8
	c-12.3,2.4-24.6,4.7-36.8,7.1c0,0.7,0,1.5,0,2.2c4.1,1.1,8.2,2.5,12.4,3.4c5.6,1.1,6.9,2.1,9.2,8.6c-7.5-1.9-14.6-3.8-21.6-5.5
	c-5.7-1.4-11.6-2.3-17.2-4.1c-3.7-1.2-7.3-5.2-10.6-4.9c-3.7,0.4-7,3.9-11.5,2.6c-1.5-0.4-3.2-0.1-6.1-0.1
	c10.1-5.2,16.4-11.6,14.3-22.9c-5.1,0.3-9.5,0.5-15.4,0.8c3-1.8,4.8-3,6.8-4.1c5.4-3,6.4-5,5-10.8c-0.3-1.3-0.6-2.6-1-3.9
	c-1.8-6.5-4-11.7-12.3-13.1c-10.1-1.7-18.1-8-24-16.7c-1-1.5-2.9-2.7-4.6-3.2c-30.3-8.6-53.2-26.1-67-54.8c-0.7-1.4-2.3-2.7-3.8-3.4
	c-3.9-1.8-8.1-3-12-4.8c-3.3-1.6-6.5-3.4-9.3-5.8c-8.1-7-8.8-14.2-2.6-22.6c-16.7-15-19.4-24.6-9.4-33.3
	c-12.6-17.5-13.1-29.3-1.3-35.2C4,100.2,1.1,89.4,7.8,78.9c1.6-2.5,5.1-3.7,7.8-5.5c1.1-5.6,1.7-12.2,3.7-18.4
	c2.5-7.7,7.5-10.4,15.4-9.8c0.8-3.2,1.2-6.6,2.6-9.5c1.7-3.5,3.9-7.1,6.7-9.8c7-6.7,12.3-5.9,18.5,2.1c3.6-7.5,8.8-13.3,16.8-16.1
	c9.8-3.5,15.7,1.1,13.3,11c-5.4,23.3-1.1,45.6,6.1,67.7c0.9,2.9,3.3,5.6,5.7,7.6c3.8,3.1,7.9,6.6,12.5,8.1
	c15,5.2,29.6,12.5,46.2,10.2c1.6-0.2,3.1-0.9,4.6-1.6c11.1-4.9,22.3-9.6,33.3-14.7c2.2-1,4.4-3,5.5-5.2
	c6.4-11.3,12.2-22.9,18.6-34.2c7.3-13,15.1-25.6,27.6-34.3c4.2-2.9,8.9-5,12.5-6.9c-0.1-5.3-0.9-10.3-0.1-15.1
	c0.8-5.3,3.7-5.6,7.7-2.2c1.3,1.1,3.6,1,5.5,1.6c1.4,0.4,2.7,1.1,4.6,1.8c0,0,0.6-0.7,1.1-1.4c0.6-0.7,1.1-1.5,2.3-3.2
	c0.8,3.8,1.5,6.6,2.2,9.8c1.1-1.2,2.1-2.2,3.3-3.5c0.5,2,1,3.6,1.4,5.2c0.8,0,2.1-0.5,2.4-0.1c1.9,2.6,3.7,5.3,5.2,8.1
	c1.6,3,2.8,6.2,4.2,9.3c0.7,1.5,1.3,3.1,2.3,4.4c1.7,2.2,3.7,4.1,5.6,6.2C313.1,41.7,313.1,43,313.1,44.4z"/>
</svg>
