<?xml version="1.0" encoding="utf-8"?>
<!-- Generator: Adobe Illustrator 26.0.2, SVG Export Plug-In . SVG Version: 6.00 Build 0)  -->
<svg version="1.1" id="Ebene_1" xmlns="http://www.w3.org/2000/svg" xmlns:xlink="http://www.w3.org/1999/xlink" x="0px" y="0px"
	 viewBox="0 0 876 584.6" style="enable-background:new 0 0 876 584.6;" xml:space="preserve">
<style type="text/css">
	.st0{fill:#BCB4A8;}
</style>
<path class="st0" d="M676.4,75.1c-8.9-12.8-6.4-19,7.3-21c5.4-0.8,11-0.4,16.5,0c7.5,0.6,10.3-1.7,9.2-8.9c-1-6.8,2-11.8,7.2-15.4
	C727.7,21.8,739,14.2,746.4,2c0.8-1.3,3.5-2.4,4.8-1.9c1.1,0.4,2.5,3.4,2,4.6c-2.4,6.4-5,12.8-8.1,18.8c-1.6,3-4.4,5.4-5.8,7
	c7.5,1.1,15.1,2.4,22.8,3.1c2.4,0.2,5.4-0.3,7.4-1.6c9.7-6.4,19.2-13.3,28.4-19.7c2,6.6-0.5,10.8-20.8,32c6.5,8,13.1,16.1,19.5,24.3
	c4.6,5.9,10.1,11.4,13,18.1c9.1,20.9,25.4,36.5,38.2,54.7c3.7,5.2,9.8,9.2,15.6,12.3c9.9,5.2,13.6,13,12.7,23.6
	c-0.9,10.3-4.8,18.4-15,22.6c-1.9,0.8-4.1,1.9-4.9,3.6c-3.8,7.1-10.2,10-17.4,9.2c-24.6-3-48.8,0.9-73.1,3.3
	c-8.1,0.8-16.6-2-24.9-2.7c-3.8-0.3-8.1-0.5-11.4,1.1c-19.3,9.3-31.3,26-41.1,44c-2.9,5.3-1.5,12.7-2.7,19
	c-3.1,16.7-7.7,33.2-19.1,46c-6.9,7.8-12.1,16.2-17.3,25c-10.5,17.5-26.6,27.9-46.3,33c-2.5,0.7-5.9,2.9-6.5,5.1
	c-12.4,43.2-17.9,86.9-10.3,131.7c1.5,8.6,4.3,16.1,10.7,22.9c6.5,6.9,11.7,15.2,16.3,23.5c3.8,6.7,0.9,11.5-6.9,11.5
	c-8.5,0-17.1-1.1-25.6-2.4c-2.9-0.4-6.3-2.2-8-4.5c-10-13.2-22.7-24.7-22.7-43.8c0-24-1.5-48-2.9-72c-0.8-13.7-3.2-27.2-10.7-40.5
	c-3.7,8.3-7.1,15.8-10.4,23.2c-0.6,1.3-0.9,2.8-1.7,4c-10.2,15.4-11.6,32.6-10,50.3c1.3,14.8,2.4,29.7,4,44.5
	c0.4,3.9,2.4,7.6,4.1,11.2c3.6,7.8,8.1,15.3,10.9,23.4c2.8,8.3-1.6,15.2-10.2,15.1c-9.6-0.1-19.6-1.5-28.7-4.5
	c-8.6-2.8-12.4-11-13.5-19.8c-0.5-4-0.4-8.1-0.6-12.2c-7.8-3.9-9.8-7.2-7.8-16c6.6-29.1,6.7-58.6,5.2-88.2
	c-0.7-13.9-3.2-27.6-4.4-41.5c-0.6-6.7-0.5-13.5,0.2-20.1c0.6-5.6-1.7-7.4-6.7-8.6c-23.2-5.6-46.6-5.5-70.2-4.4
	c-32.1,1.5-64.2,5.6-96.4,2.4c-23.3-2.3-46-6.9-67.2-17.2c-4.5-2.2-7.3-2-11.2,1.7c-8.3,7.9-17.3,15.2-26.4,22.3
	c-3.5,2.7-4.6,5.3-4.7,9.5c-0.2,5.2-1.1,10.5-2.6,15.5c-1.1,3.9-3.8,6.3-8.1,3c-0.8-0.6-2.4-1.1-2.9-0.7c-7.8,6.4-7.7-1.1-9.2-5.3
	c-0.5-1.5-0.3-3.3-0.4-5c-6.4,0.1-9.5,2.6-10.2,9.3c-0.5,4.8-1,12.2-10.2,8c-2.2-1-5.9,1.2-9.6,2.1c1,27,1.9,54.8,12.5,81.1
	c2.8,7,7.4,13.3,11.7,19.6c8,11.7,16.9,22.7,24.3,34.8c5.8,9.5,3.5,13.4-7.7,14.5c-7.3,0.7-14.8,0.5-22.2-0.2
	c-3.7-0.3-7.4-2-10.8-3.8c-7.1-3.7-7.9-13.6-12.6-17.1c-6.8-5.1-8.8-10.2-9.9-17.4c-4-28.2-12.6-55.1-22.6-81.6
	C94.7,430.2,89.6,415.7,84,400c-3.7,4.7-7.6,9.1-10.8,13.9c-10.1,15.2-15.8,32.2-15.1,50.3c0.9,21.5,3.6,43,5.9,64.4
	c0.3,3,2.8,5.9,4.5,8.6c4.5,7.1,9.9,13.6,13.5,21.1c4.8,9.8,0.6,17.3-10.3,17.5c-28.4,0.5-41.4-6.2-44.7-32c-0.2-1.9-0.6-3.8-1-5.9
	c-7.3-0.4-8.6-5.8-8.4-11.6c0.4-13.2,1.1-26.4,2-39.6c1.8-27.2,0.7-54.2-4.4-81.1c-1.3-6.7-1.5-13.5-2.3-20.8
	c-4.9,2.2-8.9,4-12.9,5.8c9.8-13.5,15.4-27.4,14.1-44.2c-0.7-8.9,0.5-18.3,2.4-27.1c0.9-4.4,5.4-8,8.1-12.1c1.3-2,3-4.2,3.3-6.5
	c2.8-28.1,1.4-56.1-2.2-84.1c-2.8-21.7-6.1-43.3-7.3-65.1c-0.7-12.7,0.9-26,3.9-38.4c5.4-22,21.7-35.6,44.3-36.9
	c11.7-0.7,22.5-3.2,33.7-6.1c32.9-8.5,66-6.3,98.4,1.9c22.7,5.7,44.6,14.4,67,21.5c5,1.6,10.2,3.1,15.4,3c43.2-0.3,86.5,0,129.7-1.8
	c59.5-2.5,118.9-7.3,178.4-10c18.4-0.8,36.9,2.1,55.3,3.2c2.3,0.1,4.9,0.2,6.9-0.7C659.6,83.5,667.6,79.4,676.4,75.1z"/>
</svg>
