<?xml version="1.0" encoding="utf-8"?>
<!-- Generator: Adobe Illustrator 26.0.2, SVG Export Plug-In . SVG Version: 6.00 Build 0)  -->
<svg version="1.1" id="Ebene_1" xmlns="http://www.w3.org/2000/svg" xmlns:xlink="http://www.w3.org/1999/xlink" x="0px" y="0px"
	 viewBox="0 0 442.4 512.8" style="enable-background:new 0 0 442.4 512.8;" xml:space="preserve">
<style type="text/css">
	.st0{fill:#BCB4A8;}
</style>
<path class="st0" d="M15,362.2c-3.1-0.5-5.9-1.1-8.6-1.5c-4.2-0.6-6.7,1.6-6.4,5.6c0.5,5.1,0.8,10.6,2.9,15
	c8.3,16.8,17,33.5,26.4,49.8c5.1,8.8,13,15.3,24.9,15.4c-1,10.8,3.4,19.5,10.8,26.5c-4.4,7.7-3.8,10.5,4.7,12.5
	c14.2,3.4,28.7,5.9,43.1,8.4c22.5,3.9,45,7.4,67.6,11c4.4,0.7,9,1.2,13.4,0.9c2.4-0.2,4.5-2.6,6.8-3.9c1.2-0.7,2.4-1.4,3.7-1.5
	c4.6-0.5,9.3-0.4,13.9-1.3c5.1-1,5.5-3.1,2.9-7.4c-1.8-3-3.5-6.2-4.1-9.5c-1.8-10.3-7.8-17.1-17-21.3c-5.6-2.5-11.3-4.6-18.3-7.3
	c15.9-2.5,30.6-4.6,45.3-0.5c2.2,0.6,4.7,2.9,5.5,5c3.1,8.1,6,16.2,8,24.6c2.8,12.1,17.1,26.2,30.3,28.3c6.1,0.9,12.3,1.1,18.4,1.8
	c6.3,0.7,11.3-2.3,15.9-5.8c4-3.1,4.3-7.7,2-11.7c-2.2-4-5.6-7.4-8.1-11.3c-2.9-4.4-5.5-9.1-8.9-14.6c6.5,0.7,11.2,1.6,16,1.7
	c8.9,0.1,11.2-3.6,7.6-11.6c-3-6.5-6.6-12.7-10-19c-8.4-15.5-5.8-29.4,13.1-38.5c42.5-20.5,60.2-54.3,58.9-99.9
	c-0.1-3.6,0.7-6.1,3.1-8.9c9.8-11.6,12.6-25.6,11.4-40.3c-0.6-7.7-2.2-15.5-4.4-23c-2.1-6.8-3.2-13.5-3.1-20.6
	c0.1-7.5-0.1-15-0.7-22.5c-1-13,3.1-23.9,10.8-34.3c23.1-31.5,40.2-66,48.3-104.4c1.7-8,1.5-16.6,1.1-24.8c-0.1-3.4-2.5-8.7-4.8-9.4
	c-2.9-0.8-7.8,1.5-10.3,4c-8.3,8.2-16.1,16.9-23.7,25.7c-14.2,16.2-28.7,31.9-46.6,44.3c-4.7,3.2-8.3,8.8-11,14
	c-5.7,10.9-10.7,22.1-15.5,33.5c-3.1,7.3-2.6,7.5-11,6.3c-3.9-14.5-7.4-29-11.6-43.4c-6.8-23.2-15-45.9-27.5-66.8
	C272,18,262.1,6.7,246.4,1.7C234.7-2,231.9,0,233.9,11.9c1.2,7.4,3.4,14.7,4,22.1c0.7,8.6,1.1,17.4-0.1,25.8
	c-2.6,18.3,0.5,35.7,7.9,52.2c5.2,11.6,11.7,22.8,18.3,33.8c6.3,10.5,8.1,21.2,3,32.3c-4,8.6-9.2,16.6-13.5,24.2
	c-13.4-3.3-26.1-7.5-39.2-9.5c-76.6-11.9-138.7,13.4-185.6,75C11.4,290.3,4.4,316.2,10,344.6C11.1,350.4,13.2,356.1,15,362.2z"/>
</svg>
