<?xml version="1.0" encoding="utf-8"?>
<!-- Generator: Adobe Illustrator 26.0.2, SVG Export Plug-In . SVG Version: 6.00 Build 0)  -->
<svg version="1.1" xmlns="http://www.w3.org/2000/svg" xmlns:xlink="http://www.w3.org/1999/xlink" x="0px" y="0px"
	 viewBox="0 0 178.4 178.5" style="enable-background:new 0 0 178.4 178.5;" xml:space="preserve">
<style type="text/css">
	.st0{fill-rule:evenodd;clip-rule:evenodd;fill:#6A8168;}
	.st1{fill-rule:evenodd;clip-rule:evenodd;fill:#C47E7A;}
</style>
<g id="Vrstva_2">
</g>
<g id="Vrstva_1">
	<g>
		<path class="st0" d="M120.4,175.2c-4.6,2.4-9.4,3.6-14.6,2.6c-1.3-0.3-2.7,0.1-4,0.1c-1.7,0-3.4-0.2-5.1-0.1
			c-1.2,0-2.3,0.3-3.6,0.4c0.4-0.3,0.7-0.5,1.1-0.8c0-0.1-0.1-0.3-0.1-0.4c-0.6,0.2-1.4,0.2-1.8,0.6c-0.8,0.7-1.5,0.8-2.5,0.5
			c-0.9-0.3-2.1-0.6-2.9-0.2c-1.9,1-3.7,0.4-5.4-0.1c-0.7-0.2-1.1-0.2-1.7,0.3c-0.8,0.7-1.8,0.5-2.4-0.3c-0.9-1.3-1.8-1.6-3.3-1.2
			c-0.4,0.1-0.8,0.4-1.1,0.2c-2.5-1.4-5.4-0.2-8.1-1c-2.3-0.7-4.2-1.8-6.1-3.1c-1.2-0.9-2.5-1.4-3.9-1.9c-1.6-0.5-3.1-1.4-4.6-2.2
			c-1.6-0.8-3.2-1.6-4.7-2.6c-3.1-2-6.2-4-9.2-6.2c-1.6-1.2-2.9-2.7-4.1-4.3c-1.1-1.4-1.9-3-2.8-4.6c-0.5-0.8-0.8-1.6-1.3-2.6
			c0,0-0.4,0.1-0.7,0.2l0,0c0.1-0.6,0.6-1.3-0.6-1.3c-0.1,0-0.1,0.2-0.2,0.3l0,0c-0.6,0-1.2,0-1.8,0l0,0c0.2-0.1,0.4-0.2,0.7-0.4
			c-0.4-0.3-0.7-0.5-0.8-0.5c-0.6,0.2-0.9,0.3-1.2,0.4l0,0c-0.2-1.7,1.1-0.7,1.8-1c0.2,0.1,0.3,0.2,0.4,0.3c0-0.1,0-0.1,0.1-0.2
			c-0.2,0-0.4-0.1-0.5-0.1c-0.7-0.3-1.3-0.5-2-0.8c-0.2,0-0.4-0.1-0.7-0.1c0,0.1,0,0.2,0,0.2c0.2,0,0.4-0.1,0.7-0.1
			c-0.2,0.5-0.4,1-0.6,1.5c-0.7-0.3-0.9-1.9-1.9-0.7c-0.7-0.5-1.2-0.9-1.8-1.3c0.3,0,0.5,0,0.8,0c1.2-0.1,2.5-0.2,3.7-0.2
			c0.1,0,0.2,0,0.2,0c0.1,0,0.2,0,0.3,0c0.2,0.1,0.4,0.1,0.7,0.2c0-0.1,0-0.1,0-0.2c-0.2,0-0.5,0-0.7,0c-0.1,0-0.2,0-0.3,0
			c-0.1,0-0.2,0-0.3,0c-0.2-0.4-0.4-0.8-0.5-0.9c-1.4,0-2.5,0-3.8,0c0.1,0.2,0.3,0.6,0.6,0.9c-0.3,0.1-0.5,0.2-0.8,0.2
			c-0.7-1-1.4-2-2.1-3c-0.1-0.1,0-0.4,0-0.6c-1.7-1.2-2.1-3.4-3.4-5c1.8-0.6,2.2,0.9,3.1,1.8c0.8-1.1-0.5-2.9,1.3-3.5
			c0.1-0.1,0.2-0.1,0,0c0.1-0.1,0,0,0,0c-0.5-0.2-1-0.5-1.5-0.8c0.7-0.2,1.3-0.4,1.9-0.6c0.1,0,0.2,0,0.2,0c0.4,0,1,1.5,0.9,1.9
			c-0.2-0.1-0.3-0.2-0.5-0.2c0,0.1-0.1,0.2-0.1,0.3c0.2,0,0.4,0,0.6,0c1.1,1.6,2.2,3.1,3.5,4.6c-0.3,0.2-0.6,0.3-0.9,0.5
			c0.1,0.1,0.1,0.2,0.2,0.2c0.6-0.2,0.9-0.1,1.2,0.6c0.4,0.7,1.1,1.3,1.7,2c-0.1,0-0.2,0.1-0.3,0.1c0.1-0.1,0.2-0.1,0.3-0.2
			c0.6,0.2,1.2,0.3,1.9,0.5c-0.7-2.4-1.3-4.5-1.9-6.6c0.3-0.1,0.5-0.2,0.8-0.2c0.1-0.1,0.1-0.3,0.2-0.4c-0.2,0.1-0.5,0.1-0.7,0.2
			c-0.1,0.2-0.2,0.3-0.2,0.5c-0.1-0.5-0.2-1-0.3-1.5l0,0c-0.4-0.5-0.9-1-1.2-1.5c-0.9-2.1-1.7-4.2-2.6-6.4c0.3-0.2,0.6-0.3,0.8-0.5
			c-0.4-0.3-0.8-0.6-1.3-0.9c0.7,0.1,1.4,0.2,2,0.3l0,0c0.3,0,0.6-0.1,0.8-0.1c0-0.1,0-0.3-0.1-0.4c-0.9-0.2-1.9-0.6-2.8,0.3
			c-0.8-2.3-1.7-4.6-2.5-6.9c-0.3-0.8-0.6-1-1.5-0.7c-0.6,0.2-1.3,0.9-2.1,0c-0.2-0.2-1.3,0.3-2,0.5c-0.1-0.1-0.2-0.2-0.3-0.3
			c0,0-0.1,0-0.1,0c0,0,0.1,0,0.1,0c0.1,0.1,0.2,0.2,0.3,0.3c0.2,0.6,0.3,1.1,0.5,1.7c-0.1,0-0.3,0.1-0.4,0.2
			c-0.2-0.3-0.5-0.6-0.7-0.9c0.1-0.1,0.2-0.1,0.2-0.2c-0.4,0-0.7,0-1.1,0c-0.2-0.9-0.6-1.9-0.6-2.8c-0.1-2.1-0.9-3.9-1.8-5.6
			c-0.4-0.9-1.5-1.5-2.4-2c-0.5-0.3-1,0.1-0.8,1c0.5,2.2,0.9,4.5,1.3,6.8c-0.8,0.1-1.3,0.2-1.3-0.7c-0.2-2.4-0.4-4.7-0.7-7.1
			c-0.1-0.6-0.5-1.3-1.1-1.6c-1.4-0.8-2-1.9-2-3.6c0-2.1-0.5-4.2-0.7-6.3c-0.4-4.6-0.9-9.2-1-13.9c-0.1-3.4,0.5-6.8,0.7-10.2
			c0.1-2.3,0.7-4.4,1.4-6.6c1.4-4.3,2.5-8.6,3.6-13C6.3,51.8,8,50,9.2,47.9c1.2-2.1,2.5-4.1,3.8-6.2c0.9-1.6,1.8-3.2,2.8-4.7
			c0.4-0.6,1-1,1.5-1.5c3.9-3.7,7.5-7.6,10.9-11.7c3.8-4.6,8.3-8.3,13.5-11c0.6-0.3,1.3-0.5,2-0.7c2.7-0.8,5.4-1.6,8.1-2.5
			c1.5-0.5,2.9-1.5,4.4-2.1C58.6,6.7,61,5.9,63.4,5c0.4-0.2,0.9-0.3,1.3-0.5c4-2.6,8.5-3.8,13.2-4.3c5.1-0.6,9.9,0.5,14.8,1.3
			c2.8,0.5,5.7,0.8,8.5,1.3c5.2,0.9,10.5,1.8,15.7,2.9c1.7,0.4,3.2,1.6,4.8,2.4c1,0.5,2.1,1.1,3.1,1.7c1.6,1,3.2,2.1,4.9,3
			c1,0.6,2.1,0.8,3,1.4c2.6,1.6,5.3,3.3,7.4,5.6c0.3,0.3,0.7,0.5,1.1,0.8c1.8,1.2,3.6,2.4,5.4,3.6c2.5,1.8,4.9,3.8,7.3,5.7
			c0.4,0.3,0.7,0.8,1,1.3c1.4,2.3,3.2,4.3,3.8,7c0.2,0.8,1.1,1.6,1.8,2.1c1.8,1.3,3.3,2.8,4.1,5c0.3,0.8,0.9,1.4,1.4,2
			c2,2.4,3.2,5.2,3.6,8.1c0.4,2.9,1.5,5.5,1.8,8.4c0.2,1.3,1.2,2.4,1.7,3.7c0.4,1.2,0.8,2.4,0.8,3.6c0,4.3,1.1,8.3,2.6,12.2
			c1.7,4.3,2.5,8.8,1.7,13.4c-0.2,1-0.8,2-1.1,3.1c-1.1,3.6-2.3,7.2-3.1,10.9c-0.7,3.1-0.8,6.3-1.2,9.4c-0.1,0.4-0.1,0.8-0.2,1.2
			c-0.3,1.3-0.5,2.6-0.9,4.1c-1.2,0.6-1.6,1.6-0.7,2.4l0,0c-0.6,0.7-1.2,1.3-1.7,2l0,0c-0.2,0.3-0.4,0.5-0.5,0.8
			c-0.1,0.2-0.2,0.5-0.3,0.7c-0.2-0.1-0.5-0.2-0.7-0.4c-0.3-0.3-0.6-0.7-1-1.3c0.2-0.2,0.6-0.7,0.9-1.1c0.2,0,0.3,0,0.5,0
			c0.1,0,0.2,0,0,0c0.1-0.1,0.1,0,0,0c-0.2,0-0.4,0-0.5,0c-0.3,0-0.6-0.1-0.8,0c-0.4,0.2-0.6,0.5-1,0.7c0,0-0.1,0-0.1,0
			c0,0,0.1,0,0.1,0c-0.6,0.7-1.2,1.3-1.7,2c0.5,0.4,1,0.8,1.7,1.3c0,0,0.1-0.1,0.3-0.2c0.4-0.1,0.7-0.1,1.1-0.2
			c-0.1,0.4-0.2,0.8-0.3,1.1c-0.3,0.5-0.6,1-0.9,1.5l0,0c-0.3-1.2-1.2-0.9-2-0.8c0-0.1-0.1-0.3-0.1-0.4c-0.1,0-0.1,0.1-0.2,0.1
			c0.1,0.1,0.2,0.2,0.3,0.3c0.3,0.2,0.5,0.5,0.8,0.7c0.1-0.1,0.1-0.2,0.2-0.2c0.7,1.1,0,1.8-0.7,2.5l0,0c-0.2,0-0.4,0-0.5,0l0,0
			c-0.4,0.2-0.8,0.3-1.3,0.5l0,0c0.2,0.2,0.5,0.5,0.7,0.8c-1.4,1.7-2.9,3.5-4.5,5.3c-0.3-0.1-0.9-0.4-1.4-0.6
			c-0.1,0.1-0.1,0.2-0.2,0.3c0.3,0.2,0.7,0.3,0.9,0.6c0.3,0.4,0.5,1.4,0.5,1.4c-1.1,0.5-0.7,1.6-1.1,2.4c-0.5,0.8-0.9,1.7-1.3,2.6
			c-0.2,0.3-0.4,0.6-0.6,0.9l0,0c-0.4,0.1-0.9,0.2-1.1,0.5c-0.4,0.4-0.6,0.9-0.9,1.3c-0.1-0.1-0.2-0.1,0,0c-0.1-0.1,0,0,0.1,0
			c-0.4,0.5-0.7,1.1-1.1,1.4c-0.6,0.4-1.6,0.5-1,1.6c0,0.1-0.3,0.3-0.5,0.5l0,0c-1.3,0.1-2.7,0.2-4,0.3c0,0.1,0.1,0.3,0.2,0.4
			c-0.7,0.2-1.3,0.4-2.1,0.7c-0.4,1.2,1.2,1.2,1.3,2.4c0.3-0.6,0.5-0.8,0.6-1.1l0,0c0.4-0.1,0.8-0.2,1.4-0.3
			c-0.1,1.3-1.1,1.3-1.8,1.5c-0.4,0.1-1-0.3-1.4-0.6c-0.7-0.6-1.3-1.2-2.1-2c0.1,0-0.1,0.1-0.3,0.2c0.4,0.6,0.8,1.2,1.1,1.8
			c-0.2,0.4-0.4,1-0.7,1.5c-0.2,0-0.4-0.1-0.7-0.1c0,0.1,0,0.2,0,0.3c0.2-0.1,0.4-0.1,0.7-0.2c-0.6,1.2,0.7,0.6,1,1.2
			c-0.2,0.1-0.5,0.5-0.7,0.4c-1.3-0.3-1.4,0.3-1.1,1.2c0.1,0.2,0,0.5,0,0.7c0,0,0,0,0,0c-0.9,0.5-1.9,1-2.8,1.4
			c-0.8,0.4-1.7,0.6-2.9,1c0.3-0.6,0.4-0.8,0.6-1.2c-0.5-0.2-1-0.5-1.4-0.7l0,0c-0.3-0.1-0.5-0.2-0.8-0.3c0.3-0.2,0.6-0.3,0.9-0.5
			c-0.1-0.1-0.2-0.2-0.2-0.3c-0.2,0.3-0.4,0.5-0.7,0.8c-0.3,0.5-0.6,1-0.9,1.5c-0.1-0.1-0.2-0.2-0.4-0.3c0.8,0,1.6-0.1,2.4-0.1
			c0,0.1,0,0.3,0,0.4c-1,0.2-1.9,0.5-2.9,0.7c-0.1-0.2-0.1-0.4-0.2-0.5c-0.1,0.1-0.2,0.2-0.3,0.3c0.2,0.1,0.3,0.1,0.5,0.2
			c0.2,0.3,0.5,0.5,0.8,0.9c-3.1,1.3-6.2,2.6-9.2,3.7c-1.9,0.7-3.4,1.6-4.3,3.4l0,0C120.6,175.2,120.5,175.2,120.4,175.2
			L120.4,175.2z M32.3,135.1C32.3,135.1,32.3,135.1,32.3,135.1L32.3,135.1z M22.7,129.8L22.7,129.8L22.7,129.8z M162.9,128.5
			L162.9,128.5L162.9,128.5z M140.7,160.2C140.7,160.2,140.8,160.2,140.7,160.2c0,0.1,0,0.2,0,0.3c0.5,0.1,0.9,0.2,1.4,0.3
			c0-0.2,0-0.3,0-0.5c-0.5,0.1-1,0.1-1.5,0.2C140.7,160.3,140.7,160.2,140.7,160.2z M142.3,158.4L142.3,158.4L142.3,158.4z
			 M136.5,156.9L136.5,156.9L136.5,156.9z M149,155.9L149,155.9L149,155.9z M149.5,153.9L149.5,153.9L149.5,153.9z M158.3,140.1
			L158.3,140.1L158.3,140.1z M144.8,148.6L144.8,148.6L144.8,148.6z M162.6,133.6C162.6,133.6,162.6,133.5,162.6,133.6L162.6,133.6z
			 M139.3,165.5c-0.1,0-0.1,0-0.1,0C139.1,165.5,139.2,165.5,139.3,165.5L139.3,165.5z M141,155.9C141,155.9,140.9,156,141,155.9
			C140.9,156,141,155.9,141,155.9L141,155.9z M133.5,160.4L133.5,160.4c0,0-0.1,0-0.1,0C133.4,160.4,133.4,160.4,133.5,160.4z
			 M34,138.1L34,138.1c0,0-0.1,0-0.1,0C34,138,34,138.1,34,138.1z M142,153.4c0,0-0.1,0-0.1,0.1C141.9,153.4,142,153.4,142,153.4
			L142,153.4z M21,140.1c0,0,0.1,0,0.1-0.1C21,140,21,140.1,21,140.1L21,140.1z M31,138.3C31.1,138.3,31.1,138.4,31,138.3
			C31.1,138.4,31.1,138.4,31,138.3c-0.1-0.1-0.2-0.1-0.2-0.2C30.9,138.2,30.9,138.2,31,138.3z M129.2,164.9L129.2,164.9
			c-0.1-0.1-0.2-0.1-0.3-0.2C129,164.8,129.1,164.9,129.2,164.9z M138,158.4c-0.2,0-0.3-0.1-0.5-0.1c0,0.1,0,0.1,0,0.2
			C137.7,158.5,137.8,158.5,138,158.4L138,158.4z M23.7,130.3c-0.2,0.1-0.3,0.2-0.5,0.2c0,0.1,0.1,0.1,0.1,0.2
			C23.5,130.6,23.6,130.4,23.7,130.3L23.7,130.3z M26.5,145.9c-0.1-0.1-0.1-0.2-0.2-0.3C26.4,145.7,26.4,145.8,26.5,145.9
			c0.1,0.2,0.2,0.4,0.4,0.6c0.1-0.1,0.1-0.1,0.2-0.2C26.8,146.1,26.7,146,26.5,145.9z M134.7,156.6c0.1,0.2,0.2,0.4,0.3,0.6
			c0.1,0,0.1-0.1,0.2-0.2C135.1,157,134.9,156.8,134.7,156.6c0-0.2,0-0.5,0-0.7c-0.2,0.1-0.4,0.1-0.5,0.2
			C134.4,156.3,134.6,156.5,134.7,156.6z M128.4,169.2c-0.2-0.3-0.3-0.7-0.5-1l0,0c-0.2,0.5-0.4,0.9,0.2,1.3
			c0.3,0.1,0.6,0.1,0.9,0.2c0-0.1,0-0.2,0-0.3C128.9,169.3,128.7,169.3,128.4,169.2z M141,156.7c-0.4-0.2-0.8-0.4-1.2-0.6
			C140.2,157,140.2,157,141,156.7c0.2,0,0.4,0,0.5,0c0-0.1,0-0.1,0-0.2C141.3,156.5,141.2,156.6,141,156.7z M127.7,170.2
			L127.7,170.2c-0.2-0.3-0.4-0.6-0.9-1.3c-0.1,0.7-0.1,1-0.1,1.4C127.1,170.3,127.4,170.2,127.7,170.2z M26.8,134.3
			c-0.3-0.1-0.5-0.2-1-0.5c0.3,0.6,0.4,0.9,0.5,1.2c-0.2,0-0.3,0.1-0.5,0.1c0,0.1,0.1,0.1,0.1,0.2c0.1-0.1,0.2-0.2,0.4-0.3
			C27.3,135.4,26.4,134.5,26.8,134.3L26.8,134.3z M150.8,151.6c0,0.2,0,0.5,0.1,0.6c0.4,0.3,0.9,0.4,1.4,0.7
			c0.4-0.9,0.4-0.9-0.9-1.2C151.1,151.6,151,151.6,150.8,151.6z M138,163.4c0.3,0.2,0.6,0.3,0.9,0.6c0.8,0.6,1.1,0.4,1.1-0.6
			c0.7-0.4,1.3-0.7,2.2-1.2c-0.7-0.4-1.2-0.7-1.8-1.1c0,0.1-0.1,0.1-0.1,0.2c0.2,0.3,0.4,0.5,0.4,0.5c-0.3,0.7-0.4,1.1-0.6,1.6
			C139.3,163.2,138.7,162.6,138,163.4L138,163.4z M30.8,140.1L30.8,140.1c1.1,0.8,1.5,0.6,1.8-0.8c-0.8-0.1-1.5-0.1-2.3-0.2
			c-0.1,0-0.2,0-0.3,0c-0.5,0.2-1,0.3-1.4,0.5c0,0.1,0,0.2,0,0.3C29.3,139.9,30,140,30.8,140.1z M25.5,131c0.1,0,0.2,0,0.3,0
			c0.1,0,0.3-0.1,0.3-0.1c-0.3-0.9-0.6-1.9-1-2.8c-0.4-0.8-1.3-0.8-1.8-0.1l0,0c0.4,0.8,0.8,1.7,1.3,2.5
			C24.7,130.8,25.2,130.9,25.5,131z M164.6,135.8c-0.1-0.2-0.2-0.3-0.2-0.5c-0.6,0.3-1.1,0.6-1.7,0.9c0.1,0.2,0.1,0.3,0.2,0.5
			C163.5,136.3,164.1,136.1,164.6,135.8z M20.3,142.8c0.1-0.1,0.2-0.2,0.3-0.4c-0.3-0.3-0.6-0.5-0.9-0.8c-0.1,0.1-0.2,0.2-0.3,0.3
			C19.8,142.2,20,142.5,20.3,142.8z M140.5,158.5c0.1,0.1,0.2,0.3,0.2,0.4c0.2-0.1,0.5-0.3,0.7-0.4c0,0-0.1-0.3-0.2-0.4
			C141,158.3,140.8,158.4,140.5,158.5z M137.2,152.6c-0.1-0.1-0.2-0.2-0.2-0.3c-0.3,0.2-0.5,0.4-0.8,0.6c0.1,0.1,0.2,0.2,0.2,0.3
			C136.6,153,136.9,152.8,137.2,152.6z M27.7,140c0-0.2,0-0.3,0-0.5c-0.3,0-0.6,0-0.9-0.1c0,0.1,0,0.3-0.1,0.4
			C27.1,139.9,27.4,139.9,27.7,140z M33.9,139.5c0.1-0.1,0.2-0.2,0.3-0.3c-0.2-0.2-0.4-0.3-0.6-0.4c0,0-0.2,0.2-0.2,0.2
			C33.5,139.1,33.7,139.3,33.9,139.5z M27.6,133.4c0-0.1,0-0.2,0-0.3c-0.3,0-0.6,0-0.9,0c0,0.1,0,0.2,0,0.3
			C27,133.4,27.3,133.4,27.6,133.4z M136.7,163.3c0-0.1,0-0.3,0-0.4c-0.3,0.1-0.5,0.1-0.8,0.2c0,0,0,0.1,0,0.3
			C136.2,163.4,136.5,163.3,136.7,163.3z M138.8,162.1c0,0.1-0.1,0.3-0.1,0.4c0.3,0,0.6,0,0.8,0.1c0-0.1,0-0.2,0-0.3
			C139.3,162.2,139.1,162.1,138.8,162.1z M155.2,146c0,0.1,0,0.2,0,0.3c0.4,0,0.8,0,1.2,0.1c0-0.1,0-0.2,0-0.3
			C156.1,146,155.7,146,155.2,146z M24.8,134.4c0.1-0.1,0.2-0.1,0.4-0.2c-0.2-0.3-0.3-0.5-0.5-0.8c-0.1,0.1-0.2,0.1-0.3,0.2
			C24.6,133.9,24.7,134.2,24.8,134.4z M140.1,158c0-0.1-0.1-0.2-0.1-0.4c-0.3,0.1-0.5,0.1-0.8,0.2c0,0.1,0.1,0.2,0.1,0.3
			C139.6,158.1,139.8,158.1,140.1,158z M155.9,147.3c-0.2-0.1-0.4-0.2-0.5-0.2c-0.1,0-0.2,0.2-0.3,0.3c0.1,0.1,0.2,0.2,0.3,0.2
			C155.6,147.7,155.7,147.5,155.9,147.3z M147.4,153.3c0.1,0,0.2,0,0.3,0c0-0.3,0-0.6,0.1-0.9c-0.1,0-0.2,0-0.2,0
			C147.4,152.7,147.4,153,147.4,153.3z M154.7,148.4c0,0.1,0,0.2,0,0.3c0.3,0,0.5,0.1,0.8,0.1c0-0.1,0-0.2,0-0.3
			C155.3,148.4,155,148.4,154.7,148.4z M17.7,136.2c-0.1,0.1-0.2,0.2-0.2,0.3c0,0.1,0.2,0.2,0.2,0.2c0.1,0,0.2-0.2,0.3-0.2
			C17.9,136.4,17.8,136.3,17.7,136.2z M27.2,137.1c0-0.1-0.1-0.2-0.1-0.3c-0.2,0.1-0.4,0.2-0.6,0.3c0,0,0.1,0.2,0.1,0.2
			C26.8,137.3,27,137.2,27.2,137.1z M142.3,155.5c0,0.1,0.1,0.1,0.1,0.2c0.2-0.1,0.4-0.2,0.6-0.3c0-0.1,0-0.1-0.1-0.2
			C142.7,155.3,142.5,155.4,142.3,155.5z M156.4,144.3c0-0.1,0-0.2,0.1-0.3c-0.2,0-0.3-0.1-0.5-0.1c0,0-0.1,0.2,0,0.2
			C156,144.2,156.2,144.3,156.4,144.3z M29.9,134.2c0,0.1-0.1,0.1-0.1,0.2c0.2,0.1,0.4,0.2,0.6,0.3c0-0.1,0.1-0.2,0.1-0.2
			C30.3,134.4,30.1,134.3,29.9,134.2z M149.5,152.7c0,0.1,0.1,0.2,0.1,0.2c0.2-0.1,0.3-0.2,0.5-0.3c0-0.1-0.1-0.1-0.1-0.2
			C149.8,152.5,149.7,152.6,149.5,152.7z M135.8,151.6c-0.2-0.2-0.3-0.2-0.3-0.3c-0.1,0.1-0.1,0.2-0.2,0.2c0,0,0.1,0.1,0.2,0.1
			C135.5,151.7,135.6,151.6,135.8,151.6z M150.6,153.6c-0.1,0-0.2-0.1-0.3,0c0,0-0.1,0.2-0.1,0.2c0.1,0,0.2,0.1,0.3,0.1
			C150.5,153.9,150.6,153.7,150.6,153.6z M20.3,139.9c0-0.1-0.1-0.2-0.1-0.2c-0.1,0-0.2,0.1-0.3,0.2c0.1,0.1,0.2,0.1,0.3,0.2
			C20.2,140.1,20.2,140,20.3,139.9z M23.3,141.8c-0.1-0.1-0.2-0.3-0.2-0.3c-0.1,0-0.2,0.1-0.3,0.1c0.1,0.1,0.1,0.2,0.2,0.2
			C23,141.9,23.2,141.8,23.3,141.8z M18.3,140.1c0,0.1-0.1,0.2-0.1,0.3c0.2,0,0.3,0.1,0.5,0.1c0-0.1,0-0.1,0.1-0.2
			C18.6,140.3,18.5,140.2,18.3,140.1z M141.5,164.3c-0.2-0.1-0.3-0.2-0.4-0.1c-0.1,0-0.1,0.1-0.2,0.2c0.1,0,0.1,0.1,0.2,0.1
			C141.3,164.5,141.3,164.4,141.5,164.3z M132,168.1c-0.2,0-0.4,0-0.4,0c0,0.1-0.1,0.2-0.1,0.4C131.7,168.4,131.8,168.3,132,168.1z
			 M126.7,160.5c0-0.1,0-0.1-0.1-0.2c0,0-0.1,0-0.1,0c0,0.1,0,0.1,0,0.2C126.5,160.5,126.6,160.5,126.7,160.5z M6.2,115.6
			c-0.1,0-0.1,0-0.2,0c0,0,0,0.1,0,0.1c0.1,0,0.1,0,0.2,0C6.2,115.7,6.2,115.7,6.2,115.6z M132,162.4C132,162.4,132,162.4,132,162.4
			c0,0.1,0,0.2,0.1,0.2c0,0,0-0.1,0.1-0.1C132.1,162.4,132.1,162.4,132,162.4z M134.6,153.5c0,0,0-0.1-0.1-0.1
			c-0.1,0-0.1,0.1-0.2,0.1c0,0,0,0.1,0,0.1C134.4,153.5,134.5,153.5,134.6,153.5z M132.4,155.9c0-0.1,0.1-0.1,0.1-0.2
			c0-0.1-0.1-0.1-0.1-0.2c0,0.1-0.1,0.1-0.1,0.2C132.3,155.9,132.3,155.9,132.4,155.9z M144.8,153.7c-0.1,0-0.1,0.1-0.2,0.1
			c0,0,0,0.1,0.1,0.2c0.1,0,0.1-0.1,0.2-0.1C144.8,153.8,144.8,153.7,144.8,153.7z M143.6,153.3c0-0.1,0-0.1-0.1-0.2
			c-0.1,0-0.1,0.1-0.2,0.1c0,0,0,0.1,0.1,0.2C143.4,153.4,143.5,153.4,143.6,153.3z M139.3,152.5c0.1,0,0.1-0.1,0.2-0.1
			c0,0-0.1-0.1-0.1-0.1C139.3,152.3,139.3,152.3,139.3,152.5C139.2,152.4,139.3,152.4,139.3,152.5z M152,151.2c0-0.1,0-0.1-0.1-0.2
			c0,0-0.1,0-0.1,0c0,0.1,0,0.1,0,0.2C151.9,151.2,151.9,151.2,152,151.2z M135,158.5c0,0,0-0.1,0-0.1c-0.1,0-0.1,0.1-0.2,0.1
			c0,0,0,0.1,0,0.1C134.9,158.5,135,158.5,135,158.5z M24.6,143.7c0-0.1,0.1-0.1,0.1-0.2c0,0-0.1-0.1-0.1-0.1
			c-0.1,0-0.1,0.1-0.1,0.1C24.5,143.7,24.6,143.7,24.6,143.7z M169,124.2c0-0.1,0.1-0.1,0.1-0.2c-0.1,0-0.1-0.1-0.2-0.1
			c-0.1,0-0.1,0.1-0.1,0.2C168.9,124.2,168.9,124.2,169,124.2z M129.8,168.8c-0.1,0-0.1,0.1-0.2,0.1c0.1,0,0.1,0.1,0.2,0.1
			c0,0,0.1-0.1,0.1-0.1C129.9,168.8,129.8,168.8,129.8,168.8z M19,138.3C19,138.3,19,138.3,19,138.3c-0.1,0-0.1,0-0.1,0
			C18.9,138.4,19,138.4,19,138.3C19,138.4,19,138.3,19,138.3z M158.1,141.8L158.1,141.8l0,0.1L158.1,141.8z M133.6,152.1
			c0,0,0.1,0,0.1,0c0-0.1,0-0.1,0-0.2c0,0-0.1,0-0.1,0C133.6,152,133.6,152,133.6,152.1z M140.6,151.6
			C140.5,151.6,140.5,151.6,140.6,151.6c-0.1,0-0.1,0-0.1,0C140.5,151.7,140.5,151.7,140.6,151.6
			C140.5,151.7,140.6,151.6,140.6,151.6z M141.4,150.5c0,0-0.1,0.1-0.1,0.1c0,0,0,0.1,0,0.1C141.3,150.6,141.4,150.6,141.4,150.5
			C141.4,150.5,141.4,150.5,141.4,150.5z M28.5,143.7C28.5,143.7,28.6,143.7,28.5,143.7c0.1-0.1,0.1-0.1,0.1-0.1c0,0-0.1,0-0.1,0
			C28.4,143.6,28.5,143.6,28.5,143.7z M146.4,156c0,0-0.1,0.1-0.1,0.1c0,0,0.1,0.1,0.1,0.1C146.4,156.2,146.5,156.1,146.4,156
			C146.5,156,146.5,156,146.4,156z M136.3,160.8c0,0.1,0,0.1,0,0.2c0,0,0.1,0,0.1,0c0-0.1,0-0.1,0-0.2
			C136.4,160.8,136.4,160.8,136.3,160.8z M140,154.5C140,154.4,140.1,154.4,140,154.5c0-0.1,0-0.1,0-0.1
			C140,154.4,139.9,154.4,140,154.5C140,154.4,140,154.4,140,154.5z M128.3,159.2C128.3,159.2,128.3,159.1,128.3,159.2
			c-0.1-0.1-0.1-0.1-0.1-0.1C128.2,159.2,128.2,159.2,128.3,159.2C128.2,159.2,128.2,159.2,128.3,159.2z M18.3,137.5
			C18.3,137.5,18.3,137.5,18.3,137.5c-0.1,0.1,0,0.1,0,0.2c0,0,0.1,0,0.1,0C18.4,137.6,18.4,137.5,18.3,137.5z M20,138.5
			C20,138.5,20,138.5,20,138.5c-0.1,0-0.1,0-0.1,0C19.9,138.6,20,138.6,20,138.5C20,138.6,20,138.6,20,138.5z M136.3,161.9
			c0,0,0,0.1,0,0.1c0.1,0,0.1,0,0.2,0c0,0,0-0.1,0-0.1C136.4,161.9,136.3,161.9,136.3,161.9z M142,159.4c-0.1,0-0.1,0-0.2,0
			c0,0,0,0.1,0,0.1c0.1,0,0.1,0,0.2,0C142,159.5,142,159.5,142,159.4z M21.1,138.8C21.1,138.7,21,138.7,21.1,138.8
			c-0.1,0-0.1,0-0.1,0C21,138.8,21,138.8,21.1,138.8C21.1,138.8,21.1,138.8,21.1,138.8z M148.7,142.1L148.7,142.1L148.7,142.1
			L148.7,142.1z M151.8,142.6L151.8,142.6L151.8,142.6L151.8,142.6z M155.9,145L155.9,145L155.9,145L155.9,145z M13.1,118
			c-0.1,0-0.1,0-0.1,0c0,0,0,0.1,0,0.1C13,118.1,13,118.1,13.1,118z M17.4,138.9L17.4,138.9L17.4,138.9L17.4,138.9z M147.1,146.1
			L147.1,146.1L147.1,146.1L147.1,146.1z M143.5,148.3L143.5,148.3L143.5,148.3L143.5,148.3z M137.2,151.1L137.2,151.1L137.2,151.1
			L137.2,151.1z M26,131.8L26,131.8L26,131.8L26,131.8z M171.4,122.5L171.4,122.5L171.4,122.5L171.4,122.5z M170.6,123L170.6,123
			L170.6,123L170.6,123z M137.9,152.4L137.9,152.4L137.9,152.4L137.9,152.4z M137,154.1L137,154.1L137,154.1L137,154.1z
			 M143.7,154.1L143.7,154.1L143.7,154.1L143.7,154.1z M150.2,155C150.2,155,150.2,155,150.2,155c-0.1,0-0.1,0.1-0.1,0.1
			C150.2,155.1,150.2,155.1,150.2,155C150.2,155.1,150.2,155,150.2,155z M136.7,158.2L136.7,158.2L136.7,158.2L136.7,158.2z
			 M135.7,159.1L135.7,159.1L135.7,159.1L135.7,159.1z M127.3,159.4L127.3,159.4L127.3,159.4L127.3,159.4z M131.3,160.3L131.3,160.3
			L131.3,160.3L131.3,160.3z M130.4,165L130.4,165L130.4,165L130.4,165z M31.4,133.9L31.4,133.9L31.4,133.9L31.4,133.9z
			 M137.6,165.2L137.6,165.2L137.6,165.2L137.6,165.2z M129.9,166.2L129.9,166.2L129.9,166.2L129.9,166.2z M164.9,129.2L164.9,129.2
			L164.9,129.2L164.9,129.2z M163.1,134.4C163.1,134.3,163.1,134.3,163.1,134.4c-0.1-0.1-0.1-0.1-0.1-0.1
			C163,134.3,163,134.4,163.1,134.4C163.1,134.4,163.1,134.4,163.1,134.4z M27.5,135.7L27.5,135.7L27.5,135.7L27.5,135.7z
			 M32.4,137.5L32.4,137.5L32.4,137.5L32.4,137.5z"/>
		<path class="st1" d="M12.7,123.3c0.3-0.2,0.5-0.3,0.8-0.5l0,0c0.4,0.7,0.9,1.5,1.3,2.2c0.3,0.4,0.7,0.8,1,1.2
			c0.1-0.1,0.2-0.1,0.4-0.2c0.2,1.3,0.4,2.6,0.5,3.9l0,0c-0.4-0.2-0.8-0.5-1.2-0.7c0.1-0.1,0.1-0.2,0.2-0.3
			c-0.5,0.1-0.9,0.1-1.4,0.2c0-0.1,0-0.1-0.1-0.2c0.3-0.1,0.7-0.2,1-0.4c0.2-0.1,0.4-0.4,0.5-0.6c0,0-0.2-0.2-0.3-0.3
			c-0.2,0.2-0.3,0.4-0.5,0.5c-0.1,0.1-0.2,0.1-0.3,0.1c-0.5-0.6-1-1.2-1.4-1.9c-0.5-0.7-1.2-1.5,0.4-2.1c-0.6-0.3-1.1-0.5-1.5-0.7
			c0-0.1,0.1-0.2,0.1-0.3C12.3,123.1,12.5,123.2,12.7,123.3L12.7,123.3z"/>
		<path class="st1" d="M12.4,133.3c0.4,0.2,0.9,0.2,1.1,0.5c0.4,0.5,0.6,1.2,0.9,1.8c-1.6,0.1-2-0.9-2.4-2.1l0,0
			C12.1,133.5,12.3,133.4,12.4,133.3L12.4,133.3z"/>
		<path class="st1" d="M16.5,131.8c0.3-0.2,0.7-0.5,1-0.7c0.2-0.1,0.5,0.1,0.8,0.2c-0.2,0.2-0.3,0.7-0.5,0.7
			C17.4,132,16.9,131.9,16.5,131.8L16.5,131.8z"/>
		<path class="st1" d="M27.8,151.4c0,0.6,0,1.1,0,1.8c-0.4-0.5-0.8-0.8-1.3-1.4C27.1,151.6,27.5,151.5,27.8,151.4z"/>
		<path class="st1" d="M26.2,148.1c0.1,0.2,0.2,0.4,0.3,0.6c-1.9-0.2-1.9-0.2-1.5-1.1l0,0C25.4,147.8,25.8,148,26.2,148.1
			L26.2,148.1z"/>
		<path class="st1" d="M14.4,118.9c0.3,0.3,0.6,0.6,0.9,0.9c-0.1,0.1-0.4,0.3-0.4,0.3c-0.3-0.3-0.6-0.6-0.8-0.9
			C14.1,119.2,14.2,119.1,14.4,118.9z"/>
		<path class="st1" d="M6.1,118.5c0.4,0.3,0.7,0.6,1.1,0.9c0,0.1,0,0.2-0.1,0.3c-0.3,0-0.8,0.1-0.9-0.1
			C6.1,119.3,6.2,118.9,6.1,118.5L6.1,118.5z"/>
		<path class="st1" d="M7.1,122.8c-0.2-0.6-0.4-1.3-0.6-1.9c0.1,0,0.2-0.1,0.3-0.1c0.2,0.6,0.5,1.3,0.7,1.9
			C7.4,122.7,7.2,122.7,7.1,122.8z"/>
		<path class="st1" d="M13.5,122.8c-0.5-0.3-1-0.5-1.5-0.8l0,0c0.2-0.2,0.3-0.3,0.5-0.5l0,0C13.4,121.4,13.4,122.2,13.5,122.8
			L13.5,122.8z"/>
		<path class="st1" d="M16.7,129.8c0.3,0.1,0.7,0.2,1,0.3c-0.1,0.2-0.3,0.3-0.4,0.5C17.1,130.3,16.9,130,16.7,129.8L16.7,129.8z"/>
		<path class="st1" d="M12.5,121.5c-0.4-0.2-0.7-0.4-1.1-0.6c0.1-0.1,0.2-0.3,0.4-0.4C12,120.8,12.2,121.2,12.5,121.5L12.5,121.5z"
			/>
		<path class="st1" d="M29.9,154.1c-0.3-0.2-0.6-0.3-0.9-0.5c0.1-0.1,0.1-0.2,0.2-0.3c0.3,0.2,0.6,0.3,0.9,0.5
			C30,153.9,29.9,154,29.9,154.1z"/>
		<path class="st1" d="M11.9,133.6c-0.1-0.2-0.2-0.5-0.3-0.7c0.1-0.1,0.2-0.1,0.3-0.2c0.2,0.2,0.4,0.5,0.6,0.7l0,0
			C12.3,133.4,12.1,133.5,11.9,133.6L11.9,133.6z"/>
		<path class="st1" d="M170.9,127.8c0.1-0.3,0.2-0.6,0.3-0.8c0.1,0.1,0.2,0.1,0.3,0.2C171.3,127.4,171.1,127.6,170.9,127.8
			L170.9,127.8z"/>
		<path class="st1" d="M24.4,148.9c0.2,0.1,0.4,0.2,0.6,0.4c0,0.1-0.1,0.1-0.1,0.2c-0.2-0.1-0.4-0.2-0.7-0.3
			C24.3,149,24.3,148.9,24.4,148.9z"/>
		<path class="st1" d="M18.6,132.7c-0.2,0-0.5,0-0.7,0c0-0.1,0-0.1,0-0.2c0.2,0,0.5,0,0.7-0.1C18.6,132.6,18.6,132.6,18.6,132.7z"/>
		<path class="st1" d="M143,164.7c-0.1,0.2-0.3,0.4-0.4,0.5c0-0.2,0-0.4,0-0.5c0,0,0,0,0,0C142.7,164.7,142.8,164.7,143,164.7
			L143,164.7z"/>
		<path class="st1" d="M15.2,130.9c-0.1-0.1-0.2-0.2-0.2-0.2c0.1-0.1,0.1-0.2,0.2-0.2c0,0.1,0.1,0.1,0.1,0.2
			C15.4,130.7,15.3,130.8,15.2,130.9z"/>
		<path class="st1" d="M150.5,156.9c-0.2,0.2-0.3,0.4-0.5,0.6c-0.1-0.1-0.1-0.1-0.2-0.2C150.1,157.2,150.3,157,150.5,156.9
			L150.5,156.9z"/>
		<path class="st1" d="M26.8,147.6c0.1,0.1,0.2,0.2,0.2,0.2c-0.3,0.1-0.5,0.2-0.8,0.2l0,0C26.4,148,26.6,147.8,26.8,147.6
			L26.8,147.6z"/>
		<path class="st1" d="M23.7,147.1c0,0.1-0.1,0.3-0.1,0.4c0,0-0.1,0-0.1-0.1C23.6,147.3,23.7,147.2,23.7,147.1L23.7,147.1z"/>
		<path class="st1" d="M143.3,164.4c0.3-0.1,0.7-0.2,1-0.2l0,0C143.9,164.3,143.6,164.3,143.3,164.4L143.3,164.4z"/>
		<path class="st1" d="M148.3,157.2c-0.1,0-0.1,0.1-0.2,0.1c0,0,0-0.1,0-0.1c0.1,0,0.1-0.1,0.2-0.1
			C148.3,157.1,148.3,157.2,148.3,157.2z"/>
		<path class="st1" d="M21.7,146.6c0.1,0,0.1,0.1,0.2,0.1c-0.1,0.1-0.1,0.1-0.2,0.2c0,0-0.1-0.1-0.1-0.2
			C21.6,146.7,21.7,146.7,21.7,146.6z"/>
		<path class="st1" d="M28.6,152.8c0,0.1,0,0.1-0.1,0.1c0,0-0.1,0-0.1,0C28.5,152.9,28.5,152.9,28.6,152.8z"/>
		<polygon class="st1" points="148.6,158 148.5,157.9 148.6,157.9 		"/>
		<path class="st1" d="M27.1,149.5c0,0,0,0.1,0,0.1c-0.1,0-0.1,0-0.2,0c0,0,0-0.1,0-0.1C27,149.4,27,149.5,27.1,149.5z"/>
		<path class="st1" d="M8.5,126.1C8.5,126.1,8.5,126.1,8.5,126.1c-0.1-0.1-0.1-0.1,0-0.2C8.5,126,8.6,126,8.5,126.1
			C8.6,126.1,8.6,126.1,8.5,126.1z"/>
		<path class="st1" d="M144.2,160.7c0,0,0,0.1,0,0.1c0,0-0.1,0-0.1,0C144.1,160.7,144.1,160.6,144.2,160.7
			C144.2,160.6,144.2,160.6,144.2,160.7z"/>
		<path class="st1" d="M8.2,123.5c-0.1-0.1-0.2-0.1-0.3-0.2C8,123.4,8.1,123.4,8.2,123.5L8.2,123.5z"/>
		<path class="st1" d="M5.9,117.8C5.9,117.8,5.9,117.8,5.9,117.8c-0.1,0-0.1,0-0.1-0.1C5.8,117.7,5.9,117.7,5.9,117.8
			C5.9,117.7,5.9,117.8,5.9,117.8z"/>
		<polygon class="st1" points="23.1,148.1 23.1,148.2 23,148.2 		"/>
		<path class="st1" d="M16.5,131.8C16.4,131.7,16.3,131.7,16.5,131.8C16.3,131.7,16.4,131.7,16.5,131.8L16.5,131.8z"/>
		<polygon class="st1" points="16,119.7 15.9,119.8 15.9,119.7 		"/>
		<path class="st1" d="M155.3,151.4C155.3,151.5,155.2,151.6,155.3,151.4C155.1,151.5,155.2,151.4,155.3,151.4L155.3,151.4z"/>
		<polygon class="st1" points="31,153.9 31,153.9 31,154 		"/>
		<path class="st1" d="M151,156.4c-0.2,0.2-0.3,0.3-0.5,0.5l0,0C150.7,156.7,150.9,156.6,151,156.4L151,156.4z"/>
		<polygon class="st1" points="145.6,160.9 145.6,161 145.5,161 		"/>
		<polygon class="st1" points="143.2,163.4 143.2,163.3 143.3,163.4 		"/>
		<polygon class="st1" points="10.2,129.5 10.1,129.5 10.2,129.5 		"/>
		<path class="st1" d="M164.4,137.1c-0.2,0-0.3,0-0.5,0l0,0C164,137.1,164.2,137.1,164.4,137.1L164.4,137.1z"/>
		<path class="st1" d="M29,151.4C29,151.4,29.1,151.4,29,151.4C29.1,151.4,29,151.4,29,151.4L29,151.4z"/>
		<path class="st1" d="M6.2,118.5c0.2-0.1,0.3-0.2,0.5-0.2l0,0C6.5,118.3,6.3,118.4,6.2,118.5L6.2,118.5z"/>
		<path class="st1" d="M147.1,159.2c0,0-0.1,0-0.1,0C147,159.1,147,159.2,147.1,159.2L147.1,159.2z"/>
		<path class="st1" d="M166.1,134.8C166.1,134.8,166,134.9,166.1,134.8C166,134.9,166.1,134.8,166.1,134.8
			C166.1,134.8,166.1,134.8,166.1,134.8z"/>
		<path class="st1" d="M27.5,148.6L27.5,148.6L27.5,148.6z"/>
		<path class="st1" d="M25.5,149.9L25.5,149.9L25.5,149.9z"/>
		<path class="st1" d="M25.5,149.9L25.5,149.9L25.5,149.9z"/>
		<path class="st1" d="M29,151.4L29,151.4L29,151.4z"/>
		<path class="st1" d="M6.7,118.2L6.7,118.2L6.7,118.2z"/>
		<path class="st1" d="M11.9,122L11.9,122L11.9,122z"/>
		<path class="st1" d="M8.2,123.5L8.2,123.5L8.2,123.5z"/>
		<path class="st1" d="M155.6,151.1c-0.1,0.1-0.2,0.2-0.3,0.3l0,0C155.4,151.3,155.5,151.2,155.6,151.1L155.6,151.1z"/>
		<path class="st1" d="M144.3,164.2L144.3,164.2L144.3,164.2z"/>
		<path class="st1" d="M143,164.7c0.1-0.1,0.2-0.2,0.3-0.3l0,0C143.2,164.5,143.1,164.6,143,164.7L143,164.7z"/>
		<path class="st1" d="M120.7,175.2c-0.1,0-0.2,0-0.3,0l0,0C120.5,175.2,120.6,175.2,120.7,175.2L120.7,175.2z"/>
		<path class="st1" d="M25.8,131c-0.1,0-0.2,0-0.3,0C25.6,131,25.7,131,25.8,131z"/>
		<path class="st1" d="M20,144.9c0-0.1,0-0.2,0-0.3C20,144.7,20,144.8,20,144.9z"/>
		<path class="st1" d="M30.8,140.1c0.3-0.7,0.7-0.7,1.5,0.1C31.6,140.1,31.2,140.1,30.8,140.1L30.8,140.1z"/>
		<path class="st1" d="M30.3,139.3L30.3,139.3L30.3,139.3z"/>
		<path class="st1" d="M30,139.1c0.1,0,0.2,0,0.3,0c0,0.1,0,0.2,0,0.3l0,0C30.2,139.2,30.1,139.2,30,139.1z"/>
		<path class="st1" d="M22.7,126.3C22.8,126.2,22.8,126.1,22.7,126.3C22.9,126.1,22.8,126.2,22.7,126.3
			C22.7,126.3,22.7,126.3,22.7,126.3z"/>
		<path class="st1" d="M150.8,151.6c0.2,0,0.4,0,0.5,0C151.1,151.6,151,151.6,150.8,151.6z"/>
		<path class="st1" d="M128.5,169.2c-0.1,0.1-0.2,0.2-0.3,0.3C128.3,169.4,128.4,169.3,128.5,169.2z"/>
		<path class="st1" d="M26,136.6c-0.2-0.1-0.4-0.2-0.5-0.3C25.7,136.4,25.8,136.5,26,136.6z"/>
	</g>
</g>
</svg>
