<?xml version="1.0" encoding="utf-8"?>
<!-- Generator: Adobe Illustrator 26.0.2, SVG Export Plug-In . SVG Version: 6.00 Build 0)  -->
<svg version="1.1" id="Ebene_1" xmlns="http://www.w3.org/2000/svg" xmlns:xlink="http://www.w3.org/1999/xlink" x="0px" y="0px"
	 viewBox="0 0 162.8 65.8" style="enable-background:new 0 0 162.8 65.8;" xml:space="preserve">
<style type="text/css">
	.st0{fill-rule:evenodd;clip-rule:evenodd;fill:#D68B3B;}
	.st1{fill:#FFFFFF;}
</style>
<g>
	<path class="st0" d="M132.4,52c0.5-0.3,1-0.2,1.5-0.2c0.9,0,1.9,0,2.8,0c0.2,0,0.3-0.1,0.5-0.1c-0.9-0.3-1.9-0.4-2.9-0.4
		c-1.2-0.1-2.5-0.2-3.7-0.3c-1.8,0-3.7-0.3-5.5,0.6c-0.3,0.2-0.8,0.1-1.2,0.2c-1.6,0.3-3.3,0.3-4.8,0.7c-0.5,0.1-1,0-1.5,0
		c-1.1,0.1-2.2,0.5-3.3,0.6c-1.2,0.2-2.4,0.1-3.6,0.2c-0.9,0.1-1.8,0.1-2.7,0.4c-0.8,0.2-1.7,0.2-2.5,0.3c-0.2,0-0.4,0-0.6,0.2
		c1.1,0.4,2.3,0,3.4,0.3c-1.2,0.5-2.5,0.7-3.9,0.9c2.5,0.2,4.9,0,7.4,0.1c0,0.2-0.2,0.2-0.3,0.2c-0.5,0-1,0.1-1.5,0.1
		c-1.9,0-3.8,0.1-5.7,0.1c-2.4,0-4.9,0.2-7.3,0.2c-1.3,0-2.7,0.1-4,0.1c-0.6,0-1.4-0.3-1.9,0.4c0,0.1-0.2,0.1-0.3,0.1
		c-0.7,0-1.5,0-2.2,0c-0.4,0-0.7-0.2-1.1-0.2l0,0c-0.2,0.1-0.4,0.1-0.6,0c-0.3-0.1-0.7,0-1,0.1c-0.6,0.2-1.3,0.2-2,0.1
		c-1.2,0-2.4,0.1-3.6,0.2c-3.3,0.3-6.7,0.6-10,0.7c-1.1,0-2.2-0.2-3.3,0c-0.3,0-0.6-0.2-0.9-0.2c-1.1-0.2-2.2-0.2-3.3-0.2
		c-1.3-0.1-2.6-0.1-3.9-0.1c-1.4,0-2.9,0-4.3,0c-2.8,0.1-5.6,0.2-8.4,0.4c-1.7,0.2-3.4,0.3-5.1,0.5c-1.1,0.1-2.1,0.3-3.2,0.3
		c-0.7,0-1.4,0.1-2.1,0.2c-0.9,0.1-1.7,0.2-2.6,0.2c-0.4,0-0.9,0.2-1.3,0.2c-1.2,0-2.3,0.1-3.5-0.3c0-0.1,0-0.1-0.1-0.2
		c0,0.1,0,0.1,0.1,0.1c-0.8,0.1-1.5-0.1-2.3-0.3c-0.8-0.2-1.7-0.1-2.5-0.2c-0.8-0.1-1.5-0.3-2.3-0.1c-0.1,0-0.2,0-0.2-0.1
		c-0.2-0.6-0.7-0.4-1.1-0.5c-1.1-0.1-2.1,0.1-3.2-0.1c-0.7-0.1-1.4-0.3-2-0.4c-0.3-0.1-0.5-0.2-0.4-0.6c0-0.3-0.2-0.5-0.3-0.7
		c-0.6-0.9-1.7-0.6-2.5-1c-0.2-0.1-0.3-0.1-0.5,0c-0.5,0.4-0.6,0-0.7-0.4c-0.1-0.4-0.8-0.8-1.2-0.7c-0.7,0.2-1.3,0-1.8-0.5
		c-0.2-0.2-0.5-0.4-0.8-0.6C6.3,52.5,6.1,52.3,6,52c-0.1-0.4-0.3-0.6-0.7-0.7c-0.2,0-0.4-0.1-0.5-0.3c-0.3-0.4-0.7-0.7-1.2-0.6
		c0,0-0.1,0-0.1,0c-0.4-0.6-0.9-1.1-1.5-1.6c0.8-0.3,0.8-0.4,0.7-1.2c0.2-0.1,0.5-0.2,0.6-0.5c0.1-0.2,0.3-0.1,0.4,0
		c0.3,0.1,0.6,0.3,0.9,0c-0.1,0.5-0.4,1,0.2,1.4c0.3-0.1,0.4-0.4,0.4-0.8c0-0.5,0.4-0.6,0.7-0.7c0.1-0.1,0.3,0,0.4,0.2
		c0.1,0.4,0.8,0.9,1.2,0.9c0.3,0,0.6-0.4,0.5-0.7c-0.1-0.2-0.2-0.4-0.3-0.6c-0.1-0.2-0.2-0.3,0-0.5c0.1-0.1,0.3-0.2,0.5-0.1
		c0.2,0.1,0.5,0.1,0.7,0.1c0.1,0,0.3,0,0.3-0.1c0.1-0.8,1.1-0.7,1.4-1.3c0.1-0.3,0.5-0.2,0.7-0.1c0.2,0.1,0.3,0.2,0.3,0.5
		c-0.1,0.4,0.2,0.5,0.5,0.6c0.4,0.1,0.7,0.2,1.1,0.2c0.9,0.1,1,0.1,1.4-0.7c0.2-0.3,0.1-0.5-0.2-0.6c-0.5-0.1-0.9-0.2-1.4,0
		c-0.6,0.2-1.5-0.6-1.7-1c-0.1-0.4,0.2-0.5,0.5-0.7c-0.1-0.1-0.2-0.2-0.3-0.3c0.1-0.2,0.4,0,0.5-0.2c-0.1-0.5-0.7-0.8-1.2-0.6
		c-0.3,0.2-0.5,0.1-0.8-0.1c-0.1-0.1-0.3-0.2-0.4-0.3c-0.1,0-0.1-0.1-0.2-0.1c-0.3-0.3,0.1-0.6,0-0.9c-0.1-0.3-0.4-0.5-0.1-0.9
		c0.3-0.5,0.3-1.3,0-1.7c-0.6-1.1-0.6-2.2-0.6-3.4c0-0.9-0.4-1.6-1.1-2.2C7,32,7.3,31.5,7.2,31.1c-0.1-0.2,0.3-0.3,0.5-0.4
		c0.4-0.2,0.8-0.4,1.2-0.6C9,30,9.2,30,9.3,30.2c0.2,0.3,0.5,0.3,0.8,0.2c0.2-0.2,0.1-0.5,0-0.6c-0.4-0.7-0.3-1.6-1-2.2
		c-0.4-0.4-0.6-1.1-1-1.5c-0.6-0.6-0.9-1.3-1-2.1c-0.1-0.4-0.4-0.6-0.6-0.8c-0.4-0.4-0.7-0.9-1-1.4c-0.3-0.5-0.1-1,0.2-1.5
		c0.5-1,1.2-1.8,1.8-2.8c0-0.1,0.1-0.2,0.1-0.3c0-0.2,0.1-0.3,0.3-0.3c0.2,0,0.2,0.2,0.2,0.4c0,0.2-0.1,0.4,0.1,0.4
		c0.2,0.1,0.3-0.1,0.4-0.2c0.3-0.4,0.3-0.9,0.1-1.3c-0.5-0.8-0.4-1.5,0-2.2c0.1-0.2-0.2-0.8-0.5-0.8c-0.9,0.1-1.1-0.7-1.6-1.1
		c-0.2-0.1-0.3-0.4-0.2-0.5c0.1-0.2,0.3-0.1,0.5,0c0.2,0.1,0.3,0.1,0.4-0.1C7.3,11.2,7.2,11,7,11c-0.6,0.1-0.7-0.5-1.2-0.7
		C6.4,10,6.3,9.5,6.7,9.2c0.8,0.5,0.9,0.5,1.4-0.4c0.3,0.1,0.6,0.1,0.8,0.4C9,9.5,9.2,9.4,9.4,9.4c0.3-0.1,0.7,0,1,0
		c0.5,0.1,0.8,0.3,0.7,0.8c0.9,0.2,1.8,0.3,2.7,0.5c-0.2-0.5-0.3-0.6-1-0.8c0.5-0.5,1-0.5,1.6-0.5c0.6,0,1.1,0.1,1.8,0.2
		c-0.4-0.3-0.6-0.6-1-0.6c-0.5,0-0.7-0.4-1-0.7C14.2,8.2,14.1,8,14,8c-0.7,0.1-0.8-0.4-0.8-0.9c0-0.1,0-0.2,0-0.3
		C14,6.1,15,6.2,16,6.2c0.1,0.1,0.3,0.2,0.4,0.1c-0.2-0.1-0.3,0-0.4-0.1c0-0.3,0.3-0.4,0.3-0.7c-0.5-0.1-1-0.3-1.4,0.2
		c-0.1-0.2-0.3-0.3-0.5-0.3l0,0c0-0.1-0.1-0.2-0.2-0.3l0,0c0-0.2,0-0.3,0.3-0.3c0.9-0.1,1.7,0.3,2.6,0.2c0.3,0,0.7,0,0.9-0.2
		c0,0,0.1-0.1,0.1-0.1c0.8,0.3,1.2-0.5,1.9-0.6c0.7-0.1,1.4,0.1,2.2,0.1c0.3,0,0.6,0.1,0.9,0.1c-0.1-0.3-0.3-0.6,0.1-0.8
		c0,0.4,0.1,0.7,0.6,0.8c0.3,0,0.7,0.3,1,0c0-0.3-0.3-0.1-0.4-0.3c0-0.2,0.1-0.3,0.3-0.4C24.7,3.9,24.9,4,25,4.1
		c0.1,0.1,0.2,0.2,0.3,0.1c0.4-0.4,0.7-0.1,1,0c0.7,0.2,1.5,0.2,2.2,0.2c1.2-0.1,2.4,0,3.5,0c1.7-0.1,3.5,0.1,5.2,0
		c1.4-0.1,2.9-0.1,4.4-0.1c1.5,0,3-0.2,4.4-0.1c1.8,0.1,3.7,0,5.5,0.2c1.1,0.1,2.1,0.1,3.2,0.1c1,0,2,0.1,2.9,0.2c1,0.1,2,0.1,3,0
		c2.3-0.2,4.6-0.4,6.9-0.7c2.6-0.3,5.2-0.5,7.7-1c2.3-0.4,4.7-0.7,7-1.1c0.2,0,0.3,0,0.5,0.1c-0.2,0.4-0.7,0.1-0.9,0.5
		c0,0,0.1,0.1,0.1,0.1c1-0.3,2,0,3,0.1c1.1,0,2.2,0.2,3.4,0.2c0.2,0,0.4,0,0.6-0.1c0.8-0.2,1.7-0.1,2.5-0.3c0.7-0.2,1.5-0.2,2.3-0.2
		c0.4,0,0.7-0.2,1-0.1c1.1,0.2,2.2,0.1,3.2,0.5c0.2,0.1,0.5,0,0.5,0.4c-2.5,0.4-5,0.3-7.6,0.8c0.3,0.4,0.5,0.5,0.9,0.5
		c0.9-0.1,1.8,0,2.8,0.1c-0.6,0.4-1.4,0-1.9,0.9c-2.2,0-4.5,0.5-6.9,0.8c1.2,1.1,2.1,1.2,3.6,0.6C90.4,6.1,91.4,6,92.3,6
		c0.8,0,1.6-0.1,2.4,0c0.3,0,0.6,0,0.9,0.1c0.5,0.3,1,0,1.5-0.1c0.3-0.1,0.7-0.1,1-0.1c0.1,0,0.3,0,0.4,0.2c0.1,0.2,0,0.3-0.1,0.4
		c-0.2,0.2-0.4,0.4-0.6,0.4c-0.2,0.1-0.4,0.2-0.5,0.4c0.2,0.3,0.6,0.1,1,0.4c-0.8-0.2-1.3,0.2-1.8,0.6C96,8.6,96,9,95.7,9.3
		c-0.1,0.1-0.1,0.2-0.2,0.2c-0.5,0.4-0.5,0.7-0.2,1.3c0.5,1.1,1.4,1.9,2.4,2.5c0.1,0.1,0.3,0.1,0.3,0.3C97,13.9,96,13.6,95,14
		c0.2,0.5,0.7,0.3,0.9,0.7c-0.1,0.3-0.4,0.3-0.7,0.3c-1,0-1.9,0.4-2.9,0.4c-0.3,0-0.6,0.2-0.8,0.6c0.6,0.1,1.3,0.1,1.9,0.1
		c1.5,0,3,0,4.5,0c0.6,0,1.1,0.5,1.8,0.5c-0.3,0.4-0.6,0.7-1,0.9c-0.8,0.4-1.6,0.5-2.4,0.8c-0.2,0.1-0.4,0.2-0.4,0.5
		c0.6,0,1.2,0,1.8,0c0,0,0,0.1,0,0.1c-0.4,0-0.7,0.1-1.1,0c-1.2,0-2.2,0.5-3.3,0.6c-0.4,0-0.2,0.5-0.3,0.7c-1.3,0.3-2.7,0-4,0.5
		c-0.1,0-0.2,0.1-0.2,0.3c1.5,0.2,3-0.2,4.5-0.1c1.6,0,3.1-0.2,4.6-0.1c1.5,0,3-0.3,4.7-0.1c-0.5,0.3-1,0.2-1.4,0.2
		C100,21,99,21,98,21.5c-0.3,0.1-0.6,0.1-0.9,0.1c-0.7,0.1-1.3,0.3-2,0.4c-0.9,0.2-1.9,0.2-2.9,0.2c-0.3,0-0.6,0-0.8,0.3
		c-0.1,0.3-0.2,0.6,0.3,0.5c1-0.1,2-0.1,3.1-0.2c1.2-0.1,2.3-0.2,3.5-0.2c-4.4,0.3-8.8,0.9-13.2,1.3c0,0.1,0,0.1,0,0.2
		c0.5,0.1,0.9,0.2,1.4,0.2c2.6-0.1,5.2-0.3,7.8-0.4c2.1-0.1,4.2-0.2,6.3-0.3c0.1,0,0.2,0,0.3,0.1c-0.1,0.2-0.4,0.1-0.5,0.1
		c-0.1,0-0.2,0.1-0.3,0.2c0,0.2,0.1,0.3,0.3,0.3c0.3,0.1,0.6,0.1,0.9,0.1c0.5,0,1.1-0.1,1.5,0.4c0.1,0.1,0.3,0.1,0.5,0.1
		c-0.2,0.6,0,0.9,0.6,1c0.5,0,1,0.2,1.5,0.1c0.1,0,0.3,0,0.3,0.1c0.2,0.5,0.6,0.4,1,0.4c1.5,0.1,3-0.3,4.5-0.4
		c0.2,0,0.5-0.1,0.7,0.1c-0.2,0.3-0.7,0.1-0.9,0.4c0,0.2,0.3,0.1,0.3,0.3c0,0-0.1,0.1-0.1,0.1c-1.1,0.1-2.3-0.1-3.4,0.2
		c-1.5,0.4-3.1,0.1-4.6,0.4c-0.7,0.1-1.4,0-2.2,0.2c-0.8,0.3-1.7,0.2-2.6,0.2c-0.4,0-0.8,0.2-1,0.6c0.3,0.2,0.6,0.2,1,0.2
		c0.7-0.1,1.3-0.1,2,0.1c0.9,0.2,1.8,0.2,2.7,0.2c1.3-0.1,2.6,0,3.9-0.1c0.1,0,0.2,0,0.3,0c-0.1-0.1-0.2,0-0.3,0
		c-0.2,0-0.5-0.1-0.8-0.1l0,0c1-0.4,2-0.2,3-0.2c-0.1,0.3-0.3,0.2-0.5,0.2c-0.3,0-0.7-0.1-0.9,0.3c0,0.1-0.2,0.1-0.3,0.1
		c-1.6,0.1-3.3,0-4.9,0.1c-0.8,0-1.6,0-2.4-0.2c-0.4-0.1-0.8,0-1.2,0.4c0.4,0.3,0.9,0.2,1.3,0.2c2.4-0.1,4.7-0.1,7.1,0
		c2,0,4-0.1,6,0.2c-0.5,0.3-1.1,0.3-1.6,0.3c-1.9,0.1-3.8,0.1-5.7,0.2c-0.7,0-1.4-0.3-2.2-0.1c-0.8,0.2-1.7,0.3-2.5,0.6
		c-0.3,0.1-0.6,0.1-0.9,0.1c-1.4,0.1-2.9,0-4.3,0.5c0.4,0.5,1,0.8,1.6,0.8c1.2,0,2.4-0.1,3.7-0.1c0.7,0,1.5,0.1,2.2,0.1
		c1.6,0,3.1,0,4.6-0.1c0.8,0,1.6,0.1,2.3,0.1c-1,0.2-2.2,0-3.2,0.4c0.6,0.3,1.2,0.1,1.7,0.4c-0.4,0-0.7,0-1.1,0c-3.1,0-6.1,0-9.2,0
		c-2.7,0.1-5.3,0.2-8,0.3c-0.7,0-1.5,0.3-2.2,0.4c-0.3,0-0.6,0.1-1,0c-0.6-0.1-1.3,0-1.9,0.2c-0.2,0.1-0.5,0.1-0.7,0.2
		c0.6,0.2,1.2,0.1,1.9,0c0.1,0.2-0.2,0.1,0,0.4c2,0.2,4.1-0.4,6.1,0.1c-0.1,0.1-0.3,0-0.4,0.1c-0.2,0-0.4,0.1-0.5,0.1
		c-1.5,0.1-3,0.4-4.5,0.4c-2.5,0-5,0.3-7.5,0.5c-1,0.1-2,0.2-2.9,0.3c-0.2,0-0.4,0-0.5,0.2c0.3,0.2,0.6,0.4,0.9,0.3
		c1.4-0.1,2.8-0.3,4.2-0.4c0.8,0,1.5-0.1,2.3,0c-2,0.1-4,0.5-6,0.7c0,0.2,0.2,0.1,0.3,0.3c-0.4,0-0.8,0.2-1.3,0.1
		c0-0.3,0.3-0.1,0.4-0.4c-2.5,0.7-4.9,1-7.6,0.9c0.4,0.4,0.7,0.3,1,0.4c-0.3,0-0.6,0.1-0.9,0.1c-1.1-0.1-2.1,0.1-3.2-0.1
		c-0.4-0.1-0.7,0.1-0.9,0.5c0.4,0.3,0.8,0.6,1.3,0.5c2.6-0.3,5.1-0.6,7.7-0.8c1-0.1,1.9-0.3,2.9-0.2c0.3,0,0.3-0.3,0.6-0.3
		c0.4,0.1,0.9,0.1,1.3,0c1.7-0.2,3.4,0,5.1-0.2c0.7-0.1,1.5,0,2.2,0c1.1,0,2.2,0,3.3-0.1c0.3,0,0.5-0.1,0.9,0.2
		c-0.8,0.3-1.5,0-2.3,0.4c0.8,0.2,1.5,0.2,2.1,0.2c2.6-0.1,5.3-0.1,7.9-0.1c2,0,3.9-0.1,5.9-0.1c0.4,0,0.8,0,1.3,0
		c0.4,0,0.8,0.7,0.7,1.1c0,0.2-0.1,0.4,0,0.6c0.7,0.2,1.4-0.1,2.1-0.2c-0.1,0.3-0.4,0.3-0.4,0.5c0,0,0,0.1,0.1,0.1
		c1,0.1,2.1,0.3,3.1,0.3c1.1,0,2.2-0.2,3.3,0c0.4,0.1,0.8,0,1.2-0.1c1.2-0.2,2.5-0.1,3.7-0.1c1.8,0,3.7-0.3,5.5-0.5
		c1.6-0.1,3.1-0.1,4.7-0.1c0,0.5-0.2,0.6-0.6,0.6c-1.3,0-2.7,0-4,0.3c1.8,0.3,3.6,0.6,5.5,0.6c1,0,2,0,3.1,0c0.7,0,1.3,0.3,2,0.1
		c0.1,0,0.2,0.1,0.2,0.1c0.3,0.7,1,0.5,1.4,0.3c0.4-0.2,0.8-0.2,1.2,0c0.2,0.1,0.4,0.1,0.7,0.1c0-0.4-0.4-0.4-0.5-0.6
		c0.2-0.2,0.4-0.1,0.6,0c0.2,0.1,0.3,0.2,0.5,0.3c0.9,0.2,0.9,0.2,0.9-0.7c-0.3-0.1-0.6-0.1-1.1-0.2c0.3-0.1,0.5-0.1,0.7-0.1
		c1.1,0.1,2.2,0.3,3.4,0.4c0.5,0.1,1,0.3,1.3-0.4c0.1-0.1,0.3,0,0.4-0.2c0-0.3-0.4-0.3-0.6-0.6c0.2-0.2,0.6,0,0.7-0.3
		c0.1-0.3-0.3-0.3-0.4-0.5c0.4,0,0.8-0.1,1-0.7c0-0.2,0.2-0.1,0.4-0.1c0.2,0.1,0.4,0.2,0.6,0.1c0.2-0.3-0.1-0.4-0.1-0.7
		c0.1,0,0.1-0.1,0.1-0.1c0.6,0.5,1.3,0.3,2,0.3c0.5-0.1,0.8,0.3,1.1,0.5c0.2,0.2,0.1,0.5-0.2,0.6c-0.1,0-0.3,0-0.4-0.1
		c-1.1-0.8-1.9,0.2-2.8,0.5c-0.2,0.1-0.3,0.3-0.2,0.6c0.1,0.3,0.1,0.5-0.1,0.7c0.3,0.2,0.5-0.1,0.8,0c0.1,0.3-0.3,0.4-0.2,0.7
		c0.2,0.1,0.4,0.1,0.6,0.2c0.3,0.1,0.6,0.1,0.5,0.6c0,0.3,0.2,0.3,0.4,0.3c0.4,0,0.8,0,1.1,0.2c-0.1,0.4-0.4,0.7-0.6,1
		c-0.1,0-0.1,0-0.1,0c-0.1-0.2-0.3-0.4-0.5-0.3c-0.1,0.1-0.2,0.2-0.2,0.3c0,0.2,0.1,0.5,0.4,0.5c0.6,0.1,1.2,0.4,1.9,0.4
		c0.4,0,0.5,0.4,0.7,0.7c0.2,0.2-0.1,0.4-0.2,0.6c-0.1,0.1-0.2,0.2-0.4,0.2c-0.1,0-0.2-0.2-0.2-0.3c0-0.2,0.1-0.4-0.1-0.6
		c-0.3,0-0.3,0.2-0.2,0.4c0.3,0.5,0,0.7-0.3,1c-0.2,0.1-0.4,0.3-0.6,0.4c-0.2-0.7-0.7-0.9-1.5-0.5c-0.2,0.1-0.4,0.3-0.6,0.3
		c-0.2-0.2-0.1-0.5-0.3-0.6c-0.1-0.1-0.2-0.2-0.3-0.1c-0.1,0-0.2,0.1-0.2,0.3c-0.1,0.8,0.6,1.5,1.3,1.3c0.3-0.1,0.6-0.1,0.7,0.3
		c0.1,0.2,0.3,0.1,0.5,0.3c-0.2,0-0.3,0.1-0.4,0.1c-0.7-0.2-1,0.2-1.1,0.8c0,0.1-0.1,0.2-0.1,0.3c-0.3,1,0,1.2,0.9,1
		c0.1,0,0.2-0.1,0.3-0.2c0.2-0.4,0.5-0.8,0.8-0.9c0.5-0.1,1.2-0.2,1.6,0.2c0.3,0.2,0.6,0.5,0.9,0.7c0.2,0.2,0,1.2-0.2,1.5
		c-0.2,0.2-0.4,0.3-0.3,0.5c0.1,0.3,0.4,0.2,0.6,0.2c0.1,0,0.3-0.1,0.3,0.1c-0.1,0.2-0.3,0.1-0.5,0.2l0,0c0.6,0.1,1.1,0.3,1.8,0.2
		c0-0.4-0.3-0.3-0.5-0.5c0.4-0.2,0.8-0.4,1-0.9c0.2-0.6,0.8-0.8,1.2-0.3c0.3,0.3,0.6,0.4,0.9,0.6c-0.7,0.5-0.2,1.4-0.8,1.9
		c0.7,0.4,1,1,1.9,1c0.3,0,0.5,0.5,0.9,0.7c-0.2,0.3-0.3,0.6-0.3,0.9c0,0.6-0.5,0.8-1,0.6c-0.1-0.1-0.2-0.1-0.4-0.1l0,0
		c-0.2-0.1-0.4-0.2-0.6-0.3c-0.1-0.1-0.2-0.1-0.2-0.2c0-1.2-1.1-1-1.7-1.3c0,0,0.3-0.1,0.3-0.3c-0.2-0.5-0.6-0.1-0.9-0.1
		c-0.3,0-0.7,0-0.9-0.3c0.4-0.7,1.2,0.1,1.6-0.5c-0.4-0.4-0.8-0.8-1.5-0.6c-0.6,0.1-1.1-0.4-1.7-0.4c-0.3,0-0.5-0.1-0.9-0.1
		c0.1,0.8,1,0.4,1.2,1c-0.9,0.1-1.8-0.1-2.8-0.3c0.4-0.5,0.1-0.8-0.2-1.1c-0.4-0.4-0.7,0-1,0.1c0.2,0.3,0.6,0,0.8,0.3
		c-0.3,0.4-0.8,0.1-1.2,0.5c0.9,0,1.2,0.7,1.7,0.7c-0.2-0.1-0.8,0.4-1.1-0.3c-0.2,0-0.3,0.2-0.4,0.3c-0.2,0.5-0.6,0.6-1,0.6
		c-0.1,0-0.1,0-0.2,0c-0.9,0.4-1.7-0.1-2.6,0c-0.5,0.1-1,0-1.4-0.3c0.2-0.5,0.1-0.6-0.5-0.5c0,0-0.1,0-0.1,0
		c-0.5-0.2-1.1-0.3-1.7-0.5c0.3-0.4,0.7,0.1,1.1-0.3c-1.6-0.6-3.2-0.2-4.8-0.7c1.5,0,2.9-0.4,4.4-0.2c-0.5-0.5-1.1-0.7-1.8-0.7
		c-0.6,0-1.3-0.3-1.7,0.5c-0.1,0.1-0.5,0.1-0.8,0.1C135.3,52.2,133.8,52.1,132.4,52L132.4,52z M75.6,36.9L75.6,36.9L75.6,36.9z
		 M85.4,56C85.3,56,85.3,56,85.4,56C85.3,56,85.3,56,85.4,56c0.2,0,0.4,0.1,0.6-0.1C85.7,55.8,85.5,55.8,85.4,56z M11,11.4
		c0,0,0.1-0.1,0.1-0.1c0.2,0,0.4-0.1,0.3-0.4c-0.6-0.2-0.6-0.2-0.9,0.1c0.2,0.1,0.5,0.1,0.6,0.3C11.1,11.4,11.1,11.4,11,11.4
		c-0.2,0-0.4-0.2-0.6,0C10.6,11.7,10.7,11.7,11,11.4z M139.1,51.3c0-0.1-0.1-0.2-0.2-0.2c-0.6,0-1.2-0.1-1.7,0
		c-0.1,0-0.2,0.1-0.1,0.2C137.7,51.3,138.4,51.5,139.1,51.3C139.1,51.3,139.1,51.3,139.1,51.3C139.1,51.3,139.1,51.3,139.1,51.3z
		 M127.7,49.5c0.8,0.4,1.6,0.4,2.4,0.3c0,0,0,0.1,0,0.1c-0.2,0.1-0.5,0.1-0.7,0.2c0,0,0,0.1,0,0.1c0.7-0.3,1.3,0.2,2,0.3
		c-0.2-0.6,0.5-0.5,0.6-0.8c-0.1,0-0.2-0.1-0.2-0.1C130.4,49.4,129.1,49.3,127.7,49.5c-0.3-0.1-0.5-0.3-0.8-0.2
		c-0.7,0.2-1.4,0-2.2,0.1c-1.1,0.2-2.2,0-3.3,0.2c-1.5,0.2-3,0.6-4.6,0.7c-0.4,0-0.5,0.3-0.6,0.7c0.4-0.4,1-0.2,1.5-0.3
		c1.1-0.4,2.3-0.5,3.4-0.5c0.9,0,1.8-0.1,2.6-0.3c1.1-0.2,2.1-0.2,3.2,0C127.2,49.9,127.6,50,127.7,49.5z M101.7,55.1
		c-0.4-0.3-0.8-0.1-1.2-0.1c-2.1,0.1-4.3,0.1-6.4,0.1c-1.7,0-3.4-0.2-5.2,0.1c-0.7,0.1-1.5,0.4-2.3,0.6c0.1,0.1,0.2,0.1,0.2,0.1
		c0.8,0,1.6-0.6,2.4-0.2c0,0,0,0,0.1,0c1.2-0.6,2.6-0.1,3.9-0.3c1.3-0.2,2.7,0,4.1,0c1.3,0,2.7-0.1,4-0.1
		C101.4,55.4,101.7,55.5,101.7,55.1z M77.4,55.9c-0.2-0.2-0.3-0.2-0.4-0.1c-2.5,0.3-5,0.3-7.4,0.8c-0.5,0.1-1,0.2-1.5,0.2
		c-0.4-0.1-0.8-0.2-1.3-0.2c-0.4,0-0.7,0-1.1,0c-0.5,0.1-1.1-0.1-1.6,0.1c2.9,0.2,5.9,0.3,8.9-0.2c0,0,0,0.2,0.2,0.1
		C74.5,56.4,75.9,56.1,77.4,55.9z M146,42.3c-0.1-0.2-0.2-0.1-0.3-0.2c-0.5-0.2-1.1-0.1-1.6-0.4c-0.4-0.2-0.7-0.1-0.8,0.2
		c-0.2,0.4,0.1,0.6,0.4,0.6C144.5,42.8,145.3,43,146,42.3z M84.7,56.1c-0.3-0.6-3.8-0.5-4.6,0c0.1,0.1,0.3,0,0.5,0.1
		c0.6,0.1,1.2-0.2,1.8,0C83.1,56.4,83.8,56.1,84.7,56.1z M136.1,50.6c-0.8-0.6-1.7-0.7-2.1-0.1C134.7,50.8,135.3,50.8,136.1,50.6z
		 M61.4,50c-0.9,0.1-1.6-0.1-2.4,0.1c0.4,0.3,0.8,0.1,1.1,0.3C60.6,50.7,60.9,50.5,61.4,50z M21.1,35.9c-0.1-0.4-0.3-0.5-0.6-0.6
		c-0.2-0.1-0.3-0.1-0.4,0.1c-0.1,0.2,0,0.3,0.2,0.4C20.4,36,20.7,36,21.1,35.9z M57.6,56.2c-0.7,0-1.4-0.4-2.1,0
		C56.2,56.4,56.9,56.4,57.6,56.2z M141.2,43.7c0-0.3,0-0.6-0.3-0.6c-0.2,0-0.4,0.2-0.4,0.4C140.6,43.9,140.9,43.8,141.2,43.7z
		 M57.9,56.3c0.6,0.2,1.1,0.2,1.5,0C59,56.3,58.6,56,57.9,56.3z M92.8,14c-0.4,0-0.8-0.1-1.3,0.1C92.1,14.3,92.4,14.2,92.8,14z
		 M138.8,43c0-0.1,0-0.2-0.2-0.2c-0.1,0-0.2,0-0.3,0.1c0,0.1,0,0.2,0.1,0.3C138.6,43.2,138.7,43.1,138.8,43z M76.6,56.3
		c0.3,0.1,0.6,0,0.8-0.1C77.1,56.1,76.9,56.2,76.6,56.3z M104.8,55c-0.3,0-0.6,0-0.9,0.1C104.3,55.2,104.6,55.1,104.8,55z
		 M62.8,56.6c0.3,0.1,0.5,0.2,0.9,0C63.4,56.5,63.1,56.6,62.8,56.6z M142.3,41.4c-0.2-0.2-0.4-0.1-0.7-0.2
		C141.9,41.4,142.1,41.5,142.3,41.4z M75.2,36.8c-0.2,0-0.4,0.1-0.6,0.1C74.8,37,75,37.1,75.2,36.8z M103.5,55.4
		c-0.2,0-0.3-0.1-0.4,0C103.2,55.5,103.3,55.5,103.5,55.4z M57.5,50.3c0.1,0,0.1,0.1,0.1,0.1c0,0,0.1,0,0.1,0c0,0,0-0.1-0.1-0.1
		S57.5,50.3,57.5,50.3z M114.9,52.8C114.9,52.7,114.9,52.7,114.9,52.8c-0.1-0.1-0.2,0-0.2,0c0,0,0,0.1,0.1,0.1
		C114.8,52.8,114.9,52.8,114.9,52.8z M149.3,45.8c0.1,0,0.1,0.1,0.1,0c0.1,0,0.2,0,0.1-0.1C149.5,45.7,149.4,45.7,149.3,45.8z
		 M140.8,42.4C140.8,42.4,140.8,42.4,140.8,42.4c-0.1,0-0.1,0.1-0.1,0.1C140.8,42.6,140.9,42.6,140.8,42.4
		C140.9,42.5,140.9,42.4,140.8,42.4z M102.2,55.4C102.2,55.4,102.2,55.4,102.2,55.4C102.2,55.4,102.2,55.5,102.2,55.4
		C102.3,55.5,102.3,55.5,102.2,55.4C102.3,55.4,102.2,55.4,102.2,55.4z M148.8,43.1C148.8,43.1,148.8,43.2,148.8,43.1
		C148.8,43.2,148.8,43.2,148.8,43.1C148.8,43.2,148.8,43.2,148.8,43.1C148.9,43.1,148.8,43.1,148.8,43.1z M155.4,54.9
		C155.4,54.9,155.4,54.9,155.4,54.9C155.4,54.9,155.4,54.9,155.4,54.9C155.4,54.9,155.4,55,155.4,54.9
		C155.4,54.9,155.4,54.9,155.4,54.9z M105.3,55L105.3,55L105.3,55L105.3,55z M137.2,50.7L137.2,50.7L137.2,50.7L137.2,50.7z
		 M89,56.4C89,56.4,89,56.4,89,56.4C89,56.4,89,56.4,89,56.4C89,56.4,89,56.4,89,56.4C89,56.4,89,56.4,89,56.4z M131.9,50.5
		L131.9,50.5L131.9,50.5L131.9,50.5z M61.9,56.5C61.9,56.5,61.8,56.5,61.9,56.5C61.9,56.6,61.9,56.6,61.9,56.5
		C61.9,56.6,61.9,56.5,61.9,56.5z"/>
	<path class="st0" d="M84.4,58.3c-0.1,0.2,0.1,0.2,0.1,0.4c0,0-0.1,0-0.1,0c-0.5,0-1,0.2-1.6,0.2c-0.4,0-0.9,0.1-1.2-0.3
		c-0.1-0.1-0.3-0.1-0.4-0.1c-0.9,0-1.7,0-2.6,0c0.1-0.3,0.3-0.4,0.5-0.4c1.3-0.1,2.5-0.5,3.8-0.4c1.5,0.1,3-0.2,4.5-0.1
		c0.5,0,0.7-0.4,1.2-0.4c0.7,0,1.4-0.2,2,0.2c0,0,0.1,0,0.2,0c0.5-0.3,0.9-0.2,1.5-0.1c1.2,0.2,2.4,0.1,3.6,0c0.5,0,1-0.2,1.5-0.2
		c1.8,0,3.6-0.2,5.3-0.2c0.5,0,1-0.1,1.5,0c0.4,0.1,0.7-0.2,1.1-0.1c1,0.2,2.1-0.1,3.1-0.2c1.2-0.1,2.4-0.3,3.5-0.4
		c0.7-0.1,1.5-0.1,2.2-0.2c1.3-0.2,2.5-0.5,3.8-0.5c0.8,0,1.6,0,2.3-0.2c1.1-0.4,2.3-0.2,3.5-0.6c0.3-0.1,0.8-0.1,1.1-0.1
		c1.7,0,3.5,0,5.2,0c1.2,0,2.3,0.1,3.5,0.4c0.4,0.1,0.8,0,1.2,0.2c0,0,0,0.1-0.1,0.1c-2.3-0.4-4.5-0.3-6.8-0.2
		c-1.5,0.1-3,0.2-4.5,0.2c-1.7,0-3.4,0.4-5.1,0.6c-2.3,0.3-4.5,0.6-6.8,0.9c-1.4,0.2-2.9,0.2-4.4,0.5c-2.1,0.3-4.3,0.1-6.4,0.3
		c-1.5,0.1-2.9,0.1-4.4,0.1c-1.3,0-2.7,0-4,0.1c-2,0.1-4.1,0-6.1,0.3C85.5,58.2,84.9,58.3,84.4,58.3z"/>
	<path class="st0" d="M128.6,57.4c1-0.3,1.9-0.1,2.8-0.5c-1.4-0.3-2.9,0-4.3-0.2c0,0,0-0.1,0-0.1c0.5-0.1,1-0.2,1.5-0.2
		c0.9,0,1.8,0,2.7,0c0.3,0,0.5,0,0.6-0.2c0.3,0.3,1.2,0.6,1.5,0.3c0.6-0.5,1.2-0.3,1.8-0.2c-0.2,0.2-0.5,0-0.7,0.4
		c0.8-0.1,1.5,0,2.2,0.4c0,0.1-0.2,0.1-0.2,0.3c0.1,0.2,0.3,0.2,0.4,0.1c0.5-0.1,0.9,0,1.4,0.1c0.3,0.1,0.6,0.1,0.8-0.1
		c0.7-0.5,1.4-0.2,2.1,0c0.2,0.1,0.4,0.1,0.7,0.1c1.1,0,2.1,0,3.2,0c0.4,0,0.9,0.2,1.3-0.2c0,0,0.1,0,0.1,0c0.4,0.4,1.2,0.1,1.5,0.7
		c0.3,0.6,0.8,0.6,1.3,0.7c0.4,0,1,1.1,0.8,1.5c-0.1,0.2-1,0.5-1.3,0.3c-0.6-0.4-1.3-0.3-1.9-0.6c-0.2-0.1-0.4-0.1-0.5-0.2
		c-0.8-0.6-1.8-0.6-2.7-0.8c-1.4-0.3-2.8-0.5-4.2-0.4c-1.7,0-3.3-0.4-4.9-0.3c-0.2,0-0.5,0-0.7,0.2c-0.1,0.2-0.3,0.1-0.5,0.1
		c-1-0.6-2.2-0.5-3.4-0.6C129.6,57.6,129.1,57.6,128.6,57.4z M133.4,57c0,0.1,0,0.1,0,0.1c0.5,0,0.9,0.2,1.4,0.1
		C134.4,56.9,133.9,57.1,133.4,57z"/>
	<path class="st0" d="M9.9,6.7c0.6,0.5,1.3,0.5,2,0.6c0.3,0.1,0.5,0.1,0.8,0.2C12.8,7.6,13,7.6,13,8c-0.5-0.4-1-0.3-1.5-0.3
		c-0.2,0.2,0.1,0.3,0,0.5c-0.2,0.2-0.6-0.2-0.9,0.2c0.1,0.3,0.4,0.2,0.5,0.4c-0.4,0.1-0.8,0.2-1.1,0.2c-0.3,0-0.6-0.1-0.6-0.5
		c0,0,0,0,0,0c0,0,0,0,0,0C9,8.2,8.7,8.2,8.4,8C8.1,7.7,7.4,7.9,7.1,8.1c-0.4,0.2-0.6,0.2-1-0.1c0.2-0.2,0.4-0.5,0.1-0.8
		c0.3-0.2,0.5-0.1,0.6,0c0.3,0.2,0.5,0.1,0.7-0.2C7.7,6.7,8,6.6,8.5,6.6c0.5,0,1,0,1.3-0.6C9.8,6,9.9,5.9,10,5.9
		c0.6,0.1,1.3-0.3,1.9,0.1C12,6,12.2,6,12.4,5.9c0.2-0.1,0.4-0.1,0.6,0c-0.3,0.8-0.9,0.5-1.4,0.4C11,6.3,10.4,6.4,9.9,6.7
		C9.9,6.7,9.8,6.7,9.9,6.7C9.8,6.7,9.9,6.7,9.9,6.7z M9.8,8.3c0.2,0.1,0.3,0.1,0.4,0C10,8.1,9.9,8.1,9.8,8.3z"/>
	<path class="st0" d="M140.5,55.9c0.1-0.2,0.3-0.1,0.4-0.1c0.3,0.1,0.6,0.1,0.8-0.2c0.1-0.3-0.2-0.4-0.5-0.7c0.3,0,0.5,0,0.7,0.3
		c0.3,0.5,0.5,0.5,0.8,0c0.1-0.1,0.1-0.2,0.2-0.2c0.5,0.1,1-0.1,1.4,0.2c0.5,0.3,0.9,0.3,1.4,0.2c0.4-0.1,0.8-0.3,1.3,0
		c-0.4,0.2-0.6,0.4-0.7,0.8c0,0.2-0.2,0.3-0.4,0.2c-0.7-0.2-1.3,0.1-1.9,0.2c-0.3,0-0.6,0.1-0.9-0.1c-0.7-0.4-1.6-0.2-2.3-0.5
		C140.7,56.1,140.5,56.1,140.5,55.9z"/>
	<path class="st0" d="M152.7,42.6c0-0.2-0.1-0.4,0.2-0.3c0.2,0,0.3,0.1,0.5-0.1c-0.1-0.2-0.4-0.2-0.4-0.5c-0.8,0.5-2.1,0.3-2.8-0.3
		c0.2-0.4,0.5-0.8,1.1-0.7c0.1-0.5-0.3-0.6-0.6-0.9c0.5-0.1,0.9-0.4,1.3-0.1c0.5,0.4,0.1,0.8-0.2,1.2c0.7-0.2,1.3-0.2,1.9,0.2
		c0.2,0.2,0.4,0.3,0.5,0.5c0.3,0.4,0,0.9-0.4,1C153.3,42.7,153,42.6,152.7,42.6L152.7,42.6z"/>
	<path class="st0" d="M95.4,36.2c-3.6,0.1-7.3,0.2-10.9,0.3C88.1,36,91.8,35.9,95.4,36.2z"/>
	<path class="st0" d="M19.5,59.4c-1.6,0.1-3.2,0-4.8-0.4c-0.2-0.1-0.5-0.1-0.4-0.4c0.1-0.3,0.3-0.1,0.5-0.1c1,0,1.9,0.3,2.8,0.5
		C18.2,59.1,18.8,59.3,19.5,59.4z"/>
	<path class="st0" d="M136.6,58.8c2.1,0,4.1,0.3,6.1,0.5C140.7,59.4,138.7,59.1,136.6,58.8z"/>
	<path class="st0" d="M117.2,56.8c-2.5,0.4-4.9,0.8-7.5,1c2.5-0.4,5-0.7,7.4-1.2C117.2,56.6,117.2,56.7,117.2,56.8z"/>
	<path class="st0" d="M153.4,56.6c-0.3-0.3-0.7-0.3-1.1-0.5c-0.2-0.1-0.5-0.1-0.6-0.5c-0.4,0.3-0.7,0.4-1.1,0.1c0-0.2,0-0.5,0.2-0.6
		c0.3-0.1,0.7,0,1,0.1c0.5,0.2,0.9,0.7,1.5,0.8C153.7,56.2,153.7,56.3,153.4,56.6L153.4,56.6z"/>
	<path class="st0" d="M17.6,58.2c-1,0.2-2,0.1-3-0.4C15.7,57.6,16.7,57.9,17.6,58.2z"/>
	<path class="st0" d="M5.9,5.6c0.3,0,0.5,0,0.4,0.5C6.2,6.5,5.9,6.7,5.6,6.6C5.3,6.5,5,6.4,5,6C5.1,5.5,5.5,5.5,5.9,5.6z"/>
	<path class="st0" d="M132.4,52c-0.4,0.3-0.9,0.1-1.4,0.2c-0.3,0-0.7,0-0.9,0.1c-0.1,0.2,0.2,0.2,0,0.4c-0.5,0.1-0.9-0.6-1.4-0.3
		C129.9,52,131.1,51.8,132.4,52L132.4,52z"/>
	<path class="st0" d="M81.5,37.2c-0.9,0.6-1.8,0.2-2.7,0.3C79.7,37.2,80.6,37.1,81.5,37.2z"/>
	<path class="st0" d="M151.6,49.1c0.5-0.4,0.9-0.2,1.3-0.1c0.1,0.1,0.2,0.2,0.2,0.3c0,0.2-0.2,0.2-0.3,0.2
		C152.3,49.7,152.1,49.3,151.6,49.1z"/>
	<path class="st0" d="M152.7,46.7c0.3-0.2,0.4-0.7,0.6-1c0.3,0.2,0.5,0.6,0.3,0.9C153.4,46.9,153,46.8,152.7,46.7z"/>
	<path class="st0" d="M152.7,38.6c-0.4,0.5-0.5,0.4-1.4-0.3C151.8,38.1,152.3,38.2,152.7,38.6z"/>
	<path class="st0" d="M152.7,42.6c-0.1,0.3,0.1,0.8-0.4,0.8c-0.4,0-0.4-0.4-0.6-0.7C152,42.4,152.4,42.6,152.7,42.6L152.7,42.6z"/>
	<path class="st0" d="M153.7,61.2c0.2-0.3,0.5-0.3,0.8-0.3c0.2,0,0.4,0.1,0.3,0.4c-0.1,0.5-0.5,0.1-0.8,0.2
		C153.9,61.6,153.8,61.5,153.7,61.2z"/>
	<path class="st0" d="M162.4,40.1c0.2,0.3,0.5,0.5,0.2,0.8c-0.2,0.2-0.4,0.2-0.6,0C161.8,40.5,162.2,40.4,162.4,40.1z"/>
	<path class="st0" d="M145.6,38.1c0.2,0.2,0.5,0.2,0.5,0.5c0,0.2-0.2,0.3-0.4,0.2c-0.3-0.1-0.5-0.2-0.5-0.5
		C145.3,38.2,145.4,38.1,145.6,38.1z"/>
	<path class="st0" d="M156.8,42.8c-0.1,0.7-0.2,0.8-0.8,0.6C156,42.9,156.3,42.8,156.8,42.8z"/>
	<path class="st0" d="M98.4,59.7c0.5-0.2,1-0.2,1.6,0C99.4,59.9,98.9,59.9,98.4,59.7z"/>
	<path class="st0" d="M155,38.8c0.6,0,0.9,0.3,0.8,0.9C155.5,39.4,155.3,39.1,155,38.8z"/>
	<path class="st0" d="M20.5,1.5c0.6,0.1,0.7,0.7,1.1,0.9c-0.4,0.2-0.5-0.6-0.9-0.1C20.6,2,20.6,1.8,20.5,1.5z"/>
	<path class="st0" d="M16.6,0.7c-0.4,0.4-0.8,0.4-1.2,0.2C15.8,0.8,16,0.2,16.6,0.7z"/>
	<path class="st0" d="M146.5,36.8c0.2,0.1,0.2,0.3,0.2,0.5c0,0.2-0.1,0.4-0.4,0.4c-0.2,0-0.2-0.2-0.1-0.4
		C146.2,37.1,146.2,36.8,146.5,36.8z"/>
	<path class="st0" d="M87.9,37.2c-0.8,0.2-1.5,0-2.3,0C86.4,37,87.1,37.1,87.9,37.2z"/>
	<path class="st0" d="M14.4,5.4c0,0.1,0,0.3-0.1,0.4c-0.1,0-0.2-0.1-0.3-0.2c-0.1-0.1-0.2-0.3-0.4-0.4C13.7,5,14,5.2,14.2,5.2l0,0
		C14.2,5.3,14.2,5.4,14.4,5.4L14.4,5.4z"/>
	<path class="st0" d="M132.5,53c-0.3,0.3-0.7,0-1,0.1C131.9,52.6,132.1,52.6,132.5,53z"/>
	<path class="st0" d="M127.5,52.6c-0.6,0-1.1,0.1-1.7,0.1c0,0,0-0.1,0-0.1c0.6-0.1,1.1-0.1,1.7-0.2
		C127.5,52.5,127.5,52.5,127.5,52.6z"/>
	<path class="st0" d="M121.7,52.9c0.5-0.1,0.9-0.2,1.5-0.3C122.9,53,122.5,53.1,121.7,52.9z"/>
	<path class="st0" d="M84.7,57.2c-0.6,0.2-1.2,0.2-1.8,0.2C83.4,57.2,84,57.1,84.7,57.2L84.7,57.2z"/>
	<path class="st0" d="M12.9,4.6c0.2-0.2,0.5-0.2,0.6-0.4c0.2,0.1,0.4,0.2,0.5,0.4C13.6,4.7,13.3,4.8,12.9,4.6L12.9,4.6z"/>
	<path class="st0" d="M107.6,57.9c0.5-0.1,1.1-0.1,1.6-0.2c-0.2,0.3-0.5,0.3-0.8,0.3c-0.3,0-0.5,0-0.8,0
		C107.6,57.9,107.6,57.9,107.6,57.9z"/>
	<path class="st0" d="M24.2,3.3c-0.5,0.2-0.9,0-1.2-0.2c0,0,0-0.1,0-0.1C23.4,3.1,23.8,3.2,24.2,3.3z"/>
	<path class="st0" d="M90.5,2c0.6-0.3,1.2-0.3,1.9-0.2C91.7,1.9,91.1,2,90.5,2z"/>
	<path class="st0" d="M153.4,56.5c0,0.2,0,0.4,0,0.6c-0.3,0.1-0.5,0.1-0.6-0.2C152.9,56.7,153.2,56.7,153.4,56.5L153.4,56.5z"/>
	<path class="st0" d="M7.6,44.9c0.1-0.3,0.3-0.4,0.6-0.3c0.1,0,0.2,0.2,0.1,0.3C8,45.1,7.8,45.1,7.6,44.9z"/>
	<path class="st0" d="M20,3.6c0.5-0.1,0.9,0.1,1.1,0.1C20.9,3.6,20.4,4.1,20,3.6z"/>
	<path class="st0" d="M120.1,56.2c-0.3,0.2-0.7,0.2-1.1,0.2C119.3,56.2,119.7,56.1,120.1,56.2z"/>
	<path class="st0" d="M125,56.9c0.5-0.3,0.9-0.2,1.4-0.1C125.9,56.8,125.5,56.9,125,56.9z"/>
	<path class="st0" d="M151.4,61.8c0.1,0,0.2,0.1,0.2,0.2c0,0.2-0.1,0.3-0.3,0.3c-0.1,0-0.2-0.1-0.2-0.2
		C151.1,61.9,151.2,61.8,151.4,61.8z"/>
	<path class="st0" d="M139.2,54.2c0.5,0.1,0.9-0.1,1.5,0.2C140.1,54.5,139.6,54.3,139.2,54.2z"/>
	<path class="st0" d="M138.1,53.2c0.5-0.1,0.9,0,1.3,0.1C139.1,53.4,138.7,53.4,138.1,53.2z"/>
	<path class="st0" d="M86.6,58.6c-0.5,0.1-1.1,0.2-1.6,0C85.6,58.6,86.1,58.6,86.6,58.6L86.6,58.6z"/>
	<path class="st0" d="M143.7,59.4c0.4-0.1,0.7-0.1,0.9,0C144.3,59.6,144.1,59.7,143.7,59.4z"/>
	<path class="st0" d="M153.1,38.6c0,0.3,0.1,0.6,0.1,0.9C152.8,39.2,152.8,39.1,153.1,38.6z"/>
	<path class="st0" d="M152.2,48.4c-0.3,0.2-0.6,0.1-0.8,0C151.7,48.1,151.7,48.1,152.2,48.4z"/>
	<path class="st0" d="M9.2,45.5c0,0.2-0.1,0.4-0.3,0.4c-0.1,0-0.2-0.2-0.1-0.3C8.8,45.3,8.9,45.4,9.2,45.5z"/>
	<path class="st0" d="M15.4,2.8c-0.2,0.1-0.5,0.3-0.7-0.1C15,2.7,15.2,2.8,15.4,2.8z"/>
	<path class="st0" d="M154.5,64.6c0.1,0.3,0.2,0.5-0.1,0.7C154.3,64.9,154.3,64.9,154.5,64.6z"/>
	<path class="st0" d="M16.5,0.1c0.2-0.1,0.4,0,0.5,0.1C16.7,0.4,16.7,0.4,16.5,0.1z"/>
	<path class="st0" d="M145,36.5c0.3-0.1,0.4-0.1,0.6,0.1C145.3,36.8,145.2,36.7,145,36.5z"/>
	<path class="st0" d="M3.9,6.5c0-0.3,0.1-0.4,0.3-0.3c0.1,0,0.1,0.1,0.1,0.2C4.3,6.5,4.1,6.5,3.9,6.5z"/>
	<path class="st0" d="M5.8,10.8c0.2-0.1,0.4,0,0.4,0.2c0,0-0.1,0.1-0.1,0.1C5.9,11.2,5.8,11.1,5.8,10.8z"/>
	<path class="st0" d="M6.2,40.6c0.2-0.1,0.3-0.1,0.4,0.1c0,0,0,0.2-0.1,0.2C6.4,40.9,6.3,40.9,6.2,40.6z"/>
	<path class="st0" d="M153.4,39.8c0,0.3,0,0.4-0.3,0.5C153,40,153.1,39.9,153.4,39.8z"/>
	<path class="st0" d="M137.3,54c-0.3,0.1-0.5,0.1-0.7,0C136.8,53.9,137,53.9,137.3,54z"/>
	<path class="st0" d="M151.7,64.4c0-0.1,0.1-0.2,0.2-0.2c0.1,0,0.2,0.1,0.1,0.2c0,0.1-0.1,0.2-0.2,0.2
		C151.7,64.6,151.7,64.5,151.7,64.4z"/>
	<path class="st0" d="M23.4,63.7c0.1,0,0.2,0.1,0.1,0.2c0,0.1-0.1,0.2-0.2,0.1c-0.1,0-0.2-0.1-0.1-0.2
		C23.2,63.7,23.3,63.7,23.4,63.7z"/>
	<path class="st0" d="M13.9,9c-0.2,0.1-0.4,0.1-0.5-0.1C13.7,8.7,13.8,8.9,13.9,9z"/>
	<path class="st0" d="M104.3,24.8c-0.2,0.2-0.3,0.2-0.5,0.1C103.9,24.6,104,24.6,104.3,24.8z"/>
	<path class="st0" d="M144.6,34.4c0.1-0.3,0.2-0.3,0.4-0.3C145,34.3,144.8,34.4,144.6,34.4z"/>
	<path class="st0" d="M118.2,56.6c-0.2,0-0.3,0-0.5,0.1c0,0,0-0.1,0-0.1c0.2,0,0.4-0.1,0.5-0.1C118.2,56.5,118.2,56.6,118.2,56.6z"
		/>
	<path class="st0" d="M11.2,42.9c-0.2-0.1-0.3-0.1-0.2-0.3C11.2,42.5,11.2,42.6,11.2,42.9z"/>
	<path class="st0" d="M8.4,40.9c0.2-0.1,0.3-0.1,0.4,0.1C8.6,41.1,8.5,41.1,8.4,40.9z"/>
	<path class="st0" d="M150.5,60.9c-0.1,0.1-0.2,0.1-0.3,0c0-0.1,0-0.1,0.1-0.2C150.4,60.7,150.5,60.7,150.5,60.9z"/>
	<path class="st0" d="M140.5,40.3c0.1,0,0.2,0.1,0.2,0.2c0,0.1-0.1,0.1-0.2,0.1c-0.1,0-0.2-0.1-0.1-0.2
		C140.4,40.3,140.5,40.3,140.5,40.3z"/>
	<path class="st0" d="M151.2,63.4c0-0.1,0-0.1,0.1-0.1c0.1,0,0.1,0.1,0.1,0.1c0,0.1-0.1,0.1-0.1,0.1
		C151.3,63.6,151.3,63.5,151.2,63.4z"/>
	<path class="st0" d="M135.9,55.4c-0.1,0.2-0.2,0.2-0.3,0.1C135.6,55.3,135.7,55.3,135.9,55.4z"/>
	<path class="st0" d="M137.3,57.2c-0.2,0.1-0.2,0-0.3,0C137.2,57.1,137.2,57.1,137.3,57.2z"/>
	<path class="st0" d="M146.7,34.1c0.1-0.1,0.2-0.3,0.4-0.2C147,34.2,146.8,34.1,146.7,34.1L146.7,34.1z"/>
	<path class="st0" d="M12.9,4.6c0,0.2,0,0.4-0.3,0.3C12.6,4.7,12.8,4.7,12.9,4.6L12.9,4.6z"/>
	<path class="st0" d="M4.7,6.6c0.2,0,0.3,0.1,0.2,0.2C4.8,7,4.7,7,4.6,6.8C4.6,6.8,4.7,6.7,4.7,6.6z"/>
	<path class="st0" d="M156,38.4c-0.1,0.1-0.2,0-0.4,0C155.8,38.3,155.9,38.2,156,38.4z"/>
	<path class="st0" d="M112.5,27c-0.1,0.1-0.2,0.1-0.3,0C112.3,26.9,112.4,26.9,112.5,27z"/>
	<path class="st0" d="M135.9,53c0.1,0,0.3,0.1,0.4,0.1C136.2,53.1,136,53.1,135.9,53z"/>
	<path class="st0" d="M145.6,35.8c-0.1,0.1-0.2,0.1-0.2,0c0,0,0-0.1,0-0.1C145.5,35.6,145.6,35.7,145.6,35.8z"/>
	<path class="st0" d="M5.4,40.8c0.1,0,0.1-0.1,0.1-0.1c0,0,0.1,0,0.1,0.1c0,0-0.1,0.1-0.1,0.1C5.5,40.9,5.4,40.9,5.4,40.8z"/>
	<path class="st0" d="M5.6,42.2c-0.1,0.2-0.2,0.2-0.3,0.1C5.3,42.1,5.5,42.2,5.6,42.2z"/>
	<path class="st0" d="M7.3,46.4c0,0.1,0.1,0.1,0.1,0.1c0,0.1-0.1,0.1-0.2,0.1c0,0-0.1-0.1,0-0.1C7.2,46.4,7.2,46.4,7.3,46.4z"/>
	<path class="st0" d="M86.6,58.6c0.1-0.1,0.3-0.2,0.5,0C86.9,58.7,86.8,58.6,86.6,58.6C86.6,58.6,86.6,58.6,86.6,58.6z"/>
	<path class="st0" d="M7.6,41.9c0,0.1,0,0.1,0.1,0.1c-0.1,0-0.1,0-0.2,0c-0.1,0-0.1-0.1-0.1-0.1C7.4,41.9,7.5,41.9,7.6,41.9z"/>
	<path class="st0" d="M115.8,54.1c-0.1,0.1-0.2,0.2-0.4,0.1C115.5,54,115.7,54.1,115.8,54.1L115.8,54.1z"/>
	<path class="st0" d="M124.1,56.8c0.2,0,0.3-0.1,0.4,0C124.4,57,124.3,56.9,124.1,56.8z"/>
	<path class="st0" d="M0.1,46.7c0,0.1,0.1,0.1,0.1,0.1c0,0-0.1,0.1-0.1,0.1c0,0-0.1-0.1-0.1-0.1C0,46.8,0.1,46.7,0.1,46.7z"/>
	<path class="st0" d="M142,54.4c-0.1,0.1-0.2,0.1-0.3,0C141.8,54.3,141.9,54.3,142,54.4z"/>
	<path class="st0" d="M5.6,41.6c0.1,0,0.1-0.1,0.1-0.1c0.1,0,0.1,0,0.1,0.1c0,0-0.1,0.1-0.1,0.1C5.6,41.8,5.6,41.7,5.6,41.6z"/>
	<path class="st0" d="M150.4,48.4C150.3,48.4,150.3,48.5,150.4,48.4c-0.1,0-0.2,0-0.2,0C150.2,48.4,150.3,48.3,150.4,48.4
		C150.3,48.4,150.3,48.4,150.4,48.4z"/>
	<path class="st0" d="M152.1,65.7c0,0.1-0.1,0.2-0.2,0.1C151.9,65.6,152.1,65.7,152.1,65.7L152.1,65.7z"/>
	<path class="st0" d="M8.9,8.5C8.8,8.7,8.7,8.7,8.7,8.7C8.7,8.5,8.8,8.5,8.9,8.5z"/>
	<path class="st0" d="M156.1,43.7c0,0,0.1,0.1,0.1,0.1c0,0-0.1,0.1-0.1,0.1c0,0-0.1,0-0.1-0.1C156,43.8,156,43.7,156.1,43.7z"/>
	<path class="st0" d="M155,41.9c0,0-0.1,0-0.1,0.1c0,0,0-0.1,0-0.1c0,0,0.1-0.1,0.1-0.1C155,41.8,155,41.9,155,41.9z"/>
	<path class="st0" d="M8,41.6C8,41.5,8.1,41.5,8,41.6c0.1-0.1,0.1-0.1,0.2,0c0,0,0,0.1-0.1,0.1C8.1,41.6,8.1,41.6,8,41.6z"/>
	<path class="st0" d="M112.8,26.2C112.9,26.2,112.9,26.2,112.8,26.2c0.1,0,0.1,0,0.1,0C112.9,26.2,112.9,26.2,112.8,26.2
		C112.8,26.2,112.8,26.2,112.8,26.2z"/>
	<path class="st0" d="M98.7,56.4C98.7,56.4,98.7,56.4,98.7,56.4C98.7,56.5,98.6,56.5,98.7,56.4C98.6,56.5,98.6,56.5,98.7,56.4
		C98.6,56.4,98.6,56.4,98.7,56.4z"/>
	<path class="st0" d="M157.6,54.3C157.5,54.3,157.5,54.3,157.6,54.3C157.5,54.3,157.5,54.2,157.6,54.3
		C157.5,54.2,157.5,54.2,157.6,54.3C157.5,54.2,157.5,54.2,157.6,54.3z"/>
	<path class="st0" d="M29.7,59.6c0.1-0.1,0.1-0.1,0.2,0C29.8,59.7,29.8,59.6,29.7,59.6z"/>
	<path class="st0" d="M154.8,59.1C154.8,59.1,154.8,59.1,154.8,59.1c0.1-0.1,0.1,0,0.1,0C154.9,59.1,154.8,59.2,154.8,59.1
		C154.8,59.2,154.8,59.1,154.8,59.1z"/>
	<path class="st0" d="M130.8,52.7c0,0-0.1,0-0.2,0C130.7,52.5,130.8,52.6,130.8,52.7z"/>
	<path class="st0" d="M0.6,39.3C0.6,39.3,0.5,39.2,0.6,39.3C0.5,39.2,0.6,39.2,0.6,39.3C0.6,39.2,0.6,39.2,0.6,39.3
		C0.6,39.2,0.6,39.3,0.6,39.3z"/>
	<path class="st0" d="M10.3,42.8C10.3,42.8,10.3,42.8,10.3,42.8c-0.1,0-0.1,0-0.1,0C10.2,42.8,10.3,42.7,10.3,42.8
		C10.3,42.8,10.3,42.8,10.3,42.8z"/>
	<path class="st0" d="M20.7,3.2C20.8,3.2,20.8,3.2,20.7,3.2C20.8,3.2,20.8,3.3,20.7,3.2C20.7,3.3,20.7,3.2,20.7,3.2
		C20.7,3.2,20.7,3.2,20.7,3.2z"/>
	<path class="st0" d="M144.3,39.3C144.3,39.4,144.3,39.4,144.3,39.3C144.2,39.3,144.2,39.3,144.3,39.3
		C144.2,39.3,144.3,39.3,144.3,39.3C144.3,39.3,144.3,39.3,144.3,39.3z"/>
	<path class="st0" d="M5.2,40.5C5.1,40.5,5.1,40.6,5.2,40.5C5.1,40.5,5.1,40.5,5.2,40.5C5.1,40.5,5.1,40.5,5.2,40.5
		C5.2,40.5,5.2,40.5,5.2,40.5z"/>
	<path class="st0" d="M95.4,35.1C95.5,35,95.5,35,95.4,35.1c0.1,0,0.1,0,0.1,0C95.5,35.1,95.5,35.1,95.4,35.1
		C95.5,35.1,95.5,35.1,95.4,35.1z"/>
	<path class="st0" d="M4.3,51.8C4.3,51.8,4.3,51.8,4.3,51.8C4.2,51.8,4.2,51.8,4.3,51.8C4.2,51.8,4.2,51.7,4.3,51.8
		C4.3,51.7,4.3,51.7,4.3,51.8z"/>
	<path class="st0" d="M153.7,47.5C153.7,47.5,153.7,47.5,153.7,47.5C153.7,47.6,153.7,47.6,153.7,47.5
		C153.6,47.6,153.6,47.6,153.7,47.5C153.6,47.6,153.6,47.5,153.7,47.5z"/>
	<path class="st0" d="M151.1,37.1C151.1,37.1,151.1,37.1,151.1,37.1C151.1,37.2,151.1,37.2,151.1,37.1
		C151.1,37.2,151.1,37.1,151.1,37.1z"/>
	<path class="st0" d="M106.1,29C106.1,29,106,29,106.1,29C106,29,106.1,29,106.1,29L106.1,29z"/>
	<polygon class="st0" points="150.4,44.6 150.4,44.6 150.4,44.6 	"/>
	<path class="st0" d="M157.1,57.2C157.1,57.3,157.1,57.3,157.1,57.2C157,57.3,157.1,57.3,157.1,57.2
		C157.1,57.2,157.1,57.2,157.1,57.2z"/>
	<polygon class="st0" points="104.6,29 104.6,29 104.6,29 	"/>
	<polygon class="st0" points="105.1,24.7 105.1,24.7 105.1,24.7 	"/>
	<path class="st0" d="M8,14.4C8,14.4,8,14.4,8,14.4C8,14.4,8,14.4,8,14.4C8,14.4,8,14.4,8,14.4z"/>
	<polygon class="st0" points="101.4,23.8 101.5,23.8 101.5,23.8 	"/>
	<polygon class="st0" points="95.9,36.1 95.9,36.2 95.9,36.2 	"/>
	<path class="st0" d="M94.1,4.9C94.1,4.9,94.1,4.9,94.1,4.9C94.1,4.9,94.1,4.9,94.1,4.9C94,4.9,94,4.9,94.1,4.9
		C94.1,4.9,94.1,4.9,94.1,4.9z"/>
	<polygon class="st0" points="137.3,53.1 137.2,53.2 137.2,53.1 	"/>
	<path class="st0" d="M85,57.1c-0.1,0.1-0.2,0.1-0.3,0l0,0C84.8,57.2,84.9,57.2,85,57.1L85,57.1z"/>
	<polygon class="st0" points="88.8,2.3 88.9,2.4 88.8,2.4 	"/>
	<polygon class="st0" points="5.7,11.6 5.6,11.6 5.6,11.6 	"/>
	<polygon class="st0" points="75.1,38.3 75.1,38.3 75.1,38.3 	"/>
	<path class="st0" d="M148.6,35.2C148.6,35.2,148.6,35.2,148.6,35.2C148.6,35.2,148.6,35.3,148.6,35.2
		C148.6,35.2,148.6,35.2,148.6,35.2C148.6,35.2,148.6,35.2,148.6,35.2z"/>
	<path class="st0" d="M150,36.8C149.9,36.8,149.9,36.8,150,36.8C149.9,36.7,149.9,36.7,150,36.8C150,36.7,150,36.7,150,36.8z"/>
	<path class="st0" d="M115.8,54.1C115.8,54.1,115.8,54.1,115.8,54.1C115.8,54.1,115.8,54.1,115.8,54.1L115.8,54.1z"/>
	<path class="st0" d="M88.3,6.4C88.3,6.4,88.3,6.4,88.3,6.4C88.3,6.4,88.3,6.4,88.3,6.4L88.3,6.4z"/>
	<path class="st0" d="M128.4,53.1C128.4,53.1,128.4,53.1,128.4,53.1C128.4,53.1,128.4,53.1,128.4,53.1L128.4,53.1z"/>
	<path class="st0" d="M128.4,53.1C128.4,53.1,128.4,53.1,128.4,53.1C128.4,53.1,128.4,53.1,128.4,53.1
		C128.4,53.1,128.4,53.1,128.4,53.1z"/>
	<path class="st0" d="M88.3,6.4C88.2,6.4,88.2,6.5,88.3,6.4C88.2,6.5,88.2,6.4,88.3,6.4L88.3,6.4z"/>
	<path class="st0" d="M87.1,56.9C87.1,56.9,87.1,56.9,87.1,56.9C87.1,56.9,87.1,56.9,87.1,56.9L87.1,56.9z"/>
	<path class="st0" d="M85,57.2C85,57.1,85,57.1,85,57.2C85,57.1,85,57.1,85,57.2L85,57.2z"/>
	<path class="st0" d="M152.1,65.7L152.1,65.7L152.1,65.7z"/>
	<path class="st0" d="M87.1,56.9L87.1,56.9L87.1,56.9z"/>
	<path class="st0" d="M146.7,34.1L146.7,34.1L146.7,34.1z"/>
	<path class="st0" d="M83.9,56C84,55.9,84,55.9,83.9,56c0.1-0.1,0.1,0,0.2,0C84.1,56,84,56,83.9,56C84,56,84,56,83.9,56z"/>
</g>
<g>
	<g>
		<g>
			<path class="st1" d="M17.4,45.2c-0.1,0-0.3-0.1-0.3-0.2L17,44.9c0,0-0.1-0.2-0.3-0.4c-0.2-0.2-0.4-0.5-0.5-0.7
				c-0.2-0.4-0.3-0.7-0.2-0.9c0.1-0.2,0.4-0.4,0.8-0.4c0.2,0,0.5-0.1,1-0.1c0.4-0.1,0.8-0.1,1.3-0.1l0.2,0c0.5,0,1.2,0,2.1,0
				c0.9,0,1.5,0.1,1.9,0.1l1.1,0l0.4,0c0.2,0,0.5,0,0.5,0c0-0.1,0-0.2,0-0.3c0-0.2,0-0.6,0-0.6c0-0.1,0.1-0.3,0.1-0.4
				c0.1-0.1,0.2-0.1,0.3-0.1c0.2,0,0.3,0.1,0.4,0.2c0.1,0.1,0.1,0.2,0.1,0.4c0,0,0,0.3,0,0.6c0,0.2,0,0.4,0,0.6c0,0,0,0.1,0,0.1
				c0,0.1,0.1,0.3,0.1,0.4l0,0.5c0,0.2,0,0.4,0,0.6c0,0.1,0,0.1,0,0.2c0,0.1-0.1,0.3-0.4,0.4c-0.1,0.1-0.2,0.1-0.3,0.1h-0.1L25.5,45
				L25.4,45l0-0.2v-0.3c0-0.3,0-0.5,0-0.8l0-0.2c0,0-0.1,0-0.1,0c-0.2,0-0.5,0-0.8,0c-0.2,0-0.3,0-0.5,0c-0.2,0-0.4,0-0.6,0
				c-0.4,0-1,0-1.9-0.1c-0.8,0-1.5,0-2.1,0l-0.2,0c-0.4,0-0.9,0-1.2,0.1c-0.3,0-0.6,0.1-0.8,0.1c0.1,0.1,0.2,0.2,0.3,0.3
				c0.2,0.2,0.3,0.4,0.4,0.5l0.1,0.1c0.1,0.1,0.1,0.2,0.1,0.4c0,0.1-0.1,0.3-0.2,0.3c-0.1,0.1-0.2,0.1-0.3,0.1L17.4,45.2z"/>
		</g>
		<g>
			<path class="st1" d="M22.5,37.7c-0.2,0-0.5,0-0.7,0c-0.1,0-0.2,0-0.4,0c-0.2,0-0.4,0-0.7,0c-0.1,0-0.2,0-0.3,0
				c-0.3,0-0.5,0-0.8,0c-0.3,0-0.6-0.1-1-0.2c-0.4-0.1-0.7-0.3-1.2-0.5c-0.4-0.3-0.7-0.5-1-0.8c-0.1-0.2-0.2-0.3-0.3-0.4
				c-0.1,0-0.1-0.1-0.2-0.2C16,35.5,16,35.4,16,35.2c0-0.1,0.1-0.2,0.2-0.3l0.3-0.2c0.2-0.1,0.5-0.3,0.9-0.4c0.4-0.2,0.7-0.3,1-0.3
				c0.3,0,0.6-0.1,0.9-0.2c0.3-0.1,0.7-0.1,1.1-0.1l1-0.1c0.2,0,0.4,0,0.6,0c0.2,0,0.3,0,0.5,0c0.3,0,0.7,0.1,1,0.1
				c0.3,0.1,0.7,0.1,1,0.2c0.4,0.1,0.7,0.2,0.9,0.3c0.2,0.1,0.5,0.3,0.7,0.6c0.3,0.3,0.4,0.6,0.3,1c0,0.3-0.1,0.5-0.3,0.7
				c-0.1,0.1-0.2,0.3-0.4,0.4c-0.1,0.1-0.3,0.2-0.4,0.3c-0.2,0.1-0.4,0.2-0.6,0.3c-0.3,0.1-0.6,0.2-0.9,0.2c-0.3,0.1-0.6,0.1-1,0.1
				C22.7,37.7,22.6,37.7,22.5,37.7z M21.8,36.6c0.2,0,0.4,0,0.6,0c0.1,0,0.2,0,0.3,0c0.3,0,0.6,0,0.8-0.1c0.3-0.1,0.5-0.1,0.7-0.2
				c0.2-0.1,0.4-0.2,0.5-0.2C25,36.1,25,36,25.1,36c0.1-0.1,0.2-0.1,0.2-0.2c0,0,0-0.1,0.1-0.2c0,0,0,0,0,0c0,0,0,0-0.1-0.1
				c-0.1-0.1-0.3-0.3-0.4-0.3c-0.1-0.1-0.4-0.1-0.6-0.2c-0.3-0.1-0.7-0.1-1-0.2c-0.3-0.1-0.6-0.1-0.9-0.1c-0.2,0-0.3,0-0.5,0
				c-0.1,0-0.3,0-0.4,0c-0.4,0-0.7,0-1,0.1c-0.3,0-0.6,0.1-0.9,0.1c-0.4,0.1-0.7,0.1-0.9,0.2c-0.2,0-0.5,0.1-0.8,0.2
				c-0.2,0.1-0.4,0.2-0.5,0.2c0,0,0,0,0,0c0.1,0.2,0.4,0.4,0.7,0.6c0.3,0.2,0.6,0.3,0.9,0.4c0.3,0.1,0.5,0.1,0.8,0.2
				c0.2,0,0.4,0,0.6,0c0.1,0,0.2,0,0.4,0c0.2,0,0.5,0,0.7,0C21.5,36.6,21.6,36.6,21.8,36.6z"/>
		</g>
		<g>
			<path class="st1" d="M22.5,30.5c-0.2,0-0.5,0-0.7,0c-0.1,0-0.2,0-0.4,0c-0.2,0-0.4,0-0.7,0c-0.1,0-0.2,0-0.3,0
				c-0.3,0-0.5,0-0.8,0c-0.3,0-0.6-0.1-1-0.2c-0.4-0.1-0.7-0.3-1.2-0.5c-0.4-0.3-0.7-0.5-1-0.8c-0.1-0.2-0.2-0.3-0.3-0.4
				c-0.1,0-0.1-0.1-0.2-0.2C16,28.4,16,28.2,16,28.1c0-0.1,0.1-0.2,0.2-0.3l0.3-0.2c0.2-0.1,0.5-0.3,0.9-0.4c0.4-0.2,0.7-0.3,1-0.3
				c0.3,0,0.6-0.1,0.9-0.2c0.3-0.1,0.7-0.1,1.1-0.1l1-0.1c0.2,0,0.4,0,0.6,0c0.2,0,0.3,0,0.5,0c0.3,0,0.7,0.1,1,0.1
				c0.3,0.1,0.7,0.1,1,0.2c0.4,0.1,0.7,0.2,0.9,0.3c0.2,0.1,0.5,0.3,0.7,0.6c0.3,0.3,0.4,0.6,0.3,1c0,0.3-0.1,0.5-0.3,0.7
				c-0.1,0.1-0.2,0.3-0.4,0.4c-0.1,0.1-0.3,0.2-0.4,0.3c-0.2,0.1-0.4,0.2-0.6,0.3c-0.3,0.1-0.6,0.2-0.9,0.2c-0.3,0.1-0.6,0.1-1,0.1
				C22.7,30.5,22.6,30.5,22.5,30.5z M21.8,29.5c0.2,0,0.4,0,0.6,0c0.1,0,0.2,0,0.3,0c0.3,0,0.6,0,0.8-0.1c0.3-0.1,0.5-0.1,0.7-0.2
				c0.2-0.1,0.4-0.2,0.5-0.2c0.1-0.1,0.2-0.1,0.3-0.2c0.1-0.1,0.2-0.1,0.2-0.2c0,0,0-0.1,0.1-0.2v0c0,0,0,0-0.1-0.1
				c-0.1-0.1-0.3-0.3-0.4-0.3c-0.1-0.1-0.4-0.1-0.6-0.2c-0.3-0.1-0.7-0.1-1-0.2c-0.3-0.1-0.6-0.1-0.9-0.1c-0.2,0-0.3,0-0.5,0
				c-0.1,0-0.3,0-0.4,0c-0.4,0-0.7,0-1,0.1c-0.3,0-0.6,0.1-0.9,0.1c-0.4,0.1-0.7,0.1-0.9,0.2c-0.2,0-0.5,0.1-0.8,0.2
				c-0.2,0.1-0.4,0.2-0.5,0.2c0,0,0,0,0,0c0.1,0.2,0.4,0.4,0.7,0.6c0.3,0.2,0.6,0.3,0.9,0.4c0.3,0.1,0.5,0.1,0.8,0.2
				c0.2,0,0.4,0,0.6,0c0.1,0,0.2,0,0.4,0c0.2,0,0.5,0,0.7,0C21.5,29.5,21.6,29.5,21.8,29.5z"/>
		</g>
		<g>
			<path class="st1" d="M19.5,23.3c-0.2,0-0.3,0-0.5,0c-0.4,0-0.8-0.1-1.2-0.2c-0.5-0.1-0.9-0.4-1.2-0.7l-0.3-0.3
				c-0.1-0.1-0.2-0.2-0.2-0.3C16,21.7,16,21.6,16,21.5l0-0.2c0-0.2,0.1-0.4,0.3-0.5l0.1-0.1c0.1-0.1,0.2-0.1,0.3-0.2
				c0.2-0.1,0.4-0.3,0.7-0.4c0.3-0.1,0.6-0.2,1-0.2c0.1,0,0.2,0,0.3,0c0.3,0,0.5,0,0.8,0c0.4,0,0.8,0.2,1.1,0.3
				c0.3,0.2,0.7,0.4,0.9,0.6c0.3,0.3,0.5,0.5,0.5,0.8c0.1,0.3,0.1,0.6-0.1,0.9c-0.2,0.2-0.5,0.4-0.8,0.5c-0.3,0.1-0.6,0.1-1,0.1
				C19.9,23.3,19.7,23.3,19.5,23.3z M17.3,21.6c0.2,0.2,0.5,0.3,0.8,0.4c0.3,0.1,0.7,0.2,1,0.2c0.1,0,0.3,0,0.4,0c0.2,0,0.3,0,0.5,0
				c0.3,0,0.6-0.1,0.8-0.1c0.2,0,0.2-0.1,0.2-0.1c0,0,0-0.1-0.2-0.3c-0.2-0.2-0.4-0.3-0.6-0.4c-0.2-0.1-0.5-0.2-0.8-0.2
				c-0.2,0-0.4,0-0.6,0c-0.1,0-0.2,0-0.3,0c-0.3,0-0.6,0.1-0.8,0.1c-0.3,0.1-0.4,0.2-0.4,0.2c0,0-0.1,0.1-0.1,0.1
				C17.1,21.5,17.2,21.6,17.3,21.6z M26.3,22.5c-0.1,0-0.2,0-0.3-0.1l-0.6-0.3c-0.3-0.2-0.8-0.4-1.4-0.6c-0.7-0.2-1.3-0.5-2-0.8
				l-1.9-0.8c-0.6-0.3-1.1-0.5-1.6-0.7c-0.4-0.2-0.8-0.3-1.2-0.5c-0.3-0.1-0.5-0.2-0.6-0.2c-0.2,0-0.3-0.1-0.4-0.2
				c-0.1-0.1-0.1-0.2-0.1-0.4c0-0.1,0.1-0.3,0.2-0.4c0.1-0.1,0.2-0.1,0.3-0.1l0.1,0.3l0-0.2c0.1,0,0.2,0,0.8,0.3
				c0.4,0.1,0.8,0.3,1.2,0.5c0.5,0.2,1,0.4,1.6,0.7l1.9,0.8c0.6,0.3,1.3,0.5,1.9,0.8c0.7,0.3,1.2,0.5,1.6,0.7l0.6,0.3
				c0.1,0.1,0.2,0.2,0.3,0.3c0,0.1,0,0.3,0,0.4c-0.1,0.1-0.2,0.2-0.3,0.3l0,0L26.3,22.5z M24.5,19.9c-0.2,0-0.4,0-0.6,0
				c-0.3,0-0.7-0.2-1.2-0.3c-0.4-0.2-0.8-0.4-1.1-0.6l-0.3-0.3c-0.1-0.1-0.2-0.2-0.2-0.4c0-0.1,0-0.3,0.1-0.4l0,0l0,0
				c0.1-0.1,0.2-0.3,0.3-0.4c0.2-0.2,0.4-0.3,0.6-0.4c0.3-0.1,0.6-0.2,0.9-0.2c0.2,0,0.4,0,0.6,0c0.2,0,0.4,0,0.6,0
				c0.4,0,0.9,0.1,1.2,0.3c0.4,0.2,0.7,0.4,1,0.8c0.4,0.6,0.1,1-0.1,1.2c-0.2,0.1-0.3,0.3-0.6,0.4c-0.3,0.2-0.6,0.3-1,0.4
				C24.8,19.9,24.6,19.9,24.5,19.9z M22.4,18.2c0.2,0.1,0.4,0.3,0.7,0.4c0.3,0.1,0.7,0.2,0.9,0.3c0.2,0,0.3,0,0.5,0
				c0.1,0,0.2,0,0.3,0c0.2,0,0.4-0.1,0.5-0.2c0.1-0.1,0.3-0.2,0.4-0.3c-0.1-0.1-0.2-0.2-0.4-0.3c-0.3-0.1-0.6-0.2-0.9-0.2
				c-0.2,0-0.4,0-0.5,0c-0.2,0-0.3,0-0.5,0c-0.3,0-0.5,0.1-0.6,0.2C22.6,18.1,22.5,18.1,22.4,18.2z"/>
		</g>
	</g>
	<g>
		<path class="st1" d="M83.6,44.5c0.3-0.1,0.6-0.1,1-0.1c0.6,0,1,0.1,1.3,0.5c0.3,0.3,0.5,0.7,0.5,1.3c0,0.6-0.1,0.9-0.4,1.2
			c-0.3,0.5-0.9,0.7-1.4,0.7c-0.1,0-0.2,0-0.3,0v2.5h-0.7V44.5z M84.3,47.4c0.1,0,0.2,0,0.3,0c0.7,0,1.1-0.5,1.1-1.3
			c0-0.6-0.3-1.2-1-1.2c-0.2,0-0.3,0-0.4,0V47.4z"/>
		<path class="st1" d="M89,44.5c0.3-0.1,0.7-0.1,1-0.1c0.6,0,1.1,0.1,1.4,0.4c0.3,0.3,0.4,0.7,0.4,1.2c0,0.8-0.4,1.3-1,1.6v0
			c0.5,0.1,0.7,0.6,0.8,1.4c0.1,0.8,0.3,1.3,0.3,1.5h-0.7c-0.1-0.2-0.2-0.8-0.3-1.5c-0.1-0.8-0.4-1.1-1-1.1h-0.3v2.6H89V44.5z
			 M89.7,47.3H90c0.7,0,1.1-0.5,1.1-1.2c0-0.7-0.3-1.1-1-1.1c-0.1,0-0.3,0-0.4,0V47.3z"/>
		<path class="st1" d="M97.7,47.4c0,2.3-0.8,3.2-1.8,3.2c-1,0-1.7-1.1-1.7-3.1c0-2,0.7-3.1,1.8-3.1C97,44.3,97.7,45.4,97.7,47.4z
			 M94.9,47.4c0,1.3,0.2,2.5,1,2.5c0.8,0,1-1.3,1-2.5c0-1.1-0.2-2.5-1-2.5C95.2,44.9,94.9,46.2,94.9,47.4z"/>
		<path class="st1" d="M100.3,44.5c0.3-0.1,0.6-0.1,0.9-0.1c0.6,0,1.1,0.2,1.4,0.5c0.5,0.4,0.8,1.2,0.8,2.5c0,1.4-0.3,2.1-0.7,2.6
			c-0.4,0.5-1,0.7-1.7,0.7c-0.3,0-0.6,0-0.8-0.1V44.5z M101,49.9c0.1,0,0.2,0,0.3,0c0.8,0,1.5-0.5,1.5-2.6c0-1.5-0.5-2.4-1.4-2.4
			c-0.1,0-0.2,0-0.3,0V49.9z"/>
		<path class="st1" d="M106.8,44.4v4.1c0,1.1,0.4,1.5,0.8,1.5c0.5,0,0.8-0.4,0.8-1.5v-4.1h0.7v4c0,1.6-0.6,2.2-1.5,2.2
			c-0.9,0-1.5-0.6-1.5-2.1v-4H106.8z"/>
		<path class="st1" d="M114.7,50.3c-0.2,0.1-0.5,0.2-0.9,0.2c-1.2,0-2-1-2-3c0-2.4,1.2-3.2,2.1-3.2c0.4,0,0.6,0.1,0.8,0.2l-0.2,0.6
			c-0.1-0.1-0.3-0.1-0.6-0.1c-0.6,0-1.4,0.6-1.4,2.5c0,1.9,0.7,2.5,1.4,2.5c0.3,0,0.5-0.1,0.6-0.1L114.7,50.3z"/>
		<path class="st1" d="M118,45h-1.1v-0.6h2.9V45h-1.1v5.4H118V45z"/>
		<path class="st1" d="M122,49.6c0.2,0.1,0.6,0.2,0.9,0.2c0.6,0,1-0.4,1-1c0-0.6-0.3-0.9-0.8-1.3c-0.5-0.3-1.1-0.9-1.1-1.7
			c0-0.9,0.6-1.6,1.6-1.6c0.4,0,0.7,0.1,0.9,0.2l-0.2,0.6c-0.2-0.1-0.4-0.2-0.7-0.2c-0.6,0-0.9,0.5-0.9,0.9c0,0.6,0.3,0.8,0.9,1.3
			c0.7,0.5,1.1,1.1,1.1,1.7c0,1-0.7,1.7-1.7,1.7c-0.4,0-0.9-0.1-1-0.3L122,49.6z"/>
	</g>
	<g>
		<path class="st1" d="M40.9,26.4c0.2,0.1,0.5,0.3,1,0.5c0.3,0.1,0.7,0.3,1.2,0.6c0.9,0.9,1.7,2.1,2.3,3.7c0.6,1.6,0.9,3.3,0.9,5.2
			c0.1,0.7,0.2,1.4,0.2,2.3c0,2.6-0.5,5-1.6,7.3c-1.1,2.3-2.5,4-4.2,5.1c-0.7,0.4-1.5,0.6-2.3,0.7c-0.8,0.1-1.9,0.1-3.4,0.1
			c-0.6,0-1.4-0.1-2.4-0.4c-1.1-0.3-1.9-0.4-2.5-0.4c-0.7,0-1.2,0-1.5-0.1c-0.3-0.1-0.5-0.2-0.7-0.4c-0.2-0.2-0.3-0.6-0.3-1.1v-0.8
			H30c0.2-0.7,0.3-1.7,0.4-3.2c0-0.7,0-1.9,0-3.4c0-1.6,0-2.9,0.1-4c0-1.1,0.2-2.2,0.3-3.3v-1.6v-4.1v-8.2v-6.5
			c-1.1,0-1.9-0.1-2.5-0.3c-0.5-0.2-0.8-0.6-0.8-1.4c0.3-0.3,0.8-0.6,1.5-0.7c0.6-0.1,1.5-0.1,2.6-0.1c2.7,0,4.9,0.1,6.4,0.3
			c1.5,0.2,2.7,0.6,3.4,1.4c0.1,0.2,0.2,0.4,0.3,0.6c0.1,0.2,0.2,0.3,0.2,0.4c0.4,0.7,0.7,1.3,0.9,1.8c0.2,0.5,0.3,1.2,0.3,2
			c0.1,0.4,0.2,0.8,0.2,1.4c0,1-0.3,2.1-0.8,3.2c-0.5,1.1-1.1,2-1.9,2.8C40.7,26,40.8,26.2,40.9,26.4z M35.1,15.5
			C35,16,35,16.7,35,17.6c0,1.5,0,2.6,0.1,3.4c0.1,0.8,0.3,1.6,0.7,2.3c0.1,0.1,0.3,0.2,0.4,0.2c0.2,0,0.4-0.1,0.6-0.3
			c0.2-0.2,0.5-0.5,0.8-0.9l0.6-0.7c0.4-1.1,0.7-2,0.9-2.8s0.3-1.5,0.3-2.1c0-0.6-0.1-1.2-0.3-1.6c-0.4-0.4-0.8-0.6-1.4-0.7
			c-0.6-0.1-1.2-0.1-1.9-0.1C35.4,14.7,35.2,15.1,35.1,15.5z M40.7,46.2c0.3-0.3,0.6-0.8,0.7-1.4c0.1-0.6,0.1-1.2,0.1-1.9
			c0.4-0.4,0.6-0.7,0.7-0.8c0.1-0.1,0.1-0.4,0.1-0.8c0.2-0.5,0.4-1.2,0.4-2.1c0-0.4-0.1-1.3-0.2-2.6c-0.1-1-0.2-1.6-0.2-1.8l0-1.4
			c0-0.3,0-0.6-0.1-0.9c-0.1-0.3-0.2-0.7-0.5-1.2c0-0.1,0-0.1,0-0.2l-0.1-0.6c0-0.1-0.1-0.3-0.2-0.5c-0.1-0.3-0.3-0.6-0.4-1
			c-0.8-0.8-1.7-1.4-2.6-1.8c-0.9-0.4-1.8-0.6-2.7-0.6c-0.3,0.4-0.6,0.8-0.7,1.4C35,28.6,35,29.2,35,29.9v13.1v5.7
			c1.1,0,1.9,0,2.6-0.1c0.6-0.1,1.1-0.3,1.5-0.7L40.7,46.2z"/>
		<path class="st1" d="M56,17.1c0,0.7,0.1,1.5,0.2,2.4c0,0.2,0.1,0.6,0.1,1.1c0.1,0.6,0.1,1.1,0,1.5c-0.1,1.6-0.2,4.2-0.3,7.8
			c-0.1,3-0.3,6.2-0.4,9.5c-0.1,3.3-0.2,6.3-0.2,9c0.3,0.3,0.7,0.5,1.3,0.8c0.5,0.3,0.9,0.5,1.2,0.8c0,0.2-0.1,0.4-0.2,0.5
			c-0.1,0.1-0.3,0.3-0.6,0.5c-0.3,0.2-0.6,0.4-0.9,0.7c-0.3-0.1-0.8-0.3-1.5-0.4c-0.4,0-1,0-1.9,0c-0.9,0-1.7,0-2.3-0.1
			c-0.6-0.1-1.2-0.2-1.7-0.4c-0.1,0-0.1-0.1-0.2-0.3c-0.1-0.2-0.1-0.3-0.1-0.6c0-0.3,0.1-0.5,0.4-0.8c0-0.2,0-0.3,0.1-0.3
			c0.1,0,0.2-0.1,0.4-0.1c0.2,0,0.4,0,0.5,0c0.3-0.1,0.5-0.2,0.6-0.4c0.2-0.2,0.4-0.6,0.4-1c0-0.2,0-0.5-0.1-0.7
			c-0.1-0.3-0.1-0.5-0.1-0.6c-0.1-0.5-0.2-0.8-0.2-0.9c0-0.8,0-2,0.1-3.6l0-3.5c0-0.1-0.1-0.4-0.1-0.7c0-0.4,0-0.8,0-1.2v-7.4v-14
			c-0.5,0-0.9,0-1.2-0.1c-0.3-0.1-0.4-0.3-0.4-0.7v-1.6c0-0.2,0.1-0.4,0.3-0.4c0.1,0,0.3,0.1,0.8,0.2c0.5,0.1,0.9,0.2,1.4,0.2
			c0.3,0,0.9-0.1,1.9-0.2c0.2,0,0.6-0.1,1.2-0.1c0.6-0.1,1.1-0.1,1.5-0.1c0.9,0,1.6,0.1,2,0.4c0.2,0.2,0.3,0.5,0.3,0.8
			c0,0.4-0.2,0.8-0.5,1.2c-0.4,0.3-0.8,0.5-1.4,0.5C56.2,15.4,56,16.2,56,17.1z"/>
		<path class="st1" d="M77.6,49.3c-0.4,0.5-0.8,0.8-1.2,1c-1.5,1-3.2,1.5-4.9,1.5c-1.7,0-3.3-0.5-4.8-1.4c-1.5-0.9-2.6-2-3.3-3.4
			c-1-1.9-1.8-3.8-2.5-5.8c-0.3-1.4-0.6-2.8-0.7-4.3c-0.1-1.5-0.1-3.3-0.1-5.5c0-0.3,0-0.8-0.1-1.5c-0.1-0.7-0.1-1.2-0.1-1.6
			c0-0.6,0.1-1.2,0.2-1.9c0-0.2,0.1-0.6,0.2-1.3c0.1-0.7,0.2-1.3,0.2-1.8c0.1-0.3,0.1-0.8,0.3-1.5c0.1-0.7,0.2-1.3,0.3-1.7
			c0.1-0.4,0.3-0.8,0.6-1c0.3-0.4,0.7-1.1,1.3-2c0.8-1.2,1.5-2.2,2.1-2.9c0.6-0.7,1.3-1.3,2.2-1.8c0.9-0.5,1.9-0.8,3.1-0.8
			c0.5,0,0.9,0,1.2,0.1c1.6,0,2.9,0.2,3.8,0.7c0.9,0.5,1.8,1.3,2.7,2.6c1.3,0.8,2.3,2.1,3.2,3.8c0.9,1.7,1.4,3.6,1.6,5.7
			c0.1,1.1,0.2,2.5,0.2,4.3v1.8c0,2.7-0.2,5-0.7,6.9c-0.8,3.8-2,7.2-3.6,10.1C78.4,48.4,78,48.8,77.6,49.3z M76.3,44
			c0.4-1.4,0.8-2.5,1-3.4c0.3-1.1,0.6-2.2,0.7-3.3c0.1-1.1,0.1-2.5,0.1-4.1c0-0.6,0.1-1.3,0.2-2.1c0-0.2,0-0.4,0.1-0.9
			c0-0.4,0.1-0.8,0.1-1.2c0-0.4,0-0.8,0-1.3c0-0.5-0.1-0.9-0.1-1.1c-0.1-1.1-0.2-1.9-0.2-2.4c-0.3-0.5-0.5-1.3-0.8-2.4
			c-0.3-1.1-0.5-2-0.8-2.5l-0.4-1c-0.5-1-0.9-1.9-1.3-2.4c-0.4-0.6-0.9-1-1.4-1.3c-0.5,0-1.1,0-1.6-0.1c-0.6-0.1-1.2-0.1-1.7-0.1
			c-0.8,0.8-1.4,1.6-1.9,2.5c-0.5,0.9-0.9,1.9-1.4,3.2c-0.4,0.7-0.6,1.4-0.7,2.2c-0.1,0.7-0.1,1.6-0.1,2.7c-0.2,1.7-0.3,3.6-0.3,5.7
			c0,3.8,0.4,7.9,1.2,12.3c0.2,0.4,0.3,0.8,0.5,1.2c0.1,0.4,0.2,0.7,0.3,0.8c0.2,0.6,0.3,1,0.4,1.3c0.1,0.3,0.3,0.6,0.5,0.8
			c0.2,0,0.4,0,0.4,0.1c0.1,0.1,0.1,0.3,0.2,0.5c0.1,0.3,0.2,0.5,0.3,0.6c0.4,0.4,1.1,0.6,2.1,0.6c0.8,0,1.6-0.2,2.4-0.5
			c0.8-0.3,1.2-0.7,1.4-1.2C75.4,46.5,75.8,45.3,76.3,44z"/>
	</g>
</g>
</svg>
