<?xml version="1.0" encoding="utf-8"?>
<!-- Generator: Adobe Illustrator 26.0.2, SVG Export Plug-In . SVG Version: 6.00 Build 0)  -->
<svg version="1.1" id="Ebene_1" xmlns="http://www.w3.org/2000/svg" xmlns:xlink="http://www.w3.org/1999/xlink" x="0px" y="0px"
	 viewBox="0 0 446.8 723.4" style="enable-background:new 0 0 446.8 723.4;" xml:space="preserve">
<style type="text/css">
	.st0{fill:#B7B2A6;}
</style>
<path class="st0" d="M112.1,21.9c-0.7-1.2-1.5-2.4-2.3-3.8c0.8-0.4,1.6-0.8,2.4-1.2c-0.4-0.7-0.7-1.3-0.8-1.6
	c1.1-0.4,2.1-0.8,3.1-1.1c0.6-0.2,1.2-0.5,1.9-0.6c0.5,0,1.1,0.3,1.6,0.5c-0.2,0.5-0.4,1.1-0.6,1.6c-0.3,0.6-0.7,1.3-0.7,1.9
	c0.1,0.4,1,0.6,1.5,1c0.3-0.6,0.4-1.3,0.8-1.7c0.5-0.6,1.4-1.4,1.9-1.3c1.4,0.2,2.8,0.9,4.5,1.5c0.7-0.4,1.8-1.1,2.9-1.8
	c0.2-0.2,0.4-0.4,0.5-0.6c0.4,0.6,0.7,1.3,1.1,1.9c0.8,1,1.5,1.8,3.2,1.2c2-0.6,3,0.6,2.8,2.7c-0.1,0.9,0,1.8,0,2.8
	c2.3-0.3,3.9,0.3,5.1,2.6c1.2,2.4,2.8,4.7,4.7,6.5c1.3,1.3,3.5,1.7,5.1,2.3c1.5-2.2,2.8-4,4-5.9c0.1,0,0.2,0.1,0.3,0.1
	c-0.2,1-0.4,1.9-0.6,2.9c2.6-1.1,4.9-2.2,7.3-3.1c0.6-0.2,1.7,0.3,2.2,0.8c0.7,0.7,1.1,1.7,1.1,2.7c0.3,1.2,0.3,2.5,1,3.5
	c1.7,2.5,1.4,5.1-0.7,6.8c0,2.6,0,4.8,0,7.1c3.2-0.6,1.3-2.2,1.1-3.5c0.8,0.2,1.6,0.3,2.5,0.5c0.3,0.8,0.6,1.7,0.9,2.7
	c4.1-2.6,6.8-1.8,7,2.2c0.8-0.1,1.5-0.3,2.3-0.4c-0.1,0.1-0.2,0.3-0.2,0.4c1.6,0.8,3.2,1.7,4.8,2.5c0-0.3,0-0.6,0-0.9
	c2-0.5,3.9-0.9,5.9-1.4c-0.5,3.1,3.3,5.9,6.4,4.8c0.2,0.4,0.4,0.8,0.7,1.2c-0.3-1.9,1.2-2.7,2.7-3.7c-0.4,0.9-1,1.8-1.3,2.7
	c-0.3,0.9-0.2,1.9-0.1,3.2c3.5-3.8,4.1,0.8,6.1,1.6c-1.5,2.2-2.9,4.4-4.4,6.5c0.1,0.3,0.3,0.5,0.4,0.8c1.1,0.1,2.2,0.2,3.5,0.3
	c0.3,1.8,2.4,3.3,4.6,3c0.1-1,0.2-2,0.3-3.8c1.3,2.1,2.4,2.4,3.6,0.6c0.4,2,2.6,3.1,0.8,5.3c-0.3,0.4,1.8,2.9,3,4.8
	c0.1-0.2-0.2,0.3-0.5,0.8c1.8,0.9,2.7,2.2,2.6,4.3c-0.1,1-0.1,2.9,2,1.6c0.2-0.1,0.5,0,0.7,0.2c2.7,1.8,3.8,1.7,6.4-0.1
	c-0.3-1.1-0.6-2.1-0.9-3.4c1.5,0.1,2.6,0.2,3.5,0.2c0.7,1.2,1.5,2.4,2.3,3.7c1.5-0.4,3-1.2,4.5-1.2c1.1,0,2.1,1.1,3.3,1.8
	c0.4-0.4,0.8-0.9,1.5-1.5c0.5,1.6,1.8,2.8,0.3,4.3c-0.3,0.3,0.3,1.4-0.2,1.3c-0.6,0.5-1.3,1-1.9,1.6c0.3,0.3,0.6,0.6,0.9,0.9
	c-0.5-0.3-1.1-0.5-1.6-0.8c-0.2,0.2-0.4,0.4-0.6,0.6c1,1.1,1.9,2.4,3.1,3.3c1.6,1.2,2.9,2.4,2.3,4.6c-0.1,0.3,0.7,1.3,1,1.2
	c1.8-0.2,3.4-0.5,5.1,1c0.4,0.4,2.9-1,3.9-2.1c1-1.1,1.2-2.9,3.5-2.5c1,0.2,1.5-2.3,3.2-1.1c0.2-0.4,0.5-0.8,0.5-1.2
	c0-0.3-0.4-0.7-0.7-0.9c-1.5-1-3.7-2.2-1.9-4c1.1-1.1,3.6-0.9,5.5-1.3c0.8-0.2,1.6-0.3,2.7-0.5c-0.2,0.7-0.7,1.3-0.6,1.9
	c0,0.6,0.5,1.3,0.8,1.9c-3,0.7-5.2,2.9-5,5.1c1.2,0.4,2.4,0.8,3.7,1.2c0.3-0.5,0.6-1.2,1-1.9c1.2,0.8,2.4,1.6,4.2,2.9
	c-0.4-1.9-0.6-3.1-0.8-4.2c2.1-0.5,3.6,0.1,4.6,2c0.1,0.3,0.9,0.5,1,0.4c0.5-0.7,0.9-1.4,1.1-1.8c2.2,0,4.4,0,6.7,0
	c-0.1,0.2-0.2,0.7-0.3,1.2c0.1,0.2,0.3,0.4,0.4,0.6c1-0.7,2.1-1.3,3.3-2.1c0.3,0.6,0.7,1.3,1.1,2c1.1-0.4,2-0.8,3.4-1.4
	c-0.5,1.4-0.8,2.4-1.2,3.6c0.5,0.3,1.2,0.7,2.2,1.3c-1.1,2.5-2.1,5-3.2,7.5c-0.6,1.4-1.9,1.4-3.1,1.9c-2.5,1-4.9,2.6-6.7,4.5
	c-0.8,0.9-0.7,3.5,0,4.7c1.1,1.7,1.2,3,0.6,4.8c-0.3,0.9-0.3,2.4,0.2,3.1c0.4,0.5,1.9,0.5,2.9,0.3c1.1-0.2,2.2-1.3,3.3-0.1
	c0.1,0.1,0.7,0.1,0.9-0.1c1.8-1.2,3.7-2.2,5.2-3.7c1.4-1.4,2.2-3.4,3.4-5.3c0.4,1.2,0.9,2.4,1.4,3.8c1.2-1.5,3.1-2.2,3.2-4.3
	c0-0.1,1.1-0.4,1.4-0.2c1,0.7,2.1,1.4,2.9,2.4c0.4,0.5,0,1.6,0.2,2.4c0.3,1,0.7,1.9,2.1,1c1.4-0.9,4.5,0.4,5.2,2.1
	c0.8,2.3,2.6,3.3,5.2,3c2.6-0.3,2.6-0.3,4.1,2.5c-1.2-0.1-2.1-0.3-3.8-0.5c0.8,1,1.3,1.5,1.7,2.1c-0.3,1-0.5,2-0.8,3
	c0.2,0.1,0.4,0.2,0.5,0.3c0.3-0.3,0.7-0.5,1.1-0.9c0.9,1.4,2,2.8,2.8,4.4c0.3,0.7,0.5,2.1,0,2.5c-0.7,0.6-2,0.7-3.4,1.1
	c0,0.6,0.4,1.8-0.1,2.5c-0.5,0.7-1.8,0.9-2.8,1.4c0.4,1.6,0.3,2.7-1.9,3.1c-1.5,0.3-1.5,2.3-0.1,3.1c0.8,0.5,1.5,1.2,2.4,1.7
	c0.5,0.3,1.2,0.6,1.7,0.5c1.6-0.2,2.2,0.5,1.7,2.1c-0.5,1.7-1.2,3.2-3.6,3c0.3,1.8,0.5,3.3,2.8,3.2c0.5,0,1.5,1.4,1.4,1.7
	c-0.4,0.9-1.2,1.8-2.1,2.2c-0.7,0.4-1.7,0.1-2.2,0.1c-1.2,1-2.1,1.9-3.1,2.6c-0.9,0.6-1.9,1.1-3.4,1.9c-1.1-0.5-2.9-1.4-4.8-2.3
	c-0.2,2.5-3.1,2.8-5.5,3.9c-2-2.8-3-0.6-4.3,1.1c1.3,1.1,2.6,2.3,3.9,3.4c0.3,0.3,0.9,0.5,1,0.9c0.4,1.9,1.7,2.2,3.3,2.1
	c0.6-0.1,1.2,0.3,1.3,0.3c0.8,2.1,1.4,3.8,2.1,5.4c0.4,0,0.7,0,1.1,0c0.5-1.5,1-3,1.5-4.5c0.8-0.4,1.8-1,2.4-1.3
	c0.2-1.8,0.3-3.2,0.5-4.3c2.2-0.6,4.2-1.2,6.1-1.8c0.9,1.8,2.6,3.3,0.4,5.3c-1.5-0.6-3.1-1.3-5-2.1c-0.1,1.8-0.2,3.2-0.3,4.9
	c1.6,0.6,3.3,1.1,4.9,1.8c2.9,1.2,3.7,4.1,5.3,6.4c0.5,0.7,1.2,1.4,2,2.4c-0.1,0.2-0.5,0.8-0.6,0.9c0.4,1.7,0.7,3.1,1,4.2
	c-1.5,1.3-3,2.4-4,3.8c-0.4,0.6,0.3,2,0.5,3.1c0.9-0.5,1.6-0.9,2.4-1.2c0.7,1.4,1.2,2.7,1.9,3.8c0.3,0.5,0.9,1.2,1.5,1.3
	c0.8,0.2,1.7-0.1,2.6-0.2c-0.2-1.1-0.4-2.3-0.6-4.1c1.7-0.4,3.6-1,5.6-1.5c4.4-0.9,5.8-3.4,4.2-7.5c-0.4-1.1-0.2-2.4-0.7-3.5
	c-0.6-1.3-1.4-2.6-2.5-3.4c-1.7-1.3-1.3-2.1,0.3-2.8c1.2-0.5,1.6-1.1,1.7-2.5c0-0.9,1.4-2,2.4-2.6c1.6-0.9,2.7-1.8,2.2-3.9
	c-0.1-0.4,0.4-0.9,0.6-1.4c0.4-0.9,0.9-1.8,1.3-2.7c-0.2-0.1-0.4-0.3-0.6-0.4c1-0.6,2.1-1.3,3.1-1.9c-0.2-0.1-0.4-0.2-0.6-0.3
	c0.3-1.3,0.5-2.7,1-3.9c0.2-0.4,1.5-0.1,2.2-0.3c0.5-0.1,1.4-0.5,1.4-0.9c0.3-4.3,1.1-4.8,5.2-3.3c0.1,0.1,0.3,0,0.5,0
	c1.7-1.7,3.5-1.3,4.3,1.3c0.6,2,1.6,1.8,3.4,1.2c-0.6-1.1-1.1-2-2-3.7c1.9,0.4,3.2,0.9,4.5,1c1.4,0.1,2.8-0.2,4.9-0.4
	c-2.7-1.3-4.6-2.3-6.9-3.5c1.3-1.1,2.1-1.8,2.9-2.5c-1.7-1.1-3.3-2.1-4.8-3.1c0.1-0.3,0.2-0.6,0.3-0.9c2.1-0.6,4,0,6.1,0.9
	c2.6,1.2,4.8,3.6,8.4,2c0.8-0.4,3.1,1.3,3.9,2.5c0.7,1,0.1,2.8,0.1,4.2c-0.3,0-0.6,0-0.9,0.1c-0.2-0.5-0.3-1.1-0.5-1.6
	c-0.2-0.1-0.4-0.1-0.7-0.2c-0.5,1.1-1,2.3-1.4,3.2c0.7,0.7,1.2,1.4,1.8,2c0.4,0.4,0.8,0.8,1.2,1.2c0.3-0.5,0.8-1,1-1.5
	c0.3-0.7,0.3-1.5,0.5-2.5c1.4,2.4,2.6,4.4,3.9,6.7c1.4-0.5,2.8-1.1,4.5-1.7c-0.8-1.2-1.3-2-1.6-2.5c0.9-1.1,1.6-2.2,2.4-3
	c0.4-0.4,1.4-0.6,1.9-0.4c3.6,1.4,6.8,0,9.7-1.8c1.2-0.7,1.9-0.6,2.7,0.4c0.2,0.3,0.6,0.6,0.9,0.9c1.6,1.5,2.8,3.7,5.9,1.7
	c-0.5,3.6,1.8,6.6-0.7,9.6c-1.1,1.4-0.3,2.6,1,3.5c0.9,0.6,2,1.1,2.5,2c1,1.6-0.2,3.9-1.1,4.2c-2.8,1-2.3,3.5-3.3,5.2
	c1.7,0.9,3.6,1.6,5,2.8c1.3,1.2,2.2,2.9,3.6,5c-1,0.1-2.1,0.4-2.7,0.1c-1.6-0.9-6.5-0.9-8.3,0.4c1.6,1.1,4.5,0.4,4.2,3.9
	c1.1-1,1.8-1.6,2.3-2.1c0.8,0.8,1.6,1.5,2.4,2.2c0.4,0.4,1,0.8,1.1,1.3c0.4,1.8,0.5,3.6,1.1,5.4c0.2,0.7,1.3,1.3,2.1,1.6
	c1.8,0.6,2.4,1.5,1.9,3.5c-0.3,1,0.4,2.3,0.7,3.5c0.6,1.7,1.3,3.4,2,5.5c0.6-0.8,1.1-1.4,1.5-2c0.7,0.5,1.5,0.9,2.3,1.4
	c-0.8,0.3-1.5,0.5-2.3,0.7c0.5,0.7,1,1.3,1.5,2c-1.8,0.1-3.4,0.2-5.4,0.4c1.1,2.2,2,4,4,3.8c1.7-0.2,4.7,0.6,4.1-3.4
	c0.3,0.2,0.5,0.3,0.8,0.5c0,1.3,0,2.5,0,3.2c3.6,0.8,6.7,1.4,10.2,2.2c-1,1.1-2,1.8-1.9,2.1c0.3,1,0.9,2.2,1.7,2.8
	c2.1,1.3,2.9,2.5,0.7,4.4c0.5,0.7,0.9,1.4,1.4,2.1c-1.9,0.5-3.5,1-5.1,1.5c0,0.3-0.1,0.7-0.1,1c1.4,0.5,2.9,1,4.8,1.6
	c0.2,0.5,1.3,1.8-1,2.2c-0.2,0-0.5,0.2-0.5,0.4c0.1,2.8-2.3,2.2-4.1,3.2c-0.1-1.5-0.1-2.5-0.2-3.8c-2.9-0.6-2.8,2.7-4.6,3.3
	c-2.6,0.9-1.3,3.2-1.9,4.9c-3.1,0.5-3.7,0.1-4-2.8c-0.2-2.2-0.6-3.8-3.3-3.3c-2.9-3.2-5,1.9-7.9,0c0.9,2.7,1.5,2.7,3.7,1
	c0.9,1.4,1.8,2.7,2.8,4.3c-0.6,0.4-1.3,0.9-2,1.4c0.2,0.1,0.3,0.2,0.5,0.2c-0.5,1-1,2-1.4,3.1c-0.3,0.8-0.4,1.8-0.3,2.7
	c0,0.6,0.5,1.2,0.8,1.9c-0.1,0,0,0,0.1,0c0.9,0,2.7-0.1,2.7,0.1c0.3,1.7-0.9,1.7-2.2,2c-1.4,0.3-2.6,1.3-3.8,1.9
	c-0.3-0.2-0.6-0.3-0.9-0.5c0.3-1.6,0.5-3.1,0.8-4.8c-0.1,0-0.6,0-1.2,0.1c1-2.7-1.7-2.4-2.9-3.3c-0.6-0.4-1.9,0.1-3.4,0.3
	c-0.3-0.4-0.9-1.3-1.6-2.3c-0.2,0.2-0.5,0.4-0.5,0.5c0,3.2-0.1,6.4,0.3,9.5c0.1,0.9,1.6,1.6,2.4,2.3c0.4,0.4,0.9,0.8,1.3,1.2
	c-0.5,0.4-0.9,1-1.4,1.1c-2.8,0.8-4.5-0.1-5.5-2.7c-0.5-1.1-1.1-1.9-2.4-0.8c-0.4,0.4-0.9,0.7-1,0.8c-2.7-0.6-5.1-1.1-7.9-1.8
	c1.7,4.6,1.7,4.6,5.1,3.2c2,0.7,3.4,1.1,4.7,1.7c0.6,0.3,1,0.9,1.8,1.7c-0.8,0.2-1.2,0.4-1.5,0.3c-3.1-0.6-3-0.6-2.9,2.4
	c0,1.1,0.8,2.5-0.8,3.1c0.4,0.8,0.5,2.2,1.1,2.4c2.6,0.8,5.2,1.3,8.2,2c1,4.1,7.2,3.4,9.1,7.8c-2.9-3-5.9-4.5-9.7-0.1
	c0.4-3.3-0.6-5.1-2.5-6.2c-1.5-0.9-3.1-1.6-4.7-0.2c-0.1,0.1-0.3,0.3-0.4,0.3c-2.7-0.1-4.4,2-6.9,3.3c0.8,1.9,1.6,3.9,2.6,6.1
	c-0.9,0.3-1.9,0.7-2.9,1c-0.4-2.2-0.7-4.3-1.3-6.4c-0.2-0.7-1.2-1.2-1.8-1.7c-0.5,0.6-1,1.1-1.4,1.7c-2.2,3.6,0.4,5.6,2.8,7.7
	c-0.6,0.4-1,0.7-1.7,1.3c0.8,0.3,1.5,0.5,2.2,0.8c-0.1,0.8-0.2,1.5-0.5,3c1-0.9,1.5-1.4,2.1-1.8c0.4,0.9,0.7,2,1.5,2.6
	c0.7,0.5,1.8,0.2,3,0.3c0.1,0.4,0.4,1.2,0.7,2.3c-1.4,0-2.7,0-4.1,0c-0.1,0.1-0.2,0.3-0.3,0.4c0.9,0.4,1.8,0.7,2.6,1
	c-0.6,0.6-1.3,1.5-1.9,2.2c-1.5-1.7-2.9-3.6-4.6-5c-1.1-0.9-2.7-1-4.1-1.6c-0.4-0.1-0.6-0.4-0.9-0.6c0.6-0.9,1.3-1.8,1.7-2.7
	c0.1-0.2-0.8-0.9-1.3-1.2c-1.2-0.7-2.2,0-2.1,1.1c0.1,2.3-2,4.6,0,6.9c0.3,0.3-0.7,1.6-1.2,2.7c-1.7-0.9-3.1-1.7-4.6-2.5
	c-0.4,1.6,0.8,1.8,2.1,2.3c1.1,0.4,1.8,1.6,2.9,2c1.2,0.4,2.6,0.1,4.2,0.1c-0.6,1.2-1.1,2.2-1.5,3.2c-0.6,1.5-1.4,2.4-3.4,1.9
	c-1.4-0.4-2.4,0.2-2.2,2c0,0.4-0.2,1-0.6,1.3c-0.1,0.1-0.8-0.2-1.2-0.4c-0.8-0.4-1.5-0.9-2.2-1.4c-0.6-0.5-1.1-1.1-1.9-2
	c-2-0.2-3.5,1.9-3.5,4.5c0,1.4-1.3,2.9-2.2,4.1c-0.5,0.7-1.4,1-2.1,2.1c1.1,0.1,2.3,0.1,3.4,0.2c0.2,3.4-3.3,6-6.5,5
	c-0.6-0.2-1.3-0.2-1.9,0.1c-2.5,1.2-5.5,1.3-6.4,5c-0.4,1.7-2.2,3.3-3.6,4.6c-7.1,6.3-15.5,9-24.9,9.2c-6,0.1-12,0.5-17.9,1.2
	c-1.9,0.2-3.9,1.4-5.4,2.6c-9.5,8.1-16.4,18.1-21.9,29.1c-1.1,2.1-2.3,4.2-3.2,6.4c-0.4,0.9-0.3,2-0.5,3c-0.2,0.9-0.2,2-0.8,2.5
	c-2.9,2.7-4.6,6.1-5.9,9.8c-5,14.2-9.6,28.5-16.5,41.9c-2.1,4-4.6,7.7-7,11.6c-3,4.7-6,9.4-9.1,14.1c-3.1,4.7-6.3,9.4-9.2,14.2
	c-1,1.6-1.4,3.6-2.1,5.4c-0.4,1-0.6,2.1-1.2,2.9c-2,2.7-3.9,5.6-6.3,7.8c-7.4,6.7-10.9,15-11.6,24.7c-0.4,5.5-0.5,11.1-1.5,16.4
	c-1.2,6.2,0.2,12.1,1.4,18c2.8,13.5,3,27,2.1,40.7c-1,15.5-2.2,31-2.2,46.5c0,16.5,1.2,33,2,49.5c0.3,7.6,0.8,15.3,1.3,22.9
	c-6.1,0-12.2,0-18.2,0c-0.3-26.4-1-52.9-0.9-79.3c0.1-11.7,1.8-23.4,2.5-35.1c0.5-7.7,0.7-15.4,0.6-23.1c-0.2-9.7-0.5-19.4-1.3-29
	c-0.4-5.4-2.1-10.6-2.9-16c-1.4-8.5-2.7-17-3.9-25.6c-1-7.3-1.9-14.7-2.6-22c-0.3-3.6,0.4-7.2,0.1-10.8c-0.5-6.3-1.3-12.6-2.1-18.8
	c-0.1-1-0.3-2-0.7-2.8c-0.7-1.4-0.6-2.5,0.3-3.8c0.7-1,1.1-2.5,1-3.6c-0.5-4.2-0.8-8.6-2.2-12.6c-3.2-9-3.9-18.2-3.2-27.5
	c0.6-8.6-0.5-17-1.8-25.4c-0.5-3.4-1.6-6.8-2.3-10.2c-1.9-9.3-7.9-15.9-13.6-22.7c-5.8-7-13.2-12-21.3-16.1
	c-18.6-9.5-38.2-16.2-58.4-21.3c-3.2-0.8-6.3-1.8-9.5-2.5c-1.1-0.3-2.5,0.2-3.5-0.3c-2.7-1.2-5.5-2.5-8-4.1
	c-2.9-1.9-5.5-4.1-8.3-6.1c-0.6-0.5-1.4-0.7-2.5-1.2c-0.2,2-0.4,3.7-0.6,5.5c-0.6-0.2-1.2-0.5-1.9-0.8c-0.2,0.6-0.4,1.1-0.6,1.5
	c-1,0-1.9,0-2.7,0c-0.8-1-1.6-2-2.7-3.5c1.3-0.8,2.6-1.5,3.9-2.3c0.2-1.3,0.6-2.8,0.8-4.3c0.1-0.4-0.1-1-0.4-1.3
	c-3.3-3-6.6-6.2-10.1-8.9c-1.2-0.9-3.2-0.9-4.8-1.3c-0.5,1-0.8,1.7-1.2,2.5c-0.3,0-0.5,0-0.8,0c-0.2-1.1-1-2.7-0.6-3.1
	c1.3-1.2,0.4-2.1-0.1-3c-1.1-2.1-2.3-4.1-3.7-6c-0.7-1-2.3-1.5-2.8-2.5c-1.1-2.3-3.2-3-5.3-3.4c-1.4-0.3-3,0.3-4.4,0.2
	c-1.6-0.1-3.3-0.4-4.9-0.8c-0.3-0.1-0.6-1.1-0.5-1.6c0.1-0.8,0.5-1.5,0.9-2.6c-1-0.3-1.8-0.5-2-0.6c-1.4,1-2.3,1.7-3.3,2.4
	c-0.1-0.1-0.1-0.3-0.2-0.4c-0.6,1.1-1.3,2.1-2.2,3.7c-0.6-1.4-0.9-2.1-1.3-3c0.8-0.6,1.6-1.2,2.4-1.7c-0.3-0.1-0.6-0.2-1-0.4
	c0.2-1.5,0.4-3,0.5-4.2c1.5,0,2.5,0,3.5,0c-0.6,1.7,0,2.9,2.1,2.7c0.3-1.1,0.4-2.3,1-3.2c0.2-0.4,1.4-0.2,2.1-0.3
	c0.1,0.5,0.1,0.7,0.1,0.8c-0.4,0.9-0.8,1.8-1.2,2.8c1.2,0.2,2.5,0.7,3.7,0.7c1.5,0,3.1-0.5,4.6-0.7c0-0.3,0.1-0.6,0.1-0.9
	c-2.1-1.3-4.1-2.8-6.4-4c-1.8-0.9-3.1-1.6-2.7-4.1c0.3-2-0.2-4.2-0.5-6.3c-0.1-0.6-0.8-1-1.4-1.8c1-1.1,2.2-2.4,3.7-4
	c0.8,1.9,1.3,3.3-0.3,4.6c-0.3,0.2-0.4,0.9-0.4,1.3c-0.1,1.3,0,2.6-0.1,3.9c-0.2,4,0.3,4.7,4.3,5.9c1.3,0.4,2.6,0.9,3.9,1.4
	c0,0.2-0.1,0.4-0.1,0.6c0.7-0.4,1.4-0.7,2.1-1c2.1,1.2,4.2,2.5,6.4,3.8c0.3-1.2,0.5-2.2,0.7-3.2c0.1,0,0.3,0,0.4-0.1
	c0.3,1.3,0.8,2.7,1,4c0.3,2.1,1.7,3.2,3.4,3.9c2.1,0.9,5-0.1,6.2-2.1c0.4-0.6,0.5-1.8,0.2-2.4c-0.7-1.5-0.3-2.6,1-3.3
	c1.9-1,3.8-1.8,5.8-2.6c0.4-0.2,1-0.1,1.4,0.2c4.3,2.4,6.3,1.5,6.8-3.6c-1.4,2.2-2.8,1.7-4.5,0.5c-0.8-0.6-2.2-0.6-3.9-1
	c0.4-1.1,0.8-2.3,1.2-3.6c0.3-1,0.5-2,0.5-3c0-0.9-0.1-1.7-0.2-2.6c-0.2-0.7-0.5-1.5-0.8-2.1c-0.6-1.2-1.3-2.4-1.8-3.2
	c2-0.1,3.8-0.5,5.3-0.1c2,0.5,4,1.6,5.8,2.7c0.4,0.2,0,1.7-0.1,3.3c0.7-0.9,1.5-1.4,1.6-2c0.2-1.2,0.4-2.6,0.1-3.8
	c-0.9-3.4-1-3.4,2.5-4.7c-0.1,0.5-0.2,1-0.2,1.5c0.2,0.2,0.4,0.3,0.6,0.5c0.6-1.1,1.2-2.2,1.7-3.4c0.3,0.3,0.6,0.5,0.9,0.8
	c0.7,3.4-1.6,5.1-4.1,6.7c0.9,2,1.6,3.6-0.8,5.3c-2.8,1.9-2.5,5.9-0.1,7.7c-1.5,2.2-3,4.5-4.7,7.1c3.3,1,6.7,0.8,7.5,4.4
	c-0.9,0.3-1.8,0.7-2.7,1c4.8,1,5,0.8,4.8-3.5c-0.1-1.5-0.2-2.9-0.4-4.6c-0.8,0.2-1.4,0.4-2.1,0.6c-0.1-0.7-0.2-1.4-0.4-2.6
	c1.4,0.6,2.3,1.1,3.4,1.4c1,0.2,2,0,2.6,0c-0.8,1.1-2.3,2.4-2.7,4c-0.3,1.6,0.2,3.6,0.8,5.2c0.8,1.8,2.4,3.3,3.1,5.1
	c0.7,1.7,0.6,3.8,0.8,5.7c0.1,1-0.2,2.2,0.2,2.8c0.4,0.5,1.7,0.3,2.6,0.2c1-0.1,1.9-0.6,2.9-0.9c2.3-0.5,3.7,0.8,3.3,3.1
	c-0.4,2.1-1.2,4.2-1.7,6.3c-0.1,0.5,0,1.3,0.4,1.8c1.3,1.6,0.9,3.2,0,4.9c-0.9-0.3-1.7-0.6-2.9-1c0.8-0.7,1.5-1.3,2.2-1.9
	c-0.1-0.7-0.2-1.5-0.4-2.3c-0.1-0.4-0.7-1.1-0.8-1.1c-1.8,0.5-4.1-0.8-5.4,1.6c-0.6,1.1-1.8,2-2.4,3.1c-0.4,0.9-0.3,2.1-0.4,3.1
	c0.3,0.1,0.6,0.1,0.9,0.2c0.7-0.8,1.4-1.5,2-2.3c1.8,0.1,2.8,1.4,4.1,2.3c2.4,1.8,5.2,3.3,8.7,2.6c-0.1,0.9-0.1,1.4-0.3,1.8
	c-1,1.5-1.4,2.9,0.7,4c0.3,0.1,0,1.8-0.4,2.5c-0.3,0.5-1.3,0.7-2,1c-0.7-1.1-1.4-2.2-2-3.2c-1.6,0.1-1.7,2.9-3.7,1.9
	c0.3,0.8,0.4,2.1,0.9,2.3c2.9,1.1,5.9,2,8.9,2.8c2,0.6,4.1,0.8,6.2,1.4c3.6,1,7.2,2,11.5,3.2c-0.1-2.2-0.2-3.9-0.3-5.6
	c-0.1-1.2-0.2-2.5-0.3-3.7c0-0.2,0-0.6-0.1-0.7c-2.1-2.2-4.2-4.4-6.3-6.6c-0.4-0.4-0.9-0.9-1-1.5c-0.4-1.4-0.7-2.8-1.2-4.4
	c2.3-0.9,2.1-2.7,1.3-5c-0.5-1.2-0.3-2.7-0.4-4.5c2.6-0.2,5.5-0.5,8.6-0.7c1.9,4.7,6.2,1.6,9.1,2.2c0.5,1.6,0.8,2.8,1.4,4.7
	c-1.8-0.8-3-1.3-4.2-1.9c-0.9,0.4-1.8,0.9-2.8,1.4c1,2.5,2.9,3.9,5.3,4.9c2.8,1.1,4.5,0.1,6-2.2c0.6,1.6,1.1,3,1.7,4.8
	c-0.5,1.3-1.3,3.3-2.1,5.4c-1-0.5-2-1-3.3-1.6c0,1.3,0,2.5,0,3.4c-2.1,0.7-3.9,1.2-5.6,2c-1.1,0.6-2.9,1.9-2.8,2.5
	c0.8,2.9-2.2,4.6-1.9,7.4c16.3,6,33.4,10.3,48.3,20c0.2-0.2,0.3-0.3,0.5-0.5c-0.2-0.7-0.1-1.9-0.5-2.1c-2.4-1.5-2.2-3.8-1.8-6.3
	c-0.8,0.1-1.4,0.2-2.6,0.3c1-1.4,1.8-2.5,2.5-3.6c0-0.2-0.1-0.4-0.1-0.5c-1,0.4-2,0.8-3,1.3c-0.8,0.4-1.6,0.8-3,1.4
	c1.3-3.1,2.3-5.4,3.2-7.4c1.3,1,2.7,2,4,3c0.5-1.2,0.9-2.4,1.4-3.6c-0.3-0.1-0.6-0.2-0.8-0.3c-0.5,0.7-1,1.3-1.6,2.1
	c-1.3-2.8-0.7-4.1,2-4.1c2.2,0,4.4,0.6,6.7,0.9c0.5,0.1,1.1,0.1,1.6,0.1c1.4-0.2,2.8-0.9,4.1-0.6c0.8,0.2,1.8,1.7,1.8,2.7
	c0,0.7-1.4,1.7-2.4,1.9c-0.6,0.1-1.5-0.9-2.2-1.3c-0.6,0.9-1.5,2.2-2.3,3.3c0.4,1.7,0.8,3.6,1.3,6.1c-1.7,0.4-3.3,0.9-5.2,1.4
	c-0.1-0.4-0.3-0.9-0.6-2.1c-0.9,1.2-2.2,2.1-2.1,2.9c0.4,3.2,0.6,6.3,3.9,8.5c7.7,5.2,13.8,12.1,18.8,19.9c1,1.5,2,3,3.1,4.5
	c0.1,0.1,0.3,0.1,0.8,0.3c-1-4.2-1.8-8.3-2.8-12.2c-2.7-10.4-5.6-20.8-8.4-31.1c-0.6-2.2-1.2-4.5-2.4-6.4c-0.8-1.3-2.5-2.1-4-3.2
	c3-1,1.6-3.4,0.9-5.5c-0.4-1.3-0.9-2.5-1.1-3.8c-1-6.4-5.6-10.2-10.4-13.4c-1.6-1.1-3.3-1.8-4.2-3.9c-1.2,0.6-2.4,1.3-3.5,1.8
	c1.2,1,2.3,1.9,3.7,3.1c-1.5,0.7-2.4,1.2-3.3,1.7c-0.5-1.1-1-2.1-1.5-3.2c-0.5-1.1-1-2.1-1.9-3c1.5-5.3-3.2-5.8-5.6-7.8
	c-1.2,0.5-2.2,0.9-3.5,1.5c0.6,3.4-2.2,3.3-4.3,3.6c-0.3,1.1-0.5,2-0.7,2.8c-0.9-0.2-1.9-0.5-2.5-0.6c0.9-2.1,1.6-3.8,2.3-5.5
	c-0.2-0.2-0.4-0.3-0.5-0.5c-2.2,0.9-4.4-2.2-6.5,0.5c-1-0.5-0.3-3.4-2.7-1.6c-0.3-0.9-0.4-1.6-0.7-2.6c-1,0.8-1.9,1.4-3,2.3
	c-1.6-3.6,3.8-5.3,2.4-8c2-1.5,4-2.6,5.5-4.1c2.8-2.7,6.2-4.3,9.7-5.8c0.8-0.4,1.7-0.6,2.5-1.1c0.4-0.3,0.9-1.5,0.8-1.5
	c-1.4-1.2-2.8-2.4-4.4-3.1c-0.5-0.2-1.6,0.8-2.9,1.5c-0.3-0.4-1.1-1.1-1.4-1.9c-0.1-0.4,1.1-1,1.4-1.7c0.4-1,0.8-2.2,0.6-3.2
	c-0.5-2.5-2.9-3.3-4.9-4.3c-1.7-0.9-1.9-1.8-0.6-3.2c0.5-0.6,0.7-1.4,1.1-2.1c0.7-1.1,1.1-2.4,2.1-3.2c1.9-1.7,3.5-3.4,4.1-6
	c0.7-3,0.6-3.8-1.7-6.6c-0.8,1.4-0.2,3.4-2.7,4.1c-1.9,0.6-3.2,0.5-4.8-0.3c-0.4,0.8-0.7,1.6-1.4,3c-1-2-1.8-3.6-2.4-5.2
	c-0.7-1.8-1.3-3.7-1.9-5.5c-0.1-0.4-0.3-1-0.1-1.3c1.3-2,2.7-4,4.1-6c0.5-0.7,1-1.5,1.8-2.8c-2.4-0.5-4.4-1-6.5-1.2
	c-2-0.2-2.3-0.7-1.6-2.5c0.6-1.7,1.8-3.8,1.2-5.2c-0.9-2.5-2.5-5-4.5-6.8c-3.3-2.8-7.1-5-10.6-7.6c-1.4-1-2.5-2.5-3.8-3.7
	c-1.2-1.1-2.5-2-3.5-2.8c-0.1-0.7,0-1.6-0.4-2c-2.2-2.1-4.5-4.1-6.9-6.3c0,0-0.5,0.3-1.3,0.7c-0.1-0.6-0.2-1.1-0.2-1.2
	c-1.2-0.5-2.2-0.9-3.1-1.4c-0.9-0.5-1.7-1.3-2.9-2.1c-0.3-1.9-0.1-4,2.4-4.5c-1.2-2-2.2-4-3.5-5.7c-2.1-2.7-4.4-5.3-6.6-8
	c-0.9,1.9-2.7,2.7-3.9,1.3c-2-2.4-4.4-2.4-7.1-2.2c1.7-3.6,1.7-3.6,3.8-2.4c-0.4-1.4-0.8-2.7-1.1-4.1c-2.5-0.6-4.8,0.4-6.5,3.2
	c-0.2-1-0.5-1.5-0.4-2c0.4-1.7,0.2-3.2-1.7-3.8c-1.2-0.3-3.1,2-3.1,4.1c-1.5-1.1-2.9-2-4-3.1c-0.2-0.2,0.3-1.5,0.7-2.1
	c0.4-0.6,1.2-0.8,1.7-1.3c1.4-1.2,1.2-2.1-0.4-2.8c-2-0.8-4.1-1.4-5.8-2.6c-2.4-1.5-4.6-1.8-6.8-0.1c-1.7,1.3-3.3,1.1-5.7-0.3
	c2.1-0.1,3.6,0.1,5-0.3c1.5-0.5,2.9-1.5,4.6-2.3c-1.9-3.2-4-5.8-8.2-5.1c-0.1-0.9-0.4-1.6-0.2-2.2c0.2-1.3,0.5-2.6,1-3.7
	c0.6-1.3,1.5-2.5,2.3-3.6c0.3-0.5,0.8-1,1.3-1.2c1.7-0.5,1.5-1.4,0.5-2.3c-1-1-2.2-1.8-3.6-3c-0.2-1.3,1.1-1.5,2.6-2.3
	c3.2-1.9,6.1-1.2,9.1-0.1c2.4,0.9,2.4,1.7,1,3.8c-0.6,0.9-1,1.8-1.6,2.9c-1-0.4-1.9-0.7-2.1-0.8c-2.7,2.3-5.1,4.4-7.5,6.4
	c-1.2,1-3,1.5-1.9,3.6c0.4,0.7,1.2,1.5,1.9,1.6c2.7,0.2,4.4,1.7,5.5,4c1,2.3,2.8,3.4,5.2,3.4c1.9,0,3.9,2,5.7,0.1
	c1.6-1.7,3.4-1.8,5.5-1.9c2.8-0.2,3.2-1.4,1.7-4.1c-0.4,0.4-0.8,0.8-1.2,1.3c-0.7-1.2-1.4-2.3-2.2-3.5c-0.4,0.3-0.8,0.6-1.4,1.1
	c-0.4-0.5-0.7-1.1-1.1-1.5c-0.5-0.4-1.1-0.7-2.3-1.5c5.2,1,2.9-3.5,4.7-4.9c-0.4-0.5-0.9-1-1.3-1.6c-0.4-0.6-1-1.6-0.8-1.8
	c0.4-0.5,1.3-0.8,2-1c0.7-0.2,1.4-0.2,2.1-0.3c0.8-0.2,1.5-0.5,2.6-0.6c-1.9,2.9-0.2,3.9,1.8,5c0.6-0.6,1.1-1.2,1.5-1.7
	c1.4,0.3,2.6,0.6,3.8,0.9c0-0.1,0.1-0.3,0.1-0.4c1.9,1.8,4,3.3,5.5,5.4c0.9,1.4,0.9,3.4,1.2,5.2c-1.2,0.2-2.5,0.4-3.7,0.5
	c-0.6,0.1-1.3-0.1-1.9-0.1c-0.4-1.2-0.8-2.3-1.2-3.4c-1.2,0.6-2.2,1.1-3.6,1.7c-1.9,3.4,2.1,2.5,3.8,3.6c-0.5,1.1-0.9,2-1.6,3.4
	c-1.3-0.6-2.5-1.3-3.8-1.7c-0.6-0.2-1.3,0.2-2,0.3c0.3,1.1,0.4,3,1.1,3.3c2,0.8,2,2.3,2.5,3.8c1,3.2,3.4,4,6.3,2
	c-0.7-0.4-1.3-0.7-2.2-1.2c1.7-0.4,3.1-0.6,4.5-0.9c-0.2,0.2-0.3,0.3-0.5,0.5c0.8,0.8,1.5,1.7,2.4,2.5c1.2,1.1,2.4,2.2,3.9,3.6
	c-1.4,0.8-2.8,1.6-4.1,2.4c-0.7,0.5-1.7,0.9-2,1.6c-0.2,0.4,0.5,1.4,1,2c2.3,2.8,4.6,5.5,6.9,8.3c0.3,0.4,0.7,0.7,0.9,0.8
	c2.5,0,0.8-5.6,4.9-3.1c0.2-0.6,0.4-1.1,0.9-2.4c1.2,1.9,2.1,3.4,3.2,5.3c-0.5,1.2-1.6,2.9,0.4,4.8c0.9-2.4,2.5-2.9,4.9-2.5
	c1.3,0.2,3,1.1,4.3-0.4c0.2-0.2,1.4,0.2,1.6,0.6c0.5,1,0.9,2.1,1.1,3.2c0.1,0.5-0.3,1.3-0.1,1.7c1.1,1.8,0.3,2.7-1.2,3.5
	c-1.9,1-1.9-0.9-2.6-1.6c-0.1-0.1-0.3-0.2-0.5-0.4c-2.4,1.7-4.9,3.4-7.5,5.2c0.3,0.5,0.7,1.3,1.4,1.9c4.6,4.3,7.4,10.3,13,13.6
	c1,0.6,2,1.1,3,1.6c0.2-0.2,0.4-0.3,0.6-0.5c-0.4-0.7-0.9-1.5-1.3-2.2c-0.3,0-0.6,0-0.9,0c0.8-1,1.4-2.6,2.3-2.7
	c1.4-0.2,3,0.5,4.6,0.7c1.8,0.4,3.7,0.7,5.8,1.1c-0.2-0.8-0.5-1.8-0.8-2.7c-1.9-5.5-3.4-11.2-5.7-16.5c-2.3-5.3-2.9-10.8-3.8-16.3
	c-0.1-0.7-0.3-1.5-0.4-2.2c-0.3-1.8-0.7-3.5-3.1-2.7c-0.3-2.4-0.6-4.6-0.8-6.7c-0.9-0.3-2.1-0.4-2.8-1c-0.8-0.6-1-1.8-1.7-3.2
	c-2.3-0.5-5.4-1-8.3-2c-1.8-0.6-3.4-2-4.9-3c1.7-3.6,3.2-6.7,4.5-9.6c-1.5-2.2-2.8-4.3-4.4-6.6c-0.6,0.4-1.3,0.8-1.9,1.2
	c-0.7-3.1-3.9-5-7-4.3c-0.8,0.2-2.2-0.3-2.5-0.9c-1.8-3.6-5-3.8-8.4-3.6c-2.9,0.2-5.9,0.5-8.8,1c-1.3,0.2-2.4,1.1-3.5,1.7
	c0.8-1.7-0.6-1.8-1.9-2c-2.1-0.3-4.1-0.5-6.2-0.7c0-0.2,0-0.4,0.1-0.6c2.5,0.2,4.9,0.4,7.4,0.4c1,0,2-0.7,2.9-1.1
	c-0.5-0.8-0.9-1.9-1.6-2.4c-3.4-2.2-5.8-5-6.5-9.1c-0.1-0.5-0.8-1.3-1.2-1.3c-2.5,0.2-2.9-1.6-3.4-3.3c-0.1-0.3-0.3-0.6-0.6-1
	c-0.6,0.4-1.2,0.7-2,1.1c0.2-0.7,0.3-1.2,0.4-1.9c-0.6-0.2-1.3-0.4-2-0.6c0.1-0.4,0.1-0.7,0.2-0.8c0.8-0.3,1.6-0.7,2.5-0.8
	c3.4-0.4,4.5-2.3,2.9-5.3c-0.1-0.3,0-0.7,0-1.1c0.4,0,0.9-0.1,1.3,0.1c0.7,0.3,1.4,0.7,1.9,1.3c0.6,0.6,1.1,1.6,1.9,1.8
	c2.9,0.8,1.8-2.3,3.1-3.4c0.5,0.4,1.1,0.9,2.1,1.7c0.7-1.3,1.4-2.4,1.8-3.6c0.1-0.5-0.6-1.4-1.1-1.8c-1.6-1.5-1.7-2.5,0.4-3.7
	c0.7-0.4,0.9-1.4,1.5-2.4c0.5,0.5,1,0.9,2.1,1.9c-0.2-1.5,0-2.7-0.5-3.3c-1.1-1.4-2.5-2.5-2.6-4.5c0-0.3-0.6-0.9-0.7-0.9
	c-2.4,1.1-2.7-1.7-4.5-2.1c0.7-1.2,1.2-2.2,1.8-3.2c-0.6-0.5-1.2-1-2-1.7c-0.5,1-0.9,1.8-1.3,2.6c-0.1,0-0.2,0-0.4,0
	c0.2-1.2,0.3-2.3,0.5-3.7c-0.8-0.9-0.8-1-0.1-4.7c-0.7,0.1-1.3,0.2-1.9,0.3c-0.4,0.1-0.8,0.2-1.2,0.1c-1.7-0.3-4.2-5.3-3.6-7
	c-0.6-0.3-1.1-0.5-1.9-0.9c1.6-1.8,2.3-4.4,5.4-3.8c0.2,0,0.5-0.7,0.8-1.1c1.1-1.3,0.8-3.3,2.7-4.4c1.1-0.6,0.4-2.2-1.1-2.8
	c-3.2-1.2-3-1.2-2.5-4.5c0.2-1.5-0.4-3.2-0.8-4.8c-0.3-0.9-0.9-1.7-1.3-2.6c-0.9-2.1-0.3-3.5,2-4.1c0.8-0.2,1.6-0.3,2.4-0.4
	c1.9-0.1,3-0.9,2.8-2.9c-0.1-1.3,0.5-1.6,1.8-1.6c3.8,0.2,6.1-1.2,7.4-4.8c0.7-1.9,1.8-2.1,3.6-2.1c1.5,0,3.1-0.4,4.5-1.1
	c2.2-1.1,5.5-0.6,7.8,1.6c1.6-1.9,2.5-0.9,3.6,0.7c1.9,2.9,4.4,3.1,7.2,1.3c0.4-0.3,1.2,0,1.8,0.1c0.6,0.1,1.2,0.2,2.2,0.4
	c0.9,3.2,3.1,6.7,1.4,10.9c-0.7,1.7-0.2,2.1,2.1,3.1c0-0.7-0.1-1.3-0.1-1.8c1.8-0.7,3.2-0.4,4.3,1.4c0.5,0.8,1.7,1.1,2.7,1.6
	c-0.8,1.7-1.7,3.4-2.3,4.6c2.1,1.7,3.9,3,5.4,4.4c2.1,2,5.7,1.5,7-1.2c0.7-1.6,1.2-2.8,3.4-1.7c0.4,0.2,1.7-0.7,2.1-1.4
	C112.1,23.9,111.9,22.8,112.1,21.9c0.9,1.6,2.3,2.2,4.2,1.7c-0.1-0.9-0.2-1.8-0.4-2.8c-0.6,0.4-0.9,0.7-1.3,1
	c-0.4-0.8-0.7-1.5-1.3-2.9C112.7,20.2,112.4,21.1,112.1,21.9z M157.6,244c2.9,0.1,1.4-2,2-3.7c-1.7,0.1-3,0.3-4.6,0.4
	C156.2,242.1,156.9,243.1,157.6,244c-2.5,2-2.8,3.4-0.9,5.2C158.2,247.7,158.4,246.7,157.6,244z M398.5,231.4
	c-1.1,0.6-2.3,1.2-3.3,2c-0.5,0.4-0.7,1.3-0.6,2c0,0.5,0.7,1,1,1.5c0.4-0.5,0.7-1.1,1.1-1.6c0.3-0.3,0.7-0.4,1-0.7
	c0.8-1,2.3-1.6,1.5-3.3c0.3-0.8,0.5-1.5,0.8-2.3c-0.2-0.1-0.4-0.3-0.6-0.4c-1.5,1.1-3,2.2-4.5,3.3c0.1,0.1,0.2,0.3,0.3,0.4
	C396.4,232,397.5,231.7,398.5,231.4z M214.5,124.4c1.3,0.3,1.8-0.1,2-1.6c0.3-2.4-1.2-3.1-2.8-3.9c-1.7-0.9-2.5-0.1-2.9,1.6
	c-0.1,0.4-0.6,0.8-0.6,0.8c1.5,1.1,2.8,2.1,4.1,3.1c-1.2-0.3-3.2-1.3-3.5-0.9c-1.2,1.6,0.5,2.5,1.4,3.5c0.2,0.2,0.4,0.5,0.5,0.5
	c0.7-0.1,1.8-0.2,1.9-0.6C214.9,126.2,214.6,125.2,214.5,124.4z M350,334.9c-0.8,0.6-1.6,1.3-2.3,1.8c0.5,1,0.8,2,1.4,2.7
	c0.6,0.9,1.3,1.9,2.3,2.3c0.5,0.2,1.6-0.7,2.2-1.4c1.1-1.3,2.2-2.7,3-4.2c0.4-0.8,0.8-2.2,0.4-2.7c-0.6-0.7-1.9-0.9-3.3-1.4
	c0.3,1.5,0.5,2.3,0.6,3c-1.2,0.5-2.2,1-3.3,1.5C350.6,335.9,350.3,335.3,350,334.9c0.8-0.5,2.5-1,2.4-1.3c-0.2-1.4-0.9-2.7-1.4-4
	c-0.2,0.1-0.4,0.1-0.7,0.2C350.3,331.4,350.2,333.1,350,334.9z M246.1,374.3c-3.7,9.2-6.9,17.7-10.3,26c-0.6,1.5-1.7,2.8-2.5,4.2
	c-1,1.7-2.4,3.4-2.9,5.2c-2.4,10.8-4.6,21.7-6.7,32.5c-0.3,1.4-0.7,3.3,0,4.3c2.2,3.1,1.3,5.8-0.5,8.5c-0.2,0.3-0.2,0.6-0.3,0.9
	c-1.9,6.4-4.1,12.7-5.6,19.1c-1.5,6.6-2.4,13.4-3.5,20.1c-0.3,1.7-0.1,3.3,2.4,4.1c1.8-2.4,4-4.7,5.7-7.4
	c5.5-8.8,10.8-17.6,16.1-26.5c2-3.4,4.6-6.6,5.5-10.3c1.6-6.9,4.7-12.9,9.1-18.3c2.3-2.8,3.7-5.9,4.1-9.5c0.8-7,1.7-14,3-21
	c1.1-6.3,1.1-12.2-2.1-18.1c-2.2-4-2-8.6-0.8-13c0.2-0.9,0.2-1.8,0.3-2.7c-0.3-0.2-0.6-0.3-1-0.5c-0.8,1-1.7,1.8-2.2,2.9
	c-0.7,1.5-3.4,3-4.5,2.2C248.3,376.3,247.3,375.4,246.1,374.3z M185.6,336c-0.3,0-0.5,0-0.8-0.1c-0.3,1.3-0.7,2.6-1,3.9
	c-2.3,9.5-2.6,19,0.5,28.4c0.4,1.2,0.6,2.4,0.7,3.6c0.4,5.6,0.5,11.2,1.3,16.7c2.5,18.4,6.1,36.6,7,55.2c0.7,13.9,2.4,27.8,3.5,41.7
	c0.7,8.9,1.3,17.9,2,26.8c0.1,1.3,0.6,2.5,1,3.7c0.2,0,0.4-0.1,0.6-0.1c0.3-3,0.8-6,0.7-9.1c0-2.3-0.5-4.8-1.3-6.9
	c-1.2-3-1.3-5.8,0.3-8.5c1.1-1.9,3-3.4,3.6-5.4c1.4-4.4,2.6-9,3.2-13.6c2-15.1-1.6-30.4,1.3-45.6c1.2-6.1,0.2-12.6-0.4-18.9
	c-0.3-3.6-1.6-7.2-2.9-10.6c-2.5-6.6-5.5-13-8.1-19.6c-0.3-0.7,0.3-2.5,0.9-2.8c1.7-0.8,1.9-1.8,1.5-3.3c-1.4-5.1-3.2-10.1-4-15.2
	c-0.8-5.4-4.8-9.2-6.1-14.4C188.5,339.8,186.7,338,185.6,336z M217,342.8c0.1,0.1,0.3,0.1,0.4,0.2c-0.2,0.9-0.6,1.9-0.5,2.8
	c0.9,8.4,2.2,16.8,2.9,25.2c1,11.8,2.4,23.7,1.6,35.6c-0.3,4.7,0.9,9.5,1.4,14.3c0.2,0,0.4,0,0.6,0c1.9-9.8,4.2-19.6,5.5-29.5
	c2.2-16.3,4.8-32.5,9-48.3c1.7-6.6,4.6-13,6.8-19.5c0.3-1,0-2.2,0-3.3c-0.9,0.7-1.7,1.4-2.6,2.1c-0.1,0.1-0.3,0.1-0.5,0.1
	c-0.4-0.9-0.8-1.9-1.3-3.1c-1.5,0.9-2.7,1.7-4.3,2.7c-2.5-2.5-5.3-5.3-8-8c-0.2,0.2-0.4,0.4-0.6,0.6c0.7,1.2,1.4,2.4,2.1,3.7
	c-0.1,0.2-0.5,0.5-0.7,0.9c-0.7,1.3-1.3,2.6-2.9,0.6c-0.3-0.3-1.5,0.1-2.2,0.1c0.7,2.9-0.5,4.8-1.2,6.9c-1.2,3.6-3.9,1.4-6,1.7
	c0,1.4,0.5,2.9-0.1,3.5c-2,2.2-1.1,4.2-0.2,6.4c0.2,0.5,0.5,1,0.6,1.6C216.9,341,216.9,341.9,217,342.8z M211.8,282.3
	c-0.4,3.6-0.8,7.1-1.2,11.2c1-0.1,1.9-0.2,2.7-0.2c0.9,0.2,1.9,0.6,2.7,0.5c0.8-0.1,1.7-0.6,2.4-1.1c0.9-0.6,2-1.2,2.5-2.1
	c0.5-1.1,0.4-2.5,0.6-3.7c-0.1-0.1-0.2-0.2-0.3-0.4c-0.3,0.6-0.5,1.3-0.8,1.9c-0.2-0.2-0.4-0.3-0.7-0.5c0.3-1.3,0.6-2.6,0.8-3.6
	c1.5,0.3,2.8,0.9,3.7,0.6c1.5-0.5,2.6-5.8,1.8-7.3c-0.8-1.4-0.3-3.2,1.3-3.7c3.6-1.1,5-3.8,5.2-7.3c0-0.3,0.1-0.7,0.3-1
	c0.6-1.2,1.2-2.3,1.9-3.6c0.4,0.2,1.3,0.9,1.9,0.8c2-0.4,3.4,0.4,4.8,1.6c1.3,1.1,3.1,0.8,3.7-0.5c0.9-1.9,1.8-3.8,2.8-5.8
	c-1.8-1-2.5-2.3-0.7-4.3c0.6-0.7,1-2.3,0.6-3c-0.5-0.8-1.9-1.3-3-1.6c-0.8-0.2-1.7,0.1-2.6,0.1c-0.4-0.8-0.7-1.6-1.1-2.3
	c-1.3,0.2-2.3,0.4-2.6,0.5c-1.8-2.4-3.3-4.3-5-6.5c0.2-0.3,0.5-0.9,0.8-1.4c-1,0.2-1.7,0.7-2.2,1.3c-1.7,1.8-3.2,3.8-5,5.4
	c-1.7,1.5-2.2,3.2-1.8,5.4c0.1,0.8-0.6,2.4-0.8,2.4c-2.6-0.3-2.5,1.9-3.2,3.4c-0.7-0.7-1.3-1.2-1.8-1.7c-3.2,3.5-5.6,8.3-7.2,14.1
	c-1.3,4.6-0.6,5.8,3.6,6.7C215.2,280.7,214.2,282.4,211.8,282.3z M274.3,361.9c0.8,4.5,0.6,4.8-2.9,5.3c-0.2-0.6-0.3-1.2-0.5-1.9
	c-0.2,0-0.4-0.1-0.6-0.1c-0.6,1.7-0.9,3.4-1.7,5c-0.9,1.8-1.7,4-3.2,5c-3.2,2-4.8,3.7-4,7.3c0.5,2.6,1.9,5,2.8,7.5
	c0.6,1.6,1.4,3.2,1.3,4.8c-0.2,4.3-0.9,8.6-1.4,13c-0.4,3.5-0.8,7-1.3,10.5c0.2,0.1,0.5,0.1,0.7,0.2c0.6-1.5,1.3-3.1,1.8-4.6
	c1.2-3.1,2.1-6.4,3.5-9.4c1.9-4.1,4.6-8,4.1-12.9c-0.1-0.8,0.3-1.8,0.6-2.6c5-15.5,9.8-31.1,16.9-45.9c0.5-1,0.3-2.2,0.5-3.4
	c-0.3-0.1-0.5-0.1-0.8-0.2c-0.2,1.4-0.5,2.6-2.3,1.6c-0.7-0.4-1.6-0.6-2.4-0.8c-0.2,0.2-0.4,0.4-0.6,0.6c-0.6-3.5-1.3-6.9-2-10.9
	c-0.6,1.2-1.1,1.9-1.4,2.7c-1.7,5.5-3.5,10.9-5.1,16.5c-0.5,1.9-2.7,4.2,0.6,5.8c0.1,0.1,0.1,0.5,0,0.7c-0.1,1.3-0.1,2.5-0.3,3.8
	c-0.1,0.8-0.1,1.7-0.5,2.2C276,362,275,361.8,274.3,361.9z M254.9,348c0.6-0.8,1.2-2.1,1.7-2.1c2.8,0.2,3.5-2.3,5.1-3.6
	c3.9-3.3,4.6-7,2-11.3c-1.2-1.9-1.9-4.2-3.3-5.9c-1.5-1.8-3.3-1-3.8,1.5c-0.7-0.1-1.4-0.2-2.4-0.3c-0.1,0.9-0.3,1.7-0.3,2.5
	c0,0.5,0.4,1.1,0.8,1.3c0.4,0.1,1-0.3,1.5-0.4c0.7-0.2,1.6-0.8,1.9-0.6c0.6,0.4,1.2,1.3,1.3,2c0.5,2.5-1,3.7-2.8,5.2
	c-1.8,1.5-3.5,2.2-5.5,1.7c-1.8-0.5-3.3-3.5-3.4-5.5c-0.1-2.4,1.5-3.3,3.3-4.1c0.6-0.3,1.3-0.7,1.6-1.3c0.1-0.2-0.5-1.3-0.9-1.4
	c-1-0.2-2.5-0.3-2.9,0.2c-1.3,1.6-2.5,3.4-3.2,5.4c-1.7,4.5-3.2,9-4.4,13.6c-4.6,17.4-6.7,35.3-8.9,53.2c-0.1,0.5,0.1,1,0.1,1.9
	c0.5-0.7,0.7-1,0.8-1.2c3.5-8.8,7.2-17.5,10.4-26.3c1.1-3,1.2-6.3,1.9-9.9c0.6-0.6,2-1.6,2.5-2.9c0.6-1.6,4.9-2.7,1.3-4.7
	c1.6-2.5,3.2-4.9,4.7-7.3C254.1,347.3,254.5,347.6,254.9,348z M90.8,50.8c-0.3,2.7-3.1,5.3-0.4,8.4c0.3,0.3,0,1.4-0.3,2
	c-1.2,1.9-1.1,3.4,1,4.5c1.4,0.8,2.1,1.9,1.8,3.6c-0.4,2.1-0.1,4.2,1.3,6.1c0.5,0.6,0.3,1.6,0.6,2.3c1.1,2.9,2.3,5.8,3.5,8.7
	c0,0.1,0.1,0.2,0.2,0.2c2,0.7,1.8,2.6,2.2,4.1c0.5,1.8,1.1,3.7,3.6,4.3c0.2-1.5,0.5-2.8,0.6-4.1c0.4-6.3,2.7-11.8,6.9-16.4
	c1.6-1.8,2-3.4,0.4-5.4c-1.6-2-1.4-3.8,0.4-5.7c1.5-1.6,2.8-3.4,4.1-5.2c1-1.3,1.2-2.6-0.5-4.2c-1,1.3-1.8,2.5-2.6,3.7
	c-0.9-1-2-2.1-3.3-3.5c-0.2,2-0.3,3.5-0.5,4.9c-2.7-0.9-5-1.6-7.5-2.4c-0.7-2.6,0.6-4,3.9-3.9c0.6,0,1.3-0.5,1.9-0.8
	c-0.6-0.3-1.2-0.6-1.9-0.8c-0.3-0.1-0.6,0-1.1,0c0-0.6,0.1-1.1,0-1.5c-0.1-0.7-0.4-1.4-0.6-2.1c-0.4,0.6-0.6,1.3-1.1,1.7
	c-0.9,0.8-2.3,2.2-2.7,1.9c-2.3-1.4-3.5-0.1-4.6,1.6C94.5,52.2,92.9,51.6,90.8,50.8z M197.7,347.1c0.3,1.2,0.6,2,0.8,2.9
	c1,5,4.1,9,6,13.6c4.5,10.9,8.1,22,11.1,33.4c0.2,0.8,0.7,1.6,1.1,2.4c0.2-0.1,0.4-0.1,0.6-0.2c0.1-0.9,0.2-1.9,0.2-2.8
	c-0.5-8.6-0.7-17.2-1.6-25.8c-1.1-11.3-2.7-22.5-4.2-33.7c-0.4-3.1-2-5.6-4.6-7c-0.9,0.7-1.8,1-2.7,1.2c-1.4,0.2-3.6,2.6-3.8,4
	c-0.1,0.7-0.6,1.3-1.1,2.2c0.3,0.4,0.9,1,1.6,1.7c-2,0.5-1.9,2-0.8,2.7c1.9,1.2,1.1,3,1.8,4.4C200.7,346.4,199.4,346.7,197.7,347.1z
	 M172.7,127.1c0-0.2-0.1-0.3-0.1-0.5c0.8-0.3,1.7-1.1,2.3-0.9c1,0.3,1.7,1.3,2.8,2.2c0.4-0.8,0.8-1.6,1.3-2.4
	c2.2,0.6,4.6,2.2,5.7-1.4c0.7,1.7,1.3,3.2,2.1,5.1c-1.7,1,0.7,1.7,1.3,3c-2.8,2.6-1.6,4.8,0.5,7.1c0.6,0.7,0.6,2,1,3.4
	c1.2-0.1,2.8-0.3,4.6-0.4c-0.8-2.5-2.1-2.5-3.5-1.6c-0.2-1.6-0.4-3.1-0.6-4.7c2.6-1.1,4.3,0.4,5.9,2.5c1.5-1.3,2.8-2.4,4.1-3.6
	c-0.1-0.1-0.2-0.3-0.3-0.4c-1.1,0.2-2.2,0.4-3.3,0.6c-0.1-0.2-0.2-0.5-0.4-0.7c1-0.6,2.1-1.2,3-1.9c0.6-0.5,0.8-1.3,1.2-2
	c-0.7-0.2-1.4-0.6-2.1-0.6c-0.6,0-1.3,0.5-2.3,1c-0.1-1.2-0.4-2.2-0.3-3.1c0.5-3.1,0.6-3.1-2-5c1.3-0.4,2.4-0.8,3.6-1.2
	c-0.1-0.9-0.2-1.8-0.3-3c-2.2,0-4.2,0-6.2,0c0.7-1.1,1.5-2.5,2.4-3.8c-1-0.7-1.9-1.4-2.3-1.8c0-1.3,0.4-2.5-0.1-3.2
	c-0.6-0.8-1.8-1.2-2.5-1.7c0.7-1.1,1.8-2,1.9-3.1c0.1-2.1-0.3-4.2-0.5-6.2c0-0.3-0.4-0.6-0.6-0.7c-1.9-0.9-3.8-1.9-5.8-2.6
	c-0.8-0.3-2.4-0.6-2.6-0.2c-0.6,0.9-1.1,2.5-0.7,3.3c1.1,1.8,2.7,3.4,3.8,4.7c-0.8,0.4-1.6,0.8-2.5,1.3c0.7,1.1,1.2,2.8,2.1,3
	c0.9,0.2,2.2-1.1,3.5-1.9c0,1.3,0,3.1,0,4.9c-1.4-2.4-3.7-2.5-5.2-0.1c0.8,0.3,1.7,0.6,2.5,0.9c0,0.1,0,0.2-0.1,0.3c-1,0-2,0-3.2,0
	c0.4,2,0.7,3.7,1.1,6.2c-1.9-1.4-3.1-2.3-4.6-3.4c0.4-0.7,0.9-1.8,1.5-3c-0.7-0.1-1.4-0.2-2.1-0.4c-3.7-1-4.9-0.2-6.1,3.5
	c-0.5,1.6-1.4,3.3-2.4,4.7c-2.3,3-1,7,2.7,7.7C171.6,126.9,172.1,127,172.7,127.1z M112.8,103.9c0.6-1,1.1-1.6,1.5-2.3
	c2.1-3.9,4-7.9,6.3-11.7c1.6-2.7,3.8-5.1,5.5-7.8c0.9-1.4,1.6-3,2-4.6c0.4-1.4-0.1-2.7-2.1-2.1c-0.5,0.1-1.1-0.3-1.8-0.5
	c-0.3,0.4-0.8,0.9-1.4,1.6c-0.7-0.9-1.2-1.6-1.9-2.5c1.3-0.6,2.3-0.9,3.2-1.4c1.4-0.7,1.1-1.8,0.3-2.6c-0.7-0.6-1.7-0.9-2.6-1.2
	c-2.3-0.9-2.4-1.2-0.6-3.2c2.2,3.8,2.8,3.6,6.2-1.5c-0.3-0.7-0.8-1.3-0.8-2c0-0.8,0.3-1.6,0.5-2.9c-1.1,0.9-1.7,1.3-2.6,2
	c0.5-2,0.9-3.6,1.2-4.9c-1.9,1.2-3.5,2.2-5.5,3.4c0.1-1,0.2-1.5,0.2-1.9c-2.4,2-4.4,4.4-6.3,6.7c-1.2,1.4-1.4,2.8-0.2,4.2
	c1.7,2.1,1.3,4.1-0.2,6.1c-1.3,1.7-2.7,3.3-3.8,5.1c-3.1,5.3-4.2,11-3.3,17.2c0.6,4.1,0.4,4.1,3.9,3.4
	C111.2,101.4,111.9,102.5,112.8,103.9z M124.3,152.6c-1.5,1.9-2.9,3.3-5,2.4c-2-0.9-2.4-0.1-2.6,1.7c-0.2,1.5-0.9,1.9-2.7,1.4
	c-2.3-0.7-1.6-2.7-2.6-3.8c-0.3-0.4-0.7-0.9-1.2-1c-0.3-0.1-1.2,0.4-1.1,0.6c0.2,2.9-2.3,5.3-1.1,8.4c2.4,6.6,4.5,13.4,6.8,20
	c0.3,0.9,0.9,1.8,1.6,3c1.3-1.7,2.4-3,3.6-4.4c0.5,0.6,0.8,0.8,0.8,1c0.5,2.2,2.1,1.9,3.7,1.6c1.7-0.3,1.7-1.6,1.6-2.9
	c-0.2-2-0.3-3.9-0.7-5.9c-0.1-0.7-0.6-1.5-1.2-1.9c-1.8-1.2-1.9-2.1,0-3.1c1.6-0.8,2-2.1,2-3.6c-0.1-3-0.1-6.1-0.4-9.1
	C125.5,155.5,124.8,154.1,124.3,152.6z M275.9,285.1c1.1-1.3,2.3-2.6,3.3-4c0.4-0.5,0.6-1.1,1-1.7c0.5-0.9,0.9-2,1.6-2.6
	c2.6-2.2,3.7-5.6,2.6-8.7c-0.2-0.4-0.7-0.7-1-1c-0.5,1.1-0.9,2.5-1.2,2.5c-1.1-0.1-2.3-0.4-3.3-1c-1.3-0.8-2.4-1.1-3.8-0.5
	c-0.4,0.2-1.3,0-1.3-0.2c-0.4-1.2-0.7-2.4-1-3.6c-0.2-0.8-0.5-1.7-0.7-2.4c-1.8,0.7-3.1,1.3-4,1.6c-0.8-1.6-1.4-2.8-1.9-4
	c-0.4,0.1-0.8,0.2-1.2,0.3c-0.2,1.8-0.2,3.5-0.5,5.3c-0.2,0.8-0.7,1.6-1.3,2.3c-0.7,1-1.5,1.9-2.3,2.8c0.1,0.1,0.3,0.2,0.4,0.3
	c-0.5,0.1-1,0.1-2,0.3c0.8,1,1.3,1.7,1.8,2.3c0.3,0.4,0.9,0.8,0.9,1.3c0.1,1.9,0,3.7-0.1,5.6c0,0.4-0.3,1.2-0.5,1.2
	c-3.2,0.6-2.2,3.3-2.7,4.7c2.1,0.4,4.1,0.5,6,1.1c2.1,0.7,3.9-0.1,5.3-1.2C273.3,283.2,273.2,283,275.9,285.1z M189.8,192.9
	c0.2,2.2,2.2,4.2-0.1,6.4c-0.4,0.4,0,1.5-0.1,2.3c-0.3,1.4-0.6,2.8-1,4.2c-0.3,1-0.8,1.9-1.3,2.9c0.8,0.3,1.4,0.5,2.1,0.8
	c-0.4,0.6-0.7,1-1,1.5c0.1,0.2,0.2,0.5,0.3,0.7c3.7-1.2,7.4-2.4,11.1-3.4c2.5-0.7,3.8-2,3.3-4.8c0.3-0.1,0.5-0.1,0.8-0.2
	c0.4,0.7,0.7,1.4,1.2,2.4c0.6-0.5,1.6-1,1.5-1.4c-0.2-1.9-0.6-3.8-1-6c1.2,0,2.7,0,4.5,0c-0.6-1.3-1-3-2-4.2c-0.3-0.4-2,0.4-3.2,0.7
	c-0.3-0.3-0.7-1.2-1.3-1.3c-2.3-0.5-2.5-1.7-1.9-3.8c0.8-2.8-1-5.4-3.4-4.9c-2,0.4-3.8,1.5-5.8,2.3c0.4,0.6,0.7,1.2,1,1.7
	C192.3,190.2,191,191.7,189.8,192.9z M299.1,337.7c-3.8,3-18.8,39.9-18.2,44.6c0.2-0.3,0.4-0.6,0.6-0.9c4.9-9.8,11.4-18.4,19.5-25.8
	c1.6-1.4,3.1-3,4.5-4.5c0.4-0.4,0.8-1.2,0.6-1.6c-0.7-1.8-1.6-3.6-2.4-5.4c-0.2-0.3-0.4-0.7-0.7-1.1c0.7-0.1,1.2-0.1,1.4-0.2
	c0-0.8-0.2-1.8,0.1-2c1.9-1.3,1.2-2.9,1-4.1c-1.6-0.6-2.9-1-4.7-1.6c-0.2,1.2-0.5,2.7-0.9,4.6C299.6,339,299.4,338.4,299.1,337.7z
	 M203.4,226.3c1.3,0.7,3.1,1.4,2.5,3.8c-0.1,0.4,1.1,1,2.1,1.9c0.1-1.2,0.2-1.5,0.1-1.8c-0.4-1.2,0.9-2.5-0.5-3.6
	c0.5-0.5,0.9-1.5,1.4-1.5c1.2-0.1,2.6,0.1,3.7,0.6c0.7,0.3,1.1,1.3,1.5,1.7c-0.3,1.5-0.6,2.9-0.9,4.2c0.3,0.1,0.5,0.3,0.8,0.4
	c0.7-0.8,1.3-1.5,2.1-2.4c1.9,1.8,3.3-0.3,4.9-1c0.4-0.2,0.8-1.4,0.7-1.9c-0.5-1.6-1.1-3.3-2.1-4.6c-0.7-1-2.1-1.6-3.1-2.3
	c-1.1-1.8-2.3-3.6-3.3-5.2c3.7-3.3,6.2-8.2,12-8.9c-0.9-0.7-1.6-1.3-2.4-1.3c-2.3,0-4.6,0-6.8,0.4c-1.3,0.2-2.6,1.1-3.9,1.5
	c-3.5,1-6.3,2.4-5.5,6.8c0.1,0.3-0.1,0.6-0.2,1C205.7,218.1,204.6,222,203.4,226.3z M57.3,295.3c-2.4,3.9,1.7,13,6.9,13.5
	c-0.2-0.5-0.3-0.9-0.4-1.3c-0.7-2.4-2.3-5-1.9-7.3c0.6-3.3-1.1-5.4-2.4-7.9c-1.5-3-3.5-5.8-4.2-9c-0.6-2.4-1.4-2.9-3.5-2.8
	c-1.4,0-2.2-0.3-2.2-2.5c0-2.1,1.1-5.3-2.3-6.5c-2.9,0.6-3.1,3.1-3.8,5.3c2.7,1.1,3.8,2.8,3.4,5.2c-0.7-0.2-1.5-0.5-2.3-0.7
	c-0.4,2.9,2.4,6.5-2.8,8.3c2.7,2.9,4.9,5.5,7.3,7.8c0.6,0.5,2.1,0.1,4.1,0.1c-1.1-1.3-1.7-2.1-2.4-3c0.4-0.8,0.8-1.9,1.2-2.8
	c1.3,0.1,2.4,0.2,3.5,0.3C56,293,56.6,294.1,57.3,295.3z M250.5,303.3c-0.2,1-0.3,1.7-0.5,2.4c0.8-0.4,2.1-0.6,2.3-1.1
	c0.7-1.9,1.1-3.9,1.4-5.9c0.2-1.7-1-3.8,1.8-4.6c0.2,0,0.3-0.4,0.4-0.6c0.2-2,0.3-4,0.5-6c-0.3-0.1-0.5-0.1-0.8-0.2
	c-2.2-0.3-4.4-1.2-6.2-2c-1.9-0.9-2.8-2.9-5.1-0.7c-1.1,1-2.6,1.5-4,2.3c0.1,0.1,0.2,0.3,0.3,0.4c-0.7-0.1-1.4-0.3-2.1-0.4
	c-0.1,0.7-0.6,1.5-0.4,2c2.2,4.2,2.1,9.5,6.5,12.5c1.4,1,2.6,2.8,4.8,1.8C249.7,302.9,250.2,303.2,250.5,303.3z M174.4,259.9
	c-0.3,0-0.6-0.1-0.9-0.1c0.5-0.6,1.2-1.1,1.5-1.8c0.6-1.5,1.2-3,1.5-4.6c0.2-0.9,0.1-1.7-1.7-1.3c-1.9,0.3-4.1-0.3-5.9-1
	c-1.6-0.6-2.6-0.5-3.5,0.9c-0.3,0.4-0.7,0.8-1.1,1c-1.6,1.1-2.2,2.4-1.4,4.4c1.8,4.1,1,7.9-0.8,11.6c0,1,0,2,0,2.9
	c3.3,0.7,1.3-3.9,3.7-4.2c0.2,0.7,0.3,1.7,0.7,1.9c2.2,0.7,4.4,1.5,6.7,1.6c1.9,0,3.8-1.1,5.7-1.6c0.5,1.7,2.9,4,4,3.8
	c0.7-0.1,1.4-1.2,1.8-2c0.2-0.4-0.1-1.7-0.4-1.7c-3-0.6-6.1-1.3-9.1-1.5c-1.9-0.1-2.3-0.7-2.1-1.6c1.3-1.1,3-1.9,3-2.6
	C176.1,262.5,175,261.2,174.4,259.9z M155,183.9c-0.7-1.6-1.3-2.7-1.8-3.8c-0.2,0.1-0.4,0.2-0.6,0.2c0.5,1.7,1,3.5,1.5,5.5
	c-3.3,0.8-2.6,3.6-2.1,6.4c0.2,0.9,0.5,1.7,0.7,2.6c0.1,0.4,0.2,0.8,0.1,1.1c-1,3.5-0.5,4.4,3.5,6c0.3-0.8,0.7-1.6,0.8-2.5
	c0.4-3.1,2.2-5.5,3.9-8c2.4-3.6,4.6-7.4,6.6-10.7c-0.4-1.1-0.7-1.8-0.9-2.4c-0.7-1.7-1.2-3.5-3.3-4.1c-1.2-0.3-2.4-0.6-3.6-0.7
	c-2.2-0.2-2-2-2.2-3.7c-1,0.9-1.7,1.5-2.2,2.1c0.5,1.4,1.1,2.7,1.4,4c0.3,1.4,0.4,2.9,0.7,4.3c0.2,0,0.4,0,0.7-0.1
	C157.2,181.3,156.2,182.4,155,183.9z M131.9,83.6c-2.5-2.1-2.5-2.1-4.1,0.4c-0.2,0.3-0.6,0.8-0.8,0.8c-2.5-0.2-2.9,2-3.8,3.4
	c-1.8,2.9-3.3,5.9-4.8,8.8c-1,2-2.1,3.9-2.9,5.9c-1.3,3.2,0.5,6.4,3.5,6.4c1.9,0,3.1,0.3,3.2,1.6c1.7,0.7,3,1.2,4.1,1.8
	c1.9,1,3.8,1.3,6,0.5c-1.5-2.9-3.3-5.2-6.1-6.8c-1-0.6-1.8-1.5-2.6-2.5c-0.7-0.9-1.2-1.9-1.8-2.9c1.1,0,2.6,0,4,0
	c0.7-2.5,1.2-4.7-0.4-7c-0.6-0.8-0.1-2.4-0.1-3c1.2-0.5,1.8-0.8,2.1-0.9c-0.4-1.2-0.7-1.9-1.1-2.9c3.6,1.6,6-0.1,8.4-1.2
	c0.7-0.3,0.9-1.7,1.3-2.6c-1.4-0.6-2.3-0.9-3.2-1.3C132.5,82.7,132.2,83.1,131.9,83.6z M363.7,274.4c-0.1-1-0.1-2.2-0.2-3.3
	c0.1,0,0.3,0,0.4,0c0.3,1,0.6,2,0.9,3.1c0.3-0.1,0.7-0.1,1-0.2c-0.2-0.9-0.2-2-0.7-2.8c-0.7-1.1-0.9-1.9-0.2-3.1
	c0.4-0.8,0.1-1.9,0.1-2.9c-0.9,0.9-1.3,2-2,2.4c-0.7,0.3-1.8-0.2-2.8-0.4c-0.1,0.6-0.2,1.4-0.4,2.1c-0.6-0.6-1.1-1.2-1.6-1.8
	c-0.4,0.5-0.7,1.2-1.3,1.6c-2.3,1.4-0.9,3.3-0.8,5.1c-0.6-0.9-0.9-1.8-1.3-2.6c-0.2-0.6-0.5-1.5-0.9-1.6c-2.2-0.2-2-2-2.4-3.4
	c-0.3-1.5-0.4-3.1-1.2-4.4c-0.6-1-2-1.6-3-2.3c-0.1,0.2-0.2,0.3-0.3,0.5c0.7,1.3,1.3,2.6,2,3.9c-2,0.9-3.5,1.4-3.5-1.4
	c-1.5,0.4-2.7,0.7-3.7,1c2,2.3,3.7,4.4,5.2,6.2c-0.5,0.9-0.9,1.5-1.2,2.2c0,0.1,0.6,0.6,0.6,0.6c0.7-0.6,1.4-1.2,2.2-1.9
	c0.1,1.1,0.2,2.2,0.3,3.3c0,1.2,0,2.3,0,3.5c-0.8,0-1.3,0-2.1,0c6.5,5,8.8,2.7,10.2-1.9C359.4,275.3,361.5,274.8,363.7,274.4z
	 M190.8,260.1c-0.7-0.6-1.4-1.1-1.9-1.6c-0.2-0.2-0.6-0.7-0.5-0.9c1.1-2.4-0.7-3.4-1.6-4c0-1.8-0.1-3.1,0-4.4c0-0.6,0.4-1.1,0.5-1.7
	c0.2-0.9,0.5-1.8,0.7-2.8c-1.3-0.2-3.5-1-3.7-0.6c-1.2,1.8-3.1,1.1-4.5,1.9c-1,0.6-1.7,1.8-2.2,2.9c-0.2,0.5,0.7,1.4,1,2.1
	c0.7-0.8,0.8-1.2,0.9-1.7c0.1-0.5,0.1-1,0.1-1.6c2.8,1.3,3.4,2.8,2.4,5.7c-0.9-0.4-1.8-0.9-2.7-1.3c-0.1,0.9,0.2,1.4,0.5,1.9
	c0.4,0.8,1,1.6,1.1,2.4c0,1.3,0.2,2,1.8,2.3c1.1,0.2,1.9,1,2.9-0.3c0.2-0.3,1,0,1.3,0c0,1-0.3,1.9,0.1,2.4c2,2.3,1.3,4.2-0.3,6.3
	c-0.4,0.6-0.3,1.9,0,2.7c1.2,2.6,3.7,1.2,5.1,1.6c2-2.5,3.7-4.7,5.5-7c-0.1-0.2-0.1-0.5-0.2-0.7c-3.7,1-4.9-0.9-4.8-4.1
	C191.4,259.9,191,260,190.8,260.1z M312.3,350.1c1.1,0.1,1.7,0.2,2.2,0.2c7.8-0.6,15.5-1.2,23.3-1.9c1.9-0.2,3.1-2.9,1.7-4.1
	c-2-1.7-4.4-2.9-7-4.6c-0.1,1.4-0.2,2.1-0.3,2.9c-0.2-0.1-0.3-0.3-0.5-0.4c-0.9,0.8-1.8,1.6-3,2.6c-0.7-0.5-1.6-1.3-2.5-2
	c-0.4-0.3-1-0.9-1.3-0.7C320.1,343.5,315.9,345.7,312.3,350.1z M201.5,228.5c0.7-2.2,1.3-4.2,1.9-6.2c0.9-3.2,2-6.4,2.7-9.7
	c0.6-2.9-0.3-3.5-2.9-2.6c-2.2,0.8-4.3,1.6-6.4,2.4c-2.7,1-3.3,1.9-3,5.2c1.2,0.1,2.3,0.1,2.9,0.2c0,1.5-0.1,2.6,0,3.8
	c0.1,1.4,0.2,2.5-1.7,2.3c-0.5-0.1-1,0.1-1.8,0.3C195.1,227.8,198.5,227.6,201.5,228.5z M146.5,192.7c-0.2,0-0.3-0.1-0.5-0.1
	c0-1.6,0-3.3,0-5.6c-0.8,1.3-1.2,1.9-1.8,3c-1.1-1.7-2-3-2.9-4.4c-0.6-0.9-1.3-2.7-1.6-2.6c-1.2,0.3-2.5,1-3.5,1.9
	c-1,0.8-1.8,1.9-2.5,3c-1.3,1.9-0.7,3.4,1.3,4.2c1.3,0.5,2.3,1.4,1.9,3.1c-0.1,0.5,0,1,0,1c1.7-0.6,3.4-1.2,5.7-1.9
	c-0.4,1.1-0.4,1.5-0.6,1.7c-1.8,1.9,0.1,2.7,1.3,3.2c1.3,0.6,3,1.5,3.7-0.9c0.1-0.4,0.3-0.8,0.5-1c2.2-2.2,2.5-4.4,0.9-7.2
	C147.8,190.8,147.2,191.7,146.5,192.7z M213.3,458.2c0.4,0.1,0.9,0.1,1.3,0.2c0.6-3.5,1.5-6.9,1.9-10.4c0.6-4.6,1-9.3,1.3-14
	c0.6-8.5-0.4-16.9-1.9-25.2c-0.3-1.4-1.1-2.7-1.6-4c0,7.4,0.4,14.6,0.6,21.8c0.1,3-0.2,6.1-0.3,9.1c0,1.5,0.4,2.9,0.3,4.4
	C214.4,446.1,213.8,452.1,213.3,458.2z M232.7,308.4c2.6-2.9,5.8-4.6,7.3-7.7c0.9-1.8,0.4-3.8-1.1-5.4c-1.4,0.5-2.7,1-3.5,1.3
	c-0.5,1.2-0.7,2.4-1.3,2.7c-0.9,0.3-2.4,0.3-3-0.2c-2.4-2.3-2.9-2.3-4.9,0.3c-0.6,0.8-1.3,1.5-1.8,2.3c-0.7,1.1-1.2,2.3-1.7,3.5
	c0.3,0.1,0.6,0.3,0.8,0.4c0.4-0.6,0.6-1.5,1.1-1.8c1.1-0.6,2.3-0.9,3.5-1.1c0.2,0,1,0.9,0.9,1.1c-0.4,0.6-1,1.1-1.6,1.6
	c-0.7,0.6-1.4,1.2-2.1,1.8c0.8,0.5,1.6,1,2.9,1.9c-0.3-1.2-0.4-1.7-0.5-2.2c1.2,1.7,2.8,2.6,5,3.3
	C232.7,309.2,232.7,308.5,232.7,308.4z M276.3,330.5c-2.7,1.7-5.3,3.1-6.2,6.2c-0.2,0.6-0.8,1.2-1.3,1.7c-1.3,1.4-2.7,2.8-4,4.3
	c-0.4,0.5-0.6,1.7-0.3,2c1.4,1.6,0.8,3.1,0.4,4.7c-0.1,0.4,0.6,1.5,1.2,1.7c1,0.4,2.1,0.3,2.5,0.4c3.4-2.6,4.3-6.1,5.1-9.7
	C274.6,338.1,276.2,334.5,276.3,330.5z M212.6,143.5c1.5,0.4,2.7,0.7,3.9,1c0.9,0.2,1.8,0.7,2.6,0.5c3.9-0.9,7.8-1.9,11.5-2.8
	c0,0.1-0.2,0.7-0.4,1.3c0.2,0.1,0.3,0.3,0.5,0.4c1.2-0.8,2.4-1.6,3.6-2.5c-2.6-0.7-4.9-0.9-7.1-1.1c-1.9-0.2-3.9-0.5-5.8-0.4
	c-2.7,0.1-3.4,1.6-2,4.2c-1.1-0.2-2.1-0.4-3.1-0.6c0.2-1.2,0.3-2.3,0.5-3.7c-1.8,0.4-3.6,0.8-5.4,1.3c-0.5,0.1-1.2,0.8-1.2,1
	c0.3,1.8-1,2.4-2.2,3.1c-0.9,0.5-1.7,1-2.6,1.4c3.9,3.8,4.6,4,7,2.6C215.2,147.7,212.7,145.8,212.6,143.5z M164.2,117.1
	c-0.1-0.2-0.3-0.4-0.4-0.6c0.4-2.1,0.9-4.1,1-6.2c0-0.5-1.6-1.6-1.7-1.5c-0.9,0.6-1.6,1.6-2.2,2.2c-1,0.3-2,0.7-3,0.8
	c-1,0.1-2.1,0-3.2,0c-0.9-0.1-1.8-0.2-2.7-0.4c0,0.2,0,0.4,0,0.6c2.7,2,5.5,3.9,8.2,5.9c-0.6,0.5-0.9,0.5-1.3,0.5
	c-0.3,0-0.6,0-0.9,0c0.1,0.2,0.2,0.3,0.4,0.5c-0.9,0.8-1.8,1.6-2.9,2.6c0.6,0.4,1.2,1.1,1.7,1c1.1-0.2,2.1-0.8,3.3-1.4
	c0.7,0.6,1.5,1.4,2.4,2.2c0.5-1.3,0.9-2.4,1.1-3.2c0.9-0.2,1.9-0.1,2.2-0.5c1.2-1.3,1.5-2.8,0.7-4.5
	C165.9,115.9,165.1,116.5,164.2,117.1z M137.6,150.4c-0.3,0.4-0.8,1-1.4,1.6c-1.4,1.3-2.6,0.3-3.8-0.4c-1.1-0.7-2-1.7-3.1-2.7
	c-0.5,2.1-0.9,3.5-1.4,5.5c0.1,1.8,0.3,4.3,0.4,6.8c0.2,0.1,0.4,0.1,0.6,0.2c0.9-1.2,1.8-2.4,2.5-3.3c2.2,0.2,4.6,0.4,7,0.5
	c0.3,0,0.8-0.6,1-1c0.4-0.9,0.6-1.8,0.9-2.6c0.6,0.1,1.3,0.1,2.3,0.2C140.7,153.3,139.2,151.9,137.6,150.4z M138.5,110.8
	c0.3,0.1,0.7,0.4,1.1,0.3c0.9-0.1,2.1,0,2.6-0.5c0.5-0.5,0.6-2,0.2-2.6c-1-1.6-2.1-3.1-3.6-4.2c-0.7-0.5-2.3,0.3-3.4,0.4
	c-0.6,0.1-1.3-0.1-1.9,0c-0.8,0.1-1.8,0.1-2.3,0.6c-2,1.7-1.9,2.8,0.4,5.8c2.5,3.3,3.4,3.4,6.5,0.4
	C138.2,111,138.3,110.9,138.5,110.8z M230.8,136.1c-1.5-1-3.5-1.6-3.9-2.7c-1.1-3.5-4.1-4-6.8-5.3c-1.4-0.6-3.1,0.4-2.6,1.6
	c0.5,1.3,1.6,2.4,2.2,3.7c0.4,0.8,1.1,2,0.8,2.7c-0.7,1.5-0.1,2,1.2,2.1c3,0.4,6,0.7,9,1.1C230.8,137.9,230.8,136.8,230.8,136.1z
	 M178.7,344.9c2-5.1,1.8-10.2,1.6-15.4c-0.2-4.1-2.5-5.6-7-4.8C175.1,331.5,176.9,338.2,178.7,344.9z M294.7,147.6
	c0.3-0.2,0.5-0.3,0.8-0.5c-1.8-5.2-2.6-10.3,1.5-15c-1.9-0.8,0.2-5.2-3.6-3.9c-0.4,0.9-1.1,1.5-1.6,2.3c-0.9,1.4-1.8,2.8-2.2,4.4
	c-0.2,0.7,0.7,1.6,1.3,2.9c0,0.3,0,1.1,0,1.9c0,0.7,0.1,1.7-0.2,2.1c-1.4,1.5-0.7,2.5,0.2,3.7c0.9-0.3,1.7-0.5,2.5-0.8
	c-0.1,0.3-0.3,0.5-0.4,0.8C293.5,146.1,294.1,146.8,294.7,147.6z M205.9,169.2c0.1,2.6,0.2,4.5,0.3,6.3c1.1-0.5,1.9-1.3,2.7-1.2
	c2.2,0.3,4.3,0.9,6.9,1.4c0-0.8,0.1-1.6,0.1-2.4c0.1-1.1-0.1-2.2,0.3-3.1c0.5-1.4,1.4-2.7,1.9-3.7c-1.2-1.1-2-1.8-2.9-2.6
	C213.3,167.3,210.9,170.5,205.9,169.2z M156.6,253.5c-0.1,1.4-0.4,3.3-0.4,5.2c0.1,4.8,0.3,9.7,0.6,14.5c0,0.8,0.7,1.5,1.1,2.4
	c0.8-4.1,1.4-7.8,2.1-11.5c0.2-0.9,0.5-1.8,0.6-2.8c0.2-0.9,0.5-1.9,0.3-2.7c-0.8-2.3-2.2-4.5-0.5-6.6
	C159.2,252.5,158,253,156.6,253.5z M280.2,286c-0.2-0.1-0.4-0.2-0.7-0.3c-2.4,2.5-4.9,5.1-7.2,7.7c-0.3,0.3-0.2,1.2,0.1,1.5
	c0.3,0.3,1,0.2,1.5,0.1c0.4-0.1,0.9-0.3,1.5-0.6c-0.2,0.8-0.4,1.2-0.4,1.3c1.6,0,3,0,4.5,0c1.5,0,3,0,5.2,0
	c-0.8-1.6-1.3-2.6-1.8-3.8c0.6-0.5,1.3-1.2,2.3-2.1C282.2,290,280.5,288.9,280.2,286z M386.9,214.7c-0.1,0.2-0.1,0.5-0.2,0.7
	c0.2,0.3,0.4,0.7,0.6,1c1.3,2,2.5,4.1,4.1,5.9c0.6,0.7,2.1,1,3.1,0.8c2.3-0.4,2.8-2.6,3.8-4.3c1-1.8,0.8-2.4-1.2-2.2
	c-1.4,0.2-2.1-0.3-1.8-1.7c0.5-2.4-1.1-3.6-2.4-5c-0.3,0.1-0.5,0.2-0.8,0.3c0.6,1.8,1.1,3.5,1.7,5.4
	C391.3,215.2,389.1,215,386.9,214.7z M199.1,299.5c-0.3-0.1-0.5-0.2-0.8-0.3c-0.5,1.8-1.6,3.6-1.5,5.3c0.2,2.1,1.5,4.2,2.4,6.4
	c2.8-2.7,3.7,1.6,5.8,1.7c0.6-2.3-2.3-11.8-4.2-14C200.3,298.8,199.7,299.1,199.1,299.5z M133.8,229.4c0.5-0.7,1.2-1.3,1.1-1.6
	c-0.6-2.1,0.1-2.8,2.3-2.7c1.2,0,2.4-0.8,1.2-2.5c-0.3-0.4-0.5-1.1-0.3-1.5c0.9-2-0.5-2.4-1.9-2.9c-0.6-0.2-1.3-0.6-1.9-0.7
	c-1.2-0.2-2.6-0.7-3.6-0.3c-0.6,0.3-1.1,2.2-0.8,3C131,223.3,132.4,226.1,133.8,229.4z M314.4,143.1c0.8-0.2,1.3-0.3,1.7-0.4
	c1-0.4,2.1-0.9,3.1-1.3c-0.8-0.5-1.5-1.2-2.3-1.4c-1.6-0.3-3.4,0-4.9-0.6c-1.5-0.5-2.8-1.8-4.4-0.5c-1.3,1-2.6,2-3.7,3.1
	c-0.4,0.4-0.1,1.4-0.1,2.1c0.7-0.2,1.6-0.2,2.2-0.6c0.7-0.4,1.1-1.2,1.8-2.2c1,1.9,1.8,3.4,2.7,4.8c0.3,0.5,1.3,0.9,1.8,0.7
	c0.7-0.2,1.3-0.9,2.4-1.6c-1.8-1.5-3.4-2.9-4.9-4.2C310.8,140.2,311.3,140.4,314.4,143.1z M199.9,323.1c-0.3-0.1-0.5-0.1-0.8-0.2
	c-0.3,1.6-0.9,3.1-1,4.7c-0.1,2-0.4,3.3-2.8,2.3c-0.6-0.2-1.3,0-1.7,0c-3,3.5,0,5.7,2.1,8.6c0.6-1.4,1.4-2.5,1.6-3.7
	c0.5-2.9,1.3-3.8,4.3-3.9c0.4,0,0.7-0.3,1.3-0.5C202,327.9,201,325.5,199.9,323.1z M315,253.2c-3.2,2-6.2,4-9.9,6.3
	c1.6,0.2,2.5,0.4,3.5,0.5c0.9,1.3,1.9,2.7,3.2,3c1.1,0.3,2.6-0.7,4-1.1c-0.4-2.8-1.4-5.7,1.9-7.4c-0.6,0.2-1.1,0.4-1.7,0.6
	C315.6,254.5,315.4,254,315,253.2z M128.4,173.9c0.5,4.3,1,8.5,1.5,12.7c2.8,0,7.3-6.8,6.2-9.2c-0.7,0.7-1.4,1.4-2.5,2.4
	C132.7,177,132.2,174.3,128.4,173.9z M225.1,243.8c2.3-2.1,4.3-4,6.4-5.7c1.7-1.3,1.5-2.5,0.5-4.1c-1.1-1.7-2.4-1.4-3.8-0.8
	C225.2,234.3,223.7,239,225.1,243.8z M273.1,329.8c-0.1-0.3-0.2-0.6-0.3-0.8c-1.1-0.5-2.2-1-3.3-1.4c-1-0.4-2.3-0.4-2.5-2.1
	c-0.1-0.7-1.1-1.2-1.7-1.8c-0.7,0.7-1.8,1.3-2.1,2.2c-0.2,0.7,0.7,1.6,1.2,2.4c-1,0.6,0.3,4.8,2.9,7.5c0.8-1.7,1.5-3.3,2.1-4.6
	C270.5,330.7,271.8,330.2,273.1,329.8z M218.4,159.8c1.3-3.4,4.5-2.4,7.3-3c-1.3-1.9-2.3-3.3-3.3-4.7c-1.3-1.8-3.3-2-5-0.6
	C214.9,153.5,215.1,156.5,218.4,159.8z M213.2,135.3c0.2-0.3,0.4-0.5,0.6-0.8c1.6,1.1,3.2,2.2,4.6,3.3c-0.4-2.2-0.8-4.2-1.3-6.2
	c-0.2-0.6-0.7-1.5-1.2-1.6c-0.5-0.1-1.3,0.4-1.7,0.9c-1.4,1.6-2.6,3.4-3.9,5.1c-0.8,1.1-1.7,2.2-2.8,3.6c3.5,1.2,6.1-0.5,8.9-0.7
	c0.1-0.2,0.2-0.5,0.3-0.7C215.6,137.2,214.4,136.2,213.2,135.3z M231.5,231.8c-0.3-0.5-0.4-0.8-0.6-1.1c-0.9-2.2-1.4-4.6-4.6-5
	c-1.1-0.2-2.8-1.2-2.4-3.4c0.3-1.8-0.9-1.9-2.4-1.5c0.3,1.2,0.4,2.4,0.8,3.4c0.3,1.1,0.9,2.1,1.1,3.2c0.9,4.8,1.7,5.4,6.4,4.5
	C230.3,231.9,230.8,231.9,231.5,231.8z M212.5,239.6c0.9,0,1.8,0,2.7,0c2,0.1,4.7-2.1,4.8-4.1c0-0.7-0.3-1.8-0.9-2.1
	c-2.5-1.6-5.2-1.2-7.6,0.9C211.8,236.2,212.2,238,212.5,239.6z M324.1,197.7c-0.1-0.4-0.3-0.7-0.4-1.1c-1.6-0.2-3.2-0.4-4.8-0.8
	c-0.7-0.1-1.4-0.5-2.1-0.8c-0.7-0.3-1.9-0.9-2.1-0.7c-0.6,0.7-1.1,1.7-1.2,2.6c-0.1,1.2,5,4.9,6.2,4.7c0.2,0,0.5-0.1,0.6-0.3
	C321.5,200.2,322.8,198.9,324.1,197.7z M213.9,258.1c-0.2-0.2-0.4-0.4-0.6-0.6c-1.6,1.2-3.2,2.4-4.8,3.6c-1.8,1.3-3,2.8-2.1,5.2
	c0.1,0.3,0.1,0.6,0.1,1c-0.6-0.2-1-0.4-1.6-0.6c-0.3,1.9,0.6,2.9,2.2,3.2c1.6,0.3,2.3-0.8,2.7-2.2c0.4-1.5,0.9-3,1.5-4.4
	C212.1,261.5,213,259.8,213.9,258.1z M73.5,51.7c-1,0.4-1.7,0.6-2.3,0.9c0,0.2,0,0.4,0,0.6c0.9,0,2,0.3,2.6-0.2
	c1.3-1.1,2.6-2.3,3.5-3.8c0.4-0.7,0-2-0.1-3c-0.7,0.3-1.5,0.5-2.1,0.8c-0.5,0.2-0.8,0.7-1.4,1.3c-0.5-1.8-0.9-3.3-1.5-5.3
	c-1.2,1.4-1.9,2.3-2.5,3.1c-0.8-0.3-1.7-0.6-2.6-1c-0.1,0.2-0.3,0.5-0.4,0.7c1.1,1.2,2.2,2.4,3.4,3.8c0.5-0.7,0.8-1.1,1.2-1.7
	C72,49.2,72.7,50.3,73.5,51.7z M207.7,309.3c2.6-3.1,2.9-6.7,0.7-9.1c-0.8-0.9-2.5-1-3.8-1.3c-0.1,0-0.8,1.3-0.6,1.7
	C205.1,303.5,206.4,306.3,207.7,309.3z M53.7,57.6c-1.1,3.5-1.2,6.5,0.8,9.3c0.3,0.5,1,0.8,1.5,0.9c0.3,0.1,0.9-0.4,1-0.8
	c0.6-1.9,1.2-3.9,1.8-5.8c-1-0.8-2.2-1.7-3.6-2.8c0.1,0.7,0.2,1.1,0.4,2.2C54.8,59.3,54.4,58.6,53.7,57.6z M173,190.6
	c1.2-0.3,5.2-6,5.2-7.6c-0.2-0.1-0.8-0.3-1.4-0.6c0.6-0.7,1-1.2,1.3-1.6c-2.2-1.7-3.8-1.2-5.3,1c2.6,2.7,0.9,4.4-2.1,5.9
	c1.3,0.5,2,0.8,2.7,1.1C173.3,189.3,173.2,189.8,173,190.6z M170.6,78.2c-0.1,1.1-0.1,1.9-0.2,2.8c0.2,0.1,0.4,0.2,0.7,0.3
	c0.9-1.5,2.9-3.2,2.6-4.4c-0.5-2-2.4-3.6-3.7-5.5c-2.7,3.5-2.9,6.4-0.9,9C169.5,79.7,169.9,79.1,170.6,78.2z M377.7,219.8
	c2-1.1,2.5-4.1,0.4-7c-1.7,1.5-3.8,2.7-5,4.5c-1.2,1.8-1.4,4.2-2,6.3c1.1-0.6,2.2-1.2,2.7-1.5c0.2-1.2,0.3-2.1,0.4-2.9
	C375.1,219.4,376.1,219.5,377.7,219.8z M258.8,258.1c-1.2,3.1-0.4,7.1,2.2,8.6c0.5,0.3,2.3-0.6,2.5-1.2
	C264.7,261.6,263,259.1,258.8,258.1z M332.1,281.1c0.7-1.2,1.3-2.1,1.8-3c0.7,0.7,1.3,1.2,2,1.8c0.3-0.8,0.5-1.4,0.5-1.5
	c-0.7-0.8-1.2-1.2-1.6-1.7c0.2-0.2,0.4-0.3,0.5-0.5c0.7,0.3,1.3,0.6,2.2,1c0-1.2,0.1-2.1,0-2.9c-0.1-0.8-0.6-1.6-0.9-2.4
	c-1.2,0.7-3.6,1.5-3.5,2c0.3,2.4-1.8,3.4-2.6,5.4C331,279.7,331.5,280.3,332.1,281.1z M181.7,305.9c-0.6,4.1,0.6,7.3,3.1,10.7
	c0.4-3.1,0.8-5.7,1.2-8.3c0.2-1.5-0.3-2.4-1.9-2.4C183.2,305.9,182.4,305.9,181.7,305.9z M189.7,282c0.1-0.2,0.3-0.4,0.4-0.6
	c-1.1-1.4-1.9-3.1-3.3-4.3c-1.2-1-2.9-1.5-4.4-2.3c-0.2,2.6-0.8,5.2,1.7,6.7c0.7,0.4,2.1-0.5,3.3-0.8C188,281,188.8,281.5,189.7,282
	z M58,104.5c0.1,0.3,0.2,0.5,0.3,0.8c1.1-0.1,2.2-0.2,3.3-0.2c1.1,0,2.3,0.2,3.4,0.2c0.5,0,1.5-0.2,1.5-0.3c0-0.7,0-1.6-0.4-2
	c-1.3-1-2.7-1.8-4.3-2.8c0.2-0.8,0.6-2.3-1.5-1c0.2,1.3,0.9,2.7,0.5,3.6C60.6,103.6,59,104,58,104.5z M63.5,295.4
	c4.1-3.1,6.3-7.3,2.7-9.2C64,288.9,61.9,291.6,63.5,295.4z M63.4,50.7c1.3,0.9,2,1.5,2.8,1.8c0.9,0.3,2,0.3,3,0.3
	c0.3,0,0.7-0.6,0.7-1c0.1-1.2-2.7-4.5-3.9-4.3C64.1,47.9,63.3,49.4,63.4,50.7z M174,317.5c-0.4,0.3-0.8,0.6-1.2,0.9
	c-0.3-0.9-0.9-1.8-0.9-2.7c0.2-3.3-2.7-4.3-4.3-6.2c1.8,3.6,1.3,8.5,5.9,10.9C173.7,319.2,173.9,318.4,174,317.5z M141.2,84.7
	c-0.6-0.8-1.3-2.1-1.7-2c-0.8,0.1-2.2,1-2.2,1.6c0,0.9,0.8,2.1,1.6,2.5c1.4,0.8,5.5-0.6,6.4-1.9c0.2-0.4,0.1-1,0.2-1.8
	C143.7,83.7,142.3,84.3,141.2,84.7z M355.5,208.2c0.7,0.7,1.3,1.2,2,1.9c-0.5-3.7-5.1-5.1-9.3-3.4c0.3,1,0.5,1.9,0.9,2.8
	c0.2,0.5,0.8,0.7,1.2,1.1c0.3-0.5,0.6-0.9,0.9-1.4c0.1-0.3,0-0.6-0.2-1.7C352.6,209.7,354,209.7,355.5,208.2z M379,279.4
	c-3.5,1-5.4,3-5.5,5.6C378.1,285.4,380.4,283.2,379,279.4z M405.3,211.5c-0.9,0.4-1.6,1.1-2.3,1.1c-1.6-0.1-2.6,1.2-2.2,1.9
	c0.7,1.1,2.1,1.8,3.4,2.2c0.7,0.2,1.7-0.6,2.6-1c0.1,0,0.1-0.3,0-0.5C406.4,214,405.9,212.7,405.3,211.5z M146.9,169.2
	c0.7-5-0.3-8-2.2-7.8c-0.2,1.3-0.1,2.6-0.5,3.6C142.9,167.9,143.4,168.8,146.9,169.2z M314.2,343.2c-0.1-0.3-0.2-0.6-0.3-0.9
	c-0.8,0.1-1.6,0.1-2.4,0.3c-1,0.3-1.9,0.9-3.1,1.4c-0.3,0.9-0.9,2.1-1.3,3.4c-0.1,0.3,0.1,0.9,0.3,1c0.3,0.2,1,0.2,1.3-0.1
	C310.6,346.7,312.4,345,314.2,343.2z M393.2,225.9c0,1.5-0.1,3.3-0.1,5.1c1.5-1,2.9-1.9,4.4-2.9c0.2-0.2,0.6-0.6,0.5-0.7
	c-0.4-0.5-0.8-1.3-1.3-1.4C395.8,225.7,394.8,225.9,393.2,225.9z M236.8,138c1.1-0.5,1.9-0.9,2.8-1.4c-1.1-1-1.9-1.7-2.6-2.4
	c-0.2,0.3-0.5,0.5-0.8,0.8c-0.5-0.5-0.9-1-1.4-1.5c-0.5,1-0.9,1.8-1.1,2.1c0.2,1.6,0.4,2.6,0.6,4C235.5,139.7,236.9,139.9,236.8,138
	z M363.9,216.7c-0.7,0.9-1.3,1.6-2.1,2.6c2.2,1,4.2,1.9,6.5,3c0.3-0.6,0.7-1.3,1.1-2C367.5,219,365.8,217.9,363.9,216.7z
	 M104.5,304.7c0.5,0.6,0.9,1.4,1.4,1.5c0.4,0.1,1.2-0.7,1.3-1.1c0.1-0.6-0.3-1.3-0.7-1.9c-0.4-0.6-1-1-1.6-1.6c-1.3,1-2.7,2-4.3,3.1
	c0.9,0.6,1.7,1.2,2.5,1.7C103.7,305.7,104.1,305.2,104.5,304.7z M110.8,37.2c-0.5-0.6-0.8-1.4-1.1-1.4c-1.4,0-2.9,0-4.1,0.6
	c-0.5,0.2-0.2,2-0.3,3c0.7,0,1.6,0.3,2.2,0C108.7,38.8,109.6,38,110.8,37.2z M168.7,305.8c1.7,1.8,3,3.3,4.3,4.8
	c0.3-0.2,0.7-0.4,1-0.6c-0.5-1.9-1.1-3.8-1.6-6C171,304.7,170.1,305.1,168.7,305.8z M162.6,196.1c-0.4,2.5,2.3,4.7,4.9,4
	c-0.1-1-0.1-2-0.2-3C165.8,196.8,164.2,196.4,162.6,196.1z M175.6,311.5c0.2,4.2,4.5,5.8,5.7,9.4
	C180.3,317.3,179.3,313.6,175.6,311.5z M86.1,64.3c-0.2,0-0.4,0-0.7,0c0,0.9-0.1,1.8,0.1,2.6c0.1,0.4,0.8,0.6,1.2,0.9
	c0.3-0.8,1-1.8,0.8-2.5c-0.3-1.5-1.1-2.9-1.8-4.2c-0.2-0.4-1-0.4-1.5-0.6c-0.1,0.6-0.4,1.3-0.1,1.8C84.7,62.9,85.5,63.6,86.1,64.3z
	 M119.2,145.4c1-0.4,2.1-0.4,2.6-1c0.3-0.4,0.2-1.7-0.2-2.2c-1-1.1-2.2-1.9-3.4-2.9c-0.2,0-0.4,0.1-0.6,0.1
	C118.1,141.3,118.6,143.2,119.2,145.4z M224.2,195.8c2.5,0.7,5.5-1,5.6-2.8c0.1-1.1,0.7-2.8-0.8-3.7c-0.6,1.7-0.8,3.2-1.6,4.4
	C226.7,194.6,225.3,195.1,224.2,195.8z M204.7,138.5c-0.1-0.4-0.2-0.7-0.3-1.1c-1.3,0-2.9-0.5-3.8,0.1c-0.9,0.6-1,2.2-1.5,3.4
	c0.3,0.2,0.6,0.4,0.8,0.7C201.6,140.6,203.2,139.6,204.7,138.5z M233.4,288.6c1.9-1.2,2.5-2.7,1.7-4.6c-0.2-0.5-1.4-1-1.7-0.8
	C231,284.8,231.9,286.6,233.4,288.6z M317.6,209.1c0.6,0,1.5,0.1,2.7,0.1c-0.4-1.2-0.6-2.2-0.9-3.2c-1,0.2-1.8,0.3-2.1,0.3
	c-0.8,1.9-1.6,3.5-2.3,5.2c0.3,0.2,0.6,0.3,0.8,0.5C316.3,211.2,316.8,210.4,317.6,209.1z M349.4,340.9c-1.6,0.7-2.6,1.2-3.6,1.7
	c-0.7,0.3-1.4,0.7-2.1,1c0.4,0.7,0.6,1.6,1.2,1.9c0.5,0.3,1.7,0.1,2-0.3C347.9,344,348.5,342.7,349.4,340.9z M172.6,183.8
	c-0.5,0.1-0.9,0.2-1.4,0.2c-0.1-0.7-0.2-1.3-0.3-2.5c-1.4,1.8-2.5,3.1-3.6,4.5C170.7,187.4,171.3,187.1,172.6,183.8z M77.5,98.8
	c2.3,0.3,4.2,0.4,4.9-1.5c0.9-2.4-2.1-1.1-2.6-3.2C78.9,96,78.3,97.3,77.5,98.8z M148.5,160.7c0.1,1.2,0,2.3,0.3,3.4
	c0.2,0.8,0.9,1.5,1.4,2.3c0.5-0.7,1.1-1.4,1.4-2.2c0.3-0.6,0.2-1.4,0.3-1.5C150.6,161.9,149.7,161.5,148.5,160.7z M111.4,141.6
	c-0.2-0.1-0.4-0.3-0.5-0.4c-1,1-2.1,2-3.3,3.2c1.9,1.3,3.5,2.3,4.9,3.2C113.9,144.9,108.7,144.3,111.4,141.6z M207.1,134.2
	c1.3-0.9,2.3-1.5,3.1-2.3c0.4-0.4,0.6-1.2,0.5-1.7c-0.1-0.5-0.8-1-1.4-1.1c-0.4,0-0.8,0.7-1.2,1.1c-0.5,0.5-0.9,1-1.6,1.8
	C206.7,132.5,206.9,133.4,207.1,134.2z M105.4,149.4c0.7,2.6,0.1,5,1.8,7.1C109,153.4,108.5,151.2,105.4,149.4z M160.3,100.2
	c0.7-0.3,1-0.4,1.1-0.5c0.2-1.5,0.3-3,1.3-4.3c0.1-0.2-0.7-1.3-1.2-1.7c-0.2-0.2-1.4,0.5-1.4,0.8C160,96.4,160.2,98.2,160.3,100.2z
	 M413.2,250.5c1.4,0.9,4,0.4,4.2-0.8c0.1-0.7-0.6-2-1.1-2.1C414,247.1,413.9,249.2,413.2,250.5z M295.6,144.8
	c0.2,0.1,0.5,0.2,0.7,0.3c0.7-0.8,2.1-1.8,1.9-2.3c-0.4-1.2-1.6-2.1-2.4-3.2c-0.3,0.1-0.6,0.3-0.9,0.4
	C295.2,141.7,295.4,143.3,295.6,144.8z M205.6,122.3c1.1-0.5,2.3-0.7,3-1.5c0.4-0.4-0.1-1.9-0.6-2.6c-0.5-0.6-1.6-0.6-2-0.7
	C205.8,119.3,205.7,120.5,205.6,122.3z M262.1,324.8c0.2-0.2,0.5-0.4,0.7-0.6c-0.6-1.2-1.1-2.7-2-3.6c-0.4-0.4-1.9,0.4-2.9,0.6
	c0,0.3-0.1,0.5-0.1,0.8C259.2,323,260.7,323.9,262.1,324.8z M257,314.4c0-1.2,0.1-2.1-0.1-2.9c0-0.3-0.8-0.5-1.2-0.5
	c-0.7-0.1-1.5,0-2.6,0c-0.1,0.3-0.4,1-0.6,1.8C253.9,313.3,255.1,313.8,257,314.4z M47.2,54.3c0.4-4.7,0.4-4.7-0.9-5.6
	C44.5,51.3,44.2,53.8,47.2,54.3z M302.7,132.9c0,0.9-0.3,1.8,0,2.1c1.1,1.1,2.5,2.1,3.9,3.2c0.1-1.1,0.7-2.5,0.3-3
	C305.9,134.3,304.5,133.9,302.7,132.9z M408.7,202c0.6,1,0.9,2.1,1.6,2.7c0.3,0.2,1.7-0.5,2.2-1.1c0.4-0.6,0.3-1.6,0.3-2.5
	C411.4,201.4,410.4,201.6,408.7,202z M196.4,312c-1.2,0.1-2.5-0.2-2.9,0.2c-0.7,0.8-0.9,2-1.2,3.1c-0.1,0.2,0.6,0.8,0.9,0.8
	c0.3,0,0.8-0.3,1-0.7C194.9,314.6,195.4,313.6,196.4,312z M142.8,106.1c0.7-1.9,1.3-3.5,2.1-5.6C141.3,101.7,140.9,103,142.8,106.1z
	 M208.6,390.1c0.4-0.1,0.7-0.2,1.1-0.3c-0.8-2.9-1.6-5.7-2.5-8.6c-0.3,0.1-0.6,0.2-0.9,0.3C207,384.3,207.8,387.2,208.6,390.1z
	 M226.9,199.7c0.1,0.3,0.3,0.6,0.4,0.9c1.4-0.5,2.9-0.9,4.2-1.5c0.3-0.1-0.1-1.4-0.2-2.6C229.6,197.8,228.2,198.8,226.9,199.7z
	 M150.8,326.3c0.2,0.2,0.5,0.3,0.7,0.5c0.6-0.5,1.8-1,1.8-1.4c-0.1-1.2-0.7-2.4-1.1-3.6c-0.3,0-0.7,0.1-1,0.1
	C151.1,323.4,150.9,324.9,150.8,326.3z M256.6,111c0.2,0,0.5-0.1,0.7-0.1c-0.1-1.1,0.1-2.7-0.5-3.2c-0.7-0.6-2.2-0.1-3.3-0.1
	c0,0.2-0.1,0.5-0.1,0.7c0.6,0.4,1.2,0.7,1.7,1.2C255.6,109.9,256.1,110.5,256.6,111z M136.3,276.9c1.5,2,2.6,3.7,3.8,5.3
	c0.2-0.1,0.4-0.3,0.6-0.4C139.7,278,138.9,277,136.3,276.9z M292.5,167c-0.3,0-0.6-0.1-0.9-0.1c-0.2,0.7-0.4,1.4-0.6,2.6
	c-0.9-1.1-1.5-1.8-2.1-2.4c-0.2,0.1-0.5,0.2-0.7,0.3c0.3,1,0.5,2.2,1.1,3c0.2,0.3,1.9,0.1,2.3-0.4
	C292.2,169.1,292.2,167.9,292.5,167z M172.4,195.6c-1.6-1.1-2.9-0.7-3.6,0.8c-0.2,0.5,0.4,1.4,0.7,2.1c0.5-0.3,1.1-0.5,1.5-0.9
	C171.5,196.9,172,196.2,172.4,195.6z M197.3,128.3c0.2,0.3,0.3,0.6,0.5,1c1.2-0.5,2.5-0.9,3.6-1.5c0.2-0.1-0.2-1.3-0.5-2.6
	C199.4,126.5,198.3,127.4,197.3,128.3z M299.5,161c-0.2-0.1-0.4-0.2-0.5-0.4c-0.6,0.4-1.3,0.9-2,1.2c-0.7,0.3-1.5,0.6-2.2,0.8
	c0,0.3,0.1,0.6,0.1,0.9c1,0.1,2.2,0.6,2.8,0.2C298.5,163.2,298.9,161.9,299.5,161z M229.5,279.2c-0.7,1.9-0.5,3.4,1.4,4.4
	C231.8,280.3,231.6,279.8,229.5,279.2z M152.6,259.5c-1.7,2.3-1.7,4.7,0,7C152.6,264,152.6,261.9,152.6,259.5z M282,159.3
	c-0.4,0.1-0.9,0.1-1.3,0.2c0,1.3,0,2.6,0,3.9c0.6-0.2,1.6-0.4,1.7-0.6C282.4,161.6,282.2,160.4,282,159.3z M292,274.9
	c0-2.4-0.8-3.1-2.3-2.6c-0.6,0.2-0.9,1.1-1.4,1.7C289.5,274.2,290.6,274.5,292,274.9z M426.2,242.9c-2,2.3-1.7,5.3,0.6,6.5
	C426.6,247.4,426.4,245.3,426.2,242.9z M215.9,180.3c0.2,1,0.3,2,0.6,2.8c0.1,0.2,1.2,0.2,1.3,0.1c0.4-1.1,0.6-2.2,1-3.6
	C217.7,179.9,217,180.1,215.9,180.3z M190.1,326.8c0.2,0,0.4,0,0.6,0.1c0.4-0.7,0.8-1.4,1.1-2c0.3-0.6,0.6-1.2,0.9-1.8
	c0-0.1-0.6-0.5-0.7-0.4c-0.6,0.4-1.4,0.9-1.7,1.5C190,324.9,190.1,325.9,190.1,326.8z M254.5,257.8c-0.3-0.1-0.6-0.2-1-0.3
	c-0.3,0.9-1.1,1.9-0.8,2.6c0.2,0.6,1.5,0.8,2.4,1.1c0.1-0.2,0.3-0.5,0.4-0.7C255.2,259.6,254.8,258.7,254.5,257.8z M55.3,143
	c0-0.5,0.1-0.9,0.1-1.4c-1.2-0.1-2.4-0.3-3.6-0.3c-0.1,0-0.2,1-0.3,1.5C52.8,142.8,54,142.9,55.3,143z M408.4,213
	c0.2-0.1,0.4-0.1,0.6-0.2c0.2-0.5,0.4-1,0.5-1.5c0.2-0.8,0.3-1.7,0.4-2.5c-0.8,0.6-1.9,1-2.2,1.7C407.5,211.1,408.2,212.1,408.4,213
	z M68.9,26.1c-0.3-0.1-0.6-0.2-1-0.3c-0.5,1.2-1.1,2.4-1.5,3.7c-0.1,0.3,0.4,0.8,0.7,1c0.1,0.1,0.8-0.1,0.8-0.3
	C68.4,28.9,68.6,27.5,68.9,26.1z M225.2,154c0.3-0.1,0.7-0.3,1-0.4c-0.4-1.1-0.6-2.3-1.1-3.3c-0.1-0.2-1.3,0.3-2.3,0.5
	C223.8,152,224.5,153,225.2,154z M312.2,169.1c-1,0.1-1.8,0.1-2.6,0.2c-0.1,1.1-0.2,2-0.3,3C311.6,172.4,312.2,171.3,312.2,169.1z
	 M141.2,164.4c2.4-1.8,0.8-3.2,0.4-4.7c-0.3,0-0.6,0.1-0.9,0.1C140.8,161.3,141,162.8,141.2,164.4z M287.7,164.8
	c1.3-0.6,2.5-1.1,3.6-1.7c-0.2-0.4-0.4-0.8-0.6-1.2c-1.1,0.6-2.1,1.2-3.2,1.8C287.5,163.9,287.6,164,287.7,164.8z M144.3,169.4
	c-0.2,0.2-0.4,0.4-0.6,0.6c0,2.1,1.4,2.4,3,2.6c0.2-0.2,0.4-0.5,0.6-0.7C146.3,171,145.3,170.2,144.3,169.4z M40,275.5
	c1.8-1.3,0.2-2.6-0.3-3.8c-0.2-0.4-1.2-0.3-2.5-0.6C38.5,273,39.2,274.2,40,275.5z M106.1,145.7c-0.2,0.3-0.4,0.5-0.5,0.8
	c0.3,2.4,2.4,1.7,3.8,2.2c0.1-0.2,0.2-0.4,0.3-0.5C108.6,147.3,107.4,146.5,106.1,145.7z M190.8,175.3c-0.5,0.1-0.9,0.2-1.4,0.2
	c0.2,1,0.3,2.1,0.6,3.1c0.1,0.2,0.9,0.1,1.4,0.1C191.3,177.6,191.1,176.5,190.8,175.3z M148.9,281.4c2.3-1.1,2.4-2.3,0-4.2
	C148.9,278.8,148.9,280.1,148.9,281.4z M129.4,171.3c0.8-1.1,1.4-1.8,1.8-2.6c0.1-0.2-0.7-0.8-1.1-1.3c-0.6,0.7-1.2,1.4-1.7,2.2
	C128.3,169.9,128.9,170.5,129.4,171.3z M294.3,165.1c-0.3,1.5-0.6,2.7-0.9,4.6c1.4-1.3,2.3-2.1,3.3-3
	C296,166.1,295.4,165.8,294.3,165.1z M263.1,255.6c-0.4,0-0.8,0-1.2,0.1c0,0.9-0.2,1.8,0.1,2.6c0.1,0.3,1.2,0.3,1.9,0.4
	C263.5,257.6,263.3,256.6,263.1,255.6z M126.3,244c-0.4-0.1-0.8-0.1-1.2-0.2c-0.2,1.3-0.4,2.5-0.6,3.8c0.5,0.1,1,0.1,1.5,0.2
	C126,246.5,126.2,245.2,126.3,244z M132.3,63c-0.2,0.1-0.4,0.2-0.6,0.3c0.7,0.9,1.3,1.9,2.1,2.5c0.2,0.2,1.3-0.9,2.2-1.6
	C134.5,63.7,133.4,63.4,132.3,63z M285.4,268.4c0.8,1,1.2,1.7,1.8,2.2c0.2,0.2,1.3-0.2,1.3-0.5c0.2-0.6-0.1-1.3-0.1-2
	C287.5,268.1,286.9,268.2,285.4,268.4z M223.7,145.8c-2.6-0.9-3.8-0.5-4.9,1.8C220.7,146.9,222.2,146.4,223.7,145.8z M144.7,111.9
	c0.8,0.8,1.3,1.2,2,1.9c0.5-1.3,1-2.3,1.4-3.4c-0.2-0.1-0.3-0.3-0.5-0.4C146.8,110.6,145.9,111.2,144.7,111.9z"/>
</svg>
