<?xml version="1.0" encoding="utf-8"?>
<!-- Generator: Adobe Illustrator 26.0.2, SVG Export Plug-In . SVG Version: 6.00 Build 0)  -->
<svg version="1.1" id="Ebene_1" xmlns="http://www.w3.org/2000/svg" xmlns:xlink="http://www.w3.org/1999/xlink" x="0px" y="0px"
	 viewBox="0 0 256.5 136.3" style="enable-background:new 0 0 256.5 136.3;" xml:space="preserve">
<style type="text/css">
	.st0{fill-rule:evenodd;clip-rule:evenodd;fill:#B6B180;}
	.st1{fill:#FFFFFF;}
</style>
<g>
	<g>
		<path class="st0" d="M218.3,30.5c0.1,0,0.3,0.1,0.3,0.1c-0.6,1.1,1,2.2,0,3.2c-0.6,0.6-0.6,1.2-0.7,1.9c-0.2,0.9-1.2,1.6-1,2.6
			c0.2,1.1-0.1,1.2,1.6,2.2c0.7,0,0.7-1.1,1.8-0.5c0.9,0.5-0.2,1-0.6,1.5c0.8,0.7,2,1.2,3.4,1.4c3.7,0.5,5.6,2.1,7.1,3.8
			c1,1.1,1.7,2.2,1.6,3.5c-0.1,1,1.1,2,0.5,3.1c-0.8,1.5-2,2.7-4.7,3.3c-1.3,0.3-1.5,1.2-2.2,1.8c-0.9,0.7-0.7,1.3,0.8,1.9
			c0.8,0.3,1.5,0.9,0.5,1.6c-0.5,0.3-0.5,0.7-0.2,1.1c0.9,0.8,0.6,1.6,0.2,2.5c-0.4,0.8-0.3,1.5-0.4,2.3c-0.1,1-0.8,2-0.8,3
			c-0.1,2.2-1.7,4.3-2.4,6.4c-0.7,2.1,0.1,4.1,1.9,6c1.2,1.3,1.2,2.8,0.6,4.1c-0.5,1.2-1.1,2.3-1.4,3.5c-0.6,1.9-2.7,3.1-4.8,4.4
			c-2.1,1.3-4,2.6-5.4,4.2c-0.8,0.9-1.7,1.8-2.9,2.5c-3.2,1.8-5.7,4-9.5,5.6c-2.3,0.9-4.4,2.1-7,2.6c-3.5,0.7-6.4,2-9.5,3.1
			c-1,0.4-1.5,1-2.3,1.4c-1.9,1-4.4,1.7-6.4,2.6c-3.3,1.5-7.2,2.6-10.8,3.9c-3.6,1.3-6.8,3-11.2,3.5c-1.3,0.1-2.3,0.9-3.6,1.4
			c-3.7,1.2-8,1.8-11.1,3.4c-2.7,1.4-6.1,1.8-9,2.9c-1.3,0.5-2.7,0.8-4.1,1.2c-3.6,0.9-7.1,1.8-11.1,2c-1.5,0.1-3,0.4-4.5,0.6
			c-1.5,0.2-2.9,0.3-4.3-0.2c-0.2-0.1-0.4-0.2-0.5-0.1c-2.5,0.6-4.8-0.4-7.3-0.3c-1.8,0.1-3.5-0.5-5.1-0.9c-3.4-0.8-6.1-2.2-8.8-3.8
			c-1.8-1.1-4.1-2.1-7.1-2.1c-1.8,0-2.9-0.9-4.2-1.5c-1.6-0.7-2.9-1-4.7-0.5c-0.8,0.2-1.7,0.3-2.5,0.1c-0.9-0.2-1.5-0.2-2.3,0.2
			c-1,0.5-2.2,0.1-2.9-0.4c-2-1.4-4.4-1.7-7.4-1.3c-4.1,0.6-7.9,0.1-11.5-1.3c-1.7-0.6-3.5-1.3-5.6-1.7c-1.7-0.3-2.8-1.1-4-1.7
			c-3.9-2.3-7.2-4.9-9.6-7.7c-0.6-0.7-0.8-1.5-0.6-2.3c0.3-2.2-0.5-4.5,1.1-6.6c0.2-0.3,0.2-0.7-0.1-0.9c-0.9-0.8-0.4-1.4,0.5-2
			c2-1.4,3.1-3.1,5.8-4.1c0.3-0.1,0.5-0.5,0.4-0.5c-1.3-0.8-0.9-2.2-2.8-2.7C24,92.9,20.8,92,17.9,91c-4.2-1.5-7.5-3.4-8.9-6.2
			c-0.7-0.2-1.1,0.3-1.8,0.1c0-2.4,4.4-4.3,2.7-7.1c1.2,1,2.2,0.5,3.1,0c0.7-0.4,1.4-0.9,2.5-0.8c2.3,0.4,4-0.3,5.7-1.1
			c-1-0.8-0.8-1.8-1.2-2.6c-0.3-0.6,0.2-1.3,1.5-1.2c2.3,0.2,3.5-0.5,4.1-1.7c0.9,0.3,1.2,0.8,2,0.9c0.5,0.1,0.8,0.3,0.5,0.7
			c-0.3,0.3-0.7,0.5-1.4,0.4c-1.9-0.5-2.5,0.2-2.6,1c0,0.9-1.6,1.1-1.9,1.9c1.9,0.3,3.1,0,3.1-0.8c0-0.8,0.9-1,1.9-1.2
			c1.5-0.3,3.1-0.4,4.5-1c1.5-0.8,1.6-1.8,0.5-2.7c-1-0.9-2.4-1.3-4.2-1.5c-1.4-0.2-1.7-1-2.1-1.7c-0.8-1.2-1.7-2.3-4-2.8
			c-0.7-0.2-1.2-0.5-0.4-0.9c0.4-0.2,0.4-0.6,0.2-0.8c-1.2-1.1-0.7-2.5-2-3.5c-0.1-0.1-0.2-0.2-0.1-0.2c2.3-1.9-0.3-3.5-1.1-5.2
			c-0.5-1.2,0.2-2.1,1-3c0.6-0.8,1.8-0.2,2.8,0.1c1.2-0.5,2.3-1.1,2.2-2c-0.2-1.5,1.4-2.7,2.2-4c0.5-0.9,0.6-1.7,0.4-2.5
			c-0.1-0.7,0.2-1.1,0.8-1.6c1.4-1.2,2.5-2.6,1.7-4.2c-2.8,0.3-2.2,0.5-3.2-1.5c1.1-0.5,2-0.1,3,0.1c1-1.3,1.3-2.7,2.4-3.9
			c1.3-1.4,3.7-2.2,5.2-3.5c2.2-1.8,5.6-3.1,7.4-5.1c0.1-0.1,0.2-0.2,0.3-0.3c2.5-0.5,3.4-2.1,5.9-2.5c0.7-0.1,1.5-0.4,1.8-0.8
			c1.1-1.7,3.7-2.6,5.9-3.7c2.3-1.2,4.3-2.5,6.8-3.5c0.6-0.2,1.1-0.6,1.7-0.6c1.9,0,3.3-0.8,4.9-1.2c3.8-0.9,7.6-1.6,11.7-1.3
			c0.6,0,1.3,0.1,1.9-0.1c2.8-0.7,5.3,0,8,0.3c3.2,0.3,6.1,1.2,9.4,1.1c1.1,0,1.9,0.2,2.7,0.6c2,1,4.2,0.6,5.2-0.8
			c1.2-1.7,1.5-1.7,4.7-1.8c2.7-0.2,5.5-0.1,8.1-0.7c1.4-0.3,2.8-0.2,4.3-0.4c1.2-0.2,2.5-0.1,3.3-0.9c0.4-0.4,4.4,0.1,5.2,0.3
			c2.7,0.6,4.9,1.7,7.7,2c1,0.1,2-0.1,3.1-0.1c0.7,1.1,2,1.9,4.1,2.3c1,0.2,2,0.2,2.8-0.2c0.7-0.4,0.2-0.9-0.1-1.3
			c-0.3-0.5-0.8-0.9-0.2-1.5c0.6-0.6-0.9-0.7-1.1-1.1c0.7-0.2,1.4-0.3,2.2-0.3c0.9,0.8,0.9,2,3.4,2.2c1.8,0.2,3.5,0.6,5.5,0.3
			c-0.4,0.8-1.2,0.6-1.8,0.7c-0.9,0.1-1.9,0.4-1.9,0.9c0,0.5-0.1,1.2,0.8,1.6c0.8,0.3,2,0.5,3,0.3c1.2-0.2,0.5-0.9,0.8-1.4
			c0.8,0,1.5-0.4,2.5-0.3c-0.5,0.5-0.9,0.9-1.3,1.3c-1.9,2-0.4,3.8,3.5,4.1c0.8,0.1,1.6,0.2,2.4,0.2c1.6,0.1,3-0.1,3.4-1.2
			c0.2-0.5,1-0.9,1.6-1.3c0.5-0.4,1.1-0.2,1.7-0.1c0.6,0.2,1.2,0.4,1.2,0.9c0,0.4-0.4,0.6-1.1,0.7c-2.2,0.5-2.7,1.6-1.3,2.6
			c1.1,0.7,1.9,0.6,2.5-0.3c0.2-0.3,0.2-0.6,0.8-0.7c1.2,1.2,1.3,1.2,3.2,0.1c0.4,0.1,0.4,0.2,0.4,0.4c-0.1,0.3-0.5,0.8,0.4,0.9
			c0.9,0.1,0.8-0.4,1-0.7c0.2-0.5,1-0.5,1.6-0.6c0.7-0.1,0.9,0.3,1.1,0.6c0.1,0.3,0.4,0.5,1.2,0.5c0.2-1-1-2.3,1.5-2.9
			c0.2,0.1,0.7,0.3,1.3,0.5c-0.8,0.6-3,1-1.6,1.8c1.7,0.9,1.9-0.8,3.3-1c0.2,0.5-0.7,1.2,0.6,1.6c0.3,0.1-0.1,0.5-0.4,0.5
			c-2.8-0.5-4.9,0.7-7.4,1.2c0-0.9-0.6-1.1-2-0.8c-1.3,0.3-1.4,0.7-1,1.3c0.7,0.9,0.7,1.9,0.7,3c1.3-0.7,2.6-1.4,4-1.9
			c1-0.4,1.9-0.5,2.8-0.1c0.8,0.3,1.3,0.5,2.1,0c0.8-0.4,0.2-0.8-0.2-1.3c1.5,0.1,2.6,0.2,2.9,1.2c1.4-0.7,2.6,0.5,3.9,0
			c-0.1-0.7-1.3-0.5-1.8-0.9c0.9-0.3,1.7,0,2.7,0.2c-0.1-0.5-1-0.9,0.2-1.1c0.6-0.1,1.2-0.2,1.7,0.1c0.6,0.5,0.3,0.8-0.4,1.1
			c-0.7,0.3-0.6,0.7-0.6,1c-2.6,0.5-4.5,1.5-3.9,2.2c0.7-0.2,0.7-0.9,1.9-0.6c0.9,0.2,0.6,0.6,0.5,1c0.5,0.1,1,0.1,1.3,0.2
			c0.6,0.4-0.3,0.5-0.2,0.9c1.4,0,0.7,1.2,2.3,1.2l0,0c-1.1,0.6-2.5,0.7-3.7,0.9c-0.8,0.1-1.8,0-1.7,0.6c0.1,0.6,1.2,0.5,2,0.4
			c0.3,0,0.6-0.1,0.9-0.2c0.5,0.7,1.2,1.3,2.5,1.6c0.2-0.6,1.3-1.1,0.2-1.9c3,0.5,3.7,1.9,4.7,3.1c1,1.3,2.1,1.5,4.4,0.9
			c-0.4-0.7,1.2-2.6,2.4-2.8c0.6-0.1,1,0,1.3,0.2C217.2,29.2,218.5,29.6,218.3,30.5c0,0.1-0.3,0.1-0.1,0.2
			C218.2,30.6,218.2,30.6,218.3,30.5z M40.4,50.3c0.1,0.4,0.4,1,1.4,0.9c1,0,1.2-0.6,1.2-1c0-0.6-0.8-0.7-1.7-0.7
			C40.5,49.5,40.4,49.8,40.4,50.3z M39.8,53c-0.6,0-1,0.2-0.9,0.5c0,0.4,0.5,0.8,1.3,0.8c0.7,0,1.1-0.4,1-0.8
			C41.1,53.1,40.3,53.1,39.8,53z M181.2,18.3c-1.3,0.6-1.4,1.2-0.8,2C181.8,19.7,181.9,19.1,181.2,18.3z M177.8,21.8
			c-0.3-0.5-0.6-1.1-1.8-1.4C175.9,21.3,176.3,21.7,177.8,21.8z M194.9,20.9c-0.5,0-0.7,0.1-0.8,0.3c-0.1,0.3,0.1,0.5,0.6,0.5
			c0.4,0,0.7-0.1,0.8-0.3C195.6,21.1,195.4,20.9,194.9,20.9z M216.2,31.6c0.1,0,0.1,0.1,0.2,0.1c0,0,0.1-0.1,0.1-0.1
			C216.4,31.6,216.4,31.5,216.2,31.6C216.3,31.5,216.3,31.5,216.2,31.6z"/>
		<path class="st0" d="M236.1,80.7c-0.1,0.6-0.8,0.8-1.4,1c-1.1,0.5-1.9,1-1.8,1.9c0.1,1-2.9,1.4-4.2,1.1c-0.5-0.1-0.6-0.4-0.4-0.6
			c0.6-0.7,0.5-1.6,2.2-1.8c0.6-0.1,1.1-0.5,1.4-0.8C233.5,80.2,233.5,80.2,236.1,80.7z"/>
		<path class="st0" d="M234.5,77.7c-0.2,0.2-0.5,0.4-0.9,0.7c-0.6-0.7-2.9-0.3-2.5-1.5c0.3-0.9,1.7-0.7,2.9-0.7
			c-0.9-0.6-1.6-1.1-0.7-1.9c-0.9-0.3-3.1-0.2-1.5-1.4c0.4-0.2,0.9,0.5,1.5,0c0.3-0.3,0.4-0.6,1.4-0.6c-0.1,0.5-0.2,1-0.1,1.4
			c0,0.5-0.7,1.1,0.8,1.4c0.7,0.2-0.6,1.7-1.8,2C233.4,77.5,234.2,77.5,234.5,77.7L234.5,77.7z"/>
		<path class="st0" d="M0.8,64.8c0.3-0.7-0.3-1.4-0.6-2.1c-0.3-0.6-0.3-1.1,0.3-1.7c0.5,0.1,1.1,0.2,1.6-0.1c0.6-0.3,1.2-0.3,1.9,0
			c0.6,0.3,0.3,0.6,0.2,1C4,62.6,3,62.9,2.2,63.4c0.2,0.5,1.1,0.7,1.6,1.1c0,0.4-0.7,0.5-1,0.8C2,65.1,1.7,64.6,0.8,64.8L0.8,64.8z
			 M1.6,63L1.6,63L1.6,63L1.6,63z"/>
		<path class="st0" d="M4.8,75.5c-0.3-0.8-2.1-0.9-2.2-1.7c1.8-0.4,3.6,1.2,5-0.2c0.6,0.3,0.4,0.5,0.1,0.7c-1.1,0.6-1.5,1.2-0.8,2.1
			c0.5,0.6-0.7,1.1-1.9,0.9C4.5,77.2,4,77,3.4,76.9C3.1,76.1,4.2,75.9,4.8,75.5z"/>
		<path class="st0" d="M232.9,67.1c1.5-0.4,2,0.4,2.3,0.8c0.3,0.6,0.8,1.2,0.6,1.9c-1,0.5-3,0-3.3,1.1c0,0.2-0.6,0-1.1-0.2
			C233.2,69.7,232,68.3,232.9,67.1L232.9,67.1z M234.2,68l-0.1,0L234.2,68L234.2,68z"/>
		<path class="st0" d="M221.1,36.1c-0.5-0.9-1.1-1.2-2.1-1.1c0-1.2,1.4-1.7,2.7-2.2c0.9-0.3,1.2,0.1,1.3,0.5
			c0.2,0.6,0.3,1.2,1.9,1.5C223.6,35.4,221.9,34.9,221.1,36.1z"/>
		<path class="st0" d="M241.5,65.3c-3.4,0-3.4,0-4.7,0.5c-0.9-0.4-1.1-1.3-2.9-1.3c0.9-0.5,1.5-0.9,2.2-1.3
			C238.3,63.3,239.6,64.3,241.5,65.3z"/>
		<path class="st0" d="M7.7,62c1.4-0.1,2.4-0.4,3.5-0.6c0.5-0.1,1.1-0.1,1.5,0.2c0.5,0.4,0,0.6-0.4,0.8C10.3,63.5,9,63.5,7.7,62z"/>
		<path class="st0" d="M238.6,50.9c-0.5-0.5-0.9-0.9-1.3-1.3c-0.4-0.3-0.5-0.6,0-1c0.3-0.2,0.7-0.5,1.3-0.3c0.6,0.2,1.5,0.4,1.4,0.9
			C239.7,49.9,239.6,50.5,238.6,50.9z"/>
		<path class="st0" d="M17.2,43.1c0.3-0.4,1-0.2,1.2-0.5c-0.4-0.7-2-0.1-2.5-0.8c0.8-0.7,2,0,2.9-0.2c0.5,0.5,0.1,1,0.9,1.3
			c0.5,0.2,0.5,0.7,0,1c-0.6,0.3-1-0.1-1.4-0.3C17.9,43.4,17.5,43.3,17.2,43.1z"/>
		<path class="st0" d="M20.9,34.1c0.9,0,1.9-0.3,2.7,0.4c-0.8,0.3-2.1,0.4-1.2,1.2c0.3,0.3-0.3,0.5-0.7,0.7c-0.3,0.1-0.7,0.1-1-0.1
			c-0.4-0.2-0.3-0.5,0-0.7C21.3,35.1,20.4,34.6,20.9,34.1z"/>
		<path class="st0" d="M228.9,79.8c-0.8-0.9-0.3-1.6,0.4-2.3c0,0.3-0.1,0.6-0.1,1c0.7,0.4,1.7,0.1,2.6,0.5
			C231.1,79.7,229.7,79.3,228.9,79.8z"/>
		<path class="st0" d="M11.6,75.5c-0.1-0.7,0-1.4-0.9-2c1.9,0,2.7,0.6,2.9,2.1c-0.6,0-0.4-0.4-0.9-0.5
			C12.3,75.1,12.3,75.7,11.6,75.5z"/>
		<path class="st0" d="M153.4,3.8c-0.8-0.8,0.2-1.3,0.2-1.9c0-0.6-0.5-1.2-1.1-1.7C154.5,0.4,154.8,1.8,153.4,3.8z"/>
		<path class="st0" d="M5.5,69.1c1,0,1.2,0.4,1.8,0.5c0.6,0.1,1.2-0.7,2.1-0.1c-1.3,0.9-3.2,0.2-5,0.7C4.9,69.7,5.2,69.4,5.5,69.1z"
			/>
		<path class="st0" d="M19.2,94.2c-0.7-0.1-1.3-0.3-1.3-0.7c0.1-0.5,0.9-0.5,1.5-0.6c0.6,0,0.9,0.2,0.9,0.5
			C20.3,93.8,20,94.1,19.2,94.2z"/>
		<path class="st0" d="M249.9,69.5c1.1,1.1,1,1.7-0.4,2.3C250.3,71,247.7,70.2,249.9,69.5L249.9,69.5z"/>
		<path class="st0" d="M202.8,23c-0.7-0.1-1.7-0.3-1.5-0.8c0.1-0.4,0.7-1.1,1.5-1c1.2,0.1,0.5,0.6,0.3,1
			C202.9,22.4,203.3,22.7,202.8,23z"/>
		<path class="st0" d="M8.7,60.7c-2.1,0.3-3.4,0.1-4-1c1.3,0.6,2.5,0.8,3.6,0.1C9,60,8.6,60.4,8.7,60.7L8.7,60.7z"/>
		<path class="st0" d="M171.8,11.6c-0.8-0.5-0.8-1-0.3-1.3c0.8-0.5,1.7,0.1,2.6,0.1C173.2,10.6,172.5,11,171.8,11.6z"/>
		<path class="st0" d="M179.3,12.5c-0.5-0.2-0.6-0.6-0.4-0.6c1.4-0.3,2.4-0.9,3.9-1.1c0.1,0.1,0.2,0.2,0.3,0.3
			C181.8,11.6,180.6,12,179.3,12.5z"/>
		<path class="st0" d="M173.9,9c0.3,0.3,1,0.3,0.9,0.8c-1-0.1-2.5,0.4-2.8-0.4C171.7,8.8,173.2,9,173.9,9L173.9,9z"/>
		<path class="st0" d="M248.8,76.1c-0.6-0.3-1.3-0.6-2.1-1c1.1-0.3,2-0.3,2.6,0.1C249.9,75.5,249.5,75.8,248.8,76.1z"/>
		<path class="st0" d="M17.2,70.7c0.8,0.4,1.3,0.8,1.1,1.4c-0.9,0.2-1.5-0.2-1.8-0.5C16.1,71.2,16.7,70.9,17.2,70.7z"/>
		<path class="st0" d="M171.5,8.4c-0.3,0.7-1.1,0.9-2,0.8c-0.6-0.1-0.6-0.4-0.4-0.6C169.7,8.2,170.5,8.2,171.5,8.4z"/>
		<path class="st0" d="M15.9,58.4c1.2,0.3,1.2,0.8,0.9,1.3c-0.2,0.4-0.6,0.6-1.4,0.4C15.4,59.5,16.7,59.1,15.9,58.4z"/>
		<path class="st0" d="M173.9,9c-0.1-0.2-0.3-0.3-0.4-0.5c-0.2-0.3-0.2-0.6,0.4-0.7c0.5-0.1,1-0.1,1.3,0.2c0.3,0.3,0,0.6-0.3,0.8
			C174.6,8.8,174.2,8.9,173.9,9L173.9,9z"/>
		<path class="st0" d="M178.3,11.6c-1.1-0.7-2.3,0.2-3.2-0.5C178.1,10.5,178.1,10.5,178.3,11.6z"/>
		<path class="st0" d="M20.1,39.1c0.3,0.6,0.6,1.2,0.9,1.8c-1.2-0.4-1.7-1-1.4-1.7C19.7,39.1,19.9,39.1,20.1,39.1z"/>
		<path class="st0" d="M8.8,72.7c-0.7-0.9,0.2-1.3,1-1.9C10,71.6,9.8,72.2,8.8,72.7z"/>
		<path class="st0" d="M16.9,33.4c-0.3,0.6-0.5,1-1.4,1c-0.4,0-0.8-0.3-0.6-0.5C15.1,33.4,15.9,33.4,16.9,33.4z"/>
		<path class="st0" d="M246.4,73c-1-0.7-0.8-1.2,0.5-1.5C247.2,72,247,72.4,246.4,73z"/>
		<path class="st0" d="M179.6,8.8c0.4,0.5,0.1,0.8-0.6,1.1C177.9,9.2,177.9,9.1,179.6,8.8z"/>
		<path class="st0" d="M16.5,67c-0.9-0.1-1.7-0.1-2.3-0.3C15.2,66,15.7,66.1,16.5,67z"/>
		<path class="st0" d="M23.5,44.6c1,0.3,1.4,0.5,1.2,0.9c-0.1,0.1-0.4,0.2-0.6,0.1C23.2,45.5,23.5,45.1,23.5,44.6z"/>
		<path class="st0" d="M185.2,10.9c-1.5,0.1-2-0.4-2.7-0.7C183.7,10,184.3,10.4,185.2,10.9z"/>
		<path class="st0" d="M169.1,6.5c-0.9,0.3-1.8,0.8-3.2,0.7C167,6.8,168,6.6,169.1,6.5z"/>
		<path class="st0" d="M10.9,44.2c-0.5-0.4-0.9-0.6-1.2-0.8c0.2-0.4,0.6-0.4,1.2-0.4C10.9,43.3,10.9,43.7,10.9,44.2z"/>
		<path class="st0" d="M12.4,47.7c-0.6-0.2-1.4-0.3-1.7-0.9C11.8,46.9,12.2,47.2,12.4,47.7z"/>
		<path class="st0" d="M9.2,88.1c0.4,0.7,0.2,1.3,0.2,2.1C8.9,89.3,8.5,88.8,9.2,88.1z"/>
		<path class="st0" d="M211,28.2c-1.3-0.2-1.9-0.5-2.7-1.1C209.6,27.3,210.2,27.5,211,28.2z"/>
		<path class="st0" d="M19.3,62.9c-0.8-0.5-1.3-0.7-1.4-1.3C18.9,61.8,19.3,62.1,19.3,62.9z"/>
		<path class="st0" d="M154.8,4c1.1,0.2,1.1,0.2,0.7,0.8C154.6,4.7,154.9,4.3,154.8,4z"/>
		<path class="st0" d="M256.5,66.7c-0.2,0.5-0.4,0.9-0.5,1.4C255.2,67.5,255.5,67.2,256.5,66.7z"/>
		<path class="st0" d="M10.5,76.9c-0.6-0.3-1.1-0.7-1.9-1.1C9.7,76,10.3,76.3,10.5,76.9z"/>
		<path class="st0" d="M249.9,69.5c-0.7-0.7,0.1-0.8,1.2-1C251.1,69.1,250.5,69.3,249.9,69.5L249.9,69.5z"/>
		<path class="st0" d="M18.3,33.9c0.2-0.3,0.5-0.4,0.9-0.4c0.3,0,0.6,0,0.8,0.2c0,0.3-0.5,0.3-0.8,0.3
			C18.9,34.1,18.6,34.1,18.3,33.9z"/>
		<path class="st0" d="M203.6,25.8c0.6-1,1.2-0.3,2.1-0.1C204.9,26,204.2,25.7,203.6,25.8L203.6,25.8z"/>
		<path class="st0" d="M158.7,0.8c-0.1-0.5,0.4-0.7,1-0.8C159.7,0.5,159.7,0.5,158.7,0.8z"/>
		<path class="st0" d="M166.4,5.4c-0.9,0.1-1.3,0-1.6-0.3C165.6,4.9,166,4.9,166.4,5.4z"/>
		<path class="st0" d="M228.1,58.7c0,0.4-0.2,0.7-1,1C226.9,59.1,227.6,59,228.1,58.7z"/>
		<path class="st0" d="M159.1,7.1c0.2-0.4,0.6-0.5,1.4-0.3C160.2,7.2,159.8,7.3,159.1,7.1z"/>
		<path class="st0" d="M238.8,70c0.3,0.5,0.3,0.5-0.3,0.8C238,70.5,238.1,70.3,238.8,70z"/>
		<path class="st0" d="M8.8,67.3c-0.9,0.3-1.4,0-2.1-0.3C7.6,66.9,8.2,67,8.8,67.3z"/>
		<path class="st0" d="M5.9,72.2c1-0.1,1.3,0.1,1.5,0.6C6.6,72.8,6.2,72.7,5.9,72.2z"/>
		<path class="st0" d="M240.7,79.7c0.5,0.4,0.3,0.7-0.2,1C239.9,80.3,239.9,80.1,240.7,79.7z"/>
		<path class="st0" d="M226.1,78.2c0-0.4-0.1-0.8,0.6-1.3C226.9,77.5,226.4,77.8,226.1,78.2z"/>
		<path class="st0" d="M224.5,79.4c0.8-0.1,1.2-0.1,1.7,0.3C225.5,79.9,225,79.8,224.5,79.4z"/>
		<path class="st0" d="M16,64.4c-0.7,0-1-0.1-1-0.5C15.8,63.8,16,64,16,64.4z"/>
		<path class="st0" d="M240.7,68.4c-0.2,0.3-0.4,0.4-0.6,0.3c-0.2-0.1-0.4-0.2-0.4-0.3c0-0.2,0.3-0.2,0.5-0.2
			C240.4,68.3,240.6,68.4,240.7,68.4z"/>
		<path class="st0" d="M11.8,70.7c0.3,0,0.5,0.1,0.5,0.3c0,0.2-0.2,0.3-0.5,0.3c-0.3,0-0.4-0.2-0.3-0.3
			C11.4,70.8,11.5,70.7,11.8,70.7z"/>
		<path class="st0" d="M244.3,75.8c0.1,0.4,0.1,0.7-0.5,0.8C243.3,76.3,243.6,76.1,244.3,75.8z"/>
		<path class="st0" d="M12.3,40.5c0.7-0.1,1.1,0.1,1.2,0.5C12.8,41,12.4,40.9,12.3,40.5z"/>
		<path class="st0" d="M18,38.1c0.4,0.3,0.1,0.5-0.1,0.7C17.1,38.5,17.3,38.3,18,38.1z"/>
		<path class="st0" d="M13.5,57.3c-0.1,0.1-0.2,0.2-0.4,0.3c-0.3,0.1-0.5,0-0.5-0.2c0-0.1,0.2-0.3,0.3-0.3
			C13.2,57,13.4,57,13.5,57.3z"/>
		<path class="st0" d="M2.8,67.4c0,0.3-0.3,0.4-0.6,0.4c-0.3,0-0.4-0.1-0.4-0.3c0-0.2,0.1-0.4,0.5-0.3C2.5,67.2,2.6,67.3,2.8,67.4z"
			/>
		<path class="st0" d="M7.7,64.3c0.4,0.1,0.5,0.2,0.5,0.3c0,0.1-0.2,0.2-0.4,0.2c-0.3,0-0.4-0.1-0.4-0.3C7.4,64.4,7.6,64.4,7.7,64.3
			z"/>
		<path class="st0" d="M210.1,26.2c0.7-0.1,0.9,0,1.5,0.2C210.9,26.6,210.6,26.5,210.1,26.2z"/>
		<path class="st0" d="M248,73.7c-0.5-0.4-0.4-0.6-0.1-0.9C248.2,73.1,248.2,73.3,248,73.7z"/>
		<path class="st0" d="M177,7.6c0,0.3-0.3,0.4-0.7,0.3c-0.1,0-0.2-0.1-0.1-0.2C176.3,7.5,176.6,7.5,177,7.6z"/>
		<path class="st0" d="M173.8,14.6c-0.1-0.3,0-0.5,0.5-0.6C174.5,14.3,174.4,14.5,173.8,14.6z"/>
		<path class="st0" d="M227.1,40.3c0.3-0.6,0.7-0.6,1-0.7C228.4,40.1,227.8,40,227.1,40.3z"/>
		<path class="st0" d="M25,41.7c0.3,0,0.5,0.1,0.5,0.2c0,0.2-0.2,0.3-0.4,0.3c-0.1,0-0.3-0.1-0.4-0.2C24.6,41.8,24.7,41.7,25,41.7z"
			/>
		<path class="st0" d="M14.5,68.1c-0.1,0-0.3-0.1-0.3-0.2c-0.1-0.2,0.1-0.3,0.4-0.2c0.1,0,0.3,0.1,0.3,0.2
			C14.9,68,14.8,68.1,14.5,68.1z"/>
		<path class="st0" d="M236.3,71c0.1-0.3-0.1-0.6,0.7-0.8C237.2,70.6,236.6,70.8,236.3,71L236.3,71z"/>
		<path class="st0" d="M245.1,81c0.1,0.1,0.3,0.2,0.3,0.3c0,0.1-0.2,0.1-0.3,0.2c-0.1-0.1-0.3-0.1-0.3-0.2
			C244.7,81.2,244.9,81.1,245.1,81z"/>
		<path class="st0" d="M15.8,60.5c0.2,0.1,0.4,0.1,0.5,0.2c0.2,0.2,0,0.3-0.3,0.3c-0.1,0-0.3-0.1-0.4-0.2
			C15.6,60.7,15.7,60.6,15.8,60.5z"/>
		<path class="st0" d="M232.4,87.5c-0.1-0.1-0.2-0.2-0.3-0.3c0,0,0.2-0.1,0.2-0.1c0.1,0,0.3,0.1,0.4,0.1
			C232.6,87.3,232.5,87.3,232.4,87.5z"/>
		<path class="st0" d="M8.3,50.1c-0.2,0.1-0.3,0.1-0.4,0.2c-0.1-0.1-0.2-0.2-0.3-0.2c0,0,0.2-0.1,0.2-0.1C7.9,50,8.1,50,8.3,50.1z"
			/>
		<path class="st0" d="M6.9,51.2c0.1,0.1,0.3,0.1,0.3,0.1c-0.1,0.1-0.2,0.1-0.3,0.2c0,0-0.3-0.1-0.2-0.1C6.7,51.4,6.8,51.3,6.9,51.2
			z"/>
		<path class="st0" d="M231.4,75.3c0,0.2-0.2,0.2-0.4,0.2c-0.1,0-0.2-0.1-0.2-0.1c-0.1-0.1,0-0.2,0.2-0.2
			C231.2,75.1,231.4,75.2,231.4,75.3z"/>
		<path class="st0" d="M176.8,8.6c0.1,0.1,0.2,0.1,0.2,0.2c0,0.1-0.2,0.2-0.4,0.1c-0.1,0-0.1-0.1-0.1-0.2
			C176.5,8.6,176.7,8.6,176.8,8.6z"/>
		<path class="st0" d="M11,57.6c-0.1-0.1-0.3-0.2-0.2-0.2c0.1-0.1,0.2-0.1,0.3-0.2c0.1,0,0.2,0.1,0.2,0.1
			C11.3,57.4,11.2,57.5,11,57.6z"/>
		<path class="st0" d="M23.3,38.4c-0.2,0-0.3,0.1-0.4,0.1c0,0-0.2-0.1-0.2-0.1c0.1-0.1,0.2-0.1,0.4-0.2
			C23.1,38.2,23.2,38.3,23.3,38.4z"/>
		<path class="st0" d="M203.2,13.3c0.1,0,0.3,0.1,0.4,0.2c0.1,0.1,0,0.2-0.2,0.2c-0.2,0-0.3-0.1-0.4-0.1
			C202.8,13.4,202.9,13.3,203.2,13.3z"/>
		<path class="st0" d="M25,43.3c-0.2,0.1-0.3,0.2-0.4,0.2c-0.1,0-0.3-0.1-0.3-0.2c0-0.1,0.2-0.2,0.3-0.2
			C24.7,43.1,24.8,43.2,25,43.3z"/>
		<path class="st0" d="M13.2,44.1c0.1,0.1,0.2,0.1,0.2,0.2c0,0-0.2,0.1-0.2,0.1c-0.1-0.1-0.2-0.1-0.2-0.2
			C13,44.1,13.1,44.1,13.2,44.1z"/>
		<path class="st0" d="M0.8,69.5C0.9,69.6,1,69.7,1,69.8c-0.1,0-0.2,0.1-0.3,0.1c-0.1,0-0.2-0.1-0.3-0.2C0.5,69.6,0.6,69.6,0.8,69.5
			z"/>
		<path class="st0" d="M239,73.8c0.1,0,0.2,0.1,0.2,0.1c0.1,0.1,0,0.2-0.2,0.2c-0.1,0-0.2-0.1-0.2-0.1
			C238.8,73.9,238.9,73.8,239,73.8z"/>
		<path class="st0" d="M239.7,71.4c0.1,0,0.2,0.1,0.2,0.1c0,0.1-0.1,0.2-0.3,0.2c-0.1,0-0.2-0.1-0.1-0.2
			C239.5,71.5,239.7,71.4,239.7,71.4z"/>
		<path class="st0" d="M197.9,18.5c0.2-0.1,0.4-0.1,0.5-0.1c0.1,0,0.2,0.1,0.3,0.1c-0.1,0.1-0.2,0.2-0.3,0.2
			C198.4,18.8,198.2,18.7,197.9,18.5z"/>
		<path class="st0" d="M4.1,111.4c-0.2,0-0.3,0.1-0.4,0.1c0,0-0.2-0.1-0.2-0.1c0.1-0.1,0.2-0.1,0.4-0.2C3.9,111.3,4,111.3,4.1,111.4
			z"/>
		<path class="st0" d="M159.6,2.5c-0.1,0-0.1,0.1-0.2,0.1c-0.1,0-0.2-0.1-0.3-0.1c0.1,0,0.1-0.1,0.2-0.1
			C159.4,2.4,159.5,2.5,159.6,2.5z"/>
		<path class="st0" d="M134.3,2.7c-0.1,0-0.2,0.1-0.3,0c-0.1,0-0.1-0.1-0.1-0.2c0.1,0,0.2,0,0.3,0C134.2,2.6,134.3,2.7,134.3,2.7z"
			/>
		<path class="st0" d="M18.7,55.2c-0.1,0.1-0.1,0.2-0.2,0.2c-0.1,0-0.3,0-0.4-0.1c0,0,0.1-0.2,0.1-0.2
			C18.4,55.1,18.5,55.2,18.7,55.2z"/>
		<path class="st0" d="M236.3,71c0,0.2,0.1,0.4-0.5,0.4C235.6,71.1,236.1,71.1,236.3,71L236.3,71z"/>
		<path class="st0" d="M17.6,74.9c-0.1,0-0.2,0-0.3,0c0,0,0-0.1,0-0.1C17.4,74.8,17.5,74.8,17.6,74.9C17.6,74.8,17.6,74.9,17.6,74.9
			z"/>
		<path class="st0" d="M11,60.2c-0.1,0-0.1,0.1-0.2,0.1c-0.1,0-0.2-0.1-0.2-0.1c0,0,0.1-0.1,0.2-0.1C10.8,60.1,10.9,60.1,11,60.2z"
			/>
		<path class="st0" d="M17.9,46.5c0-0.1,0.1-0.1,0.1-0.2c0.1,0,0.2,0.1,0.2,0.1c0,0-0.1,0.1-0.1,0.2C18.1,46.6,18,46.6,17.9,46.5z"
			/>
		<path class="st0" d="M1.4,76.9C1.2,77,1.1,77.1,1,77.1c-0.3,0-0.2-0.1,0-0.2C1.1,76.9,1.2,76.9,1.4,76.9z"/>
		<path class="st0" d="M248.1,70.3c-0.1,0-0.1,0.1-0.2,0.2c-0.1-0.1-0.3-0.1-0.4-0.2c0,0,0.1-0.1,0.1-0.2
			C247.9,70.1,248,70.1,248.1,70.3z"/>
		<path class="st0" d="M25.6,68c-0.1,0.1-0.1,0.1-0.2,0.2c-0.1-0.1-0.2-0.1-0.3-0.2c0.1,0,0.2-0.1,0.3-0.1
			C25.4,67.9,25.5,68,25.6,68z"/>
		<path class="st0" d="M19.4,61.1c-0.1-0.1-0.2-0.1-0.3-0.2c0.1,0,0.2-0.1,0.2-0.1c0.1,0,0.2,0.1,0.2,0.1
			C19.6,61,19.5,61.1,19.4,61.1z"/>
		<path class="st0" d="M3.5,70.6c-0.1,0-0.2,0-0.3,0.1c0-0.1-0.1-0.1-0.1-0.2c0,0,0.2,0,0.3-0.1C3.4,70.5,3.4,70.6,3.5,70.6z"/>
		<path class="st0" d="M135.3,3.6c-0.1,0-0.2,0.1-0.2,0.1c-0.1,0-0.1-0.1-0.2-0.1c0,0,0.1-0.1,0.1-0.1
			C135.1,3.5,135.2,3.5,135.3,3.6z"/>
		<polygon class="st0" points="163,3.8 162.9,3.9 162.9,3.8 		"/>
		<polygon class="st0" points="170.9,7 170.8,7.1 170.8,7 		"/>
		<path class="st0" d="M169.9,9.8c0.1,0,0.1,0.1,0.2,0.1c0,0-0.1,0.1-0.1,0.1c-0.1,0-0.2,0-0.3,0C169.8,9.9,169.8,9.8,169.9,9.8z"/>
		<path class="st0" d="M244.8,70.8c-0.1,0-0.2,0-0.3,0c0,0,0-0.1,0-0.2c0,0,0.1,0,0.1,0C244.7,70.7,244.8,70.8,244.8,70.8z"/>
		<path class="st0" d="M15.2,70.2c-0.1,0-0.1,0-0.2,0c0,0,0,0-0.1-0.1C15,70.1,15.1,70.2,15.2,70.2z"/>
		<path class="st0" d="M242.5,66.1C242.4,66.1,242.4,66.1,242.5,66.1c-0.1,0-0.2,0-0.2-0.1C242.3,66,242.4,66,242.5,66.1
			C242.4,66,242.5,66,242.5,66.1z"/>
		<path class="st0" d="M11.6,69.4c0.1,0,0.2-0.1,0.2-0.1c0.1,0,0.1,0.1,0.2,0.1c-0.1,0-0.1,0.1-0.2,0.1
			C11.8,69.5,11.7,69.4,11.6,69.4z"/>
		<path class="st0" d="M12.3,33.2c0,0,0.1,0,0.1,0c0,0,0.1,0,0.1,0.1C12.5,33.3,12.4,33.3,12.3,33.2C12.3,33.3,12.3,33.3,12.3,33.2z
			"/>
		<path class="st0" d="M11.5,66.5C11.4,66.5,11.4,66.6,11.5,66.5c-0.1,0.1-0.2,0.1-0.2,0.1c0,0,0.1-0.1,0.1-0.1
			C11.4,66.5,11.4,66.5,11.5,66.5z"/>
		<path class="st0" d="M28.3,36.8c0,0-0.1,0-0.1,0c0,0,0-0.1,0.1-0.1C28.3,36.7,28.3,36.7,28.3,36.8C28.4,36.8,28.3,36.8,28.3,36.8z
			"/>
		<path class="st0" d="M245.4,65.9C245.5,65.9,245.5,66,245.4,65.9c0,0.1-0.1,0.1-0.1,0.2c0,0-0.1-0.1-0.1-0.1
			C245.3,66,245.4,65.9,245.4,65.9z"/>
		<path class="st0" d="M5.2,65.2c-0.1,0-0.1-0.1-0.2-0.1c0,0,0.1,0,0.1,0c0.1,0,0.1,0.1,0.2,0.1C5.3,65.2,5.3,65.2,5.2,65.2z"/>
		<path class="st0" d="M10.4,75.1C10.4,75.1,10.4,75,10.4,75.1c0.1-0.1,0.2-0.1,0.2,0c0,0,0,0.1-0.1,0.1
			C10.5,75.1,10.4,75.1,10.4,75.1z"/>
		<path class="st0" d="M234.4,77.7c0.2,0,0.5,0,0.5,0.2c0,0-0.1,0.1-0.1,0.1C234.5,78,234.5,77.8,234.4,77.7L234.4,77.7z"/>
		<path class="st0" d="M182.6,15C182.6,15,182.6,15,182.6,15c0,0.1-0.1,0.1-0.1,0.1C182.4,15,182.4,15,182.6,15z"/>
		<polygon class="st0" points="202.2,14 202.1,14 202.2,13.9 		"/>
		<path class="st0" d="M3.3,58.6C3.2,58.6,3.2,58.6,3.3,58.6c0-0.1,0.1-0.1,0.1-0.1C3.5,58.6,3.4,58.6,3.3,58.6z"/>
		<polygon class="st0" points="193.3,14.9 193.4,15 193.3,15 		"/>
		<path class="st0" d="M205.5,21.5c-0.1-0.1-0.2-0.1-0.3-0.2C205.5,21.2,205.4,21.4,205.5,21.5L205.5,21.5z"/>
		<path class="st0" d="M206.5,24c0,0,0.1,0,0.1,0c0,0,0,0.1,0,0.1C206.6,24.1,206.5,24.1,206.5,24C206.4,24.1,206.5,24,206.5,24z"/>
		<path class="st0" d="M9.3,75.1C9.4,75.1,9.4,75.2,9.3,75.1c0,0.1,0,0.1-0.1,0.1C9.3,75.2,9.3,75.1,9.3,75.1z"/>
		<polygon class="st0" points="17.2,52.5 17.2,52.4 17.3,52.4 		"/>
		<path class="st0" d="M0.8,64.8c-0.2,0-0.3,0.2-0.6,0.1C0.3,64.6,0.6,64.8,0.8,64.8L0.8,64.8z"/>
		<polygon class="st0" points="13.2,70.5 13.3,70.5 13.3,70.6 		"/>
		<polygon class="st0" points="244.4,78.7 244.4,78.6 244.5,78.6 		"/>
		<path class="st0" d="M15.2,57.3c0,0,0,0.1,0.1,0.1c0,0-0.1,0-0.1,0C15.1,57.4,15.1,57.4,15.2,57.3z"/>
		<path class="st0" d="M205.5,21.5c0,0,0.1,0.1,0.1,0.1C205.6,21.5,205.5,21.5,205.5,21.5L205.5,21.5z"/>
		<path class="st0" d="M235.6,72.9L235.6,72.9L235.6,72.9z"/>
		<path class="st0" d="M8.6,60.7L8.6,60.7L8.6,60.7z"/>
		<path class="st0" d="M233,67.1L233,67.1L233,67.1z"/>
		<path class="st0" d="M235.6,72.9L235.6,72.9L235.6,72.9z"/>
	</g>
	<g>
		<path class="st1" d="M75.8,118c-0.3-0.2-0.6-0.3-1-0.4c-0.1,0-0.1,0-0.1,0c-0.5,0-1.1,0.4-1.4,1c-0.1,0.1-0.1,0.2-0.3,0.2
			c-0.1,0.1-0.2,0.1-0.3,0.2c-0.1,0.1-0.2,0.2-0.4,0.2l-0.2,0c-0.3,0.1-0.6,0.1-0.9,0.1c-0.3,0-0.5,0-0.8,0c-1.2,0-2.4-0.1-3.6-0.2
			l-0.7-0.1c-0.3,0-0.5-0.2-0.5-0.5c-0.1-0.3,0.9-0.7,1.5-1.3c0.4-0.4,0.7-0.9,1-1.5c1.3-2.6,1.2-4.8,0.7-7.4c0-0.2-0.1-0.3-0.3-0.3
			c-0.2-0.1-0.5-0.1-0.7,0c0,0-0.2,0.1-0.2,0.1c0,0-0.1,0.1-0.1,0.1c-0.4,0.5-1,0.9-1.5,1.2c-0.3,0.2-0.5,0.4-0.8,0.6
			c-0.9,0.7-1.6,1.6-2.2,2.6c-0.8,1.3-1.2,4.2-0.3,5.5c0,0,0,0-0.1,0c0,0,0,0.1,0,0.1c-0.1,0.2-0.3,0.4-0.5,0.4c0,0,0,0-0.1,0
			c-0.6-0.1-1.3-0.2-1.9-0.3c-0.2,0-0.5-0.1-0.7-0.1c-0.1,0-0.1,0-0.2,0c-0.1,0-0.1,0-0.2,0c-0.9-0.2-1.8-0.4-2.8-0.6
			c-0.2-0.1-0.4-0.3-0.4-0.5c0-0.2,0.1-0.5,0.4-0.6c1.2-0.4,2.5-1.2,4-2.5c1.2-1,1.9-2.6,2.6-4.1l0.1-0.2c0.3-0.5,0.5-1.1,0.6-1.8
			c0-0.2,0-0.5,0-0.8c0-0.5-0.1-1,0-1.3c0-0.1,0-0.3,0-0.4c0-0.1,0-0.1-0.1-0.2c0-0.1-0.1-0.3-0.3-0.3c-0.3-0.1-0.5-0.1-0.8-0.1
			c-2.4,0-5.2,1.9-6.8,3.6c-2,2.3-2.8,4.9-2,7.2c0,0.1,0,0.3,0,0.4c0,0,0,0.1,0,0.1c0,0.2-0.1,0.3-0.3,0.4c-0.1,0.1-0.2,0.1-0.3,0.1
			c-0.1,0-0.1,0-0.2,0c-1.6-0.5-3.3-1-5-1.5L47,115c-0.2-0.1-0.4-0.3-0.4-0.5c0-0.2,0.2-0.5,0.4-0.5c1.3-0.5,2.7-1.4,4.1-2.7
			c1.9-1.9,2.7-4.1,2.6-7.5c0-0.1,0-0.2-0.1-0.3c-0.1-0.1-0.1-0.2-0.1-0.4c0-0.2,0-0.4-0.2-0.6c-0.1-0.1-0.2-0.2-0.5-0.2
			c0,0,0,0-0.1,0c-2.7,0.5-4.9,1.2-6.4,3.4c-1.6,2.3-2.3,5.1-1.8,7.5c0,0.2,0,0.4-0.2,0.5c-0.1,0.1-0.2,0.1-0.4,0.1
			c-0.1,0-0.1,0-0.2,0c-2.2-0.8-4.3-1.8-6.7-2.8c-0.2-0.1-0.4-0.3-0.3-0.6c0-0.2,0.2-0.4,0.5-0.5c4.4-0.7,7.6-5.6,7.9-9.6
			c0-0.1,0-0.2-0.1-0.3c0-0.1-0.1-0.1-0.1-0.2c-0.1-0.3-0.3-0.5-0.6-0.5c-0.1,0-0.2,0-0.3,0.1c-0.3,0.1-0.8,0.2-1.5,0.2
			c-0.2,0-0.4,0-0.5,0.1c-0.6,0.1-1.3,0.4-1.9,0.8c-1.2,0.6-2.1,1.7-3,2.9c-1.4,1.7-2.4,4.3-1.6,6c0.1,0.2,0.1,0.5-0.1,0.7
			c-0.1,0.1-0.3,0.2-0.4,0.2c-0.1,0-0.2,0-0.2-0.1c-0.9-0.5-1.9-0.9-2.8-1.4c-0.7-0.3-1.4-0.7-2-1c-1.4-0.7-2.9-1.4-4.4-2.3
			c-0.3-0.2-0.7-0.4-1-0.7c-0.3,0.2-0.6,0.3-0.9,0.5c0,0.1,0.1,0.1,0.1,0.2c1.8,1.3,3.5,2.3,5.2,3.1c1.2,0.6,2.4,1.1,3.6,1.7l2,1
			c0.2,0.1,0.3,0.3,0.3,0.5c0,0.2-0.1,0.4-0.2,0.5c-4.5,3.3-3.2,9.3-0.7,13.4c0.1,0.2,0.3,0.3,0.6,0.3c0.1,0,0.4,0,0.5-0.4
			c0,0,0-0.1,0-0.1c0-0.1,0-0.1,0-0.2c0-0.2,0.1-0.4,0.2-0.5c1.5-1,2.7-3,3.1-5.1c0.2-1.1,0.2-2.3,0-3.4c-0.1-0.8-0.4-1.5-0.8-2.3
			l-0.1-0.3c-0.1-0.2,0-0.5,0.1-0.6c0.1-0.1,0.3-0.2,0.4-0.2c0.1,0,0.2,0,0.2,0.1c1.5,0.7,2.9,1.3,4.2,1.8c0.2,0.1,0.3,0.2,0.3,0.4
			c0,0.2,0,0.4-0.2,0.5c-1.3,1.2-2.1,3.2-2.3,4.5c-0.5,3.6,2,6.6,4.2,8.5c0.2,0.1,0.3,0.2,0.5,0.2c0.2,0,0.3-0.1,0.4-0.2
			c0.1-0.1,0.1-0.1,0.2-0.2c0.1-0.1,0.1-0.2,0.1-0.2c0-0.2,0.1-0.4,0.2-0.5c0.1-0.1,0.2-0.2,0.2-0.4c0-0.1,0-0.2,0.1-0.2
			c1.9-3,2.1-7,0.4-9.8c-0.1-0.2-0.1-0.5,0-0.6c0.1-0.1,0.3-0.2,0.4-0.2c0.1,0,0.1,0,0.2,0c1.5,0.5,3,0.9,4.4,1.3
			c0.2,0.1,0.3,0.2,0.4,0.4c0.1,0.2,0,0.4-0.1,0.5c-1.7,1.9-2.6,4.3-2.2,6.2c0.7,3.2,3.2,5.2,5.2,6.3c0.1,0.1,0.2,0.1,0.3,0.1
			c0.2,0,0.4-0.1,0.4-0.2c0.1-0.1,0.2-0.3,0.2-0.5c0-0.1,0-0.2,0.1-0.3c0.9-1.3,1-3.6,1.1-4.3c0.1-1.5-0.3-3.1-0.7-4.2
			c-0.2-0.7-0.6-1.3-0.9-2c-0.1-0.2-0.1-0.4,0-0.6c0.1-0.2,0.3-0.2,0.5-0.2c0,0,0.1,0,0.1,0c0.7,0.2,1.5,0.3,2.2,0.4
			c0.1,0.1,0.2,0.1,0.3,0.1c0.2,0,0.4,0.1,0.6,0.1c0.1,0,0.1,0,0.2,0c0.2,0,0.4,0.1,0.4,0.1c0.4,0.1,0.9,0.2,1.3,0.5
			c0.3,0.3,0.6,0.8,0.6,1.3c-0.7,1.8-1.3,3.5-0.8,5.4c0.5,1.8,1.8,3.2,3.6,4c0,0,0.1,0,0.1,0.1c0,0,0.1,0,0.1,0.1c0,0,0.1,0,0.1,0
			l0.2,0c0.4,0.1,0.5-0.3,0.6-0.4c0-0.1,0.1-0.2,0.1-0.3c0.1-0.1,0.1-0.2,0.2-0.3c0.1-0.6,0.2-1.2,0.3-1.7c0.3-1.6,0.6-2.9,0.1-4.5
			c-0.1-0.3-0.2-0.5-0.3-0.8c0,0,0,0,0,0c-0.1-0.3-0.2-0.6-0.4-0.9c0,0,0-0.1,0-0.1c0,0,0,0,0,0c-0.2-0.4-0.5-0.7-0.8-1
			c-0.2-0.2-0.5-0.4-0.8-0.6c0.1-0.1,0.2-0.1,0.3-0.1c0,0,0,0,0.1,0c1.1,0.1,2.3,0.2,3.8,0.3l0.2,0c0.4,0,0.8,0,1.3-0.1
			c0.5,0,1.1-0.1,1.6-0.1c0.5,0,0.9,0,1.2,0.1c0.1,0,0.2,0,0.3,0.1c0.4,0.3,0.9,0.5,1.4,0.5h0c1.1,0,1.8-0.9,1.9-1.8
			C76.4,118.8,76.1,118.2,75.8,118z M37.7,108.6c1-1.6,2-3.2,3.4-4.4c0.8-0.7,1.8-1.3,2.6-2.2C42.9,104.8,40.7,107.8,37.7,108.6z
			 M39.4,102.5c1.1-1.2,2.3-1.4,3.5-1.6l0.3-0.1c0,0,0.1,0,0.1,0c0,0,0.1,0,0.1,0c-0.4,0.5-1,1-1.5,1.3c-0.8,0.7-1.6,1.4-2.4,2.1
			c-1.2,1.1-2.1,2.8-3,4.3c0,0-0.1-0.1-0.1-0.1C35.7,106.6,38.6,103.4,39.4,102.5z M34.3,123.3c0,0-0.1-0.1-0.1-0.1
			c-2.1-4.3-1.7-7.9,1-10.1c-0.5,1.7-0.9,3.4-1.1,5.1C33.9,120,34.2,121.6,34.3,123.3z M35.3,123.2c-0.1-1.1-0.3-2.2-0.3-3.3
			c0-2.3,0.6-4.6,1.3-6.8c0,0,0,0,0,0l0.3,0.7c0.5,1.2,0.9,2.3,0.9,3.8C37.6,119.5,36.9,121.9,35.3,123.2z M42.1,123.4
			c-0.8-1.6-0.7-3.3,0.3-5.2c0.3-0.5,0.7-1.4,1.3-1.9c-0.1,1.5-0.3,3-0.1,4.5c0.3,1.9,0.7,3.9,0.7,5.8
			C43.4,125.6,42.7,124.5,42.1,123.4z M50.3,110.4c-0.4,0.5-2,2-3.9,2.6c0.7-1.6,1.9-3.1,2.7-4.6c0.9-1.5,2.2-2.6,3.4-3.8
			C52.5,107,51.8,108.7,50.3,110.4z M47.4,106.3c1.1-1.7,2.9-2.3,4.4-2.7c0,0,0.1,0,0.1,0c0,0,0,0,0.1,0c-1.2,1.4-2.7,2.6-3.7,4.2
			c-0.9,1.3-1.9,2.9-2.7,4.4C45.4,109.9,46.5,107.7,47.4,106.3z M45.4,126.3c-0.1-1.5-0.3-3-0.5-4.4c-0.3-1.9-0.2-3.6-0.1-5.5
			C47.7,119.4,47.2,123.5,45.4,126.3z M51.6,126.2c-1.2-2.1-0.2-5.2,1.5-6.9c0,0,0,0,0.1,0c0,2.1-0.2,4.2,0.1,6.2
			c0.2,1.3,0.6,2.5,1,3.7C53.2,128.3,52.3,127.3,51.6,126.2z M56,124c0,0.1,0.6,3.6-0.5,5.3c0,0,0,0,0,0c-0.4-1.1-0.8-2.2-1-3.3
			c-0.5-2.1-0.3-4.3-0.2-6.4l0.2,0.3C55.4,121.2,55.7,122.6,56,124z M54.6,115.5C54.6,115.5,54.6,115.5,54.6,115.5
			c-0.7-2,0-4.1,2-6.4c0.9-1,3.3-2.7,5.1-2.9c0,0,0,0,0.1,0c0,0,0.1,0,0.1,0C58.7,108.4,56.4,112,54.6,115.5z M55.6,115.8
			c1.6-3.3,3.8-6.6,6.8-8.6c0,0.1,0,0.2,0,0.2c0,1.3-0.7,2.5-1.3,3.6l-0.3,0.5C60.2,112.8,57.9,115.2,55.6,115.8z M68.1,111.7
			c0-0.1,0-0.1,0.1-0.2C68.1,111.6,68.1,111.6,68.1,111.7c0.1,0.9-0.2,1.8-0.5,2.5l-0.1,0.3c-0.5,1.3-1.1,2.2-1.9,2.7
			c-0.3,0.2-0.6,0.3-1,0.4c0.7-1.2,1.6-2.3,2.3-3.4C67.4,113.5,67.7,112.5,68.1,111.7z M64.5,112.6c0.6-0.9,1.4-1.4,2.1-2
			c0,0,0.5-0.4,0.5-0.4c0.1-0.1,0.2-0.1,0.3-0.1c0,0.1,0,0.1-0.1,0.2c-0.3,1-0.7,1.9-1.1,2.9c-0.7,1.4-1.8,2.7-2.7,4
			C63,115.8,63.9,113.6,64.5,112.6z M62,125.6c-0.3-1.3,0.3-2.7,0.9-3.9l0-0.1c0.5,1.6,0.8,3.4,0.8,5c0,0.5-0.2,1.2,0,1.7
			c0.1,0.2,0.2,0.4,0.3,0.6C63,128.1,62.3,127.1,62,125.6z M65.4,128.2l-0.1,0.6c0,0,0,0.1-0.1,0.1c-0.2-0.5-0.5-0.9-0.5-1.3
			c0-0.7,0.1-1.4,0-2.1c-0.2-1.4-0.4-2.8-0.8-4.2c0.2,0.1,0.4,0.3,0.6,0.5c0.6,0.7,1.1,1.8,1.3,3C65.9,126.1,65.6,127.2,65.4,128.2z
			"/>
		<path class="st1" d="M71.2,125.1c-0.3,0-0.4,0.1-0.5,0.4c-0.1,0.2,0,0.3,0.1,0.5c0.1,0.2,0.3,0.3,0.6,0.3h0c0.3,0,0.4-0.1,0.5-0.4
			c0.1-0.2,0-0.3-0.1-0.5C71.6,125.2,71.4,125.1,71.2,125.1z"/>
		<path class="st1" d="M60.1,131.9c-0.3,0-0.4,0.1-0.5,0.4c-0.1,0.2,0,0.3,0.1,0.5c0.1,0.2,0.3,0.3,0.6,0.3c0.3,0,0.4-0.1,0.5-0.4
			c0.1-0.2,0-0.3-0.1-0.5C60.5,132,60.3,131.9,60.1,131.9z"/>
		<path class="st1" d="M49.6,131.4c-0.3,0-0.4,0.1-0.5,0.4c-0.1,0.2,0,0.3,0.1,0.5c0.1,0.2,0.3,0.3,0.6,0.3c0,0,0,0,0,0
			c0.3,0,0.4-0.1,0.5-0.4c0.1-0.2,0-0.3-0.1-0.5C50,131.5,49.8,131.4,49.6,131.4z"/>
		<path class="st1" d="M38.4,127.9c-0.1-0.2-0.3-0.4-0.6-0.4c-0.3,0-0.4,0.1-0.5,0.4c-0.2,0.5,0,0.9,0.6,1c0.1,0,0.1,0,0.2,0
			c0.2,0,0.4-0.2,0.4-0.3c0.1-0.2,0.1-0.5,0-0.7C38.4,128,38.4,128,38.4,127.9z"/>
		<path class="st1" d="M68.5,105.8l0.2,0.1c0.1,0,0.1,0,0.2,0c0.3,0,0.5-0.3,0.5-0.5c0-0.2,0-0.5-0.4-0.6l-0.2-0.1
			c-0.1,0-0.1,0-0.2,0c-0.3,0-0.5,0.3-0.5,0.5C68,105.4,68.1,105.7,68.5,105.8z"/>
		<path class="st1" d="M48.8,97.8c0,0,0.1,0,0.1,0c0.2,0,0.5-0.1,0.6-0.4c0-0.1,0.1-0.2,0.1-0.3c0-0.1,0-0.3-0.1-0.4
			c-0.1-0.1-0.2-0.2-0.3-0.3c-0.1,0-0.2,0-0.3,0c-0.2,0-0.3,0-0.3,0.1c-0.2,0.2-0.2,0.4-0.2,0.7C48.5,97.7,48.7,97.7,48.8,97.8z"/>
		<path class="st1" d="M26.6,112.5c-0.3,0-0.4,0.1-0.5,0.5l0,0.1c-0.1,0.2,0,0.3,0.1,0.5c0.1,0.2,0.3,0.3,0.6,0.3
			c0.3,0,0.4-0.1,0.5-0.4l0.1-0.3c0.1-0.2,0-0.3-0.1-0.5C27,112.6,26.8,112.5,26.6,112.5z"/>
	</g>
	<g>
		<path class="st1" d="M150.9,43.6c0.3,0.2,0.7,0.3,1.1,0.4c0.1,0,0.1,0,0.2,0c0.6,0,1.2-0.5,1.5-1.1c0.1-0.1,0.2-0.2,0.3-0.3
			c0.1-0.1,0.2-0.1,0.3-0.2c0.1-0.1,0.2-0.2,0.4-0.2l0.2,0c0.3-0.1,0.6-0.1,1-0.2c0.3,0,0.6,0,0.8,0c1.3,0,2.6,0.1,3.9,0.2l0.7,0.1
			c0.3,0,0.5,0.2,0.6,0.5c0.1,0.3-1,0.8-1.6,1.5c-0.4,0.5-0.7,1-1,1.6c-1.4,2.8-1.2,5.3-0.6,8.1c0,0.2,0.1,0.3,0.3,0.3
			c0.2,0.1,0.5,0.1,0.8-0.1c0,0,0.2-0.1,0.2-0.1c0.1,0,0.1-0.1,0.2-0.1c0.4-0.6,1-1,1.6-1.4c0.3-0.2,0.6-0.4,0.8-0.6
			c1-0.8,1.7-1.8,2.3-2.8c0.8-1.5,1.3-4.6,0.2-6c0,0,0,0,0.1,0c0,0,0-0.1,0-0.1c0.1-0.3,0.3-0.4,0.6-0.5c0,0,0.1,0,0.1,0
			c0.7,0.1,1.4,0.2,2.1,0.3c0.2,0,0.5,0.1,0.8,0.1c0.1,0,0.2,0,0.2,0c0.1,0,0.1,0,0.2,0c1,0.2,2,0.4,3,0.6c0.3,0.1,0.5,0.3,0.5,0.6
			c0,0.3-0.1,0.5-0.4,0.6c-1.3,0.5-2.7,1.4-4.3,2.8c-1.3,1.1-2.1,2.8-2.8,4.5l-0.1,0.2c-0.3,0.6-0.5,1.2-0.6,1.9c0,0.2,0,0.5,0,0.8
			c0.1,0.5,0.1,1.1,0,1.5c0,0.2,0,0.3,0,0.4c0,0.1,0,0.1,0.1,0.2c0,0.1,0.1,0.3,0.4,0.3c0.3,0.1,0.6,0.1,0.9,0.1
			c2.7,0,5.7-2.1,7.3-4c2.2-2.5,2.9-5.4,2.1-7.9c0-0.1,0-0.3,0-0.4c0-0.1,0-0.1,0-0.2c0-0.2,0.1-0.3,0.3-0.4
			c0.1-0.1,0.2-0.1,0.3-0.1c0.1,0,0.1,0,0.2,0c1.8,0.5,3.6,1,5.5,1.6l0.8,0.3c0.2,0.1,0.4,0.3,0.4,0.6c0,0.3-0.2,0.5-0.4,0.6
			c-1.4,0.5-2.9,1.5-4.4,3c-2.1,2.1-2.9,4.5-2.7,8.3c0,0.1,0,0.3,0.1,0.4c0.1,0.1,0.1,0.3,0.1,0.4c0,0.2,0.1,0.5,0.2,0.6
			c0.1,0.1,0.3,0.2,0.5,0.2c0,0,0,0,0.1,0c3-0.5,5.3-1.4,7-3.9c1.7-2.5,2.4-5.6,1.8-8.2c0-0.2,0-0.4,0.2-0.6
			c0.1-0.1,0.2-0.1,0.4-0.2c0.1,0,0.1,0,0.2,0c2.4,0.9,4.8,1.8,7.4,3c0.2,0.1,0.4,0.4,0.4,0.6c0,0.3-0.2,0.5-0.5,0.5
			c-4.8,0.9-8.2,6.2-8.5,10.7c0,0.1,0,0.3,0.1,0.4c0,0.1,0.1,0.1,0.1,0.2c0.1,0.3,0.4,0.6,0.7,0.6c0.1,0,0.2,0,0.3-0.1
			c0.3-0.2,0.9-0.2,1.6-0.3c0.2,0,0.4,0,0.6-0.1c0.6-0.1,1.4-0.5,2-0.9c1.3-0.7,2.3-1.9,3.3-3.2c1.5-1.9,2.6-4.7,1.7-6.5
			c-0.1-0.2-0.1-0.5,0.1-0.7c0.1-0.1,0.3-0.2,0.4-0.2c0.1,0,0.2,0,0.3,0.1c1,0.5,2,1,3.1,1.5c0.7,0.4,1.5,0.7,2.2,1.1
			c1.6,0.7,3.2,1.5,4.8,2.4c0.4,0.2,0.7,0.4,1.1,0.7c0.3-0.2,0.7-0.4,1-0.5c0-0.1-0.1-0.1-0.1-0.2c-2-1.4-3.8-2.4-5.8-3.3
			c-1.3-0.6-2.6-1.2-4-1.8l-2.2-1c-0.2-0.1-0.3-0.3-0.4-0.5c0-0.2,0.1-0.4,0.2-0.6c4.9-3.7,3.3-10.2,0.5-14.6
			c-0.1-0.2-0.4-0.3-0.6-0.3c-0.1,0-0.5,0.1-0.6,0.4c0,0,0,0.1,0,0.2c0,0.1,0,0.1,0,0.2c0,0.2-0.1,0.4-0.3,0.5
			c-1.6,1.1-2.9,3.3-3.3,5.6c-0.2,1.2-0.2,2.5,0,3.7c0.2,0.9,0.5,1.7,0.9,2.4l0.1,0.3c0.1,0.2,0.1,0.5-0.1,0.7
			c-0.1,0.1-0.3,0.2-0.4,0.2c-0.1,0-0.2,0-0.3-0.1c-1.7-0.7-3.2-1.4-4.6-1.9c-0.2-0.1-0.3-0.2-0.4-0.5c0-0.2,0-0.4,0.2-0.6
			c1.4-1.3,2.3-3.5,2.4-4.9c0.4-4-2.3-7.2-4.7-9.2c-0.2-0.1-0.4-0.2-0.5-0.2c-0.2,0-0.4,0.1-0.5,0.3c-0.1,0.1-0.1,0.2-0.2,0.2
			c-0.1,0.1-0.1,0.2-0.1,0.3c0,0.2-0.1,0.4-0.2,0.5c-0.1,0.1-0.2,0.3-0.3,0.4c0,0.1,0,0.2-0.1,0.2c-2.1,3.3-2.2,7.6-0.3,10.7
			c0.1,0.2,0.1,0.5,0,0.7c-0.1,0.2-0.3,0.2-0.5,0.2c-0.1,0-0.1,0-0.2,0c-1.6-0.5-3.2-1-4.8-1.4c-0.2-0.1-0.4-0.2-0.4-0.4
			c-0.1-0.2,0-0.4,0.1-0.6c1.8-2.1,2.7-4.8,2.3-6.8c-0.8-3.5-3.6-5.6-5.8-6.8c-0.1-0.1-0.2-0.1-0.3-0.1c-0.2,0-0.4,0.1-0.5,0.2
			c-0.1,0.2-0.2,0.4-0.2,0.5c0,0.1,0,0.3-0.1,0.4c-1,1.5-1.1,3.9-1.1,4.7c-0.1,1.7,0.4,3.4,0.8,4.6c0.2,0.7,0.6,1.5,1.1,2.2
			c0.1,0.2,0.1,0.5,0,0.7c-0.1,0.2-0.3,0.3-0.5,0.3c0,0-0.1,0-0.1,0c-0.8-0.2-1.6-0.3-2.4-0.4c-0.1-0.1-0.2-0.1-0.3-0.1
			c-0.2,0-0.4-0.1-0.6-0.1c-0.1,0-0.1,0-0.2,0c-0.2,0-0.4-0.1-0.5-0.1c-0.4-0.1-0.9-0.3-1.4-0.5c-0.4-0.3-0.7-0.9-0.7-1.4
			c0.8-2,1.4-3.8,0.7-5.9c-0.6-2-2-3.5-4-4.3c0,0-0.1,0-0.1-0.1c0,0-0.1,0-0.2-0.1c0,0-0.1,0-0.1,0l-0.2,0c-0.5-0.1-0.6,0.4-0.6,0.5
			c0,0.1-0.1,0.2-0.2,0.3c-0.1,0.1-0.1,0.2-0.2,0.4c-0.1,0.6-0.2,1.3-0.3,1.9c-0.3,1.7-0.6,3.2-0.1,4.9c0.1,0.3,0.2,0.6,0.3,0.9
			c0,0,0,0,0,0c0.1,0.3,0.3,0.6,0.5,0.9c0,0,0,0.1,0,0.1c0,0,0,0,0,0c0.3,0.4,0.6,0.7,0.9,1.1c0.3,0.2,0.6,0.5,0.9,0.7
			c-0.1,0.1-0.2,0.1-0.3,0.1c0,0,0,0-0.1,0c-1.2-0.1-2.6-0.2-4.2-0.2h-0.3c-0.4,0-0.9,0-1.4,0.1c-0.6,0-1.2,0.1-1.8,0.1
			c-0.6,0-1,0-1.3-0.1c-0.1,0-0.2-0.1-0.3-0.1c-0.4-0.3-1-0.5-1.5-0.5l0,0c-1.2,0-1.9,1-2,2C150.2,42.7,150.5,43.3,150.9,43.6z
			 M192.6,53.1c-1,1.8-2.1,3.6-3.6,4.9c-0.8,0.7-2,1.5-2.8,2.4C187,57.4,189.4,54.1,192.6,53.1z M190.9,59.9
			c-1.2,1.3-2.5,1.6-3.8,1.9l-0.3,0.1c0,0-0.1,0-0.1,0c0,0-0.1,0-0.1,0c0.4-0.6,1.1-1.1,1.6-1.5c0.9-0.7,1.8-1.5,2.6-2.3
			c1.3-1.3,2.3-3.1,3.2-4.8c0.1,0.1,0.1,0.1,0.1,0.2C194.8,55.3,191.8,58.8,190.9,59.9z M196.1,37c0,0,0.1,0.1,0.1,0.1
			c2.3,4.7,2,8.6-1,11c0.5-1.9,0.9-3.7,1.2-5.6C196.6,40.7,196.2,38.9,196.1,37z M195,37.2c0.1,1.2,0.4,2.4,0.4,3.6
			c0,2.5-0.6,5-1.3,7.4c0,0,0,0,0,0l-0.3-0.7c-0.5-1.3-1.1-2.5-1.1-4.1C192.6,41.3,193.3,38.7,195,37.2z M187.6,37.1
			c0.9,1.8,0.8,3.6-0.3,5.7c-0.3,0.6-0.8,1.5-1.4,2.1c0.1-1.7,0.3-3.3,0-5c-0.3-2-0.8-4.2-0.9-6.4C186.1,34.7,186.9,35.9,187.6,37.1
			z M178.8,51.5c0.5-0.5,2.1-2.3,4.2-2.9c-0.8,1.7-2,3.5-2.9,5c-0.9,1.7-2.4,2.8-3.6,4.2C176.5,55.2,177.2,53.3,178.8,51.5z
			 M182.1,55.8c-1.1,1.9-3.2,2.6-4.8,3c0,0-0.1,0-0.1,0c0,0-0.1,0-0.1,0c1.3-1.6,2.9-2.9,4-4.7c0.9-1.4,2.1-3.2,2.8-4.9
			C184.2,51.9,183,54.3,182.1,55.8z M183.9,33.9c0.1,1.6,0.4,3.2,0.7,4.8c0.3,2.1,0.3,4,0.2,6C181.6,41.6,182.1,37,183.9,33.9z
			 M177.1,34.2c1.3,2.3,0.3,5.7-1.5,7.6c0,0,0,0-0.1,0c0-2.3,0.1-4.5-0.2-6.8c-0.2-1.4-0.7-2.7-1.2-4.1
			C175.4,31.9,176.4,32.9,177.1,34.2z M172.4,36.7c0-0.2-0.7-3.9,0.5-5.8c0,0,0,0,0,0c0.4,1.2,0.9,2.4,1.2,3.6
			c0.6,2.2,0.4,4.7,0.3,7l-0.3-0.3C173.1,39.7,172.7,38.2,172.4,36.7z M174,45.9C174,45.9,174,45.9,174,45.9c0.8,2.1,0.1,4.5-2.1,7
			c-1,1.2-3.6,3-5.6,3.2c0,0,0,0-0.1,0c0,0-0.1,0-0.1,0C169.8,53.7,172.2,49.8,174,45.9z M173,45.6c-1.7,3.6-4,7.3-7.3,9.5
			c0-0.1,0-0.2,0-0.2c0-1.4,0.7-2.8,1.3-3.9l0.3-0.6C168,49,170.5,46.3,173,45.6z M159.5,50.3c0,0.1,0,0.2-0.1,0.2
			C159.4,50.4,159.4,50.4,159.5,50.3c-0.1-1,0.2-1.9,0.5-2.8l0.1-0.4c0.5-1.4,1.1-2.4,2-2.9c0.3-0.2,0.7-0.3,1-0.4
			c-0.8,1.3-1.7,2.5-2.5,3.8C160.1,48.4,159.8,49.4,159.5,50.3z M163.3,49.2c-0.6,1-1.5,1.6-2.3,2.2c0,0-0.5,0.4-0.6,0.4
			c-0.1,0.1-0.2,0.1-0.3,0.1c0-0.1,0-0.2,0.1-0.2c0.3-1.1,0.7-2.1,1.2-3.1c0.7-1.6,1.9-2.9,2.9-4.4C164.9,45.7,164,48.1,163.3,49.2z
			 M165.8,35c0.3,1.5-0.3,2.9-0.9,4.3l0,0.1c-0.6-1.7-0.9-3.7-1-5.4c0-0.6,0.2-1.3-0.1-1.9c-0.1-0.2-0.2-0.4-0.3-0.6
			C164.7,32.3,165.4,33.4,165.8,35z M162.1,32.2l0.2-0.6c0-0.1,0-0.1,0.1-0.1c0.3,0.5,0.5,1,0.5,1.4c0,0.8-0.1,1.5,0.1,2.3
			c0.2,1.5,0.5,3.1,0.9,4.6c-0.2-0.2-0.4-0.3-0.7-0.6c-0.7-0.8-1.2-2-1.4-3.2C161.6,34.5,161.9,33.3,162.1,32.2z"/>
		<path class="st1" d="M155.8,35.7c0.3,0,0.5-0.1,0.5-0.4c0.1-0.2,0-0.4-0.1-0.5c-0.1-0.2-0.4-0.3-0.6-0.3c0,0,0,0,0,0
			c-0.3,0-0.5,0.1-0.5,0.4c-0.1,0.2,0,0.4,0.1,0.5C155.4,35.6,155.6,35.7,155.8,35.7z"/>
		<path class="st1" d="M167.8,28.1c0.3,0,0.5-0.1,0.5-0.4c0.1-0.2,0-0.4-0.1-0.5c-0.1-0.2-0.4-0.3-0.6-0.3c-0.3,0-0.5,0.1-0.5,0.4
			c-0.1,0.2,0,0.4,0.1,0.5C167.3,28,167.6,28.1,167.8,28.1z"/>
		<path class="st1" d="M179.3,28.5c0.3,0,0.5-0.1,0.5-0.4c0.1-0.2,0-0.4-0.1-0.5c-0.1-0.2-0.4-0.3-0.6-0.3l0,0
			c-0.3,0-0.5,0.1-0.5,0.4c-0.1,0.2,0,0.4,0.1,0.5C178.8,28.4,179,28.5,179.3,28.5z"/>
		<path class="st1" d="M191.6,32.1c0.1,0.2,0.4,0.4,0.7,0.4c0.3,0,0.5-0.1,0.5-0.4c0.2-0.6-0.1-1-0.6-1.1c-0.1,0-0.1,0-0.2,0
			c-0.3,0-0.4,0.2-0.5,0.3c-0.1,0.2-0.1,0.5,0,0.7C191.6,32,191.6,32,191.6,32.1z"/>
		<path class="st1" d="M159.1,56.7l-0.2-0.1c-0.1,0-0.1,0-0.2,0c-0.4,0-0.5,0.4-0.6,0.6c0,0.2,0,0.5,0.4,0.7l0.3,0.1
			c0.1,0,0.1,0,0.2,0c0.4,0,0.5-0.4,0.6-0.6C159.6,57.2,159.6,56.9,159.1,56.7z"/>
		<path class="st1" d="M180.7,65.2c0,0-0.1,0-0.2,0c-0.3,0-0.6,0.2-0.6,0.4c0,0.1-0.1,0.2-0.1,0.3c0,0.2,0,0.3,0.1,0.5
			c0.1,0.1,0.2,0.3,0.4,0.3c0.1,0,0.2,0,0.3,0c0.2,0,0.3,0,0.4-0.1c0.2-0.2,0.2-0.4,0.2-0.8C181.1,65.3,180.8,65.2,180.7,65.2z"/>
		<path class="st1" d="M204.7,48.7c0.3,0,0.5-0.1,0.6-0.6l0-0.1c0.1-0.2,0-0.4-0.1-0.5c-0.1-0.2-0.4-0.3-0.6-0.3
			c-0.3,0-0.5,0.1-0.5,0.4l-0.1,0.3c-0.1,0.2,0,0.4,0.1,0.5C204.2,48.6,204.5,48.7,204.7,48.7z"/>
	</g>
	<g>
		<path class="st1" d="M132.8,110.2c0.3,0.2,0.2,0.1-0.3-0.2c-0.3-0.2-0.5-0.3-0.8-0.4c0,0-0.1,0-0.1,0c-0.1-0.1-0.3-0.1-0.4-0.1
			c-0.8-0.6-2-0.6-2.7,0.1c-0.7,0.7-0.7,1.7-0.2,2.5c0,0.4,0,0.8,0.2,1.2c0.1,0.2,0.2,0.4,0.3,0.6c0.4,0.9,1.2,1.5,2.3,1.5
			c1.4,0.1,2.4-1,2.9-2.2c0.3-0.7,0.1-1.5-0.2-2.1C133.6,110.7,133.2,110.4,132.8,110.2z"/>
		<path class="st1" d="M149.6,108.6c-0.6-1-1.8-1.2-2.7-0.7c-0.8,0.4-1.5,1-2.2,1.7c-1.2,1.2-0.3,3.4,1.4,3.4c0.6,0,1.2,0,1.8,0
			c1.6,0,2.2-1.4,1.9-2.6C149.9,109.8,149.9,109.1,149.6,108.6z"/>
		<path class="st1" d="M161.3,107.3c-0.1-0.1-0.3-0.3-0.4-0.4c-0.8-0.8-2.1-0.8-2.8,0c-0.8,0.8-0.8,2.1,0,2.8
			c0.1,0.1,0.3,0.3,0.4,0.4c0.8,0.8,2.1,0.8,2.8,0C162.1,109.4,162.1,108.1,161.3,107.3z"/>
		<path class="st1" d="M117.2,113.6c0-0.7-0.4-1.4-1-1.7c0,0-0.1-0.1-0.1-0.1c-0.1-0.1-0.1-0.2-0.2-0.2c-0.6-0.7-1.4-0.8-2.3-0.7
			c-0.1,0-0.2,0-0.2,0c-0.4,0.1-0.7,0.2-1,0.3c-1.8,0.8-3.1,3.1-2.6,5.1c0.3,1.3,1.5,2.1,2.8,2.4c1.7,0.3,3.3,0,4.4-1.5
			C117.6,116.2,117.6,114.8,117.2,113.6C117.2,113.7,117.2,113.7,117.2,113.6z M117.2,113.8C117.3,114.1,117.3,114,117.2,113.8
			L117.2,113.8z"/>
	</g>
	<g>
		<g>
			<path class="st1" d="M56.7,87.4c-0.2,0-0.3-0.2-0.4-0.3L56.2,87c-0.1-0.1-0.2-0.2-0.4-0.5c-0.3-0.3-0.5-0.6-0.7-0.9
				c-0.3-0.5-0.4-0.9-0.2-1.3c0.2-0.3,0.5-0.5,1.1-0.6c0.3,0,0.7-0.1,1.3-0.1c0.5-0.1,1.1-0.1,1.7-0.1l0.3,0c0.7,0,1.7,0,2.8,0.1
				c1.2,0,2,0.1,2.5,0.1l1.5,0l0.6,0c0.2,0,0.7,0,0.7,0c0-0.1,0-0.3,0-0.4c0-0.3,0-0.7,0-0.7c0-0.2,0.1-0.3,0.2-0.5
				c0.1-0.1,0.3-0.2,0.5-0.2c0.2,0,0.4,0.1,0.5,0.2c0.1,0.1,0.2,0.3,0.2,0.5c0,0,0,0.5,0,0.8c0,0.2,0,0.5,0,0.8c0,0,0,0.1,0.1,0.1
				c0.1,0.2,0.1,0.4,0.1,0.6l0,0.7c0,0.3,0,0.5-0.1,0.8c0,0.1,0,0.2,0,0.2c0,0.2-0.2,0.4-0.6,0.6c-0.1,0.1-0.3,0.1-0.4,0.1h-0.2
				l-0.2-0.1l-0.1-0.1l0-0.2v-0.4c0-0.4,0-0.7,0-1l0-0.3c-0.1,0-0.1,0-0.2,0c-0.3,0-0.7,0-1.1,0c-0.2,0-0.4,0-0.7,0
				c-0.3,0-0.6,0-0.9,0c-0.5,0-1.4,0-2.5-0.1c-1.1,0-2.1-0.1-2.8-0.1l-0.2,0c-0.6,0-1.1,0-1.6,0.1c-0.4,0.1-0.8,0.1-1.1,0.1
				c0.1,0.1,0.2,0.3,0.4,0.5c0.3,0.3,0.5,0.5,0.5,0.6l0.1,0.2c0.1,0.2,0.1,0.3,0.1,0.5c0,0.2-0.1,0.4-0.3,0.5
				c-0.1,0.1-0.2,0.1-0.4,0.1L56.7,87.4z"/>
		</g>
		<g>
			<path class="st1" d="M63.6,77.3c-0.3,0-0.6,0-1,0c-0.2,0-0.3,0-0.5,0c-0.3,0-0.6,0-0.9,0c-0.2,0-0.3,0-0.5,0c-0.4,0-0.7,0-1-0.1
				c-0.4,0-0.8-0.1-1.3-0.3c-0.5-0.1-1-0.4-1.5-0.7c-0.6-0.4-1-0.7-1.3-1c-0.2-0.2-0.3-0.4-0.4-0.5c-0.1-0.1-0.2-0.1-0.2-0.2
				c-0.1-0.1-0.1-0.3-0.1-0.5c0-0.2,0.1-0.3,0.3-0.4l0.4-0.2c0.3-0.2,0.7-0.4,1.2-0.6c0.5-0.2,1-0.3,1.4-0.4
				c0.4-0.1,0.8-0.1,1.2-0.2c0.5-0.1,0.9-0.2,1.4-0.2l1.4-0.1c0.3,0,0.5,0,0.7,0c0.2,0,0.4,0,0.6,0c0.4,0,0.9,0.1,1.3,0.2
				c0.4,0.1,0.9,0.2,1.3,0.3c0.5,0.1,0.9,0.2,1.3,0.4c0.3,0.2,0.6,0.4,0.9,0.7c0.4,0.4,0.5,0.8,0.4,1.3c0,0.3-0.2,0.6-0.3,0.9
				c-0.2,0.2-0.3,0.3-0.5,0.5c-0.2,0.1-0.4,0.3-0.6,0.4c-0.2,0.1-0.5,0.2-0.9,0.4c-0.4,0.1-0.8,0.2-1.2,0.3
				c-0.4,0.1-0.9,0.1-1.4,0.1C63.9,77.3,63.7,77.3,63.6,77.3z M62.6,75.9c0.3,0,0.6,0,0.9,0c0.2,0,0.3,0,0.5,0c0.4,0,0.8,0,1.1-0.1
				c0.3-0.1,0.7-0.2,1-0.3c0.3-0.1,0.5-0.2,0.7-0.3c0.2-0.1,0.3-0.1,0.3-0.2c0.1-0.1,0.2-0.2,0.3-0.3c0,0,0.1-0.1,0.1-0.3
				c0,0,0,0,0,0c0,0,0,0-0.1-0.1c-0.2-0.2-0.3-0.3-0.5-0.4c-0.2-0.1-0.5-0.2-0.8-0.3c-0.4-0.1-0.9-0.2-1.3-0.3
				c-0.4-0.1-0.8-0.1-1.2-0.1c-0.2,0-0.4,0-0.7,0c-0.2,0-0.4,0-0.6,0c-0.5,0-0.9,0.1-1.4,0.1c-0.4,0-0.8,0.1-1.2,0.2
				c-0.5,0.1-0.9,0.2-1.3,0.2c-0.3,0-0.7,0.2-1.1,0.3c-0.3,0.1-0.5,0.2-0.7,0.3c0,0,0,0,0,0c0.2,0.2,0.5,0.5,1,0.7
				c0.4,0.3,0.8,0.5,1.2,0.6c0.4,0.1,0.7,0.2,1.1,0.2c0.2,0,0.5,0,0.8,0c0.2,0,0.3,0,0.5,0c0.3,0,0.6,0,0.9,0
				C62.2,75.9,62.4,75.9,62.6,75.9z"/>
		</g>
		<g>
			<path class="st1" d="M63.6,67.8c-0.3,0-0.6,0-1,0c-0.2,0-0.3,0-0.5,0c-0.3,0-0.6,0-0.9,0c-0.2,0-0.3,0-0.5,0c-0.4,0-0.7,0-1-0.1
				c-0.4,0-0.8-0.1-1.3-0.3c-0.5-0.1-1-0.4-1.5-0.7c-0.6-0.4-1-0.7-1.3-1c-0.2-0.2-0.3-0.4-0.4-0.5C55.1,65.1,55,65,55,64.9
				c-0.1-0.1-0.1-0.3-0.1-0.5c0-0.2,0.1-0.3,0.3-0.4l0.4-0.2c0.3-0.2,0.7-0.4,1.2-0.6c0.5-0.2,1-0.3,1.4-0.4
				c0.4-0.1,0.8-0.1,1.2-0.2c0.5-0.1,0.9-0.2,1.4-0.2l1.4-0.1c0.3,0,0.5,0,0.7,0c0.2,0,0.4,0,0.6,0c0.4,0,0.9,0.1,1.3,0.2
				c0.4,0.1,0.9,0.2,1.3,0.3c0.5,0.1,0.9,0.2,1.3,0.4c0.3,0.2,0.6,0.4,0.9,0.7c0.4,0.4,0.5,0.8,0.4,1.3c0,0.3-0.2,0.6-0.3,0.9
				c-0.2,0.2-0.3,0.3-0.5,0.5c-0.2,0.1-0.4,0.3-0.6,0.4c-0.2,0.1-0.5,0.2-0.9,0.4c-0.4,0.1-0.8,0.2-1.2,0.3
				c-0.4,0.1-0.9,0.1-1.4,0.1C63.9,67.8,63.7,67.8,63.6,67.8z M62.6,66.3c0.3,0,0.6,0,0.9,0c0.2,0,0.3,0,0.5,0c0.4,0,0.8,0,1.1-0.1
				c0.3-0.1,0.7-0.2,1-0.3c0.3-0.1,0.5-0.2,0.7-0.3c0.2-0.1,0.3-0.1,0.3-0.2c0.1-0.1,0.2-0.2,0.3-0.3c0,0,0.1-0.1,0.1-0.3v0
				c0,0,0,0-0.1-0.1c-0.2-0.2-0.3-0.3-0.5-0.4c-0.2-0.1-0.5-0.2-0.8-0.3c-0.4-0.1-0.9-0.2-1.3-0.3c-0.4-0.1-0.8-0.1-1.2-0.1
				c-0.2,0-0.4,0-0.7,0c-0.2,0-0.4,0-0.6,0c-0.5,0-0.9,0.1-1.4,0.1c-0.4,0-0.8,0.1-1.2,0.2c-0.5,0.1-0.9,0.2-1.3,0.2
				c-0.3,0-0.7,0.2-1.1,0.3c-0.3,0.1-0.5,0.2-0.7,0.3c0,0,0,0,0,0c0.2,0.2,0.5,0.5,1,0.7c0.4,0.3,0.8,0.5,1.2,0.6
				c0.4,0.1,0.7,0.2,1.1,0.2c0.2,0,0.5,0,0.8,0c0.2,0,0.3,0,0.5,0c0.3,0,0.6,0,0.9,0C62.2,66.3,62.4,66.3,62.6,66.3z"/>
		</g>
		<g>
			<path class="st1" d="M59.6,58.1c-0.2,0-0.4,0-0.7,0c-0.5,0-1-0.1-1.6-0.3c-0.6-0.2-1.2-0.5-1.6-0.9l-0.4-0.4
				c-0.1-0.1-0.2-0.2-0.3-0.4c-0.1-0.2-0.2-0.3-0.2-0.5l0-0.2c0-0.3,0.1-0.5,0.3-0.6l0.1-0.1c0.1-0.1,0.2-0.2,0.3-0.3
				c0.2-0.2,0.5-0.4,1-0.5c0.4-0.1,0.9-0.2,1.4-0.3c0.2,0,0.3,0,0.5,0c0.4,0,0.7,0,1.1,0.1c0.5,0.1,1.1,0.2,1.5,0.4
				c0.5,0.2,0.9,0.5,1.2,0.8c0.4,0.4,0.6,0.7,0.7,1.1c0.1,0.4,0.1,0.8-0.2,1.2c-0.2,0.3-0.6,0.6-1.1,0.7c-0.4,0.1-0.8,0.1-1.3,0.2
				C60.1,58,59.8,58.1,59.6,58.1z M56.6,55.8c0.3,0.3,0.7,0.5,1.1,0.6c0.5,0.1,0.9,0.2,1.3,0.2c0.2,0,0.4,0,0.6,0c0.2,0,0.4,0,0.7,0
				c0.4,0,0.8-0.1,1.1-0.2c0.2,0,0.3-0.1,0.3-0.1c0,0-0.1-0.2-0.3-0.4c-0.2-0.2-0.5-0.4-0.8-0.6c-0.3-0.1-0.7-0.2-1.1-0.3
				c-0.3,0-0.6,0-0.8,0c-0.1,0-0.3,0-0.4,0c-0.4,0-0.8,0.1-1.1,0.2c-0.4,0.1-0.5,0.2-0.5,0.2c-0.1,0.1-0.1,0.1-0.2,0.2
				C56.4,55.7,56.5,55.7,56.6,55.8z M68.6,56.9c-0.1,0-0.2,0-0.3-0.1l-0.7-0.4c-0.5-0.3-1.1-0.5-1.9-0.9c-0.9-0.3-1.7-0.7-2.6-1.1
				l-2.6-1.1c-0.8-0.3-1.5-0.6-2.1-0.9c-0.6-0.2-1.1-0.5-1.7-0.6c-0.4-0.1-0.7-0.2-0.7-0.3c-0.2,0-0.4-0.1-0.5-0.3
				c-0.1-0.1-0.2-0.3-0.2-0.5c0-0.2,0.1-0.4,0.2-0.5c0.1-0.1,0.3-0.2,0.4-0.2l0.1,0.3l0-0.3c0.1,0,0.3,0.1,1.1,0.3
				c0.5,0.2,1,0.4,1.7,0.6c0.6,0.2,1.3,0.6,2.2,0.9l2.5,1.1c0.9,0.4,1.7,0.7,2.6,1c0.9,0.3,1.6,0.7,2.1,0.9l0.7,0.4
				c0.2,0.1,0.3,0.2,0.3,0.4c0.1,0.2,0.1,0.3,0,0.5c-0.1,0.2-0.2,0.3-0.4,0.4l0,0L68.6,56.9z M66.2,53.5c-0.3,0-0.5,0-0.8-0.1
				c-0.5-0.1-1-0.2-1.5-0.4c-0.6-0.2-1.1-0.5-1.4-0.8l-0.4-0.4c-0.1-0.1-0.2-0.3-0.2-0.5c0-0.2,0-0.4,0.2-0.5l0,0l0,0
				c0.1-0.2,0.2-0.3,0.4-0.5c0.2-0.2,0.5-0.4,0.8-0.5c0.3-0.1,0.8-0.3,1.2-0.3c0.2,0,0.5,0,0.8,0c0.2,0,0.5,0,0.8,0
				c0.6,0,1.2,0.2,1.7,0.4c0.6,0.2,1,0.6,1.3,1.1c0.5,0.9,0.1,1.4-0.1,1.6c-0.2,0.2-0.5,0.4-0.8,0.6c-0.4,0.3-0.8,0.4-1.3,0.5
				C66.6,53.5,66.4,53.5,66.2,53.5z M63.5,51.2c0.2,0.2,0.5,0.4,0.9,0.5c0.5,0.2,0.9,0.3,1.2,0.3c0.2,0,0.4,0,0.6,0
				c0.1,0,0.3,0,0.4,0c0.3,0,0.5-0.1,0.7-0.3c0.2-0.1,0.4-0.3,0.5-0.4c-0.1-0.2-0.3-0.3-0.6-0.4c-0.3-0.2-0.7-0.2-1.2-0.3
				c-0.3,0-0.5,0-0.7,0c-0.2,0-0.4,0-0.6,0c-0.3,0-0.6,0.1-0.8,0.2C63.7,51,63.6,51.1,63.5,51.2z"/>
		</g>
	</g>
	<g>
		<path class="st1" d="M88.2,62.1c0.2,0.2,0.6,0.4,1.3,0.7c0.4,0.1,1,0.4,1.7,0.8c1.2,1.2,2.2,2.9,3.1,5c0.8,2.1,1.3,4.4,1.3,7
			c0.1,0.9,0.2,1.9,0.2,3.1c0,3.4-0.7,6.7-2.2,9.8c-1.4,3.1-3.3,5.4-5.7,6.8c-1,0.5-2,0.8-3.1,0.9c-1.1,0.1-2.6,0.2-4.6,0.2
			c-0.7,0-1.8-0.2-3.3-0.5c-1.5-0.4-2.6-0.5-3.3-0.5c-0.9,0-1.5,0-2-0.1c-0.4-0.1-0.7-0.3-1-0.6c-0.2-0.3-0.3-0.8-0.3-1.5V92h3.3
			c0.2-0.9,0.4-2.3,0.5-4.3c0-1,0.1-2.5,0.1-4.6c0-2.1,0-3.9,0.1-5.3c0.1-1.4,0.2-2.9,0.5-4.4v-2.1v-5.5v-11V46
			c-1.5,0-2.6-0.1-3.3-0.4c-0.7-0.2-1.1-0.9-1.1-1.8c0.5-0.5,1.1-0.8,2-0.9c0.9-0.1,2-0.2,3.5-0.2c3.6,0,6.5,0.1,8.6,0.4
			C86.5,43.4,88,44,89,45c0.1,0.3,0.3,0.5,0.4,0.8c0.1,0.2,0.2,0.4,0.3,0.6c0.5,0.9,0.9,1.8,1.2,2.5c0.2,0.7,0.3,1.6,0.3,2.7
			c0.2,0.5,0.3,1.1,0.3,1.9c0,1.4-0.3,2.8-1,4.3c-0.7,1.5-1.5,2.7-2.5,3.7C87.9,61.7,88,62,88.2,62.1z M80.4,47.6
			c-0.1,0.6-0.2,1.5-0.2,2.8c0,2,0.1,3.5,0.2,4.6c0.1,1.1,0.4,2.1,0.9,3.1c0.2,0.2,0.4,0.3,0.6,0.3c0.3,0,0.6-0.1,0.9-0.4
			c0.3-0.3,0.6-0.7,1-1.2l0.8-0.9c0.5-1.4,0.9-2.7,1.2-3.7c0.3-1.1,0.4-2,0.4-2.9c0-0.9-0.1-1.6-0.4-2.1c-0.5-0.5-1.1-0.8-1.9-0.9
			c-0.8-0.1-1.6-0.2-2.5-0.2C80.8,46.5,80.5,47.1,80.4,47.6z M87.9,88.7c0.5-0.5,0.8-1.1,0.9-1.8c0.1-0.8,0.2-1.6,0.2-2.5
			c0.5-0.6,0.8-0.9,0.9-1.1c0.1-0.2,0.1-0.5,0.1-1.1c0.3-0.6,0.5-1.6,0.5-2.8c0-0.5-0.1-1.7-0.3-3.5c-0.1-1.3-0.2-2.1-0.2-2.5
			l0.1-1.8c0-0.4-0.1-0.8-0.2-1.2c-0.1-0.4-0.3-0.9-0.6-1.6c0-0.1,0.1-0.2,0.1-0.3l-0.1-0.8c0-0.1-0.1-0.3-0.3-0.7
			c-0.2-0.4-0.3-0.8-0.6-1.3c-1.1-1.1-2.2-1.9-3.5-2.4c-1.3-0.6-2.4-0.8-3.6-0.8c-0.5,0.5-0.8,1.1-0.9,1.9c-0.1,0.8-0.2,1.6-0.2,2.5
			v17.5V92c1.4,0,2.6-0.1,3.4-0.2c0.9-0.1,1.5-0.4,2-0.9L87.9,88.7z"/>
		<path class="st1" d="M108.5,49.7c0,1,0.1,2,0.3,3.2c0,0.2,0.1,0.8,0.2,1.5c0.1,0.8,0.1,1.5,0.1,2.1c-0.1,2.2-0.2,5.7-0.4,10.5
			c-0.2,4.1-0.3,8.3-0.5,12.7c-0.1,4.4-0.2,8.4-0.2,12.1c0.4,0.4,0.9,0.7,1.7,1.1c0.7,0.4,1.2,0.7,1.6,1c0,0.3-0.1,0.6-0.2,0.7
			c-0.1,0.2-0.4,0.4-0.7,0.6c-0.4,0.2-0.8,0.6-1.2,0.9c-0.4-0.2-1.1-0.3-2-0.5c-0.5,0-1.3-0.1-2.5-0.1c-1.2,0-2.2,0-3-0.1
			c-0.8-0.1-1.6-0.2-2.3-0.5c-0.1,0-0.2-0.2-0.3-0.4c-0.1-0.2-0.2-0.5-0.2-0.8c0-0.4,0.2-0.7,0.5-1c0-0.3,0.1-0.4,0.2-0.5
			c0.1-0.1,0.3-0.1,0.5-0.1c0.3,0,0.6,0,0.7-0.1c0.4-0.1,0.6-0.3,0.7-0.5c0.3-0.3,0.5-0.8,0.5-1.4c0-0.3,0-0.6-0.1-1
			c-0.1-0.4-0.1-0.6-0.2-0.8c-0.1-0.6-0.2-1.1-0.2-1.2c0-1.1,0-2.7,0.1-4.9l0.1-4.7c0-0.2-0.1-0.5-0.1-1c0-0.5-0.1-1-0.1-1.6v-9.9
			V46.6c-0.7,0-1.2-0.1-1.6-0.2c-0.4-0.1-0.6-0.4-0.6-0.9v-2.2c0-0.3,0.1-0.5,0.4-0.5c0.1,0,0.5,0.1,1.1,0.2
			c0.6,0.2,1.2,0.2,1.8,0.2c0.4,0,1.2-0.1,2.5-0.2c0.3,0,0.8-0.1,1.6-0.2c0.8-0.1,1.4-0.1,2-0.1c1.2,0,2.1,0.2,2.7,0.5
			c0.3,0.3,0.4,0.6,0.4,1.1c0,0.6-0.2,1.1-0.7,1.6c-0.5,0.5-1.1,0.7-1.8,0.7C108.7,47.4,108.5,48.5,108.5,49.7z"/>
		<path class="st1" d="M137.4,92.9c-0.6,0.6-1.1,1.1-1.6,1.4c-2.1,1.3-4.3,2-6.6,2c-2.3,0-4.5-0.6-6.5-1.8c-2-1.2-3.5-2.7-4.4-4.5
			c-1.3-2.5-2.4-5.1-3.3-7.7c-0.5-1.9-0.8-3.8-0.9-5.8c-0.1-1.9-0.2-4.4-0.2-7.3c0-0.5,0-1.1-0.1-2c-0.1-0.9-0.1-1.6-0.1-2.1
			c0-0.8,0.1-1.7,0.2-2.5c0-0.2,0.1-0.8,0.3-1.8c0.2-1,0.3-1.8,0.3-2.4c0.1-0.4,0.2-1,0.4-2c0.1-1,0.3-1.7,0.5-2.3
			c0.2-0.6,0.4-1,0.8-1.3c0.4-0.5,1-1.4,1.8-2.6c1.1-1.6,2-2.9,2.8-3.9c0.8-0.9,1.7-1.7,2.9-2.4c1.2-0.7,2.5-1,4.1-1
			c0.7,0,1.3,0,1.7,0.1c2.1,0,3.8,0.3,5.1,1c1.3,0.6,2.5,1.8,3.6,3.4c1.7,1.1,3.1,2.8,4.3,5.1c1.2,2.3,1.9,4.9,2.1,7.7
			c0.1,1.5,0.2,3.4,0.2,5.8v2.4c0,3.6-0.3,6.7-0.9,9.3c-1.1,5.1-2.7,9.6-4.9,13.6C138.4,91.6,138,92.3,137.4,92.9z M135.6,85.7
			c0.6-1.8,1-3.4,1.3-4.6c0.5-1.5,0.8-2.9,0.9-4.4c0.1-1.5,0.2-3.3,0.2-5.5c0-0.8,0.1-1.7,0.2-2.8c0-0.2,0-0.6,0.1-1.2
			c0.1-0.6,0.1-1.1,0.1-1.6c0-0.5,0-1.1-0.1-1.7c0-0.7-0.1-1.2-0.1-1.5c-0.1-1.4-0.2-2.5-0.2-3.2c-0.4-0.7-0.7-1.8-1.1-3.2
			c-0.4-1.5-0.7-2.6-1.1-3.4l-0.6-1.3c-0.6-1.4-1.2-2.5-1.7-3.3c-0.5-0.8-1.1-1.4-1.9-1.8c-0.7,0-1.4,0-2.1-0.1
			c-0.8-0.1-1.6-0.1-2.3-0.1c-1.1,1.1-1.9,2.2-2.6,3.3c-0.6,1.2-1.3,2.6-1.8,4.3c-0.5,1-0.8,1.9-0.9,2.9c-0.1,1-0.2,2.2-0.2,3.7
			c-0.3,2.3-0.4,4.8-0.4,7.6c0,5,0.5,10.5,1.6,16.5c0.2,0.5,0.5,1,0.6,1.6c0.2,0.6,0.3,0.9,0.3,1.1c0.2,0.7,0.4,1.3,0.6,1.7
			c0.2,0.4,0.4,0.8,0.7,1c0.3,0,0.5,0.1,0.6,0.2c0.1,0.1,0.2,0.3,0.2,0.7c0.1,0.4,0.2,0.6,0.4,0.9c0.6,0.6,1.5,0.9,2.8,0.9
			c1.1,0,2.2-0.2,3.2-0.6c1-0.4,1.7-0.9,1.9-1.6C134.5,89.1,135,87.6,135.6,85.7z"/>
	</g>
	<g>
		<path class="st1" d="M154.9,82.5h2.7c0.8,0,1.5,0.2,1.9,0.7c0.5,0.5,0.7,1.1,0.7,2v1.3c0,0.8-0.2,1.5-0.7,2
			c-0.5,0.5-1.1,0.7-1.9,0.7h-1v4.6h-1.7V82.5z M157.5,87.6c0.3,0,0.6-0.1,0.8-0.3c0.2-0.2,0.3-0.4,0.3-0.8v-1.4
			c0-0.3-0.1-0.6-0.3-0.8s-0.4-0.3-0.8-0.3h-0.9v3.5H157.5z"/>
		<path class="st1" d="M165.5,93.8l-1.2-4.6h-0.9v4.6h-1.7V82.5h2.7c0.8,0,1.5,0.2,1.9,0.7c0.5,0.5,0.7,1.1,0.7,2v1.2
			c0,0.5-0.1,1-0.3,1.4c-0.2,0.4-0.5,0.7-0.9,0.9l1.4,5H165.5z M163.3,87.5h0.9c0.3,0,0.6-0.1,0.8-0.3s0.3-0.4,0.3-0.8v-1.3
			c0-0.3-0.1-0.6-0.3-0.8s-0.4-0.3-0.8-0.3h-0.9V87.5z"/>
		<path class="st1" d="M169.2,93.2c-0.5-0.5-0.8-1.2-0.8-2v-6.1c0-0.8,0.3-1.5,0.8-2c0.5-0.5,1.2-0.7,2-0.7c0.8,0,1.5,0.2,2,0.7
			c0.5,0.5,0.8,1.2,0.8,2v6.1c0,0.8-0.3,1.5-0.8,2c-0.5,0.5-1.2,0.7-2,0.7C170.4,93.9,169.8,93.7,169.2,93.2z M172,92
			c0.2-0.2,0.3-0.5,0.3-0.8v-6.1c0-0.4-0.1-0.6-0.3-0.8c-0.2-0.2-0.4-0.3-0.8-0.3c-0.3,0-0.6,0.1-0.8,0.3c-0.2,0.2-0.3,0.5-0.3,0.8
			v6.1c0,0.4,0.1,0.6,0.3,0.8s0.4,0.3,0.8,0.3C171.5,92.3,171.8,92.2,172,92z"/>
		<path class="st1" d="M175.7,82.5h2.7c0.8,0,1.5,0.2,1.9,0.7c0.5,0.5,0.7,1.1,0.7,2v5.9c0,0.8-0.2,1.5-0.7,2
			c-0.5,0.5-1.1,0.7-1.9,0.7h-2.7V82.5z M178.3,92.2c0.3,0,0.6-0.1,0.8-0.3c0.2-0.2,0.3-0.4,0.3-0.8v-5.9c0-0.3-0.1-0.6-0.3-0.8
			s-0.4-0.3-0.8-0.3h-0.9v8H178.3z"/>
		<path class="st1" d="M183.4,93.2c-0.5-0.5-0.7-1.1-0.7-1.9v-8.8h1.7v8.8c0,0.3,0.1,0.6,0.3,0.8c0.2,0.2,0.4,0.3,0.7,0.3
			c0.3,0,0.5-0.1,0.7-0.3s0.3-0.4,0.3-0.8v-8.8h1.7v8.8c0,0.8-0.2,1.4-0.7,1.9s-1.1,0.7-1.9,0.7C184.5,93.9,183.9,93.7,183.4,93.2z"
			/>
		<path class="st1" d="M192.1,89.1l-0.6,1.2v3.4h-1.7V82.5h1.7v4.6l2.3-4.6h1.8l-2.4,4.8l2.6,6.5h-1.8L192.1,89.1z"/>
		<path class="st1" d="M196.4,82.5h5.4v1.6H200v9.6h-1.7v-9.6h-1.9V82.5z"/>
		<path class="st1" d="M203.1,82.5h4.8v1.6h-3.1v3.1h2.5v1.6h-2.5v3.3h3.1v1.6h-4.8V82.5z"/>
	</g>
</g>
</svg>
