<?xml version="1.0" encoding="utf-8"?>
<!-- Generator: Adobe Illustrator 26.0.2, SVG Export Plug-In . SVG Version: 6.00 Build 0)  -->
<svg version="1.1" id="Ebene_1" xmlns="http://www.w3.org/2000/svg" xmlns:xlink="http://www.w3.org/1999/xlink" x="0px" y="0px"
	 viewBox="0 0 76.7 77.7" style="enable-background:new 0 0 76.7 77.7;" xml:space="preserve">
<style type="text/css">
	.st0{fill:#A49A80;}
	.st1{fill:#FFFFFF;}
</style>
<path class="st0" d="M76.4,35.1c0-0.1,0-0.1-0.1-0.2c0-0.2,0-0.4,0-0.6c-0.1-0.7-0.2-1.4-0.4-2.1c-0.1-3.2-1-6.4-2.2-9.4
	c-0.5-1.2-1-2.3-1.6-3.5c-0.4-0.9-0.9-1.7-1.4-2.5c-0.6-0.9-1.2-1.7-1.8-2.5c-0.3-0.3-0.5-0.6-0.8-0.9c-1.4-1.9-3-3.7-5.4-4.2
	c-0.6-0.3-1.3-0.7-2-1c-1.1-0.5-2.3-1-3.4-1.5c0,0,0-0.1,0-0.1C53.8,5,50,3.7,46,3c-0.5-0.1-1.1-0.3-1.6-0.4C43.7,2.4,43,2.2,42.3,2
	c2.1-0.1,4.2,0.1,6.3,0.4c6,0.9,11.6,3.2,16.8,6.1c0.3,0.2,0.5-0.2,0.2-0.4c-5.2-3.8-11.3-6.7-17.7-7.7c-3.3-0.5-6.6-0.4-9.9,0.3
	c-0.9,0.2-1.7,0.5-2.6,0.6c-0.2,0-0.4,0-0.7,0.1c-0.7,0.1-1.3,0.2-2,0.2c-1.5,0.1-3,0.5-4.5,0.9c-1.7,0.4-3.1,1.2-4.5,2.1
	c-2.7,1.7-5.1,3.6-7.9,5.2c-2.8,1.6-5.2,4.1-7.4,6.6c-1.1,1.2-2.1,2.5-3,3.9c-1,1.5-1.8,3.2-2.7,4.9c-0.3,0.5-0.5,1.1-0.8,1.6
	c0,0.9-0.2,1.8-0.6,2.7c-1,2.5-1.4,5.1-1.4,7.8c0,2.5,0,5,0,7.5c0.1,0.5,0.2,1,0.2,1.5c0.3,1,0.7,2,1,3c0.4,1.9,1.1,3.6,2.3,5.3
	c0.3,0.4,0.6,0.7,0.8,1.1c0.8,1.5,1.7,3,2.6,4.5c1.8,2.7,3.8,4.9,6.2,7c0.5,0.5,1,0.9,1.4,1.5c0.6,0.7,1.4,1.2,2.1,1.8
	c1.3,1,2.7,2,4.1,3c2.5,1.7,5,2.7,8,3.3c3.4,0.7,6.8,0.8,10.3,1.1c1.5,0.1,2.8,0.3,4.3,0c0.7-0.1,1.4-0.4,2.1-0.7
	c0.8-0.3,1.6-0.5,2.4-0.8c1.1-0.4,2.1-0.9,3-1.5c0.7-0.2,1.3-0.5,2-0.7c0.7-0.3,1.4-0.7,2.1-1.1c2.3-0.6,4.5-1.5,6.5-2.8
	c0,0,0.1,0.1,0.2,0c0-0.1,0.1-0.1,0.1-0.2c0.4-0.3,0.8-0.6,1.3-0.9c2.8-2,4.9-4.6,6.9-7.3c2-2.7,3.7-5.4,4.6-8.6
	c0.4-1.5,0.7-3,1.2-4.5c0.5-1.7,0.4-3.4,0.4-5.2c0-1.4,0.4-2.7,0.2-4.1c0-0.2-0.1-0.5-0.1-0.7c0.1-0.4,0.2-0.8,0.3-1.2
	C76.7,36.6,76.6,35.9,76.4,35.1z M1.4,34.8c-0.1,1.2-0.2,2.5-0.3,3.7c-0.1-1.4-0.3-2.9-0.2-4.3c0-1,0.2-2,0.3-3
	C1.3,32.5,1.5,33.6,1.4,34.8z M3.7,28.8c0.1-0.5,0.2-1,0.5-1.5c0.1-0.3,0.3-0.5,0.4-0.8C4.3,27.3,4,28.1,3.7,28.8z M8.7,60.7
	c0.5,0.6,1.1,1.3,1.6,1.9c0,0,0.1,0.1,0.1,0.1C9.8,62.1,9.2,61.4,8.7,60.7z M29.6,4.5c0.3-0.1,0.6-0.1,1-0.2h0
	C29.3,4.6,28.2,5,27,5.4C27.8,5,28.7,4.7,29.6,4.5z M29.7,75.5c-1.3-0.2-2.6-0.5-3.9-0.9c-1.6-0.5-2.9-1.4-4.3-2.3
	c-0.3-0.2-0.7-0.5-1-0.7c0.8,0.3,1.6,0.4,2.4,0.6c0.7,0.3,1.3,0.6,2,0.9c1.4,0.5,2.7,1.1,4.2,1.5c1.5,0.4,2.9,0.8,4.4,1.3
	c0.3,0.1,0.6,0.2,0.9,0.3C32.8,76,31.3,75.8,29.7,75.5z M47.4,74.5c-1.8,0.6-3.6,0.6-5.5,0.9c-1.9,0.3-3.6,0.3-5.5-0.1
	c-1.6-0.3-2.9-0.9-4.4-1.5c-0.2-0.1-0.3-0.1-0.5-0.1c1.6,0.4,3.2,0.8,4.9,1c3.5,0.4,7.2,0.6,10.6-0.6c0,0,0,0,0.1,0
	c1-0.1,2-0.3,3-0.6c0.2,0,0.4,0,0.6-0.1C49.7,73.8,48.6,74.1,47.4,74.5z M68.4,59c-0.2,0.3-0.3,0.5-0.4,0.6c-0.3,0.3-0.5,0.7-0.7,1
	c-0.4,0.4-0.7,0.8-1.1,1.2c-0.5,0.5-0.9,1-1.4,1.5C65.9,61.8,67.1,60.3,68.4,59z M62.9,9.5c1.8,0.5,3.1,1.7,4.3,3.1
	C65.9,11.5,64.5,10.4,62.9,9.5z M66.1,63.1c-0.1,0.1-0.1,0.2-0.2,0.3c-0.3,0.4-0.6,0.8-0.9,1.1c-0.4,0.3-0.9,0.7-1.3,1
	C64.5,64.7,65.3,63.9,66.1,63.1z M75.3,46.5c-0.1,1.8-0.8,3.6-1.2,5.3c-0.4,1.6-0.9,3.1-1.6,4.6c-0.8,1.6-1.9,3.1-3,4.5
	c-1.6,2.2-3.3,4.2-5.3,5.9c0,0,0,0,0-0.1c0.6-0.6,1.2-1.2,1.8-1.9c0.6-0.8,1-1.5,1.4-2.3c0.4-0.6,0.8-1.3,1-2.1
	c0.9-1.1,1.8-2.3,2.5-3.5c0.4-0.5,0.6-1.1,0.8-1.6c0.3-0.4,0.5-0.9,0.8-1.4c0.7-1.6,1.1-3.2,1.6-4.8c0.4-1.4,0.9-2.8,1.3-4.3
	C75.4,45.4,75.4,46,75.3,46.5z"/>
<g>
	<g>
		<path class="st1" d="M9.7,16.4c0.4-0.3,0.8-0.5,1.1-0.8c0.6-0.6,1.1-1,1.4-1.4c0.1-0.1,0.2-0.1,0.3-0.1c0.3,0,0.6,0.2,0.9,0.8
			c0.6,3.1,1,6.1,1.3,9.1c0.4-0.6,0.8-1.3,1.3-1.9c1.5-2,3.2-3.6,5.1-4.9c1-0.7,2-1.2,3-1.5c0.9-0.3,1.8-0.5,2.6-0.5h0.4
			c1.2,0.1,2.2,0.5,3.3,1.3c1,0.8,1.8,2,2.4,3.7c0.4,1,0.6,2.1,0.6,3.1c0,1.1-0.3,2.1-0.6,3.1c-0.6,1.6-1.5,3.2-2.8,4.7
			c-1.2,1.5-2.6,2.8-4,3.9c-0.1,0.1-0.3,0.2-0.4,0.3c0.6,0.3,1.2,0.5,1.9,0.8c1.2,0.6,2.4,1.4,3.5,2.2c1.1,0.9,2.1,1.8,3,3
			c1,1.2,1.8,2.5,2.3,4c0.6,1.4,0.9,2.9,0.9,4.5V50c-0.1,4.3-1.1,8-3,11.2c-1.9,3.1-5,4.8-9.4,5h-1c-2.1,0-3.5-0.3-4.4-1
			c-1-0.7-1.5-1.8-1.5-3.1c0-1.8,0.5-3.3,1.4-4.4c0.9-1.1,1.8-1.5,2.8-1.2c0.5,0.5,0.8,1,1,1.7c0.1,0.7,0.2,1.2,0.3,1.7
			c-0.5-0.1-1,0-1.7,0.4c-0.7,0.4-1,0.8-1,1.3c0,0.5,0.5,1.1,1.3,1.7c0.9,0.6,1.7,0.9,2.6,0.8c0.5,0,0.9-0.3,1.3-0.9
			c0.4-0.6,0.8-1.3,1.2-2.2c0.6-1.8,1.1-4,1.4-6.7c0.3-2.8,0.2-5.5-0.1-8.3c-0.2-1.6-0.6-3.1-1.2-4.4c-0.6-1.3-1.3-2.5-2.2-3.4
			c-0.6-0.6-1.2-1.2-1.8-1.7c-1.2,0.6-2.3,1-3.3,1.3c-2,0.5-3,0-3.2-1.5c-0.2-1.8,0.9-2.7,3.3-2.7c0.5,0,1,0,1.6,0.1
			c0.6-0.6,1.1-1.4,1.7-2.2c0.6-0.9,1.2-1.8,1.8-2.8c0.6-1,1-2.1,1.3-3.1c0.3-0.9,0.4-1.9,0.4-2.9c0-0.9-0.1-1.8-0.5-2.7
			c-0.6-1.4-1.8-1.9-3.4-1.5c-1.6,0.4-3.2,1.5-4.8,3.3c-0.9,1-1.6,2.1-2.4,3.5l-0.5,1c0.3,3.8,0.5,7.4,0.5,11v0.6
			c0,7.4-0.2,14.2-0.4,20.5c-0.2,0.5-0.5,0.8-0.8,1.1c-0.3,0.2-0.7,0.3-1,0.4c-0.1,0-0.2,0.1-0.3,0.1c-1,0-2-0.6-3-1.6
			c-1.2-1.2-1.9-2.2-2.2-3.3c-0.6-2-1-4.3-1.2-6.9c-0.1-2-0.2-4-0.2-6.1v-2.1c0-1.8,0.1-3.6,0.3-5.5c0.1-1.8,0.2-3.6,0.3-5.3
			c0.3-3.1,0.5-5.8,0.8-8.1c0.3-2.3,0.4-3.8,0.3-4.5C8.8,16.8,9.2,16.7,9.7,16.4z M19.6,35.6c0.1-0.1,0.3-0.3,0.4-0.4
			c-1.5-0.4-2.2,0-2.1,1.2C18,36.8,18.5,36.5,19.6,35.6z"/>
		<path class="st1" d="M41.8,45.8c0.5-0.5,1-0.8,1.5-1c0.6-0.3,1.2-0.4,1.7-0.4c0.3,0,0.7,0,1,0.1c0.9,0.3,1.4,0.6,1.4,1.2
			c0,0.3,0,1.1-0.1,2.2c-0.1,1.2-0.2,2.4-0.3,3.8c-0.1,1.6-0.1,3.1-0.1,4.6c0,1.4,0.3,2.1,0.9,2.1c0.6,0,1.3-0.6,2.2-1.7
			c0.9-1.1,1.8-2.3,2.6-3.7c0.6-0.9,1-1.8,1.5-2.6c0.4-0.8,0.7-1.5,0.9-1.9c0.3,0,0.5,0,0.8,0c0.3,0,0.5,0.1,0.8,0.3
			c-0.3,0.8-1,2-1.9,3.7c-0.9,1.7-1.8,3.2-3,4.6c-0.7,0.9-1.5,1.6-2.3,2.2c-0.6,0.4-1.2,0.6-1.7,0.6c-0.2,0-0.3,0-0.5-0.1
			c-4.1-1-6.5-2.5-7.2-4.6c-0.3-0.8-0.4-1.7-0.4-2.6c0-1.5,0.4-3.2,1.1-5.1C41,46.8,41.4,46.3,41.8,45.8z M43.4,39.4
			c0-0.6,0.5-1.1,1.3-1.4c0.6-0.2,1.1-0.3,1.5-0.3c0.4,0,0.7,0,1.1,0.1c0.7,0.3,1.1,0.9,1.3,1.9c0,0.3,0.1,0.5,0.1,0.7
			c0,0.5-0.1,0.8-0.4,0.8c0,0-0.1,0-0.1-0.1c-1.1-0.2-2.1-0.4-3.1-0.4c-1,0-1.6-0.4-1.7-1.1C43.4,39.6,43.4,39.5,43.4,39.4z"/>
		<path class="st1" d="M60.8,42.1c0.6,0,1.1,0.3,1.4,1c0.1,0.3,0.2,0.5,0.3,0.6c0.5-0.3,1.1-0.4,1.8-0.3c1.1,0.2,1.9,1.2,2.4,2.9
			c0.6,1.7,0.8,3.6,0.7,5.5c1.1,0,2.1-0.5,3.1-1.3c1.1-0.9,1.8-1.9,2.1-2.9c0.2,0,0.4,0,0.6,0c0.3,0,0.5,0.1,0.7,0.1
			c-0.3,1.2-1.1,2.4-2.6,3.7c-1.3,1.1-2.6,1.7-4,1.7c-0.1,0.9-0.3,1.7-0.5,2.5c-0.3,1.2-0.9,2.2-1.5,2.9c-0.4,0.4-0.9,0.7-1.5,1
			c-0.3,0.1-0.6,0.2-1,0.2c-0.3,0-0.5,0-0.8-0.1c-3.4-0.7-5.8-2.1-7.2-4.3c-1-1.4-1.5-2.9-1.5-4.4c0-0.8,0.1-1.5,0.4-2.3
			c0.4-1.2,1.1-2.4,2.2-3.5c1.1-1.1,2.5-2.1,4.2-2.9C60.3,42.2,60.6,42.1,60.8,42.1z M59.4,51.4c-0.1,0.9-0.2,1.7-0.1,2.5
			c0.1,1.5,0.4,2.7,1,3.7c0.6,1,1.4,1.3,2.4,1c0.3-0.1,0.7-0.8,1-2.1c0.3-1.2,0.5-2.5,0.7-4c-0.6-0.3-1.2-0.7-1.6-1.2
			c-0.4-0.5-0.8-1-1-1.5c-0.2-0.6-0.4-1.1-0.5-1.7c-0.1-0.5-0.1-0.9-0.1-1.3c-0.5,0.6-0.8,1.3-1.1,2.1
			C59.8,49.7,59.6,50.5,59.4,51.4z M64.2,44.6c-0.3,0.3-0.6,0.6-0.8,0.9c-0.2,0.3-0.3,0.6-0.3,1c-0.1,1.1,0.2,2.2,1.1,3.4
			c0.1,0.2,0.3,0.4,0.5,0.6c0.1-1.4,0.2-2.7,0.2-3.9C64.9,45,64.7,44.3,64.2,44.6z"/>
	</g>
	<g>
		<path class="st1" d="M40.5,18.4c-0.2,2.3-0.3,4.7-0.3,7.3c0,2.5,0.1,5,0.3,7.3c0,0,0.1,0.1,0.3,0.2c0.2,0.1,0.3,0.2,0.3,0.3
			c0.1,0.1,0.1,0.3,0.1,0.5c-0.1,0.1-0.2,0.1-0.3,0.2c-0.1,0-0.2,0-0.4,0c-0.2,0-0.3,0-0.4,0c-0.1,0-0.2,0.1-0.3,0.1
			c0,0-0.1-0.1-0.2-0.1c-0.1,0-0.2,0-0.4,0l-0.9,0c-0.4,0-0.7,0-1-0.1c-0.2-0.1-0.4-0.3-0.4-0.5c0-0.2,0.1-0.3,0.2-0.3
			c0.1,0,0.4-0.1,0.9-0.1v-2.1v-3.9c0-0.4,0-0.9,0.1-1.4c0-0.5,0.1-0.9,0.1-1.2c0-0.5-0.1-0.9-0.2-1.3c0.1-0.2,0.2-0.5,0.2-0.9
			c0-0.2,0-0.6-0.1-1.2c-0.1-0.4-0.1-0.8-0.1-1.1c-0.1,0-0.2,0.1-0.3,0.2c-0.1,0.1-0.1,0.1-0.2,0.2c-0.1,0-0.1,0.1-0.2,0.1
			c-0.1,0-0.2,0-0.4-0.1v-0.7c0.1-0.4,0.3-0.9,0.6-1.6c0-0.1,0.1-0.3,0.2-0.6c0.1-0.3,0.2-0.5,0.3-0.7c0.1,0,0.3,0,0.6,0
			c0.2,0,0.4-0.1,0.7-0.1c0.5,0,0.9,0.1,1.2,0.4V18.4z"/>
		<path class="st1" d="M46.3,17c0.5,0,0.9,0.1,1.3,0.2c0.4,0.1,0.8,0.3,1,0.6c0.3,0.3,0.6,0.7,0.8,1.1c0.2,0.4,0.4,1,0.6,1.6
			c0.1,0.3,0.2,0.6,0.3,0.9c0.1,0.3,0.1,0.6,0.2,0.9c0.1,0.3,0.1,0.7,0.1,1.2c0,0.4,0,0.6,0,0.8l0,0.9c0,0.7,0,1.3-0.1,1.8
			c0,0.5-0.1,1-0.3,1.5c0,1-0.2,2.1-0.7,3.3c-0.2,0.5-0.5,1-0.9,1.4c-0.4,0.4-0.8,0.7-1.2,0.8c-0.6,0.2-1.1,0.2-1.5,0.2
			c-0.4,0-0.8-0.1-1.1-0.2c-0.3-0.2-0.6-0.3-0.8-0.6c-0.2-0.2-0.4-0.5-0.7-0.9c-0.2-0.3-0.3-0.5-0.5-0.7c-0.5-1.4-0.8-2.7-1.1-3.7
			c0.1-0.1,0.2-0.2,0.2-0.3c0,0,0-0.1-0.1-0.2c-0.1-0.1-0.1-0.2-0.1-0.3v-1.1c0-1.3,0-2.4,0.1-3.3c0.1-0.9,0.2-1.8,0.5-2.6
			c0.3-0.8,0.7-1.6,1.2-2.2l0.2-0.3c0.2-0.2,0.4-0.4,0.6-0.6c0.2-0.1,0.6-0.3,1.1-0.4C45.7,17,46,17,46.3,17z M45.2,19.5
			c-0.2,0.2-0.3,0.4-0.4,0.5c0,0.1-0.1,0.3-0.2,0.6c-0.1,0.2-0.1,0.4-0.2,0.6c0,0.2-0.1,0.5-0.1,1c-0.1,0.4-0.1,0.8-0.1,1
			c0,0.5,0,1.1-0.1,1.9c0,0.2,0,0.5-0.1,0.9c0,0.4,0,0.7,0,1v2.3c0,0.7,0.1,1.4,0.4,2.1c0.3,0.7,0.6,1.2,1,1.6
			c0.2,0.2,0.4,0.3,0.8,0.3c0.2,0,0.3,0,0.5-0.1c0.2-0.1,0.3-0.1,0.4-0.2c0.2-0.2,0.3-0.4,0.5-0.7c0.2-0.3,0.3-0.7,0.5-1.1
			c0.2-0.4,0.3-0.8,0.3-1.1c0-0.4,0.1-0.8,0.1-1.3l0-2.2l0-1.7v-1v-1.1c0-0.1,0-0.3,0-0.6c0-0.2,0-0.4,0-0.5c0-0.4-0.1-0.7-0.2-0.9
			c-0.1-0.1-0.1-0.2-0.2-0.4c-0.1-0.1-0.2-0.3-0.2-0.4c-0.1-0.1-0.1-0.3-0.2-0.5c0-0.1-0.2-0.2-0.4-0.3c-0.2-0.1-0.4-0.1-0.6-0.1
			c-0.4,0-0.6,0.1-0.8,0.2C45.6,19.1,45.4,19.3,45.2,19.5z"/>
		<path class="st1" d="M56.2,17c0.5,0,0.9,0.1,1.3,0.2c0.4,0.1,0.8,0.3,1,0.6c0.3,0.3,0.6,0.7,0.8,1.1c0.2,0.4,0.4,1,0.6,1.6
			c0.1,0.3,0.2,0.6,0.3,0.9c0.1,0.3,0.1,0.6,0.2,0.9c0.1,0.3,0.1,0.7,0.1,1.2c0,0.4,0,0.6,0,0.8l0,0.9c0,0.7,0,1.3-0.1,1.8
			c0,0.5-0.1,1-0.3,1.5c0,1-0.2,2.1-0.7,3.3c-0.2,0.5-0.5,1-0.9,1.4c-0.4,0.4-0.8,0.7-1.2,0.8c-0.6,0.2-1.1,0.2-1.5,0.2
			c-0.4,0-0.8-0.1-1.1-0.2c-0.3-0.2-0.6-0.3-0.8-0.6c-0.2-0.2-0.4-0.5-0.7-0.9c-0.2-0.3-0.3-0.5-0.5-0.7c-0.5-1.4-0.8-2.7-1.1-3.7
			c0.1-0.1,0.2-0.2,0.2-0.3c0,0,0-0.1-0.1-0.2c-0.1-0.1-0.1-0.2-0.1-0.3v-1.1c0-1.3,0-2.4,0.1-3.3c0.1-0.9,0.2-1.8,0.5-2.6
			c0.3-0.8,0.7-1.6,1.2-2.2l0.2-0.3c0.2-0.2,0.4-0.4,0.6-0.6c0.2-0.1,0.6-0.3,1.1-0.4C55.6,17,55.9,17,56.2,17z M55.1,19.5
			c-0.2,0.2-0.3,0.4-0.4,0.5c0,0.1-0.1,0.3-0.2,0.6c-0.1,0.2-0.1,0.4-0.2,0.6c0,0.2-0.1,0.5-0.1,1c-0.1,0.4-0.1,0.8-0.1,1
			c0,0.5,0,1.1-0.1,1.9c0,0.2,0,0.5-0.1,0.9c0,0.4,0,0.7,0,1v2.3c0,0.7,0.1,1.4,0.4,2.1c0.3,0.7,0.6,1.2,1,1.6
			c0.2,0.2,0.4,0.3,0.8,0.3c0.2,0,0.3,0,0.5-0.1c0.2-0.1,0.3-0.1,0.4-0.2c0.2-0.2,0.3-0.4,0.5-0.7c0.2-0.3,0.3-0.7,0.5-1.1
			c0.2-0.4,0.3-0.8,0.3-1.1c0-0.4,0.1-0.8,0.1-1.3l0-2.2l0-1.7v-1v-1.1c0-0.1,0-0.3,0-0.6c0-0.2,0-0.4,0-0.5c0-0.4-0.1-0.7-0.2-0.9
			c-0.1-0.1-0.1-0.2-0.2-0.4c-0.1-0.1-0.2-0.3-0.2-0.4c-0.1-0.1-0.1-0.3-0.2-0.5c0-0.1-0.2-0.2-0.4-0.3c-0.2-0.1-0.4-0.1-0.6-0.1
			c-0.4,0-0.6,0.1-0.8,0.2C55.5,19.1,55.3,19.3,55.1,19.5z"/>
		<path class="st1" d="M63.7,19c-0.1,0.1-0.2,0.2-0.3,0.4c-0.2,0.2-0.3,0.4-0.5,0.5c-0.2,0.1-0.4,0.2-0.6,0.2
			c-0.2,0-0.5-0.1-0.7-0.3c-0.2-0.2-0.4-0.4-0.5-0.7c-0.1-0.3-0.2-0.5-0.2-0.8c0-0.3,0.1-0.6,0.3-0.7c0.2-0.2,0.5-0.2,0.8-0.2
			c0.4,0,0.7,0.1,1.1,0.3c0.3,0.2,0.6,0.4,0.7,0.7V19z M61.9,31.6c0.2-0.6,0.4-1.1,0.5-1.5c0.1-0.4,0.2-0.8,0.2-1.1
			c0.4-0.9,0.8-1.7,1.2-2.6c0.3-0.9,0.7-2,1.2-3.3c0.1-0.3,0.1-0.5,0.2-0.5c0-0.1,0-0.2,0.1-0.3c0-0.1,0.1-0.2,0.2-0.3
			c0.2-0.4,0.3-0.6,0.3-0.8c0.2-0.5,0.4-1.1,0.9-1.9l0.4-0.7c0-0.4,0-0.7,0.1-0.9c0-0.2,0.1-0.2,0.3-0.2c0.1-0.1,0.2-0.2,0.4-0.2
			c0.1,0,0.2,0,0.4,0.1c0.1,0.1,0.3,0.1,0.4,0.1c0.1,0.1,0.1,0.3,0.1,0.4c0,0.2-0.1,0.5-0.2,0.9c-0.1,0.1-0.1,0.3-0.2,0.4
			c0,0.2-0.1,0.3-0.1,0.4l-0.1,0.4c-0.4,1.3-0.8,2.4-1.2,3.3c-0.3,0.9-0.7,1.7-1.2,2.4c-0.3,1-0.6,2-0.9,3c-0.3,1-0.8,2.2-1.4,3.7
			l-0.6,1.5c0,0-0.1,0.1-0.1,0.1c-0.1,0.1-0.2,0.1-0.3,0.2c-0.1,0.1-0.2,0.1-0.3,0.1c0,0-0.1-0.1-0.2-0.1c-0.1-0.1-0.2-0.2-0.3-0.3
			c-0.1-0.1-0.2-0.2-0.2-0.3c0-0.1,0.1-0.3,0.2-0.6c0.1-0.2,0.2-0.4,0.2-0.5C61.6,32.5,61.7,32.2,61.9,31.6z M67.9,34.1
			c-0.1,0-0.2,0.1-0.3,0.1c-0.2,0-0.5-0.1-0.7-0.3c-0.2-0.2-0.4-0.4-0.5-0.6c-0.1-0.3-0.2-0.5-0.2-0.8c0-0.2,0.1-0.4,0.2-0.6
			c0.2-0.2,0.3-0.3,0.5-0.3c0.2,0,0.5-0.1,0.9-0.1c0.1,0,0.3,0.1,0.4,0.2c0.2,0.1,0.4,0.3,0.5,0.4c0.1,0.2,0.2,0.4,0.2,0.5
			c0,0.1,0,0.2-0.1,0.3C68.9,33.4,68.6,33.7,67.9,34.1z"/>
	</g>
</g>
</svg>
