<?xml version="1.0" encoding="utf-8"?>
<!-- Generator: Adobe Illustrator 26.0.2, SVG Export Plug-In . SVG Version: 6.00 Build 0)  -->
<svg version="1.1" id="Ebene_1" xmlns="http://www.w3.org/2000/svg" xmlns:xlink="http://www.w3.org/1999/xlink" x="0px" y="0px"
	 viewBox="0 0 45.3 61.1" style="enable-background:new 0 0 45.3 61.1;" xml:space="preserve">
<style type="text/css">
	.st0{fill:#889172;}
</style>
<g>
	<path class="st0" d="M29.3,0.5c-0.3,0.3-0.5,0.7-0.6,1.2c0,0.1,0,0.1,0,0.2c-0.1,0.7,0.3,1.4,1,1.8c0.1,0.1,0.2,0.2,0.3,0.3
		c0,0.1,0.1,0.2,0.2,0.3c0.1,0.1,0.2,0.3,0.2,0.4l0,0.2c0,0.3,0.1,0.7,0,1.1c0,0.3,0,0.6-0.1,0.9c-0.1,1.4-0.4,2.9-0.7,4.2l-0.2,0.8
		c-0.1,0.3-0.3,0.5-0.7,0.5c-0.4,0.1-0.7-1.2-1.4-1.9c-0.5-0.5-1-0.9-1.6-1.3c-2.9-1.9-5.6-2.1-8.8-1.8c-0.2,0-0.3,0.1-0.4,0.3
		c-0.1,0.2-0.2,0.6,0,0.8c0,0,0.1,0.2,0.1,0.2c0,0.1,0.1,0.1,0.1,0.2c0.5,0.5,0.9,1.3,1.3,1.9c0.2,0.3,0.4,0.7,0.6,1
		c0.8,1.1,1.7,2.1,2.8,2.9c1.5,1.1,4.9,2,6.6,1.1c0,0,0,0,0,0.1c0,0,0.1,0,0.1,0c0.3,0.1,0.4,0.4,0.4,0.7c0,0,0,0.1,0,0.1
		c-0.2,0.7-0.4,1.5-0.6,2.2c-0.1,0.3-0.1,0.5-0.2,0.8c0,0.1,0,0.2-0.1,0.2c0,0.1,0,0.1-0.1,0.2c-0.3,1.1-0.7,2.2-1,3.2
		c-0.1,0.3-0.4,0.5-0.7,0.5c-0.3,0-0.6-0.2-0.6-0.5c-0.4-1.5-1.2-3.1-2.5-5.1c-1.1-1.6-2.8-2.6-4.5-3.6l-0.2-0.1
		c-0.6-0.4-1.3-0.7-2-0.9c-0.2-0.1-0.6-0.1-0.9-0.1c-0.6,0-1.2,0-1.6-0.2c-0.2-0.1-0.3-0.1-0.5,0c-0.1,0-0.1,0-0.2,0
		c-0.1,0-0.3,0.1-0.4,0.4c-0.1,0.3-0.2,0.6-0.2,1c-0.3,2.9,1.6,6.5,3.4,8.6c2.4,2.7,5.5,3.9,8.4,3.3c0.2,0,0.3,0,0.5,0.1
		c0.1,0,0.1,0.1,0.2,0.1c0.2,0.1,0.3,0.2,0.4,0.4c0.1,0.1,0.1,0.2,0.1,0.4c0,0.1,0,0.1,0,0.2c-0.7,1.9-1.6,3.8-2.5,5.8l-0.4,0.9
		c-0.1,0.3-0.4,0.4-0.7,0.4c-0.3,0-0.5-0.2-0.6-0.5c-0.4-1.7-1.3-3.4-2.7-5.2c-2-2.5-4.6-3.8-8.7-4.1c-0.2,0-0.3,0-0.4,0.1
		c-0.1,0.1-0.3,0.1-0.4,0c-0.2-0.1-0.5,0-0.7,0.1c-0.2,0.1-0.2,0.3-0.3,0.6c0,0,0,0,0,0.1c0.2,3.3,0.8,6,3.3,8.1
		c2.5,2.2,5.8,3.4,8.8,3.1c0.2,0,0.5,0.1,0.6,0.3c0.1,0.1,0.1,0.3,0.1,0.5c0,0.1,0,0.2-0.1,0.2c-1.3,2.5-2.7,5-4.2,7.7
		c-0.2,0.3-0.5,0.4-0.7,0.3c-0.3-0.1-0.5-0.3-0.5-0.6c-0.3-5.4-5.7-9.7-10.5-10.7c-0.2,0-0.3,0-0.4,0c-0.1,0-0.2,0.1-0.2,0.1
		c-0.3,0-0.7,0.3-0.7,0.7c0,0.1,0,0.2,0,0.3c0.1,0.4,0.1,1,0.1,1.8c0,0.2,0,0.5,0,0.6c0,0.7,0.3,1.6,0.7,2.3c0.6,1.5,1.8,2.7,3.1,4
		c1.9,1.8,4.8,3.5,6.9,2.7c0.3-0.1,0.6,0,0.8,0.2c0.1,0.1,0.2,0.3,0.2,0.5c0,0.1,0,0.2-0.1,0.3c-0.7,1.1-1.3,2.1-2,3.1
		c-0.5,0.8-1,1.5-1.5,2.3c-1,1.6-2.1,3.3-3.3,4.9c-0.3,0.4-0.6,0.7-0.9,1.1c0.2,0.4,0.3,0.8,0.4,1.2c0.1,0,0.1-0.1,0.2-0.1
		c1.8-2,3.2-3.9,4.4-5.9c0.8-1.4,1.7-2.7,2.5-4.1l1.4-2.3c0.1-0.2,0.3-0.3,0.6-0.3c0.2,0,0.5,0.1,0.6,0.3c3.4,5.8,10.7,5,15.9,2.5
		c0.3-0.1,0.4-0.4,0.4-0.6c0-0.1,0-0.5-0.4-0.7c0,0-0.1-0.1-0.2-0.1c-0.1,0-0.1,0-0.2-0.1c-0.2,0-0.4-0.2-0.5-0.4
		c-1-1.9-3.2-3.6-5.7-4.3c-1.3-0.4-2.8-0.6-4-0.5c-1,0.1-1.9,0.3-2.8,0.6l-0.3,0.1c-0.3,0.1-0.6,0-0.7-0.2c-0.1-0.1-0.2-0.3-0.1-0.5
		c0-0.1,0-0.2,0.1-0.3c1-1.7,1.9-3.3,2.7-4.7c0.1-0.2,0.3-0.3,0.5-0.4c0.2,0,0.5,0.1,0.6,0.3c1.2,1.7,3.5,2.9,5,3.3
		c4.3,1,8.2-1.6,10.7-3.9c0.2-0.2,0.3-0.4,0.3-0.5c0-0.2-0.1-0.4-0.2-0.6c-0.1-0.1-0.1-0.2-0.2-0.3c-0.1-0.1-0.2-0.1-0.3-0.1
		c-0.2,0-0.4-0.1-0.5-0.3c-0.1-0.2-0.3-0.3-0.4-0.3c-0.1,0-0.2-0.1-0.2-0.1c-3.4-2.7-8-3.4-11.6-1.8c-0.3,0.1-0.6,0.1-0.8-0.1
		c-0.1-0.1-0.2-0.4-0.2-0.6c0-0.1,0-0.1,0.1-0.2c0.8-1.7,1.5-3.4,2.2-5.1c0.1-0.2,0.3-0.4,0.5-0.4c0.2,0,0.5,0,0.6,0.2
		c2.1,2.3,4.9,3.6,7.1,3.4c3.9-0.4,6.6-3.2,8.2-5.4c0.1-0.1,0.1-0.2,0.1-0.3c0-0.2-0.1-0.4-0.2-0.5c-0.1-0.2-0.4-0.3-0.5-0.3
		c-0.1,0-0.3-0.1-0.4-0.2c-1.5-1.2-4.1-1.7-5-1.8c-1.8-0.3-3.8,0-5.1,0.3c-0.8,0.2-1.7,0.5-2.5,0.9c-0.2,0.1-0.5,0.1-0.7-0.1
		c-0.2-0.1-0.3-0.4-0.2-0.6c0,0,0-0.1,0-0.1c0.3-0.9,0.5-1.7,0.8-2.6c0.1-0.1,0.1-0.2,0.1-0.3c0.1-0.2,0.1-0.4,0.2-0.7
		c0-0.1,0-0.1,0-0.2c0.1-0.2,0.1-0.4,0.2-0.5c0.1-0.5,0.4-1,0.7-1.4c0.4-0.3,1.1-0.6,1.6-0.6c2.1,1.1,4,2,6.4,1.6
		c2.3-0.4,4.1-1.7,5.2-3.9c0,0,0.1-0.1,0.1-0.1c0,0,0.1-0.1,0.1-0.2c0,0,0-0.1,0.1-0.1l0.1-0.2c0.1-0.5-0.3-0.7-0.5-0.7
		c-0.1,0-0.2-0.1-0.3-0.2c-0.1-0.1-0.2-0.2-0.4-0.2c-0.7-0.2-1.4-0.4-2-0.6c-1.8-0.6-3.4-1.1-5.3-0.7c-0.3,0.1-0.7,0.2-1,0.3
		c0,0,0,0,0,0c-0.4,0.1-0.7,0.2-1.1,0.4c0,0-0.1,0-0.1,0c0,0,0,0,0,0c-0.5,0.2-0.9,0.5-1.3,0.8c-0.3,0.3-0.6,0.6-0.8,0.9
		c-0.1-0.1-0.1-0.2-0.1-0.4c0,0,0,0,0-0.1c0.3-1.3,0.5-2.8,0.8-4.6l0-0.3c0-0.4,0.1-1,0.1-1.6c0-0.7,0.1-1.3,0.1-1.9
		c0.1-0.6,0.2-1.1,0.3-1.4c0-0.1,0.1-0.2,0.2-0.3c0.4-0.4,0.7-1,0.7-1.6v0c0.1-1.3-0.9-2.2-1.9-2.5C30.3-0.1,29.6,0.1,29.3,0.5z
		 M13.3,44.9c-1.8-1.3-3.6-2.8-4.9-4.6c-0.7-1-1.4-2.4-2.3-3.4C9.4,38.2,12.6,41.2,13.3,44.9z M6.1,42c-1.2-1.5-1.4-3-1.5-4.4l0-0.3
		c0,0,0-0.1,0-0.1c0,0,0-0.1,0-0.1c0.6,0.5,1,1.4,1.4,1.9c0.7,1.1,1.4,2.1,2.2,3.1c1.2,1.6,3.1,2.9,4.8,4.1c-0.1,0-0.1,0.1-0.2,0.1
		C10.6,47,7.1,43.2,6.1,42z M30.4,50.8c-0.1,0-0.1,0.1-0.2,0.1c-5.5,1.9-9.7,1-11.9-2.5c2,0.8,3.9,1.5,6,2
		C26.4,50.9,28.4,50.7,30.4,50.8z M30.4,49.6c-1.3,0-2.6,0.1-3.9-0.1c-2.8-0.3-5.4-1.3-7.9-2.4c0,0,0,0,0,0l0.8-0.2
		c1.5-0.4,2.9-0.8,4.6-0.7C26.2,46.4,29,47.5,30.4,49.6z M31.4,41.5c-2.1,0.7-4.1,0.4-6.2-1c-0.6-0.4-1.6-1-2.1-1.9
		c1.8,0.3,3.5,0.7,5.4,0.7c2.3-0.1,4.8-0.3,7.1-0.1C34.3,40.2,32.9,40.9,31.4,41.5z M16.9,30c0.5,0.6,2.2,2.6,2.6,4.9
		c-1.8-1.1-3.5-2.6-5.1-3.8c-1.7-1.3-2.8-3-4.1-4.5C13.2,27,15.2,28,16.9,30z M11.7,33c-2-1.5-2.4-3.8-2.6-5.6c0,0,0-0.1,0-0.1
		c0,0,0-0.1,0-0.1c1.6,1.6,2.8,3.5,4.6,5c1.5,1.2,3.2,2.7,5,3.7C15.7,35.8,13.3,34.2,11.7,33z M35.4,37.9c-1.7-0.1-3.6,0-5.3,0.1
		c-2.3,0.1-4.4-0.2-6.6-0.6C27.4,34.4,32.3,35.5,35.4,37.9z M36,30.4c-2.7,1.1-6.2-0.5-8.1-2.7c0,0,0,0,0-0.1
		c2.5,0.3,4.9,0.7,7.5,0.7c1.6,0,3.1-0.4,4.6-0.7C38.8,28.9,37.5,29.8,36,30.4z M34,25c0.2,0,4.4-0.3,6.3,1.3c0,0,0,0,0,0
		c-1.4,0.3-2.7,0.6-4.1,0.8c-2.5,0.3-5.2-0.2-7.7-0.6l0.4-0.2C30.5,25.4,32.3,25.1,34,25z M23.6,25.5C23.6,25.5,23.6,25.5,23.6,25.5
		c-2.4,0.6-4.9-0.5-7.4-3.2c-1.1-1.3-2.8-4.3-2.8-6.5c0,0,0-0.1,0-0.1c0,0,0-0.1,0.1-0.1C15.7,19.8,19.6,23,23.6,25.5z M24.1,24.4
		c-3.7-2.3-7.4-5.3-9.5-9.3c0.1,0,0.2,0,0.3,0c1.6,0.2,2.9,1.1,4.1,2l0.6,0.4C21.1,18.5,23.7,21.6,24.1,24.4z M20.8,9
		c-0.1,0-0.2-0.1-0.2-0.1C20.6,8.9,20.7,8.9,20.8,9c1.1,0,2.1,0.5,3,0.9l0.4,0.2c1.5,0.7,2.4,1.5,2.9,2.6c0.2,0.4,0.3,0.8,0.3,1.2
		c-1.3-1-2.5-2.2-3.8-3.2C22.8,10,21.7,9.5,20.8,9z M21.4,13.3c-1-0.8-1.5-1.8-2.1-2.8c0,0-0.4-0.6-0.4-0.7
		c-0.1-0.1-0.1-0.2-0.1-0.3c0.1,0,0.2,0.1,0.2,0.1c1.1,0.5,2.2,1.1,3.3,1.7c1.6,1,3,2.5,4.5,3.7C25,15.5,22.6,14.2,21.4,13.3z
		 M36.6,18c-1.6,0.2-3.2-0.7-4.5-1.5l-0.1,0c2-0.4,4.2-0.5,6-0.3c0.6,0.1,1.4,0.4,2,0.2c0.3-0.1,0.5-0.2,0.8-0.3
		C39.8,17.1,38.4,17.8,36.6,18z M40.2,14.3l0.7,0.3c0.1,0,0.1,0.1,0.1,0.1c-0.6,0.2-1.2,0.4-1.6,0.4c-0.8,0-1.6-0.3-2.5-0.2
		c-1.7,0-3.5,0.1-5.1,0.4c0.2-0.2,0.4-0.4,0.7-0.6c1-0.7,2.3-1.1,3.7-1.1C37.7,13.4,39,13.9,40.2,14.3z"/>
	<path class="st0" d="M37.2,7c0,0.3,0.1,0.5,0.4,0.6c0.2,0.1,0.4,0.1,0.6,0c0.2-0.1,0.4-0.4,0.4-0.6v0c0-0.3-0.1-0.5-0.4-0.6
		c-0.2-0.1-0.4-0.1-0.6,0C37.4,6.5,37.3,6.7,37.2,7z"/>
	<path class="st0" d="M43.9,21.1c0,0.3,0.1,0.5,0.4,0.6c0.2,0.1,0.4,0.1,0.6,0c0.2-0.1,0.4-0.4,0.4-0.6c0-0.3-0.1-0.5-0.4-0.6
		c-0.2-0.1-0.4-0.1-0.6,0C44.1,20.6,44,20.8,43.9,21.1z"/>
	<path class="st0" d="M42,33.5c0,0.3,0.1,0.5,0.4,0.6c0.2,0.1,0.4,0.1,0.6,0c0.2-0.1,0.4-0.4,0.4-0.6c0,0,0,0,0,0
		c0-0.3-0.1-0.5-0.4-0.6c-0.2-0.1-0.4-0.1-0.6,0C42.2,33,42,33.3,42,33.5z"/>
	<path class="st0" d="M36.4,46.6c-0.3,0.1-0.5,0.4-0.5,0.7c0,0.3,0.1,0.5,0.4,0.6c0.6,0.2,1.1,0.1,1.3-0.5c0-0.1,0.1-0.2,0.1-0.2
		c0-0.3-0.2-0.5-0.3-0.6c-0.2-0.2-0.6-0.2-0.8-0.1C36.5,46.5,36.5,46.5,36.4,46.6z"/>
	<path class="st0" d="M13.8,7.7l0.1-0.2c0-0.1,0.1-0.2,0.1-0.2c0-0.4-0.3-0.6-0.6-0.7c-0.2-0.1-0.6-0.1-0.8,0.4l-0.1,0.3
		c0,0.1-0.1,0.2-0.1,0.2c0,0.4,0.3,0.6,0.6,0.7C13.2,8.2,13.6,8.2,13.8,7.7z"/>
	<path class="st0" d="M1.7,30.2c0,0,0-0.1,0-0.2c0-0.3-0.1-0.7-0.4-0.7c-0.1,0-0.2-0.1-0.3-0.1c-0.2-0.1-0.4-0.1-0.5,0
		c-0.2,0.1-0.3,0.2-0.4,0.4C0,29.7,0,29.8,0,29.9c0,0.2,0,0.3,0.1,0.4c0.2,0.2,0.4,0.3,0.9,0.3C1.5,30.7,1.6,30.3,1.7,30.2z"/>
	<path class="st0" d="M16.5,58.7c0,0.3,0.1,0.5,0.5,0.7l0.1,0.1c0.2,0.1,0.4,0.1,0.6,0c0.2-0.1,0.4-0.4,0.4-0.6
		c0-0.3-0.1-0.5-0.4-0.6L17.4,58c-0.2-0.1-0.4-0.1-0.6,0C16.7,58.2,16.5,58.4,16.5,58.7z"/>
</g>
</svg>
