<?xml version="1.0" encoding="utf-8"?>
<!-- Generator: Adobe Illustrator 26.0.2, SVG Export Plug-In . SVG Version: 6.00 Build 0)  -->
<svg version="1.1" id="Ebene_1" xmlns="http://www.w3.org/2000/svg" xmlns:xlink="http://www.w3.org/1999/xlink" x="0px" y="0px"
	 viewBox="0 0 39.5 39.7" style="enable-background:new 0 0 39.5 39.7;" xml:space="preserve">
<style type="text/css">
	.st0{fill:#A39980;}
</style>
<g>
	<path class="st0" d="M32,16.2c3.2-4.5,3.7-9.3,3.2-14.7c-0.1-1.5-1.8-1.9-2.6-1.2c-0.3,0.1-0.5,0.2-0.8,0.4
		c-1.4,1.4-3.7,2.3-5.3,3.5c-1.6,1.2-3,2.6-4.1,4.3c-1.2,1.7-2,4.4-2.1,6.9c-0.1-0.1-0.2-0.2-0.2-0.3c-1.4-1.9-2.7-3.4-5.1-4
		c-5-1.4-9.3,0.3-13.8,2.1c-0.6,0.3-0.9,0.8-1,1.3C0,14.8,0,15.2,0,15.5c0.1,0.3,0.2,0.5,0.3,0.7c2.6,4.5,5.7,8.5,11.3,8.9
		c2.8,0.2,5.8-0.5,7.9-2.3c-0.8,3.8-1.1,7.1,0.8,10.9c1.6,3.1,4.5,4.9,7.8,5.7c0.2,0.1,0.5,0.2,0.8,0.2c0.1,0,0.2,0,0.3,0
		c0.9,0,1.5-0.8,1.5-1.5c0.2-0.2,0.4-0.6,0.4-1c0-4.3,0.9-8-1-12.2c-0.7-1.5-1.9-3.3-3.3-4.6C29,19.6,30.5,18.3,32,16.2z M10.4,21.8
		c-3.1-0.5-5.2-3.5-6.7-6.2c2.7-1.1,5.3-2,8.4-1.8c2.9,0.2,4.3,1.5,6,3.8c0.4,0.5,0.7,0.7,0.9,0.8c0,0,0,0.1,0,0.1
		C17.9,21.9,13.3,22.2,10.4,21.8z M28.2,28c0.8,2.8,0.2,5.4,0,8.2c-2.1-0.7-3.8-1.9-5.1-4c-2.1-3.4-0.9-7-0.1-10.5
		c0.5,0.2,1.7,0.9,2.2,1.3C26.7,24.2,27.7,26.2,28.2,28z M23.8,17.7c-0.6-1.2-0.1-3.6,0.1-4.8c0.4-2.1,1.7-3.7,3.2-5.1
		c1.5-1.5,3.4-2.3,5.2-3.4c0,2.7-0.3,5.1-1.7,7.9c-0.7,1.5-1.6,2.9-2.8,4.1C26.6,17.7,25.3,17.7,23.8,17.7z"/>
	<g>
		<path class="st0" d="M11,34.6c0.1,0,0.2,0,0.3,0c3.3,0,3.3-5.2,0-5.2c-0.1,0-0.2,0-0.3,0C7.6,29.4,7.6,34.6,11,34.6L11,34.6z"/>
	</g>
	<g>
		<path class="st0" d="M16.8,6.2C16.9,6.1,17,6,17.1,5.9c1-1,1-2.7,0-3.7c-1-1-2.7-1-3.7,0c-0.1,0.1-0.2,0.2-0.3,0.3
			c-1,1-1,2.7,0,3.7C14.2,7.2,15.8,7.2,16.8,6.2L16.8,6.2z"/>
	</g>
	<g>
		<path class="st0" d="M36.9,26.5c3.3,0,3.3-5.2,0-5.2C33.6,21.3,33.6,26.5,36.9,26.5L36.9,26.5z"/>
	</g>
</g>
</svg>
