<?xml version="1.0" encoding="utf-8"?>
<!-- Generator: Adobe Illustrator 26.0.2, SVG Export Plug-In . SVG Version: 6.00 Build 0)  -->
<svg version="1.1" id="Ebene_1" xmlns="http://www.w3.org/2000/svg" xmlns:xlink="http://www.w3.org/1999/xlink" x="0px" y="0px"
	 viewBox="0 0 110.2 110.3" style="enable-background:new 0 0 110.2 110.3;" xml:space="preserve">
<style type="text/css">
	.st0{fill-rule:evenodd;clip-rule:evenodd;fill:#A49A80;}
	.st1{fill:#FFFFFF;}
</style>
<g>
	<g>
		<path class="st0" d="M74.4,108.2c-2.8,1.5-5.8,2.2-9,1.6c-0.8-0.2-1.7,0-2.5,0c-1.1,0-2.1-0.1-3.2-0.1c-0.7,0-1.4,0.2-2.2,0.3
			c0.2-0.2,0.4-0.3,0.7-0.5c0-0.1-0.1-0.2-0.1-0.2c-0.4,0.1-0.8,0.1-1.1,0.3c-0.5,0.5-0.9,0.5-1.5,0.3c-0.5-0.2-1.3-0.3-1.8-0.1
			c-1.2,0.6-2.3,0.3-3.4,0c-0.4-0.1-0.7-0.1-1,0.2c-0.5,0.4-1.1,0.3-1.5-0.2c-0.5-0.8-1.1-1-2-0.7c-0.2,0.1-0.5,0.2-0.7,0.2
			c-1.6-0.9-3.3-0.1-5-0.6c-1.4-0.4-2.6-1.1-3.8-1.9c-0.8-0.5-1.5-0.9-2.4-1.2c-1-0.3-1.9-0.9-2.9-1.3c-1-0.5-2-1-2.9-1.6
			c-1.9-1.2-3.8-2.5-5.7-3.9c-1-0.7-1.8-1.7-2.5-2.6c-0.7-0.9-1.2-1.9-1.7-2.8c-0.3-0.5-0.5-1-0.8-1.6c0,0-0.2,0.1-0.4,0.1l0,0
			c0-0.3,0.4-0.8-0.4-0.8c0,0-0.1,0.1-0.1,0.2l0,0c-0.4,0-0.7,0-1.1,0l0,0c0.1-0.1,0.3-0.1,0.4-0.3c-0.2-0.2-0.4-0.3-0.5-0.3
			c-0.3,0.1-0.6,0.2-0.8,0.3l0,0c-0.1-1.1,0.7-0.5,1.1-0.6c0.1,0.1,0.2,0.1,0.3,0.2c0,0,0-0.1,0-0.1c-0.1,0-0.2,0-0.3-0.1
			c-0.4-0.2-0.8-0.3-1.2-0.5c-0.1,0-0.3-0.1-0.4-0.1c0,0,0,0.1,0,0.2c0.1,0,0.3-0.1,0.4-0.1c-0.1,0.3-0.2,0.6-0.4,0.9
			c-0.4-0.2-0.6-1.2-1.2-0.5c-0.4-0.3-0.8-0.5-1.1-0.8c0.2,0,0.3,0,0.5,0c0.8-0.1,1.5-0.1,2.3-0.2c0,0,0.1,0,0.1,0
			c0.1,0,0.1,0,0.2,0c0.1,0,0.3,0.1,0.4,0.1c0,0,0-0.1,0-0.1c-0.1,0-0.3,0-0.4,0c-0.1,0-0.1,0-0.2,0c-0.1,0-0.1,0-0.2,0
			c-0.1-0.2-0.3-0.5-0.3-0.6c-0.8,0-1.5,0-2.3,0c0.1,0.1,0.2,0.3,0.3,0.5c-0.2,0.1-0.3,0.1-0.5,0.2c-0.4-0.6-0.9-1.2-1.3-1.8
			c-0.1-0.1,0-0.2,0-0.4c-1-0.7-1.3-2.1-2.1-3.1c1.1-0.4,1.3,0.6,1.9,1.1c0.5-0.7-0.3-1.8,0.8-2.2c0.1,0,0.1-0.1,0,0c0-0.1,0,0,0,0
			c-0.3-0.1-0.6-0.3-0.9-0.5c0.4-0.1,0.8-0.3,1.2-0.4c0,0,0.1,0,0.2,0c0.2,0,0.6,0.9,0.5,1.2c-0.1,0-0.2-0.1-0.3-0.1
			c0,0.1,0,0.1,0,0.2c0.1,0,0.2,0,0.3,0c0.7,1,1.4,1.9,2.2,2.8c-0.2,0.1-0.4,0.2-0.5,0.3c0,0.1,0.1,0.1,0.1,0.1
			c0.4-0.1,0.6,0,0.8,0.4c0.2,0.5,0.7,0.8,1.1,1.2c-0.1,0-0.1,0.1-0.2,0.1c0.1,0,0.1-0.1,0.2-0.1c0.4,0.1,0.7,0.2,1.2,0.3
			c-0.4-1.5-0.8-2.8-1.2-4.1c0.2,0,0.3-0.1,0.5-0.1c0-0.1,0.1-0.2,0.1-0.3c-0.1,0-0.3,0.1-0.4,0.1c-0.1,0.1-0.1,0.2-0.2,0.3
			c-0.1-0.3-0.1-0.6-0.2-0.9l0,0c-0.3-0.3-0.6-0.6-0.7-1c-0.6-1.3-1.1-2.6-1.6-4c0.2-0.1,0.3-0.2,0.5-0.3c-0.3-0.2-0.5-0.4-0.8-0.5
			c0.4,0.1,0.8,0.1,1.3,0.2l0,0c0.2,0,0.3,0,0.5-0.1c0-0.1,0-0.2,0-0.3c-0.6-0.1-1.2-0.4-1.7,0.2c-0.5-1.4-1-2.8-1.5-4.2
			c-0.2-0.5-0.4-0.6-0.9-0.4c-0.4,0.1-0.8,0.6-1.3,0c-0.1-0.1-0.8,0.2-1.2,0.3c-0.1-0.1-0.1-0.1-0.2-0.2c0,0,0,0-0.1,0
			c0,0,0,0,0.1,0c0.1,0.1,0.1,0.1,0.2,0.2c0.1,0.3,0.2,0.7,0.3,1c-0.1,0-0.2,0.1-0.2,0.1c-0.1-0.2-0.3-0.4-0.4-0.5
			c0,0,0.1-0.1,0.1-0.1c-0.2,0-0.5,0-0.7,0c-0.1-0.6-0.4-1.2-0.4-1.7C6.5,71,6,69.8,5.4,68.8c-0.3-0.5-0.9-0.9-1.5-1.2
			c-0.3-0.2-0.6,0.1-0.5,0.6C3.7,69.6,4,71,4.2,72.4c-0.5,0.1-0.8,0.1-0.8-0.4c-0.1-1.5-0.2-2.9-0.4-4.4c-0.1-0.4-0.3-0.8-0.7-1
			c-0.9-0.5-1.2-1.2-1.3-2.2c0-1.3-0.3-2.6-0.4-3.9c-0.2-2.9-0.6-5.7-0.6-8.6c0-2.1,0.3-4.2,0.4-6.3c0.1-1.4,0.5-2.7,0.9-4.1
			c0.9-2.6,1.6-5.3,2.2-8c0.4-1.5,1.4-2.6,2.1-3.9C6.4,28.3,7.2,27,8,25.8c0.6-1,1.1-2,1.7-2.9c0.2-0.4,0.6-0.6,0.9-0.9
			c2.4-2.3,4.6-4.7,6.8-7.2c2.3-2.8,5.1-5.1,8.4-6.8c0.4-0.2,0.8-0.3,1.2-0.4c1.7-0.5,3.4-1,5-1.5c0.9-0.3,1.8-0.9,2.7-1.3
			c1.5-0.6,3-1.1,4.4-1.6c0.3-0.1,0.5-0.2,0.8-0.3c2.5-1.6,5.2-2.3,8.2-2.6c3.1-0.3,6.1,0.3,9.1,0.8c1.8,0.3,3.5,0.5,5.3,0.8
			c3.2,0.6,6.5,1.1,9.7,1.8c1,0.2,2,1,3,1.5c0.6,0.3,1.3,0.7,1.9,1c1,0.6,2,1.3,3,1.9c0.6,0.3,1.3,0.5,1.9,0.9
			c1.6,1,3.3,2.1,4.6,3.5c0.2,0.2,0.5,0.3,0.7,0.5c1.1,0.8,2.2,1.5,3.3,2.3c1.5,1.1,3,2.3,4.5,3.5c0.2,0.2,0.4,0.5,0.6,0.8
			c0.8,1.4,2,2.6,2.3,4.3c0.1,0.5,0.7,1,1.1,1.3c1.1,0.8,2,1.8,2.5,3.1c0.2,0.5,0.6,0.9,0.9,1.3c1.2,1.5,2,3.2,2.2,5
			c0.2,1.8,0.9,3.4,1.1,5.2c0.1,0.8,0.8,1.5,1,2.3c0.3,0.7,0.5,1.5,0.5,2.2c0,2.6,0.7,5.1,1.6,7.6c1,2.7,1.5,5.4,1.1,8.3
			c-0.1,0.6-0.5,1.2-0.7,1.9c-0.7,2.2-1.4,4.5-1.9,6.7c-0.4,1.9-0.5,3.9-0.8,5.8c0,0.3-0.1,0.5-0.1,0.8c-0.2,0.8-0.3,1.6-0.5,2.6
			c-0.8,0.3-1,1-0.4,1.5l0,0c-0.4,0.4-0.7,0.8-1.1,1.2l0,0c-0.1,0.2-0.2,0.3-0.3,0.5c-0.1,0.1-0.1,0.3-0.2,0.4
			c-0.1-0.1-0.3-0.1-0.4-0.2c-0.2-0.2-0.3-0.4-0.6-0.8c0.1-0.1,0.3-0.4,0.6-0.7c0.1,0,0.2,0,0.3,0c0.1,0,0.1,0,0,0c0.1,0,0,0,0,0
			c-0.1,0-0.2,0-0.3,0c-0.2,0-0.4-0.1-0.5,0c-0.2,0.1-0.4,0.3-0.6,0.5c0,0,0,0-0.1,0c0,0,0,0,0.1,0c-0.4,0.4-0.7,0.8-1,1.2
			c0.3,0.2,0.6,0.5,1.1,0.8c0,0,0.1-0.1,0.2-0.1c0.2-0.1,0.5-0.1,0.7-0.1c-0.1,0.2-0.1,0.5-0.2,0.7c-0.2,0.3-0.4,0.6-0.5,0.9l0,0
			c-0.2-0.7-0.7-0.6-1.3-0.5c0-0.1-0.1-0.2-0.1-0.3c0,0-0.1,0-0.1,0.1c0.1,0.1,0.1,0.1,0.2,0.2c0.2,0.1,0.3,0.3,0.5,0.4
			c0-0.1,0.1-0.1,0.1-0.2c0.4,0.7,0,1.1-0.4,1.6l0,0c-0.1,0-0.2,0-0.3,0l0,0c-0.3,0.1-0.5,0.2-0.8,0.3l0,0c0.1,0.1,0.3,0.3,0.5,0.5
			c-0.9,1.1-1.8,2.1-2.8,3.3c-0.2-0.1-0.5-0.2-0.9-0.4c0,0.1-0.1,0.1-0.1,0.2c0.2,0.1,0.4,0.2,0.6,0.4c0.2,0.3,0.3,0.8,0.3,0.9
			c-0.7,0.3-0.4,1-0.7,1.5c-0.3,0.5-0.5,1.1-0.8,1.6c-0.1,0.2-0.3,0.4-0.4,0.6l0,0c-0.2,0.1-0.5,0.1-0.7,0.3
			c-0.2,0.2-0.4,0.5-0.5,0.8c0,0-0.1-0.1,0,0c-0.1,0,0,0,0,0c-0.2,0.3-0.4,0.7-0.7,0.8c-0.4,0.3-1,0.3-0.6,1c0,0-0.2,0.2-0.3,0.3
			l0,0c-0.8,0.1-1.7,0.1-2.5,0.2c0,0.1,0.1,0.2,0.1,0.3c-0.4,0.1-0.8,0.3-1.3,0.4c-0.3,0.7,0.7,0.7,0.8,1.5c0.2-0.4,0.3-0.5,0.4-0.7
			l0,0c0.3-0.1,0.5-0.1,0.9-0.2c-0.1,0.8-0.7,0.8-1.1,0.9c-0.3,0.1-0.6-0.2-0.9-0.4c-0.4-0.3-0.8-0.8-1.3-1.2c0,0-0.1,0-0.2,0.1
			c0.2,0.4,0.5,0.7,0.7,1.1c-0.1,0.3-0.3,0.6-0.4,0.9c-0.1,0-0.3,0-0.4-0.1c0,0.1,0,0.1,0,0.2c0.1,0,0.3-0.1,0.4-0.1
			c-0.3,0.7,0.4,0.4,0.6,0.7c-0.1,0.1-0.3,0.3-0.4,0.3c-0.8-0.2-0.8,0.2-0.7,0.8c0,0.1,0,0.3,0,0.4c0,0,0,0,0,0
			c-0.6,0.3-1.2,0.6-1.8,0.9c-0.5,0.2-1.1,0.4-1.8,0.6c0.2-0.3,0.3-0.5,0.4-0.7c-0.3-0.2-0.6-0.3-0.9-0.5l0,0
			c-0.2-0.1-0.3-0.1-0.5-0.2c0.2-0.1,0.4-0.2,0.6-0.3c0-0.1-0.1-0.1-0.1-0.2c-0.1,0.2-0.3,0.3-0.4,0.5c-0.2,0.3-0.4,0.6-0.6,0.9
			c-0.1-0.1-0.1-0.1-0.2-0.2c0.5,0,1-0.1,1.5-0.1c0,0.1,0,0.2,0,0.2c-0.6,0.1-1.2,0.3-1.8,0.4c0-0.1-0.1-0.2-0.1-0.3
			c-0.1,0.1-0.1,0.1-0.2,0.2c0.1,0,0.2,0.1,0.3,0.1c0.1,0.2,0.3,0.3,0.5,0.6c-1.9,0.8-3.8,1.6-5.7,2.3c-1.1,0.4-2.1,1-2.7,2.1l0,0
			C74.5,108.2,74.4,108.2,74.4,108.2L74.4,108.2z M19.9,83.4C19.9,83.4,19.9,83.4,19.9,83.4L19.9,83.4z M14,80.2L14,80.2L14,80.2z
			 M100.6,79.4L100.6,79.4L100.6,79.4z M86.9,98.9C86.9,98.9,86.9,98.9,86.9,98.9c0,0.1,0,0.1,0,0.2c0.3,0.1,0.6,0.1,0.9,0.2
			c0-0.1,0-0.2,0-0.3c-0.3,0-0.6,0.1-0.9,0.1C86.9,99,86.9,99,86.9,98.9z M87.9,97.8L87.9,97.8L87.9,97.8z M84.3,96.9L84.3,96.9
			L84.3,96.9z M92.1,96.3L92.1,96.3L92.1,96.3z M92.4,95.1L92.4,95.1L92.4,95.1z M97.8,86.5L97.8,86.5L97.8,86.5z M89.4,91.8
			L89.4,91.8L89.4,91.8z M100.4,82.5C100.4,82.5,100.4,82.5,100.4,82.5L100.4,82.5z M86,102.2C86,102.2,86,102.2,86,102.2
			C86,102.2,86,102.2,86,102.2L86,102.2z M87.1,96.3C87.1,96.3,87.1,96.3,87.1,96.3C87.1,96.3,87.1,96.3,87.1,96.3L87.1,96.3z
			 M82.5,99.1L82.5,99.1C82.4,99.1,82.4,99.1,82.5,99.1C82.4,99.1,82.4,99.1,82.5,99.1z M21,85.3L21,85.3C21,85.3,21,85.3,21,85.3
			C21,85.3,21,85.3,21,85.3z M87.7,94.8C87.7,94.8,87.7,94.8,87.7,94.8C87.7,94.8,87.7,94.8,87.7,94.8L87.7,94.8z M13,86.5
			C13,86.5,13,86.5,13,86.5C13,86.5,13,86.5,13,86.5L13,86.5z M19.2,85.4C19.2,85.5,19.2,85.5,19.2,85.4
			C19.2,85.5,19.2,85.5,19.2,85.4c-0.1,0-0.1-0.1-0.1-0.1C19.1,85.3,19.1,85.4,19.2,85.4z M79.8,101.9L79.8,101.9
			c-0.1,0-0.1-0.1-0.2-0.1C79.7,101.8,79.8,101.8,79.8,101.9z M85.2,97.9c-0.1,0-0.2,0-0.3-0.1c0,0,0,0.1,0,0.1
			C85,97.9,85.1,97.9,85.2,97.9L85.2,97.9z M14.7,80.5c-0.1,0-0.2,0.1-0.3,0.1c0,0,0.1,0.1,0.1,0.1C14.5,80.6,14.6,80.6,14.7,80.5
			L14.7,80.5z M16.4,90.1c0-0.1-0.1-0.1-0.1-0.2C16.3,90,16.3,90.1,16.4,90.1c0.1,0.1,0.2,0.2,0.2,0.3c0,0,0.1-0.1,0.1-0.1
			C16.6,90.3,16.5,90.2,16.4,90.1z M83.2,96.8c0.1,0.1,0.1,0.3,0.2,0.4c0,0,0.1-0.1,0.1-0.1C83.4,97,83.3,96.9,83.2,96.8
			c0-0.1,0-0.3,0-0.4c-0.1,0-0.2,0.1-0.3,0.1C83,96.6,83.1,96.7,83.2,96.8z M79.3,104.5c-0.1-0.2-0.2-0.4-0.3-0.6l0,0
			c-0.1,0.3-0.2,0.6,0.1,0.8c0.2,0,0.4,0.1,0.5,0.1c0-0.1,0-0.1,0-0.2C79.6,104.6,79.5,104.6,79.3,104.5z M87.1,96.8
			c-0.2-0.1-0.5-0.2-0.8-0.4C86.6,97,86.6,97,87.1,96.8c0.1,0,0.2,0,0.3,0c0,0,0-0.1,0-0.1C87.3,96.7,87.2,96.7,87.1,96.8z
			 M78.9,105.1L78.9,105.1c-0.1-0.2-0.3-0.4-0.5-0.8c0,0.4-0.1,0.6-0.1,0.9C78.5,105.2,78.7,105.2,78.9,105.1z M16.5,83
			c-0.2-0.1-0.3-0.1-0.6-0.3c0.2,0.4,0.2,0.6,0.3,0.8c-0.1,0-0.2,0-0.3,0.1c0,0,0,0.1,0,0.1c0.1-0.1,0.2-0.1,0.2-0.2
			C16.9,83.6,16.3,83.1,16.5,83L16.5,83z M93.1,93.7c0,0.1,0,0.3,0.1,0.4c0.3,0.2,0.6,0.3,0.8,0.4c0.2-0.5,0.2-0.5-0.6-0.8
			C93.4,93.7,93.3,93.7,93.1,93.7z M85.2,100.9c0.2,0.1,0.4,0.2,0.6,0.4c0.5,0.4,0.7,0.2,0.7-0.3c0.4-0.2,0.8-0.4,1.3-0.7
			c-0.4-0.2-0.8-0.5-1.1-0.7c0,0-0.1,0.1-0.1,0.1c0.1,0.2,0.2,0.3,0.2,0.3c-0.2,0.4-0.3,0.7-0.4,1C86.1,100.8,85.7,100.4,85.2,100.9
			L85.2,100.9z M19,86.5L19,86.5c0.7,0.5,0.9,0.4,1.1-0.5c-0.5,0-0.9-0.1-1.4-0.1c-0.1,0-0.1,0-0.2,0c-0.3,0.1-0.6,0.2-0.9,0.3
			c0,0.1,0,0.1,0,0.2C18.1,86.4,18.5,86.5,19,86.5z M15.7,80.9c0.1,0,0.1,0,0.2,0c0.1,0,0.2-0.1,0.2-0.1c-0.2-0.6-0.4-1.2-0.6-1.7
			c-0.3-0.5-0.8-0.5-1.1,0l0,0c0.3,0.5,0.5,1,0.8,1.5C15.3,80.8,15.5,80.8,15.7,80.9z M101.7,83.9c0-0.1-0.1-0.2-0.1-0.3
			c-0.4,0.2-0.7,0.4-1.1,0.6c0,0.1,0.1,0.2,0.1,0.3C101,84.2,101.3,84,101.7,83.9z M12.6,88.2c0.1-0.1,0.1-0.2,0.2-0.2
			c-0.2-0.2-0.4-0.3-0.6-0.5c-0.1,0.1-0.1,0.1-0.2,0.2C12.2,87.9,12.4,88,12.6,88.2z M86.8,97.9c0.1,0.1,0.1,0.2,0.2,0.3
			c0.2-0.1,0.3-0.2,0.5-0.3c0,0-0.1-0.2-0.1-0.2C87.1,97.8,86.9,97.8,86.8,97.9z M84.7,94.3c-0.1-0.1-0.1-0.1-0.2-0.2
			c-0.2,0.1-0.3,0.3-0.5,0.4c0,0.1,0.1,0.1,0.1,0.2C84.4,94.5,84.6,94.4,84.7,94.3z M17.1,86.5c0-0.1,0-0.2,0-0.3
			c-0.2,0-0.4,0-0.6,0c0,0.1,0,0.2,0,0.2C16.7,86.4,16.9,86.4,17.1,86.5z M20.9,86.2C21,86.1,21,86,21.1,86
			c-0.1-0.1-0.3-0.2-0.4-0.3c0,0-0.1,0.1-0.1,0.1C20.7,86,20.8,86.1,20.9,86.2z M17.1,82.4c0-0.1,0-0.1,0-0.2c-0.2,0-0.4,0-0.6,0
			c0,0.1,0,0.1,0,0.2C16.7,82.4,16.9,82.4,17.1,82.4z M84.5,100.9c0-0.1,0-0.2,0-0.3c-0.2,0-0.3,0.1-0.5,0.1c0,0,0,0.1,0,0.2
			C84.1,100.9,84.3,100.9,84.5,100.9z M85.7,100.1c0,0.1,0,0.2-0.1,0.2c0.2,0,0.3,0,0.5,0c0-0.1,0-0.1,0-0.2
			C86.1,100.2,85.9,100.1,85.7,100.1z M95.9,90.2c0,0.1,0,0.1,0,0.2c0.2,0,0.5,0,0.7,0c0-0.1,0-0.1,0-0.2
			C96.4,90.2,96.1,90.2,95.9,90.2z M15.3,83c0.1,0,0.2-0.1,0.2-0.1c-0.1-0.2-0.2-0.3-0.3-0.5c-0.1,0-0.1,0.1-0.2,0.1
			C15.2,82.7,15.2,82.9,15.3,83z M86.6,97.6c0-0.1,0-0.2,0-0.2c-0.2,0-0.3,0.1-0.5,0.1c0,0.1,0,0.1,0.1,0.2
			C86.2,97.7,86.4,97.6,86.6,97.6z M96.3,91c-0.1-0.1-0.2-0.1-0.3-0.1c-0.1,0-0.1,0.1-0.2,0.2c0.1,0,0.1,0.1,0.2,0.1
			C96.1,91.2,96.2,91.1,96.3,91z M91,94.7c0.1,0,0.1,0,0.2,0c0-0.2,0-0.3,0-0.5c-0.1,0-0.1,0-0.2,0C91.1,94.3,91,94.5,91,94.7z
			 M95.6,91.6c0,0.1,0,0.1,0,0.2c0.2,0,0.3,0,0.5,0.1c0-0.1,0-0.1,0-0.2C95.9,91.7,95.8,91.7,95.6,91.6z M10.9,84.2
			c-0.1,0.1-0.1,0.1-0.1,0.2c0,0.1,0.1,0.1,0.1,0.1c0.1,0,0.1-0.1,0.2-0.1C11,84.3,11,84.2,10.9,84.2z M16.8,84.7
			c0-0.1-0.1-0.1-0.1-0.2c-0.1,0.1-0.2,0.1-0.4,0.2c0,0,0,0.1,0.1,0.1C16.6,84.8,16.7,84.8,16.8,84.7z M87.9,96c0,0,0,0.1,0.1,0.1
			c0.1-0.1,0.2-0.1,0.4-0.2c0,0,0-0.1,0-0.1C88.1,96,88,96,87.9,96z M96.6,89.1c0-0.1,0-0.1,0-0.2c-0.1,0-0.2,0-0.3,0
			c0,0,0,0.1,0,0.1C96.4,89.1,96.5,89.1,96.6,89.1z M18.5,82.9c0,0,0,0.1-0.1,0.1c0.1,0.1,0.2,0.1,0.3,0.2c0,0,0.1-0.1,0.1-0.1
			C18.7,83,18.6,82.9,18.5,82.9z M92.3,94.3c0,0,0.1,0.1,0.1,0.1c0.1-0.1,0.2-0.1,0.3-0.2c0,0,0-0.1-0.1-0.1
			C92.5,94.2,92.4,94.3,92.3,94.3z M83.9,93.6c-0.1-0.1-0.2-0.1-0.2-0.2c0,0-0.1,0.1-0.1,0.2c0,0,0.1,0.1,0.1,0.1
			C83.7,93.7,83.8,93.7,83.9,93.6z M93,94.9c-0.1,0-0.1,0-0.2,0c0,0,0,0.1,0,0.1c0.1,0,0.1,0,0.2,0.1C93,95,93,95,93,94.9z
			 M12.5,86.4c0,0-0.1-0.1-0.1-0.1c-0.1,0-0.1,0.1-0.2,0.1c0.1,0,0.1,0.1,0.2,0.1C12.5,86.5,12.5,86.5,12.5,86.4z M14.4,87.6
			c-0.1-0.1-0.1-0.2-0.2-0.2c-0.1,0-0.1,0-0.2,0.1c0,0.1,0.1,0.1,0.1,0.2C14.2,87.6,14.3,87.6,14.4,87.6z M11.3,86.6
			c0,0.1,0,0.1-0.1,0.2c0.1,0,0.2,0,0.3,0.1c0,0,0-0.1,0-0.1C11.5,86.7,11.4,86.6,11.3,86.6z M87.4,101.5c-0.1,0-0.2-0.1-0.2-0.1
			c0,0-0.1,0.1-0.1,0.1c0,0,0.1,0.1,0.1,0.1C87.3,101.6,87.3,101.6,87.4,101.5z M81.5,103.8c-0.1,0-0.2,0-0.2,0c0,0.1,0,0.1-0.1,0.2
			C81.3,104,81.4,103.9,81.5,103.8z M78.3,99.1c0,0,0-0.1,0-0.1c0,0-0.1,0-0.1,0c0,0,0,0.1,0,0.1C78.2,99.1,78.2,99.1,78.3,99.1z
			 M3.8,71.4c0,0-0.1,0-0.1,0c0,0,0,0.1,0,0.1C3.7,71.5,3.8,71.5,3.8,71.4C3.8,71.5,3.8,71.5,3.8,71.4z M81.5,100.3
			C81.5,100.3,81.5,100.3,81.5,100.3c0,0.1,0,0.1,0.1,0.1c0,0,0,0,0,0C81.6,100.3,81.6,100.3,81.5,100.3z M83.1,94.8
			C83.1,94.8,83.1,94.8,83.1,94.8c-0.1,0-0.1,0-0.1,0c0,0,0,0,0,0.1C83,94.8,83.1,94.8,83.1,94.8z M81.8,96.3c0,0,0.1-0.1,0.1-0.1
			c0,0-0.1-0.1-0.1-0.1C81.7,96.2,81.7,96.2,81.8,96.3C81.7,96.3,81.7,96.3,81.8,96.3z M89.4,94.9c0,0-0.1,0-0.1,0.1
			c0,0,0,0.1,0,0.1c0,0,0.1,0,0.1-0.1C89.5,95,89.4,95,89.4,94.9z M88.7,94.7c0,0,0-0.1,0-0.1c0,0-0.1,0-0.1,0.1c0,0,0,0.1,0,0.1
			C88.6,94.8,88.6,94.7,88.7,94.7z M86,94.2c0,0,0.1,0,0.1-0.1c0,0,0-0.1,0-0.1C86.1,94.1,86,94.1,86,94.2C86,94.1,86,94.2,86,94.2z
			 M93.9,93.4c0,0,0-0.1,0-0.1c0,0-0.1,0-0.1,0c0,0,0,0.1,0,0.1C93.8,93.4,93.8,93.4,93.9,93.4z M83.4,97.9
			C83.4,97.9,83.4,97.8,83.4,97.9c-0.1,0-0.1,0-0.1,0c0,0,0,0,0,0.1C83.3,97.9,83.4,97.9,83.4,97.9z M15.2,88.8c0,0,0-0.1,0-0.1
			c0,0,0,0,0,0C15.2,88.7,15.1,88.7,15.2,88.8C15.1,88.7,15.2,88.8,15.2,88.8z M104.4,76.7c0,0,0.1-0.1,0.1-0.1c0,0-0.1-0.1-0.1,0
			c0,0-0.1,0.1-0.1,0.1C104.3,76.7,104.3,76.7,104.4,76.7z M80.2,104.2C80.1,104.3,80.1,104.3,80.2,104.2c-0.1,0.1,0,0.1,0,0.1
			c0,0,0.1,0,0.1-0.1C80.2,104.3,80.2,104.3,80.2,104.2z M11.8,85.4C11.7,85.4,11.7,85.4,11.8,85.4C11.7,85.4,11.7,85.4,11.8,85.4
			C11.7,85.5,11.7,85.5,11.8,85.4C11.7,85.5,11.7,85.4,11.8,85.4z M97.7,87.6L97.7,87.6L97.7,87.6L97.7,87.6z M82.6,93.9
			C82.6,93.9,82.6,93.9,82.6,93.9C82.6,93.9,82.6,93.9,82.6,93.9C82.6,93.9,82.6,93.9,82.6,93.9C82.5,93.9,82.6,93.9,82.6,93.9z
			 M86.8,93.6C86.8,93.6,86.8,93.6,86.8,93.6C86.8,93.6,86.8,93.7,86.8,93.6C86.8,93.7,86.8,93.7,86.8,93.6
			C86.8,93.7,86.8,93.7,86.8,93.6z M87.3,92.9C87.3,93,87.3,93,87.3,92.9c-0.1,0.1-0.1,0.1,0,0.1C87.3,93,87.3,93,87.3,92.9
			C87.4,93,87.3,93,87.3,92.9z M17.6,88.7C17.6,88.7,17.6,88.7,17.6,88.7C17.7,88.7,17.6,88.7,17.6,88.7
			C17.6,88.7,17.6,88.7,17.6,88.7C17.6,88.7,17.6,88.7,17.6,88.7z M90.5,96.4C90.4,96.4,90.4,96.4,90.5,96.4c-0.1,0.1,0,0.1,0,0.1
			C90.5,96.5,90.5,96.4,90.5,96.4C90.5,96.4,90.5,96.4,90.5,96.4z M84.2,99.4c0,0,0,0.1,0,0.1c0,0,0.1,0,0.1,0
			C84.3,99.4,84.3,99.4,84.2,99.4C84.3,99.3,84.2,99.4,84.2,99.4z M86.5,95.4C86.5,95.4,86.5,95.4,86.5,95.4
			C86.5,95.3,86.5,95.3,86.5,95.4C86.5,95.4,86.4,95.4,86.5,95.4C86.5,95.4,86.5,95.4,86.5,95.4z M79.2,98.3
			C79.2,98.3,79.2,98.3,79.2,98.3C79.2,98.3,79.2,98.3,79.2,98.3C79.2,98.3,79.2,98.3,79.2,98.3C79.2,98.4,79.2,98.3,79.2,98.3z
			 M11.3,84.9C11.3,84.9,11.3,84.9,11.3,84.9c0,0.1,0,0.1,0,0.1C11.3,85,11.4,85,11.3,84.9C11.4,85,11.3,84.9,11.3,84.9z M12.4,85.6
			C12.4,85.6,12.3,85.6,12.4,85.6C12.3,85.6,12.3,85.6,12.4,85.6C12.3,85.6,12.3,85.6,12.4,85.6C12.4,85.6,12.4,85.6,12.4,85.6z
			 M84.2,100C84.2,100,84.2,100,84.2,100c0,0.1,0.1,0.1,0.1,0c0,0,0,0,0-0.1C84.3,100,84.2,100,84.2,100z M87.7,98.5
			c0,0-0.1,0-0.1,0c0,0,0,0,0,0.1C87.6,98.5,87.7,98.5,87.7,98.5C87.7,98.5,87.7,98.5,87.7,98.5z M13,85.7C13,85.7,13,85.7,13,85.7
			C13,85.7,12.9,85.7,13,85.7C13,85.8,13,85.8,13,85.7C13,85.7,13,85.7,13,85.7z M91.8,87.8L91.8,87.8L91.8,87.8L91.8,87.8z
			 M93.8,88.1L93.8,88.1L93.8,88.1L93.8,88.1z M96.3,89.6L96.3,89.6L96.3,89.6L96.3,89.6z M8.1,72.9C8,72.9,8,72.9,8.1,72.9
			C8,72.9,8,72.9,8.1,72.9C8,72.9,8,72.9,8.1,72.9z M10.7,85.8L10.7,85.8L10.7,85.8L10.7,85.8z M90.9,90.3L90.9,90.3L90.9,90.3
			L90.9,90.3z M88.6,91.6L88.6,91.6L88.6,91.6L88.6,91.6z M84.8,93.4L84.8,93.4L84.8,93.4L84.8,93.4z M16,81.4L16,81.4L16,81.4
			L16,81.4z M105.9,75.7L105.9,75.7L105.9,75.7L105.9,75.7z M105.4,76L105.4,76L105.4,76L105.4,76z M85.2,94.1L85.2,94.1L85.2,94.1
			L85.2,94.1z M84.6,95.2L84.6,95.2L84.6,95.2L84.6,95.2z M88.8,95.2L88.8,95.2L88.8,95.2L88.8,95.2z M92.8,95.7
			C92.8,95.7,92.8,95.7,92.8,95.7C92.7,95.7,92.7,95.8,92.8,95.7C92.8,95.8,92.8,95.8,92.8,95.7C92.8,95.8,92.8,95.8,92.8,95.7z
			 M84.4,97.7L84.4,97.7L84.4,97.7L84.4,97.7z M83.8,98.3L83.8,98.3L83.8,98.3L83.8,98.3z M78.6,98.5L78.6,98.5L78.6,98.5L78.6,98.5
			z M81.1,99L81.1,99L81.1,99L81.1,99z M80.5,101.9L80.5,101.9L80.5,101.9L80.5,101.9z M19.4,82.7L19.4,82.7L19.4,82.7L19.4,82.7z
			 M85,102L85,102L85,102L85,102z M80.3,102.7L80.3,102.7L80.3,102.7L80.3,102.7z M101.8,79.8L101.8,79.8L101.8,79.8L101.8,79.8z
			 M100.8,83C100.8,83,100.8,83,100.8,83C100.7,83,100.7,83,100.8,83C100.7,83,100.7,83,100.8,83C100.7,83,100.7,83,100.8,83z
			 M17,83.8L17,83.8L17,83.8L17,83.8z M20,84.9L20,84.9L20,84.9L20,84.9z"/>
		<path class="st0" d="M7.8,76.1C8,76,8.2,75.9,8.3,75.8l0,0c0.3,0.4,0.5,0.9,0.8,1.3c0.2,0.3,0.4,0.5,0.6,0.7
			c0.1,0,0.2-0.1,0.2-0.1c0.1,0.8,0.2,1.6,0.3,2.4l0,0c-0.3-0.2-0.5-0.3-0.8-0.5c0-0.1,0.1-0.1,0.1-0.2c-0.3,0-0.6,0.1-0.9,0.1
			c0,0,0-0.1,0-0.1c0.2-0.1,0.4-0.2,0.6-0.3c0.1-0.1,0.2-0.2,0.3-0.4c0,0-0.1-0.1-0.2-0.2c-0.1,0.1-0.2,0.2-0.3,0.3
			C9.1,79,9.1,79,9,79.1c-0.3-0.4-0.6-0.8-0.9-1.2c-0.3-0.4-0.7-0.9,0.2-1.3c-0.4-0.2-0.7-0.3-1-0.4c0-0.1,0-0.1,0.1-0.2
			C7.6,76.1,7.7,76.1,7.8,76.1L7.8,76.1z"/>
		<path class="st0" d="M7.7,82.3c0.2,0.1,0.5,0.1,0.7,0.3c0.2,0.3,0.4,0.7,0.5,1.1c-1,0.1-1.2-0.6-1.5-1.3l0,0
			C7.5,82.4,7.6,82.4,7.7,82.3L7.7,82.3z"/>
		<path class="st0" d="M10.2,81.4c0.2-0.1,0.4-0.3,0.6-0.4c0.1,0,0.3,0.1,0.5,0.1c-0.1,0.1-0.2,0.4-0.3,0.4
			C10.7,81.6,10.5,81.5,10.2,81.4L10.2,81.4z"/>
		<path class="st0" d="M17.2,93.5c0,0.4,0,0.7,0,1.1c-0.3-0.3-0.5-0.5-0.8-0.9C16.7,93.7,17,93.6,17.2,93.5z"/>
		<path class="st0" d="M16.2,91.5c0.1,0.1,0.1,0.2,0.2,0.4c-1.2-0.1-1.2-0.1-0.9-0.7l0,0C15.7,91.3,16,91.4,16.2,91.5L16.2,91.5z"/>
		<path class="st0" d="M8.9,73.5c0.2,0.2,0.4,0.4,0.6,0.6c-0.1,0.1-0.2,0.2-0.3,0.2c-0.2-0.2-0.3-0.4-0.5-0.5
			C8.7,73.6,8.8,73.5,8.9,73.5z"/>
		<path class="st0" d="M3.8,73.2c0.2,0.2,0.5,0.4,0.7,0.6c0,0.1,0,0.1,0,0.2c-0.2,0-0.5,0-0.5,0C3.8,73.7,3.8,73.4,3.8,73.2
			L3.8,73.2z"/>
		<path class="st0" d="M4.4,75.9c-0.1-0.4-0.2-0.8-0.4-1.2c0.1,0,0.1,0,0.2-0.1c0.1,0.4,0.3,0.8,0.4,1.2C4.5,75.8,4.5,75.8,4.4,75.9
			z"/>
		<path class="st0" d="M8.3,75.8c-0.3-0.2-0.6-0.3-0.9-0.5l0,0c0.1-0.1,0.2-0.2,0.3-0.3l0,0C8.3,75,8.2,75.5,8.3,75.8L8.3,75.8z"/>
		<path class="st0" d="M10.3,80.2c0.2,0.1,0.4,0.1,0.6,0.2c-0.1,0.1-0.2,0.2-0.3,0.3C10.6,80.5,10.4,80.3,10.3,80.2L10.3,80.2z"/>
		<path class="st0" d="M7.7,75c-0.2-0.1-0.5-0.2-0.7-0.4c0.1-0.1,0.1-0.2,0.2-0.3C7.4,74.6,7.5,74.8,7.7,75L7.7,75z"/>
		<path class="st0" d="M18.5,95.2c-0.2-0.1-0.4-0.2-0.6-0.3c0-0.1,0.1-0.1,0.1-0.2c0.2,0.1,0.4,0.2,0.6,0.3
			C18.5,95.1,18.5,95.1,18.5,95.2z"/>
		<path class="st0" d="M7.4,82.5c-0.1-0.2-0.1-0.3-0.2-0.5c0.1,0,0.1-0.1,0.2-0.1c0.1,0.1,0.2,0.3,0.4,0.4l0,0
			C7.6,82.4,7.5,82.4,7.4,82.5L7.4,82.5z"/>
		<path class="st0" d="M105.6,78.9c0.1-0.2,0.1-0.3,0.2-0.5c0.1,0,0.1,0.1,0.2,0.1C105.8,78.7,105.7,78.8,105.6,78.9L105.6,78.9z"/>
		<path class="st0" d="M15.1,92c0.1,0.1,0.2,0.1,0.4,0.2c0,0,0,0.1-0.1,0.1c-0.1-0.1-0.3-0.1-0.4-0.2C15,92.1,15,92,15.1,92z"/>
		<path class="st0" d="M11.5,82c-0.1,0-0.3,0-0.4,0c0,0,0-0.1,0-0.1c0.1,0,0.3,0,0.4,0C11.5,81.9,11.5,81.9,11.5,82z"/>
		<path class="st0" d="M88.3,101.7c-0.1,0.1-0.2,0.2-0.3,0.3c0-0.1,0-0.2,0-0.3c0,0,0,0,0,0C88.1,101.7,88.2,101.7,88.3,101.7
			L88.3,101.7z"/>
		<path class="st0" d="M9.4,80.8c0-0.1-0.1-0.1-0.1-0.1c0-0.1,0.1-0.1,0.1-0.1c0,0,0.1,0.1,0.1,0.1C9.5,80.7,9.5,80.8,9.4,80.8z"/>
		<path class="st0" d="M93,96.9c-0.1,0.1-0.2,0.3-0.3,0.4c0,0-0.1-0.1-0.1-0.1C92.7,97.1,92.9,97,93,96.9L93,96.9z"/>
		<path class="st0" d="M16.5,91.2c0.1,0.1,0.1,0.1,0.2,0.2c-0.2,0-0.3,0.1-0.5,0.1l0,0C16.3,91.4,16.4,91.3,16.5,91.2L16.5,91.2z"/>
		<path class="st0" d="M14.7,90.9c0,0.1-0.1,0.2-0.1,0.2c0,0,0,0-0.1,0C14.6,91,14.6,90.9,14.7,90.9L14.7,90.9z"/>
		<path class="st0" d="M88.5,101.6c0.2,0,0.4-0.1,0.6-0.1l0,0C88.9,101.5,88.7,101.5,88.5,101.6L88.5,101.6z"/>
		<path class="st0" d="M91.6,97.1c0,0-0.1,0-0.1,0.1c0,0,0-0.1,0-0.1C91.5,97.1,91.6,97.1,91.6,97.1C91.6,97.1,91.6,97.1,91.6,97.1z
			"/>
		<path class="st0" d="M13.4,90.6c0,0,0.1,0,0.1,0.1c0,0-0.1,0.1-0.1,0.1c0,0-0.1-0.1-0.1-0.1C13.4,90.6,13.4,90.6,13.4,90.6z"/>
		<path class="st0" d="M17.7,94.4C17.7,94.4,17.6,94.5,17.7,94.4C17.6,94.5,17.6,94.5,17.7,94.4C17.6,94.4,17.6,94.4,17.7,94.4z"/>
		<polygon class="st0" points="91.8,97.6 91.7,97.5 91.8,97.5 		"/>
		<path class="st0" d="M16.7,92.3C16.7,92.3,16.7,92.4,16.7,92.3c0,0.1-0.1,0.1-0.1,0c0,0,0,0,0-0.1C16.7,92.3,16.7,92.3,16.7,92.3z
			"/>
		<path class="st0" d="M5.3,77.9C5.3,77.9,5.2,77.9,5.3,77.9c-0.1-0.1,0-0.1,0-0.1C5.3,77.8,5.3,77.8,5.3,77.9
			C5.3,77.9,5.3,77.9,5.3,77.9z"/>
		<path class="st0" d="M89.1,99.2C89.1,99.3,89.1,99.3,89.1,99.2C89.1,99.3,89,99.3,89.1,99.2C89,99.3,89,99.2,89.1,99.2
			C89.1,99.2,89.1,99.2,89.1,99.2z"/>
		<path class="st0" d="M5.1,76.3c-0.1,0-0.1-0.1-0.2-0.1C4.9,76.2,5,76.3,5.1,76.3L5.1,76.3z"/>
		<path class="st0" d="M3.7,72.8C3.6,72.8,3.6,72.8,3.7,72.8C3.6,72.8,3.6,72.8,3.7,72.8C3.6,72.7,3.6,72.7,3.7,72.8
			C3.7,72.7,3.7,72.8,3.7,72.8z"/>
		<polygon class="st0" points="14.2,91.5 14.2,91.5 14.2,91.5 		"/>
		<path class="st0" d="M10.2,81.4C10.1,81.4,10.1,81.3,10.2,81.4C10.1,81.3,10.1,81.4,10.2,81.4L10.2,81.4z"/>
		<polygon class="st0" points="9.9,73.9 9.8,74 9.8,73.9 		"/>
		<path class="st0" d="M95.9,93.5C95.9,93.6,95.9,93.6,95.9,93.5C95.8,93.6,95.9,93.5,95.9,93.5L95.9,93.5z"/>
		<polygon class="st0" points="19.1,95.1 19.2,95.1 19.1,95.1 		"/>
		<path class="st0" d="M93.3,96.6c-0.1,0.1-0.2,0.2-0.3,0.3l0,0C93.1,96.8,93.2,96.7,93.3,96.6L93.3,96.6z"/>
		<polygon class="st0" points="89.9,99.4 89.9,99.4 89.9,99.5 		"/>
		<polygon class="st0" points="88.4,100.9 88.5,100.9 88.5,100.9 		"/>
		<polygon class="st0" points="6.3,80 6.2,80 6.3,80 		"/>
		<path class="st0" d="M101.5,84.7c-0.1,0-0.2,0-0.3,0l0,0C101.3,84.7,101.4,84.7,101.5,84.7L101.5,84.7z"/>
		<path class="st0" d="M17.9,93.5C17.9,93.5,18,93.6,17.9,93.5C18,93.5,17.9,93.5,17.9,93.5L17.9,93.5z"/>
		<path class="st0" d="M3.8,73.2c0.1,0,0.2-0.1,0.3-0.1l0,0C4,73.1,3.9,73.1,3.8,73.2L3.8,73.2z"/>
		<path class="st0" d="M90.8,98.3C90.8,98.3,90.8,98.3,90.8,98.3C90.8,98.3,90.8,98.3,90.8,98.3L90.8,98.3z"/>
		<path class="st0" d="M102.6,83.3C102.6,83.3,102.6,83.3,102.6,83.3C102.6,83.3,102.6,83.3,102.6,83.3
			C102.6,83.3,102.6,83.3,102.6,83.3z"/>
		<path class="st0" d="M17,91.8L17,91.8L17,91.8z"/>
		<path class="st0" d="M15.8,92.6L15.8,92.6L15.8,92.6z"/>
		<path class="st0" d="M15.7,92.6L15.7,92.6L15.7,92.6z"/>
		<path class="st0" d="M17.9,93.5L17.9,93.5L17.9,93.5z"/>
		<path class="st0" d="M4.1,73L4.1,73L4.1,73z"/>
		<path class="st0" d="M7.4,75.4L7.4,75.4L7.4,75.4z"/>
		<path class="st0" d="M5,76.3L5,76.3L5,76.3z"/>
		<path class="st0" d="M96.1,93.3c-0.1,0.1-0.1,0.1-0.2,0.2l0,0C96,93.5,96.1,93.4,96.1,93.3L96.1,93.3z"/>
		<path class="st0" d="M89.1,101.4L89.1,101.4L89.1,101.4z"/>
		<path class="st0" d="M88.3,101.7c0.1-0.1,0.1-0.1,0.2-0.2l0,0C88.4,101.6,88.4,101.7,88.3,101.7L88.3,101.7z"/>
		<path class="st0" d="M74.5,108.2c-0.1,0-0.1,0-0.2,0l0,0C74.4,108.2,74.5,108.2,74.5,108.2L74.5,108.2z"/>
		<path class="st0" d="M15.9,80.9c-0.1,0-0.1,0-0.2,0C15.8,80.9,15.9,80.9,15.9,80.9z"/>
		<path class="st0" d="M12.3,89.5c0-0.1,0-0.1,0-0.2C12.3,89.4,12.3,89.4,12.3,89.5z"/>
		<path class="st0" d="M19,86.5c0.2-0.5,0.5-0.4,0.9,0.1C19.5,86.6,19.2,86.5,19,86.5L19,86.5z"/>
		<path class="st0" d="M18.7,86.1L18.7,86.1L18.7,86.1z"/>
		<path class="st0" d="M18.5,85.9c0.1,0,0.1,0,0.2,0c0,0.1,0,0.1,0,0.2l0,0C18.6,86,18.6,86,18.5,85.9z"/>
		<path class="st0" d="M14.1,78C14.1,77.9,14.1,77.9,14.1,78C14.1,77.9,14.1,78,14.1,78C14,78,14.1,78,14.1,78z"/>
		<path class="st0" d="M93.1,93.7c0.1,0,0.2,0,0.3,0C93.4,93.7,93.3,93.7,93.1,93.7z"/>
		<path class="st0" d="M79.4,104.5c-0.1,0.1-0.1,0.1-0.2,0.2C79.2,104.6,79.3,104.6,79.4,104.5z"/>
		<path class="st0" d="M16.1,84.4c-0.1-0.1-0.2-0.1-0.3-0.2C15.9,84.3,16,84.3,16.1,84.4z"/>
	</g>
	<g>
		<g>
			<path class="st1" d="M27.4,51.1c1.1-0.2,2.3-0.3,3.6-0.3h0.2c0.3,0,0.4,0.1,0.5,0.1c0.1,0,0.1,0.1,0.1,0.2v0.1
				c0,0.2-0.2,0.5-0.6,0.8c-0.3,0.3-0.4,0.7-0.3,1c-0.1,0.2-0.6,0.4-1.4,0.6l-0.6,0.1c0,0.8-0.1,1.9-0.2,3.1c-0.1,2-0.4,4-0.8,6
				c-0.3,1.1-0.6,2.1-0.9,3.1c-0.4,1-0.8,1.8-1.3,2.5c-0.5,0.7-1,1.3-1.7,1.7c-0.6,0.4-1.3,0.6-2.1,0.6h-0.1c-1.5-0.1-3-0.5-4.4-1.3
				c-1.4-0.8-2.7-1.9-3.9-3.2c-2.3-2.5-4-5.6-5.4-9.1c-1.3-3.4-1.9-6.6-1.9-9.5V47c0.1-2.8,0.4-5.4,1-7.6c0.6-2.3,1.4-4.2,2.3-5.7
				c1.8-3,4-4.8,6.7-5.6c0.8-0.2,1.6-0.3,2.4-0.3c1.9,0,3.7,0.6,5.6,1.8c0.5,0.3,0.9,0.7,1.2,1.3c0.4,0.6,0.7,1.2,1,1.9
				c0.4,1,0.6,2,0.6,3.1c0,1-0.2,1.7-0.6,2.1c-0.6,0.3-1.1,0.3-1.5,0.1c-0.4-0.2-0.7-0.4-0.9-0.6c0.1-0.3,0.3-0.9,0.5-1.9
				c0.2-1.1,0.1-2-0.2-2.8c-0.1-0.4-0.4-0.7-0.6-1c-0.3-0.2-0.7-0.4-1.1-0.5c-0.6-0.1-1.1,0.1-1.6,0.5c-0.5,0.4-0.9,1-1.3,1.7
				c-0.7,1.4-1.3,3.4-1.7,5.8c-0.4,2.4-0.7,5-0.9,7.8c-0.2,3.4-0.2,6.8,0,10.2c0.2,3.3,0.6,6,1.2,8.1c0.3,1.1,0.6,2,1.1,2.5
				c0.4,0.6,0.8,0.9,1.3,0.8c0.6-0.1,1.1-0.6,1.7-1.5c0.5-0.9,1.1-2,1.6-3.2c0.8-1.9,1.4-3.9,1.9-6.1c0.4-1.5,0.7-2.7,0.9-3.8h-0.2
				c-0.5,0-1,0.1-1.5,0.1c-0.8,0-1.6,0-2.3-0.1c-1.3-0.1-2-0.2-2.4-0.3v-0.1c0-0.2,0.3-0.6,0.8-1.1c0.5-0.6,1-0.9,1.5-0.9
				C24.7,51.4,26.2,51.3,27.4,51.1z"/>
			<path class="st1" d="M41.8,55.8c0.3,0.2,0.4,0.4,0.5,0.8c0.1,0.3,0.2,0.6,0.3,1c0.1,0.5,0.1,1.1,0.1,1.8l-0.2,1.9
				c-0.2,1.3-0.3,2.4-0.4,3.3c-0.1,1,0,1.5,0.4,1.6c0.5,0,1.1-0.5,1.9-1.5c0.8-1,1.6-2.2,2.4-3.5c0.5-0.9,0.9-1.8,1.3-2.7
				c0.4-0.9,0.7-1.6,0.9-2.3c0.3,0,0.5-0.1,0.8-0.1c0.3,0,0.5,0.1,0.6,0.3c-0.4,1.3-1,2.8-1.8,4.6c-0.8,1.7-1.8,3.2-3,4.4
				c-0.6,0.6-1.3,1.2-2,1.6c-0.7,0.4-1.5,0.6-2.3,0.6h-0.1c-1,0-1.9-0.2-2.5-0.5c-0.6-0.3-1.1-0.7-1.5-1.2c-0.7-1.2-0.8-2.8-0.2-4.7
				c0.6-1.9,1.3-3.3,2.1-4.4c-0.3,0-0.9,0-1.8,0.1c-0.9,0.1-1.7,0-2.5-0.3c-0.4-0.2-0.8-0.4-1.1-0.8c-0.3-0.4-0.5-0.9-0.6-1.5
				c-0.1-0.7-0.2-1.3-0.2-1.9c0-1.4,0.3-2.4,0.8-3c0.6-0.7,1.4-1.1,2.5-1.1c0.3,0,0.6,0,0.9,0.1c0.4,0.1,0.8,0.2,1.1,0.5
				c0.3,0.2,0.4,0.6,0.6,0.9c0.4,1.1,0.3,2.4-0.3,3.9c-0.3,0.6-0.5,1.2-0.8,1.6c0.3,0.1,0.6,0.1,1,0.1
				C39.5,55.3,40.5,55.5,41.8,55.8z M37.9,51c0.1-0.8-0.1-1.2-0.4-1.3c-0.4-0.1-0.7,0.6-1,2.1c-0.4,1.5-0.4,2.5,0,2.7
				c0.1,0.1,0.2,0.2,0.3,0.3c0.2-0.4,0.4-0.9,0.6-1.5C37.6,52.6,37.8,51.8,37.9,51z"/>
			<path class="st1" d="M52.8,51c0.5,0,0.9,0.3,1.2,0.8c0.1,0.2,0.1,0.4,0.2,0.5c0.4-0.3,0.9-0.3,1.5-0.2c0.9,0.2,1.6,1,2,2.4
				c0.5,1.4,0.7,3,0.6,4.6c0.9,0,1.8-0.4,2.6-1.1c0.9-0.8,1.5-1.6,1.7-2.4c0.2,0,0.4,0,0.5,0c0.2,0,0.4,0.1,0.6,0.1
				c-0.2,1-0.9,2-2.2,3.1c-1.1,0.9-2.2,1.4-3.3,1.5c-0.1,0.7-0.2,1.4-0.4,2.1c-0.3,1-0.7,1.8-1.3,2.4c-0.4,0.4-0.8,0.6-1.2,0.8
				c-0.3,0.1-0.5,0.2-0.9,0.2c-0.2,0-0.4,0-0.7-0.1c-2.8-0.6-4.8-1.8-6-3.6c-0.8-1.2-1.2-2.4-1.2-3.7c0-0.6,0.1-1.3,0.3-1.9
				c0.3-1,0.9-2,1.8-3c0.9-0.9,2.1-1.7,3.5-2.4C52.3,51,52.6,51,52.8,51z M51.6,58.7c-0.1,0.8-0.1,1.5-0.1,2.1
				c0.1,1.3,0.4,2.3,0.9,3.1c0.5,0.8,1.2,1.1,2,0.9c0.3-0.1,0.6-0.6,0.8-1.7c0.3-1,0.4-2.1,0.6-3.4c-0.5-0.3-1-0.6-1.3-1
				c-0.4-0.4-0.6-0.8-0.9-1.2c-0.2-0.5-0.3-0.9-0.4-1.4c-0.1-0.4-0.1-0.8-0.1-1.1c-0.4,0.5-0.7,1.1-0.9,1.7
				C51.9,57.3,51.7,58,51.6,58.7z M55.6,53.1c-0.3,0.2-0.5,0.5-0.6,0.8c-0.1,0.2-0.2,0.5-0.2,0.9c-0.1,0.9,0.2,1.9,0.9,2.8
				c0.1,0.2,0.2,0.4,0.4,0.5c0.1-1.2,0.2-2.3,0.2-3.3C56.2,53.4,56,52.8,55.6,53.1z"/>
			<path class="st1" d="M82.7,57.6c1.4,0,2.4-0.5,3-1.6c0.1,0,0.3,0.1,0.5,0.2c0.1,0,0.3,0.1,0.5,0.3c-0.2,0.5-0.5,0.9-0.9,1.2
				c-0.4,0.3-0.8,0.6-1.2,0.7c-1.1,0.4-2.2,0.4-3.3,0.1c-1.1-0.3-1.8-0.6-2-1.1c0,2.7-0.1,4.8-0.3,6.4c-0.2,1.6-1.4,2.4-3.4,2.4
				c-1.6,0-2.6-0.5-3.1-1.4c-0.5-0.9-0.8-1.7-1-2.5c-0.1,0.4-0.3,1-0.4,1.8c-0.3,0.9-0.6,1.6-1.2,2.2c-0.3,0.4-0.7,0.6-1.1,0.9
				c-0.4,0.1-0.8,0.2-1.2,0.2h-0.2c-0.9-0.1-1.7-0.3-2.4-0.8c-0.7-0.5-1.2-1.1-1.7-1.8c-0.7-1.1-1.1-2.5-1.4-3.9
				c-0.2-1.1-0.3-2.1-0.3-3.1c0-0.4,0-0.7,0.1-1.1c0-0.7,0.1-1.3,0.3-1.9c0.1-0.5,0.3-1,0.5-1.3c0.3-0.4,1.2-0.8,2.7-1.2
				c0.6-0.1,1.1-0.2,1.5-0.2c0.6,0,1,0.2,1.1,0.6c0.1,0.5,0.1,1.6-0.1,3.3c-0.2,1.7-0.3,3.4-0.4,5.1c-0.1,1.4-0.1,2.6,0,3.6
				c0.1,1,0.4,1.6,0.9,1.6c0.2,0,0.4-0.3,0.7-1c0.3-0.6,0.5-1.4,0.8-2.3c0.3-1.1,0.6-2.2,0.8-3.2c0.3-1.1,0.4-1.7,0.4-2
				c0.3-0.4,0.9-0.8,1.8-1.2c0.9-0.4,1.6-0.3,1.9,0.1c0.1,0.3,0.2,0.8,0.3,1.5c0.1,0.6,0.2,1.3,0.4,2.1c0.2,1.1,0.5,2.2,0.8,3.2
				c0.3,1,0.6,1.4,0.9,1.4c0.3,0,0.4-0.4,0.5-1.1c0.1-0.7,0.1-1.5,0.1-2.4c0-1.1,0-2.2-0.1-3.3c0-1.1,0-1.8,0.2-2.2
				c0.2-0.4,0.6-0.7,1.1-0.9c0.5-0.2,0.9,0.1,1.1,0.7C80.3,56.9,81.2,57.6,82.7,57.6z"/>
			<path class="st1" d="M90.3,55.4c0.1-1.6,0.5-3,1.2-4c0.2-0.3,0.5-0.6,0.8-0.8c0.3-0.2,0.6-0.3,1-0.3h0.1c0.8,0,1.5,0.2,2,0.6
				c0.6,0.4,1.1,0.9,1.5,1.6c0.4,0.6,0.6,1.2,0.9,2c0.2,0.7,0.4,1.5,0.5,2.3c0.3,1.8,0.5,3.5,0.5,5.1c0,1.6,0.2,2.4,0.5,2.4
				c0.3,0,0.7-0.5,1.3-1.4c0.6-1,1.1-2,1.6-3.1c0.3-0.7,0.6-1.4,0.9-2c0.3-0.6,0.4-1.1,0.5-1.4c0.2,0,0.4-0.1,0.6-0.1
				c0.2,0,0.4,0,0.7,0.2c-0.1,0.5-0.5,1.4-1,2.7c-0.5,1.3-1.1,2.5-1.8,3.6c-0.5,0.8-0.9,1.4-1.5,1.9c-0.5,0.5-1.1,0.8-1.6,0.8
				c-0.9,0-1.6-0.3-2.1-0.6c-0.6-0.4-1-0.9-1.4-1.6c-0.4-0.6-0.6-1.3-0.9-2c-0.2-0.7-0.4-1.5-0.5-2.3c-0.3-1.8-0.4-3.5-0.4-5
				c0-1.6-0.2-2.3-0.6-2.3c-0.5,0.1-0.9,0.9-1.1,2.6c-0.2,1.6-0.4,3.4-0.4,5.3c-0.1,1.5-0.1,2.9-0.1,4.1c0,1.3-0.1,2-0.1,2.2
				c-0.2,0.3-0.5,0.5-1,0.4c-0.3,0-0.7-0.1-1.1-0.2c-1.1-0.4-1.7-0.8-1.9-1.3c0-0.2-0.2-0.8-0.5-1.6c-0.3-0.9-0.6-1.9-1-3
				c-0.5-1.3-0.9-2.6-1.3-3.8c-0.4-1.3-0.7-2-0.8-2.4c0.3-0.3,1-0.7,2.1-1c1.2-0.4,2.1-0.2,2.7,0.5c0.3,0.4,0.5,1.3,0.8,2.6
				c0.3,1.3,0.4,2.3,0.6,2.8C90,58.2,90.1,57.1,90.3,55.4z"/>
		</g>
		<g>
			<path class="st1" d="M42.4,30.7c0,0.4-0.1,0.9-0.1,1.5V35v2.4c0,0.6,0.1,1.4,0.2,2.5c0.1,1.1,0.1,1.9,0.1,2.4
				c0.1,0.1,0.2,0.2,0.3,0.2c0.1,0.1,0.2,0.1,0.2,0.2c0,0,0.1,0.1,0.1,0.2v0.6c0,0,0,0,0-0.1c0,0-0.1-0.1-0.1-0.1
				c-0.1,0-0.1,0-0.1,0.1c-0.1,0-0.2,0.1-0.3,0.1c-0.1,0-0.1,0-0.1,0h-0.4c-0.1,0-0.4,0-0.7,0l-0.7,0c-0.1-0.1-0.2-0.2-0.2-0.3
				c0,0,0-0.1,0.1-0.2s0.1-0.1,0.2-0.2c0-0.1,0-0.1,0.1-0.2c0,0,0.1-0.1,0.2-0.1c0.1-0.1,0.2-0.1,0.2-0.1c0,0,0.1-0.1,0.1-0.2
				c0.1-0.7,0.1-1.5,0.1-2.5c0-0.8,0-1.6-0.1-2.6c0-1.1-0.1-2-0.1-2.5c0-0.1,0-0.2-0.1-0.2c0,0-0.1-0.1-0.1-0.1c-0.1,0-0.1,0-0.1,0
				c-0.3-0.1-0.6-0.1-1-0.1c-0.3,0-0.7,0-1.1,0.1c-0.5,0-0.8,0.1-1,0.1c-0.3,0.3-0.5,0.6-0.5,0.9c-0.1,0.3-0.1,0.7-0.1,1.3v3.3v0.9
				c0.1,0.1,0.1,0.2,0.2,0.4c0,0.1,0,0.2,0,0.3c0,0.2,0,0.3,0,0.4c0,0.1,0.1,0.2,0.1,0.4c0.1,0,0.2,0.1,0.4,0.2
				c0.1,0.1,0.2,0.3,0.2,0.4c0,0.2-0.1,0.3-0.3,0.3c-0.2,0-0.6,0-1.1,0.1c-0.4,0-0.7,0.1-0.9,0.1c-0.4,0-0.7,0-1.1-0.1
				c0,0,0-0.1-0.1-0.2c0-0.1-0.1-0.2-0.1-0.3c0-0.2,0-0.3,0.1-0.4h0.6v-1.2v-7v-0.6v-0.3v-0.9v-0.3c-0.1-0.1-0.1-0.3-0.1-0.5
				c0-0.1,0-0.3,0-0.6c0-0.2,0-0.5,0-0.6c0-0.2-0.1-0.3-0.1-0.4c0,0-0.1,0-0.1,0c-0.1,0-0.1,0-0.2-0.1c-0.1,0-0.2-0.1-0.3-0.2
				c0,0,0,0-0.1-0.1c0-0.1-0.1-0.1-0.1-0.2c0-0.1,0-0.2,0.1-0.3H36c0.1,0,0.3,0,0.6-0.1c0.3,0,0.6-0.1,0.8-0.1c0.3,0,0.5,0,0.7,0.1
				c0.2,0,0.3,0.1,0.4,0.2s0.2,0.3,0.2,0.4c0,0.1-0.1,0.2-0.3,0.3c-0.2,0-0.4,0.1-0.6,0.1c-0.1,0.1-0.1,0.2-0.1,0.3
				c0,0.1,0,0.2,0.1,0.3c0,0.3,0.1,0.5,0.1,0.6c0,0.1,0,0.3-0.1,0.7c0,0.3-0.1,0.5-0.1,0.8c0,0.3,0,0.5,0.1,0.7
				c0.6,0.1,1.2,0.2,1.8,0.2c0.6,0,1.2-0.1,1.8-0.2c0-0.7,0-1.3-0.1-1.9c0-0.6-0.1-1-0.3-1.4c0-0.1-0.1-0.1-0.3-0.2
				c-0.1,0-0.2,0-0.3,0c-0.1,0-0.3,0-0.4,0c-0.1,0-0.2-0.1-0.2-0.1v-0.6c0.5-0.2,0.9-0.3,1.3-0.3c0.2,0,0.3,0,0.5,0
				c0.2,0,0.3,0,0.4,0c0.1,0,0.2,0,0.3,0c0.1,0,0.2,0,0.3,0c0.1,0.1,0.3,0.2,0.3,0.3c0.1,0.1,0.1,0.3,0.1,0.4c0,0.1,0,0.3-0.1,0.4
				c-0.1,0.1-0.2,0.2-0.3,0.2C42.6,30,42.5,30.4,42.4,30.7z"/>
			<path class="st1" d="M52.1,42.6c-0.2,0.2-0.3,0.3-0.5,0.4c-0.6,0.4-1.2,0.6-1.8,0.6c-0.7,0-1.3-0.2-1.8-0.5
				c-0.6-0.3-1-0.8-1.2-1.3c-0.4-0.7-0.7-1.4-0.9-2.2c-0.1-0.5-0.2-1.1-0.2-1.6c0-0.5-0.1-1.2-0.1-2c0-0.1,0-0.3,0-0.6
				c0-0.3,0-0.5,0-0.6c0-0.2,0-0.5,0.1-0.7c0-0.1,0-0.2,0.1-0.5c0-0.3,0.1-0.5,0.1-0.7c0-0.1,0.1-0.3,0.1-0.6c0-0.3,0.1-0.5,0.1-0.6
				c0-0.2,0.1-0.3,0.2-0.4c0.1-0.2,0.3-0.4,0.5-0.7c0.3-0.5,0.6-0.8,0.8-1.1c0.2-0.3,0.5-0.5,0.8-0.7c0.3-0.2,0.7-0.3,1.1-0.3
				c0.2,0,0.4,0,0.5,0c0.6,0,1.1,0.1,1.4,0.3c0.4,0.2,0.7,0.5,1,1c0.5,0.3,0.9,0.8,1.2,1.4c0.3,0.7,0.5,1.4,0.6,2.1
				c0,0.4,0.1,1,0.1,1.6v0.7c0,1-0.1,1.9-0.3,2.6c-0.3,1.4-0.8,2.7-1.4,3.8C52.4,42.3,52.2,42.4,52.1,42.6z M51.6,40.6
				c0.2-0.5,0.3-0.9,0.4-1.3c0.1-0.4,0.2-0.8,0.2-1.2c0-0.4,0.1-0.9,0.1-1.5c0-0.2,0-0.5,0.1-0.8c0-0.1,0-0.2,0-0.3
				c0-0.2,0-0.3,0-0.4c0-0.1,0-0.3,0-0.5c0-0.2,0-0.3,0-0.4c0-0.4-0.1-0.7-0.1-0.9c-0.1-0.2-0.2-0.5-0.3-0.9
				c-0.1-0.4-0.2-0.7-0.3-0.9L51.5,31c-0.2-0.4-0.3-0.7-0.5-0.9c-0.1-0.2-0.3-0.4-0.5-0.5c-0.2,0-0.4,0-0.6,0c-0.2,0-0.4,0-0.6,0
				c-0.3,0.3-0.5,0.6-0.7,0.9c-0.2,0.3-0.4,0.7-0.5,1.2c-0.1,0.3-0.2,0.5-0.3,0.8c0,0.3-0.1,0.6-0.1,1c-0.1,0.6-0.1,1.4-0.1,2.1
				c0,1.4,0.1,2.9,0.4,4.6c0.1,0.1,0.1,0.3,0.2,0.5c0,0.2,0.1,0.3,0.1,0.3c0.1,0.2,0.1,0.4,0.2,0.5c0,0.1,0.1,0.2,0.2,0.3
				c0.1,0,0.1,0,0.2,0c0,0,0,0.1,0.1,0.2c0,0.1,0.1,0.2,0.1,0.2c0.2,0.2,0.4,0.2,0.8,0.2c0.3,0,0.6-0.1,0.9-0.2
				c0.3-0.1,0.5-0.3,0.5-0.4C51.3,41.5,51.4,41.1,51.6,40.6z"/>
			<path class="st1" d="M63,35.5c0.1-0.4,0.1-0.7,0.2-1c0.1-0.3,0.1-0.5,0.1-0.6c0-0.3,0.1-0.6,0.3-1.1l0.3-1.1l0.1-0.5
				c0.1-0.3,0.1-0.6,0.2-0.7c0-0.2,0.1-0.4,0.1-0.6c0-0.3,0.1-0.6,0.4-0.8c0.3-0.3,0.5-0.4,0.9-0.4h1.8c0.1,0,0.2,0,0.2,0.1
				c0,0,0.1,0.1,0.2,0.2c0.1,0.1,0.2,0.3,0.3,0.3c-0.1,0.1-0.3,0.2-0.4,0.3c-0.1,0.1-0.2,0.1-0.4,0.1c-0.1,0-0.3,0-0.5-0.1
				c-0.1,0.3-0.1,0.5-0.1,0.8c0,0.2,0,0.4,0.1,0.8c0,0.3,0.1,0.6,0.1,0.9v1.2v1.5v2.5l0,0.9c0,0.1,0,0.3,0,0.6c0,0.3,0,0.5,0,0.7
				c0,0.4,0.1,0.8,0.1,1.2c0,0.3,0,0.6,0,1c0,0.4,0,0.7,0,0.9c0.3,0,0.6,0.1,0.9,0.3c0.3,0.2,0.4,0.3,0.4,0.5c0,0.1-0.1,0.2-0.2,0.3
				c-0.1,0-0.2,0-0.3,0c0,0-0.1,0-0.1,0c-0.1,0-0.1,0-0.2,0c0,0-0.1,0-0.3,0c-0.1,0-0.2,0.1-0.3,0.1l-0.5-0.1c0.1,0,0,0-0.1,0
				c-0.1,0-0.3,0-0.4,0.1c-0.2,0-0.3,0-0.5,0c0-0.1,0-0.1,0-0.2c0,0-0.1-0.1-0.1-0.1c-0.1,0-0.1-0.1-0.1-0.2c0-0.1,0-0.1,0.1-0.2
				c0.1,0,0.2-0.1,0.3-0.2c0.3-0.1,0.4-0.2,0.5-0.3c-0.1-0.9-0.2-2.1-0.2-3.4c0-0.4,0-1.1,0-2c0-0.7,0-1.2,0-1.5
				c0-0.1,0-0.4,0.1-0.8c0.1-0.5,0.1-0.9,0.1-1.1v-1.2c0-0.1,0-0.2,0-0.2c0-0.1,0-0.2-0.1-0.3l0-0.3c0-0.1-0.1-0.2-0.2-0.4
				c0,0,0,0,0,0.1c0,0,0,0.1,0,0.2c0,0.1,0,0.3-0.1,0.4c-0.1,0.2-0.2,0.6-0.3,1c-0.1,0.4-0.2,0.8-0.3,1.2c-0.1,0.5-0.2,0.9-0.3,1.2
				c0,0.1-0.1,0.2-0.1,0.4C64,35.7,64,35.9,64,36l-0.2,1.1c-0.2,0.8-0.3,1.4-0.3,1.6c0,0.1-0.1,0.4-0.1,0.7c0,0.4-0.1,0.7-0.1,0.9
				c0,0.2-0.1,0.3-0.2,0.3c-0.1,0-0.3-0.1-0.5-0.2c-0.2-0.1-0.3-0.1-0.4-0.1c0-0.2,0-0.4-0.1-0.6c0-0.2-0.1-0.4-0.2-0.6l-0.1-0.3
				l-0.3-0.9c0-0.2-0.1-0.4-0.2-0.8c-0.1-0.4-0.2-0.7-0.3-1c-0.2-0.7-0.4-1.4-0.6-1.9c0-0.1-0.1-0.2-0.1-0.3c0-0.1-0.1-0.3-0.2-0.4
				c-0.1-0.1-0.1-0.2-0.2-0.3v2.2c0,0.2,0,0.7-0.1,1.2c-0.1,0.8-0.2,1.3-0.2,1.6v1.6v2.8c0.2,0,0.4,0,0.5,0.1c0.1,0,0.2,0.1,0.2,0.3
				c0,0.2-0.1,0.4-0.4,0.5c-0.3,0.1-0.6,0.1-1.1,0.1c-0.2,0-0.5,0-0.8,0l-0.4,0c-0.1,0-0.2,0-0.2-0.1s-0.1-0.1-0.2-0.2
				c-0.1-0.2-0.2-0.3-0.3-0.3c0.1-0.1,0.1-0.1,0.2-0.2c0.1-0.1,0.1-0.1,0.2-0.2c0,0,0.1-0.1,0.2-0.1c0.1,0,0.2,0,0.4,0.1v-3.1v-4
				v-0.6v-3.1v-2.2c-0.1,0-0.2,0-0.3,0.1c-0.1,0-0.2,0.1-0.3,0.1c-0.1,0-0.1,0-0.2,0c-0.1,0-0.1,0-0.1,0c-0.1,0-0.3-0.1-0.4-0.1
				c-0.2-0.2-0.3-0.3-0.3-0.4c0-0.1,0-0.3,0-0.6c0.3-0.1,0.6-0.1,0.9-0.1c0.7,0,1.5,0.1,2.5,0.4c0.2,0.3,0.3,0.6,0.4,0.9
				c0.1,0.2,0.2,0.4,0.3,0.6c0,0,0.1,0.2,0.2,0.4V31c0.2,0.4,0.4,0.9,0.6,1.4c0.2,0.5,0.4,1.1,0.6,1.8l0.3,0.8
				c0.1,0.2,0.2,0.4,0.2,0.6c0.1,0.2,0.2,0.3,0.2,0.5l0.2,0.4C62.8,36.2,62.9,35.9,63,35.5z"/>
			<path class="st1" d="M76.5,30.7c0-0.1,0-0.2,0-0.3c0-0.2,0-0.3,0-0.4c0-0.1-0.1-0.2-0.1-0.2c-0.2-0.1-0.4-0.2-0.6-0.3
				c-0.5,0-0.9,0-1.2,0.1c-0.3,0-0.7,0.1-0.9,0.3c-0.1,0.1-0.2,0.2-0.2,0.4c0,0.2-0.1,0.4-0.1,0.6c0,0.5,0,1,0,1.5l0,0.9
				c0,0.1,0,0.5,0.1,0.9c0,0.3,0.1,0.5,0.1,0.6c0,0.2,0,0.4-0.1,0.6c0.1,0.1,0.4,0.2,0.7,0.2c0.3,0,0.7,0.1,1.1,0.1
				c0-0.2,0-0.5,0.1-0.6c0-0.2,0.1-0.3,0.3-0.3c0.1,0,0.2,0,0.3,0c0.1,0,0.2,0.1,0.3,0.3c0,0.1-0.1,0.2-0.1,0.3c0,0,0,0.1,0,0.3
				c0,0.2,0,0.4,0,0.7c0,0.3,0,0.5,0,0.6c0,0.2,0,0.4-0.1,0.5c0,0.1-0.1,0.2-0.2,0.2c0,0-0.1-0.1-0.2-0.1c-0.1-0.1-0.2-0.1-0.3-0.2
				c-0.1-0.1-0.1-0.2-0.1-0.3v-0.3h-1.5c-0.1,0.3-0.2,0.7-0.2,1.3c0,0.3,0,0.7,0,1c0,0.4,0,0.7,0,0.8c0,0,0,0.6,0,1.6
				c0,0.4,0,0.8,0,1.1c0.4,0.1,0.8,0.2,1.1,0.3c0.3,0,0.8,0,1.3,0c0.2-0.1,0.2-0.2,0.3-0.3c0-0.1,0-0.2,0-0.4c0-0.2,0-0.4,0.1-0.5
				c0-0.1,0.1-0.2,0.2-0.3c0.3,0,0.4,0.1,0.5,0.4c0.1,0.3,0.1,0.6,0.1,1.1c0,0.1,0,0.3-0.1,0.4c-0.1,0.1-0.3,0.3-0.5,0.5h-1.5
				c-1,0-1.9,0-2.6-0.1c-0.7,0-1.5-0.1-2.3-0.3v-0.6h1.2c0.1-0.5,0.1-1.1,0.1-1.7c0-0.4,0-0.9-0.1-1.6c-0.1-0.7-0.1-1.3-0.1-1.8
				v-0.6v-3.1v-1.2v-2.7h-1.2v-0.6c0.4-0.1,1.1-0.2,1.9-0.3c0.8-0.1,1.4-0.2,1.8-0.3h3.1c0,0,0.1,0.1,0.1,0.1
				c0.1,0.1,0.1,0.1,0.1,0.2c0,0.1,0.1,0.2,0.1,0.3c0,0.1,0,0.3,0.1,0.5c0,0.4,0.1,0.6,0.1,0.6c0,0.2-0.1,0.4-0.2,0.5
				c-0.1,0.1-0.3,0.2-0.6,0.2C76.6,30.9,76.5,30.8,76.5,30.7z"/>
		</g>
		<g>
			<path class="st1" d="M24.9,71.7C24.9,71.7,25,71.7,24.9,71.7c0.1-0.1,0.1-0.1,0.1-0.1c0,0,0.1,0,0.1,0c0,0,0.1,0,0.1,0
				c0.2,0,0.2,0.1,0.3,0.1c0,0,0,0,0,0c0,0,0,0,0,0c0,0,0,0,0.1,0.1c0,0.2,0,0.3-0.1,0.5c0,0.2-0.1,0.5-0.1,0.9
				c-0.1,0.4-0.1,0.9-0.2,1.3c-0.1,0.4-0.1,0.8-0.2,1.2C25,76.1,25,76.3,25,76.3c0,0,0,0.1,0,0.2c0,0.1,0,0.2-0.1,0.3
				c0,0.1,0,0.3-0.1,0.5c0,0.2-0.1,0.3-0.1,0.4c0,0.1,0,0.2-0.1,0.2c0,0.1,0,0.2,0,0.3c0,0.1,0,0.3-0.1,0.5c0,0.2-0.1,0.4-0.1,0.7
				c0,0.2-0.1,0.3-0.1,0.4c0,0.1,0,0.2,0,0.2c0,0,0,0,0,0.1c0,0,0,0.1,0,0.1c0,0,0,0.1,0,0.2c0,0.1,0,0.1,0,0.2c0,0,0.1,0,0.1,0.1
				c0,0,0.1,0.1,0.1,0.1c0,0,0.1,0.1,0.2,0.1c0.1,0,0.2,0.1,0.2,0.1c0,0,0,0,0,0c0,0,0,0.1-0.1,0.1c0,0,0,0-0.1,0.1
				c-0.1,0-0.1,0-0.2-0.1c-0.1,0-0.1,0-0.2-0.1c-0.2,0-0.4,0-0.6-0.1c-0.3,0-0.5-0.1-0.6-0.1c-0.2,0-0.2-0.1-0.2-0.1c0,0,0,0,0,0
				c0,0-0.1,0-0.1-0.1c0,0-0.1-0.1-0.1-0.1c0,0,0-0.1,0.1-0.1c0,0,0.1,0,0.3,0c0.1,0,0.1,0,0.2,0c0.1-0.3,0.1-0.6,0.2-0.9
				c0-0.3,0.1-0.5,0.1-0.8c0-0.3,0.1-0.4,0.1-0.5c0-0.1,0-0.2,0.1-0.3c0-0.1,0-0.2,0-0.3c0-0.1,0-0.1,0.1-0.2c0,0,0.1-0.2,0.1-0.6
				c0.1-0.4,0.2-0.9,0.3-1.5c0.2-1.4,0.4-2,0.4-2c0,0,0-0.1,0-0.1c0,0,0-0.1,0-0.2c0-0.1,0-0.2,0.1-0.3c0-0.1,0-0.2,0.1-0.3
				c0-0.1,0-0.1,0-0.2c0,0,0,0,0-0.1c0,0,0,0,0,0c0,0-0.1,0-0.1,0c0,0-0.1,0.1-0.2,0.1c0,0-0.1,0-0.1,0.1c0,0-0.1,0.1-0.1,0.1
				c0,0-0.1,0-0.1,0c0,0-0.1,0-0.1,0c0,0-0.1,0.1-0.2,0.1c-0.1,0-0.1,0-0.2,0c0,0,0,0-0.1,0c0,0,0,0,0-0.1c0,0,0-0.1,0.1-0.1
				c0.1-0.1,0.1-0.1,0.2-0.1c0,0,0.1-0.1,0.2-0.1c0.1-0.1,0.2-0.1,0.3-0.2c0,0,0.1-0.1,0.2-0.1c0,0,0,0,0.1-0.1c0,0,0,0,0,0
				c0,0,0,0,0,0C24.9,71.8,24.9,71.8,24.9,71.7z"/>
			<path class="st1" d="M29.7,72.5c0.1,0,0.1,0,0.1,0c0.1,0,0.2,0,0.2,0c0.1,0,0.1,0,0.2,0c0,0,0,0,0,0.1c0,0,0.1,0,0.2,0.1
				c0.1,0,0.1,0.1,0.1,0.1c0,0,0,0.1,0.1,0.1c0,0,0,0,0,0c0,0,0,0,0,0.1c0,0,0.1,0.1,0.1,0.1c0,0,0,0,0,0c0,0,0,0,0,0
				c0,0,0,0.1,0,0.1c0,0,0,0,0,0.1c0,0,0,0.1,0,0.1c0,0.1,0.1,0.1,0.1,0.2c0,0,0,0,0,0.1c0,0.1,0,0.1,0.1,0.2c0,0.1,0,0.1,0,0.1
				c0,0,0,0.1,0,0.1c0,0,0,0,0,0.1c0,0.1,0,0.1,0,0.2c0,0.1,0,0.1,0,0.2c0,0.1,0,0.1,0,0.1c0,0,0,0,0,0.1c0,0,0,0.1,0,0.2
				c0,0.1,0,0.1,0,0.2c0,0.1,0,0.1,0,0.2c0,0,0,0.1,0,0.1c0,0,0,0.1,0,0.3c0,0.2,0,0.3,0,0.6c0,0.2,0,0.4,0,0.6c0,0.2,0,0.4,0,0.5
				c0,0.1,0,0.3-0.1,0.5c0,0.2-0.1,0.3-0.1,0.5c0,0.2-0.1,0.3-0.1,0.4c0,0.1,0,0.2,0,0.2c0,0,0,0-0.1,0.1c0,0.1-0.1,0.2-0.1,0.3
				c0,0.1-0.1,0.2-0.1,0.4c0,0,0,0-0.1,0.1c0,0.1-0.1,0.1-0.1,0.2c0,0.1,0,0.2-0.1,0.2c0,0.1,0,0.1,0,0.1c0,0,0,0-0.1,0.1
				c0,0.1-0.1,0.1-0.1,0.2c0,0.1-0.1,0.1-0.1,0.2c0,0.1,0,0.1-0.1,0.1c0,0.1-0.1,0.1-0.1,0.2c0,0.1-0.1,0.1-0.1,0.2
				c0,0-0.1,0.1-0.1,0.1c0,0-0.1,0.1-0.1,0.1c0,0,0,0,0,0c0,0-0.1,0.1-0.1,0.1c0,0,0,0-0.1,0.1c0,0,0,0-0.1,0.1c0,0-0.1,0-0.1,0.1
				c0,0,0,0-0.1,0.1c-0.1,0.1-0.2,0.1-0.2,0.1c0,0-0.1,0-0.1,0c0,0-0.1,0-0.2,0c-0.1,0-0.2,0-0.3,0c-0.1,0-0.1,0-0.2,0
				c-0.1,0-0.2,0-0.3-0.1c-0.1,0-0.2,0-0.2-0.1c-0.1,0-0.1,0-0.1,0c0,0-0.1-0.1-0.1-0.1c0,0,0,0-0.1,0c0,0,0,0,0,0
				c0,0,0-0.1-0.1-0.1c0,0,0,0,0,0c0,0,0,0,0-0.1c0,0,0-0.1-0.1-0.1c0,0,0,0,0,0c0,0-0.1-0.1-0.1-0.1c0-0.1-0.1-0.1-0.1-0.2
				c0-0.1,0-0.1-0.1-0.2c0,0,0-0.1,0-0.1c0,0,0,0,0,0c0,0,0,0,0-0.1c0,0,0-0.1,0-0.2c0-0.1,0-0.2,0-0.3c0,0,0,0,0-0.1
				c0-0.1,0-0.1,0-0.2c0-0.1,0-0.2,0-0.2c0-0.1,0-0.1,0-0.1c0,0,0-0.1,0-0.2c0-0.1,0-0.2,0-0.3c0-0.1,0-0.2,0-0.4c0-0.1,0-0.2,0-0.3
				c0-0.1,0-0.1,0-0.1c0,0,0,0,0,0c0,0,0-0.1,0-0.1c0,0,0-0.1,0-0.1c0,0,0-0.1,0.1-0.2c0-0.2,0.1-0.4,0.1-0.6c0-0.3,0.1-0.6,0.1-0.9
				c0-0.1,0.1-0.3,0.1-0.4c0-0.1,0.1-0.2,0.1-0.4c0,0,0-0.1,0.1-0.2c0-0.1,0.1-0.2,0.1-0.3c0-0.1,0.1-0.3,0.1-0.5c0,0,0,0,0-0.1
				c0-0.1,0-0.1,0.1-0.2c0-0.1,0.1-0.2,0.1-0.3c0-0.1,0.1-0.1,0.1-0.1c0-0.1,0.1-0.2,0.1-0.2c0.1-0.1,0.1-0.2,0.1-0.2
				c0,0,0.1-0.1,0.1-0.2c0,0,0.1-0.1,0.1-0.1c0,0,0-0.1,0.1-0.1c0,0,0.1-0.1,0.1-0.1c0,0,0,0,0-0.1c0,0,0,0,0,0c0,0,0.1-0.1,0.1-0.1
				c0,0,0.1-0.1,0.1-0.1c0,0,0.1,0,0.1,0c0,0,0.1-0.1,0.1-0.1c0.1,0,0.1,0,0.2-0.1c0,0,0,0,0.1,0C29.5,72.6,29.6,72.5,29.7,72.5z
				 M30.5,73.3c0-0.1-0.1-0.2-0.1-0.3c-0.1-0.1-0.1-0.2-0.2-0.2c-0.1,0-0.2-0.1-0.3-0.1c-0.1,0-0.2,0-0.2,0.1c0,0-0.1,0-0.1,0.1
				c0,0-0.1,0.1-0.1,0.1c0,0.1-0.1,0.1-0.1,0.1c0,0,0,0,0,0c0,0,0,0.1-0.1,0.2c0,0.1-0.1,0.2-0.1,0.4c0,0,0,0.1,0,0.1
				c0,0,0,0.1-0.1,0.1c0,0.1-0.1,0.2-0.1,0.3c0,0.1-0.1,0.2-0.1,0.3c0,0.1,0,0.1-0.1,0.1c0,0.1-0.1,0.2-0.1,0.3c0,0.1,0,0.1-0.1,0.2
				c0,0.1,0,0.1-0.1,0.2c0,0,0,0.1,0,0.1c0,0,0,0.1,0,0.1c0,0,0,0.1-0.1,0.3c0,0.2-0.1,0.4-0.1,0.7s-0.1,0.6-0.1,0.9
				c0,0.3-0.1,0.6-0.1,0.8c-0.1,0.4-0.1,0.8-0.1,1.1c0,0.3,0,0.5,0,0.8c0,0.2,0,0.2,0,0.2c0,0,0,0,0,0.1c0,0,0,0.1,0,0.1
				c0,0.1,0,0.1,0,0.2c0,0.1,0,0.1,0,0.2c0,0.1,0,0.1,0,0.1c0,0,0,0.1,0.1,0.2c0,0.1,0,0.2,0.1,0.2c0,0,0.1,0.1,0.1,0.2
				c0,0,0,0.1,0,0.1c0,0,0,0,0,0c0,0,0.1,0,0.1,0c0.1,0.1,0.2,0.1,0.3,0.1c0.1,0,0.2,0,0.3,0c0,0,0.1,0,0.1-0.1c0,0,0,0,0.1,0
				c0.1,0,0.1-0.1,0.1-0.1c0,0,0,0,0.1,0c0,0,0,0,0.1-0.1c0,0,0-0.1,0.1-0.1c0,0,0-0.1,0-0.1c0,0,0,0,0,0c0,0,0,0,0,0
				c0,0,0-0.1,0.1-0.1c0,0,0-0.1,0.1-0.1c0,0,0-0.1,0-0.1c0,0,0,0,0,0c0,0,0,0,0,0c0.1-0.1,0.1-0.3,0.1-0.4c0-0.1,0.1-0.2,0.1-0.2
				c0-0.1,0-0.1,0.1-0.1c0-0.1,0.1-0.2,0.1-0.3c0-0.1,0-0.2,0.1-0.3c0-0.1,0-0.2,0.1-0.3c0-0.1,0-0.2,0.1-0.2c0-0.2,0.1-0.3,0.1-0.5
				c0-0.2,0.1-0.4,0.1-0.5c0-0.2,0.1-0.5,0.1-0.8c0-0.3,0.1-0.5,0.1-0.7c0-0.2,0-0.4,0.1-0.5c0-0.1,0-0.2,0-0.3c0-0.1,0-0.2,0-0.3
				c0-0.1,0-0.2,0-0.2c0-0.1,0-0.1,0-0.1c0-0.1,0-0.1,0-0.2c0-0.1,0-0.2,0-0.3c0-0.1,0-0.2,0-0.3c0-0.1,0-0.2,0-0.3c0,0,0-0.1,0-0.2
				c0-0.1,0-0.2,0-0.4C30.5,73.4,30.5,73.3,30.5,73.3C30.5,73.3,30.5,73.3,30.5,73.3z"/>
			<path class="st1" d="M35.6,73.1c0.1,0,0.1,0,0.1,0c0.1,0,0.2,0,0.2,0c0.1,0,0.1,0,0.2,0c0,0,0,0,0,0.1c0,0,0.1,0,0.2,0.1
				c0.1,0,0.1,0.1,0.1,0.1c0,0,0,0.1,0.1,0.1c0,0,0,0,0,0c0,0,0,0,0,0c0,0,0.1,0.1,0.1,0.1c0,0,0,0,0,0c0,0,0,0,0,0c0,0,0,0.1,0,0.1
				c0,0,0,0,0,0.1c0,0,0,0.1,0,0.1c0,0.1,0.1,0.1,0.1,0.2c0,0,0,0,0,0.1c0,0.1,0,0.1,0.1,0.2c0,0.1,0,0.1,0,0.1c0,0,0,0.1,0,0.1
				c0,0,0,0,0,0.1c0,0.1,0,0.1,0,0.2c0,0.1,0,0.1,0,0.2c0,0.1,0,0.1,0,0.1c0,0,0,0,0,0.1c0,0,0,0.1,0,0.2c0,0.1,0,0.1,0,0.2
				c0,0.1,0,0.1,0,0.2c0,0,0,0.1,0,0.1c0,0,0,0.1,0,0.3c0,0.2,0,0.3,0,0.6c0,0.2,0,0.4,0,0.6c0,0.2,0,0.4,0,0.5c0,0.1,0,0.3-0.1,0.5
				c0,0.2-0.1,0.3-0.1,0.5c0,0.2,0,0.3-0.1,0.4c0,0.1,0,0.2,0,0.2c0,0,0,0-0.1,0.1c0,0.1,0,0.2-0.1,0.3c0,0.1-0.1,0.2-0.1,0.4
				c0,0,0,0-0.1,0.1c0,0.1,0,0.1-0.1,0.2c0,0.1,0,0.2-0.1,0.2c0,0.1,0,0.1,0,0.1c0,0,0,0-0.1,0.1c0,0.1,0,0.1-0.1,0.2
				c0,0.1-0.1,0.1-0.1,0.2c0,0.1,0,0.1-0.1,0.1c0,0.1-0.1,0.1-0.1,0.2c0,0.1-0.1,0.1-0.1,0.2c0,0-0.1,0.1-0.1,0.1
				c0,0-0.1,0.1-0.1,0.1c0,0,0,0,0,0c0,0-0.1,0.1-0.1,0.1c0,0,0,0-0.1,0.1c0,0,0,0-0.1,0.1c0,0-0.1,0-0.1,0.1c0,0,0,0-0.1,0.1
				c-0.1,0.1-0.2,0.1-0.2,0.1c0,0-0.1,0-0.1,0c0,0-0.1,0-0.2,0c-0.1,0-0.2,0-0.3,0c-0.1,0-0.1,0-0.2,0c-0.1,0-0.2,0-0.3,0
				c-0.1,0-0.2,0-0.2,0c-0.1,0-0.1,0-0.1,0c0,0-0.1-0.1-0.1-0.1c0,0,0,0-0.1,0c0,0,0,0,0,0c0,0,0-0.1-0.1-0.1c0,0,0,0,0,0
				c0,0,0,0,0-0.1c0,0,0-0.1-0.1-0.1c0,0,0,0,0,0c0,0-0.1-0.1-0.1-0.1c0-0.1-0.1-0.1-0.1-0.2c0-0.1,0-0.1-0.1-0.2c0,0,0-0.1-0.1-0.1
				c0,0,0,0,0,0c0,0,0,0,0-0.1c0,0,0-0.1,0-0.2c0-0.1-0.1-0.2-0.1-0.3c0,0,0,0,0-0.1c0-0.1,0-0.1,0-0.2c0-0.1,0-0.2,0-0.2
				c0-0.1,0-0.1,0-0.1c0,0,0-0.1,0-0.2c0-0.1,0-0.2,0-0.3c0-0.1,0-0.2,0-0.4c0-0.1,0-0.2,0-0.3c0-0.1,0-0.1,0-0.1c0,0,0,0,0,0
				c0,0,0-0.1,0-0.1c0,0,0-0.1,0-0.1c0,0,0-0.1,0.1-0.2c0-0.2,0-0.4,0.1-0.6c0-0.3,0.1-0.6,0.1-0.9c0-0.1,0.1-0.3,0.1-0.4
				c0-0.1,0.1-0.2,0.1-0.4c0,0,0-0.1,0.1-0.2c0-0.1,0.1-0.2,0.1-0.3c0-0.1,0.1-0.3,0.1-0.5c0,0,0,0,0-0.1c0-0.1,0-0.1,0.1-0.2
				c0-0.1,0.1-0.2,0.1-0.3c0-0.1,0.1-0.1,0.1-0.1c0-0.1,0.1-0.2,0.1-0.2c0.1-0.1,0.1-0.2,0.1-0.2c0,0,0.1-0.1,0.1-0.2
				c0,0,0.1-0.1,0.1-0.1c0,0,0-0.1,0.1-0.1c0,0,0.1-0.1,0.1-0.1c0,0,0,0,0-0.1c0,0,0,0,0,0c0,0,0.1-0.1,0.1-0.1c0,0,0.1-0.1,0.1-0.1
				c0,0,0.1,0,0.1,0c0,0,0.1-0.1,0.1-0.1c0.1,0,0.1-0.1,0.2-0.1c0,0,0,0,0.1,0C35.3,73.2,35.5,73.1,35.6,73.1z M36.3,73.9
				c0-0.1-0.1-0.2-0.1-0.3c-0.1-0.1-0.1-0.2-0.2-0.2c-0.1,0-0.2-0.1-0.3-0.1c-0.1,0-0.2,0-0.2,0.1c0,0-0.1,0-0.1,0.1
				c0,0-0.1,0.1-0.1,0.1c0,0.1-0.1,0.1-0.1,0.1c0,0,0,0,0,0c0,0,0,0.1-0.1,0.2c0,0.1-0.1,0.2-0.1,0.4c0,0,0,0.1,0,0.1
				c0,0,0,0.1-0.1,0.1c0,0.1-0.1,0.2-0.1,0.3c0,0.1-0.1,0.2-0.1,0.3c0,0.1,0,0.1-0.1,0.1c0,0.1-0.1,0.2-0.1,0.3c0,0.1,0,0.1-0.1,0.2
				c0,0.1,0,0.1,0,0.2c0,0,0,0.1,0,0.1c0,0,0,0.1,0,0.1c0,0,0,0.1-0.1,0.3c0,0.2-0.1,0.4-0.1,0.7c0,0.3-0.1,0.6-0.1,0.9
				c0,0.3-0.1,0.6-0.1,0.8c-0.1,0.4-0.1,0.8-0.1,1.1c0,0.3,0,0.5,0,0.8c0,0.2,0,0.2,0.1,0.2c0,0,0,0,0,0.1c0,0,0,0.1,0,0.1
				c0,0.1,0,0.1,0,0.2c0,0.1,0,0.1,0,0.2c0,0.1,0,0.1,0,0.1c0,0,0,0.1,0.1,0.2c0,0.1,0,0.2,0.1,0.2c0,0,0.1,0.1,0.1,0.2
				c0,0,0,0.1,0,0.1c0,0,0,0,0,0c0,0,0.1,0,0.1,0c0.1,0.1,0.2,0.1,0.3,0.1c0.1,0,0.2,0,0.3,0c0,0,0.1,0,0.1-0.1c0,0,0,0,0.1,0
				c0.1,0,0.1-0.1,0.1-0.1c0,0,0,0,0.1,0c0,0,0,0,0.1-0.1c0,0,0-0.1,0.1-0.1c0,0,0-0.1,0-0.1c0,0,0,0,0,0c0,0,0,0,0,0
				c0,0,0-0.1,0.1-0.1c0,0,0-0.1,0.1-0.1c0,0,0-0.1,0-0.1c0,0,0,0,0,0c0,0,0,0,0,0c0-0.1,0.1-0.3,0.1-0.4c0-0.1,0.1-0.2,0.1-0.2
				c0-0.1,0-0.1,0.1-0.1c0-0.1,0.1-0.2,0.1-0.3c0-0.1,0-0.2,0.1-0.3c0-0.1,0-0.2,0.1-0.3c0-0.1,0-0.2,0.1-0.2c0-0.2,0.1-0.3,0.1-0.5
				c0-0.2,0.1-0.4,0.1-0.5c0-0.2,0.1-0.5,0.1-0.8c0-0.3,0-0.5,0.1-0.7c0-0.2,0-0.4,0-0.5c0-0.1,0-0.2,0-0.3c0-0.1,0-0.2,0-0.3
				c0-0.1,0-0.2,0-0.2c0-0.1,0-0.1,0-0.1c0-0.1,0-0.1,0-0.2c0-0.1,0-0.2,0-0.3c0-0.1,0-0.2,0-0.3c0-0.1,0-0.2,0-0.3c0,0,0-0.1,0-0.2
				c0-0.1,0-0.2-0.1-0.4C36.4,74,36.4,73.9,36.3,73.9C36.3,73.9,36.3,73.9,36.3,73.9z"/>
			<path class="st1" d="M40.7,77.7c0,0-0.1,0.1-0.2,0.2c-0.1,0.1-0.2,0.2-0.3,0.2c-0.1,0.1-0.2,0.1-0.3,0.1c-0.1,0-0.2-0.1-0.3-0.2
				c-0.1-0.1-0.2-0.2-0.2-0.3c-0.1-0.1-0.1-0.3-0.1-0.4c0-0.1,0.1-0.2,0.2-0.3c0.1-0.1,0.2-0.1,0.4-0.1c0.2,0,0.3,0.1,0.5,0.2
				c0.2,0.1,0.2,0.2,0.3,0.3C40.7,77.5,40.7,77.6,40.7,77.7z M39.5,83.4c0.1-0.3,0.2-0.5,0.3-0.7c0.1-0.2,0.1-0.3,0.1-0.5
				c0.2-0.4,0.5-0.8,0.6-1.1c0.2-0.4,0.4-0.9,0.7-1.5c0-0.1,0.1-0.2,0.1-0.2c0,0,0-0.1,0-0.1c0,0,0.1-0.1,0.1-0.1
				c0.1-0.2,0.2-0.3,0.2-0.3c0.1-0.2,0.2-0.5,0.5-0.9c0.1-0.1,0.1-0.2,0.2-0.3c0-0.2,0-0.3,0-0.4c0-0.1,0.1-0.1,0.1-0.1
				c0.1,0,0.1-0.1,0.2-0.1c0,0,0.1,0,0.2,0c0.1,0,0.1,0,0.2,0c0,0.1,0,0.1,0,0.2c0,0.1-0.1,0.2-0.1,0.4c0,0.1-0.1,0.1-0.1,0.2
				c0,0.1,0,0.1,0,0.2c0,0.1-0.1,0.1-0.1,0.2c-0.2,0.6-0.5,1.1-0.6,1.5c-0.2,0.4-0.4,0.7-0.6,1.1c-0.2,0.5-0.3,0.9-0.5,1.3
				c-0.2,0.4-0.5,1-0.8,1.7c-0.1,0.2-0.2,0.5-0.3,0.7c0,0,0,0-0.1,0c0,0-0.1,0-0.1,0.1c-0.1,0-0.1,0-0.2,0c0,0,0,0-0.1-0.1
				c-0.1,0-0.1-0.1-0.1-0.1c0-0.1-0.1-0.1-0.1-0.1c0-0.1,0-0.1,0.1-0.2c0.1-0.1,0.1-0.2,0.1-0.2C39.3,83.8,39.3,83.6,39.5,83.4z
				 M42.2,84.7c0,0-0.1,0-0.1,0c-0.1,0-0.2-0.1-0.3-0.1c-0.1-0.1-0.2-0.2-0.2-0.3c-0.1-0.1-0.1-0.2-0.1-0.3c0-0.1,0.1-0.2,0.1-0.2
				c0.1-0.1,0.2-0.1,0.3-0.1c0.1,0,0.2,0,0.4,0c0,0,0.1,0,0.2,0.1c0.1,0.1,0.2,0.1,0.2,0.2c0.1,0.1,0.1,0.2,0.1,0.3c0,0,0,0.1,0,0.1
				C42.7,84.4,42.6,84.6,42.2,84.7z"/>
			<path class="st1" d="M52.9,74.1C52.9,74.1,52.8,74,52.9,74.1C52.8,74,52.8,74,52.9,74.1c-0.1-0.1-0.1-0.1-0.1-0.1
				c0.1,0,0.3,0,0.4,0c0.2,0,0.5,0,0.7,0c0,0.1,0,0.1,0,0.1c-0.1,0-0.2,0.1-0.3,0.1c0,0.1,0,0.2,0,0.3c0,0.2,0,0.3,0,0.5
				c0,0.2,0,0.4,0,0.6c0,0,0,0.1,0,0.2c0,0.1,0,0.2,0,0.4c0,0.1,0,0.3,0,0.6c0,0.2,0,0.4,0,0.6c0,0.2,0,0.4,0,0.6c0,0.2,0,0.5,0,0.6
				c0,0.4,0,0.7-0.1,0.7c0,0,0,0,0,0c0,0,0,0,0,0c0,0,0,0,0,0c0,0.1,0,0.2,0,0.3c0,0.2,0,0.4,0,0.7c0,0.3,0,0.5-0.1,0.7
				c0,0.2,0,0.4-0.1,0.6c0,0.2,0,0.3,0,0.3c0,0.2,0,0.3,0,0.4c0,0.1,0,0.2,0,0.3c0,0.1,0,0.2,0,0.3c0,0.1,0,0.1,0,0.2
				c0,0.1,0,0.2,0,0.2c0,0.1,0,0.1,0,0.2c0,0.1,0,0.1,0,0.1c0,0,0,0.1,0,0.1c0,0,0,0.1,0,0.1c0,0,0,0-0.1,0c0,0,0,0,0,0c0,0,0,0,0,0
				c0,0,0,0-0.1,0c0,0-0.1,0-0.1-0.1c-0.1,0-0.1-0.1-0.1-0.1c0,0-0.1,0-0.1-0.1c0,0,0,0-0.1-0.1c0-0.1,0-0.1-0.1-0.1
				C52,83,52,83,52,82.9c0-0.1,0-0.2-0.1-0.2c0,0,0-0.1-0.1-0.3c0-0.1,0-0.1-0.1-0.2c0-0.1,0-0.1,0-0.1c0-0.1,0-0.2-0.1-0.2
				c0-0.1,0-0.1-0.1-0.2c0,0,0-0.1,0-0.1c0-0.1,0-0.2-0.1-0.2c0-0.1,0-0.2-0.1-0.2c0-0.1-0.1-0.2-0.1-0.2c0-0.1,0-0.1-0.1-0.2
				c0-0.1,0-0.1,0-0.1c0,0,0-0.2-0.1-0.4c0,0,0-0.1,0-0.2c0,0,0,0,0-0.1c0-0.1,0-0.2,0-0.2c0-0.1,0-0.1,0-0.2c0-0.1,0-0.1,0-0.1
				c0,0,0,0,0-0.1c0-0.1,0-0.1,0-0.2c0-0.1,0-0.1,0-0.2c0-0.1,0-0.1,0-0.1c0,0,0-0.1-0.1-0.2c0-0.1-0.1-0.3-0.1-0.3c0,0,0-0.1,0-0.1
				c0-0.1,0-0.3-0.1-0.4c0-0.1,0-0.2-0.1-0.3c0-0.1,0-0.1,0-0.1c0-0.2,0-0.3-0.1-0.5c0-0.1,0-0.2,0-0.3c0-0.1,0-0.1,0-0.1
				c0,0,0,0,0-0.1c0-0.1,0-0.2,0-0.3c0-0.1,0-0.2,0-0.2c0-0.1,0-0.1,0-0.1c0,0,0,0,0-0.1c0,0,0,0,0-0.1c0,0,0,0,0,0.1
				c0,0.1,0,0.3,0,0.7c0,0.2,0,0.4,0,0.7c0,0.3,0,0.5,0,0.8c0,0.3,0,0.6,0,0.9c0,0,0,0,0,0c0,0,0,0,0,0c0,0.4,0,0.8,0,1.2
				c0,0.8,0,1.2-0.1,1.2c0,0,0,0.1,0,0.2c0,0.1,0,0.3,0,0.4c0,0.2,0,0.3,0,0.5c0,0.1,0,0.2,0,0.3c0,0.1,0,0.2,0,0.2c0,0,0,0,0,0.1
				c0,0,0,0,0,0.1c0,0,0,0,0,0.1c0,0,0,0,0,0c0,0,0.1,0,0.1,0.1c0.1,0,0.1,0.1,0.2,0.1c0.1,0.1,0.2,0.1,0.2,0.2
				c0,0.1-0.1,0.1-0.3,0.1c0,0-0.1,0-0.2,0c-0.1,0-0.3,0-0.4,0c-0.2,0-0.3,0-0.4,0c-0.1,0-0.1,0-0.1,0c0,0,0,0,0,0c0,0,0,0,0.1,0
				c0,0,0,0,0.1,0c0,0,0,0,0.1,0c0,0,0,0,0,0c0,0,0,0,0.1,0c0,0,0,0,0.1-0.1c0,0,0,0,0,0c0,0,0.1-0.1,0.1-0.2c0-0.1,0-0.2,0-0.2
				c0,0,0-0.1,0-0.1c0,0,0-0.1,0-0.2c0-0.1,0-0.3,0-0.5c0-0.2,0-0.4,0-0.6c0-0.2,0-0.4,0-0.5c0-0.1,0-0.3,0-0.6c0-0.3,0-0.5,0-0.8
				c0-0.3,0-0.6,0-0.7c0-0.1,0-0.2,0-0.2c0,0,0,0,0-0.1c0,0,0-0.1,0-0.1c0,0,0,0,0,0c0,0,0,0,0-0.1c0-0.1,0-0.1,0-0.2
				c0-0.1,0-0.2,0-0.2c0-0.1,0-0.1,0-0.1c0,0,0,0,0,0c0,0,0,0,0-0.1c0,0,0,0,0,0c0,0,0-0.1,0-0.2c0-0.1,0-0.2,0-0.2c0,0,0-0.1,0-0.3
				c0-0.2,0-0.4,0-0.7c0-0.5,0-0.8,0-1.1c0-0.3,0-0.4,0-0.5c0,0,0-0.1,0-0.1c0,0,0-0.1,0-0.1c0,0,0,0-0.1,0c0,0-0.1,0-0.1,0
				c0,0-0.1,0-0.1,0c-0.1,0-0.1-0.1,0-0.1c0,0,0.1,0,0.2,0c0.1,0,0.2,0,0.4,0c0.1,0,0.3,0,0.4,0c0.1,0,0.2,0,0.2,0
				c0.2,0.1,0.1,0.1-0.1,0.1c-0.1,0-0.1,0-0.2,0c0,0,0,0.1,0,0.1c0,0.1,0,0.1,0,0.3c0,0.1,0,0.2,0.1,0.2c0,0,0,0,0,0.1
				c0,0,0,0.1,0,0.1c0,0,0,0.1,0.1,0.2c0,0,0,0.1,0.1,0.3c0,0.1,0,0.1,0,0.2c0,0.1,0,0.1,0,0.1c0,0,0,0.1,0.1,0.2
				c0,0.1,0.1,0.2,0.1,0.2c0,0,0,0,0,0.1c0,0.1,0,0.1,0,0.2c0,0.1,0,0.1,0,0.2c0,0.1,0,0.1,0,0.1c0,0,0,0,0,0.1c0,0,0,0,0,0
				c0,0.1,0,0.2,0.1,0.3c0,0.1,0,0.2,0,0.2c0,0,0,0,0,0.1c0,0.1,0,0.2,0.1,0.4c0,0.1,0.1,0.2,0.1,0.2c0,0,0,0,0,0c0,0,0,0.1,0,0.1
				c0,0,0,0.1,0,0.1c0,0.1,0,0.1,0.1,0.2c0,0,0,0,0,0.1c0,0.1,0,0.1,0.1,0.2c0,0.1,0,0.1,0.1,0.2c0,0,0,0.1,0,0.1c0,0,0,0,0,0.1
				c0,0,0,0.1,0.1,0.2c0,0.1,0,0.2,0.1,0.2c0,0,0,0,0,0.1c0,0.1,0,0.1,0,0.2c0,0.1,0,0.1,0,0.2c0,0.1,0,0.1,0,0.1c0,0,0,0,0,0.1
				c0,0,0,0,0,0c0,0,0,0,0,0.1c0,0,0,0.1,0,0.1c0,0.1,0.1,0.2,0.1,0.2c0,0,0,0,0,0.1c0,0.1,0,0.1,0,0.2c0,0.1,0,0.1,0,0.2
				c0,0.1,0,0.1,0,0.1c0,0,0,0.1,0,0.1c0,0,0,0,0,0.1c0,0,0,0.1,0,0.1c0,0.2,0.1,0.4,0.1,0.4c0,0.1,0,0.1,0,0.1c0,0.1,0,0.1,0,0.1
				c0,0.2,0.1,0.2,0.1,0c0-0.1,0-0.1,0-0.2c0-0.1,0-0.2,0-0.4c0-0.1,0-0.3,0-0.6c0-0.3,0-0.6,0.1-1c0-0.2,0-0.4,0-0.6
				c0-0.2,0-0.4,0.1-0.5c0-0.1,0-0.3,0-0.4c0-0.1,0-0.3,0-0.3c0-0.1,0-0.2,0-0.4c0-0.2,0-0.4,0-0.6c0-0.2,0-0.4,0-0.7
				c0-0.2,0-0.4,0-0.6c0-0.1,0-0.2,0-0.3c0-0.1,0-0.1,0-0.1c0-0.1,0-0.3,0-0.4c0-0.2,0-0.4,0-0.4c0,0,0,0,0,0c0,0,0-0.1,0-0.2
				c0-0.1,0-0.1-0.1-0.1c0,0,0,0,0,0C53,74.2,53,74.2,52.9,74.1C52.9,74.2,52.9,74.1,52.9,74.1C52.9,74.1,52.9,74.1,52.9,74.1z"/>
			<path class="st1" d="M58.1,74.2C58.1,74.2,58.1,74.2,58.1,74.2c0.1,0,0.2,0,0.3,0c0.1,0,0.1,0,0.2,0.1c0.1,0.1,0.1,0.2,0.1,0.4
				c0,0,0,0.1,0,0.2c0,0.1,0,0.2,0,0.3c0,0.1,0,0.2,0,0.2c0,0.1,0,0.1,0,0.1c0,0,0,0.1,0,0.1c0,0.1,0,0.2,0,0.3
				c0,0.1,0.1,0.2,0.1,0.4c0,0,0,0,0,0.1c0,0.1,0,0.1,0,0.2c0,0.1,0,0.2,0,0.2c0,0.1,0,0.1,0,0.2c0,0,0,0.1,0,0.1c0,0,0,0,0,0.1
				c0,0.1,0,0.2,0.1,0.3c0,0.1,0,0.2,0,0.3c0,0.1,0,0.1,0,0.2c0,0.1,0,0.2,0.1,0.3c0,0.2,0.1,0.4,0.1,0.5c0,0.1,0,0.1,0,0.1
				c0,0,0,0,0,0.1c0,0.1,0,0.1,0,0.2c0,0.1,0.1,0.2,0.1,0.3c0,0,0,0.1,0,0.1c0,0.1,0,0.2,0.1,0.3c0,0.1,0,0.2,0.1,0.3
				c0,0.1,0,0.2,0,0.2c0,0,0,0,0,0.1c0,0,0,0,0,0c0,0,0,0.1,0,0.1c0,0.1,0,0.1,0,0.2c0,0.1,0,0.1,0,0.1c0,0.1,0,0.1,0.1,0.1
				c0,0,0,0.1,0,0.1c0,0,0,0.1,0.1,0.2c0,0.1,0.1,0.4,0.1,0.7c0,0.2,0,0.2,0.1,0.3c0,0,0,0,0,0.1c0,0.1,0,0.1,0.1,0.2
				c0,0.1,0.1,0.2,0.1,0.2c0,0,0,0,0.1,0.1c0,0,0,0.1,0.1,0.1c0,0,0.1,0.1,0.1,0.1c0.1,0,0.1,0,0.1,0.1c0,0,0,0,0,0c0,0,0,0-0.1,0.1
				c0,0,0,0-0.1,0c-0.1,0-0.2,0-0.5,0c-0.1,0-0.3,0-0.4,0c-0.2,0-0.3,0-0.3,0c-0.1,0-0.1,0-0.2,0c0,0,0-0.1,0-0.1
				c0-0.1,0-0.1,0.1-0.1c0,0,0,0,0.1,0c0,0,0,0,0.1-0.1c0,0,0-0.1,0.1-0.1c0-0.1,0-0.1,0-0.2c0-0.1,0-0.4-0.1-0.7c0,0,0-0.1-0.1-0.2
				c0-0.1-0.1-0.3-0.1-0.4c0,0,0,0,0-0.1c0,0,0,0,0-0.1c0-0.1,0-0.1-0.1-0.2c0-0.1,0-0.2-0.1-0.2c0,0-0.1,0-0.1,0c0,0-0.1,0-0.3,0
				c-0.1,0-0.3,0-0.4,0c-0.2,0-0.3,0-0.4,0c-0.1,0-0.2,0-0.2,0c0,0,0,0-0.1,0c0,0-0.1,0-0.1,0c-0.1,0-0.1,0-0.2,0
				c-0.1,0-0.1,0-0.2,0c-0.1,0-0.1,0-0.2,0c0,0,0,0.1-0.1,0.1c0,0,0,0.1,0,0.1c0,0,0,0.1,0,0.1c0,0,0,0,0,0c0,0,0,0,0,0
				c0,0-0.1,0.1-0.1,0.2c0,0.2,0,0.3-0.1,0.4c0,0.1,0,0.1,0,0.1c0,0,0,0.1,0,0c0,0,0,0,0,0.1c0,0.1,0,0.1,0,0.2c0,0.1,0,0.2,0,0.3
				c0,0.1,0,0.2,0,0.2c0,0.1,0,0.3,0,0.3c0,0.1,0,0.1,0,0.1c0,0,0,0,0,0c0,0,0,0,0,0c0,0,0,0.1,0.1,0.1c0,0,0,0.1,0,0.1
				c0,0-0.1,0.1-0.1,0.1c-0.1,0-0.2,0-0.5,0c-0.1,0-0.2,0-0.4,0c0,0,0,0,0-0.1c0,0,0-0.1,0-0.1c0.1,0,0.1-0.1,0.2-0.2
				c0.1-0.1,0.1-0.1,0.2-0.1c0,0,0.1-0.1,0.1-0.1c0-0.1,0.1-0.1,0.1-0.2c0,0,0,0,0,0c0,0,0,0,0,0c0,0,0-0.1,0.1-0.3
				c0-0.2,0.1-0.4,0.1-0.5c0-0.1,0-0.1,0-0.2c0,0,0-0.1,0-0.1c0-0.1,0-0.2,0.1-0.3c0-0.1,0-0.3,0.1-0.4c0,0,0-0.1,0-0.1
				c0-0.1,0-0.1,0-0.2c0-0.1,0-0.2,0.1-0.2c0-0.1,0-0.1,0-0.1c0,0,0,0,0-0.1c0,0,0-0.1,0-0.1c0-0.1,0-0.2,0.1-0.3
				c0-0.1,0-0.2,0.1-0.2c0-0.1,0-0.1,0-0.1c0,0,0-0.1,0-0.2c0-0.1,0-0.1,0-0.2c0-0.1,0-0.1,0-0.1c0-0.1,0-0.1,0-0.1c0,0,0-0.1,0-0.1
				c0,0,0,0,0,0c0,0,0-0.1,0-0.1c0,0,0-0.1,0-0.2c0-0.1,0-0.2,0-0.2c0-0.1,0-0.1,0-0.2c0-0.1,0-0.1,0-0.1c0-0.1,0.1-0.3,0.1-0.4
				c0-0.1,0-0.2,0-0.3c0-0.1,0-0.1,0-0.1c0-0.2,0.1-0.3,0.1-0.4c0-0.1,0-0.2,0.1-0.3c0-0.1,0-0.1,0-0.1c0,0,0-0.1,0-0.2
				c0,0,0-0.1,0-0.1c0,0,0-0.1,0-0.1c0,0,0-0.1,0-0.1c0,0,0-0.1,0-0.1c0,0,0-0.1,0-0.1c0,0,0,0,0-0.1c0-0.1,0-0.1,0.1-0.2
				c0-0.1,0-0.1,0.1-0.2c0-0.1,0-0.1,0.1-0.1c0,0,0,0,0-0.1c0,0,0-0.1,0-0.1c0,0,0,0-0.1,0c0,0,0,0,0-0.1c0,0,0.1-0.1,0.2-0.1
				C58,74.3,58.1,74.2,58.1,74.2z M57.9,75.2c0,0,0-0.1,0-0.1c0,0,0,0,0-0.1c0,0,0,0,0,0.1c0,0,0,0.1,0,0.1c0,0,0,0-0.1,0.1
				c0,0.1,0,0.2-0.1,0.2c0,0.3-0.1,0.5-0.1,0.6c0,0.1,0,0.1,0,0.1c0,0,0,0.1,0,0.1c0,0.1,0,0.1-0.1,0.2c0,0.1,0,0.2-0.1,0.3
				c0,0,0,0.1,0,0.1c0,0.1,0,0.2-0.1,0.3c0,0.1,0,0.2-0.1,0.4c0,0,0,0.1,0,0.1c0,0.1,0,0.1,0,0.2c0,0.1,0,0.2-0.1,0.2
				c0,0.1,0,0.1,0,0.1c0,0,0,0,0,0.1c0,0.1,0,0.2-0.1,0.3c0,0.1-0.1,0.2-0.1,0.4c0,0,0,0.1,0,0.1c0,0.1,0,0.2-0.1,0.3
				c0,0.1,0,0.2,0,0.2c0,0.1,0,0.1,0,0.1c0,0,0,0.1,0,0.2c0,0,0,0.1,0,0.1c0,0,0,0.1,0,0.1c0,0,0,0.1,0,0.1c0.1,0,0.1,0,0.2,0
				c0.1,0,0.1,0,0.3,0c0.1,0,0.3,0,0.4,0c0.1,0,0.3,0,0.4,0c0.1,0,0.2,0,0.3,0c0.1,0,0.1,0,0.1,0.1c0,0,0.1,0,0.2,0c0,0,0,0,0.1-0.1
				c0,0,0.1,0,0.1,0c0,0,0-0.1,0-0.1c0-0.1,0-0.1,0-0.2c0-0.1,0-0.2,0-0.3c0-0.1,0-0.2,0-0.3c0-0.1,0-0.1,0-0.1
				c0-0.2-0.1-0.5-0.1-0.7c0-0.1,0-0.1,0-0.2c0,0,0-0.1,0-0.2c0-0.1,0-0.2-0.1-0.4c0-0.1-0.1-0.3-0.1-0.5c0,0,0-0.1,0-0.2
				c0-0.1,0-0.2-0.1-0.4c0-0.2,0-0.3,0-0.4c0-0.1,0-0.2,0-0.2c0,0,0,0,0-0.1c0,0,0-0.1,0-0.2c0-0.1,0-0.2,0-0.4c0-0.1,0-0.2-0.1-0.3
				C57.9,75.2,57.9,75.2,57.9,75.2z"/>
			<path class="st1" d="M63.9,74.5c0.3,0,0.5,0,0.7,0c0.2,0,0.4,0,0.5,0c0.1,0,0.2,0,0.3,0c0.1,0,0.1,0,0.1,0c0,0,0.1,0,0.1,0
				c0,0,0.1,0,0.1,0c0,0,0,0,0,0.1c0,0,0,0.1,0.1,0.1c0,0,0.1,0.1,0.1,0.2c0,0.1,0,0.2,0,0.3c0,0.2,0,0.2-0.1,0.1c0,0-0.1,0-0.1-0.1
				c0,0-0.1-0.1-0.1-0.1c0,0-0.1-0.1-0.2-0.2c0,0,0-0.1-0.1-0.1c0,0-0.1,0-0.1-0.1c-0.2,0-0.3,0-0.5,0c-0.2,0-0.3,0-0.5,0
				c0,0,0,0-0.1,0.1c0,0,0,0.1,0,0.1c0,0,0,0.1,0,0.2c0,0.1,0,0.2,0,0.4c0,0.2,0,0.4,0,0.6c0,0.2,0,0.4,0,0.5c0,0.1,0,0.2,0,0.2
				c0,0,0,0.1,0,0.4c0,0.3,0,0.7,0,1.2c0,0.7,0,1.4,0.1,2c0,0.6,0,1.1,0.1,1.6c0,0.4,0,0.8,0,1c0,0.2,0,0.4,0,0.4
				c0,0,0.1,0.1,0.1,0.1c0,0,0.1,0,0.3,0c0.2,0,0.3,0,0.3,0c0,0,0,0.1,0,0.1c-0.1,0-0.2,0-0.4,0c-0.1,0-0.2,0-0.3,0
				c-0.1,0-0.1,0-0.1,0c-0.2,0-0.4,0-0.6,0c-0.2,0-0.4,0-0.6,0c0,0,0,0,0-0.1c0-0.1,0.1-0.1,0.3-0.1c0,0,0.1,0,0.1,0c0,0,0,0,0-0.1
				c0,0,0,0,0-0.1c0,0,0,0,0,0c0,0,0-0.1,0-0.4c0-0.3,0-0.6,0-1c0-0.4,0-0.7,0-1c0-0.3,0-0.5,0-0.5c0,0,0-0.1,0-0.2
				c0-0.1,0-0.2,0-0.4c0-0.1,0-0.3,0-0.5c0-0.2,0-0.3,0-0.4c0-0.1,0-0.2,0-0.4c0-0.1,0-0.2,0-0.3c0-0.1,0-0.2,0-0.3c0,0,0-0.1,0-0.2
				c0-0.1,0-0.3,0-0.6c0-0.3,0-0.6,0-0.7c0-0.2,0-0.3-0.1-0.5c0-0.1,0-0.2,0-0.4c0-0.1,0-0.3,0-0.4c0-0.1,0-0.1,0-0.2
				c0-0.1,0-0.1,0-0.1c-0.1,0-0.1,0-0.1,0c0,0-0.1,0-0.2,0c-0.1,0-0.2,0-0.2,0c-0.1,0-0.1,0-0.2,0c-0.1,0-0.1,0-0.1,0
				c0,0,0,0-0.1,0.1c0,0-0.1,0.1-0.1,0.1c0,0-0.1,0.1-0.1,0.1c0,0,0,0.1,0,0.1c0,0,0,0.1,0,0.1c0,0-0.1,0.1-0.1,0.1
				c0,0,0,0.1-0.1,0.1c-0.1,0.3-0.2,0.3-0.2,0c0,0,0-0.1,0-0.1c0-0.1,0-0.1,0-0.2c0-0.1,0-0.1,0-0.2c0,0,0-0.1,0-0.1
				c0,0,0.1-0.1,0.1-0.2c0,0,0-0.1,0.1-0.1c0,0,0.1,0,0.1,0c0,0,0.1,0,0.1,0c0.1,0,0.2,0,0.2,0c0.1,0,0.2,0,0.4,0c0.2,0,0.3,0,0.5,0
				c0.2,0,0.3,0,0.5,0C63.8,74.5,63.9,74.5,63.9,74.5z"/>
			<path class="st1" d="M70.4,74C70.4,74,70.4,74,70.4,74c0.1-0.1,0.2-0.1,0.3-0.1c0.1,0,0.2,0,0.3,0c0.1,0,0.2,0,0.4,0
				c0.1,0,0.2,0,0.3,0s0.1,0,0.2,0c0,0,0,0,0,0.1c0,0-0.1,0.1-0.1,0.1c-0.1,0-0.1,0-0.2,0.1c0,0-0.1,0-0.1,0c0,0.2,0,0.3,0,0.5
				c0,0.1,0,0.2,0,0.3c0,0.1,0,0.1,0,0.2c0,0,0,0.1,0.1,0.3c0,0.2,0,0.5,0.1,0.8c0,0.3,0.1,0.6,0.1,0.9c0,0.3,0,0.5,0,0.5
				c0,0.1,0,0.3,0,0.6c0,0.3,0.1,0.6,0.1,1c0,0.4,0.1,0.7,0.1,0.9c0,0.2,0,0.4,0.1,0.4c0,0.4,0,0.7,0,0.9c0,0.3,0,0.5,0.1,0.7
				c0,0.2,0,0.3,0.1,0.3c0,0.1,0.1,0.2,0.3,0.2c0,0,0.1,0,0.2-0.1c0.1,0,0.2-0.1,0.2-0.1c0,0,0.1,0,0.1-0.1c0,0,0-0.1,0.1-0.2
				c0-0.1,0-0.2,0-0.3c0-0.2,0-0.2,0-0.3c0-0.1,0.1-0.1,0.3,0c0,0,0.1,0,0.1,0.1c0,0,0,0.1,0,0.1c0,0,0,0.1,0,0.2
				c0,0-0.1,0.1-0.1,0.2c0,0.1-0.1,0.2-0.1,0.3c0,0,0,0-0.1,0.1c0,0,0,0.1-0.1,0.1c0,0-0.1,0.1-0.1,0.1c0,0-0.1,0.1-0.2,0.1
				c0,0-0.1,0-0.1,0.1c0,0-0.1,0-0.2,0.1c-0.1,0-0.2,0-0.3,0c-0.1,0-0.2,0-0.2,0c-0.1,0-0.1,0-0.2-0.1c0,0-0.1-0.1-0.1-0.2
				c0-0.1-0.1-0.2-0.1-0.2c0-0.1,0-0.1-0.1,0.1c0,0.1-0.1,0.1-0.1,0.2c-0.1,0.1-0.1,0.1-0.2,0.1C71,82.9,71,83,71,83
				c0,0,0,0-0.1,0.1c-0.1,0-0.2,0-0.3,0c-0.1,0-0.2,0-0.4,0c-0.1,0-0.2,0-0.2-0.1c0,0-0.1,0-0.2-0.1c0,0-0.1,0-0.1,0
				c0,0-0.1,0-0.1-0.1c-0.1-0.1-0.1-0.1-0.1-0.1c0,0-0.1-0.1-0.1-0.1c0-0.1-0.1-0.2-0.1-0.3c0-0.1,0-0.1-0.1-0.1
				c-0.1-0.2-0.1-0.5-0.1-0.7c0-0.2-0.1-0.3-0.1-0.4c0-0.1,0-0.2-0.1-0.2c0,0,0-0.2-0.1-0.4c0-0.3-0.1-0.6-0.1-1.1
				c0-0.1,0-0.2,0-0.3c0-0.1,0-0.1,0-0.2c0-0.1,0-0.2,0-0.3c0-0.2,0-0.4-0.1-0.7c0-0.2-0.1-0.5-0.1-0.7c0-0.2,0-0.4-0.1-0.5
				c0-0.1,0-0.2,0-0.2c0,0,0-0.1,0-0.1c0,0,0-0.1,0-0.2c0-0.1,0-0.3-0.1-0.4c0-0.1,0-0.3,0-0.5c0-0.2,0-0.4,0-0.5c0-0.2,0-0.3,0-0.5
				c0,0-0.1,0-0.1,0c0,0-0.1,0-0.1,0c-0.1,0-0.1,0-0.2,0c-0.1,0-0.1,0-0.2,0c0,0,0,0-0.1-0.1c0,0,0,0,0.1,0c0,0,0.1,0,0.2,0
				c0.1,0,0.1,0,0.2,0c0.1,0,0.1,0,0.1,0c0,0,0.1,0,0.1,0c0,0,0,0,0.1,0c0.1,0,0.1,0,0.2,0c0.1,0,0.2,0,0.3,0c0.1,0,0.2,0,0.2,0
				c0.1,0,0.2,0,0.2,0.1c0,0.1-0.1,0.1-0.2,0.1c-0.1,0-0.1,0-0.1,0.1c0,0.1,0,0.2,0,0.2c0,0,0,0.1,0,0.2c0,0.1,0,0.2,0,0.3
				c0,0.3,0.1,0.6,0.1,0.8c0,0.2,0,0.4,0.1,0.4c0,0,0.1,0.1,0.1,0.4c0,0.2,0.1,0.6,0.1,1.1c0,0.2,0,0.5,0.1,0.6c0,0.2,0,0.3,0.1,0.3
				c0.1,0.7,0.1,1.4,0.2,2c0,0.5,0.1,0.9,0.1,1.2c0,0.3,0.1,0.4,0.1,0.4c0,0,0,0,0,0.1c0,0,0,0.1,0,0.1c0,0,0,0,0,0.1
				c0,0.1,0.1,0.2,0.1,0.2c0,0.1,0.1,0.1,0.1,0.1c0,0,0,0,0,0.1c0,0,0,0,0.1,0c0,0,0,0.1,0.1,0.1c0.1,0,0.1,0,0.2,0
				c0.1,0,0.1,0,0.2,0c0.1,0,0.2-0.1,0.2-0.2c0,0,0.1-0.1,0.1-0.1c0,0,0.1-0.1,0.1-0.1c0,0,0-0.1,0.1-0.1c0,0,0-0.1,0-0.1
				c0,0,0-0.1,0.1-0.2c0-0.1,0.1-0.2,0.1-0.3c0-0.1,0-0.1,0.1-0.1c0-0.1,0-0.2,0-0.3c0-0.1,0-0.2,0-0.4c0-0.1,0-0.4-0.1-0.6
				c0-0.2,0-0.4,0-0.5c0-0.1,0-0.2,0-0.2c0,0,0,0,0-0.1c0-0.1,0-0.2-0.1-0.4c0-0.2,0-0.4-0.1-0.6c0-0.2,0-0.4-0.1-0.7
				c0-0.1,0-0.3-0.1-0.4c0-0.1,0-0.3-0.1-0.4c0-0.1,0-0.2,0-0.3c0-0.1,0-0.1,0-0.1c0-0.4,0-0.8-0.1-1.1c0-0.3,0-0.6-0.1-0.8
				c0-0.3,0-0.4,0-0.5c0-0.1,0-0.1,0-0.2c-0.1,0-0.1,0-0.2,0c-0.1,0-0.2,0-0.2,0c0,0-0.1,0-0.1,0C70.3,74.1,70.3,74,70.4,74
				C70.3,74,70.4,74,70.4,74z"/>
			<path class="st1" d="M77.1,73.5C77.1,73.5,77.1,73.5,77.1,73.5c0.1-0.1,0.1-0.1,0.1-0.1c0,0,0.1,0,0.1,0c0,0,0,0,0.1,0
				c0,0,0.1,0,0.1,0c0.1,0,0.2,0,0.3,0c0.1,0,0.2,0.1,0.2,0.1c0,0,0.1,0.1,0.1,0.1c0,0,0.1,0,0.1,0.1c0,0,0.1,0.1,0.1,0.1
				c0,0,0,0,0,0.1c0,0,0,0,0,0c0,0,0,0.1,0.1,0.1c0,0.1,0,0.1,0.1,0.2c0,0.1,0,0.2,0.1,0.2c0,0.1,0,0.1,0,0.2c0,0.1,0,0.2,0.1,0.2
				c0,0.2,0,0.3,0,0.4c0,0.2,0,0.3,0,0.5c0,0,0,0.1,0,0.1c0,0.1,0,0.2,0,0.3c0,0.1,0,0.2,0,0.3c0,0.1,0,0.2,0,0.3c0,0.1,0,0.1,0,0.1
				c0,0,0,0.1,0,0.1c0,0.1-0.1,0.1-0.1,0.2c-0.1,0.1-0.1,0.1-0.1,0.2c0,0,0,0-0.1,0c0,0-0.1,0.1-0.1,0.1c0,0,0,0.1-0.1,0.1
				c0,0,0,0-0.1,0c0,0,0,0,0,0.1c0,0,0,0-0.1,0.1c0,0-0.1,0-0.1,0.1c-0.1,0-0.2,0.1-0.2,0.1c0,0,0,0-0.1,0.1c-0.1,0-0.2,0.1-0.2,0.1
				c0,0,0,0,0,0c0,0,0,0,0,0c0,0,0,0,0,0c0,0,0,0,0,0c0,0,0.1,0,0.1,0c0.1,0,0.1,0,0.1,0c0,0,0.1,0,0.2,0.1c0,0,0.1,0,0.2,0
				c0,0,0,0,0.1,0.1c0.1,0,0.1,0,0.2,0.1c0.1,0,0.1,0.1,0.1,0.1c0,0.1,0.1,0.1,0.1,0.1c0,0,0,0,0.1,0.1c0,0,0.1,0.1,0.1,0.1
				c0,0.1,0.1,0.1,0.1,0.1c0,0,0,0,0.1,0.1c0,0.1,0.1,0.2,0.1,0.3c0,0,0,0,0.1,0.1c0,0,0,0,0,0.1c0,0.1,0,0.1,0.1,0.2
				c0,0.1,0,0.2,0.1,0.3c0,0.1,0.1,0.2,0.1,0.3c0,0.1,0,0.2,0,0.3c0,0.1,0,0.1,0,0.1c0,0,0,0,0,0c0,0,0,0.1,0,0.2
				c0,0.1,0,0.2,0.1,0.3c0,0.1,0,0.2,0.1,0.3c0,0.1,0,0.1,0,0.1c0,0,0.1,0.1,0.1,0.2c0,0.1,0.1,0.1,0.1,0.2c0,0,0,0.1,0,0.1
				c0,0,0,0,0,0c0,0,0,0,0,0c0,0,0.1,0.1,0.2,0.1c0.1,0.1,0.2,0.1,0.4,0.1c0.1,0,0.2-0.1,0.3-0.2c0,0,0,0,0.1-0.1c0,0,0,0,0-0.1
				c0,0,0-0.1,0.1-0.1c0,0,0,0,0-0.1c0,0,0-0.1,0-0.2c0-0.1,0-0.1,0-0.2c0-0.1,0-0.1,0-0.2c0-0.1,0-0.1,0-0.1c0,0,0.1,0,0.2,0
				c0,0,0.1,0,0.1,0c0,0.1,0,0.2,0,0.2c0,0.2,0,0.3,0,0.3c0,0-0.1,0.1-0.1,0.2c0,0.1-0.1,0.2-0.1,0.3c-0.1,0.1-0.1,0.2-0.2,0.2
				c0,0-0.1,0-0.1,0c0,0-0.1,0.1-0.2,0.1c-0.1,0-0.3,0.1-0.3,0c-0.1,0-0.2,0-0.2,0c-0.1,0-0.1,0-0.1-0.1c0,0,0,0-0.1,0
				c-0.2,0-0.3-0.2-0.4-0.4c0-0.1-0.1-0.1-0.1-0.2c0,0,0,0-0.1-0.1c0,0,0-0.1-0.1-0.2c0-0.1,0-0.1-0.1-0.2c0,0-0.1-0.1-0.1-0.1
				c-0.1-0.2-0.1-0.3-0.1-0.4c0-0.1-0.1-0.2-0.1-0.3c0-0.1,0-0.1,0-0.1c0,0-0.1,0-0.1-0.2c-0.1-0.4-0.2-0.6-0.2-0.6c0,0,0,0,0-0.1
				c0,0,0,0,0-0.1c0,0,0-0.1-0.1-0.2c0-0.1-0.1-0.1-0.1-0.2c0,0,0,0-0.1-0.1c0,0-0.1-0.1-0.1-0.1c0,0-0.1-0.1-0.1-0.1
				c0,0-0.1-0.1-0.1-0.1c0,0-0.1-0.1-0.1-0.1c0,0,0-0.1-0.1-0.1c0,0,0,0-0.1,0c0,0,0,0,0,0c0,0,0,0-0.1,0c0,0-0.1-0.1-0.1-0.1
				c0,0-0.1-0.1-0.1-0.1c0,0-0.1-0.1-0.1-0.1c0,0,0,0-0.1,0c0,0,0,0-0.1,0c0,0-0.1,0-0.1,0c-0.1,0-0.2,0-0.2,0.1
				c-0.1,0-0.1,0.1-0.1,0.1c0,0,0,0.2,0,0.5c0,0.3,0,0.6,0.1,0.9c0,0.3,0.1,0.6,0.1,0.9c0,0.3,0.1,0.4,0.1,0.4
				c0,0.3,0.1,0.5,0.1,0.7c0,0.3,0,0.5,0.1,0.8c0,0,0,0,0,0c0,0,0,0,0.1,0c0,0,0,0,0.1,0c0,0,0,0,0.1,0c0,0,0,0,0,0c0,0,0.1,0,0.1,0
				c0,0,0.1,0,0.1,0c0,0,0,0,0,0.1c0,0,0,0,0,0.1c0,0,0,0-0.1,0.1c0,0-0.1,0-0.3,0c-0.2,0-0.4,0-0.5,0.1c-0.2,0-0.4,0-0.5,0
				c-0.2,0-0.2,0-0.3,0c0,0,0-0.1,0-0.1c0,0,0.1-0.1,0.2-0.1c0.1,0,0.2-0.1,0.2-0.1c0,0,0-0.1,0-0.2c0-0.1,0-0.3-0.1-0.7
				c0-0.1,0-0.3,0-0.5c0-0.2,0-0.4-0.1-0.6c0-0.2,0-0.5-0.1-0.7c0-0.3,0-0.5-0.1-0.7c0-0.6-0.1-1.1-0.1-1.4c0-0.3-0.1-0.4-0.1-0.4
				c0,0,0,0,0,0c0,0,0,0,0,0c0,0-0.1-0.4-0.1-1.3c0-0.4-0.1-0.7-0.1-1c0-0.2-0.1-0.4-0.1-0.6c0-0.1,0-0.2-0.1-0.3c0,0,0-0.1,0-0.1
				c0,0-0.1,0-0.2,0c-0.1,0-0.1,0.1-0.1,0.1c-0.1,0.1-0.2,0.1-0.2,0c0-0.1,0-0.1,0-0.1c0,0,0.1-0.1,0.2-0.1c0,0,0.1,0,0.1,0
				c0,0,0.1,0,0.1,0c0,0,0.1,0,0.2-0.1c0.1,0,0.2-0.1,0.3-0.1c0.1,0,0.1,0,0.1,0c0,0,0,0,0.1-0.1c0.1,0,0.1,0,0.2-0.1
				c0.1,0,0.1,0,0.2-0.1c0.1,0,0.1,0,0.1,0c0,0,0,0,0,0c0,0,0,0,0.1,0c0.1,0,0.1,0,0.2-0.1c0.1,0,0.1,0,0.2-0.1c0,0,0.1,0,0.1,0
				c0,0,0,0,0.1,0c0,0,0.1,0,0.2-0.1c0.1,0,0.1,0,0.2,0C77,73.5,77,73.5,77.1,73.5z M77.5,74.2c0,0,0-0.1-0.1-0.2
				c0-0.1-0.1-0.1-0.1-0.2c-0.1,0-0.1-0.1-0.2-0.1c-0.1,0-0.1,0-0.1,0.1c-0.1,0-0.2,0-0.2,0c-0.2,0-0.4,0.1-0.6,0.2
				c0,0,0,0.1-0.1,0.1c-0.1,0-0.1,0.1-0.1,0.1c0,0,0,0,0,0c0,0,0,0.1,0,0.3c0,0.2,0.1,0.5,0.1,0.9c0,0.3,0.1,0.6,0.1,1
				c0,0.3,0.1,0.6,0.1,0.8c0,0.2,0,0.3,0.1,0.5c0,0.2,0,0.3,0,0.3c0,0.1,0,0.2,0,0.2c0.1,0,0.1,0,0.2,0c0,0,0.1,0,0.2,0
				c0,0,0.1-0.1,0.2-0.1c0,0,0.1,0,0.1,0c0,0,0.1,0,0.1-0.1c0,0,0,0,0.1,0c0,0,0,0,0.1,0c0.1,0,0.1-0.1,0.1-0.1c0,0,0-0.1,0.1-0.1
				c0,0,0,0,0.1,0c0,0,0.1-0.1,0.1-0.1c0,0,0.1-0.1,0.1-0.1c0,0,0-0.1,0-0.1c0,0,0-0.1,0-0.1c0,0,0-0.1,0.1-0.2
				c0-0.1,0.1-0.2,0.1-0.3c0,0,0-0.1,0.1-0.1c0,0,0-0.1,0-0.2c0-0.1,0-0.3,0-0.4c0-0.1,0-0.3,0-0.4c0-0.1,0-0.2,0-0.2c0,0,0,0,0,0
				c0,0,0,0,0-0.1c0,0,0-0.1,0-0.3c0-0.1,0-0.3-0.1-0.4c0-0.1,0-0.3-0.1-0.4C77.6,74.3,77.5,74.2,77.5,74.2
				C77.5,74.2,77.5,74.2,77.5,74.2z"/>
			<path class="st1" d="M84.5,72.8C84.6,72.8,84.6,72.8,84.5,72.8c0.1-0.1,0.2-0.1,0.3-0.1c0.1,0,0.2,0,0.2,0c0.1,0,0.1,0.2,0.1,0.4
				c0,0,0,0.1,0,0.2c0,0.1,0,0.2,0.1,0.3c0,0.1,0,0.2,0.1,0.2c0,0.1,0,0.1,0,0.1c0,0,0,0,0.1,0.1c0,0.1,0,0.2,0.1,0.3
				c0,0.1,0.1,0.2,0.1,0.4c0,0,0,0,0,0.1c0,0.1,0,0.1,0.1,0.2c0,0.1,0,0.1,0.1,0.2c0,0.1,0,0.1,0.1,0.2c0,0,0,0.1,0,0.1
				c0,0,0,0,0.1,0.1c0,0.1,0.1,0.2,0.1,0.3c0,0.1,0.1,0.2,0.1,0.3c0,0.1,0,0.1,0.1,0.2c0,0.1,0.1,0.2,0.1,0.3
				c0.1,0.2,0.1,0.4,0.1,0.5c0,0.1,0,0.1,0,0.1c0,0,0,0,0,0.1c0,0.1,0,0.1,0.1,0.2c0,0.1,0.1,0.2,0.1,0.3c0,0,0,0.1,0.1,0.1
				c0,0.1,0.1,0.2,0.1,0.3c0,0.1,0.1,0.2,0.1,0.3c0,0.1,0,0.2,0,0.2c0,0,0,0,0,0.1c0,0,0,0,0,0c0,0,0,0.1,0,0.1c0,0.1,0,0.1,0,0.2
				c0,0.1,0,0.1,0,0.1c0,0.1,0.1,0.1,0.1,0.1c0,0,0,0.1,0,0.1c0,0,0,0.1,0.1,0.2c0,0.1,0.1,0.4,0.2,0.7c0,0.2,0,0.2,0.1,0.2
				c0,0,0,0,0,0.1c0,0,0,0.1,0.1,0.2c0.1,0.1,0.1,0.2,0.1,0.2c0,0,0.1,0,0.1,0.1c0,0,0,0.1,0.1,0.1c0,0,0.1,0.1,0.2,0.1
				c0.1,0,0.1,0,0.1,0.1c0,0,0,0,0,0c0,0,0,0,0,0.1c0,0,0,0-0.1,0c-0.1,0-0.2,0-0.4,0.1c-0.1,0-0.3,0-0.4,0.1c-0.2,0-0.3,0-0.3,0
				c-0.1,0-0.1,0-0.2,0c0,0,0-0.1,0-0.1c0-0.1,0-0.1,0-0.1c0,0,0,0,0,0c0,0,0-0.1,0-0.1c0,0,0-0.1,0-0.1c0-0.1,0-0.1,0-0.2
				c0-0.1-0.1-0.4-0.2-0.7c0,0,0-0.1-0.1-0.2c0-0.1-0.1-0.3-0.1-0.4c0,0,0,0,0,0c0,0,0,0-0.1-0.1c0,0,0-0.1-0.1-0.1
				c0-0.1-0.1-0.2-0.1-0.2c0,0-0.1,0-0.1,0c0,0-0.1,0-0.3,0c-0.1,0-0.3,0-0.4,0c-0.2,0-0.3,0-0.4,0c-0.1,0-0.2,0-0.2,0
				c0,0,0,0-0.1,0c0,0-0.1,0-0.1,0c-0.1,0-0.1,0-0.2,0c-0.1,0-0.1,0-0.2,0c-0.1,0-0.1,0-0.2,0c0,0,0,0.1,0,0.1c0,0,0,0.1,0,0.1
				c0,0,0,0.1,0,0.1c0,0,0,0,0,0c0,0,0,0,0,0c0,0,0,0.1-0.1,0.2c0,0.2,0,0.3,0,0.4c0,0.1,0,0.1,0,0.1c0,0,0,0.1,0,0c0,0,0,0,0,0.1
				c0,0.1,0,0.1,0,0.2c0,0.1,0,0.2,0,0.3c0,0.1,0,0.2,0,0.2c0,0.1,0,0.2,0,0.3c0,0.1,0,0.1,0,0.1c0,0,0,0,0,0c0,0,0,0,0,0
				c0,0,0,0,0.1,0c0,0,0,0.1,0,0.1c0,0-0.1,0.1-0.1,0.1c-0.1,0-0.2,0-0.5,0c-0.1,0-0.2,0-0.4,0c0,0,0,0,0-0.1c0,0,0-0.1,0-0.1
				c0.1-0.1,0.1-0.1,0.2-0.2c0.1-0.1,0.1-0.1,0.2-0.1c0,0,0.1-0.1,0.1-0.1c0-0.1,0.1-0.1,0-0.2c0,0,0,0,0,0c0,0,0,0,0,0
				c0,0,0-0.1,0-0.3c0-0.2,0-0.4,0-0.5c0-0.1,0-0.1,0-0.2c0,0,0-0.1,0-0.1c0-0.1,0-0.2,0-0.3c0-0.1,0-0.3,0-0.4c0,0,0-0.1,0-0.1
				c0-0.1,0-0.1,0-0.2c0-0.1,0-0.2,0-0.2c0-0.1,0-0.1,0-0.1c0,0,0,0,0-0.1c0,0,0-0.1,0-0.1c0-0.1,0-0.2,0-0.3c0-0.1,0-0.2,0-0.2
				c0-0.1,0-0.1,0-0.1c0,0,0-0.1,0-0.2c0-0.1,0-0.1,0-0.2c0-0.1,0-0.1,0-0.1c0-0.1,0-0.1,0-0.1c0,0,0-0.1,0-0.1c0,0,0,0,0-0.1
				c0,0,0-0.1,0-0.1c0-0.1,0-0.1,0-0.2c0-0.1,0-0.2,0-0.2c0-0.1,0-0.1,0-0.2c0-0.1,0-0.1,0-0.1c0-0.1,0-0.3,0-0.4c0-0.1,0-0.2,0-0.3
				c0-0.1,0-0.1,0-0.1c0-0.2,0-0.3,0-0.4c0-0.1,0-0.2,0-0.3c0-0.1,0-0.1,0-0.1c0,0,0-0.1,0-0.2c0,0,0-0.1,0-0.1c0,0,0-0.1,0-0.1
				c0,0,0-0.1,0-0.1c0,0,0-0.1,0-0.1c0,0,0-0.1,0-0.1c0,0,0-0.1,0-0.1c0-0.1,0-0.1,0-0.2c0-0.1,0-0.1,0-0.2c0-0.1,0-0.1,0-0.1
				c0,0,0,0,0-0.1c0,0,0-0.1,0-0.1c0,0,0,0-0.1,0c0,0,0,0,0-0.1c0,0,0.1-0.1,0.2-0.2C84.5,72.9,84.5,72.8,84.5,72.8z M84.4,73.8
				c0,0,0-0.1,0-0.1c0,0,0,0,0-0.1C84.4,73.7,84.4,73.7,84.4,73.8c-0.1-0.1-0.1,0-0.1,0c0,0,0,0,0,0.1c0,0.1,0,0.2,0,0.2
				c0,0.3,0,0.5,0,0.6c0,0.1,0,0.1,0,0.1c0,0,0,0.1,0,0.1c0,0.1,0,0.1,0,0.2c0,0.1,0,0.2,0,0.3c0,0,0,0.1,0,0.1c0,0.1,0,0.2,0,0.3
				c0,0.1,0,0.3,0,0.4c0,0,0,0.1,0,0.1c0,0.1,0,0.1,0,0.2c0,0.1,0,0.2,0,0.2c0,0.1,0,0.1,0,0.1c0,0,0,0,0,0.1c0,0.1,0,0.2,0,0.3
				c0,0.1,0,0.3,0,0.4c0,0,0,0.1,0,0.1c0,0.1,0,0.2,0,0.3c0,0.1,0,0.2,0,0.2c0,0.1,0,0.1,0,0.1c0,0,0,0.1,0,0.2c0,0,0,0.1,0,0.1
				c0,0,0,0.1,0,0.1c0,0,0,0.1,0,0.1c0.1,0,0.1,0,0.2,0c0.1,0,0.1,0,0.3,0c0.1,0,0.3,0,0.4,0c0.1,0,0.3,0,0.4,0c0.1,0,0.2,0,0.3,0
				c0.1,0,0.1,0,0.1,0c0,0,0.1,0,0.2,0c0,0,0-0.1,0.1-0.1c0,0,0.1,0,0.1,0c0,0,0-0.1,0-0.1c0-0.1,0-0.1-0.1-0.2c0-0.1,0-0.2-0.1-0.3
				c0-0.1,0-0.2-0.1-0.3c0-0.1,0-0.1,0-0.1c-0.1-0.2-0.1-0.5-0.2-0.7c0-0.1,0-0.1-0.1-0.2c0,0,0-0.1-0.1-0.2c0-0.1-0.1-0.2-0.1-0.4
				c0-0.1-0.1-0.3-0.1-0.5c0,0,0-0.1-0.1-0.2c0-0.1-0.1-0.2-0.1-0.4c0-0.2-0.1-0.3-0.1-0.4c0-0.1,0-0.2-0.1-0.2c0,0,0,0,0,0
				c0,0,0-0.1,0-0.2c0-0.1-0.1-0.2-0.1-0.3c0-0.1-0.1-0.2-0.1-0.3C84.5,73.9,84.4,73.8,84.4,73.8z"/>
			<path class="st1" d="M89.8,72.2c0,0,0.1,0,0.1-0.1c0.1,0,0.1,0,0.2,0c0,0,0,0,0,0c0,0,0,0,0,0c0,0,0,0.1-0.1,0.1
				c-0.1,0.1-0.1,0.1-0.1,0.1c0,0,0,0,0,0c0,0,0,0,0,0c0,0,0,0,0,0c0,0-0.1,0.1-0.1,0.1c0,0.1,0,0.2,0,0.4c0,0.1,0,0.2,0,0.3
				c0,0.1,0,0.2,0,0.3c0,0.1,0,0.2,0.1,0.5c0,0.3,0.1,0.5,0.1,0.8c0.1,0.7,0.2,1,0.2,1c0,0,0,0,0,0c0,0,0,0,0,0c0,0,0,0.1,0.1,0.4
				c0,0.2,0,0.3,0.1,0.5c0,0.2,0.1,0.4,0.1,0.5c0,0.2,0.1,0.3,0.1,0.4c0,0.1,0,0.2,0.1,0.2c0,0.1,0,0.2,0.1,0.3
				c0,0.1,0.1,0.3,0.1,0.5c0,0.2,0.1,0.5,0.1,0.9c0,0.2,0.1,0.5,0.1,0.7c0,0.2,0.1,0.3,0.1,0.3c0,0,0,0.1,0,0.1c0,0,0,0,0,0
				c0,0,0.1,0,0.2-0.1c0.1,0,0.2-0.1,0.2-0.1c0,0,0.1,0,0.2-0.1c0.1,0,0.3-0.1,0.5-0.1c0.2,0,0.4-0.1,0.6-0.1c0.2,0,0.2-0.1,0.2-0.1
				c0,0,0,0,0,0c0,0,0.1,0,0.1-0.1c0.1-0.1,0.1-0.2,0.1-0.2c0,0,0-0.1,0-0.1c0,0,0,0,0-0.1c0-0.1,0-0.1,0-0.1c0,0,0,0,0,0
				c0,0,0,0,0,0c0,0,0-0.1,0-0.1c0-0.1,0-0.1,0.1-0.1c0-0.1,0-0.1,0-0.1c0,0,0-0.1,0-0.1c0,0,0,0,0,0c0,0,0,0,0-0.1c0,0,0,0,0,0
				c0,0,0,0,0-0.1c0,0,0,0,0,0c0,0,0,0,0.1,0.1c0,0,0,0,0,0.1c0,0,0,0,0,0.1c0,0,0,0.1,0,0.1c-0.1,0-0.1,0.2,0,0.6
				c0,0.1,0,0.2,0,0.4c0,0,0,0,0,0.1c0,0,0,0.1,0,0.1c0,0.1,0,0.1,0,0.1c0,0,0,0,0,0c0,0,0,0,0,0c0,0-0.1,0-0.1,0c0,0-0.1,0-0.1,0
				c0,0,0,0-0.1,0.1c-0.1,0-0.2,0-0.3,0.1c-0.3,0.1-0.5,0.1-0.6,0.1c-0.2,0-0.2,0.1-0.2,0.1c0,0-0.1,0.1-0.3,0.1
				c-0.2,0-0.4,0.1-0.7,0.1c-0.4,0-0.6,0.1-0.7,0.1c-0.1,0-0.2,0-0.1,0.1c-0.1,0-0.1,0-0.1,0c0,0-0.1,0-0.1,0c0,0,0,0,0,0
				c0,0,0,0,0,0c-0.1,0-0.1,0-0.1-0.1c0-0.1,0-0.1,0.1-0.1c0,0,0,0,0.1-0.1c0,0,0.1-0.1,0.1-0.1c0,0,0-0.1,0.1-0.1
				c0-0.2-0.1-0.5-0.1-0.7c0-0.2-0.1-0.5-0.1-0.8c0,0,0-0.1-0.1-0.3c0-0.2-0.1-0.4-0.1-0.6c0-0.3-0.1-0.5-0.1-0.7
				c0-0.2-0.1-0.4-0.1-0.4c0-0.1,0-0.2,0-0.2c0-0.1,0-0.1,0-0.2c0,0,0-0.1,0-0.1c0,0,0,0,0-0.1c0,0,0,0,0,0c0,0,0-0.1,0-0.1
				c-0.1-0.4-0.2-0.8-0.2-0.9c0-0.2-0.1-0.3-0.1-0.3c0,0,0,0,0-0.1c0,0,0-0.1,0-0.2c0-0.1-0.1-0.2-0.1-0.4c0-0.1-0.1-0.2-0.1-0.4
				c0-0.1,0-0.2,0-0.2c0,0,0-0.1-0.1-0.2c-0.1-0.2-0.1-0.4-0.2-0.6c0-0.2-0.1-0.2-0.1-0.2c0-0.1,0-0.1,0-0.1c0,0,0-0.1,0-0.1
				c0,0,0,0,0-0.1c0,0,0,0-0.1,0c0,0-0.1,0-0.1,0c0,0-0.1,0-0.1,0c0,0,0-0.1,0-0.1c0,0,0-0.1,0-0.1s0-0.1,0-0.1c0,0,0,0,0-0.1
				c0,0,0.1,0,0.1,0c0.1,0,0.2,0,0.3-0.1c0.1,0,0.2-0.1,0.3-0.1c0.1,0,0.2,0,0.3-0.1C89.7,72.2,89.8,72.2,89.8,72.2z"/>
		</g>
		<g>
			<g>
				<g>
					<path class="st1" d="M64.6,103.3c0,0-0.1,0-0.1,0c-1.9-0.9-3.9-2.8-3-5.2l0.1-0.3l-1.2,0.2c-0.6,0.1-1.3,0.2-1.9,0.3
						c-0.2,0-0.3,0-0.5,0l-0.4,0l0,0.1c-0.1,0.3-0.5,0.6-0.9,0.6c-0.2,0-0.6-0.1-0.7-0.5L56,98.3h-0.1l0,0l-0.1,0l-0.2,0
						c-0.2,0-0.4,0-0.7-0.1c-0.6-0.1-1.3-0.2-1.9-0.3l-1.2-0.2l0.1,0.3c0.9,2.3-1.1,4.2-3,5.2c0,0-0.1,0-0.1,0c-0.1,0-0.2,0-0.3-0.1
						c0,0-0.1-0.1,0-0.2l0.1-0.1l0-0.2c-0.3-0.8-0.3-1.8,0.1-2.7c0.2-0.5,0.5-0.9,0.8-1.3c0.3-0.3,0.5-0.5,0.8-0.7l0.6-0.4l-0.6-0.1
						c-0.7-0.1-1.3-0.2-2-0.3L48,97.1l0.1,0.3c0.2,0.7,0,1.7-0.2,2.2c-0.7,1.5-2.4,2-3.6,2.2c0,0,0,0,0,0c-0.2,0-0.4-0.1-0.4-0.3
						l-0.4,0l0.4,0c0-0.1,0-0.1,0-0.2l0.1-0.1l0-0.1c0-0.1,0-0.2,0-0.2c0-1.7,0.9-3.2,2.2-3.8l0.5-0.3l-0.6-0.1
						c-0.7-0.2-1.3-0.4-2-0.6L43.8,96l0.1,0.3c0.1,0.9,0,2.1-0.7,2.8c-0.9,0.9-2.1,1.1-3,1.1c-0.2,0-0.3,0-0.5,0
						c-0.1,0-0.2-0.1-0.2-0.2c-0.1-0.1,0-0.3,0-0.3l0-0.1l0-0.1c0-0.5,0.2-1.1,0.6-1.9c0.3-0.4,0.7-0.9,1.3-1.4
						c0.3-0.2,0.6-0.4,0.8-0.5l0.2-0.2l-0.2-0.2c-0.5-0.2-1-0.4-1.5-0.6l-0.3-0.1l0.1,0.4c0,0.1-0.1,0.2-0.2,0.3l0,0l-0.1,0.1
						c-0.5,0.8-0.9,1.5-1.8,1.8c-0.3,0.1-0.6,0.2-1,0.2c-0.5,0-1-0.1-1.4-0.4c-0.1,0-0.1-0.1-0.2-0.1c-0.2-0.2-0.1-0.4-0.1-0.4l0,0
						l0-0.1c0,0,0-0.1,0.1-0.2c0.2-0.2,0.3-0.4,0.5-0.6c0.4-0.5,0.9-1,1.6-1.3c0.3-0.1,0.5-0.2,0.8-0.2l0.6-0.1l-0.6-0.3
						c-0.5-0.3-1-0.5-1.5-0.8c-0.2-0.1-0.4-0.2-0.6-0.4c-0.4-0.3-0.8-0.6-1-0.6l0,0c0,0-0.1,0-0.1,0c-0.3,0-0.5-0.1-0.6-0.2
						c-0.4-0.3-0.4-0.8-0.3-1.2c0.1-0.2,0.3-0.3,0.5-0.3c0,0,0,0,0,0c0.2,0,0.3,0,0.5,0.1c0.3,0.2,0.4,0.5,0.4,0.8l0,0.1l0,0.1
						c0,0.1,0,0.1,0.1,0.1v0.1l0.1,0.1c0.2,0.2,0.3,0.2,0.4,0.3c0.5,0.4,1.1,0.7,1.7,1l0.2,0.1l0.3-0.3c-0.2-0.2-0.3-0.4-0.4-0.7
						c-0.5-1.2-0.5-2.2-0.2-3.3c0-0.2,0.2-0.2,0.3-0.2c0.1,0,0.1,0,0.2,0.1c0.1,0,0.1,0.1,0.2,0.1c0.2,0.2,0.4,0.4,0.6,0.6
						c0.1,0.1,0.2,0.2,0.3,0.3c0.4,0.3,0.7,0.7,0.9,1.2c0.3,0.6,0.5,1.9,0,2.5c0,0-0.1,0.1-0.1,0.1l-0.1,0l0,0.1
						c0,0.1-0.1,0.1-0.2,0.1l-0.1,0L40.1,94c0.7,0.4,1.5,0.7,2.4,1l0.7,0.3l-0.4-0.6c-0.3-0.5-0.6-1.1-0.9-1.9
						c-0.2-0.7-0.1-1.4,0-2.2l0-0.1c0-0.3,0.1-0.6,0.2-0.8c0-0.1,0.1-0.2,0.2-0.3c0.1-0.2,0.3-0.3,0.3-0.5c0-0.1,0.1-0.1,0.1-0.2
						c0.1-0.1,0.1-0.1,0.2-0.1c0,0,0.1,0,0.1,0c1,0.4,1.8,1.9,2,3.2c0.2,1.3-0.2,2.5-1,3.2L44,95.1l0,0.1l-0.1,0.2l0.2,0.1
						c0.7,0.2,1.5,0.4,2.2,0.6c0.1,0,0.2,0.1,0.4,0.1l0.6,0.1l-0.4-0.5c-0.4-0.5-0.7-1.1-0.9-2c-0.3-1.2,0-2.2,0.9-3.5
						c0,0,0.1-0.1,0.1-0.1l0.1,0l0-0.1c0.1-0.1,0.2-0.2,0.3-0.2c0.1,0,0.1,0,0.2,0.1c0.8,0.7,1.5,1.6,1.6,2.8c0,1.2-0.4,2.4-1.2,3.2
						l-0.3,0.3l0.4,0.1c1,0.2,2.1,0.4,3.2,0.6l0.5,0.1l0.2,0l0,0l0.4,0.1c0.5,0.1,0.9,0.1,1.4,0.2c0.3,0,2.2,0.2,2.2,0.2l0.1-0.1
						c0.1-0.3,0.5-0.5,0.8-0.5c0.3,0,0.6,0.2,0.7,0.5l0.1,0.1c0,0,1.8-0.2,2.1-0.2c0.5,0,0.9-0.1,1.4-0.2l0.4-0.1l0,0l0.2,0l0.5-0.1
						c1.1-0.2,2.2-0.4,3.2-0.6l0.4-0.1l-0.3-0.3c-0.8-0.8-1.2-2-1.2-3.2c0.1-1.3,0.8-2.1,1.6-2.8c0.1-0.1,0.1-0.1,0.2-0.1
						c0.1,0,0.3,0.1,0.3,0.2l0,0.1l0.1,0c0,0,0.1,0.1,0.1,0.1c0.9,1.2,1.1,2.3,0.8,3.5c-0.2,0.8-0.5,1.5-0.9,2l-0.4,0.5l0.6-0.1
						c0.1,0,0.2-0.1,0.4-0.1c0.7-0.2,1.5-0.4,2.2-0.6l0.2-0.1l-0.1-0.2l0-0.1L69.4,95c-0.9-0.7-1.2-1.8-1-3.2c0.2-1.3,0.9-2.7,2-3.2
						c0,0,0.1,0,0.1,0c0.1,0,0.1,0,0.1,0.1c0.1,0.1,0.1,0.1,0.2,0.2c0,0.2,0.2,0.3,0.3,0.5c0.1,0.1,0.2,0.2,0.2,0.3
						c0.1,0.2,0.2,0.5,0.2,0.8l0,0.1c0.1,0.7,0.2,1.5,0,2.2c-0.2,0.8-0.5,1.5-0.9,1.9l-0.4,0.6l0.7-0.3c0.8-0.3,1.6-0.7,2.4-1
						l-0.1-0.4l-0.1,0c-0.1,0-0.1,0-0.2-0.1l0-0.1l-0.1,0c0,0-0.1-0.1-0.1-0.1c-0.5-0.6-0.3-1.9,0-2.5c0.2-0.4,0.6-0.8,0.9-1.2
						c0.1-0.1,0.2-0.2,0.3-0.3c0.2-0.2,0.5-0.3,0.6-0.6c0,0,0.1-0.1,0.1-0.1c0.1-0.1,0.2-0.1,0.2-0.1c0.1,0,0.2,0,0.3,0.2
						c0.3,1.1,0.3,2.2-0.2,3.3c-0.1,0.3-0.3,0.5-0.4,0.7l0.3,0.3l0.2-0.1c0.6-0.3,1.2-0.6,1.7-1c0.1-0.1,0.2-0.2,0.3-0.3l0.1-0.1
						l0.1-0.2c0-0.1,0-0.1,0-0.1l0-0.1l0-0.1c0-0.3,0.1-0.6,0.4-0.8c0.2-0.1,0.3-0.1,0.4-0.1c0.3,0,0.5,0.2,0.6,0.3
						c0.2,0.4,0.1,0.9-0.3,1.2C78.2,92,78,92,77.8,92l-0.2,0c-0.3,0.1-0.7,0.4-1.1,0.7c-0.2,0.2-0.4,0.3-0.6,0.4
						c-0.5,0.3-1,0.6-1.5,0.8L74,94.2l0.6,0.1c0.2,0,0.5,0.1,0.8,0.2c0.7,0.2,1.1,0.7,1.6,1.3c0.2,0.2,0.3,0.4,0.5,0.6
						c0.1,0.1,0.1,0.1,0.1,0.2l0,0.1l0,0c0,0,0.2,0.2,0,0.4c-0.1,0.1-0.1,0.1-0.2,0.1c-0.5,0.3-1,0.4-1.5,0.4c-0.3,0-0.7-0.1-1-0.2
						c-0.9-0.3-1.3-1-1.8-1.8l-0.1-0.1l0,0c-0.1-0.1-0.2-0.2-0.2-0.3l0.1-0.4l-0.3,0.1c-0.5,0.2-1,0.4-1.5,0.6l-0.3,0.1l0.2,0.3
						l0.1,0c0.3,0.1,0.6,0.3,0.8,0.5c0.6,0.5,1,1,1.3,1.4c0.2,0.3,0.7,1.2,0.6,1.9l0,0.1l0,0.1c0.1,0.1,0.1,0.2,0,0.3
						c0,0.1-0.1,0.2-0.2,0.2c-0.2,0-0.3,0-0.5,0c-0.9,0-2.1-0.2-3-1.1c-0.7-0.7-0.8-2-0.7-2.8l0.1-0.3l-0.3,0.1
						c-0.6,0.2-1.3,0.4-2,0.6l-0.6,0.1l0.5,0.3c1.3,0.6,2.2,2.1,2.2,3.7c0,0.1,0,0.2,0,0.3l0,0.1l0.1,0.1c0,0.1,0,0.1,0,0.2l0.4,0
						l-0.4,0c0,0.2-0.1,0.3-0.3,0.3c-1.3-0.2-3-0.7-3.7-2.2c-0.3-0.5-0.4-1.5-0.2-2.2l0.1-0.3l-0.3,0.1c-0.7,0.1-1.3,0.2-2,0.3
						l-0.6,0.1l0.6,0.4c0.3,0.2,0.6,0.4,0.9,0.7c0.3,0.3,0.6,0.8,0.8,1.3c0.4,0.9,0.4,1.9,0.1,2.7l0,0.1l0.1,0.1l0,0.1
						c0,0.1,0,0.2,0,0.3C64.8,103.2,64.7,103.3,64.6,103.3z M62,98.3c-0.7,2,0.9,3.4,2,4.1l0.2,0.1l0.1-0.2c0.3-0.9,0-2-0.5-2.7
						c-0.4-0.5-0.8-0.8-1.2-1.2L62.1,98L62,98.3z M50.8,98.4c-0.5,0.3-0.9,0.6-1.2,1.2c-0.5,0.7-0.8,1.8-0.5,2.7l0.1,0.2l0.2-0.1
						c1.1-0.7,2.8-2,2-4.1L51.3,98L50.8,98.4z M65.9,97.5c-0.1,0.3-0.1,0.7,0,1c0.1,0.9,0.5,1.6,1.1,2c0.5,0.3,1,0.5,1.6,0.7
						l0.3,0.1l0-0.3c0-1.5-0.8-3.3-2.7-3.6l-0.2,0L65.9,97.5z M47.2,97.4c-1.8,0.3-2.7,2.1-2.7,3.6l0,0.3l0.3-0.1
						c0.6-0.1,1.1-0.4,1.6-0.7c0.7-0.4,1-1,1.1-2c0-0.3,0.1-0.7,0-1.1l-0.1-0.2L47.2,97.4z M70.1,96.4c-0.2,1,0.2,2.4,1.1,2.9
						c0.6,0.3,1.2,0.5,1.9,0.5l0.2,0l0-0.2c0-0.7-0.7-1.6-1.1-2.1c-0.4-0.4-0.9-0.9-1.6-1.2c-0.1,0-0.5-0.2-0.5-0.2L70.1,96.4z
						 M42.7,96.3c-0.7,0.3-1.1,0.7-1.6,1.2c-0.4,0.4-1.1,1.4-1.1,2.1l0,0.2l0.2,0c0.7,0,1.3-0.2,1.9-0.5c0.9-0.5,1.3-1.9,1.1-2.9
						l0-0.3C43.2,96.1,42.8,96.3,42.7,96.3z M74.2,94.9c-0.1,0-0.3,0-0.4,0.1L73.6,95l0.1,0.2c0.3,0.6,0.6,1.1,1.2,1.4
						c0.4,0.2,0.7,0.3,1.1,0.3c0.3,0,0.5,0,0.8-0.1l0.3-0.1l-0.4-0.4c-0.3-0.4-0.6-0.8-1.1-1C75.1,95,74.7,94.9,74.2,94.9L74.2,94.9
						L74.2,94.9z M39.1,94.9c-0.4,0-0.8,0.1-1.3,0.4c-0.5,0.3-0.8,0.7-1.1,1l-0.3,0.4l0.3,0.1c0.2,0.1,0.5,0.1,0.8,0.1
						c0.4,0,0.7-0.1,1.1-0.3c0.5-0.3,0.8-0.8,1.1-1.3l0.1-0.2L39.6,95c-0.1,0-0.2-0.1-0.4-0.1L39.1,94.9z M65.8,90.9
						c-0.5,0.5-1,1.1-1,2c0,0.8,0.1,1.8,0.9,2.7l0.2,0.2l0.2-0.2c0.6-0.7,0.8-1.6,0.8-1.9c0.2-1,0-1.8-0.6-2.7l-0.1-0.2L65.8,90.9z
						 M47.2,90.9C47.2,91,47.2,91,47.2,90.9c-0.7,1-0.8,1.8-0.7,2.8c0,0.3,0.2,1.3,0.8,1.9l0.2,0.2l0.2-0.2c0.7-0.8,0.8-1.9,0.9-2.7
						c0-0.9-0.5-1.6-1-2l-0.2-0.2L47.2,90.9z M42.9,89.5c-0.1,0.1-0.1,0.1-0.2,0.2c-0.3,0.5-0.4,1.1-0.4,1.6l0,0.3
						c-0.1,0.7,0.2,2.3,1,3l0.1,0.1l0.1-0.1c0.7-0.5,1-1.5,0.8-2.8c-0.1-0.6-0.6-1.8-1.2-2.3l-0.2-0.1L42.9,89.5z M70.1,89.5
						c-0.6,0.5-1.1,1.7-1.2,2.3c-0.2,1.3,0,2.3,0.8,2.8l0.1,0.1l0.1-0.1c0.8-0.7,1.1-2.3,1-3l0-0.3c0-0.5-0.1-1.1-0.4-1.6
						c0-0.1-0.1-0.1-0.2-0.2l-0.1-0.2L70.1,89.5z M74.3,89.9c-0.3,0.3-0.7,0.5-0.9,0.9c-0.2,0.4-0.6,1.4-0.3,2.1l0.1,0.2l0.2,0
						c0.8-0.2,1.1-0.9,1.3-1.4l0.1-0.2c0.1-0.4,0.2-0.7,0.2-1.1c0-0.2,0-0.3,0-0.5l-0.1-0.4L74.3,89.9z M38.6,89.8
						c0,0.2,0,0.3,0,0.5c0,0.4,0.1,0.7,0.2,1.1l0.1,0.2c0.2,0.6,0.5,1.2,1.3,1.4l0.2,0l0.1-0.2c0.3-0.7-0.1-1.7-0.3-2.1
						c-0.2-0.4-0.6-0.6-0.9-0.9l-0.5-0.4L38.6,89.8z M51.4,96.8c-1.5-1.3-1.5-3.9-0.6-5.5c0-0.1,0.1-0.1,0.1-0.1
						c0.1-0.1,0.2-0.1,0.3-0.1c0.1,0,0.2,0,0.2,0.1c0.1,0.1,0.3,0.3,0.5,0.4c0.1,0.1,0.1,0.1,0.2,0.1c0.2,0.2,0.4,0.5,0.5,0.7
						c0.3,0.5,0.4,1.2,0.4,1.8c0.1,1-0.1,2.2-0.9,2.6l-0.4,0.3L51.4,96.8z M51.1,92c-0.5,1.3-0.4,3.2,0.7,4.3l0.1,0.1l0.1,0l0.1,0
						l0.1,0c0.7-0.5,0.4-2.3,0.3-2.9c-0.1-0.7-0.5-1.1-0.9-1.4l-0.3-0.3L51.1,92z M61.1,96.9c-0.7-0.4-1-1.7-0.9-2.6
						c0.1-0.7,0.1-1.3,0.4-1.8c0.1-0.3,0.3-0.6,0.5-0.7c0,0,0.1-0.1,0.2-0.1c0.2-0.2,0.4-0.3,0.5-0.4C62,91,62,91,62.1,91
						c0.1,0,0.2,0,0.3,0.1c0.1,0.1,0.2,0.1,0.2,0.2c0.9,1.6,0.9,4.2-0.6,5.5l-0.4,0.4L61.1,96.9z M61.5,96.4l0.1-0.1
						c1.1-1.1,1.2-3,0.7-4.3l-0.1-0.3L61.8,92c-0.4,0.4-0.8,0.7-0.9,1.4c-0.1,0.5-0.4,2.4,0.3,2.9l0.1,0L61.5,96.4L61.5,96.4z"/>
				</g>
				<g>
					<path class="st1" d="M78.3,94.6c-0.1,0-0.2,0-0.3-0.2c0-0.1,0-0.2,0-0.2c0.1-0.1,0.2-0.1,0.3-0.1c0.1,0,0.2,0,0.3,0.2
						c0,0.1,0,0.2,0,0.2C78.5,94.6,78.4,94.6,78.3,94.6L78.3,94.6z"/>
				</g>
				<g>
					<path class="st1" d="M75.8,99.8c-0.1,0-0.2,0-0.3-0.2c0-0.1,0-0.2,0-0.2c0.1-0.1,0.2-0.1,0.3-0.1c0.1,0,0.2,0,0.3,0.2
						c0,0.1,0,0.2,0,0.2C76,99.8,75.9,99.8,75.8,99.8L75.8,99.8z"/>
				</g>
				<g>
					<path class="st1" d="M71.8,102.2c-0.1,0-0.2,0-0.3-0.2c0-0.1,0-0.2,0-0.2c0.1-0.1,0.2-0.1,0.3-0.1c0.1,0,0.2,0,0.3,0.2
						c0,0.1,0,0.2,0,0.2C72,102.1,71.9,102.2,71.8,102.2L71.8,102.2z"/>
				</g>
				<g>
					<path class="st1" d="M66.6,103.7c-0.2,0-0.3-0.2-0.4-0.3c0-0.1,0-0.2,0-0.2c0.1-0.1,0.2-0.1,0.3-0.1c0,0,0.1,0,0.2,0
						c0.2,0.1,0.2,0.2,0.2,0.3c0,0.1,0,0.2-0.2,0.2C66.7,103.7,66.6,103.7,66.6,103.7z"/>
				</g>
				<g>
					<path class="st1" d="M72.4,87.7c-0.1,0-0.2-0.1-0.3-0.3c0-0.1,0-0.2,0.2-0.3l0.1,0c0,0,0,0,0,0c0.2,0,0.3,0.1,0.3,0.3
						c0,0.1,0,0.2-0.2,0.3L72.4,87.7L72.4,87.7z"/>
				</g>
				<g>
					<path class="st1" d="M63.2,89.5c-0.1,0-0.2-0.1-0.2-0.1c-0.1-0.1-0.1-0.2-0.1-0.3c0-0.1,0.1-0.2,0.2-0.2c0,0,0,0,0,0
						c0.2,0,0.3,0.1,0.3,0.2l0,0.1c0,0.1,0,0.2,0,0.2C63.4,89.4,63.3,89.5,63.2,89.5L63.2,89.5z"/>
				</g>
				<g>
					<path class="st1" d="M58.8,100.8c-0.1,0-0.2,0-0.3-0.2l0-0.1c0-0.1,0-0.2,0-0.2c0.1-0.1,0.2-0.1,0.3-0.1c0.1,0,0.2,0,0.3,0.2
						l0,0.1c0,0.1,0,0.2,0,0.2C59,100.8,58.9,100.8,58.8,100.8C58.8,100.8,58.8,100.8,58.8,100.8z"/>
				</g>
				<g>
					<path class="st1" d="M58.2,95.9c-0.1,0-0.2,0-0.3-0.2l0-0.1c0-0.1,0-0.2,0-0.2c0.1-0.1,0.2-0.1,0.3-0.1c0.1,0,0.2,0,0.3,0.2
						l0,0.1c0,0.1,0,0.2,0,0.2C58.4,95.8,58.3,95.9,58.2,95.9L58.2,95.9z"/>
				</g>
				<g>
					<path class="st1" d="M55.4,95.8c-0.1,0-0.2,0-0.3-0.2l0-0.1c0-0.1,0-0.2,0-0.2c0.1-0.1,0.2-0.1,0.3-0.1c0.1,0,0.2,0,0.3,0.2
						l0,0.1c0,0.1,0,0.2,0,0.2C55.6,95.7,55.5,95.8,55.4,95.8L55.4,95.8z"/>
				</g>
				<g>
					<path class="st1" d="M35.1,94.6c-0.1,0-0.2-0.1-0.3-0.1c0-0.1-0.1-0.1,0-0.2c0-0.2,0.2-0.2,0.3-0.2c0.1,0,0.2,0,0.3,0.1
						c0,0.1,0.1,0.1,0,0.2C35.3,94.6,35.2,94.6,35.1,94.6z"/>
				</g>
				<g>
					<path class="st1" d="M37.6,99.8c-0.1,0-0.2-0.1-0.3-0.1c0-0.1-0.1-0.1,0-0.2c0-0.2,0.2-0.2,0.3-0.2c0.1,0,0.2,0,0.3,0.1
						c0,0.1,0.1,0.1,0,0.2C37.8,99.8,37.7,99.8,37.6,99.8L37.6,99.8z"/>
				</g>
				<g>
					<path class="st1" d="M41.6,102.2c-0.1,0-0.2-0.1-0.3-0.1c0-0.1-0.1-0.1,0-0.2c0-0.2,0.2-0.2,0.3-0.2c0.1,0,0.2,0,0.3,0.1
						c0,0.1,0.1,0.1,0,0.2C41.8,102.1,41.7,102.2,41.6,102.2L41.6,102.2z"/>
				</g>
				<g>
					<path class="st1" d="M46.8,103.7c0,0-0.1,0-0.1,0c-0.2,0-0.2-0.2-0.2-0.2c0-0.1,0.1-0.3,0.2-0.3c0.1-0.1,0.2-0.1,0.2-0.1
						c0.1,0,0.2,0,0.3,0.1c0,0.1,0.1,0.1,0,0.2C47.1,103.5,47,103.7,46.8,103.7L46.8,103.7z"/>
				</g>
				<g>
					<path class="st1" d="M41,87.7C41,87.7,40.9,87.7,41,87.7l-0.2,0c-0.2-0.1-0.2-0.2-0.2-0.3c0-0.1,0.1-0.3,0.3-0.3l0.1,0
						c0.3,0.1,0.3,0.3,0.3,0.3C41.2,87.6,41.1,87.7,41,87.7L41,87.7z"/>
				</g>
				<g>
					<path class="st1" d="M50.2,89.5C50.2,89.5,50.1,89.5,50.2,89.5c-0.2,0-0.2-0.1-0.3-0.2c0,0,0-0.1,0-0.2l0-0.1
						c0-0.1,0.2-0.2,0.3-0.2c0.2,0,0.3,0.1,0.3,0.2c0,0.1,0,0.2-0.1,0.3C50.4,89.4,50.3,89.5,50.2,89.5z"/>
				</g>
				<g>
					<path class="st1" d="M54.6,100.8c-0.1,0-0.2,0-0.3-0.1c0-0.1-0.1-0.1,0-0.2l0-0.1c0-0.2,0.2-0.2,0.3-0.2c0.1,0,0.2,0,0.3,0.1
						c0,0.1,0.1,0.1,0,0.2l0,0.1C54.8,100.8,54.7,100.8,54.6,100.8z"/>
				</g>
			</g>
		</g>
		<g>
			<path class="st1" d="M59.8,12.9c-0.2,0.1-0.5,0-0.7,0c-0.4,0-0.7,0-1.1,0c-0.4,0-0.7,0-1.1,0c-0.2,0-0.8,0.1-0.9-0.2
				c-0.1-0.2-0.2-0.4-0.2-0.6l-0.6-2c-0.1-0.3-0.2-0.6-0.2-0.9c0-0.1-0.1-0.1-0.1-0.1c0,0,0,0,0,0c0,0,0,0,0,0
				c-0.1,0.2-0.1,0.5-0.2,0.7c-0.1,0.4-0.2,0.8-0.4,1.1c-0.2,0.6-0.4,1.2-0.5,1.8c-0.1,0-0.2,0.1-0.3,0c-0.3,0-0.6,0-0.9,0.1h-1
				c-0.2,0-0.4,0-0.6,0c-0.3,0-0.5,0-0.8-0.1c-0.1,0-0.2,0-0.3,0c0,0-0.1,0.1,0,0.1c0,0,0,0.1,0,0.1c0.6,0.3,1,0.7,1.6,1.1
				c0.1,0.1,0.2,0.1,0.3,0.2l0.6,0.5c0,0,0.1,0.1,0.1,0.1c0.2,0.1,0.3,0.3,0.5,0.4c-0.1,0.2-0.1,0.5-0.2,0.7c0,0,0,0.1,0,0.1
				l-0.2,0.7c0,0.1-0.1,0.2-0.1,0.2c-0.1,0.3-0.2,0.6-0.3,0.8c-0.1,0.2-0.2,0.5-0.3,0.7c0,0.1-0.1,0.1-0.1,0.2c0,0,0,0,0,0
				c0,0,0,0,0,0c0,0,0,0,0,0.1c0,0,0,0,0,0c0,0,0,0,0,0c0,0,0,0,0,0c0,0,0,0,0,0c0,0,0,0,0,0c0,0,0,0,0,0c0,0,0,0.1,0.1,0.1
				c0,0,0,0,0,0c0,0,0,0,0,0c0,0,0,0,0,0c0,0,0,0,0,0c0,0,0,0,0,0c0.2-0.1,0.4-0.3,0.6-0.5c0.3-0.2,0.6-0.5,1-0.7
				c0.5-0.4,1-0.7,1.5-1.1l0.8,0.6c0.2,0.1,0.3,0.2,0.5,0.4c0.6,0.5,1.2,1,1.8,1.4c0,0,0.1,0,0.1-0.1c-0.2-0.6-0.4-1.2-0.6-1.9
				c-0.1-0.3-0.2-0.6-0.3-0.9c-0.1-0.3-0.3-0.6-0.3-0.9c0.1,0,0.1-0.1,0.2-0.1c0.2-0.1,0.3-0.2,0.5-0.4c0.2-0.1,0.3-0.2,0.4-0.2
				c0.3-0.2,0.6-0.5,0.9-0.7c0.2-0.1,0.4-0.3,0.6-0.4l0.2-0.2c0.1-0.1,0.2-0.1,0.3-0.1C59.9,13,59.9,12.9,59.8,12.9z"/>
			<path class="st1" d="M72.1,16.6c-0.1,0.1-0.4,0-0.5,0c-0.3,0-0.5,0-0.8,0c-0.3,0-0.5,0-0.8,0c-0.2,0-0.6,0-0.7-0.1
				c-0.1-0.1-0.1-0.3-0.2-0.4l-0.5-1.4c-0.1-0.2-0.1-0.4-0.2-0.7c0,0,0-0.1-0.1-0.1c0,0,0,0,0,0c0,0,0,0,0,0
				c-0.1,0.1-0.1,0.3-0.2,0.5c-0.1,0.3-0.2,0.5-0.3,0.8c-0.1,0.4-0.3,0.8-0.4,1.3c-0.1,0-0.1,0-0.2,0c-0.2,0-0.4,0-0.7,0h-0.7
				c-0.2,0-0.3,0-0.5,0c-0.2,0-0.4,0-0.6-0.1c-0.1,0-0.1,0-0.2,0c0,0,0,0,0,0.1c0,0,0,0,0,0.1c0.4,0.2,0.7,0.5,1.1,0.8
				c0.1,0.1,0.2,0.1,0.2,0.2l0.5,0.3c0,0,0.1,0,0.1,0.1c0.1,0.1,0.2,0.2,0.4,0.3c0,0.2-0.1,0.3-0.1,0.5c0,0,0,0,0,0.1l-0.2,0.5
				c0,0.1,0,0.1-0.1,0.2c-0.1,0.2-0.1,0.4-0.2,0.6c-0.1,0.2-0.1,0.3-0.2,0.5c0,0,0,0.1-0.1,0.1c0,0,0,0,0,0h0c0,0,0,0,0,0
				c0,0,0,0,0,0c0,0,0,0,0,0c0,0,0,0,0,0c0,0,0,0,0,0c0,0,0,0,0,0c0,0,0,0,0,0c0,0,0,0,0,0c0,0,0,0,0,0c0,0,0,0,0,0c0,0,0,0,0,0
				c0,0,0,0,0,0c0,0,0,0,0,0c0.2-0.1,0.3-0.2,0.5-0.3c0.2-0.2,0.4-0.3,0.7-0.5c0.4-0.3,0.7-0.5,1.1-0.8l0.6,0.4
				c0.1,0.1,0.2,0.2,0.3,0.3c0.4,0.3,0.8,0.7,1.3,1c0,0,0.1,0,0.1-0.1c-0.2-0.4-0.3-0.9-0.4-1.3c-0.1-0.2-0.1-0.4-0.2-0.6
				c-0.1-0.2-0.2-0.4-0.2-0.7c0,0,0.1-0.1,0.1-0.1c0.1-0.1,0.2-0.2,0.3-0.3c0.1-0.1,0.2-0.1,0.3-0.2c0.2-0.1,0.4-0.3,0.6-0.5
				c0.1-0.1,0.3-0.2,0.4-0.3l0.2-0.1C72,16.8,72,16.7,72.1,16.6C72.2,16.7,72.1,16.6,72.1,16.6z"/>
			<path class="st1" d="M44.4,16.6c-0.1,0.1-0.4,0-0.5,0c-0.3,0-0.5,0-0.8,0c-0.3,0-0.5,0-0.8,0c-0.2,0-0.6,0-0.7-0.1
				c-0.1-0.1-0.1-0.3-0.2-0.4l-0.5-1.4C41,14.5,41,14.3,40.9,14c0,0,0-0.1-0.1-0.1c0,0,0,0,0,0c0,0,0,0,0,0
				c-0.1,0.1-0.1,0.3-0.2,0.5c-0.1,0.3-0.2,0.5-0.3,0.8c-0.1,0.4-0.3,0.8-0.4,1.3c-0.1,0-0.1,0-0.2,0c-0.2,0-0.4,0-0.7,0h-0.7
				c-0.2,0-0.3,0-0.5,0c-0.2,0-0.4,0-0.6-0.1c-0.1,0-0.1,0-0.2,0c0,0,0,0,0,0.1c0,0,0,0,0,0.1c0.4,0.2,0.7,0.5,1.1,0.8
				c0.1,0.1,0.2,0.1,0.2,0.2l0.5,0.3c0,0,0.1,0,0.1,0.1c0.1,0.1,0.2,0.2,0.4,0.3c0,0.2-0.1,0.3-0.1,0.5c0,0,0,0,0,0.1l-0.2,0.5
				c0,0.1,0,0.1-0.1,0.2c-0.1,0.2-0.1,0.4-0.2,0.6c-0.1,0.2-0.1,0.3-0.2,0.5c0,0,0,0.1-0.1,0.1c0,0,0,0,0,0h0c0,0,0,0,0,0
				c0,0,0,0,0,0c0,0,0,0,0,0c0,0,0,0,0,0c0,0,0,0,0,0c0,0,0,0,0,0c0,0,0,0,0,0c0,0,0,0,0,0c0,0,0,0,0,0c0,0,0,0,0,0c0,0,0,0,0,0
				c0,0,0,0,0,0c0,0,0,0,0,0c0.2-0.1,0.3-0.2,0.5-0.3c0.2-0.2,0.4-0.3,0.7-0.5c0.4-0.3,0.7-0.5,1.1-0.8l0.6,0.4
				c0.1,0.1,0.2,0.2,0.3,0.3c0.4,0.3,0.8,0.7,1.3,1c0,0,0.1,0,0.1-0.1c-0.2-0.4-0.3-0.9-0.4-1.3c-0.1-0.2-0.1-0.4-0.2-0.6
				c-0.1-0.2-0.2-0.4-0.2-0.7c0,0,0.1-0.1,0.1-0.1c0.1-0.1,0.2-0.2,0.3-0.3c0.1-0.1,0.2-0.1,0.3-0.2c0.2-0.1,0.4-0.3,0.6-0.5
				c0.1-0.1,0.3-0.2,0.4-0.3l0.2-0.1C44.3,16.8,44.4,16.7,44.4,16.6C44.5,16.7,44.5,16.6,44.4,16.6z"/>
		</g>
	</g>
</g>
</svg>
