<?xml version="1.0" encoding="utf-8"?>
<!-- Generator: Adobe Illustrator 26.0.2, SVG Export Plug-In . SVG Version: 6.00 Build 0)  -->
<svg version="1.1" id="Ebene_1" xmlns="http://www.w3.org/2000/svg" xmlns:xlink="http://www.w3.org/1999/xlink" x="0px" y="0px"
	 viewBox="0 0 48.9 48.9" style="enable-background:new 0 0 48.9 48.9;" xml:space="preserve">
<style type="text/css">
	.st0{fill:#DCD2BB;}
	.st1{fill:none;stroke:#464646;stroke-width:2.0889;stroke-linecap:round;stroke-linejoin:round;stroke-miterlimit:10;}
</style>
<g>
	<g>
		<path class="st0" d="M48.9,34.9c0,7.7-6.3,14-14,14H14c-7.7,0-14-6.3-14-14V14C0,6.3,6.3,0,14,0h20.9c7.7,0,14,6.3,14,14V34.9z"/>
	</g>
	<g>
		<g>
			<g>
				<path class="st1" d="M7.1,11.9h2.8c1.4,0,2.7,1,3,2.3l4,15.1c0.4,1.4,1.6,2.3,3,2.3h16.4"/>
				<circle class="st1" cx="19.6" cy="38" r="3.1"/>
				<circle class="st1" cx="33.2" cy="38" r="3.1"/>
				<path class="st1" d="M16.5,26.5H33c1.4,0,2.6-0.9,3-2.2l2.5-8.2h-24"/>
			</g>
		</g>
	</g>
</g>
</svg>
