<?xml version="1.0" encoding="utf-8"?>
<!-- Generator: Adobe Illustrator 26.0.2, SVG Export Plug-In . SVG Version: 6.00 Build 0)  -->
<svg version="1.1" id="Ebene_1" xmlns="http://www.w3.org/2000/svg" xmlns:xlink="http://www.w3.org/1999/xlink" x="0px" y="0px"
	 viewBox="0 0 9.1 19" style="enable-background:new 0 0 9.1 19;" xml:space="preserve">
<style type="text/css">
	.st0{fill:#333333;}
</style>
<g id="bEDjdO_00000023269458634136667470000014613754106283705274_">
	<g>
		<path class="st0" d="M9.1,0.1c0,1,0,2,0,3c-0.7,0-1.4,0-2.1,0c-1,0-1.3,0.4-1.3,1.3c0,0.8,0,1.6,0,2.4c1.2,0,2.3,0,3.4,0
			c0,1.1,0,2.2,0,3.3c-1.2,0-2.2,0-3.3,0c0,3,0,5.9,0,8.9c-1.2,0-2.2,0-3.4,0c0-2.9,0-5.8,0-8.8c-0.8,0-1.6,0-2.4,0C0,9.1,0,8,0,6.9
			c0.8,0,1.5,0,2.3,0c0-0.8,0-1.5,0-2.3C2.2,1.7,4,0,7,0C7.7,0,8.4,0.1,9.1,0.1z"/>
	</g>
</g>
</svg>
