<?xml version="1.0" encoding="utf-8"?>
<!-- Generator: Adobe Illustrator 26.0.2, SVG Export Plug-In . SVG Version: 6.00 Build 0)  -->
<svg version="1.1" id="Ebene_1" xmlns="http://www.w3.org/2000/svg" xmlns:xlink="http://www.w3.org/1999/xlink" x="0px" y="0px"
	 viewBox="0 0 655.5 172.4" style="enable-background:new 0 0 655.5 172.4;" xml:space="preserve">
<style type="text/css">
	.st0{fill-rule:evenodd;clip-rule:evenodd;fill:#BCC6BB;}
</style>
<path class="st0" d="M149.7,147.2c-0.4,0.4-1.2,0.9-1.2,1.3c0.2,2.8-1.7,2.9-3.6,3.3c-8.8,1.7-17.7,0.8-26.5,0.3
	c-5.2-0.3-10.5-0.3-15.8-0.5c-2.4-0.1-4.8-0.3-7-0.9c-7.3-1.9-14.6-1.3-21.9-0.4c-3.9,0.5-7.9,0.3-11.8-0.1c-4.6-0.5-9.5-0.1-13.6-3
	c-0.4-0.3-1-0.3-1.5-0.3c-4.4-0.2-8.9-0.8-13.3-0.6c-6.4,0.3-11.9-2.1-17.3-5.2c-2.9-1.7-6.2-2.9-9.8-2.2c-1.7,0.3-3.7,0.1-3.8-2.5
	c0.2-0.3,0.5-0.6,0.7-0.9c-0.1-0.1-0.3-0.1-0.4-0.2c-0.1,0.4-0.2,0.7-0.3,1.1c-0.8-0.5-1.7-1-2.5-1.6c0.4-0.3,0.9-0.6,1.3-0.9
	c-0.1-1,0.1-2.2-0.3-2.9c-2.1-3.5-1.1-7.9,2.5-9.6c3.3-1.6,5.7-4,7.7-7.1c0.8-1.3,2.4-2.5,3.9-2.8c3.3-0.8,6.8-0.9,10.2-1.5
	c4.8-1,9.6-2.2,14.3-3.3c1.4-0.4,2.8-1,4.3-1.4c4.4-1.4,6.7-4.9,5.7-9.5c-0.9-4,0-7.1,2.9-9.8c1.2-1.1,2-2.8,3-4.1
	c3.6-4.5,8.1-7.2,13.9-7c4.4,0.2,8.1-2.1,11.9-3.9c0.8-0.4,1.1-1.6,1.7-2.5c-0.9-0.4-1.8-1.1-2.6-1.1c-3.6,0.3-5.8-1.9-7.6-4.5
	c-0.4-0.5-0.2-2.1,0.3-2.6c5.2-4.4,8.3-11,14.3-14.8c2.9-1.9,2.8-5.5,2.8-8.7c0-0.7-1.9-1.4-3-1.9c-1.3-0.6-2.8-1-4.2-1.4
	c0-0.4,0-0.8,0-1.1c1.9-1,3.7-2.4,5.7-3c2.5-0.8,4.2-2.4,5.8-4.5c0.9-1.1,2.5-2,3.9-2.1c4-0.3,8.1,0.2,11.5-2.7
	c0.8-0.7,2.4-0.6,3.6-0.7c4.2-0.1,8.4-0.1,12.7-0.1c1.8,0,3.8,0.4,5.5-0.2c5.8-2,11.5-1.1,17.4-0.8c9.8,0.5,19.5-0.7,29.1-2
	c0.6-0.1,1.2-0.2,1.8-0.2c5.3,0.4,10.1-1.2,14.5-4.1c5.6-3.6,11.8-4,18-3.8c3.1,0.1,6.2,1.1,9.2,1.6c0.5,0.1,1,0.2,1.6,0.2
	c7.9,0.8,15.7,1.8,23.5,2.3c8.9,0.6,17.9,0.8,26.4-1.6c10.4-2.9,21-3.1,31.5-4c12-0.9,24.1-0.9,36-2.4c13.1-1.7,26.1-1.8,39.2-2
	c14.2-0.3,28.5-0.4,42.7-1.1c39.8-2,79.6-0.7,119.4-0.9c12.8-0.1,25.6,1.1,38.4,2.3c9.4,0.9,18.7,2.9,28,4.5
	c2.7,0.5,5.3,1.2,7.2,3.6c1.4,2,1.1,3.6-1.2,4.4c-1.1,0.4-2.4,0.7-3.6,0.8c-6.9,0.5-13.8,0.9-20.7,1.5c-6.8,0.6-13.6,1.4-20.4,2.1
	c-9.7,1-19.3,2.1-29,3.2c-1,0.1-1.8,1.2-2.8,1.8c0.8,0.9,1.5,2.5,2.5,2.7c3.4,0.7,6.9,1.1,10.4,1.2c2.3,0.1,4,0.6,5.5,2.6
	c2.2,3,5,5.1,8.9,5.9c5.5,1.1,11,2.5,16.3,4.4c5,1.8,9.7,4.6,14.6,6.9c2.7,1.3,5.4,2.6,8.1,3.8c3.8,1.8,7.6,3.7,11.5,5.3
	c2.9,1.2,5.9,2.2,9,2.9c5.8,1.3,11.4,2.9,15.7,7.7c1.6,1.9,3.9,3.1,5.6,5c4.4,5.1,6.7,10.9,5.2,18.1c-0.9,4.3,0.7,8.4,2.4,12.4
	c2.2,5.3,3.2,10.7,0.8,16.4c-1.1,2.6-2,5.3-2.4,8.1c-0.9,7-5.6,11-10.8,14c-4.9,2.8-10.4,4.9-15.8,6.3c-5.9,1.5-12.1,2-18.1,2.8
	c-3.5,0.5-7,0.7-10.4,1.5c-2.3,0.5-4.4,1.9-6.6,2.9c-1,0.5-2,1.4-3,1.5c-4.8,0.5-9.6,0.9-14.4,1.3c-3.7,0.3-7.3,0.8-11,1.1
	c-4.9,0.4-9.8,0.8-14.7,1.1c-0.3,0-0.5,0-0.8,0.1c-10.7,3.8-21.8,1.9-32.7,1.9c-10.9,0.1-21.5,1.7-31.9,5.1
	c-1.5,0.5-3.3,0.3-4.9,0.5c-4.5,0.6-9,1.1-13.6,1.7c-3.5,0.5-6.9,1.4-10.4,1.5c-13.3,0.5-26.7,0.8-40,1.1c-2,0-4-0.5-6-0.7
	c-5.4-0.5-10.8-1.2-16.2-1.4c-8.6-0.2-17.2,0.2-25.8-0.2c-10-0.6-19.9-1.9-29.9-2.8c-5.2-0.5-10.5-0.8-15.7-1.4
	c-2.3-0.3-4.6-0.9-6.9-1.4c-1.3-0.3-2.5-0.6-3.8-0.8c-1-0.1-1.9-0.1-2.9,0c-9.4,0.6-18.7-0.9-28.1-1.9c-5.5-0.6-11-0.7-16.5-1.3
	c-14.3-1.8-28.6-0.6-42.9-1.2c-4.2-0.2-8.2-2.2-12.4-3.2c-2.6-0.6-5.3-1-7.9-1.3c-3.6-0.3-7.1-0.4-10.7-0.5c-1.4,0-2.7,0.5-4.1,0.5
	c-8-0.3-16.1,1.6-24-1.3c-1.5-0.5-3.2-0.5-5.3-0.7c0.9-1,1.4-1.5,1.9-2.1c-0.1-0.2-0.2-0.3-0.3-0.4c-1.1-0.8-2.2-1.6-3.3-2.3
	C151.1,147.5,150.3,147.4,149.7,147.2L149.7,147.2z M164.5,141.2L164.5,141.2L164.5,141.2z M54.7,122.6L54.7,122.6L54.7,122.6z
	 M147,43.2L147,43.2L147,43.2z M161.8,60.8c-1.8-1.9-3.9-2.4-6.4-2.2c-0.6-0.8-1.3-1.6-1.9-2.5c-0.7-0.9-1.3-1.7-1.9-2.6
	c0.1,1.1,0.1,2.2,0.3,3.3c0.5,3.1,0.8,3.3,3.6,1.7C156.2,61,157.6,61.5,161.8,60.8L161.8,60.8z M488.9,6.1
	C488.9,6.1,488.9,6.2,488.9,6.1c-12.1,0.1-24.2,0-36.4,0.1c-2.3,0-4.5,0.5-6.7,1c-0.6,0.1-1,1-1.5,1.6c0.6,0.4,1.2,1,1.9,1
	c11.4,0.3,22.8,0.4,34.2,0.8c10.2,0.3,20.3,0.9,30.5,1.2c6.4,0.2,12.8,0.2,19.2,0c1,0,2-1.6,3-2.4c-0.9-0.9-1.7-2.3-2.8-2.6
	c-2-0.6-4.2-0.6-6.3-0.6C512.2,6.1,500.5,6.1,488.9,6.1z M154.9,52.6c-0.2-0.5-0.3-0.8-0.4-1.1c-0.6-4.3-0.7-4.3-4.8-3.9
	c-0.7,0.1-1.5-1-2.3-1.4c-0.5-0.3-1.1-0.4-1.6-0.6c0,0.6-0.3,1.5-0.1,1.7C148.7,49.1,150.4,53.1,154.9,52.6z M172.1,143.8
	c0-0.2,0-0.4,0-0.6c0.7,0.3,1.4,0.7,2.3,1.1c-1.1-3-2.1-5.6-3.1-8.5c-0.5,0.4-2.5,0.1-1.5,2.2c0.8,1.7,0.3,2.6-0.9,3.6
	c-0.4,0.3,0,1.6,0,2.4C170,144,171,143.9,172.1,143.8z M166.8,139.2c-0.1-0.4-0.2-0.9-0.2-1.3c-0.8,0.1-1.5,0.3-2.3,0.4
	c0.1,0.5,0.3,1.3,0.4,1.3C165.4,139.6,166.1,139.3,166.8,139.2z M38.1,129c0.2,0.2,0.4,0.4,0.6,0.5c0.4-0.5,0.9-1,1.3-1.5
	c-0.2-0.2-0.5-0.4-0.7-0.6C38.9,127.9,38.5,128.4,38.1,129z M44.4,133.7c-0.2-0.2-0.3-0.4-0.5-0.6c-0.4,0.2-0.8,0.3-1,0.6
	c-0.2,0.3-0.3,0.8-0.4,1.3C43.1,134.5,43.7,134.1,44.4,133.7z M72.5,127.3c0.2,0.2,0.4,0.5,0.7,0.7c0.4-0.5,0.9-0.9,1.3-1.4
	c-0.2-0.2-0.4-0.4-0.5-0.6C73.5,126.4,73,126.9,72.5,127.3z M60.6,136c0.2,0.1,0.4,0.3,0.6,0.4c0.1-0.4,0.3-0.7,0.3-1.1
	c0-0.3-0.3-0.5-0.4-0.8c-0.3,0.2-0.6,0.3-0.8,0.6C60.3,135.4,60.5,135.8,60.6,136z M54.1,129.1c0.1-0.1,0.2-0.3,0.3-0.4
	c-0.4-0.3-0.7-0.6-1.1-0.8c-0.1,0.1-0.2,0.3-0.3,0.4C53.4,128.5,53.8,128.8,54.1,129.1z M210.5,136.9c-0.1-0.1-0.3-0.2-0.4-0.2
	c-0.1,0-0.2,0.2-0.3,0.3c0.2,0.1,0.4,0.2,0.5,0.3C210.4,137.2,210.5,137,210.5,136.9z M174.5,138.3c0.1-0.1,0.3-0.2,0.3-0.3
	c0-0.1-0.1-0.3-0.2-0.4c-0.1,0.1-0.3,0.2-0.4,0.4C174.2,138,174.4,138.2,174.5,138.3z M158.8,39.9c0,0.1,0,0.2,0,0.3
	c0.1,0,0.3,0,0.4,0c0,0,0-0.1,0-0.2C159.1,39.9,158.9,39.9,158.8,39.9z M162.5,41c0,0.1,0,0.2,0,0.3c0.1,0,0.3,0,0.4,0
	c0,0,0-0.1,0-0.2C162.8,41,162.6,41,162.5,41z M161.8,53.7c-0.1-0.1-0.2-0.2-0.3-0.2c0,0-0.1,0.1-0.1,0.2c0.1,0.1,0.2,0.2,0.3,0.2
	C161.7,53.8,161.7,53.7,161.8,53.7z M41.2,133c-0.1,0-0.2,0-0.2,0.1c0,0.1,0,0.3,0.1,0.4c0.1,0,0.2,0,0.2-0.1
	C41.3,133.3,41.2,133.2,41.2,133z M166.6,47.7l-0.2,0l0.1,0.2L166.6,47.7z M142.3,60.6l-0.2,0l0.1,0.2L142.3,60.6z M6.2,121.5
	l0.1,0.2l0.1-0.2L6.2,121.5z M53,136.3l0.2-0.1l-0.2-0.1L53,136.3z"/>
</svg>
