<?xml version="1.0" encoding="utf-8"?>
<!-- Generator: Adobe Illustrator 26.0.2, SVG Export Plug-In . SVG Version: 6.00 Build 0)  -->
<svg version="1.1" id="Ebene_1" xmlns="http://www.w3.org/2000/svg" xmlns:xlink="http://www.w3.org/1999/xlink" x="0px" y="0px"
	 viewBox="0 0 19 19" style="enable-background:new 0 0 19 19;" xml:space="preserve">
<style type="text/css">
	.st0{fill:#333333;}
</style>
<g id="yNlEKX_00000106144675269857230100000014031684121434854827_">
	<g>
		<path class="st0" d="M9.6,0c1.4,0,2.8,0,4.2,0C16.7,0,19,2.4,19,5.3c0,2.9,0,5.7,0,8.6c0,2.9-2.4,5.2-5.2,5.2c-2.9,0-5.7,0-8.6,0
			C2.4,19,0,16.7,0,13.8c0-2.9,0-5.7,0-8.6C0,2.4,2.4,0,5.2,0C6.7,0,8.1,0,9.6,0z M9.5,4.9C7,4.9,4.9,7,4.9,9.5
			c0,2.5,2.1,4.6,4.6,4.6c2.5,0,4.6-2.1,4.6-4.6C14.1,7,12,4.9,9.5,4.9z M14.5,3.4c-0.6,0-1.1,0.5-1.2,1.1c0,0.6,0.5,1.2,1.1,1.2
			c0.6,0,1.2-0.5,1.2-1.1C15.6,4,15.1,3.4,14.5,3.4z"/>
		<path class="st0" d="M12.6,9.5c0,1.7-1.3,3-3,3.1c-1.7,0-3.1-1.3-3.1-3c0-1.7,1.3-3,3-3C11.2,6.5,12.5,7.8,12.6,9.5z"/>
	</g>
</g>
</svg>
