<?xml version="1.0" encoding="utf-8"?>
<!-- Generator: Adobe Illustrator 26.0.2, SVG Export Plug-In . SVG Version: 6.00 Build 0)  -->
<svg version="1.1" id="Ebene_1" xmlns="http://www.w3.org/2000/svg" xmlns:xlink="http://www.w3.org/1999/xlink" x="0px" y="0px"
	 viewBox="0 0 31.9 43.4" style="enable-background:new 0 0 31.9 43.4;" xml:space="preserve">
<style type="text/css">
	.st0{fill:#A49A80;}
</style>
<path class="st0" d="M4.2,16.7c-4.7,7-5.3,11.8-2.5,19.3c0.1,0.3,0.2,0.4,0.4,0.6c0.1,0.8,0.1,1.5,0.3,2.3c0.3,1.3,0.6,2.5,0.8,3.8
	c0.1,1.2,2,1,1.9-0.2c-0.2-1.5-0.6-2.8-0.9-4.3c0-0.2-0.1-0.5-0.1-0.7c0.2,0.2,0.4,0.3,0.7,0.3c6.1,0.9,15.1-4.6,18.8-9.9
	c2.4-3.5,4.1-7,5.2-10.9c0.4-1.6,0.7-3.3,1-5.2C30.1,9,31.8,2,31.8,2c0.1-0.3,0.1-0.6,0-0.9c-0.1-0.1-0.6-1.4-2-1
	C17.4,3.5,9.7,8.5,4.2,16.7z M11.5,12.8c0.4,1.7,1,3.4,1.5,4.8c0.1,0.2,0.2,0.3,0.3,0.4c-0.3,0.4-0.6,0.8-0.8,1.1
	c-0.6,0.8-1.3,1.6-2,2.5c-0.4-0.7-0.8-1.4-1.1-2.3c-0.3-1.1-0.6-2.2-1-3.3c0.5-0.6,1-1.2,1.6-1.8C10.5,13.7,11,13.3,11.5,12.8z
	 M7,17.8c0.2,0.7,0.4,1.5,0.6,2.2c0.3,1.3,1,2,1.6,3.2C8,24.6,6.8,26,5.7,27.6c0-0.1-0.1-0.1-0.1-0.2c-0.3-0.6-0.4-1.5-0.7-2.1
	c-0.4-1-0.4-2.2-0.5-3.4C5.2,20.5,6.1,19.1,7,17.8z M21.7,25.3c-0.7,1-1.5,2.1-2.4,3c-3.8,1.2-8.1,1.5-12.1,0.9c1-1.4,2.2-2.6,3-3.8
	c0.2-0.2,0.3-0.4,0.5-0.7c2.2,0.7,4.8,0.8,7.1,0.8C19,25.5,20.4,25.5,21.7,25.3z M3.3,32.1c-0.7-2-1.1-4.3-0.4-6.9
	c0.1,0.3,0.1,0.5,0.2,0.8c0.2,0.5,0.3,1,0.5,1.6c0.2,0.6,0.7,1.2,0.7,1.9c0,0.1,0,0.2,0.1,0.4C4,30.5,3.6,31.3,3.3,32.1z M16.9,8.5
	c0.1,1.1,0.5,2.2,0.8,3.1c0.1,0.2,0.2,0.4,0.4,0.4c-1.2,1.4-2.4,2.9-3.6,4.3c-0.6-1.6-1.2-3.4-1.4-5.1C14.4,10.3,15.6,9.4,16.9,8.5z
	 M26,4.3c-2.3,1.9-4.5,4.1-6.6,6.4c-0.3-0.8-0.8-2.2-0.7-3.2c2-1.1,4.1-2.1,6.4-2.9L26,4.3z M26.9,10.7
	C26.9,10.7,26.9,10.7,26.9,10.7c-1.9,0.5-3.7,0.9-5.6,0.8C23.5,9.1,25.7,6.9,28,5l-0.4,1.7C27.4,8,27.2,9.3,26.9,10.7z M25.8,16.2
	c-1.7,0.3-3.3,0.6-5,0.8c-1.5,0.2-3,0.2-4.4,0.1c0-0.1,0.1-0.1,0.1-0.2c1-1.3,2.2-2.6,3.4-3.9c2.4,0.4,4.5,0.1,6.8-0.4
	C26.4,13.9,26.1,15.1,25.8,16.2z M24.6,19.9c-0.4,0.9-0.8,1.9-1.4,2.8c-1.5,1.3-5.2,1-6.9,0.8c-1.4-0.1-3-0.2-4.4-0.5
	c1-1.3,1.9-2.7,2.9-4c1.2,0,2.4,0.2,3.5,0.2c1.2-0.1,2.3-0.3,3.5-0.4c1.2-0.1,2.3-0.3,3.4-0.5C25,18.8,24.8,19.4,24.6,19.9z
	 M5.5,34.9l-0.8-0.1c0.1-1.4,0.6-2.7,1.4-4c3.1,0.6,6.5,0.7,9.7,0.2C12.1,33.2,8.4,35.2,5.5,34.9z"/>
</svg>
