<?xml version="1.0" encoding="utf-8"?>
<!-- Generator: Adobe Illustrator 26.0.2, SVG Export Plug-In . SVG Version: 6.00 Build 0)  -->
<svg version="1.1" id="Ebene_1" xmlns="http://www.w3.org/2000/svg" xmlns:xlink="http://www.w3.org/1999/xlink" x="0px" y="0px"
	 viewBox="0 0 23.9 23.9" style="enable-background:new 0 0 23.9 23.9;" xml:space="preserve">
<style type="text/css">
	.st0{fill:none;stroke:#FFFFFF;stroke-width:1.7737;stroke-linecap:round;stroke-linejoin:round;stroke-miterlimit:10;}
</style>
<g>
	<g>
		<path class="st0" d="M22.5,18l-3.2-3.2c-0.7-0.7-1.8-0.7-2.6,0l-1,1c-0.6,0.6-1.5,0.7-2.2,0.3c-0.8-0.5-1.9-1.3-3.2-2.6
			c-1.3-1.3-2.1-2.4-2.6-3.2C7.4,9.6,7.5,8.7,8.1,8.2l1-1c0.7-0.7,0.7-1.8,0-2.6L5.9,1.4c-0.7-0.7-1.8-0.7-2.6,0L2.5,2.3
			C1.7,3,1.2,4,1,5.1c-0.6,3.1,0.8,7.6,5.5,12.3c4.7,4.7,9.2,6.1,12.3,5.5c1.1-0.2,2.1-0.7,2.8-1.5l0.9-0.9
			C23.2,19.9,23.2,18.7,22.5,18z"/>
	</g>
</g>
</svg>
