<?xml version="1.0" encoding="utf-8"?>
<!-- Generator: Adobe Illustrator 26.0.2, SVG Export Plug-In . SVG Version: 6.00 Build 0)  -->
<svg version="1.1" id="Ebene_1" xmlns="http://www.w3.org/2000/svg" xmlns:xlink="http://www.w3.org/1999/xlink" x="0px" y="0px"
	 viewBox="0 0 48.9 48.9" style="enable-background:new 0 0 48.9 48.9;" xml:space="preserve">
<style type="text/css">
	.st0{fill:#CED5C2;}
	.st1{fill:none;stroke:#464646;stroke-width:2.0889;stroke-linecap:round;stroke-linejoin:round;stroke-miterlimit:10;}
</style>
<g>
	<g>
		<path class="st0" d="M48.9,34.9c0,7.7-6.3,14-14,14H14c-7.7,0-14-6.3-14-14V14C0,6.3,6.3,0,14,0h20.9c7.7,0,14,6.3,14,14V34.9z"/>
	</g>
	<g>
		<g>
			<path class="st1" d="M29.2,29.2c1.6-1.8,2.6-4.2,2.6-6.9c0-5.8-4.7-10.4-10.4-10.4s-10.4,4.7-10.4,10.4c0,5.8,4.7,10.4,10.4,10.4
				C24.4,32.8,27.2,31.4,29.2,29.2"/>
			<line class="st1" x1="38" y1="37" x2="29.2" y2="29.2"/>
		</g>
	</g>
</g>
</svg>
