<?xml version="1.0" encoding="utf-8"?>
<!-- Generator: Adobe Illustrator 26.0.2, SVG Export Plug-In . SVG Version: 6.00 Build 0)  -->
<svg version="1.1" id="Ebene_1" xmlns="http://www.w3.org/2000/svg" xmlns:xlink="http://www.w3.org/1999/xlink" x="0px" y="0px"
	 viewBox="0 0 48.9 48.9" style="enable-background:new 0 0 48.9 48.9;" xml:space="preserve">
<style type="text/css">
	.st0{fill:#CAD0CD;}
	.st1{fill:none;stroke:#464646;stroke-width:2.0889;stroke-linecap:round;stroke-linejoin:round;stroke-miterlimit:10;}
</style>
<g>
	<g>
		<path class="st0" d="M48.9,34.9c0,7.7-6.3,14-14,14H14c-7.7,0-14-6.3-14-14V14C0,6.3,6.3,0,14,0h20.9c7.7,0,14,6.3,14,14V34.9z"/>
	</g>
	<g>
		<g>
			<g>
				<path class="st1" d="M32.8,36.4c3.8-2.6,6.3-7,6.3-12c0-8.1-6.5-14.6-14.6-14.6S9.8,16.4,9.8,24.4c0,5,2.5,9.4,6.3,12"/>
				<path class="st1" d="M16.1,36.4c2.4,1.6,5.2,2.6,8.3,2.6s6-1,8.3-2.6"/>
				<circle class="st1" cx="24.4" cy="19.2" r="5.2"/>
				<path class="st1" d="M16.1,36.4c0.2-4.9,3.9-8.9,8.3-8.9s8.1,3.9,8.3,8.9"/>
			</g>
		</g>
	</g>
</g>
</svg>
