<?xml version="1.0" encoding="utf-8"?>
<!-- Generator: Adobe Illustrator 26.0.2, SVG Export Plug-In . SVG Version: 6.00 Build 0)  -->
<svg version="1.1" id="Ebene_1" xmlns="http://www.w3.org/2000/svg" xmlns:xlink="http://www.w3.org/1999/xlink" x="0px" y="0px"
	 viewBox="0 0 1284.4 941.1" style="enable-background:new 0 0 1284.4 941.1;" xml:space="preserve">
<style type="text/css">
	.st0{fill:#BCB4A8;}
</style>
<path class="st0" d="M1219.8,582.8c-3.4,1.5-6.7,3.1-10.2,4.4c-4,1.5-8,2.8-7.5-4.4c0.1-2.1-1.7-4.3-3-6.9c-1.6,1.2-2.9,2.2-4.9,3.7
	c0.5-2.9,0.8-4.9,1.1-6.8c-3.9-1.4-7.4-2.6-10.9-3.8c0.2-0.6,0.3-1.2,0.5-1.8c3.4,0.6,6.8,1.2,10.7,1.9c-1.6-4.4-2.7-7.4-4.4-11.8
	c-3.6,2.3-7.5,4.9-11,7.1c-1.2-2.3-2.9-5.3-4.5-8.4c-0.4,0.7-0.9,1.4-1.3,2.1c-2.8,0.9-5.7,1.9-10,3.3c2.4-7.6,5.9-11.4,13.2-11.9
	c-0.4-1.7-0.7-3.3-1.2-5.8c2.6,0.2,4.9,0.4,7.6,0.7c0.4-1.6,1-3.5,1.2-4.2c3.7-0.7,6.4-1.2,9.2-1.6c-0.1-0.7-0.2-1.4-0.2-2.2
	c2.7,0.8,5.4,1.7,9.3,2.9c-2.5-7.9-5.3-14.4-12.7-18c2.2,0.6,4.4,1.3,7.5,2.2c-5.3-13-15.3-21.9-26.2-23.3c2.1,1.8,3.5,3,5.4,4.6
	c-2.8,0.5-5.1,0.9-7.9,1.4c0.4,1.5,0.8,2.8,0.7,2.3c-2.4,3.4-4,5.7-5.7,8.1c-3-3.3-7.5-5.3-13.1-0.9c-3.8,3-7.9,5.7-12.3,8.9
	c-0.2-4.5-0.4-9.2-0.7-15c2.4-1.9,4.6-8.3,10.7-4.3c0.6-2.7,1.1-5.1,1.3-6.1c-2.6-2.8-4.7-5.3-7-7.5c-1.2-1.2-2.8-2.6-4.3-2.8
	c-0.9-0.1-2.8,1.9-3,3.2c-0.5,2.6-5.8,4.7-1.1,8c-1.5,1.4-3.2,4.3-4.3,4c-4-0.9-7.8-2.8-13.1-4.9c-0.2,0.1-2.2,1.1-4.6,2.4
	c2.1,1.8,3.9,3.4,5.4,4.6c-5.2-0.2-10.1-0.4-16.1-0.7c-0.6-1.7-8.2-4.4,0.8-8.1c2.1-0.8,3.2-3.9,5.2-6.4c-4.7-1.8-8.7-4.2-12.8-4.4
	c-2.8-0.2-7.1,2.1-8.3,4.5c-1.3,2.7,0.1,6.8,0.4,10.2c0.7,0,1.4,0,2.1,0.1c-1.8,2.7-3,6.2-5.5,7.9c-4.6,3.1-7.3-2.1-9.8-4.3
	c-4.9-4.3-7.1-2.2-8.7,2.4c-0.5,1.3,0,3.8,1,4.5c1,0.7,3.1,0,4.7-0.1c4.5,3.6,9.3,7.4,14,11.1c-2.6,3.1-4.4,6.1-7,7.9
	c-1.8,1.3-4.8,1.1-7.2,1.6c-0.3-1.7-0.6-3.4-0.6-3.5c-2.7-2.1-4.4-4.2-6.6-5c-3.1-1.1-6.7-0.9-5-5.9c0.4-1.2-0.5-3-1.2-4.2
	c-2.8-4.6-9.8-5.3-11.3-11.6c-1.7,3.7-3.4,7.3-5.1,11c-0.6-0.4-1.4-0.9-2.5-1.6c-0.2,2.1-0.5,4-0.7,6c-0.6,0-1.3,0-1.9,0
	c-0.3-1.8-0.1-4.1-1.1-5.4c-0.7-1-3-0.8-5.1-1.3c1.3-1.7,4.1-3.7,3.8-5c-1.2-5.2-2.6-10.3,0.7-14.6c-10.3-3.7-19.7-7-27.9-9.9
	c-1,4.5-1.7,7.8-2.4,11.1c-0.8,0-1.5,0-2.3,0c-1.2-1.9-2.5-3.7-3.7-5.6c-2.2,1.2-4.5,2.5-7.1,3.8c0.4,7.6,2,8.4,10.9,4.9
	c2.5,6,5.1,12,8,19c-3.7,4.3-15.5,0.8-15.1,13.1c4.2,0.9,8.9,1.9,11.9,2.6c-1.3,4.2-3,9.4-4.7,14.6c-0.5-0.4-2.3-1.6-6-4.3
	c2.6,7.1,0.6,12.2-0.3,17.5c-1.4,8.8-8.4,4-12.4,6.3c-0.8-1.7-1.9-3.7-3.4-6.9c1.2-0.4,3.1-0.9,5.7-1.6c-2-1.3-3.4-2.3-3.8-2.5
	c0-6.4,0.2-12.2-0.2-17.9c-0.1-0.7-2.9-1.7-4.5-1.9c-2.7-0.3-5.5-0.1-8.6-0.1c-0.3-3.3-0.5-6.1-0.8-9.3c-2.2,0.6-4.2,1.1-6.1,1.6
	c1.7,2.4,3.4,4.7,5.3,7.4c-3.7,2.6-6.9,4.8-11.1,7.8c0.1,0.6,0.3,2.6,0.6,4.7c-0.6,0.3-1.2,0.9-1.7,0.9c-4.7-0.6-9.7-0.7-14-2.4
	c-1.4-0.5-1-5.5-1.5-8.6c-3.9,2.1-8.4,4.6-14.6,7.9c-2.5-5.5-4.9-10.9-7.5-16.7c-1.1,0.2-3.6,0.6-6.8,1.2c1.2,1.6,2.2,2.9,3.2,4.3
	c-0.3,0.2-0.5,0.5-0.8,0.7c-2-2.3-3.9-4.7-6.3-7.5c-2.2,1.3-4.7,2.8-7.4,4.5c-1.4-3.5,7.4-7.5,1.1-10.7c-1.7,1.1-3,1.9-4.2,2.7
	c-1.5,1-4.1,1.9-4.2,3c-0.4,3.9-2.2,4-5.4,3.5c-1.5-0.2-4,1.2-4.9,2.7c-1,1.5-1.3,4.6,2.6,3c0.1,1.8-0.3,3.8,0.3,5.5
	c1.1,3.5,2.7,6.8,3.9,9.5c-5.3,2.9-9.9,5.4-14.5,7.9c0.5,0.3,1,0.6,1.5,0.8c-0.7,2.2-1.5,4.4-2.2,6.6c-1.8-0.9-3.7-1.8-5.4-2.9
	c-0.5-0.3-0.7-1.5-1.2-1.6c-7-2.2-14.1-4.2-21.1-6.3c-0.9-0.3-1.7-0.7-2-0.9c0-3,0-5.6,0-8.9c-7.3,3.9-8.9,2.7-9.8-4.4
	c-0.2-1.7-2.5-3.7-4.3-4.6c-3-1.4-6.4-2.1-11.3-3.5c3.3,3.7,5.7,6.4,7.4,8.4c-3.3,1.1-6.5,2.7-9.8,3.2c-1.5,0.2-3.4-1.6-4.2-3.7
	c-2.5-0.7-5.1-1.4-7.6-2.1c0-0.6,0-1.3,0.1-1.9c-1.2,1-2.4,2-3.3,2.7c2.1,3.4,4,6.3,6,9.4c2.4-0.5,5.2-1,9.6-1.9
	c-1.7,3.6-2.6,5.5-3.7,7.7c1.2,1.5,2.5,3.1,3.8,4.8c2.2-2,4.1-3.8,6-5.4c9.5,4.8,7.4,13.7,7.8,21c0.3,5-4.2,6.1-9.5,2.2
	c-0.4,2.3-0.6,4.1-0.9,5.5c-2.1,0-4.1,0-6.1,0c0.9,2.4,1.3,5.3,2.9,7c2.6,2.6,6,4.4,9.1,6.6c0.4-0.5,0.8-1,1.2-1.5
	c-1-1.4-2-2.9-3.8-5.5c4.9,0.6,8.9,1,13.2,1.5c-0.1,4.8-5.4,11,2.5,10.9c0.9,3.3,1.6,5.7,2.5,9.1c-2.5-1.8-4.8-3.4-7.2-5.1
	c-2.1,5.3,9.3,9.4,1.1,15.3c6.3,8,14.1,3,19.8,3.8c0.5,4.3,1,8.6,1.5,13.1c4,2.8,11.2,3.1,9.4,11.4c-0.2,1,3.7,3.1,5.9,4.3
	c2.7,1.4,5.6,2.4,8.3,3.5c-3.2,3.2-6.3,6.4-11.3,11.4c5.4-0.9,8.9-1.5,13.9-2.4c-1.7,5.1-2.8,8.3-3.9,11.6c-0.7,0-1.5-0.1-2.2-0.1
	c1.8,2.4,3.6,4.9,5.7,7.7c-2,1.4-4.1,2.8-6,4.2c-2-1.7-3.8-3.2-6.5-5.5c0.5,8.7,2.2,14.7,9.7,17.8c3.2,1.3,1.3,7.7-3.1,9.9
	c-2.5,1.2-5.2,1.9-8.4,3c-1-10.3-9.7-10.7-17.8-15.1c2.9,4.3,4.6,6.9,6.3,9.5c-0.7,0.4-1.4,0.8-2.1,1.2c-0.9-1.7-1.8-3.3-2.7-5
	c-0.3,0-0.7,0.1-1,0.1c0.2,1.6,0.5,3.2,0.8,5.1c-7.8-1.9-8.2-4.2-2.6-12c-6.6-4.3-7.3-3.4-9.2,10c-2.8-0.6-5.6-1.2-8.3-1.9
	c-1.1-0.3-2.1-1-3.9-1.9c-0.4,1.5-1,3.9-1.7,6.6c-1.1-0.7-2.4-1.6-3.9-2.5c-0.4,3.6-0.7,6.7-1,9.6c-4-2.4-7.5-6.1-11.1-6.2
	c-4,0-8,3.3-13.3,5.7c1.2-4.8,2.3-9.4,3.6-15c0.6,0.9,0.4,0.3,0.1,0.2c-1.4-0.3-2.8-0.4-4.1-0.5c-1.3,3.6-2.5,6.8-4,11
	c-2.1-1-4.8-2.4-8.4-4.2c-0.4,0.3-2,1.5-2.4,1.8c-6.4-0.8-11.7-1.5-17.3-2.3c1.6-5.2,2.9-9.7,4.2-14.1c-11.1-6.7-11.1-6.7-4.1-21.6
	c3.1-0.4,6.9,0.2,9.3-1.3c5.4-3.4,10-8,15-12c-0.4-0.6-0.8-1.2-1.1-1.8c-2.4,1.1-4.8,2.3-7.6,3.6c-2-9.5-9.6-3.7-13.9-4.3
	c-2.8-13.2,10.3-15.7,15.2-25c-2.8-1.6-5.5-3.2-8.3-4.8c-0.3,0.4-0.5,0.9-0.8,1.3c0.8,0.6,1.7,1.1,3.6,2.5c-6.7,0-11.9,0-17.5,0
	c0-3,0-6.3,0-9.5c-0.7-0.3-1.4-0.6-2.1-0.9c-1.7,2.2-3.4,4.3-5.1,6.5c-6.2,5.8-9.5-3.3-15.2-3.9c-1.9-0.2-4,0.6-5.9,1.3
	c-2.5,1-5.5,3.9-7.1,3.2c-5.6-2.4-9.2-0.6-12.3,3.7c-1.2-2.1-2.3-4-3.8-6.7c-3.9,8.5-4.6,8.8-9.1,3.3c-0.7,1.6-1.3,2.9-1.9,4.3
	c-2-1.6-3.8-3.1-6.2-5.1c0.2-1,0.6-3.2,1.5-7.5c-4.5,2.9-7.4,4.8-10.8,7c-0.3-1.2-0.7-2.4-0.9-3.6c-0.1-1,0-2.1-1.5-3.5
	c-0.6,1.7-1.1,3.4-1.9,5.7c-0.7-2.4-1.3-4.1-1.7-5.4c-2.4-0.5-4.7-0.9-8.7-1.6c5.2-1.4,8.3-2.3,11.4-3.1c-0.2-1.2-0.5-2.5-0.7-3.7
	c-3.8,0.6-9.2-0.2-11.2,2.1c-4.5,5.1-7.1,3.4-10.4-0.6c-1.2-1.4-2.7-2.6-4-4c-0.5,0.4-1,0.8-1.5,1.2c1.1,2.4,2.2,4.7,3.4,7.4
	c-1.7,1.3-3.5,2.6-5.3,3.9c0-0.4,0-0.9,0-1.3c-3.4,0.3-6.9,0.9-10.3,0.8c-2.5-0.1-5.1-1-9.1-1.8c1.6,2.9,3,5.6,4.5,8.3
	c3,5.5,8.4,5.8,13.7,7.2c3.3,0.9,5.9,4.5,8.9,7c-0.4,0.7-0.9,1.4-1.3,2.2c-4.9-1.3-9.8-2.5-15.1-3.9c0.4,1.7,0.8,3.6,1.5,6.3
	c-2.4-0.8-4.1-1.4-5.6-1.9c-4.3,2-1.5,12.3-10.6,7.7c0.3,4.6,0.5,8.3,0.7,12.1c-1.1-5.6-0.7-11.8-9.1-12.2c-4.5-0.2-6.6,1-7,5.6
	c-0.9,11.4-2.1,22.8-3,32.9c-4.7-0.3-9.7-0.7-14.9-1.1c0.3-0.5,0.5-1,0.7-1c13.2-0.6,13.1-0.6,13.8-14c0.3-5.5,0.8-11,1.4-16.4
	c0.3-3.1,2.9-6.5-1.9-8.5c-5.3-2.1-9.7-8.8-16.8-3c0.7,1.6,1.4,3.3,2.1,5c-6.9,2.2-13.6,4.5-12.8,13.7c-11.7,15.8-7,36.1-14.4,53.1
	c-1.7,3.9,0,9.4,0.5,14.1c1.8,16-1.4,31.4-5.4,46.7c-6.9,26.1-7.4,52.9-9.3,79.5c-0.5,6.7,2,13.5,2.8,20.4c0.6,4.9,1,10,0.8,14.9
	c-0.3,6.7,1.4,12.4,5.2,18.1c6.1,9,11.2,18.7,17.8,30c-46.7,0-91.1,0-136.8,0c1.6-3.1,2.5-6.6,4.7-9c8-8.7,10.8-18.4,11.5-30.4
	c1.1-21.6,4.9-43.1,7.5-64.7c0.8-6.2,2-12.3,1.9-18.5c0-4.5-2.1-8.9-2.6-13.5c-0.4-3.6-1.1-8.3,0.8-10.7c8.2-11.1,9.7-24,10.1-36.8
	c0.4-12.4,2.7-23.6,9-34.1c1.3-2.2,1.9-4.8,3-7.9c-3.4,0-6.4,0-11.1,0c3-3.5,5.2-6,7.9-9.1c-2.7,0-4.6,0-6.5,0
	c-0.4-0.5-0.8-1-1.3-1.6c2.3-1.8,4.6-3.7,6.8-5.4c-4.9-4.6-7.7-2.8-13.2,3c-2.8,3-4.5,5.1-4.3,8.7c0.1,1.8,1.2,3.5,2.2,6.1
	c1.1-0.8,2.7-2.1,5.9-4.5c-0.9,6.2-1.6,11.1-2.5,17.1c-2.7-1.2-4.9-2.2-7-3.1c-4.6,6.6-10.4,11.5-18.3,12.4c-1.6-1-3.6-3.1-5.5-3
	c-1.6,0.1-3.9,2.4-4.5,4.2c-1.5,4.6-4.2,3.1-7.3,2.4c-6.7-1.4-13.9-3.9-19.2,4.1c0.2-1.1,0.4-2.1,0.6-3.2c-0.5-0.3-0.9-0.6-1.4-0.8
	c-1.7,2.9-3.4,5.8-5.6,9.6c-2.3,0.8-6.3,2.2-10.9,3.8c-0.4-1.6-0.9-3.8-1.7-6.9c2.2,0,4.2,0.6,5-0.1c1.7-1.5,3.2-3.6,3.9-5.7
	c0.2-0.5-2.8-2.2-4.5-3.3c-1.4-0.9-3-1.6-5.2-2.7c0.6,2,1,3.4,1.4,5c-0.9-0.1-1.4,0-1.7-0.2c-3.7-2.4-7.4-4.9-11.2-7.1
	c-4.3-2.5-10.6-3.2-7.4-10.8c-7.4-2.7-5.7,3.7-7.6,8.5c-4.8-4.2-9-7.8-14.3-12.4c0.9,3.4,1.6,5.6,2.3,8.2c-1.4,0.6-2.8,1.1-5.6,2.2
	c2.5,2.1,4.4,3.6,6.6,5.4c-0.5,1-1.3,2.7-2.1,4.3c6.5,1.8,6.8,3.9,3.4,18.7c-4-2.5-7.8-5.3-12-7.4c-1.6-0.8-4.2-0.4-5.9,0.3
	c-4.7,2.1-7.6,8.3-14.4,6.2c-0.7-0.2-2,1.6-3.4,2.8c-1.3-1.5-2.7-3-3.3-3.6c0.9-3,1.8-5.1,2-7.3c0.1-0.5-3-2-3.3-1.7
	c-2.6,2.5-4.8,5.3-7.7,8.6c-5.1-1.9-9.4,1.4-13.8,5.8c-3,3.1-6.7,2.9-7.4-2.5c-0.7-5.4-3.2-8.8-11.1-9.6c2.6,2.4,4,3.6,5.3,4.8
	c-0.3,0.6-0.5,1.1-0.8,1.7c-4.1-2.2-8.1-4.5-12.2-6.7c0-0.4,0.1-0.9,0.1-1.3c2,0,4,0,6.5,0c-2.3-3.2-2.3-3.2-13.3-1.1
	c-1.9-3.9-3.8-7.8-5.7-11.7c-4.2,0.5-8.4,1.1-12.8,1.7c0.8-3.3,1.5-6,2.6-10.9c-4.7,4.6-6.8-2.1-11.2,0.9c-3.3,2.2-3.3,3.1-1.5,5.6
	c2,2.9,3.9,5.8,6.4,9.4c-2.8,0.9-4.9,1.6-7.4,2.5c1.4,4.2,2.1,8.8-4.4,9.8c0.8,4.4,1.4,8.3,2.4,13.7c-3-1-6.6-1.2-8.4-3.1
	c-4.4-4.6-9.4-2-15.1-3c2.4-7.3,4.9-14.8,7.4-22.5c-4.4-2.3-7.7-0.9-9.6,4.9c-0.4,1.4-3,2.5-4.8,3c-2.1,0.5-4.5,0.1-7.3,0.1
	c1.3,3.2,2.4,5.6,3.3,7.9c-2.4,2.2-4.5,4.2-6.4,5.9c-2.4-1.1-4.7-2.6-7.2-3.1c-0.5-0.1-1.8,2.9-3.6,6c-2-2.7-4-5.4-6.3-8.5
	c-0.4,1.6-1.2,4.2-1.9,6.8c-2-1.1-4.1-2.2-4.6-2.5c-2.1-6.7-3.9-12.3-6-18.7c-4.3,2.4-6.9,3.8-9.4,5.2c0.8,0.9,1.7,1.9,2.5,2.8
	c1.8-0.1,3.7-0.2,6.4-0.4c-3.7,4.6-6.8,8.3-10.3,12.6c-1.1-0.8-2.8-2-5-3.7c1.3-2,2.3-3.7,3.5-5.4c4-5.6-0.3-9.4-3.1-13.3
	c-0.6-0.8-4.7-0.3-5.9,0.9c-1.8,1.7-2.4,4.6-3.8,7.6c-2.7,1.2-8.1,1.3-5.7,7.8c0.2,0.7-1.4,2.8-2.4,3c-1.2,0.2-3.4-0.5-4-1.5
	c-1.7-2.7-3.3-5.7-4-8.8c-1.6-7.2-2.7-14.5-4-21.8c1.7-1.1,3.5-2.1,5.2-3.3c2-1.3,3.9-2.8,5.8-4.2c0.4,0.4,0.9,0.7,1.3,1.1
	c0.3-2,0.6-4,1.2-7.7c-2.9,1.6-4.7,2.5-7.1,3.8c0.3-1.7,0.3-4.3,0.8-4.4c3.9-0.8,7.9-1.2,11.9-1.7c-2.7-12.1-2.7-12.1-5.5-12.9
	c-0.4,3.7-0.8,7.3-1.2,10.8c-6.6-0.5-12.3-0.8-19.7-1.3c3.3,2.6,5.4,5.2,8.1,6c5.8,1.9,4.5,4.4,1.9,8c-1.2,1.7-1.7,3.9-2.6,5.9
	c-1.9-0.5-3.8-1-7-1.8c-1-1,2.9-7.3-4.1-6.3c2.2-0.7,4.4-1.4,6.6-2.2c-0.4-0.9-0.6-1.6-0.7-1.6c-5.3-0.1-9.8,0.3-7.9-8.1
	c1.1-4.7-1.4-10.3-2.7-17.6c-5.6,7-10.5,13.1-16.1,20.1c0,0-1.9-0.8-3.9-1.6c-2.4,3.9-4.8,7.8-7.3,12.1c-4.6-2.5-11,1.3-15.9-3.4
	c-0.4-0.4-3.9,2.6-7.1,4.8c3.3-7,4.9-13-2.2-18.3c2.8,0.9,5.7,1.7,8.5,2.6c-5.9-4.8-2.8-8.2,2-11.2c-1.9-1.5-3.5-2.7-6.2-4.8
	c2.7-1.4,5.1-1.9,6.3-3.4c0.8-1.1,0-3.5-0.2-6.4c6.7-7.1,7.6-10.6,3.2-19c5.2-1.8,10.2-3.6,15.3-5.4c5.2-1-0.2-11.7,10.3-9.7
	c-2.5,5.4-0.8,8.7,4.1,8.8c-2.5,5.4-5,10.9-8.5,18.4c8.8-3.5,17.8,0.8,23.7-10c-3.4,1.1-5.1,1.6-7.7,2.5c-9.2-9.7-1.7-21.5-0.5-33.6
	c-3,0.7-5,1.2-7,1.7c-0.2-0.3-0.4-0.7-0.6-1c1.6-1.1,3.2-2.3,4.8-3.4c-0.8-1-1.5-1.9-2.1-2.7c3-1.2,5.6-2.2,8.5-3.4
	c3,1.5,6.5,3.3,10,5c-5.8-5.4-1.2-9.8,0.6-14.8c1.8,0.5,3.5,0.9,4,1.1c2.6-5,4.9-9.6,7.9-15.4c-3.5,1.9-6,3.2-9.8,5.2
	c2.9-6.1,5.4-11.3,7.9-16.3c-5-2.2-9.5-4.2-15.8-7c2.5-6.7,5.3-14,7.8-20.7c-1.1,0.3-3.8,1.2-6.4,2c-0.3-4-0.6-7.4-1-12
	c2.5,1.1,5.1,2.3,7.4,3.3c5.5-2.7,11.1-5.3,16.7-8.1c0.9-0.5,2.2-1.6,2.2-2.3c-0.1-9.9,7.6-10.9,14.4-13c0.5-0.1,1.1-0.2,1.3-0.6
	c5.3-8.4,13.8-5.2,21.2-5.8c2.3-0.2,4.7,0.7,7,0.5c2.6-0.2,5.1-1.2,7.7-1.8c-1.2-1.5-2.5-2.9-3.6-4.5c-0.5-0.8-0.6-1.9-1-3.4
	c-1,1.9-1.6,3.1-2.9,5.4c-2.3-4.9-3.6-7.8-5.1-11.1c2.5-1,4.5-1.8,7.1-2.8c-1.3-0.8-2.2-1.3-3.2-1.8c3.8-3.7,13.2,1.8,13.6-8.4
	c1.1,2,2.1,4.1,3.3,6.5c-1.8,0.8-3.5,1.5-5.3,2.3c0,0.5,0.1,1,0.1,1.5c2.7,0,5.4,0,8,0c7-0.1,14.1,0.1,21.1-0.4
	c1.9-0.1,3.7-2.1,6.9-4.2c-3.8-1.5-5.8-1.7-7.1-2.9c-1-0.9-1.4-2.8-1.6-4.2c0-0.4,2.1-0.8,2.8-1.6c0.8-0.9,1.9-3.1,1.6-3.3
	c-2.4-2.1-5.1-3.9-8.4-6.3c3.7-0.6,6.9-1.2,10.7-1.8c-0.9-2.5-1.7-4.7-2.7-7.4c4.1-1.1,8-6.5,12.5,0.5c0.3,0.5,4.9-1.8,7.5-2.9
	c1.7-0.7,3.4-1.6,5.7-1.2c-2.3,1.9-4.7,3.8-7,5.7c0.2,0.8,0.4,1.6,0.5,2.4c9-5,14.2,0.7,20,5.9c1.7-1.7,3.2-3.1,5.5-5.2
	c-2.6,0-4.1,0-6.6,0c1.5-2.6,2.7-4.6,4.3-7.3c-2.1,0.3-3.8,0.5-6.7,0.9c2.1-2.5,3.7-4.3,5.6-6.5c-1.3-0.8-2.5-1.6-4-2.5
	c2.4-2.6,4.8-5.2,7.1-7.7c-0.4-0.5-0.7-1-1.1-1.5c-2.9,1.1-5.8,2.2-7.5,2.8c0.5-3,0.6-5.6,1.6-7.8c0.5-1.1,2.7-1.4,4.1-2
	c3.7,0.9,7.4,1.8,12.4,3.1c-3.6-8.6-4.5-8.6-12.5-2.9c0.1-0.2,0.4-0.6,0.3-0.6c-5-4.6-5.7-11.4-8.4-19c-2.9,4.2-5,7.2-7.1,10.3
	c-1.1-0.6-2.1-1.2-3.2-1.8c1.5-6.2,3-12.3,4.8-20c-3.9,1.2-6.2,2-7.3,2.4c-3.1-5.3-6.1-10.3-9.6-16.3c1.8-3.5,4.1-8.1,6.5-12.7
	c-6,3.1-11.9,6.2-18,9.4c-0.5-1.5-1.2-3.4-1.7-4.6c7.1-6.5,14-12.9,21.3-19.6c-1.9-1-4.7-2.4-7.5-3.8c0.2-2.8,0.4-5.6,0.6-9.1
	c-3.3,2.8-4.4,2.6-7.6,1.2c-1.4-0.6-3.6,0.1-5.3,0.7c-6.6,2.2-12.8,2.6-20.1,1.6c-8.3-1.2-17.3,2-26,3.7c-10.7,2.1-21.6,3.9-32,7.2
	c-4.3,1.4-7.9,6-11.1,9.7c-4.2,4.7-7.8,10-11.5,15.1c-1,1.5-1.4,3.4-2.3,5.6c-3.6,1.3-8.1,3-13.2,4.9c0.8,1.2,1.5,2.3,2.3,3.4
	c-10.4-1.1-15.5,6.3-21.5,12.1c0.2,0.6,0.5,1.2,0.7,1.8c3.4-0.8,6.8-1.7,10.2-2.5c0.2,1.1,0.4,2.3,0.6,3.4
	c-6.1,1.4-12.1,2.7-19.1,4.3c0.2,1,0.4,2.8,0.6,3.9c4.2-0.2,7.5-0.4,10.9-0.6c0.3,0.6,0.5,1.2,0.8,1.7c-3.5,3.4-6.9,6.8-10.8,10.6
	c-2.1-2.4-4.6-5.2-6.9-7.9c-2.1,0.4-5,0.9-8.7,1.5c0.1-0.2-0.3,1-0.6,2.3c-6.9-1-12.1-4.5-14.5-10.6c-1.1-2.7-0.5-8.2,1.4-9.5
	c4.2-3,3.5-5.2,1.6-8.8c-2.7-5.4,1.1-15,6.9-16.1c2.5-0.5,5.5,2.3,8.3,3.6c-6.5-2.2-2.4,4.6-4.7,4.7c6.4,2.3,14.2,3.5,18,8
	c4.5,5.3,7.5,1.9,13.8,1.9c-3.8-4.5-6.4-7.4-9.5-11.1c-3.3,6.8-7.5,5.2-11.6,2.1c-2.3-1.7-4.2-3.9-6.2-5.8c4.4-8.2,9.1-16.3,13-24.7
	c1.5-3.2,0.4-7.5,1.7-10.8c1.1-2.8,3.4-6,6-7.2c3.3-1.5,7.4-1.1,11.1-1.6c0-0.9,0-1.8,0-2.7c-4-0.5-7.9-0.9-11.8-1.4
	c2.2-7.3,4.5-14.9,7.3-24c1.8,2.6,3.2,4.6,4.8,6.7c2.8-0.2,6-0.4,9.2-0.6c-1.8,0.9-3.6,1.8-5.8,2.9c3.1,3.5,4.4,10,12.6,2.6
	c-9.3,3.2-4.4-3.8-7-5.4c2.8-0.1,5.6-0.2,8.4-0.3c-0.3,4.3-0.6,8.5-1,14c0.9,1,3,3.3,5,5.5c-1.8,3.5-3.5,7.1-5.3,10.6
	c0.4,0.5,0.8,1,1.3,1.5c2.8-1.7,5.6-3.3,8.1-4.8c-1.6-2.9-2.9-5.1-4.1-7.3c6.2,2.4,12.3,4.9,19.5,7.7c0.6-0.4,2.2-1.8,4.1-2.5
	c1.3-0.5,4-0.6,4.3,0c4.8,9.9,13.6,6.3,20.7,5.5c8.9-1,17.6-3.8,27.4-6c-1-3.9-2-7.9-3.1-11.9c-0.2-0.9-0.9-2.3-1.4-2.3
	c-8.4,0.1-7.4-7.2-9.6-12c-0.3-0.7-0.5-1.4-0.8-2c-0.2-0.4-0.7-0.6-1.1-0.8c-11.6,9.3-19.2,7.1-22-6.2c-13.8,0.1-21-3.1-23.4-11.3
	c-5.4,1-10.9,1.9-16.2,2.9c0-0.2,0.1-1.2,0.2-2.3c-2.3,0.7-4.6,1.4-6.9,2c-0.8-0.8-1.8-2.5-2.4-2.3c-5.7,1.5-11.3,3.2-16.9,5
	c-0.6,0.2-1.1,0.6-1.8,1c1.8,1.7,3.2,2.9,3.1,2.9c6-2.4,10.8-4.2,15.7-6.1c-0.6,2.7-0.6,4.8-5.2,4.4c-3.7-0.3-7.8,3.2-11.7,5.2
	c-1.4,0.7-2.6,1.6-4.5,2.7c0,0.2,0.1,1.6,0.1,3.1c-1.6-1.1-3.1-2.2-5.6-3.9c0.2,2.3,0.4,4.2,0.7,7.4c-4.8,6.3-9.3-3-15.8-2.5
	c1.4,2.4,2.5,4.4,3.6,6.3c-0.6-0.2-1.2-0.5-1.8-0.7c-1.7,6.2-3.4,12.4-5.1,18.9c-5.5-0.1-11.6-8.3-11.1-18.5c-3,1-5.8,1.9-8.8,2.9
	c-0.3-1.1-0.6-2.3-1.2-4.9c-2.1,2.6-5.3,5.3-4.8,6.2c1.9,3.8-1,6.2-2.6,7.5c-4.5,3.7-9.8,6.4-14.8,9.5c-1.4-3.3-2.9-6.7-4.3-10
	c-2.7-3.2-10.6-4.4-1.9-11.3c-4.7-10.7,5.3-15,9.1-22c6.4,3.5,15.8-1.3,21-8.4c1.7,1,3.5,2,5.6,3.2c-1.2,0.9-2.4,1.8-3.5,2.6
	c2.3,3.5,7.9,0.6,12.2-5.8c-15.1-2.2-17.5-4.3-13.6-11.2c-1.6-4-2.9-7.4-4.3-10.9c0.6-0.4,1.2-0.7,1.8-1.1c-2.6-0.3-5.3-1.3-7.7-0.8
	c-2.3,0.4-4.3,2.3-7.6,4.2c0-5.1,0-8.7,0-12.3c-0.8-0.1-1.5-0.2-2.3-0.3c-0.7,4.4-1.5,8.7-2.4,13.8c-7.7-8.3-2.1-17.2-4-25.2
	c0.8,0.3,1.5,0.5,2.3,0.8c1-2.1,1.8-4.2,2.9-6.1c1.1-1.9,2.4-3.6,3.6-5.4c4.8,3.6,11.2,1,10.8-5.1c-0.4-6.1,2.9-7.3,6.8-9.2
	c0.7-0.3,0.9-1.6,1.7-3c3.8,5.1,6.8,9.1,9.8,13.1c1.6-2.2,3.3,2.7,6.3-0.7c3.7-4.3,10.1-6.3,15.3-9.2c5.3-3,10.6-5.9,16.9-9.4
	c0,0.1-0.3-2.1,0.7-3.5c1.1-1.7,3.3-2.7,5-4c0.7,2,2.5,4.6,1.9,5.9c-1.7,3.3-4.5,6-7.4,9.6c0.3,1.2,1.1,4.2,2.1,8.3
	c2.6-4,4.4-7.3,6.8-10.1c4.5-5.3,9.7-1.8,14,0.1c6.1,2.7,11.3,4.6,17.6,0c2.1-1.6,6.7,0.1,10.1,0.4c5.8,0.6,11.7,1.1,17.5,2
	c0.8,0.1,1.4,1.9,2.4,3.4c-1.7,0.2-2.1,0.3-2.5,0.2c-2.6-0.4-5.3-0.9-7.9-1.4c2.2,2.3,3.9,5.3,6.5,6.8c3.5,2,7.7,3.1,11.7,3.8
	c2.5,0.5,5.2-0.3,9.1-0.7c-2.3-3-3.3-4.4-4.4-5.8c10.5,4.3,19.8,0.6,29.3-2.9c2.6-9.3,13.5-22.6,26.3-31.6c-1.8-0.5-3.2-0.8-5.5-1.4
	c7.4-1.8,5.4-5.4,2-10.7c3.4,0.7,6.9,0.5,7.8,1.9c1.1,1.7,0,4.8-0.3,8.6c5.4-2.8,11-5.7,16.5-8.6c0.4,0.5,0.7,1,1.1,1.4
	c-1.1,1.2-2.2,2.5-3.3,3.7c3.8,0.8,7.5,1.6,13.5,2.9c-2.9-3.2-4.3-4.8-7-7.9c3.8,0.4,6.3,1,8.9,0.9c2.2-0.1,4.4-0.6,6.5-1.3
	c3.8-1.2,7.6-2.7,11.4-4.1c0.6-0.2,1.8-0.5,1.8-0.9c0.5-7.9,6.8-3.1,10.1-4.3c3.6-1.3,8.1-0.3,13-0.3c-1.4-2.7-2.3-4.4-3.4-6.7
	c2.1,0,3.8-0.4,5.3,0.1c4.5,1.5,6.8,0.3,10.1-3.6c3.4-4,9.4-5.7,14.1-8.3c-3.6-2.3-8.3-5.4-13-8.4c6,2.1,12,4.2,18.1,6.3
	c-4.6-8.9-11.1-10.5-17.9-6.1c-5.5-0.4-10.2,0.7-14.2,4.9c-1.2,1.3-4.6,1.3-6.7,0.8c-4.8-1.1-10.5,2.4-11.1,7.2
	c-2.1-0.8-4.4-1.6-6.6-2.4c0.3,0.8,0.6,1.7,0.9,2.5c-1.5,1.2-4,3.8-4.5,3.4c-7.3-4.6-10,0.1-12.5,5.3c-5.6,1.2-9.1-5.7-15.1-3.9
	c-0.2,0.1-1.2-1.1-1.1-1.6c0.4-1.7,1-3.3,1.8-4.8c0.4-0.6,1.5-0.9,2.1-2.6c-3.1,0-6.2,0-9.3,0c0-0.8-0.1-1.6-0.1-2.4
	c3-0.2,6-0.5,8.9-0.7c1.6-6.1,2.8-12.2,5.1-18c0.4-1.1,4.8-0.7,7.3-1c-1-1.5-2.2-3.3-3.8-5.6c3.8-1.1,6.8-2,10.1-2.9
	c-3.4-2.1-6.6-4.1-10.6-6.6c-1,0.2-3.3,0.7-5.5,1.2c-1.5-4.1-1.8-8.8-4.3-10.9c-2.6-2.1-7.4-1.5-11.2-2.3c-1.2-0.3-2.6-0.8-3.5-1.7
	c-4.2-3.6-8.8-3.2-15.3,1.7c1.3,0.3,2.3,0.6,1.8,0.4c-1,4.6-2,9.2-3.2,14.3c-13.4,2-13.4,2-18.7-0.8c0.4-1.5,0.8-2.9,1.5-5.4
	c-8.5,3.4-16,6.4-24.8,10c0.3-4.8,1.4-9.7,0.8-14.3c-0.6-4.3-3.2-8.4-4.8-12.6c2.6-0.6,5.4-1,7.8-2.1c0.8-0.3,0.8-2.5,1.2-3.8
	c-3.4-0.7-6.7-1.3-10.1-2c-0.1,2.2-0.1,4.4-0.2,6.5c-4.1,0.5-8.3,0.9-12.4,1.4c0,0.6-0.1,1.1-0.1,1.7c2.3,0.3,4.6,0.7,8.9,1.3
	c-2.7,2.7-4.5,4.5-6.3,6.3c-0.5-0.4-0.9-0.8-1.4-1.2c0.4-1.1,0.8-2.3,1-2.6c-4.2-1.4-8.3-2.7-12.4-4c0.2-0.8,0.4-1.5,0.6-2.3
	c1.3,0,2.6,0,4.3,0c-0.4-1.6-0.7-3.1-1.3-5.9c4.1,1.5,7.3,2.6,9.2,3.3c3.3-2,6.5-3.5,9.2-5.7c1.8-1.5,2.7-4,4.4-5.7
	c2.3-2.2,5.1-4,8.4-6.6c-1.4-0.9-3.5-2.3-6.1-4c0.2-0.8,0.5-2.2,1.2-5.7c-3.6,2.4-5.9,3.8-8.1,5.3c-0.5-0.2-1.1-0.4-1.6-0.7
	c3.4-7.8,6.9-15.6,10.7-24.3c4.9-1.5,12.4,5.2,16.6-3.8c-1.2-3.9,2.1-7.8,8.9-8.6c4.3-0.5,7.5-1.6,7.8-6.7c4.1,0.7,8.2,1,12.1,2.3
	c1.4,0.5,2.3,3.2,3,5c2.2,6,4.1,12.2,12.8,8.3c1.6-0.7,3.7-0.1,4.2-0.1c3,4,5.3,7,8,10.6c-3,0.6-5.5,1.1-8,1.7c2.2,4,4.1,7.5,6,11.2
	c7.7-5.6,8.8,2.9,11.5,5.1c-0.8,2.2-1.5,4.1-2.3,6.3c3.9,0.3,6.7,0.5,9.5,0.7c2.5-7.6,9.1-10.1,16-11.9c6.1-1.6,12-2.2,13.4-10.5
	c0.4-2.6,6-4.3,9.1-6.6c2.1-1.5,4-3.2,5.5-4.4c-0.9-3.1-1.8-6-2.8-9.3c-5.6-1.4-6.5-4.5-1.7-9.7c-6.4-2.1-6-6.6-3.6-11.6
	c3.5-0.4,7.7-0.9,12-1.4c0.8-1.7,1.6-3.6,2.6-5.7c-1.1-0.7-2.5-1.6-5.5-3.6c3-1.4,5.1-2.5,7.4-3.4c1.5-0.5,3.2-0.4,4.6-1
	c6.1-2.6,9.2-1.7,7,5.8c-0.6,1.9-1.7,3.8-1.9,5.8c-0.2,2.1,0.5,4.3,0.8,7.1c1.7-0.1,3.7-0.2,6.7-0.3c0-4,0.5-7.8-0.1-11.4
	c-0.7-3.8-0.2-4.7,3.9-5.4c2.8-0.5,5-4.1,9.1-7.8c-3.7,0-5.9,0-8.3,0c0.7-3.9,1.5-7.9,2.3-12.8c6.1-0.3,12.9-0.7,19-1
	c0.5,2.7,0.8,4.7,1.3,7.2c-5.1,3.8-4.7,10.1,1.7,13.3c0.8,0.4,1.7,1.2,2,2c4.1,9.7,13.7,7.6,21.8,11.6c0-3.5,0-5.4,0-8.2
	c2.2,4,4,7,5.7,10c-0.7,0.1-1.7,0.2-2.8,0.4c1.7,3.9,10.4-2.6,8,4.9c3.7,0.8,7.1,1.6,10.5,2.4c0.4,0.1,1.2,0.5,1.2,0.7
	c-1.4,7.6,6.9,10.3,8.2,16.5c0.1,0.6-0.1,1.4-0.3,2.9c-1.2-1.4-1.9-2.3-3.1-3.6c-0.9,1.8-1.8,3.4-3,5.7c2.7,0.2,5.2,1,7.1,0.2
	c2.7-1.1,5-3.4,7.5-5.2c-0.2-0.8-0.3-1.6-0.5-2.3c3.8,1.9,7.5,3.7,9.9,4.9c3.9-3.8,7.9-7.3,11.4-11.2c1.5-1.7,2-4.2,2.9-6.3
	c-0.5-0.7-1.1-1.3-1.6-2c4.2,1,8.3,1.9,12.4,3.1c0.1,0-0.7,2.9-1.1,4.7c7.3,1.9,8.6-4,11.5-9c-4.1-1.3-7.7-2.5-11.5-3.7
	c1.2-7.5,14.9-11.6,26.1-6.7c-0.4,2-0.8,4-1.2,6.1c5.3-1.2,12.4-16.2,10.6-23c6.3,0.2,12-6.3,18.4-1.3c-1.7,3.8-3.3,7.2-5.3,11.7
	c8.1-1,15.1-1.8,22-2.6c-0.3-0.6-0.6-1.2-0.9-1.8c2.7-1.6,5.1-3.9,8-4.7c3.9-1.2,8-1.6,12.1-1.8c2.9-0.2,6.5-0.3,6.3,4.4
	c0,0.6,0.4,1.6,0.8,1.9c3.3,1.7,6.6,3.2,10,4.8c0-2.7,0-5.4,0-8.7c9.2-3.8,3.6,9.1,7.9,9c-1.1,2.8-2.1,5.5-3.1,8.1
	c2.4,0.7,4.8,1.3,7.2,2.2c4.7,1.8,11.8-2.3,13.4,6.8c1.9-4.7,1.9-4.7-8.7-9.4c3,0.1,6-4.9,9,0.6c0.5,0.9,3,0.9,4.5,0.8
	c2.1-0.1,4.3-1.4,6.1-0.9c3.9,0.9,6.2,0.9,8.9-3c1.5-2.2,7.1-3.1,10.2-2.3c7.9,2,15.5,5.3,23.5,8.2c2.5-6,5-9.6,11.1-6.1
	c1.2,0.7,3.8-0.7,6-1.3c0,1.7,0,3.8,0,6.4c9.1-0.5,17.9-0.9,27.1-1.4c-0.2,1.4-0.4,2.8-0.7,5.1c6.1,0,12,0,16.8,0
	c-1-2.6-2.4-6.3-4.2-11c4.6,0.6,7.3,0.9,12,1.4c-2.9,1.3-4.1,1.8-5.8,2.6c7.4,3.7,14,2.7,19.5-1.3c-0.2-3.3-1-6.5-0.3-9.3
	c0.6-2.4,2.8-4.5,4.7-7.3c1.3,0.3,4,0.9,7.1,1.6c-5,3.1-5,3.7,0.7,6.9c-0.4,1-1,2-1.3,3.1c-0.3,1.1-0.3,2.4-0.4,3.6
	c5.8-0.4,8.4,3,7,8.9c7.3-1,9.3-3.5,7.7-10.5c4.3,1,9.1-1.1,12.1,4.7c0.6,1.1,5.6,4.4,11.8,2.2c7.4-2.6,15.8-3.1,23.3-7.2
	c1-0.5,3.8,2.3,7,4.4c-4,1.3-7.8,2.5-12.6,4.1c2.8,1.1,5.7,2.5,8.7,3.3c3.8,1.1,5.9,2.7,4.4,5.9c5.6,1.5,11.4,3.3,17.3,4.6
	c1.2,0.3,2.9-1.5,4.4-2.4c-0.3-0.7-0.6-1.4-0.9-2.1c1.8,0.2,3.6,0.5,5.4,0.7c0.3,0.6,0.6,1.2,0.9,1.8c-2.9,1.9-5.9,3.7-9.9,6.2
	c6.2,0.4,12.2,0.5,18.1,1.4c2.2,0.3,4.2,2.4,6.4,3.6c2.9,1.7,5.8,3.9,8.9,4.7c1,0.3,3-3,5.6-5.8c1.4,0.2,4.6,0.5,7.9,0.9
	c0,5.8,8.1,9.6,3.6,15.3c2.5,1.1,4.6,2.3,6.8,2.8c3.2,0.8,6.6,1.9,9.8,1.5c12-1.5,23.5,2.3,35.3,2.4c3.1,0,6.2-3.1,9.1-4.7
	c-1.2-3.5-2.2-6.4-3.7-10.7c5.1-4.8,12.9-6.1,21.1-5c2.7,0.3,3.9,1.8,6.3-1.8c3.1-4.5,8-3,9.8,2c0.4,1.1-0.6,2.6-1.1,4.2
	c1,0.2,2.8,0.5,4.4,1c1.5,0.5,3,1.3,6.2,2.7c-3.6,1.1-5.6,1.8-7.9,2.5c4.6,3.8,9.1,7.2,13.2,11c2.5,2.4,5.1,5.2,6.1,8.4
	c0.8,2.4-0.8,5.5-1.5,9.4c3.7,1.6,8.2,5.1,12.6,5c4.5-0.1,8.8-3.8,14.6-6.6c-3.9-1.3-6.9-2.2-11-3.5c2.5-1.5,4.1-2.3,5.5-3.4
	c1.7-1.3,3.2-2.7,4.8-4.1c-1.7-1.3-3.2-3-5.1-3.8c-4.1-1.9-8.3-3.7-12.7-4.8c-2.5-0.6-5.3,0.4-10,0.8c7.2-6.9,13.2-13.3,19.9-18.8
	c2.2-1.8,6.5-1.4,9.8-1.2c6.2,0.3,9.2-1.4,14.5-5.2c2.9-2.1,7.5-1.7,12.7-2.7c-3,3.6-5,6-7,8.5c4.7,3.4,8.8,6.8,13.3,9.4
	c2.6,1.5,6.2,1.1,9.1,2.2c2.1,0.8,4.6,2.3,5.5,4.1c0.8,1.8-0.2,4.4-0.5,7.8c10.6,0.4,12.1,10.7,15.1,18.2c-1.8,4.1-3.3,7.3-5,11.2
	c-1.5-1.9-2.7-3.3-4.6-5.6c-0.2,2.4-0.4,3.6-0.4,4.2c-5.4-0.7-10.6-1.5-15.9-2.2c-0.2,0.4-0.4,0.7-0.6,1.1c2.2,1.3,4.3,2.7,6.5,4
	c-5.2,7.5-5.2,7.5-0.3,13.2c2.1-2.9,4.1-5.6,6.8-9.3c5.3,0.6,11.7,0.9,17.9,2.3c2,0.5,4.9,4.3,4.6,6c-1,4.8-2.3,11.5-5.7,13.4
	c-3.6,2-9.8-0.8-14.8-1.3c-2.1-0.2-5-0.6-6.2,0.5c-3.3,3.2-5.1,1.5-8.4-0.2c-7.9-4.1-15.1-9.2-25.6-8.5c-6.9,0.5-9.4,6.2-15,7.1
	c-0.6,0.1-0.7,3.1-1.2,5.8c2.2-2,3.4-3.1,4.5-4.1c1,1.6,2,3.2,3.3,5.3c1.3-1.8,2.4-3.3,3.4-4.8c3.6,3.5,7.3,7,12.1,11.6
	c0-4.5-0.5-6.9,0.2-8.9c0.2-0.7,3.7-1,5.1-0.3c2.1,1.1,3.7,3.3,5.5,5c-1.8,2.4-3.9,5.1-5.2,6.8c-3.1,0.3-5.6,0.9-8.1,0.8
	c-2.7-0.1-5.5-0.8-8.2-1.2c-1.7-0.3-3.5-0.7-5.2-1c1,1.5,1.9,3.1,2.9,4.5c0.5,0.7,1.3,1.1,2.5,2.2c-1.5,0.8-2.7,1.4-3.8,2
	c0,0.6,0.1,1.3,0.1,1.9c2.8,0.2,5.7-0.2,8.3,0.6c2.5,0.8,4.8,2.6,8.9,5c-5.3,1.4-8.9,2.6-4.4,8.9c-4.3-2.4-6.3-3.5-8.4-4.7
	c-2,2.1-4,4.2-7,7.4c3.6-0.4,5.9-0.7,9.2-1.1c-2.5,3.4-4.4,5.9-6.9,9.2c-0.9-0.2-2.8-0.7-5-1.3c-0.8,1.4-1.7,2.9-2,3.4
	c-3.4-1.3-6-2.3-8.6-3.3c-0.8-0.3-1.7-0.8-2.2-1.5c-5.1-6.4-5.1-6.5-12.3-2.5c3.9,2.2,8,4.5,12.2,6.8c-0.2,0.5-0.4,1-0.6,1.5
	c-1.3-0.3-2.6-0.5-5.5-1.1c0.9,4.5,1.7,8.5,2.7,12.9c-2.6-1.4-5.6-2.9-8.5-4.4c0.1,0.7,0.2,1.3,0.3,2c-3.3,0.7-6.7,1.1-9.8,2.2
	c-3.5,1.3-6.8,3.2-10.2,4.8c-1.6-3.4-3-6.2-4.9-10.1c3-1.7,6.5-3.6,10.6-5.9c-1.1-4.7-2.1-9.7-3.5-14.6c-0.3-1-2.1-1.6-3.2-2.5
	c-0.6,1.2-1.1,2.4-2.4,5.1c-2.2-2.9-5.9-5.8-5.4-7.4c1.4-4.5,4.6-8.5,7.2-13c-1.1-0.3-3.6-0.9-6.5-1.7c0.3-1.3,0.7-2.9,1.2-4.9
	c-3.7,0.1-5.7,10.9-9.6,2.6c0.6-3.6,1.1-6.4,1.5-9.3c-0.6-0.3-1.2-0.6-1.8-0.9c3-2.1,6.1-4,8.9-6.3c1.1-0.9,2.3-3.4,1.9-4
	c-1.3-1.8-3.2-3.8-5.3-4.3c-12.2-3.1-24.6-5.8-37.3-8.8c0.6,1.4,1.3,3.1,2.8,6.7c-17.6-6.9-28.9,2.7-40.9,12.9
	c7.2,3.4,13.4,7.5,20.2,9.1c2.9,0.7,9.8,2.1,10.8-5.3c3.2,0.2,6.5,0.5,10.8,0.8c-1.6,4.6-2.9,8.5-4.6,13.5c1.9-0.6,4.7-1,7.1-2.2
	c1-0.5,1.2-2.8,2.1-5.4c2.1,0.3,5.4,0.9,10.9,1.8c-4,2.7-6.3,4.2-9.6,6.4c2.4,0.5,3.8,0.8,5.6,1.2c-0.7,2.2-1.7,4.1-1.8,6.1
	c-0.1,3.1,0.5,6.2,0.8,9.3c3.6-0.8,9.1-0.3,10.5-2.5c3.1-4.7,5.8-0.6,8.5-1.1c0.2,2.2,5.8,3.5,1.1,6.7c-0.6,0.4,0.3,3,0.5,5.1
	c-1.9-0.3-3.5-0.5-5.8-0.9c1.4,7.3,2.7,13.8,3.9,20c-2.7,1.1-6.3,2.5-9.9,3.9c1.5,1.9,2.9,3.8,4.6,6c-0.5,0.5-1.4,1.5-3,3.2
	c3.9,0.7,7.1,1.2,10.4,1.8c-0.5-2.7-0.9-5-1.4-7.6c4,0,8,0.8,11.4-0.2c6-1.8,9.7,1,13.8,4.3c1.3,1,3.5,1.6,5.1,1.2
	c4.3-0.8,8.5-2,12.6-3.5c6-2.2,9-7.6,12.7-13.7c2.7,2.3,5.3,4.5,7.8,6.8c3.6,3.3,8.8,2,11.5-2.4c0.9-1.4,3.6-2.7,5.1-2.4
	c2.7,0.5,5.1,2.3,8.4,3.9c-0.2-1.5-0.4-4-0.7-7c3.8,0,8.4,0,13.3,0c0.5,1.4,1.1,3.1,1.5,4c9.7,0,18.9,0,27.5,0
	c2.5,9.5,2.9,19.3,13.3,26.3c-1.1-3.4-1.7-5.2-2.9-9c4.1,3.1,6.8,5.1,10.4,7.8c-3.2,3.9-6.4,7.7-9.6,11.5c1.1,1.1,2.1,2,3,2.8
	c-1.2,0.3-2.6,0.2-3.7,0.8c-2.1,1.1-4.1,2.6-5.9,3.8c-1.4-3.3-2.6-6.1-3.8-8.9c-3.1,6.8-5.6,12.2-8.3,17.9c0.8,0,2.5,0,4.8,0
	c-0.7,1.8-1.3,3.2-2.1,5.2c2.5,0.9,4.8,1.7,9.7,3.3c-6.1,2.7-10.4,4.6-15.1,6.7c0.3,0.4,1.2,1.5,1.5,2c-5,2.2-10,4.4-13.6,5.9
	c-1.8-2.7-3.2-6.8-5.1-7.1c-6.6-1.1-13.4-0.8-20.2-1c-0.4,0-0.9,0.7-1.3,0.6c-14.4-3.6-15,11.5-23,15.9c2.9,5.8,11.3,7.3,8.9,15.6
	c-0.2,0.9,2.6,5.6,7.3,4.1c6.2-2.1,8.8,2.2,10.7,7.4c2-0.8,4.4-1.8,7.5-3c-2.2-1.3-4-2.3-6-3.4c1-1.3,1.9-2.6,2.9-3.9
	c7.8,5.9,14.6,14.1,27.2,9.4c-3.1-0.7-5.3-1.1-7.6-1.6c0-0.5,0-1.1,0-1.6c4.3,0,8.7,0,13.3,0c1-3.1,2.2-6.7,3.5-10.7
	c-1.8-0.4-4.1-0.9-6.4-1.3c0-0.5,0.1-0.9,0.1-1.4c7.6,0,15.3-0.6,22.8,0.2c6.2,0.6,14.8-5.9,14.6-12.6c4.6,0,9.3-1.8,11.7,5.3
	c0.9,2.6,7,3.5,10.7,5.1c-1.2,2.1-2.1,3.6-3.5,6c0,0-1.9-0.6-3.9-1.2c-4.5,2.8-0.6,16,6,20c-4.6,1.9-9.2,4.5-13.9,0
	c-1.6,2.7-3.1,5.4-4.7,8.1c0.5,0.4,1,0.9,1.5,1.3c-2.2,0.3-4.3,0.6-6.5,1c-0.1,0.6-0.2,1.1-0.4,1.7c6,1.4,12,2.6,17.8,4.4
	c4,1.2,7.8,3.2,11.7,4.8c-0.2,0.9-0.4,1.9-0.6,2.8c-2.7-0.2-5.4-0.4-8.9-0.6c6.4,4.5,12.5,8.7,19,13.3c0.9-4,1.5-7.8,7.5-5.2
	c3.4,1.5,8-0.1,11.9,0.3c1.7,0.2,3.2,2.1,4.8,3.3c-1.4,0.8-2.8,1.4-4,2.4c-2.2,1.8-4.1,3.8-7.6,6.9c2.5,0.9,4.3,1.6,6,2.3
	c-0.4,0.5-0.7,1-1.1,1.6c-1.9,0-3.9,0-5.9,0c4.4,5.3,8.6,10.3,14.2,17c2.7,0.4,8.2-1,12.2,5.2c3.9,6.1,1.7,7.1-3.5,8
	c-0.9,0.2-1.6,0.7-2.8,3c2.8,0.6,6.9,2.7,8,1.7c5.4-5.3,7.4,0.4,11,2.5c-1.2,1.1-2.1,1.9-2.3,2c1.8,3.2,3.3,5.9,4,7.2
	c3.9,0.7,8,0.3,10.3,2.2c2.2,1.9,4,6.4,3.3,9.1c-1.1,4.2-4.4,7.4-10,6.6c-1.8-0.2-5.2,1.9-5.5,3.3c-0.3,1.9,1.4,4.9,3.1,5.9
	c1.5,0.9,5.2,3.2,6-2c0.1-1,3.9-2.2,5.7-1.9c9,1.6,17.9,3.6,26.8,5.5c0.2,0.8,0.3,1.6,0.5,2.4c-5.4,3.2-10.8,6.4-16.1,9.6
	c0.6,1.2,1.2,2.3,1.7,3.5c4.3-1.6,8.6-3.3,12.9-4.9c6.9-2.6,13.5,2.7,12.3,9.7c5.3,2.1,10.6,4.1,14.2,5.5c4.7,6,8.6,10.9,12.7,16.1
	c-1.4,0.5-3.1,1-5.5,1.8c1.6,1.3,2.7,2.3,4.1,3.3c-2.8,1.4-5.5,2.8-9.9,5.1c5.5,0.5,9.1,0.8,12.8,1.2c3.8-0.9-5.6,8.9,4.1,4
	c-0.6,3.3-1.1,6-1.5,8.7c-2-1.8-4.2-3.7-6.5-5.6c7.1,11.6,3.7,20.7-10.3,24.6c-0.5,2.7,8.6,4.6,1.8,7.7c2,3.3,4.1,6.6,6.9,11.2
	c-7.9-1.3-13.8-2.3-19.8-3.3c-0.6,0.8-1.2,1.6-1.8,2.4c3,1.4,6.1,2.8,9.1,4.2c-0.6,0.8-1.1,1.7-1.7,2.5c-7.2,0-14.3,0-21.4,0
	c0.3,0.8,1,2.2,1.4,3.2c-4-1.6-7.8-3.1-13.2-5.2c-2.5-8.6-2.8-9.1-6.4-9.5c1.6,9.5,3.3,19,5,28.8c-8.8,0.3-16,6.1-21.7-3.8
	c-0.3,1-0.7,1.9-1,2.9c3.5,2.7,7,5.5,10.5,8.2c4.6-3.2,8.5-1.4,12.2,1.5C1224,580.8,1221.9,581.8,1219.8,582.8z M415.3,131.9
	c-2.7,1-5.4,2-9.1,3.4c1.4,2,2.4,5.3,4.5,6.1c4.2,1.7,8.8,2,14.4,3.1c-5.2-4.7,0.2-5.4,2.6-7.2c-4.5-2-8.5-3.8-12.5-5.6
	c3.2,0.8,6.5,1.5,9.7,2.3c0.3-0.7,0.6-1.3,0.9-2c-3.8-2.8-7.5-5.6-11.3-8.4c-0.5,0.4-0.9,0.8-1.4,1.2
	C413.9,127.2,414.6,129.6,415.3,131.9z M604.8,636.7c5.2-0.7,10.4-1,15.5-2.2c1.8-0.4,3.3-2.7,4.4-4.5c0.3-0.5-1.1-2.1-1.6-3.2
	c-1.5,1.3-2.9,2.6-4.4,3.8c-0.3,0.3-0.9,0.3-1.6,0.5c-1.9-1-4.1-2.2-5.7-3.1c1.2-2.5,2.1-4.4,3.1-6.4c-1.5-0.4-3.8-1.6-4.3-1.1
	c-1.5,1.7-2.7,3.9-3.3,6.1c-0.4,1.8,0.3,3.8,0.6,7c-1.9-1.5-2.6-2.1-3.6-3c0.5,2.4,0.9,4.3,1.2,6.2c-6.4,2.6-3.1-4.1-5.8-6.2
	c-2.1,2.6-4,5-6,7.5c4.1,2.7,7.7,5.1,12.1,8C605.1,642.3,604.9,639.5,604.8,636.7z M437.3,199.8c-2.5-1.9-4.5-3.1-4.9,1.7
	c-0.1,1.1-3.2,2.9-4.4,2.5c-3.7-1.2-7.1-3.3-10.6-5.1c-3,9.1-1.2,10.6,13.3,12.3c1.1-1.9,2.2-3.8,2.9-5c2.3,0.8,3.9,1.3,5.5,1.8
	c0-1.8,0.1-3.6-0.2-5.3c-0.2-1.1-1.1-2.1-1.7-3.1c2.3-1,4.6-2,8.1-3.5c-5.5-3.5-10-6.4-15.8-10.1c-0.2,8.3,4.5,8.9,9,9.8
	C438,197.2,437.7,198.5,437.3,199.8z M708.1,611.3c4.9-1.4,8.6-3.6,6.2-8.4c3.3-1.2,6.6-2.3,10.2-3.6c-4.1-4.7-1.2-15.5-11.6-11.5
	c0,3.4,0,6.8,0,10.6c-2.5-0.2-4.3-0.4-7.5-0.7c2.7,3.3,4.5,5.6,7.3,9.1c-2.7-1.1-4.1-1.7-5.8-2.4c0.5,2.7,0.9,4.9,1.4,7.1
	c-2.4-0.4-4.8-0.9-6.2-1.2c-1.2,5.4-2.7,11.2,5.6,12.4C710.3,619,711.9,615.4,708.1,611.3z M339.8,460.7c-0.8-0.7-1.7-1.4-2.5-2.2
	c2-1.4,3.8-2.8,5.8-4.2c-4.2-2.8-10.9-0.7-11.2,3.1c-0.1,1.3,0.8,3.8,1.4,3.9c2.2,0.2,4.5-0.4,6.7-0.8c0,5.6-2.4,7.1-6.9,3.6
	c-4.1-3.2-7.2-1.9-10,0.8c2.3,4.5,4.3,8.5,6,11.9c-3.5,0.6-7.3,1.2-9.8,1.6c-0.6,4.4-1.1,7.5-1.6,11c2.3-1.6,4-2.7,5.7-3.9
	c-0.8-1.8-1.5-3.6-2.3-5.4c0.5-0.5,1.1-1.1,1.6-1.6c1.8,1.5,3.9,2.8,5.4,4.6c4.5,5.2,15,8.8,15.5,5.9c1.3-7.5,5.4-1.6,7.9-2.4
	c0.2-0.7,0.4-1.4,0.6-2.1c-2.5-0.9-5-1.7-8-2.8c1.5-0.8,3.6-2.8,4.3-2.3c7.2,4.1,14.5,2.3,21.8,0.9c0.4-0.1,0.7-0.4,1.7-1
	c-1.7-3.7-3.5-7.4-5.2-11.2c0.2-0.8,0.5-1.6,0.7-2.3c4.5,5.8,10.5,6.1,16.2,7.6c2.7,0.7,4.2,6,6.4,9.3c2.1-6,4.4-12.6,7.2-21
	c0.7,3.3,1,4.4,1.2,5.5c0.3,0,0.7,0,1-0.1c0.3-3.2,0.6-6.5,0.8-8.9c-4.5-3-8.5-5.8-12.5-8.5c-0.9,2.2-1.6,3.8-2.5,5.9
	c-0.6-2.7-1.1-6.3-1.5-6.2c-2.8,0.1-5.7,0.7-8.4,1.5c-4.8,1.3-10.3,5.2-14,3.8c-6.5-2.3-10.2,0.8-14.8,3.3
	C344.4,459.3,342,459.9,339.8,460.7z M255.3,283.4c8.4,0.4,16.7,0.7,25.1,1.1c0.3,0.6,0.5,1.2,0.8,1.8c-2.8,1.9-5.7,3.7-8.5,5.6
	c0.8,1.4,1.8,3,2.8,4.7c-0.3,0.2-0.5,0.5-0.8,0.7c-1.1-0.8-2.2-1.6-3.2-2.3c0.4,2.8,0.7,5.2,0.9,6.3c5,2.7,9.3,5,13.6,7.3
	c2.6-2.1,5.5-4.4,7.8-6.2c-3.6-1.3-7.6-2.8-11.6-4.3c0.4-0.9,0.7-1.7,1.1-2.6c2.6,1.2,5.2,2.3,8.1,3.6c1-0.8,2.7-2.1,4.5-3.5
	c-7.5-10.5,5.9-6.2,7.5-10.7c-1.4-1.3-2.8-2.6-4.2-4c0.3-0.5,0.5-1,0.8-1.5c2.9,1.2,5.8,2.4,8.4,3.4c0.4-4.2,0.9-8.4,1.6-14.9
	c-4,2.7-6.5,4.4-9.2,6.2c-0.3-0.5-1.1-2.3-1.9-4c-4.1,1.8-8,3.7-12.1,5c-0.6,0.2-3.5-3.8-3.2-4.1c1.6-2,3.9-3.5,5.9-5.1
	c1.4-1.1,2.8-2.2,4.2-3.2c-0.4-0.8-0.9-1.6-1.3-2.4c-6.4,2.5-12.8,5-19.7,7.6c-0.9-2-1.9-4.3-2.9-6.6c-2.5,0-5.1,0-7.6,0
	c2.1-1.2,4.5-1.1,6.5-1.9c1.3-0.4,2.1-2.1,3.1-3.2c-1.4-0.5-2.7-1.4-4.1-1.5c-4-0.1-8,0.1-11.9,0.4c-3.5,0.3-7,1-10.5,1.5
	c-3-1.3-6.4-2.5-9.6-2c-1.9,0.2-3.8,2.8-5,4.8c-4.7,7.5-18,8.1-16.4,20.5c0,0.3-0.4,0.6,0,0c2.5,2.1,4.8,4.1,8.5,7.2
	c4.8,0.1,12.1-1.2,14.4,8.8c0.6,2.7,4.9,4.6,7.6,7c-2.9,1.8-5,3.1-7.1,4.4c0.3,0.7,0.5,1.3,0.8,2c3.8-0.8,7.6-1.4,11.2-2.7
	c0.5-0.2-0.4-4.1-0.7-6.9c0.5-0.4,2.1-1.6,2.7-2c-2.6-1.6-5-3.2-8.6-5.5c4.9-1.3,8.1-2.2,11.2-3c0.4-1.8,0.8-3.8,1.2-5.8
	L255.3,283.4z M385.4,118.3c-3.1-0.2-5.4-0.4-8.5-0.6c2.4-2.9,3.6-4.5,5-6.1c-13.3-7-19.3-4.4-29.3,6.4c3.4,0.9,8.2,0.8,10.6,3.2
	c8.7,8.5-7,9.8-5.5,16.6c-3.3,0-6.7,0-10.8,0c0.4,1.7,0.8,4.2,1.6,6.6c1.2,3.8,1.4,6.7-3.8,6.7c-7.6,0-9.5,3.6-6.7,10.4
	c0.8,2,0.5,4.4,1.5,6.2c0.6,1,2.8,1.1,4.2,1.6c0-5.1,3.5-2.2,5.4-2.2c5.5-0.1,11-0.1,16.5-0.1c0.1-0.5,0.1-1,0.2-1.5
	c-1.9-0.6-3.9-1.2-5.8-1.8c4.1-9.3,11.3-3.2,15.3-3.5c2.6,4.1,4.8,7.3,6.7,10.6c0.9,1.6,2.4,4,1.9,5.3c-2.5,6.1,0,8.5,5.5,9.4
	c1.1-1.9,2-3.5,3.6-6.1c1,2.6,1.4,3.8,2.3,6.2c1-3.4,1.6-5.6,2.2-7.9c-2,0.1-3.3,0.2-4.9,0.3c0.9-2,1.5-3.3,1.4-3.1
	c-3.2-3.5-5.6-6.1-8.7-9.6c5.5-1.3,9.2-2.9,8.4-8.8c-0.2-1.6,3.3-3.6,5.2-5.5c1-1,1.9-2.1,2.8-3c-5.8-6-15.6,1.3-19.9-9.3
	c-2,3.7-3.4,6.4-5,9.5c-4.1-4.6-4.8-11.3-0.6-13.8c5.6-3.3,4.3-9.8,8.9-12.9C385.7,121,385.3,119.2,385.4,118.3z M912.7,271.6
	c4.1,4.6,7.6,8.4,11.4,12.7c10.6-12.7,11.1-26.2,11.7-40.5c4.2,0.7,9.1,1.5,14.6,2.4c-0.5-4.1,1.1-8.7-5.4-7.1
	c-0.4,0.1-1.4-0.4-1.5-0.7c-3.8-10.3-13.8-8-20.4-7.6c-5.4,0.3-6.5-2.3-9-4.5c-1,0.8-1.9,1.5-2.9,2.3c0.1-0.8,0.3-1.6,0.4-2.5
	c-4.7-2-9.5-4.1-15.5-6.7c1.3,3.3,1.9,5.1,2.7,7c-2.3,0.5-4,1-7,1.7c12.6,4.9,8.5,9.5,0.7,13.7c1.3,1.4,2.2,2.4,3.9,4.2
	c-8.6-0.6-7.7,6.6-9.8,11.4c-1.9-1-3.2-1.8-4.6-2.5c-0.3,0.7-0.7,1.3-1,2c3.5,1.9,8.6,6.2,10.1,5.2c6.9-4.8,5.5,0.9,7.9,4.6
	c1-3.4,2-6.7,3-10.5c6.6,0.5,14.7,1.1,21.5,1.6c0.3,6,0.6,10.9,0.8,15.8c-0.5,0.1-1,0.1-1.5,0.2c-0.6-1.8-1.3-3.6-2-5.7
	C918.5,269,916.6,269.9,912.7,271.6z M274.7,712.8c-7.3-11.1-14-19.4-27.7-17.9c-0.2,3.2-0.2,6.3-0.8,9.1c-0.4,2-1.5,4-2.9,5.5
	c-1.3,1.3-3.3,1.8-5,2.7c1.2,1.6,2.2,3.4,3.6,4.9c1.4,1.4,3.1,2.5,4.4,3.5c-2.4,2.2-4.3,4-6.3,5.7c5.9-0.1,10.7-2.6,15.5-2.7
	c5.4-0.1,10.8,1.9,17.2,3.1c0.1,0.3,0.5,2.1,0.9,3.9c1.7-4.4,2.4-8.8,1.5-13c-0.9-4.6,7.5-7.9,1.4-13
	C276,706.8,275.6,708.7,274.7,712.8z M635.5,235.2c5.6-3.4,9.8-6,14.9-9.1c-1.7-5.6,4.1-15.2-6.9-19.2c0.9-1.3,1.7-2.4,1.8-2.5
	c-5.4-0.8-10.8-1.7-16.4-2.5c-3,12.1-6.2,24.6-9.4,37.1C626.6,237.3,632.1,236,635.5,235.2z M224.6,302.1c-9.5,3.1-14.5-4-20.5-9.2
	c-0.8,0.8-1.3,2-2.3,2.4c-16,7-19.5,13.2-15.9,29.3c0.9,4.2,8.4,8.1,12.7,6.4c-0.6-1.4-1.1-2.8-1.7-4.3c1.4-0.1,2.6-0.2,4.1-0.3
	c-1.8-3.2-3.2-5.8-5.1-9.2c4.2,0,6.9,0,9.6,0c1.6-11,3.9-12,17.8-8.3C223.8,306.6,224.2,304.3,224.6,302.1z M925.6,102.6
	c-3.3,4.3-6.3,8.2-9.3,12.1c21.5,9.2,30.9,8.5,39.4-3.3c-8.5-1.4-8.5-1.4-14-9.7c-0.3-0.5-1.2-0.6-1.8-1c-3.3-2.1-6.3-8-10.8,0.2
	c0.9-2.8,1.4-4.5,2-6.6c-1.9-0.8-3.6-1.5-5.9-2.6c1.9-0.8,3.2-1.3,5.3-2.2c-2.8-1.4-4.6-2.3-6.5-3.2c-2.8,3-6.6,5.7,0.2,8.1
	c-1.4,1-2.7,1.8-4.5,3.1C922.2,99.7,924.3,101.5,925.6,102.6z M201.9,664.8c1.8,0.9,3.9,2.3,6.3,3.1c2,0.7,4.2,0.6,6.3,0.8
	c-0.3-2.2-0.6-4.3-1-6.7c8.9-3.9,18.3-25.7,13.6-33.1c-2.2,3.2-4.4,6.3-6.9,9.8c-0.5-2-0.8-3.3-1.4-5.7c-2.9,4-5.3,7.3-7.8,10.8
	c1.6,0,2.7,0,3.7,0c0.2,0.5,0.4,1,0.6,1.5c-2.6,1.2-5.3,2.4-7.9,3.6c0.5,0.1,1.1,0.3,1.6,0.4C206.5,654.6,204.2,659.8,201.9,664.8z
	 M745.8,549.3c-0.6,0.3-1.2,0.7-1.9,1c0.7-1.2,1.4-2.4,2.3-4c-2.6,0.2-4.5,0.5-6.3,0.5c-2.4,0-4.8-0.2-7.2-0.4
	c1.7,2,3.3,4.1,5.2,5.8c1.2,1.1,2.9,1.7,5.2,3c-3,2-5.4,3.7-7.9,5.4c2,3.3,4.4,7,6.9,11c5.2-0.9,10.5-1.8,15.6-2.7
	C753.5,562,749.6,555.7,745.8,549.3z M827.4,146.8c-5.5-1.3-9.8-2.3-15.5-3.6c-3.4,2.8-14-1-15.7,9.5c1.7,0.5,3.4,1,5.7,1.7
	c-1.8,2.5-3.1,4.5-5.6,8c5.3-2.5,12.1,0.1,10.5-8.3c-0.1-0.7,1.3-1.8,2.1-2.6c6.3-6,11.5,0.8,18,1.7
	C827,150.8,827.2,148.6,827.4,146.8z M182.2,316.7c0.4-11.3-4.7-16.9-11.3-12.9c-5.1,3.1-9.6,1.3-14.3,1.6c-1.3,0.1-2.7,0.4-3.3,0.5
	c4.5,2.7,8.6,6.1,13.3,7.8C171.4,315.5,176.8,315.7,182.2,316.7z M224.5,656.4c2.6,1,4.7,1.8,8.7,3.3c-2.2-3.3-3.2-4.7-4.3-6.3
	c8.2-2.6,15.8-5,23.6-7.4c-3.1-5.5-3.5-5.7-8.4-4.2c-4.7,1.5-9.4,2.9-14,4.3c-0.3-0.6-0.7-1.3-1-1.9
	C227.6,648.2,226.1,652.1,224.5,656.4z M869.2,551.6c-0.1-0.6-0.2-1.2-0.4-1.9c3.1-0.9,6.3-1.9,8.9-2.7c-3.7-2.4,0.6-11.7-6.9-11.6
	c-1.2,3.2-2.2,6-2.8,7.8c-3.5-1.3-6.3-2.4-10.8-4.1c2.1,4.6,2.6,7.2,4.2,8.7c3,2.8,6.6,4.9,9.9,7.3c0.4-0.6,0.8-1.1,1.2-1.7
	C871.4,552.8,870.3,552.2,869.2,551.6z M859.2,454.3c-9-8.6-10.6-8.2-20.9,4.7c3.1,2.2,6.2,4.3,9.8,6.8
	C849,456.7,852.7,452.8,859.2,454.3z M811.9,496.8c0-0.9,0-1.9,0.1-2.8c-6.3-0.9-12.5-1.9-18.8-2.4c-1.2-0.1-2.5,2-3.8,3.1
	c1.1,0.9,2.4,1.6,3.2,2.6c3.8,5.1,8.4,2.1,13,0.4c-1,2.6-1.7,4.5-2.8,7.4C806.5,501.8,809.2,499.3,811.9,496.8z M265.4,640.9
	c-12.1,14.3-12.5,16.7-3.5,23.6C270,657.7,260.5,648.2,265.4,640.9z M207.5,357.2c-4.9-3.1-5.8-11.8-13.3-8.1
	c-2.6,1.3-5.6,7.1-1.9,10.4C197.2,363.8,202.2,360.8,207.5,357.2z M286.1,450.1c-6.2-5.6-6.2-5.6-1.4-13.6c-3.2-0.4-6.3-0.8-8.5-1
	c-0.7,3.7-1.3,6.6-1.8,9.5c-1.6-1.6-3.2-3.3-4.8-4.9C270.4,451.3,280.3,447.4,286.1,450.1z M696.1,612.2c-2.7-5.4-5-9.8-7.6-15
	c-2.8,1.6-6.6,3.9-10.5,6.1c2.7,2.6,5.9,2.9,6,3.7C685.4,614.6,691.1,610.8,696.1,612.2z M166.7,321.6c3.3,2.3,5.7,4.7,8.6,5.8
	c2.4,0.9,5.4,0,8.1-0.1c-1.1-3-1.4-7.4-3.6-8.9C175.5,315.4,171.1,318,166.7,321.6z M310.4,149.5c4.8,3.4,8.3,6.4,12.4,8.3
	c0.9,0.4,5.2-3.2,5.2-4.9C327.8,148.7,316.5,145.4,310.4,149.5z M399.8,136.3c-2.3-9.5-5.8-12.9-12.4-11.1c2,2.5,3.8,4.7,4.3,5.4
	c-0.7,3.8-1.8,6.5-1.4,9c0.3,1.8,2.4,3.4,3.7,5.1c0.5-0.4,1-0.7,1.5-1.1c-0.9-1.4-1.9-2.7-3.2-4.7
	C395,137.9,397.2,137.2,399.8,136.3z M551,202.9c-1.3-2.3-2.4-4.2-3.7-6.3c-1.5,0.5-3,1.1-4.5,1.5c-1.5,0.3-3,0.3-4.5,0.5
	c-0.2,0.8-0.4,1.6-0.6,2.3c5.7,1.9,11.3,4.1,17.1,5.3c1.5,0.3,4.1-2.8,5.4-4.8c0.5-0.8-1.3-3.1-2.1-4.7c-1.7,1.2-3.4,2.3-5,3.6
	C552.3,200.8,551.9,201.7,551,202.9z M615,637.9c1.9,3.1,3.6,6.4,5.8,9.3c1,1.4,3.2,3.3,4.3,3c1.4-0.4,3-2.6,3.3-4.3
	C629.7,637.9,625,635.2,615,637.9z M809.2,460.6c10,4.3,18.1,3.8,22.3-0.8C816.5,456.4,816.5,456.4,809.2,460.6z M720.8,562.2
	c-1.3,7.5,1.3,10.5,6.8,9.9c0-2.8,0.6-5.6-0.2-7.8c-0.8-2.3-3.1-4-4.7-6c0.4-0.5,0.8-1,1.3-1.5c-2.1-1.1-4.2-2.1-6.9-3.5
	c0.2,2.5,0.4,4.4,0.6,6.6c-1.9,0-3.4,0-4.9,0c0,0.3,0,0.5,0,0.8C715.4,561.2,718.1,561.7,720.8,562.2z M330.4,61.8
	c-16.9-4.4-18.6-3.6-17.6,7.4c8.3,0.8,9.6-0.2,8.7-7.4C324.5,61.8,327.5,61.8,330.4,61.8z M291.3,323c0-6.9-4.7-3.9-8.1-4.6
	c-0.3,1.7-0.6,2.8-0.8,3.9c-0.3,1.2-0.5,2.5-0.7,3.7c8.2,3.4,9.5,3.2,16.4-3.6C295.5,322.6,293.6,322.8,291.3,323z M683.9,242.3
	c-6.2,1.9-2.1,6.5-2.5,9.1c4.5,1,8.4,1.9,12.3,2.7c1.3-2.2,2.5-4.3,4.6-7.8c-2.7,0.3-4.4,0.3-6,0.7c-2,0.5-4.2,2.2-5.8,1.7
	C685.3,248.3,685,245.2,683.9,242.3z M1206.5,535.9c-0.4,3.6-0.7,6-1,8.4c3.8,0.3,7.5,0.6,11,0.9c0-4.2,0-8,0-11.7
	C1214.6,540.8,1210.2,537.7,1206.5,535.9z M508.9,200.4c-0.5,3-0.6,4.8-1.2,6.4c-0.5,1.2-1.8,2-2.7,2.9c1.5,0.5,2.9,1.3,4.4,1.5
	c2.1,0.3,4.2,0.1,6.2,0.1c0.4-3.1,0.8-5.7,1.2-8.9C514.2,201.8,511.5,201.1,508.9,200.4z M769.2,552.2c0.1-0.4,0.1-0.9,0.2-1.3
	c1.9-0.2,3.8-0.3,5.6-0.5c0.1-0.5,0.2-1,0.3-1.6c-5.2-1.3-10.3-2.7-16.8-4.3c9.1,11.7,9.8,12,16.9,8.9
	C772.9,552.9,771,552.5,769.2,552.2z M520.1,216.8c2-5.1,2.3-11,9.9-11.2c0.9,0,1.8-2.4,2.7-3.7c-1.7-0.4-3.7-1.5-4.9-1
	c-3.1,1.4-5.9,3.6-8.9,5.6C519.3,209.8,519.7,213.3,520.1,216.8z M807.8,517.6c4.9,3.7,8.6,6.5,13.1,9.9
	C819.8,515.3,818,513.6,807.8,517.6z M903.3,203.4c-2.9,0-4.9,0.1-7,0c-2.1-0.1-4.2-0.4-6.3-0.6c-0.3,0.8-0.6,1.6-0.9,2.4
	c3.7,2.3,7.3,4.6,11.6,7.3C901.7,208.7,902.4,206.3,903.3,203.4z M884.1,482.3c-7-0.8-12.4-1.5-17.8-2.1c-0.1,0.4-0.3,0.8-0.4,1.2
	c3.1,2.2,6.2,4.5,8.4,6C876.2,486.4,879.3,484.8,884.1,482.3z M765.5,453.5c-0.3-1.2-0.7-2.3-1-3.5c-3.2,0.7-7.2,0.4-9.3,2.3
	c-2.3,2.1-2.7,6.1-4.3,10C756,459.2,760.7,456.3,765.5,453.5z M97.7,395c4.9,1.1,8.1,1.8,12.3,2.8c0-2,0.4-5.4-0.1-5.5
	c-3.7-0.9-7.5-1.3-11.3-1.3C98.2,390.9,97.8,394.6,97.7,395z M366.7,300.2c0.1-0.6,0.2-1.1,0.3-1.7c-3.9-1.3-7.8-2.6-11.6-3.9
	c-0.8,3.6-1.4,6.2-2.2,10.2C358.1,303.2,362.4,301.7,366.7,300.2z M269.4,614.1c0.6-1.7,1-2.9,1.8-5c-4.9,2.1-8.7,3.7-12.5,5.4
	c0,0.6,0.1,1.1,0.1,1.7c2.8,0.7,5.6,1.4,8.4,2.1c0,0.5-0.1,1-0.1,1.5c2.4-1.2,4.8-2.4,9.1-4.5C272.6,614.6,271.2,614.4,269.4,614.1z
	 M971.6,277.4c-0.4,0.1-1.1,0.1-1.2,0.3c-0.7,1.4-2.1,3.8-1.6,4.3c2.4,2.5,5.3,4.7,8.2,6.6c0.7,0.4,2.5-0.7,3.6-1.4
	c0.4-0.2,0.5-1.7,0.3-1.9C977.8,282.6,974.7,280,971.6,277.4z M143.2,267.4c-4.1,2.6-6.7,4.2-9.1,5.8c1.8,2.8,3.2,5.1,4.8,7.5
	c2-1,3.6-1.8,5.4-2.7c-0.4-1.5-0.9-2.8-1-4.1C143,272.6,143.2,271.2,143.2,267.4z M855.8,676.1c-0.7,6.5,1.3,7.8,10,6.2
	c-0.2-2.4-0.4-4.9-0.6-6.9C862,675.5,858.9,675.8,855.8,676.1z M787.1,577.9c-6,0.7-10.1,1.2-14.6,1.8
	C777.4,588.7,778.6,588.6,787.1,577.9z M873.7,214.4c-0.4,0.4-0.8,0.8-1.2,1.2c4.6,1.5,9.2,3.3,13.9,4.4c0.6,0.1,2-2.9,3.8-5.7
	C883.6,214.4,878.7,214.4,873.7,214.4z M252.6,339.4c-0.2-0.6-0.4-1.2-0.6-1.9c-3.4-0.8-7-2.8-10.1-2.2c-2.6,0.5-4.6,3.9-6.8,6
	c4.1,0.7,6.9-0.2,9.7-0.8C247.3,340.1,249.9,339.8,252.6,339.4z M577.1,576.2c0-0.6,0.1-1.2,0.1-1.8c-4.4-0.8-8.9-1.7-13.3-2.5
	c-0.2,0.7-0.4,1.3-0.5,2c1.5,1.8,2.9,3.6,4.4,5.4C571.1,578.1,574.1,577.1,577.1,576.2z M1142.2,483c2.4-1.9,4.5-3.6,7.4-5.8
	c-3.6-1.2-5.8-1.9-8.4-2.7c2.1-0.9,3.5-1.6,5-2.2c-0.2-0.4-0.3-0.8-0.5-1.3c-2.4,0.5-4.8,1.1-7.7,1.7
	C1139.4,476.2,1140.6,479.2,1142.2,483z M631.1,239.3c-0.8-0.3-1.7-0.6-2.5-0.9c-1.7,1.2-3.5,2.3-5,3.7c-5.8,5.7-3,7.7,3.2,5.9
	C628.9,247.5,629.7,242.4,631.1,239.3z M437.8,489.6c-0.1-1-0.3-2-0.4-3c-4.4,0.9-8.7,1.8-13.8,2.9
	C430,498.1,433.6,491.6,437.8,489.6z M1028.6,266.2c-5.2-1.9-8.5-3.1-11.9-4.3c-0.5,0.8-1,1.5-1.6,2.3c2.2,2.5,4.2,5.2,6.7,7.2
	C1022.3,271.7,1025.2,268.9,1028.6,266.2z M643.6,599.9c-5-1.1-1.8-3.6,1.1-6.1c-2.6-0.2-4.3-0.3-6.2-0.4c0,5.8,0,10.9,0,17.4
	C640.5,606.4,641.9,603.5,643.6,599.9z M912.8,168.2c-10.6-8.7-12.5-9-16.7-2.3C901.4,166.6,906.2,167.2,912.8,168.2z M941.3,225.2
	c-4.4-4-8.2-7.5-11.8-10.9C926.6,221.3,929.6,224.3,941.3,225.2z M80.3,317.6c3.1-1.1,6.5-1.8,9.3-3.5c1.3-0.8,1.6-3.4,2.1-5.2
	c0.1-0.2-1.6-0.9-2.5-1.3c-0.4,1.4-0.8,2.7-1.2,4C80.8,306.6,82.5,315.2,80.3,317.6z M871.9,529.5c0.5-3.5,0.7-5.2,1-6.9
	c-3.1,0.3-6.2,0.6-10.5,1.1c4.3,4.1,7.1,6.8,9.9,9.5c0.4-0.3,0.8-0.5,1.2-0.8C872.7,531,871.9,529.6,871.9,529.5z M411.9,656.9
	c-0.5,0.6-1,1.2-1.5,1.8c3.2,2.9,6.5,5.8,10.9,9.7C417.6,657.1,417.6,657.1,411.9,656.9z M240.4,486c-0.3-0.7-0.6-1.3-1-2
	c-5,0-10.1,0-16.8,0c4.4,1.5,7,2.5,9.6,3.4c-0.1,0.7-0.2,1.4-0.3,2.1C234.8,488.2,237.6,487.1,240.4,486z M736.7,507.9
	c0.6-10.1-5.7-8.9-9.5-11c-0.5,0.7-1.1,1.4-1.6,2.1C728.8,501.6,732.1,504.3,736.7,507.9z M915.2,296.4c-0.1-1.3-0.2-2.6-0.3-4
	c-5,0.6-10,1.2-15,1.8c0.1,1,0.2,2,0.3,3C905.1,296.9,910.1,296.7,915.2,296.4z M767.2,335.3c-0.3,0.6-0.6,1.3-0.9,1.9
	c3.4,2.5,6.6,5.1,10.1,7.5c0.5,0.4,2.6-0.4,2.9-1.1c0.4-1,0.3-3.3-0.3-3.6C775.2,338.2,771.1,336.8,767.2,335.3z M988.4,276.1
	c2.5,1.3,4.2,2.6,6.1,3c0.9,0.2,3.2-1.7,3-2.3c-0.6-2.4-1.7-4.6-2.9-7.4C992.3,272,990.9,273.5,988.4,276.1z M963.1,417.7
	c11.2,5.6,13.6,5.5,17,0C975,417.7,969.3,417.7,963.1,417.7z M408.8,184.1c6.5-2.9,6.5-7.1,0.6-12
	C409.1,176.1,409,179.7,408.8,184.1z M593.6,221.9c0.2,0.7,0.4,1.4,0.6,2.1c3.2,0,6.4,0,9.7,0c0.2-1.9,0.4-3.6,0.8-6.5
	C600.4,219.2,597,220.5,593.6,221.9z M879.1,187.6c0.1-0.7,0.1-1.4,0.2-2.1c-1.8-1.4-3.6-2.8-5.1-4c-2.2,2.5-4,4.7-5.9,6.9
	c0.1,0.5,0.2,1,0.3,1.6C872.1,189.1,875.6,188.3,879.1,187.6z M105.1,298.6c-0.5,0.8-1,1.6-1.6,2.4c3.8,2.6,7.6,5.1,11.4,7.7
	c0.6-1,1.2-1.9,1.8-2.9C112.9,303.4,109,301,105.1,298.6z M340.1,29.4c-2.6,3.3-2.6,3.3,5.1,9c0.5-0.4,1-0.8,1.5-1.2
	C344.5,34.6,342.4,32.1,340.1,29.4z"/>
</svg>
