<?xml version="1.0" encoding="utf-8"?>
<!-- Generator: Adobe Illustrator 26.0.2, SVG Export Plug-In . SVG Version: 6.00 Build 0)  -->
<svg version="1.1" id="Ebene_1" xmlns="http://www.w3.org/2000/svg" xmlns:xlink="http://www.w3.org/1999/xlink" x="0px" y="0px"
	 viewBox="0 0 881 669.4" style="enable-background:new 0 0 881 669.4;" xml:space="preserve">
<style type="text/css">
	.st0{fill:#BCB4A8;}
</style>
<g>
	<path class="st0" d="M777.4,484.4c1.8-0.7,3.3-1.5,4.9-1.8c2.5-0.5,5.1-0.8,7.7-1.1c0.4,0,0.8,0.6,1.3,0.9
		c-0.4,0.5-0.7,1.3-1.3,1.5c-2.6,1-5.4,1.9-8.2,2.8c0.8,0.4,1.4,0.6,2.1,0.9c-2.4,3-5.3,3.8-7.7,2.2c0.4-0.6,0.8-1.2,1-1.4
		c-1.3-0.7-2.7-1.5-4.5-2.5c-2.2,0.5-4.7,1.4-5.8,4.5c-0.3,0.7-1.3,1-2,1.6c0.2,0.7,0.7,1.5,0.5,2.2c-0.2,0.9-0.7,1.8-1.4,2.3
		c-0.5,0.4-1.5,0.1-2.3,0.1c0.2-0.7,0.3-1.5,0.7-2.1c0.6-1,1.3-1.8,2-2.8c-0.5-0.2-0.8-0.4-0.9-0.3c-2.3,2-5,2-7.8,1.5
		c-0.9-0.1-2,0.6-2.9,1.1c-0.8,0.5-1.4,1.3-2.2,1.8c-1.6,1.2-2,2.9-0.9,4.6c1.1,1.7,2.6,1.4,4,0.4c3.5-2.4,7.4-1.8,11.2-1.4
		c0.5,0,1.3,0.6,1.3,0.9c0,0.5-0.5,1.2-0.9,1.5c-0.5,0.4-1.3,0.6-1.9,1.5c1.1,0.3,2.3,0.5,3.4,0.8c2,0.5,2.1,1.1,0.9,2.7
		c-0.5,0.7-1.1,1.4-1.8,2.2c0.6,0.1,1.1,0.2,1.5,0.3c-1,1-1.7,1.9-3.3,0.8c-2.7-2-5.7-3.6-9.2-5.8c1,1.6,1.6,2.8,2.6,4.5
		c-0.9-0.7-1.3-0.9-1.7-1.2c-1.3-1.2-2.5-2-4.1-0.1c-0.9,1.1-2.2,1.2-3.1-0.6c-0.3-0.7-1.3-1.1-2-1.5c-1.1-0.6-2.2-1.4-3.4-1.6
		c-1-0.2-2.5-0.2-3.1,0.4c-3.3,3.1-7.7,3.4-11.5,5.1c-0.5,0.2-1.3,0.2-1.7,0c-4.8-2.8-10.1-2.3-15.3-2.1c-0.9,0-1.8,0.7-2.5,1.3
		c-1.8,1.7-4,2.4-5.7,1.3c-0.8-0.5-1.5-1.6-1.7-2.5c-0.1-0.5,1-1.2,1.7-1.8c0.5-0.4,1-0.8,1.6-1.2c-0.1-0.2-0.2-0.5-0.3-0.7
		c-0.9,0.3-1.8,0.6-2.6,0.9c-2,0.7-2.8,0.1-3-2c-0.1-0.9-0.5-2.2-1.2-2.6c-1.5-0.8-2,0.6-2.6,1.8c-1.1,2.2-2.8,2.6-4.6,1
		c-1.1-1-3-1.5-2.2-3.9c0.3-1-1.3-2.1-2.9-1.5c0,0.2,0,0.4,0,0.5c0.6,0.6,1.2,1.3,1.8,1.9c-1.3,0.7-2.6,1.9-3.9,2.1
		c-2.1,0.4-3.9-0.4-4.8-2.8c-0.9-2.2-1.8-4.6-4.5-5.6c0.5,0.8,1,1.6,1.6,2.6c-0.8,0.3-1.4,0.7-2,0.9c-1.9,0.6-2.5,1.9-2.3,3.7
		c0.1,1.8,1,2.7,2.8,3.1c1.2,0.3,2.4,0.9,3.6,1.4c0,0.3,0.1,0.5,0.1,0.8c-1.4,0.4-2.9,0.8-4.3,1.4c-1,0.4-2.2,0.6-3,1.4
		c-1.9,1.9-3.8,2.2-6,0.7c-2.2-1.5-4.5-3-6.6-4.6c-0.6-0.4-1-1.2-1.4-1.9c-0.5-0.8-1-1.7-1.7-3c-1.2,2-1,3.6,0.2,4.7
		c1.2,1.1,2.8,1.7,4.2,2.7c0.7,0.5,1.3,1.3,1.9,2c-0.8,0.3-1.6,0.8-2.4,0.8c-1.6-0.1-3.1-0.4-4.7-0.7c-0.1,0.3-0.2,0.6-0.3,0.9
		c0.7,0.4,1.5,0.7,2,1.2c0.7,0.6,1.5,1.5,1.6,2.3c0,0.5-1.1,1.4-1.9,1.7c-2.9,0.9-6.1-1-5.9-3.7c0.5-4.8-3.3-6.8-5.6-10.4
		c-0.7,1.4-1.1,2.3-1.9,3.8c4.2-0.5,4.1,3.6,6.2,5.2c0.2,0.2,0.3,0.9,0.1,1.1c-0.3,0.3-0.8,0.6-1.3,0.7c-4,0.5-8,0.9-12,1.4
		c-1.5,0.2-2.5-0.1-2.4-1.8c0-0.3-0.2-0.7-0.2-1.1c0-0.8,0.1-1.5,0.1-2.3c0.9,0.1,2.1-0.2,2.8,0.3c1.3,0.9,2.3,1.6,4.1,0.5
		c-2.8-2.1-5.5-3.9-9-4.1c-1.7-0.1-3.3-1.2-4.8-2.1c-0.4-0.3-0.4-1.3-0.5-2c0.7-0.1,1.5-0.6,2.2-0.4c1.2,0.3,2.2,1.2,3.4,1.4
		c1.1,0.1,2.3-0.3,3.3-0.9c0.6-0.4,0.9-1.6,0.8-2.3c-0.1-0.4-1.3-0.8-2-0.9c-1.3-0.3-2.6-0.3-3.8-0.8c-0.6-0.2-1.4-0.9-1.6-1.5
		c-0.6-2-2-3-3.9-2.9c-2.1,0.1-4.2,0.5-6.1,1.1c-1.4,0.5-2.2,0.6-3.2-0.6c-1.2-1.4-2.7-1.5-4.3,0.2c1.9,1.4,3.8,2.8,5.6,4.2
		c1.3,1,2.2,2,1.9,4c-0.2,1.1,1.1,2.3,1.7,3.5c0.3,0.7,0.4,1.5,0.6,2.2c-0.7-0.3-1.5-0.4-1.9-0.9c-2.1-2.2-4.2-4.4-6.3-6.7
		c-0.3-0.3-8.1-1.3-8.3-1.1c-5.4,4.8-10.8,9.6-16.2,14.3c-1.1,0.9-0.7,1.7,0.4,2.2c2.5,1.1,4.9,2.3,7.4,3.2c0.7,0.3,1.9-0.3,2.7-0.7
		c1.7-0.7,3.3-1.8,5.1-2.2c2.1-0.5,2.6,0.3,2,2.4c-0.2,0.6-0.3,1.2-0.6,2.3c2.4-0.2,4.4-0.3,6.3-0.7c1.4-0.2,1.8-1.3,1-2.5
		c-3-4.4-4.4-10.1-9.8-12.7c-0.4-0.2-0.4-1.3-0.6-2c0.7,0,1.7-0.2,2.1,0.1c3.1,2.4,6.2,4.9,9,7.6c0.9,0.9,1.1,2.7,1.5,4.1
		c0.2,0.6,0,1.4-0.1,2.1c0.2,0.2,0.4,0.3,0.6,0.5c2.3-1.8,4.6-3.7,7-5.4c0.7-0.5,1.9-0.6,2.7-0.3c1.8,0.7,3.4,1.6,5.1,2.5
		c-0.4,0.5-0.8,1.2-1.3,1.5c-2.3,1.2-4.7,2.3-7,3.5c-3.1,1.7-6.1,3.1-9.9,2.5c-2.2-0.3-4.6,0.5-6.9,0.7c-5.9,0.7-11.6,0.3-17.2-1.8
		c-2.4-0.9-4.9-1.5-7.4-1.8c-1.6-0.2-3.2,0.6-4.8,0.9c-0.9,0.2-1.9,0.7-2.7,0.6c-5.2-0.7-10.5-1.6-15.8-2.5
		c-0.9,1.2-0.1,6.4,1.5,7.2c0.6,0.3,1.7,0.2,2.4-0.1c2.1-1,3.6-0.4,5.3,1.1c1.5,1.3,3.5,2,5.3,2.7c1.4,0.6,3,0.9,4.7,1.4
		c-0.4,0.5-0.5,0.7-0.6,0.7c-6.3,0.7-12.4,0.1-17.9-3.4c-1.9-1.2-3.3-3.2-5-4.8c-0.9-0.8-2-1.5-3.1-2.1c-1-0.6-2.2-1.1-3-1.9
		c-1.3-1.4-6.4-3.5-8.1-2.9c-0.7,0.2-1.2,0.9-1.9,1.3c-3.3,1.7-6.2,0.3-9-1.5c-1.3-0.9-2.9-2.3-4.2-0.9c-1,1.1-1.4,3.1-1.6,4.7
		c-0.2,1.2,0.4,2.4,0.5,3.7c0.1,2.3-0.9,3-3.2,2.9c-1.5-0.1-3.2,0.1-4.7,0.6c-1.9,0.6-3.6,1.6-5.4,2.3c-2.6,1-5.2,1-7.9-0.2
		c-6.9-2.9-13.7-1.9-20.5,0.3c-1.1,0.3-2.2,1-2.9,1.8c-2.6,2.7-5.1,5.5-7.6,8.3c-0.7,0.8-1.5,1.6-2.1,2.5c-0.4,0.7-0.7,1.5-0.9,2.3
		c-0.2,1.4-0.1,2.8-0.5,4.1c-0.6,1.9-1.6,3.6-2.4,5.4c-2.3,5-2.2,10.1-0.1,15.1c1.4,3.5,1.4,7,0.7,10.5c-0.1,0.8-0.7,1.6-1.3,2.1
		c-2.1,1.6-3,3.6-2.7,6.1c0.5,4.8,1.3,9.5,1.9,14.3c0.3,2,0.6,4.1,0.5,6.1c-0.5,6.6,0.7,13,0.9,19.6c0.1,2,1.1,3.9,1.3,5.9
		c0.2,1.4,0.4,3.1-0.2,4.3c-1.1,2.6-0.6,3.9,2.3,4.5c1.3,0.3,2.6,0.5,3.7,1.1c1.8,0.9,3.1,2.3,3.2,4.4c0.3,5.4,4.7,7,8.3,9.3
		c5.2-0.5,8.4,3.8,13,5.1c4,1.1,7.7,2.5,11.9,2.1c3.3-0.3,5.8,1.4,7.6,4.9c-3.1,0-5.8-0.2-8.5,0c-5.6,0.4-11.3,0.9-16.9,1.7
		c-3.2,0.4-6.3,0.1-9.1-1.4c-5.2-2.6-10.6-3.5-16.3-3.1c-2.5,0.2-5,0.3-7.5,0.4c-0.7,0-1.5-0.1-2.1-0.4c-2.8-1.4-5.4-0.8-7.9,0.6
		c-2.8,1.6-5.4,2.2-7.8-0.7c-0.3-0.3-0.9-0.3-1.4-0.5c-1.1-0.3-2.3-0.3-3.2-0.9c-1.4-0.8-2.5-1-3.8,0c-0.7,0.5-1.6,0.8-2.4,1.1
		c-1.4,0.7-2.6,0.5-3.7-0.7c-1.4-1.4-3.1-2.6-4.6-4c-0.5-0.4-0.7-1.2-0.9-1.8c-0.1-0.6,0-1.2,0-1.6c-2.7,1.2-5.2,2.4-7.7,3.3
		c-6.6,2.5-13.3,4.9-19.9,7.2c-2.7,0.9-3.4,0.4-3.9-2.3c-0.3-1.6-0.5-3.2-0.9-5.2c-2.5,2-4.9,3.8-7,5.8c-1.4,1.3-2.7,1.9-4.5,0.9
		c-1.6-0.9-3.2-0.4-4.3,1c-1.4,1.8-2.7,2.2-4.5,0.6c-0.5-0.4-1.4-0.4-2.1-0.6c-0.9-0.3-1.9-0.4-2.7-0.9c-3.1-2-2.9-3.9,0.3-5.5
		c2.5-1.2,5.1-2.2,7.9-0.9c0.5,0.2,1.3,0.1,1.9-0.1c1.5-0.4,3.1-0.9,5-1.5c-0.3-0.7-0.7-1.6-1.2-2.5c-0.8-1.3-0.7-2.2,0.8-2.7
		c4.9-1.8,8.2-5.4,10.9-9.7c0.9-1.3,2.2-2.3,3.4-3.4c1.4-1.3,2.1-2.6,1.6-4.6c-0.3-0.9,0-2,0.2-3c2-7.8,4-15.7,6-23.5
		c0.2-0.8,0.3-1.6,0.7-2.3c4.5-7.5,4-15.8,3.6-24c-0.2-5.4-0.8-10.7-2.8-15.9c-0.5-1.3-0.6-2.9-0.5-4.3c0.6-6.4-1.9-12-4-17.8
		c-0.3-0.8-0.9-1.5-1.6-2c-2.9-2.3-5.9-4.6-8.8-6.8c-0.6-0.4-1.3-0.8-1.9-0.9c-3.4-0.3-6.1-2.1-8.3-4.5c-2.9-3.1-6.4-3.8-10.6-3.3
		c0.7,1.1,1.6,2,2,3c0.3,0.5,0,1.3-0.1,2c-0.6-0.1-1.2-0.1-1.8-0.3c-0.6-0.2-1.1-0.6-1.7-1c-1.3-0.9-2.5-0.7-3.4,0.5
		c-1.2,1.6-2.8,2-4.7,2.4c-3.5,0.6-6.9,1.9-10.4,2.7c-2.6,0.6-5.3,0.9-8,1.3c-0.9,0.1-1.8,0-2.7,0c-0.1-0.3-0.2-0.6-0.3-0.9
		c1-0.5,2-1.1,3-1.4c5.7-1.6,11.4-3,17.1-4.5c1.5-0.4,1.6-1.2,0.7-2.4c-1.5-1.8-3.3-3.2-5.7-3.3c-5.2-0.2-10.3-0.2-15.5-0.2
		c-2,0-3.9,0.2-5.9,0.2c-1.7,0-3.2,0.4-4.2,1.9c-1,1.5-2.2,1.5-3.7,0.6c-2.2-1.4-3.1-1.1-4.3,1c-2,3.4-2.7,3.6-6.6,2.2
		c-3.3-1.2-5.2-0.4-6.4,2.6c0.1,0.1,0.2,0.3,0.3,0.3c3.6-1.4,4.4,1.9,6,3.7c0.3,0.3-0.4,1.5-0.7,2.5c0.1,0.2,0.4,0.9,0.8,1.6
		c-0.9-0.1-2,0-2.8-0.4c-0.6-0.3-0.9-1.2-1.4-1.8c0.2-0.2,0.3-0.3,0.5-0.5c-1.5-0.1-3.1-0.1-4.5-0.5c-1-0.2-2.1-0.7-2.7-1.5
		c-1.4-1.8-2.4-2-4.1-0.4c-0.6,0.5-0.9,1.3-1.5,2.1c-0.4-0.6-0.8-1.1-1.6-2.2c0.2,1.8,0.3,3,0.5,4.2c-0.2,0-0.3,0.1-0.5,0.1
		c-0.6-1.8-1.1-3.5-1.6-4.9c-2,0.4-3.9,0.4-5.6,1.1c-1.7,0.7-3.3,1.7-4.6,3c-1.1,1.1-1.6,2.8-2.3,4.2c-1.3,2.4-2.8,2.7-5.1,0.9
		c0.6-1.3,1.5-2.6,1.8-4c0.2-0.7-0.4-1.9-0.9-2.3c-3.3-2.3-6.8-4.4-10.3-6.5c-1-0.6-2.4-0.5-3.6-0.8c-2-0.5-4-1-6-1.5
		c-0.8-0.2-1.6-0.5-2.4-0.9c-0.5-0.2-1-0.7-1.4-1c0.4-0.5,0.7-1.1,1.2-1.4c0.5-0.4,1.1-0.5,1.7-0.8c-0.9-2.3-1.9-2.9-3.5-1.7
		c-2,1.6-3.8,1.8-5.7-0.3c-0.5,1.7-0.9,3.1-2.7,1.6c-0.2-0.1-0.6,0.1-1,0.2c-1.8,0.8-3.1-0.3-3.8-1.6c-0.4-0.9-0.3-2.5,0.2-3.3
		c1.5-2.5,1.5-2.2-1.1-3.5c-1-0.5-1.9-1.8-2.2-2.9c-0.7-2.6-2-3.9-4.8-4.1c-3-0.3-6-1-9.1-1.5c0.2,1.2,0.3,2.2,0.5,3.4
		c-0.7-0.2-1.2-0.3-1.5-0.5c-2-2.4-4.7-2.6-7.5-2.9c-4.8-0.6-9.5-1.4-14.3-2.1c-0.5-0.1-1.2-0.2-1.4-0.6c-2-3.4-6-2.2-8.8-3.8
		c-0.2-0.1-1.1,0.7-1.4,1.3c-0.6,1.1-1.1,2.3-1.7,3.6c0.3,1.1,0.7,2.7,1.1,4.2c-0.2,0.1-0.4,0.3-0.7,0.4c-1.7-1-3-2.4-3.9-4.2
		c-0.1-0.2,0.6-0.9,1-1.3c0.5-0.6,1.1-1.1,1.9-1.9c-0.8-0.2-1.1-0.3-1.4-0.3c-4.3,0.8-8.4,0.3-12.1-2.4c-0.9-0.7-2.2-1-2.7,0.3
		c-0.2,0.4,0.8,1.5,1.5,2.1c1,0.8,2.4,1.2,3.4,2c1.5,1.1,1.4,2.7-0.1,3.6c-2.3,1.4-4.1,3.6-7.1,4c-1.6,0.2-2.2-0.1-2.1-1.4
		c0.1-2.1-0.9-2.9-2.7-3.3c-0.5-0.1-1.1-0.2-1.4-0.6c-0.4-0.5-0.6-1.2-0.9-1.9c0.6-0.2,1.3-0.7,1.9-0.6c1.5,0.3,2.9,0.9,4.4,1.3
		c0.9,0.2,1.8,0.3,3.2,0.5c-0.4-1.1-0.4-2-0.8-2.3c-2.7-1.9-5.5-3.4-8.9-1.8c-0.5,0.2-1.1,0.4-1.7,0.4c-1.2-0.1-1.8-0.7-1-1.9
		c0.9-1.2,1.8-2.5,2.8-3.7c1.3-1.6,3-1.9,4.9-1.5c0.9,0.2,1.9,0.2,2.8,0.3c0-0.3,0-0.6,0-0.9c-1,0-2,0-3,0c-2.4-0.1-2.8-1-1.7-3
		c0.3-0.5,0.4-1.2,0.4-1.8c0-1.2-0.2-2.3-0.4-3.6c-0.9-0.3-2.2-0.7-3.7-1.2c1.3,4.7-2.3,3.5-5,3.7c0,0.2,0,0.4,0,0.6
		c0.7,0.6,1.5,1.2,2.2,2c0.4,0.4,0.5,1.1,0.7,1.7c-0.6,0.1-1.3,0.3-1.7,0.1c-1.9-0.8-4-1.5-4.5-4c-0.1-0.4-0.6-0.8-1-1.4
		c-1.7,2.2-3.2,1.9-5.2,0.6c-0.9-0.6-2.7,0-4,0.3c-1.3,0.3-2.5,1.1-3.9,1.4c-0.5,0.1-1.2-0.7-1.8-1.1c0.5-0.4,1.1-1.1,1.5-1
		c2.3,0.3,2.1-4.2,5-2.6c1.1-1.6,2.2-3.2,3.4-4.8c-0.1-0.2-0.3-0.4-0.4-0.6c-7.2,2.1-14.4,1.3-21.7-0.5c1.5-0.4,3.1-0.7,4.6-1.1
		c0.4-3.1,0.5-3.1,3.7-2.8c0.6,0.1,1.3,0.1,1.7-0.1c0.5-0.3,0.7-0.9,1-1.4c-0.5-0.3-1-0.8-1.4-0.8c-1.8,0.3-3.4,0-4.9-1.2
		c-0.9-0.7-1.8-0.4-2.2,1c-1,3.6-2.8,4-5.7,1.6c-1.1-0.9-2.6-1.4-3.8-2.2c-1-0.7-2-1.4-2.7-2.3c-1.1-1.4-2-1.5-3.5-0.1
		c0,0.1,0,0.2,0.1,0.2c0.7,0.6,1.5,1.1,2.3,1.7c-0.8,0.3-1.6,0.5-2.4,0.8c-0.4,0.2-0.9,0.6-0.9,1c-0.2,2.1-1.7,2.3-3.3,2.4
		c-1.3,0.2-2.7,0.5-4,0.8c-0.5,0.1-1.1,0.1-1.7,0c-2.4-0.3-4.8-0.8-7.2-0.8c-2.4,0.1-4.7,0.7-7.1,1.2c-1.8,0.4-3,0.2-3.3-1.9
		c-0.1-0.6-1-1.3-1.6-1.5c-3.2-1-5.9-2.7-7.8-6c2.9,1,4.9,0.2,6-2.9c-1,0-1.9,0.1-2.9,0c-1.8-0.1-3.7-0.3-5.5-0.5
		c-1.2-0.1-2.5-0.2-3.7-0.5c-2.8-0.5-5.5-1.1-8.3-1.7c-1.1-0.3-1.3-1.1-0.4-2c0.5-0.6,1-1.2,1.9-2.2c-1.7-0.2-2.9-0.4-4.2-0.4
		c-2.4-0.1-4.6-0.3-6.3-2.4c-0.7-0.8-2.1-1.1-3.3-1.5c-3.6-1.2-4.4-2.6-3.5-6.2c0.2-0.9,0.5-1.8,0.8-2.7c0.9-2.5,4.5-3.5,6.5-1.7
		c0.3,0.3,0.4,1.4,0.1,1.9c-1,1.8-1.4,3.3,1,4.5c0.4,0.2,0.5,1.2,0.7,1.8c1.7,0.3,3.7,0.6,6,1.1c-1,0.7-1.6,1-2.6,1.7
		c1.2,0.3,2,0.5,2.8,0.7c1.3,0.4,1.7-0.3,1.8-1.4c0-0.7-0.2-1.3,0-2c0.1-0.5,0.5-1.1,0.9-1.3c0.3-0.1,1.1,0.2,1.3,0.5
		c1.3,2.2,3,4.1,2.7,7c-0.4,3.6,2.4,5.4,6.7,3.8c-1-0.7-1.7-1.3-2.5-1.6c-0.5-0.2-1.3,0.1-1.7-0.1c-0.7-0.4-1.1-1.2-1.7-1.8
		c0.7-0.3,1.4-1,2-0.9c2,0.3,4,1,6,1.2c1.1,0.1,2.4-0.3,3.5-0.7c0.3-0.1,0.4-1.1,0.5-1.6c-0.6,0-1.3-0.1-1.9-0.1
		c-0.1,0-0.1,0.1-0.2,0.1c-2.5,2.1-2.9,2.1-4.2-1c-0.5-1.2-0.6-2.7-0.7-4c0-0.3,1.4-1,1.6-0.9c2.6,2,5,2.2,7.5-0.2
		c0.9-0.8,2.4-1,3.5-1.7c0.5-0.4,0.7-1.2,1.1-1.9c-0.8-0.3-1.6-0.7-2.5-0.9c-0.4-0.1-0.9,0.3-1.4,0.5c-1.7,0.6-3.5,1.1-4.3-1.4
		c-0.5,0.3-0.8,0.6-1.1,0.7c-0.8,0.2-1.5,0.4-2.3,0.6c-0.2-0.9-0.6-1.8-0.5-2.6c0.3-1.8,1.8-2.5,3.4-2.9c1.6-0.4,2.7-1.2,1.4-3.2
		c-0.3,0.3-0.4,0.6-0.6,0.8c-0.4,0.4-0.8,0.7-1.2,1.1c-0.2-0.6-0.6-1.1-0.6-1.7c0-3.9-0.1-4.1-3.1-5.1c-0.8,1.1-1.1,2.2,0.4,3
		c0.6,0.3,1.1,0.8,1.6,1.2c-0.5,0.5-1,1.3-1.6,1.3c-0.8,0-2.2-0.3-2.4-0.8c-0.6-1.7-0.7-3.5-0.9-5.2c0-0.3,0.1-0.7,0.2-1.5
		c-1.6,0.4-2.5,0.7-1.9,2.4c0.1,0.3,0.4,0.6,0.3,0.8c-0.1,0.9-0.3,1.8-0.5,2.7c-0.5-0.6-1-1.1-1.5-1.7c-0.3-0.4-0.6-0.9-0.9-1.3
		c-0.3,0.1-0.5,0.2-0.8,0.3c0.4,1.1,0.8,2.2,1.1,3.3c0.2,0.8,0.1,1.6,0.2,2.4c-0.8-0.4-1.8-0.6-2.3-1.2c-0.7-0.8-1-1.9-1.5-3.1
		c-1.7,1.5-3.5,2.5-5.5,0.7c-0.5-0.4-0.8-1-1-1.6c-0.2-0.5,0-1.1,0-1.6c0.6,0,1.3-0.1,1.8,0.1c1.1,0.4,2.1,0.9,3.7,1.7
		c-0.7-1.9,0.3-3.9-2.5-3.9c-0.3,0-0.5-0.7-0.8-1.2c-0.1-0.1,0-0.3,0-0.4c0.2-1.9,1-3.8,0.6-5.5c-0.4-1.6-1.9-2.9-3.1-4.6
		c2.7-0.9,5.1-1.7,7.7-2.6c-3.7-3.3-7.2-6.4-10.6-9.4c-1.2,0.1-3.1,0.2-4.9-1.6c-0.4-0.4-1.1-0.5-1.6-0.6c-3.2-0.7-3.2-0.7-3.1-3.5
		c-0.7-0.3-1.3-0.5-1.8-0.8c-1.7-1.1-3.4-2.3-5.4-3.7c-0.1,2.5,0.1,3.9,2,5c2.2,1.4,1.6,5.4-0.8,6.6c-2.9,1.5-5.6,1.1-8.1-0.9
		c-0.3-0.3-0.7-0.9-0.6-1.2c0.1-0.3,0.7-0.6,1.2-0.7c1.3-0.3,2.6-0.4,3.9-0.7c-0.5-1.2-1.1-2.4-1.6-3.6c-1.4-3.2-2.7-6.4-4.4-10.1
		c4.3,1,4.5,4.6,5.9,7.2c0.2,0,0.5-0.1,0.7-0.1c0.1-1.3,0.3-2.6,0.4-3.9c0.1-3.3,0.2-6.7,0.4-10c0.2-2.2,2-2.6,3.7-2.6
		c2.2,0.1,3-0.8,2.9-2.9c0-1.6,0.7-2.8,2.3-3.3c2.7-0.8,5.5-1.4,8.2-2.2c0.7-0.2,1.4-0.6,2.1-0.9c-0.3-0.6-0.5-1.5-1-1.8
		c-1-0.7-2.2-1.6-3.4-1.7c-3.6-0.2-6.7-1.5-9.7-3.6c-1-0.7-2.6-1.1-3.9-1c-1.2,0.1-2.3,1-3.4,1.6c0.6,0.9,1.2,1.7,1.6,2.7
		c0.5,1,0.8,2,1.2,3.1c0.4,1,0.7,2,1.2,2.9c0.5,0.8,1.2,1.4,2.1,2.4c-2.1,0.8-3.9,1.4-5.6,2.3c-0.8,0.4-1.4,1.4-2,2.2
		c-0.4,0.5-0.9,1-1.3,1.5c-0.5-0.5-1.3-1-1.5-1.6c-0.3-1.6-0.3-3.2-0.5-4.8c-0.1-0.7-0.2-1.4-0.4-2.4c-1.8,1.5-4.2,1.2-5.1,3.8
		c-0.4,1.3-5.4,2-6.9,1c-2.7-1.8-5.2-3.8-7.6-5.8c-0.4-0.3-0.3-1.1-0.4-1.7c0.6,0.1,1.4,0.1,1.9,0.4c0.8,0.6,1.4,1.5,2.3,2
		c1.9,1,3.7,0,3.9-2.1c0.1-1.2,0.5-1.8,1.6-1.2c2,1.2,2.5,0,2.7-1.5c0.2-2,0.7-3.4,3.4-1.8c-0.2-1-0.2-1.7-0.5-2.2
		c-2-3.7-0.7-6.8,1.6-9.7c1.6-2,3.4-3.8,5.1-5.7c-0.8-0.4-1.6-0.7-2.4-1.1c-0.8,0.5-1.6,1.1-2.5,1.6c-0.3,0.2-0.9,0.1-1.2-0.1
		c-0.2-0.1-0.3-0.7-0.2-0.9c0.5-1.9,3.1-2.7,4.6-1.4c2.3-1.1,2.3-2.7,1.2-4.7c-1.6-3-3.2-6.1-4.7-9.1c-0.3-0.5,0.1-1.4,0.1-2.1
		c0-0.6-0.1-1.2-0.1-1.8c-0.6,0.1-1.2,0.2-1.8,0.4c-0.3,0.1-0.6,0.4-0.9,0.7c-1.1,1.2-2.2,2.4-3.3,3.6c0.1,0.1,0.6,0.6,1.1,1
		c-1.2,0.3-2.4,0.7-4.2,1.2c0.8-3.8,1.1-6.8,2-9.7c0.8-2.6,2.4-4.8,5.7-5.1c0.5,0,1-1,1.5-1.5c-0.6-0.5-1.2-1.2-1.9-1.3
		c-0.6-0.1-1.5,0.2-1.9,0.7c-1.8,2.2-3.7,2.9-6.2,1.1c-0.3-0.2-1.2,0.1-1.7,0.3c-0.6,0.3-1,1.1-1.7,1.3c-0.6,0.2-1.3-0.2-2-0.3
		c0.3-0.7,0.3-1.7,0.8-1.9c2.9-1.7,2.9-2,2-5.3c-0.7-2.8-1-5.7-1.4-8.6c-0.1-0.4,0.3-0.8,0.5-1.3c0.4,0.3,1.1,0.5,1.3,0.9
		c0.5,1,1,2,1.1,3.1c0.3,3,2.1,4.8,4.2,6.6c1.3,1.1,2.5,1,3.9-0.2c1.3-1.2,2.9-2.1,4.3-3.1c0.2,0.2,0.3,0.3,0.5,0.5
		c0.1-0.5,0.2-1,0.1-1.5c-0.2-1.7,0.5-2.4,2.2-2.4c0.9,0,2-0.6,2.5-1.2c1-1.2,2-1.3,3.3-0.8c1.6,0.6,3.2,1.3,5.3,2.2
		c-1.3-1.8-2.3-3.3-3.6-5.1c2.1,0.6,3.7,1.2,5.5,1.7c-0.1-0.8-0.2-1.4-0.3-2.3c0.1,0.1,0,0,0,0c-0.7-0.7-2.8-0.1-1.9-2
		c0.1-0.2,2.1,0.4,3.2,0.6c1.5,0.3,7.1-2.1,7.4-3.5c0.1-0.6-0.7-1.9-1.4-2.1c-1.3-0.3-2.7-0.2-4.1,0c-1.6,0.2-3.3,1-4.9,0.8
		c-1.4-0.2-2.7-1.4-4.3-2.4c0.2,1.1,0.5,2.2,0.4,3.2c-0.1,0.9-0.7,1.7-1,2.5c-0.5-0.7-1.4-1.4-1.6-2.2c-0.6-2.9-0.2-5.7,1.4-8.2
		c0.3-0.4,0.8-0.7,1.3-1c0.3,0.4,0.6,0.9,0.9,1.3c0.5,1.2,0.8,2.5,1.5,3.6c1.1,1.9,4.4,1.8,5.5-0.1c1.6-3,4.4-4.2,7.5-5.1
		c1.6-0.4,3.2-0.7,5.3-1.1c-1.1-1.3-1.8-2.2-2.4-3.1c-0.5-0.6-1-1.3-1.2-2c-0.1-0.4,0.2-1.1,0.6-1.5c0.2-0.2,0.9,0.2,1.3,0.4
		c0.9,0.5,0.9,2.5,2.6,1.4c1.5-1.1,0.9-2.4,0.3-3.7c-0.2-0.4,0-0.9,0-1.4c0.5,0.2,1.3,0.3,1.6,0.6c2.5,2.8,6,2.7,9.3,3.1
		c0.3,0,1.2-1.2,1.2-1.9c0-1.4-0.4-2.9-0.7-4.3c-0.6-2.9-0.5-3.2,2.3-4.7c0.4,0.5,0.7,1,1.2,1.5c0.4,0.5,0.9,0.9,1.4,1.3
		c1.1-1.3,1.9-3.2,3.1-3.5c1.2-0.3,2.9,0.8,4.4,1.4c2.3-2.6,2-4.9-1.1-6.6c-1.5-0.8-3-1.6-4.8-2.2c0.8,1.9,1.5,3.6-1.2,4.1
		c0.2,0.5,0.3,1,0.5,1.4c-3,0.1-4.2-0.7-4.7-3.4c-0.3-1.4-0.2-2.9-2-3.5c-0.5-0.2-0.8-1.2-0.9-1.9c-0.3-1.8-0.6-3.7-0.6-5.6
		c0-2,1.6-2.2,3.1-2.7c2.1-0.7,4.2-1.5,6.1-2.5c1.6-0.8,1.5-2.1,0.5-3.5c-1.8-2.6-3.7-3.5-6.7-2.8c-1.7,0.4-3.3,1.2-5,1.6
		c-0.8,0.2-1.7,0-2.6-0.1c0.5-0.6,1-1.6,1.7-1.9c3.3-1.3,6.7-2.5,10-3.8c0.7-0.3,1.9-1,1.9-1.4c-0.1-1-0.7-1.9-1.3-2.8
		c-0.6-0.9-2-2.1-1.8-2.4c1.1-1.7,2,0.2,3.1,0.4c1.8,0.5,3.5,1.1,5.4,1.4c-0.8-1.9-2.1-3.2-4.1-3.6c-4.6-0.9-9.2-2.2-13.9-2.8
		c-2.4-0.3-4.9,0.9-7.4,1.4c-0.4,0.1-0.7,0.4-1,0.3c-0.7-0.1-1.4-0.4-2.1-0.7c0.5-0.5,0.9-1.4,1.4-1.6c1.4-0.5,2.8-0.8,4.3-1
		c3.3-0.4,6.5-0.7,9.8-0.9c2.6-0.1,3.4-1.2,2.1-4c-2.3,3.3-5.7,1.7-8.6,1.9c-0.4,0-1.3-0.5-1.3-0.8c0-0.5,0.3-1.4,0.7-1.6
		c1.3-0.5,2.7-0.8,4.1-1.2c1.5-0.4,3.9,0.4,3.6-2.5c-0.2-2.4-2.7-4.2-5-3.9c-0.6,0.1-1.3,0.4-1.9,0.4c-0.9,0-1.9-0.1-2.8-0.3
		c-0.3-0.1-0.7-0.6-0.7-0.9c0-0.3,0.5-0.7,0.8-0.8c4.5-0.7,9-1.1,13.2,1.3c3.8,2.2,4.5,4,3.2,8.1c-0.2,0.7-0.2,1.9,0.2,2.1
		c0.6,0.4,1.9,0.5,2.3,0.1c1.2-1.1,2.3-2.4,3-3.8c1.5-3.1,1.6-3.2,4.2-1c2.1,1.7,3.9,1.5,5.6-0.6c1.2-1.5,2.6-2.9,3.8-4.4
		c0.4-0.5,0.5-1.3,0.6-2c0.3-3.2,0.4-6.4,0.7-9.6c0.1-0.7,0.3-1.4,0.5-2.1c0.3-1.1,0.8-2.4,2.1-1.9c0.7,0.3,1.5,1.6,1.5,2.5
		c0,2.6-0.5,5.2-0.7,7.8c0,1.1,0.4,2.2,0.7,3.3c1.6-0.3,2.3-1.5,1.5-2.9c-1.1-1.8,0.4-2.8,1.2-3.9c0.2-0.2,1.7,0.6,2.6,1
		c0.9,0.5,1.7,1.2,2.8,1.9c0.7-3.5,0.1-5.2-1.9-6.5c-0.6,1-0.7,2.7-2.8,2.1c-2.2-0.7-2.7-1.4-1.9-3.7c0.3-0.9,0.5-1.9,1-2.6
		c0.6-0.9,1.4-2.2,2.1-2.2c0.9,0,2,1,2.7,1.9c0.5,0.6,0.5,1.6,0.6,2.5c0.1,1,0.4,1.8,1.6,1.4c1.7-0.6,2.2,0.5,2.6,1.8
		c0.2,0.9,0.3,1.9,0.5,2.8c0.1,0.6,0.2,1.4,0.6,1.6c3.2,1.7,5.6,5.6,10,4.5c0.5-0.1,1.3-0.3,1.4-0.7c0.2-0.4-0.3-1-0.5-1.5
		c-0.7-1.4-1.4-2.8-2.2-4.1c-1.6-2.8-3.3-5.5-4.8-8.3c-0.5-1-0.7-2.2-1-3.3c0.9,0.6,1.8,1.2,2.6,1.8c1.9,1.4,3.8,2.9,5.8,4.2
		c1,0.6,2.2,1.1,3.3-0.2c0.2-0.2,1.6,0.3,2.2,0.7c0.9,0.6,1.6,1.4,2.6,2.3c0.6-3.2-1-4.7-4-4.5c-2.6,0.2-3.3-0.4-3.5-2.9
		c-0.3-3.3,0.7-4,5.2-3.7c0.2-0.9,0.3-1.8,0.6-2.7c0.2-0.7,0.6-1.5,1.1-2c0.4-0.3,1.2-0.2,1.8-0.3c0.1,0.5,0.2,1.1,0.2,1.6
		c0,0.7-0.2,1.4-0.3,2.5c1-0.7,1.7-1.1,2.6-1.7c0.1,1.5,0.2,2.7,0.3,3.9c0.2,0.1,0.5,0.2,0.7,0.3c1.3-2,2.6-4,3.8-6
		c0.2,0.1,0.4,0.1,0.6,0.2c0.1,0.4,0.3,1,0.1,1.3c-1,2.2,0.4,2.4,2,2.6c2.6,0.2,4.8-0.5,6.9-2.2c1.3-1.1,2.9-2,4.5-2.7
		c2.8-1.2,4.6,0.1,4.6,3.1c0,1.9-0.3,3.7,0.1,6c0.6-0.5,1.6-0.9,1.8-1.5c1-2.4,1.7-5,2.6-7.4c0.5-1.4-0.1-2.1-1.5-2.2
		c-0.6,0-1.2,0-1.7,0.1c-2.3,0.4-4.2,0.2-4.7-2.7c-0.2-1.3-1.2-1.9-2.7-1.3c-0.7,0.3-1.6,0-3,0c-0.3,0.5-0.7,1.6-1.3,2.5
		c-0.4,0.6-1.1,1.2-1.8,1.2c-0.3,0-1-0.9-1.2-1.6c-1.1-3.8,0.7-8.1,4.1-10.2c1.5-0.9,3-1.9,4.4-2.9c1.2-0.8,1.2-1.8-0.1-2.5
		c-1.8-0.9-3.4-2.3-5.4-0.2c-0.7,0.7-2.3,0.7-3.5,0.8c-1.2,0.1-2.4,0-3.9,0c0.8,0.9,1.4,1.7,2.1,2.5c-2,0.8-3.4-0.1-4.4-1.3
		c-0.9-1-1.4-2.4-1.7-3.8c-0.1-0.5,1.1-1.4,1.9-1.7c0.8-0.3,1.8-0.2,2.6,0c1.9,0.4,3,0,3.4-2.1c0.4-2.2,1.3-2.5,3.8-1.9
		c0.9,0.2,2,0.8,2.2-0.7c0.2-1.4-0.6-2.1-1.9-2c-2.9,0.1-5.3-1.1-7.5-2.7c-0.5-0.4-0.7-1.3-1-1.9c0.6-0.2,1.3-0.6,1.9-0.7
		c1.7-0.3,3.5-0.5,5.5-0.9c0.3,0.5,0.8,1.4,1.3,2.4c1.8-2,1.7-3.1-0.1-4.3c-0.5-0.3-0.9-1.6-0.6-1.9c0.8-1,1.8-1.9,2.9-2.6
		c1.8-1.2,2.7-2.7,2.6-4.9c0-1.7,0.2-3.5,0.6-5.2c0.1-0.7,0.9-1.2,1.8-2.2c0.3,2.3,0.5,3.8,0.7,5.4c0.2,0.1,0.3,0.1,0.5,0.2
		c2.4-3.4,5.8-6.3,6-11c0.1-2.1,0.7-3.8,2.7-4.6c0.7-0.3,1.7-0.2,3-0.3c-0.5,1-0.6,1.6-1,1.8c-2.4,1.8-2.8,4.4-2.5,7.1
		c0.1,0.8,0.9,2.2,1.3,2.2c1.4-0.2,3-0.2,3.4-2.1c0.1-0.3,0-0.6,0-0.9c-0.2-5,0.2-5.5,4.7-7.3c2.1-0.9,4-2,6.5-3.3
		c-0.4,1.1-0.5,1.8-0.9,2.4c-1.8,2.8-2,6-2.3,9.2c-0.1,1.4,0.5,2.2,1.9,2.4c1.3,0.2,2.6,0.3,3.3-1.3c2.1-4.4,6.2-6.9,10.4-6.9
		c1-0.9,1.9-2.3,2.4-2.2c1,0.2,2.1,1.2,2.7,2.1c1.1,1.9,2.1,2,4,1c1.7-0.9,3.7-1.2,5.6-1.6c2-0.4,3.9-0.8,5.9-1.1
		c0.6-0.1,1.2,0.2,1.8,0.2c0.6,0,1.3,0,1.9-0.3c0.2-0.1,0.1-0.9,0.1-1.4c-0.6,0-1.3-0.1-1.8,0.1c-2.3,0.8-2.7,0.6-2.5-1.5
		c-0.5-0.2-1.1-0.5-1.6-0.7c-0.6-0.3-1.2-0.6-1.8-0.9c0.6-0.6,1.1-1.6,1.7-1.7c1.4-0.2,3-0.2,4.4,0.1c1.1,0.2,1.8,0.5,2.7-0.6
		c0.9-1.2,1.7-0.9,2,0.6c0.1,0.4,0.6,0.7,1,1c0.4-0.4,1-0.7,1.1-1.2c0.4-1.5,0.5-3,0.7-4.1c-0.8-0.8-1.4-1.6-2.2-2.1
		c-0.5-0.4-1.3-0.7-2-0.6c-1.6,0.1-3.2,0.5-4.8,0.6c-0.7,0-1.5-0.5-2.3-0.8c0.3-0.7,0.7-1.4,1-2.1c0.1-0.2,0.5-0.3,0.7-0.5
		c0.3-0.5,0.6-1.1,0.9-1.6c-0.5-0.2-1-0.7-1.5-0.7c-1.9-0.1-3.8-0.1-5.7-0.1c-0.9,0-1.8,0-2.6-0.1c-1.5-0.1-2.6-0.7-2.6-2.3
		c0-1.7,1.1-2.3,2.5-2.5c2.7-0.3,5.5-0.6,8.3-0.9c1.6-0.2,3.1-0.4,4.7-1c-0.4-0.2-0.9-0.3-1.2-0.6c-0.4-0.4-0.7-1-0.7-1.4
		c0.1-0.3,0.8-0.6,1.3-0.7c1.4-0.2,2.8-0.6,4.2-0.5c1.7,0.1,3.5,0.2,5,0.9c2.7,1.4,2.9,1.4,3.4-1.9c-1.2,0-2.5,0.1-3.6-0.1
		c-0.7-0.1-1.2-0.7-1.9-1.1c0.5-0.5,0.9-1.2,1.5-1.5c1.6-0.7,3.4-1.4,5.1-1.9c0.6-0.2,1.8,0.3,2,0.8c0.9,2.5,0.8,2.5,3.8,1.4
		c-0.2-0.8-0.4-1.8-0.8-2.6c-0.6-1.4-0.1-2.3,1.2-2.7c1.3-0.5,2.9-1.8,4,0.2c1.1,1.9,2.3,1.6,3.8,0.8c2.9-1.4,3.6-1.3,5.5,1.3
		c0.9,1.3,1.6,1.1,2.8,0.3c2.6-1.6,5.4-3,8.2-4.3c0.6-0.3,1.4-0.2,2.4,0.2c-0.5,0.6-0.9,1.4-1.5,1.9c-2.7,2.2-5.4,4.4-8.2,6.6
		c-1,0.8-1.8,1.5-0.6,3.2c1-0.8,2.1-1.5,3-2.4c1.8-1.7,3.6-3.4,6.3-3.6c1-0.1,2-0.9,2.8-1.6c2.4-2.2,4.7-4.5,7.1-6.6
		c0.4-0.4,1.3-0.3,1.9-0.4c0,0.6,0.2,1.3,0,1.8c-0.4,0.9-1.1,1.6-1.7,2.3c0.8,0.9,1.5,1.7,2.1,2.5c0.6,0.8,1,1.8,2.2,0.8
		c0.9-0.8,1.8-1.5,0.6-3c-0.7-0.9-1.1-2.6-0.8-3.7c0.3-0.9,1.7-1.7,2.8-1.9c1.2-0.3,2.5,0.2,2.5,2c0,2.3,1.1,3.5,3.5,3.9
		c1.1,0.2,2.3,0,2.9,0c0.8-0.8,1.2-1.5,1.7-1.6c2.9-0.7,6-1.8,8.5,1.2c0.3,0.3,1.1,0.1,1.7,0.1c-0.1-0.5-0.2-1.1-0.4-1.5
		c-0.3-0.6-0.9-1-1.3-1.5c-0.9-1.1-0.9-2.2,0.2-3c1.4-1,1.4-2.2,0.6-3.6c-1.6-2.9-1-4,2.3-4.4c0.3,0,0.6-0.1,0.9-0.1
		c0.7,0,1.4,0,2.1,0c-0.3,0.7-0.7,1.3-1.3,2.5c1,0.8,2.2,1.8,3.5,2.8c1-1.4,2.1-2.7,2.9-4.2c0.3-0.5-0.4-1.5-0.7-2.3
		c-0.4-0.9-0.8-1.8-1.3-2.6c1-0.3,1.9-0.8,2.9-0.9c1.1-0.1,2.2,0,3.3,0.1c2.3,0.3,4.2,0,5.7-2.2c0.7-1,2.4-1.7,3.7-2
		c2.4-0.6,4.9-0.7,7.3-1.1c0.7-0.1,1.2-0.9,1.8-1.4c-0.7-0.3-1.4-1.1-2.1-1c-3.7,0.5-7.3,1.1-11,1.7c-0.7,0.1-1.4,0.1-2.2,0.1
		c-0.4-2.3,0.3-3.7,2.4-4.4c4-1.4,8-2.5,12.1-0.6c1.2,0.5,1.9,0.1,2.3-1.2c0.3-1,0.7-1.9,1.1-2.8c0.9-1.8,0.4-2.8-1.6-2.9
		c-0.9,0-2,0.4-2.8,0.2c-0.9-0.3-1.7-1.1-2.5-1.7c0.5-0.7,0.9-1.8,1.5-2c1.3-0.4,2.8-0.5,4-0.2c2.5,0.6,5,1.6,7.5,2.4
		c0.8,0.2,1.8,0.1,2.7,0.1c-0.1-0.8-0.2-1.5-0.3-2.3c0-0.3-0.1-0.8,0.1-1c1.2-2.3,2.4-4.6,3.7-6.8c1.3-2.2,0.9-3.6-1.4-4.7
		c-0.6-0.3-1.4-1-1.3-1.4c0.1-0.7,0.6-1.5,1.2-1.9c0.4-0.3,1.4,0,1.9,0.4c1,0.8,1.9,1.8,2.9,2.7c0.7,0.6,1.6,1.1,2.4,1.7
		c0.2-0.1,0.5-0.2,0.7-0.3c-0.3-1.3-0.5-2.5-0.8-3.8c-0.3-1.3-0.9-2.6-1.1-4c-0.1-0.5,0.4-1.1,0.6-1.7c0.6,0.4,1.4,0.6,1.7,1.1
		c0.8,1.7,1.4,3.5,2,5.3c0.6,2,2.1,2.9,3.9,3.5c1.6,0.5,3.1-1,2.3-2.5c-1-2.2-0.2-4,0.8-5.8c1.4-2.4,2.7-4.9,1-8.2
		c-0.9,1-1.7,1.9-2.5,2.9c-0.6,0.8-1,1.9-1.7,2.5c-1.6,1.3-1.8,2.8-1.1,4.7c0.2,0.6-0.3,1.5-0.4,2.3c-0.6-0.6-1.5-1-1.7-1.7
		c-0.9-3.3-0.6-6.3,1.4-9.5c1.5-2.3,2.5-4.4,5.6-4c0.3,0,1-0.4,1-0.6c-0.1-1-0.2-2.1-0.6-2.9c-0.3-0.6-1.4-0.7-2-1.1
		c-0.6-0.3-1-0.8-1.5-1.2c0.4-0.5,0.8-1.2,1.4-1.5c0.6-0.3,1.4-0.3,2.1-0.5c1.5-0.5,3-1,4.4-1.8c1.3-0.7,2-0.9,2.2,0.9
		c0.1,0.7,0.6,1.3,0.9,2c0.5-0.5,1.3-0.9,1.6-1.6c1.9-4.9,5.4-6.9,10.6-6.7c2.5,0.1,5.1-0.2,7.6-0.3c1,0,2,0.3,3.2,0.6
		c-0.8,1.6-1.6,2.4-3,1.8c-1.7-0.7-3.1-0.2-4.5,0.7c-1.1,0.8-2.5,1.4-3.4,2.3c-0.5,0.5-0.9,1.8-0.6,2.4c0.4,1.1,1.4,1.5,2.4,0.6
		c0.3-0.2,0.6-0.5,0.9-0.7c3-2.3,4.6-1.7,5.3,2c0.3,1.3,1,1.5,2.2,1.5c1.2,0,2.5,0.4,3.7,0.4c0.9,0,2,0,2.6-0.5
		c2.1-1.6,4.4-1.6,7.4-1.9c-0.7,1.1-1.1,1.9-1.7,2.4c-1.4,1.2-2.7,2.5-4.3,3.4c-0.9,0.5-2.1,0.4-3.2,0.7c-1.4,0.3-2.9,0.6-4.2,1.1
		c-0.3,0.1-0.7,1.1-0.5,1.4c0.2,0.4,0.9,0.7,1.4,0.7c1.8,0,3.6-0.4,5.5-0.4c2.7,0,5.4,0.3,8.1,0.4c1.8,0,3.6-0.2,5.4-0.2
		c0.7,0,1.6,0,2.1,0.4c0.7,0.4,1.2,1.2,1.8,1.9c-0.8,0.5-1.7,1.5-2.4,1.3c-2.1-0.3-2.6,0.6-2.6,2.6c0.7,0.1,1.6,0.4,2.1,0.1
		c3.2-1.6,5.6,0.9,8.3,1.5c0.3,0.1,0.5,0.6,0.7,0.9c-0.3,0.2-0.6,0.6-1,0.6c-1.6,0-1.6,0.8-1.8,2.2c-0.2,1.2-1.7,2.1-2.6,3.3
		c-0.7,0.9-1.3,1.9-2.3,3.3c4.2,0,7.6,0.1,11-0.1c0.6,0,1.4-0.8,1.7-1.5c1.4-3.2,4.5-3.9,7.2-4.7c0.9-0.3,2.2,0.9,3.4,1.4
		c0.7,0.3,1.5,0.7,2.2,0.8c0.2,0,0.9-1,0.8-1.1c-0.5-0.6-1-1.3-1.7-1.7c-1.7-0.9-3.6-1.5-5.2-2.6c-1.3-0.9-1.3-2,0.2-3.4
		c1.6-1.4,3-2.4,5.2-1.8c0.3,0.1,0.8-0.2,1.2-0.2c0-0.2,0.1-0.5,0.1-0.7c-1.5-0.3-2.9-0.9-4.4-1c-3.7-0.4-7.4-0.5-11.1-0.9
		c-0.7-0.1-1.3-0.6-2-0.9c0.7-0.4,1.4-1.3,2-1.2c5,0.7,9.8-0.2,14.7-0.9c1.3-0.2,2.4,0.2,2.7,1.9c0.1,0.4,1.2,1,1.9,1
		c1.2,0.1,2.4-0.4,3.7-0.3c2.1,0.1,3.7,1.3,4.5,3.3c0.8,2.1,0.4,2.7-1.8,2.6c-2.8,0-5.3,1.2-7.7,2.4c1.3,2.4,2.3,2.8,4.3,1.7
		c3.2-1.8,6.3-3.7,9.5-5.5c1.7-1,1.6-2,0.2-3.2c-2.3-2.1-4.6-4.2-6.9-6.4c-0.7-0.6-1.3-1.5-1.6-2.3c-0.4-1.2-1-2.6,0.9-3.2
		c2.2-0.7,3-0.2,4,1.6c1.9,3.5,4.1,6.8,6.3,10.2c0.2,0.4,1.2,0.5,1.7,0.4c1.1-0.3,2.1-0.8,3.1-1.3c-0.5-1.3-1.4-2.5-1.2-3.5
		c0.2-1.1,1.4-1.9,2.1-2.9c1.4-2,3-2.1,4.3,0c1,1.6,1.7,3.4,2.6,5.1c0.7,1.5,1.6,1.8,3.2,1.1c1.3-0.6,2.7-1,4.2-1.2
		c0.7-0.1,1.4,0.5,2.2,0.8c-0.5,0.7-0.9,1.6-1.6,2c-1.5,0.8-3.1,1.2-4.7,1.8c-0.4,0.2-0.6,0.5-1.4,1.2c1.2,0.1,1.8,0.3,2.4,0.1
		c3.3-0.7,6.5-1.4,9.8-2.1c0.4-0.1,0.9-0.4,1.3-0.3c0.8,0.2,1.6,0.5,2.4,0.8c-0.7,0.5-1.3,1.3-2,1.6c-1,0.4-2.1,0.5-3.6,0.8
		c1.5,1,2.6,1.6,3.9,2.4c-0.8,0.9-1.5,1.7-2.3,2.6c2.3,0.7,4.3,0.4,6.3-0.5c1.9-0.9,3.8-1.8,5.7-2.6c0.7,1.2,1.2,2.2,1.9,3.4
		c-0.8,0.3-1.5,0.8-2.2,0.9c-1.5,0.3-2.9,0.6-3.1,2.5c-0.1,0.4-0.8,0.8-1.3,0.9c-1.3,0.4-2.7,0.5-4,0.9c-0.9,0.3-1.7,0.9-2.7,1.5
		c1.4,1.5,2.5,1.9,4,1c1.7-1.1,3.4-0.8,4.9,0.3c3.6,2.5,7.3,4.4,11.9,4.3c0.5,0,1.1,0.8,1.6,1.2c-0.6,0.4-1.2,1.2-1.7,1.2
		c-1.9,0-3.9-0.3-5.8-0.6c-2.4-0.4-3,0-2.9,2.4c0.1,1.4,0.6,2.8,0.9,4.3c1.3-0.7,2.6-1.3,3.8-2.1c1-0.7,1.6-1.4,3-0.7
		c0.7,0.4,2.1-0.3,3-0.8c2.4-1.3,2.5-1.3,3.3,1.2c2.4-0.6,4.8-1.8,7.1-1.5c2.1,0.2,4,2.1,6.2,3.3c0.7-1,1.8-2.2,3.8-1.5
		c0.2,0.1,1.2-1.2,1.5-2c0.8-2.6,0.8-2.7,2.8-1c1,0.9,1.6,0.7,2.1-0.5c0.9-2,4.7-3.7,6.5-3c0.5,0.2,0.8,0.9,1.3,1.5
		c0.5-0.3,1.1-0.5,1.7-0.8c2.3-1.2,2.8-0.8,4.4,1.3c1,1.4,2.7,2.2,4.5,3.5c-0.9,2.4-2.4,5-5,6.8c-1.2,0.8-2.3,1.7-3.4,2.7
		c-1.2,1-1.1,2.1,0.3,2.8c0.5,0.3,1.1,0.4,1.6,0.6c1.3,0.4,1.9,0,1.8-1.5c-0.2-2.9,4.2-7.1,7.1-6.8c0.7,0.1,1.5,0.7,1.8,1.2
		c0.2,0.4-0.2,1.5-0.6,1.8c-2,1.2-2.2,4.2-4.7,4.9c-0.1,0-0.3,1.1-0.1,1.3c2.1,1.9,0.8,3.5-0.2,5.2c-0.3,0.5-0.5,1.2-0.7,1.9
		c0.7-0.2,1.3-0.5,2-0.6c0.9-0.1,1.9-0.2,2.9-0.2c0.6,0,1.3-0.1,1.9-0.1c-0.2-0.8-0.2-1.8-0.6-2.3c-1.9-2-2.1-2,0.5-3.2
		c2.5-1.1,5.2-2.7,7.8,0.1c0.2,0.3,1.4,0,1.9-0.3c1.3-0.8,2.5-1.8,3.8-2.6c0.7-0.5,1.6-0.7,2.5-1c0.2,0.2,0.4,0.4,0.6,0.6
		c-0.6,0.9-1.1,1.9-1.9,2.5c-2.3,1.8-2.4,2-1,4.7c0.2,0.5,0.5,0.9,0.6,1.4c0,0.5-0.1,1.2-0.3,1.6c-0.1,0.2-0.9-0.1-1.3-0.1
		c-1.8-0.2-3.5-0.4-5.3-0.4c-0.3,0-0.8,0.8-0.8,1.3c-0.1,0.8,0.2,1.7,0.3,2.8c0.7-0.5,1.2-0.7,1.6-1.1c1-0.8,1.7-0.6,2.7,0.1
		c0.8,0.6,2.2,1.1,3,0.7c2.9-1.1,5.6-2.4,8.8-1.4c0.8,0.2,1.5,0.5,2.3,0.7c-0.4,0.7-0.8,1.5-1.4,2c-2.1,1.8-4.2,3.5-6.6,5.5
		c1.2,0.1,2.1,0.1,3.1,0.2c2,0.2,4.2,0.2,4.8,2.8c0.1,0.3,0.5,0.5,0.7,0.8c1,0.8,2.2,1.5,3.1,2.5c1.1,1.2,2,2.1,3.3,0.4
		c0.1,1.6-0.3,3.4,0.3,4.2c0.8,0.9,2.6,0.8,3.5,1.1c0.6,2.1,0.9,4.1,1.7,5.9c0.7,1.8,2.3,2.4,4.2,1.9c2.1-0.6,3.9-0.2,5.1,1.5
		c1.6,2.2,3.7,2.6,6.9,2.5c-1.8-1.7-3.2-3-4.7-4.2c-2.3-1.8-2.2-2.6,0.5-3.8c2.4-1,4.6-1.6,6.8,0.7c1.9,2.1,2.3-0.6,3.6-1.5
		c3.2,4.1,1.4,8.7,1.6,13.5c0.8-0.2,1.9-0.1,2.2-0.5c2.2-3,5.5-3.6,8.8-4.4c0.2-0.1,0.4-0.2,0.6-0.3c-0.5-0.4-1-0.8-1.5-1.2
		c0.8-0.5,1.6-1,2.6-1.5c-0.3-1.5,0.7-1.7,2.3-1.6c2.2,0.2,4.4,0,6.6,0c0.2-0.2,0.3-0.5,0.5-0.7c-0.4-0.2-0.9-0.3-1.3-0.5
		c0-0.2,0.1-0.3,0.1-0.5c0.9,0.2,1.9,0.2,2.7,0.6c0.5,0.3,0.7,1.3,1,2c-0.7,0.1-1.4,0.3-2.1,0.3c-1.1-0.1-2.3-0.3-3.5-0.2
		c1.1,0.4,2.2,0.7,3.4,1.1c0,0.2,0,0.4,0,0.5c-2.1,0.1-4.1,0.2-6.2,0.3c0,0.2,0,0.3,0,0.5c0.9,0,1.8-0.1,2.7-0.1
		c2,0,2.5,0.9,1.5,2.6c-0.4,0.7-0.9,1.3-1.5,2.2c0.7,0.1,1.2,0.4,1.6,0.3c3.5-0.8,7.1-1.4,10.6-2.5c2.6-0.8,4.7-1.1,6.8,1
		c1.6,1.6,3.2,1.5,5.6-0.2c-0.8-0.7-1.4-1.5-2.2-2c-2.4-1.2-4.8-2.3-7.2-3.5c-0.5-0.2-0.7-0.9-1.1-1.4c0.5-0.2,1.1-0.8,1.5-0.7
		c1.7,0.4,3.3,1.1,5.4,1.8c0.1-0.1,0.1-0.6,0.4-0.7c0.6-0.3,1.2-0.5,1.8-0.7c0.1,0.6,0.3,1.2,0.2,1.8c-0.4,2.5,3,5.5,5.3,4.4
		c3.6-1.7,6.4-0.6,8.9,1.9c0.8,0.8,1.2,1.9,1.7,2.9c0.3,0.6,0.4,1.3,0.7,2.2c1.4-2.1,1.2-6-0.1-7.7c-0.8-1.1-1.4-2.4-2-3.6
		c1.4-0.3,2.7-0.9,4.1-0.8c1.6,0.1,3.2,0.8,4.7,1.2c0.7,0.2,1.8,0.7,2.1,0.4c0.6-0.5,0.8-1.5,1-2.4c0.1-0.3-0.2-0.7-0.3-1
		c-0.5-1-1.7-2.2-0.1-3c1.5-0.7,3.4-0.8,5.1-1.1c0.1,0,0.5,1.5,0.5,2.3c0,0.5-0.6,1-1.2,1.9c4.7,1.2,9,3,13.7,2.5
		c3.4-0.3,5.8,1.1,7.4,3.9c0.4,0.7,0,1.9,0,2.9c-0.8-0.1-1.7-0.2-2.5-0.4c-0.1,0-0.1-0.1-0.2-0.1c-4.5-1.1-8.9-2.6-13.4-3.2
		c-2.7-0.4-5.1,2.4-5.6,5.3c-0.2,1.4-0.3,2.8,0,4.1c0.2,0.8,1.2,1.5,2,2.1c0.5,0.4,1.2,0.7,1.8,1c-0.7,0.3-1.3,0.6-2,0.9
		c-0.2,0.1-0.4,0.1-0.6,0.2c0.8,1.8,5,2.5,8.3,1.4c0-1.6,0.1-3.1-0.1-4.6c-0.1-0.5-0.9-1.1-1.5-1.2c-1-0.2-2.2,0.1-3.2-0.1
		c-0.7-0.1-1.3-0.7-2-1.1c0.6-0.6,1.1-1.5,1.7-1.6c4-0.3,8-0.5,12-0.6c2.3-0.1,4.6,0,6.8,0c0,1.2,0.1,2.3,0,3.4c0,0.4-0.3,1-0.7,1.2
		c-0.6,0.3-1.4,0.5-2.1,0.5c-1.9,0-3.4,0.2-2.9,2.7c0,0.2,0,0.4-0.1,0.6c-1.1,2.9-1.1,2.9,1.8,4.1c1.5,0.6,2.2,1.5,2,3.2
		c-0.3,2.2,0.8,3.1,2.9,3.4c1.7,0.2,3.3,0.7,5.1,1.2c-2.3,3.1-6.2,3.6-9.4,1.4c-0.7-0.5-1.3-1.1-2.1-1.5c-0.4-0.2-0.9,0.1-1.4,0.2
		c0.1,0.5,0,1.1,0.3,1.3c1.8,1.9,3.7,3.7,5.6,5.5c1.3,1.2,3,1.2,4.5,0.4c3.8-2,7.6-2.3,11.4,0.3c0.7,0.5,1.7,0.4,2.5,0.7
		c1.6,0.5,3.2,1.2,4.9,1.7c1.1,0.3,2.3,0.7,3.3,0.5c1.3-0.3,2.1,0,2.3,1.2c0.1,0.5-1,1.1-1.6,1.5c-0.3,0.2-0.8,0.3-1.2,0.4
		c-0.4,3.5,0.7,5.6,3.9,6.6c0.8,0.3,2.5-0.3,2.9-1c2.6-4.1,6.7-5,11.3-1.8c1.6,1.1,3.1,2.4,4.7,3.6c0.3,0.2,0.6,0.7,0.9,0.6
		c3.2-0.6,3.5,2.2,4.6,4c0.6,1,1.1,2.2,1.5,3.4c0.5,1.7,0.6,3.5,2.9,4.1c0.8,0.2,1.2,2,1.8,3.3c1.6-0.9,3.2-1.9,5.4-3.1
		c-0.1,4.4,0.2,8.6,3.2,12c-0.2,0.1-0.4,0.3-0.7,0.4c-0.8-0.4-1.6-0.8-2.3-1.3c-1.2-0.7-2-0.4-2.5,1c-0.4,1.2-1,2.3-1.6,3.6
		c0.5,0.2,1.3,0.6,2.1,1c0,0.2-0.1,0.4-0.1,0.7c-1.6-0.2-3.1-0.4-4.7-0.6c-0.6-0.1-1.3-0.4-1.9-0.3c-0.6,0.1-1.3,0.4-1.5,0.8
		c-0.1,0.4,0.3,1.2,0.7,1.5c1.4,1.2,2.9,2.3,4.3,3.4c0,0.3-0.1,0.5-0.1,0.8c1-0.5,2.1-0.9,2.9-1.6c2.7-2.3,5.4-4.6,8.1-7
		c1.2-1,1.4-2.3,0.7-3.7c-0.7-1.5-0.7-3,0.9-4c1.9-1.2,3.1,0.1,4.4,1.2c1.3,1.2,1.4,2.3,0.3,3.8c-1.6,2.1-0.8,4.8,1.3,6.3
		c3.7,2.7,7.1,5.8,10.8,8.5c1.4,1.1,3.3,1.5,4.9,2.4c0.7,0.4,1.3,1,2,1.5c-0.6,0.5-1.1,1.2-1.8,1.6c-1.5,0.8-3,0.8-4.2-0.6
		c-1.8-2.1-3.6-4.1-5.2-6.4c-1.2-1.6-4.5-3.2-6.3-2.7c-1.5,0.4-3.4,2.8-3.5,4.5c1.7-0.3,3.5-0.7,5.2-0.7c0.7,0,2.1,0.6,2.1,1
		c0.1,1.6-0.2,3.3-0.6,4.9c0,0.2-1.7,0.1-2.6-0.1c-0.9-0.2-1.8-0.6-2.7-0.8c-2.4-0.5-2.8-0.3-3.2,2.1c-0.1,0.5,0.4,1.4,0.8,1.6
		c1.9,0.6,2.5,2.1,2.7,3.8c0.4,3.5,2,6.1,5.3,7.7c1.3,0.6,2.1,2,3.5,3.3c-1.1,0.4-1.6,0.6-2.1,0.7c-2.9,0.6-4.6,2.2-5,5.3
		c-0.1,0.7-1,1.6-1.7,1.8c-3.2,1-3.8,2.5-1.9,5.2c0.4,0.5,0.6,1.1,1,1.6c-0.1,0.1-0.3,0.3-0.4,0.4c-1.4-1.2-2.8-2.4-4.3-3.6
		c-1.2,1.9-1.2,3.2,0.4,4.4c1.6,1.2,3.3,2.4,4.9,3.7c0.6,0.5,0.8,1.4,1.2,2.1c-0.7,0.1-1.4,0.1-2.1,0.2c-1.1,0.1-2.4,0-3.3,0.5
		c-1.4,0.8-2.3,0.5-3.2-0.6c-0.3-0.4-0.7-0.7-1-1.1c-1.4-1.7-4-3.1-1.3-5.8c-3.9-0.9-7.2,0.6-8.1,3.4c-0.6,2,0.1,2.9,2.1,2.5
		c2.7-0.5,4.7,0.3,6.3,2.4c1.8,2.4,3.8,3.5,6.7,1.7c0.3-0.2,0.8-0.2,1.3-0.2c2.2,0.1,4.5,0.1,6.7,0.4c2,0.3,3.9,1,5.8,1.5
		c1.3,0.4,2.7,0.7,3.8,1c0.1-1.2-0.1-2.3,0.3-2.6c1.8-1.4,3.3-1,4.5,0.8c2.6-0.6,2.6-0.6,3.2,2c-0.7,0.4-1.5,0.8-2.7,1.5
		c3.7-0.7,5.8,1.2,8.3,2.5c-0.1,0.2-0.1,0.4-0.2,0.5c1.3,0,2.5,0,3.8,0c0,0.2,0,0.4,0.1,0.7c-2.5,0.3-5,0.5-7.5,0.8
		c0,0.2,0,0.4,0,0.6c2.7-0.1,5.5-0.3,8.2-0.4c0,0.3,0.1,0.5,0.1,0.8c-1.6,0.4-3.3,0.7-4.9,1.1c0.1,0.5,0.5,1.2,0.2,1.7
		c-0.4,0.9-3.9,1.7-5.3,1.3c0.4-0.3,0.7-0.5,1.1-0.8c-0.7-0.6-1.3-1.3-2-1.8c-1.4-1-3.3-0.1-3.5,1.5c-0.2,1.2-0.5,2.4-0.9,3.9
		c1.9,0.1,4.1,0.2,6.2,0.4c2.4,0.3,4.7,0.9,7.1,1c1.4,0,3.2-0.3,4.2-1.2c3.1-2.9,7.2-3.3,10.9-4.9c1.2-0.5,3.8,1.5,4.9,3.5
		c0.9,1.6-0.2,2.4-1.2,3.3c-2.2,1.9-4.2,4.1-6.6,5.7c-1.9,1.2-4.1,2-6.3,2.6c-3.4,1-6.9,1.8-10.3,2.4c-2.2,0.4-4.5,0.3-6.8,0.3
		c-1.7,0-3.3-0.3-4.9,0.1c1.8,1.3,3.5,2.7,5.3,3.9c1,0.7,1.1,1.3,0.4,2.1c-1.2,1.4-2.4,3-3.8,4.2c-1.4,1.2-2.1,2.2-0.4,3.6
		c0.2,0.2,0.2,0.5-0.2,0.7c-0.3,0.9-0.4,1.9-0.8,2.7c-0.2,0.5-0.7,1-1.2,1.1c-2.4,0.6-2.8,1.4-1.1,3.3c0.7,0.8,1.6,1.4,2.8,2.4
		c0.2-1.3,0.3-1.9,0.5-3c1.9,0.4,3.7,0.9,5.5,1.1c0.9,0.1,1.8-0.3,2.7-0.3c1.2,0.1,2.4,0.4,3.6,0.8c0.2,0.1,0.1,1.6-0.3,2.1
		c-0.9,1.3-2.3,1.3-3.7,0.6c-0.8-0.4-1.7-0.9-2.6-1.2c-1.6-0.4-2.6,0.8-2.1,2.3c0.6,1.7,1.3,3.2,3.7,2.7c1.9-0.4,5.1,1.7,5.5,3.5
		c0.2,0.9-0.7,2-1.1,2.9c2.6,0.9,5.5,1.8,8.1,3c1.3,0.6,2.4,1.9,3.2,3.1c1.5,2.3,3.2,3.3,6,2.6c3.4-0.8,5.8,1.6,4.7,4.9
		c-0.6,2-2,3.8-3.5,5.4c-2.1,2.3-3.9,4.3-1.4,7.6c0.3-0.3,0.9-0.5,1.3-1c2.4-2.8,5.9-4.6,7.4-8.1c0.2-0.4,2.1-0.6,2.2-0.3
		c0.5,1.1,1.3,2.5,0.9,3.4c-1.6,4.2-4.5,7.2-8.9,8.6c-1.4,0.5-2.7,1.2-4.4,2c1.6,1.1,3.1-1,4.5,0.9c1.2,1.5,1.7,2.4,0.1,4.5
		c3.5-1.8,6.3-1.2,9,0.1c1.5,0.7,2.5,1.4,1,3.5c1.5-0.8,2.5-1.3,3.8-1.9c0,0.7-0.1,1.1-0.1,1.4c1.7,0.2,3.4,0.4,5.4,0.6
		c0.1,0.5,0.3,1.2,0.6,2.4c2.2-0.6,4.2-1.3,6.5-1.9c1.9,1.8,1.8,4.2-0.4,6c-2.5,2-4.7,4.4-8.2,4.6c-0.2,0-0.3,0.4-0.4,0.4
		c3.2,0.2,6.3,0.4,9.5,0.6c2.2,0.2,3.5,1.6,4.4,3.6c-3.1,1.9-6.3,2.5-9.8,2.1c-2.5-0.3-5.1-0.1-7.8-0.1c0.8,4.4,0.8,4.4-3.3,6.1
		c-2.3,1-4.7,1.8-7.3,2.8c-0.8-3.1,2-3,3.5-4.7c-2.1-0.8-3.7-1.8-5.4-2c-0.8-0.1-2,1.1-2.6,2c-0.9,1.2-0.9,2.8,0.5,3.7
		c1.3,0.8,2.9,1.2,4.4,1.6c1.1,0.2,2.3,0,3.8,0c-0.4,0.6-0.6,0.9-0.8,1.3c1.7,0.5,2.9,0.6,4.6-0.7c2.1-1.7,4.9-2.4,7.4-3.6
		c0.2-2.8,0.2-2.8,3.1-2.3c0.9,0.2,1.9,0.3,2.8,0.4c2.4,0.2,2.4,0.2,2.5,2.6c2.7-0.7,3.1-3.2,4.2-5.4c1.2,1.3,2.2,2.5,3.2,3.6
		c1.9-0.9,3.6-1.9,5.3-2.7c3.5-1.6,4.6-1.1,6.2,1.7c-0.8,1.8-1.4,3.2-2.1,4.5c-0.4,0.9-0.9,1.8-1.7,2.4c-1,0.8-2.6,1-2.6,2.9
		c0,0.2-0.9,0.6-1.4,0.6c-3.3-0.3-6.7-0.6-10-1.2c-1.2-0.2-2.4-1-3.6-1.5c-0.9-0.4-1.6-0.7-2.1,0.5c-1.2,2.9-1.2,2.9-3.9,1.4
		c-0.3-0.2-0.7-0.3-0.5-0.2c-1.8,0.6-3.2,1.1-4.6,1.4c-4.8,1.2-9.6,2.7-13.8,5.5c-0.4,0.3-1.3,0.4-1.6,0.2c-0.4-0.3-0.8-1.1-0.7-1.6
		c0.2-1.2,0.7-2.3,1-3.6c-2.4-2.2-3-2.1-5.8,1.2c1.3,2.4,1.1,3.1-1.6,3.3c-3.6,0.2-7,1.7-9.6,3.8c-2.1,1.7-3.5,1.4-5.5,0.9
		c-2.4-0.6-4.9-0.6-7.4-1.1c-1.3-0.2-2.6-0.9-3.9-1.1c-1.2-0.2-2.5-0.3-3.6,0.1c-1.8,0.6-3.4,1.7-5.1,2.5c-2.7,1.4-4.2,0.8-5.6-2.4
		c1-0.3,2.1-0.5,3-0.9c0.5-0.2,0.9-0.7,1.4-1.1c-0.5-0.4-1-1-1.6-1.1c-0.9-0.1-1.9,0.2-2.8,0.4c-0.7,0.1-1.4,0.4-2.3,0.6
		c0.4,0.7,0.8,1.3,1.2,2c-0.6,0.5-1.1,0.9-1.7,1.4c1.7,1.8,5.3,1.4,5,4.7c3-1.2,6-2.5,8.9-3.6c2.1-0.8,3.9-0.3,5.8,0.8
		c1.8,1.1,3.7,1.9,5.7,2.5c2.7,0.7,4.8,1.8,6,5c-1.1,0-1.9,0.1-2.6,0c-3-0.7-6-1.8-9.1-2.2c-2.2-0.3-4.5,0.5-6.7,0.8
		c-0.1,0.3-0.1,0.5-0.2,0.8c1.9,1.7,3.7,3.3,5.8,5.1c-3,0.9-6.3-0.1-8-2.7c-1.6-2.4-5.5-2.6-6.7,0c0.4,0.1,0.8,0.2,1.2,0.2
		c1.7,0,3.3-0.2,2.2,2.4c-0.1,0.3,0.4,1,0.7,1.5c1.1,1.3,2.1,2.6,3.4,3.7c0.7,0.5,1.8,0.7,2.7,0.6c1.1-0.1,2.2-0.9,3.3-1.1
		c0.9-0.2,1.9,0,2.8,0.1c-0.1,0.7,0,1.6-0.4,2c-0.7,0.7-1.8,1.7-2.7,1.7c-2.8-0.2-4.2,0.7-4.7,3.6c0.1,0.1,0.2,0.3,0.3,0.3
		c3-0.7,6-1.4,9-2.3c0.6-0.2,1.1-1.1,1.6-1.7c1.8-2.4,3.4-2.4,6-1c1.8,0.9,4.2,0.9,6.2,1.3c1.3-2.3,3.1-3.4,5.5-3.2
		c0.6,0.1,1.1,0.7,1.7,1.1c-0.4,0.6-0.8,1.5-1.3,1.7c-2.4,1-4.8,1.7-7.2,2.5c-0.6,0.2-1.3,0.4-1.8,0.7c-0.9,0.6-2.3,0.9-1.7,2.6
		c0.7,1.6,2.4,2.5,3.9,1.9c0.9-0.3,1.7-0.8,2.7-1c0.6-0.1,1.2,0.2,1.8,0.3c-0.2,0.6-0.2,1.3-0.6,1.6c-0.7,0.6-1.5,1.2-2.4,1.3
		c-1.8,0.4-1.9,1.2-1.2,2.6c0.4,0.8,0.7,1.8,1.4,2.5c1.6,1.7,1.4,3.1-0.1,4.8c-0.8,0.9-1.2,2.2-2,3.1c-1.3,1.5-2.5,3-4.1,4.1
		c-1.5,1.1-3.1,1.1-4.8-0.2c-1.3-0.9-3.3-1-4.8-1.6c-1.4-0.6-2.8-1.2-3.8-2.2c-1.8-1.8-4.2-2.8-6.5-1.9c-0.6,0.2-1,1.1-1.5,1.6
		c0.6,0.3,1.2,0.9,1.7,0.9c2.4-0.1,4,1.1,5.3,2.9c1,1.4,0.7,2-1,2.2c-2.1,0.3-4.1-0.1-5.6-1.7c-0.4-0.5-1-0.8-1.8-1.6
		c-0.9,2.7-2.8,4.2-5.3,4.5c-1.7,0.2-3.3,0-5,0c-1.2,0-2.4,0-3.7,0.4c2.6,1.7,5,3.6,7.7,5.1c0.8,0.4,2.4-0.2,3.3-0.8
		c1.7-1.1,3.1-2.7,4.8-3.8c2.2-1.4,2.8-1,3.8,1.3c0.4,0.9,1.1,1.7,1.8,2.4c1.5,1.5,1.4,2.4-0.7,3c-2.2,0.7-4.5,1.2-6.8,1.7
		c-1.8,0.4-3,1.4-3.3,4c2.1-0.8,4.1-1.2,5.6-2.2c3.3-2.2,6.4-2.7,10.2-0.9c2,0.9,3,1.9,3.8,3.7c0.9,1.9,2.4,3.5,3.6,5.2
		c0.1,0.1,0.2,0.2,0.3,0.4c4.5,6.3,3.5,8.9-4.1,10.7c-0.1-0.1-0.3-0.2-0.3-0.3c-0.3-2.6-1.7-4.2-4.4-4.8c-1.7-0.4-1.8-2-1.9-3.6
		c-0.1-0.9-0.7-1.8-1.1-2.6c-0.7,0.4-1.3,1-2,1.3c-1.1,0.5-2.3,1.6-3.2,1.3c-3.2-0.9-6,0.4-9,1.2c-0.6,0.2-1.3,0.5-1.7,0.3
		c-3.7-2-6,1-8.7,2.4c-1.1,0.6-1.7,0.7-2.3-0.3c-0.9-1.5-2.1-1.4-3.6-0.9c-3.6,1.3-4.4,0.9-6.4-2.4c-0.9-1.5-1.9-3-4.7-2.6
		c1.4,1.5,2.6,2.7,3.9,4.2c-1.6,0.7-3.2,1.4-4.7,2.1c-0.8,0.4-1.8,0.7-2.5,1.3c-1.1,1-2.1,1.4-3.4,0.3c-2.3-2.1-2.8-3.3-1.6-4.9
		c0.5-0.7,1.1-1.4,1.6-2.1c1.2-1.7,1-3.1-0.5-4.4c-1.5-1.3-3.2-1.3-4.7,0.1c-0.8,0.8-1.6,1.8-2.4,2.5c-2,1.7-3.5,1.4-4.7-0.9
		c-0.3-0.5-0.6-1-0.9-1.5c-2.1,2.2-1.7,4.2,0.7,5.5c1.9,1,3.6,2.3,5.5,3.4c0.5,0.3,1.3,0.4,1.8,0.8c1.6,1.2,3.2,2.4,4.6,3.7
		c0.2,0.2-0.4,1.7-0.9,2.2c-2.7,2.5-2.8,2.4-0.2,5.1c0.7,0.7,1.5,1.4,2.6,2.4c0.3-1.1,0.9-1.9,0.7-2.5c-1-2.5,1-3.9,2.1-5.6
		c0.2-0.3,1-0.4,1.6-0.4c1.3,0,2.7,0,4,0.1c3,0.3,6,0.6,9.5,0.9c-0.7,0.9-1,1.3-1.3,1.7c0.3,0.1,0.5,0.2,0.6,0.3
		c2.4,0.7,4.8,1.3,7.1,2.1c0.4,0.1,0.9,0.9,0.9,1.3c0,0.3-0.7,0.9-1.1,0.9c-3.7,0.2-7.4,0.4-11.2,0.5c-0.6,0-1.2-0.2-1.7-0.2
		c-2.5,0-2.6,0-3-3.2c-1.4,1.8-2.6,3.3-3.6,4.5c1.3,0.8,2.6,1.5,3.7,2.4c1,0.8,1.8,1.8,1.1,3.4c-0.2,0.5,0.1,1.6,0.5,1.9
		c0.4,0.3,1.4,0,2-0.3c1.7-1.2,3.4-2.6,5-3.8c0.7-0.5,1.5-1,2.2-1.4c1.4-0.7,2.5-0.6,2.9,1.3c0.1,0.8,0.5,1.5,0.8,2.2
		C776.6,481.1,777.1,481.4,777.4,484.4z M663.9,426.9c-0.7,0-1.4,0-2.2-0.1c0,0.7,0.1,1.4,0.1,2.1c0,0-0.1,0-0.1,0
		c0.5-0.3,1-0.7,1.6-1l0-0.1C663.6,427.5,663.7,427.2,663.9,426.9L663.9,426.9z M729.8,179.8c-0.8-0.4-1.7-0.9-2.5-1.3
		c-0.2,0.2-0.4,0.5-0.5,0.7c0.8,0.7,1.5,1.5,2.4,2c0.3,0.2,1.1-0.6,1.7-0.9c0.4,0.1,0.8,0.2,1.1,0.2c0-0.3,0.1-0.8,0-0.9
		c-0.8-0.8-1.7-1.5-2.6-2.2c-0.1,0.1-0.3,0.3-0.4,0.4C729.2,178.4,729.5,179.1,729.8,179.8z M357.8,85.3c0-0.4,0.2-0.9,0.1-1.3
		c-0.1-0.4-0.5-0.8-0.8-1c-0.2-0.1-0.8,0.3-0.9,0.6c-0.1,0.5-0.2,1.3,0,1.5C356.6,85.4,357.3,85.2,357.8,85.3
		c-0.4,1.1-0.9,2.3-1.4,3.6c1,0.3,1.7,0.4,2.7,0.7c0.8-1.5,1.6-3,2.4-4.5c-0.1-0.1-0.2-0.2-0.3-0.2c-0.7,0.5-1.3,1-1.7,1.3
		C358.8,85.8,358.3,85.5,357.8,85.3z M706.1,495.6c-0.1-0.6,0-1.6-0.3-1.8c-1.7-0.8-3.3-0.7-5.1,0.6
		C702.6,494.8,704.4,495.2,706.1,495.6c0.4,1.1,0.8,2.2,1.2,3.4c-0.5,0.2-1.2,0.4-1.9,0.6c2.6,2.6,3.4,2.5,8.2-1.2
		C712.4,495.8,709.5,494.8,706.1,495.6z M173,216c2.1,0.7,4.8,0.5,5.5,3.6c1.6-0.9,2.5-1.8,2.1-3.6c-0.1-0.6-0.1-1.4,0.1-1.9
		c0.7-1.9-0.2-3.3-1.2-4.6c-0.3-0.4-1.2-0.8-1.4-0.7c-1.6,1.7-2.5,0.4-3.8-0.6c-0.7-0.5-2-0.4-3-0.1c-0.3,0.1-0.6,1.5-0.4,2.1
		C171.6,212.1,172.4,214.1,173,216c-3.3-0.3-6.7-0.6-9.5-0.9c-1.1,1.1-1.7,1.9-2.5,2.5c-1.8,1.3-1.8,2.7,0.1,3.8
		c0.5,0.3,1.1,0.6,1.8,0.9c0.3-0.7,0.6-1.3,0.9-1.9c1-2.1,1.7-2.2,3.4-0.5c0.6,0.6,1.7,0.6,2.6,0.7c0.5,0.1,1-0.3,1.4-0.1
		c1.9,0.7,2.2-0.7,2.3-1.9C173.7,217.7,173.2,216.8,173,216z M236,343.7c-0.2-0.1-0.4-0.2-0.6-0.2c-5.1-0.4-9.8-1.7-12.3-6.9
		c-0.2-0.4-1.1-0.8-1.6-0.7c-3.4,0.1-3.6,0-5.2-3c-0.4-0.7-1.1-1.6-1.7-1.6c-1.3-0.1-2.8,0.1-4.1,0.4c-1.7,0.4-2.3,2.1-1.4,3.6
		c0.8,1.2,1.6,2.5,2.7,3.5c0.6,0.5,1.7,0.8,2.5,0.8c0.8,0,1.6-0.6,2.4-0.9c3-1.2,4-0.9,6.1,1.6c1,1.2,1.9,2.6,3,3.7
		c0.5,0.5,1.4,0.6,2.2,0.6c1.3-0.1,2.6-0.4,3.9-0.6C233.2,343.8,234.6,343.7,236,343.7c1.8,0.6,3.7,1.1,5.6,1.8
		c0.9,0.3,2.2,0.9,2-0.6c-0.1-1.2-1.1-3.1-2.1-3.4c-2.1-0.7-4.5-0.2-7.1,1.2C235.2,343.1,235.6,343.4,236,343.7z M580.3,452.9
		c0.1,0.1,0.3,0.3,0.4,0.4c0.7-0.4,1.3-0.9,2-1.3c2.9-1.7,5.7-3.6,8.7-5c2.2-1,3.9-2,3.9-4.7c0-3.9,0.1-7.7,0.1-11.6
		c0-0.3-0.5-0.7-0.8-0.8c-0.2,0-0.8,0.5-0.8,0.7c0,1.9-1.5,2-2.9,2.6c0.3-1.3,0.6-2.3,0.8-3.2c-2.3-0.8-3.5-0.1-3.9,2.1
		c-0.3,1.3-0.8,2.6-1.2,3.9c-0.3-0.3-0.5-0.3-0.5-0.4c-0.4-1.2-0.8-2.5-1.2-3.7c-0.7-2.5-1-2.6-3.8-1.7c0.6,1.7,1.1,3.4,1.7,5.1
		c0.9,2.7,0.7,3.1-1.9,4.3c-2.3,1-3.6,0.3-3.6-2.2c0-1.7,0-3.3,0-5c1-0.2,1.7-0.3,2.6-0.5c0-0.8-0.1-1.4-0.1-2
		c-0.9-0.2-1.6-0.3-2.4-0.5c-0.1-1.2-0.1-2.3-0.2-3.4c-1.1,0-2.1,0-3,0c-0.6,1.4,0.6,3.4-1.7,3.9c-0.1,0,0,2,0.2,2
		c1.9,0.3,1.3,1.7,1.3,2.7c0.1,1.7-0.1,3.4,0.1,5c0.1,0.8,0.7,1.7,1.3,2.3c0.6,0.7,1.5,1.1,2.5,1.8c1.8-1.4,3.8-3.1,5.9-4.7
		c1.6,3.5,1.2,4.3-2.3,4.9c-0.6,0.1-1.3,0.3-1.9,0.4c-4.6,0-8.5,1.9-11.7,5.1c-2.3,2.3-4.3,4.8-6.3,7c-0.3-1.5-1-3-3.3-3.1
		c-1.7,0-2.9,0.7-3.3,2.3c-0.4,1.7-0.4,3.7,1.6,4.6c2,0.9,3.7,0.4,5-1.9c2,2.5,4.6,2.4,7.4,2c0.1-1.5,0.2-3,0.3-4.6
		c0.2,0,0.4,0,0.6,0.1c0.1,1.6,0.2,3.1,0.2,4.7c2.7-0.3,6.2,1.4,6.5-3.1c0.1-1-0.2-2.1-0.7-2.8c-0.6-0.7-1.7-1-2.6-1.4
		c2.5-2.2,5.1-4.5,7.7-6.7c1.3,0,2.8,0,4.5,0C583.5,448.8,581.9,450.9,580.3,452.9z M231.6,511.8c-0.2,0.3-0.5,0.7-0.7,1
		c0.7,0.4,1.5,0.9,2.2,1.3c1.7,1.1,3.3,2.1,4.9,3.2c0.5,0.3,1,0.9,1.2,1.4c0.8,3,3.5,4.1,6.1,2.5c1.2-0.8,2.8-1.6,3.8-0.3
		c1.7,2.2,3.8,1.9,6,1.5c1.2-0.2,2.5-0.1,3.7,0c0.6,0.1,1.2,0.5,1.9,0.7c-0.6,0.4-1.1,1-1.7,1.3c-1.7,0.7-3.5,1.3-5.3,2
		c0.1,0.2,0.1,0.5,0.2,0.7c1.3,0.7,2.5,1.7,4.1,0.6c1.8-1.3,3.4-0.8,5,0.4c0.8,0.6,1.8,1,2.7,1.5c1.6-3.3,1.5-3.8-1.4-5.5
		c-0.1,0-0.1-0.1-0.2-0.1c-2.1-1.2-2.1-1.7-0.1-2.8c0.8-0.5,1.6-0.9,2.3-1.3c-1.6-2.2-3.3-4.1-4.6-6.3c-3-4.6-3.7-4.8-7.8-1.3
		c-3.4,3-7.3,2.3-11.2,2.1c-0.5,0-0.9-0.4-1.3-0.7C238.4,511.1,234.9,512.2,231.6,511.8z M558,496.2c1.1,1,2.1,1.8,3,2.7
		c0.3,0.3,0.5,1,0.5,1.5c0,0.2-0.8,0.4-1.3,0.5c-3.2,0.6-6.4,1-9.6,1.7c-0.6,0.1-1.3,0.9-1.3,1.4c0,0.5,0.7,1.3,1.2,1.5
		c2.3,0.6,3.6,2.1,4.6,4.1c0.3,0.5,0.8,0.9,1.4,1.5c0.1-0.6,0.2-0.8,0.2-0.9c-0.3-0.5-0.6-1-0.9-1.5c-0.8-1.5-0.3-2.6,1.4-2.3
		c2,0.3,4,1.1,5.9,1.9c0.5,0.2,0.9,1.2,0.9,1.8c0,0.3-0.9,0.7-1.4,1c-0.5,0.3-1.1,0.5-1.7,0.8c0,0.2,0.1,0.4,0.1,0.7
		c0.8,0.1,1.6,0.3,2.4,0.3c1.4,0.1,2.8,0,4.1,0.2c2.4,0.4,3.4-0.3,4.8-2.8c1.1-2-1.1-2.2-1.6-3.2c-0.4-0.8-0.7-1.6-1.1-2.4
		c0.9,0.1,2,0,2.6,0.5c1.6,1.3,2.7,0.9,3.6-0.6c1.6-2.8,3.1-5.7,4.8-9c-1,0.3-2,0.4-2.8,0.8c-3,1.5-6,3-9,4.5
		c-1.5,0.8-2.4,0.4-3.3-1.2c-0.9-1.7-2.3-3.2-3.7-4.4C560,493.7,559.5,494,558,496.2z M497,521.3c2.3,2.9,3.4,3.7,5.6,3.4
		c4.2-0.5,8.3-1.2,12.5-2c2.3-0.4,2.5-1.3,2.2-3.6c-0.2-1.5-0.2-3.1,0-4.7c0.2-1.6,0.8-3.2,1.3-5.2c-7.7,1.7-12.2,8.2-19.1,10.2
		C498.5,519.6,497.8,520.6,497,521.3z M563.1,436.9c-0.3-1.6-0.6-2.7-0.6-3.8c0-0.5,0.6-0.9,0.9-1.4c0.6,0.9,2.4,0.9,2,2.8
		c-0.3,1.2-0.1,2.6-0.1,3.9c0,4,1.9,5.2,5.9,3.7c0-0.6-0.1-1.2-0.1-1.8c-0.8-0.1-1.5-0.3-2.2-0.4c0-2.5,0-4.9,0-7.2
		c0.8-0.2,1.5-0.3,2.2-0.4c0-0.8,0-1.4,0-2.1c-0.8-0.2-1.5-0.3-2-0.4c-1.6-3.7,2.5-3.9,3.6-6.1c-3.4-1.1-4.3,3.4-6.3,2.9
		c-1.9,1.8-3.4,3.1-4.9,4.4c-0.2,0.2-0.7,0.1-1-0.1c-2.5-1.2-5-1.3-7.1,0.8c-2.1,2.1-2.1,4.9-1.3,7.6c0.7,2.2,2.6,3.6,5,3.6
		c2.2,0,4.3-0.4,5.6-2.6c-1.2-1.1-2.1-1.6-3.5-0.5c-0.6,0.5-2,0.4-2.8,0c-0.7-0.4-0.9-1.5-1.6-2.8
		C557.9,436.9,560.3,436.9,563.1,436.9z M598.6,470c0-0.6,0.1-0.9,0-1.1c-1.4-2-0.2-2.9,1.4-3.7c0.7-0.4,1.6-0.7,2-1.3
		c1.2-1.8,2.3-3.8,3.4-5.7c0.2-0.4,0.3-1.2,0.1-1.5c-0.3-0.3-1-0.5-1.5-0.4c-0.5,0.1-1,0.5-1.5,0.8c-1.4,1-2.6,1.2-3.8-0.2
		c-0.9-1.1-1.8-0.8-2.6,0.1c-1.2,1.4-2.3,3-3.9,5.1c-1.7-2-3.6-4-5.5-6.2c-0.8,4.9-0.8,4.9,1.5,7.9c1.5,2,1.5,2.2-0.8,4
		c-1.4,1-1.2,2.2-0.5,3.4c0.7,1.3,1.8,1.3,3,0.4c1.4-1,2.8-1.9,4.1-2.9c2.3-2,2.3-2,3.9,0.5C597.8,469.4,598.1,469.6,598.6,470z
		 M223.3,497.6c-1.8,1.9-1.8,1.9-4.5,1.2c-0.8-0.2-1.7,0.3-2.5,0.4c0.4,0.7,0.6,1.9,1.1,2.1c2.5,1.1,5.1,2,7.7,2.8
		c0.4,0.1,1.2-0.5,1.6-0.9c1.3-1.1,2.5-2.4,3.9-3.4c0.3-0.2,1.7,0.2,1.9,0.6c1.7,3,3.3,4.1,6.8,3.5c1.4-0.2,2.7-1.5,4-2.2
		c-0.9-1-1.7-2-2.6-2.9c-1.8-1.7-3.8-3.2-5.6-5c-1.1-1.1-2-1.8-3.6-1.3c-0.4,0.1-1.1,0.1-1.3-0.1c-1.3-1.3-2.1-0.5-3.1,0.5
		c-1,1.1-1.1,2.1,0,3.2c1,1.1,0.7,4-0.5,4.5c-1.8,0.8-2.1-0.9-2.7-2C223.6,498.3,223.5,498,223.3,497.6z M525.2,447.7
		c-0.3-0.2-0.6-0.4-0.8-0.5c-1.3,1-2.5,2.1-3.8,3.1c-2.5,1.9-4.9,4.1-7.6,5.7c-4.5,2.7-7.4,6.6-10.5,11.2c1.1,0.2,1.9,0.6,2.6,0.5
		c2.7-0.5,5.4-1.1,8.1-1.8c0.9-0.3,1.9-0.8,2.5-1.6c2.2-2.7,4.4-5.4,6.2-8.4C523.3,453.3,524.1,450.4,525.2,447.7z M343.9,347.5
		c0,2.9,1.4,5,4.2,5.8c0.6,0.1,1.6-0.3,2-0.8c1.4-2.3,2.5-4.7,3.9-6.9c1.9-3,1.8-6-0.8-8.4c-1.1-1-2.4-1.9-3.7-2.6
		c-2.1-1.1-3.3-0.6-3.7,1.8C345,340,344.5,343.8,343.9,347.5z M469.8,390.3c-0.9,0.7-1.7,1.3-2.4,1.9c-0.6,0.6-1.2,1.3-1.8,2
		c1.1,0.6,1.8,1.1,2.5,1.5c0,0.9-0.3,2.4,0.1,2.7c1.7,1,3.7,2.2,5.6,2.3c2,0.2,2.5-1.9,2.7-3.6c0.7-4.6,1.5-9.1,2.2-13.7
		c0.1-1-0.3-2.1-0.5-3.2c-0.3,0-0.7-0.1-1-0.1c-2.2,3.7-4.3,7.3-6.5,11C470.3,390.9,470.1,390.6,469.8,390.3z M333,347
		c0.2-0.1,0.4-0.2,0.6-0.3c-0.2-0.9-0.3-1.8-0.7-2.6c-1.4-3.3-2.9-6.5-4.2-9.8c-0.6-1.5-0.7-3.1-1.1-4.6c-0.1-0.6-0.2-1.5-0.5-1.6
		c-0.6-0.1-1.5-0.1-1.9,0.3c-1.6,1.7-3.1,3.5-4.6,5.3c-0.6,0.7-1,1.4-1.9,2.8c3.4-1.2,3.4,0.7,3.7,2.5c0.2,1.5,0.4,3,0.8,4.5
		c0.4,1.4,1.4,2.5,2.9,1.7c2.3-1.2,4-0.6,5.6,1.1C332,346.6,332.5,346.8,333,347z M543.1,439.4c0-0.2,0.1-0.3,0.1-0.5
		c1.7-0.4,3.6-0.6,5.2-1.3c2.1-1,1.9-3.1,1.9-4.8c0.4-0.8,0.8-1.6,1.2-2.4c-2.4-0.2-4.4-0.3-6.3-0.4c-2-0.1-3.8,0.5-4.8,2.4
		c-1.1,1.9-0.3,3.5,1.1,5c-1.5,1.2-2.5,2.5-0.7,4.1c-1.9,2.1-1.9,3.8,0.2,4.7c2.8,1.2,5.8,1.3,8.4-0.2c0.9-0.5,1.9-2.1,1.8-3.1
		c-0.1-1-1.4-2-2.5-2.5c-1.1-0.5-2.4-0.4-3.7-0.5C544.4,439.7,543.8,439.5,543.1,439.4z M630,474.1c0.1-4-1.8-6.3-4.8-5.8
		c-0.6,0.1-1.4,0.4-1.5,0.9c-0.2,0.5,0.2,1.3,0.5,1.7c0.6,0.7,1.4,1.3,2.2,1.9c-2-0.2-3.8-0.7-5.6-1.2c-0.4-0.1-0.7-0.4-1-0.7
		c-2.2-2.3-4.2-4.7-6.6-6.7c-0.9-0.8-2.4-0.7-4-1.2c0,0-0.1-0.5-0.3-1.2c-2.8,2.4-0.9,5.2-0.2,7.1c1.4,3.8,5.4,2.1,8.8,2.7
		c-1.5,0.3-2.5,0.6-3.6,0.8c1.3,0.6,2.8,0.3,3.8,0.9C621.7,475.6,625.7,474.7,630,474.1z M798.7,418.7c2,1.2,3.8,0.9,5.6,0.2
		c1.2-0.4,2.3-0.9,3.5-1.1c0.5-0.1,1.3,0.1,1.5,0.5c0.2,0.3,0,1.1-0.3,1.5c-0.8,1.1-1.9,2-2.6,3.2c-0.3,0.5,0,1.3,0,2
		c0.6,0,1.3,0.2,1.8-0.1c2.4-1.3,4.8-2.7,7.2-4.1c1.3-0.8,1.2-1.6,0.1-2.5c-1.2-1-2.3-2-3.5-2.9c-4.7-3.8-8.5-4-13.8-0.9
		C800.7,416.4,800.7,416.4,798.7,418.7z M613,436.1c0,1.7-0.1,3.2,0,4.7c0.1,0.6,0.6,1.2,0.9,1.8c0.3-0.6,0.7-1.1,0.8-1.7
		c0.1-1.4-0.1-2.8,0.1-4.1c0.1-0.8,0.8-1.6,1.2-2.4c0.2-0.6,0.6-1.5,0.3-1.8c-0.7-0.9-0.3-3-2.2-2.7c-2.3,0.3-4.6,0.8-7.2,1.3
		c-1.7-1.9-4-1.3-6,0c-0.7-0.4-1.3-0.7-1.8-1c-0.2,0.6-0.5,1.2-0.5,1.7c0,3.1-0.1,6.1,0,9.2c0,0.6,0.5,1.1,0.8,1.6
		c0.3-0.6,0.8-1.1,0.8-1.7c0.1-2.1,0-4.2,0.1-6.3c0.1-1.8,1.9-3.3,3.7-3.2c2.3,0.1,1.8,1.9,1.8,3.3c0,0.6-0.4,1.2-0.7,1.7
		c-0.6,1.1-1.3,2.2-2.2,3.5c1.2,0.2,1.9,0.3,2.2,0.3c0.7,1,1.3,1.8,1.8,2.5c0.2-0.8,0.6-1.7,0.6-2.5c0.1-2.2,0-4.4,0-6.9
		C609.4,434.8,610.3,437.1,613,436.1z M381.1,345.2c0.2-0.1,0.4-0.2,0.7-0.3c0.1-0.5,0.4-1,0.2-1.4c-1.9-5.7-3.6-11.4-5.8-16.9
		c-0.5-1.3-2.8-2-4.4-2.8c-0.3-0.2-1.2,0.2-1.4,0.5c-1,1.5,1.1,8.7,2.7,9.4c0.2,0.1,0.4,0.2,0.6,0.2c1.9-0.1,2.1,1.2,2,2.6
		C375.7,340.6,378.6,342.8,381.1,345.2z M320,314.2c0.3-0.1,0.7-0.1,1-0.2c0.7-1.6,3.1-2.2,2.3-4.7c-0.9-2.5-1.6-5.1-2.6-7.6
		c-0.3-0.8-1.3-1.9-1.8-1.8c-2.3,0.3-4.5,1-6.7,1.6c0.4,1.6,0.7,3.1,1.1,4.7c0.1,0.3,0.2,0.5,0.4,0.8c0.4,1,0.7,2,2.2,1.3
		c0.3-0.1,1,0.3,1.3,0.7C318.1,310.7,319,312.5,320,314.2z M741,490.2c0,0.2-0.1,0.5-0.1,0.7c3,0.2,6,0.4,9.2,0.6
		c-0.1-1-0.1-2.2-0.2-3.4c5.9-0.6,7.2-1,9.3-2.9c-2-1.8-4-3.5-6-5.3c-3.6,0.2-5.1,3.4-6.6,6.5c-0.5,0.9-0.9,1.9-1.6,2.6
		c-0.6,0.6-1.6,0.8-2.5,1.1C742,490.3,741.5,490.2,741,490.2z M780.9,252.4c0,0.3,0,0.6,0,0.9c-1.3,0.4-2.5,1-3.9,1.3
		c-1.1,0.2-2.7,0.9-3,1.2c-2,2.2-3.6,4.7-5.7,7.6c1.2,0,1.7,0.1,2.1,0c1.8-0.7,3.6-1.5,5.4-2.3c1.3-0.6,2-1.4,1.4-2.2
		c1-1.3,1.8-2.3,2.7-3.4c4,2.2,8.4,1.7,13.4,1.3c-1.9-1.6-3.3-2.9-4.9-4.1c-0.2-0.2-0.8-0.1-1,0.1
		C785.2,254.6,783,254.4,780.9,252.4z M81.6,411.7c-2.4,1.8-4.6,3.3-6.7,5c-0.4,0.4-0.4,1.3-0.6,1.9c0.7-0.1,1.7,0.1,2.2-0.3
		c2.9-2.6,2.8-2.5,5.6,0.4c0.8,0.8,2.2,1.5,3.3,1.4c2.9-0.3,4.6-0.3,7,0.9c0.1,0.1,0.3,0,0.4,0c1.1-2,0.9-4.1-0.6-4.8
		c-1.8-0.8-3.8-1.5-5.8-1.7C84.3,414.4,82.1,414.7,81.6,411.7z M631,437.3c-1.3,1.1-2,2.3-0.6,3.7c-2.2,2.6-1.6,4.7,1.8,5.2
		c1.9,0.3,3.9,0.1,5.8-0.2c1.5-0.2,2.4-1.3,2.4-3c-0.1-1.7-1.2-2.5-2.6-2.7c-1.5-0.3-3-0.2-4.5-0.5c-0.6-0.1-1.1-0.6-1.7-0.9
		c0.6-0.2,1.2-0.7,1.8-0.6c4.8,0.4,6.8-1.9,5.5-6.4c0.6-0.6,1.1-1.1,1.9-1.8c-2.3,0-4,0-5.6,0c-1.9,0-3.7,0.3-4.7,2.1
		C629.1,433.9,629.6,435.7,631,437.3z M592.8,496.6c-1.5,0.1-2.9,0.4-4.3,0.4c-4.5-0.1-5.7,1-6.2,5.3c-0.2,1.3-1.1,2.5-1.7,3.7
		c-0.2,0.4-0.4,0.8-0.9,1.6c3.6-1.4,6.7-2.5,9.7-3.9C592.7,502.2,593.7,499.8,592.8,496.6z M337.6,485c3.6,2.2,3.6,2.2,6-0.2
		c0.9-0.9,1.8-0.9,2.6,0c0.6,0.7,1.1,1.5,1.6,2.3c1.3,2.5,4.9,4.1,8.4,3.2c-1.2-1.3-2-2.5-3.1-3.3c-3.7-2.6-7.7-5-11.4-7.7
		c-1.9-1.4-3.3-1.1-4.9,0.2c1.3,1.2,2.5,2.4,3.8,3.6C339.4,483.7,338.6,484.3,337.6,485z M354.4,218.9c-0.6-0.5-1-2.4-3-1.1
		c-0.7,0.4-1.4,0.7-2.1,1c-2.1,0.7-4.3,1.3-6.4,2.1c-1.6,0.6-1.4,1.6-0.3,2.6c1.6,1.3,3.2,2.5,4.8,3.7c2.4,1.8,2.4,1.6,3.3-1.4
		C351.4,223.5,353,221.4,354.4,218.9z M332.1,432.5c-2.7-4.7-5.4-9.2-8.8-13.2c-0.7,4.3-0.7,8.3,1.3,12.1c0.2,0.4,0,1.1,0,2.1
		c0.4,0.2,1.3,1.3,2,1.1C328.4,434.2,330.1,433.3,332.1,432.5z M760.7,153.8c0.2-0.2,0.4-0.4,0.5-0.6c-1.1-1.1-2.1-2.6-3.4-3.2
		c-2.1-0.9-4.4-1.5-6.7-1.7c-1.4-0.1-3,0.7-4.4,1.2c-1.7,0.7-0.3,2.2-0.6,3.2c-0.3,1.1,0,1.9,1.2,2c1.5,0.1,3.1,2,4.4-0.3
		c1-1.7,2.1-1.7,3.5-0.6c0.5,0.4,1.1,0.7,1.8,1.1c0.5-1.1,0.8-2,1.2-2.9C759.2,152.8,759.9,153.3,760.7,153.8z M661.7,130.9
		c-2.9-2.2-5.1-6-9.5-4.1c-2.9,1.2-5.1,3.3-6.3,6.2C651.4,133.5,656.7,133.6,661.7,130.9z M670.2,347.6c-0.1-0.2-0.3-0.4-0.4-0.6
		c-0.3,0-0.7-0.1-1,0c-5.1,2.5-10.2,4.9-15.2,7.6c-1.1,0.6-1.8,2.2-2.1,3.5c-0.4,1.4,0.4,2.1,1.9,1.4c2.1-1.1,4.3-2,6.1-3.3
		C663.1,353.5,666.6,350.5,670.2,347.6z M268.4,516.1c0.1-0.4,0.2-0.8,0.2-1.2c-0.2-2.3,1.1-3.3,3.2-3.5c1.1-0.1,2.2,0,3.3-0.2
		c0.6-0.1,1.3-0.6,1.4-1.1c0.1-0.4-0.5-1.2-0.9-1.4c-1.1-0.4-2.3-0.6-3.5-0.6c-1.6,0-3.2,0.1-4-1.6c-1.9-3.9-2.7-2.8-5.1-1
		c-0.4,0.3-0.8,0.7-1.1,1C264,509.7,266.2,512.8,268.4,516.1z M570.1,139.2c-3.1-1.8-6-3.5-9-5.2c-0.3-0.2-1-0.1-1.4,0.1
		c-0.2,0.1-0.4,0.8-0.3,0.9c0.3,0.3,0.8,0.7,1.2,0.6c1.7-0.3,1.6,0.8,1.5,1.8c-0.2,1.3-0.4,2.6-0.7,3.8c-0.3,1.4-0.5,2.9-1.2,4
		c-0.9,1.4-0.9,2.3,0.4,3.1C563.8,145.4,566.8,142.4,570.1,139.2z M141.4,467.6c-3.5,0.8-7,1.6-10.5,2.6c-0.6,0.2-1,1.1-1.4,1.7
		c0.6,0.4,1.1,1,1.7,1.2c3.1,0.6,6.1,1.2,9.2,1.7c2.3,0.4,2.4-1.7,2.7-3c0.3-1.2-0.1-2.6-0.3-3.9
		C142.6,467.8,141.9,467.7,141.4,467.6z M451.7,354.5c-3.5,4.3-4.9,13.6-2.4,16.8c2.8-6.4,5.5-12.7,8.3-19.2c-1.7,1.3-3.3,2.5-5,3.7
		C452.2,355.3,452,354.9,451.7,354.5z M794,287.6c0.3-0.8,0.4-1.3,0.7-1.8c0.8-1.4,0.4-2.1-1.2-2.4c-3.5-0.7-3.5-0.7-4.1,2.9
		c0,0.2,0,0.4-0.1,0.6c-0.9,2,0.1,3.3,1.7,4.4c3.1,2.1,6.6,1.1,10,1.1c0,0,0.1-0.2,0.2-0.5c-0.7,0-1.3,0-2,0
		C799.4,288.2,796.4,288.5,794,287.6z M256.2,395.4c-1.4,0.1-3.2,0.2-5,0.3c1.3,1.2,2.6,2,3.9,2.8c0.7,0.4,1.3,1,1.9,1.5
		c0.6,0.5,1.6,0.7,2,1.3c1.7,2.4,3.7,4.3,6.5,5.3c1.3,0.5,2.2,0.2,2.7-1c0.5-1.1,0.8-2.3,1.5-4C263.8,402.1,259.8,399.7,256.2,395.4
		z M335.8,353.2c-0.3,0-0.6,0.1-0.9,0.1c-2.2,2.8-3.6,5.8-3.9,9.4c-0.2,2.2-0.1,3.8,1.9,5.1c1.7,1,2.4,0.9,2.7-1
		c0.5-3.3,1-6.6,1.2-10C336.9,355.6,336.2,354.4,335.8,353.2z M248.1,494.8c3.2,2,6.2,3.9,9.3,5.8c0.2-0.1,0.4-0.2,0.6-0.3
		c-0.2-0.8-0.3-1.7-0.7-2.4c-0.9-1.4-0.5-2.1,1.1-2.3c1.7-0.2,2.6-1.2,2.9-2.8c0.1-0.7-0.1-1.4-0.2-2.1c-0.7,0.1-1.5,0.1-2.2,0.3
		c-1.2,0.3-2.7,1.4-3.6,1.1C251.9,491,250.3,493.2,248.1,494.8z M308.1,416.8c2.5-0.7,5-1.4,7.5-2.3c0.6-0.2,1.3-1,1.4-1.6
		c0-1.2-0.3-2.4-0.7-3.5c0-0.1-1.1-0.2-1.5,0c-1.6,1-2.7,0.7-4-0.6c-1.2-1.3-2.4-0.9-3,0.7c-0.6,1.6-1.1,3.3-1.4,5
		C306,415.9,306.6,416.7,308.1,416.8z M325.4,409.4c-0.2,0.1-0.4,0.2-0.7,0.3c0,0.2-0.2,0.4-0.1,0.6c2.1,7.7,5.8,14.4,12.4,19.3
		c0.5,0.4,1.2,0.5,1.8,0.7c0.1-0.2,0.3-0.3,0.4-0.5c-1.4-2.2-2.8-4.5-4.3-6.7c-1.3-1.9-3-3.5-4.3-5.3
		C328.8,415.1,327.1,412.2,325.4,409.4z M526.8,488.4c0.1,0.3,0.2,0.5,0.3,0.8c0.7-0.2,1.4-0.4,2.1-0.5c0.7-0.1,1.5-0.2,2.1,0
		c3.5,1.6,5.5,8,3.7,11.4c-0.2,0.4-0.5,1.2-0.3,1.4c0.3,0.3,1.1,0.6,1.5,0.4c1.8-0.6,3.4-1.4,5.3-2.1c-2.7-4.6-5.2-9-7.9-13.2
		c-0.4-0.6-1.6-1.2-2.1-0.9C529.8,486.4,528.3,487.5,526.8,488.4z M239.5,506.8c0,0.2-0.1,0.4-0.1,0.6c2.2,0.9,4.4,2,6.7,2.7
		c0.8,0.3,2-0.2,2.9-0.5c1.3-0.4,2.6-1.1,3.9-1.6c1.4-0.5,2-1.8,1-2.9c-2.5-2.8-5.7-2.9-8.2-0.1c-1.2,1.4-2.4,2.3-4.4,1.5
		C240.9,506.3,240.1,506.7,239.5,506.8z M353.6,400.7c-0.1,0.1-0.3,0.2-0.4,0.2c2.1,6.6,4.3,13.2,6.4,19.7c1.2-1.6,1.7-3.5,1-5.8
		c-0.2-0.9,0.4-1.9,0.5-2.9c0.1-0.8,0.5-1.9,0.1-2.3C358.8,406.5,356.2,403.6,353.6,400.7z M500.9,403.4c0.2,0.2,0.4,0.4,0.6,0.7
		c1.1-0.6,2.2-1.2,3.3-1.8c-0.4,1-1,1.6-1.6,2.3c-0.8,1-1.7,2-2.2,3.2c-0.5,1.1-0.2,2.2,1.5,1.9c0.3,1.7,0.6,3.4,0.9,5.1
		c2.8-2,3-4.9,3.3-7.6c0.3-2.7,0.3-5.4,0.5-8.2c-0.2-0.1-0.3-0.3-0.5-0.4C504.6,400,502.7,401.7,500.9,403.4z M338,327.8
		c0.3,0,0.7,0,1,0.1c1.1-3.2,2.4-6.3,3.3-9.5c0.4-1.5-1.5-3.6-3.2-3.9c-2.3-0.4-3.6,0.9-3.2,3.2c0.3,1.6,0.6,3.1,0.9,4.7
		C337.2,324.2,337.6,326,338,327.8z M331.9,521.9c-2-4.7-3.9-5.6-8.2-4.3c-0.4,0.1-0.8,0.2-1.3,0.3c-1,0.1-2.6,0-2.8,0.5
		c-0.4,0.8-0.1,2.1,0.1,3.2c0.1,0.5,0.9,1.3,1.3,1.3C324.6,522.6,328.1,522.3,331.9,521.9z M540.4,270.1c0.3,0.3,0.5,0.6,0.8,0.9
		c2.4-1,4.8-1.7,7-3c2.7-1.5,3.3-4.8,1.7-7.1c-1-1.5-1.8-1.4-2.8,0c-1.1,1.4-2.3,2.8-3.4,4.2C542.6,266.8,541.5,268.5,540.4,270.1z
		 M721.7,234.5c4.5,0.6,3.4,4.3,4.6,7.6c2.5-2.4,4.6-4.5,6.7-6.7C727,230.5,727,230.5,721.7,234.5z M58.3,376.9
		c0.2,0.5,0.4,1,0.7,1.5c0.5-0.3,1.1-0.5,1.5-0.9c0.8-0.8,1.4-2.4,2.2-2.5c2-0.2,4.2-0.6,6,1.1c0.5,0.4,1.5,0.3,2.2,0.5
		c-0.3-0.9-0.2-2-0.8-2.5c-1.4-1.2-3.1-2.2-4.7-3.2c-2.4-1.5-4.6-1-5.9,1.6C58.9,373.8,58.7,375.4,58.3,376.9z M626.7,443
		c0-3.3,0-5.9,0-8.5c0-2-0.3-3.8-2.7-4.4c-2.9-0.6-5,0.3-6.4,3.3c1-0.5,1.5-0.8,2-0.9c1.3-0.4,2.7-0.8,4.1-0.8c0.4,0,1.1,1,1.3,1.7
		c0.1,0.2-0.8,0.9-1.3,1.2c-1.6,0.7-3.3,1-4.9,1.8c-1.6,0.8-2,2.5-1.5,4.2c0.5,1.7,1.9,2.2,3.4,2.1c1.4-0.1,2.8-0.6,4.1-0.9
		C625.3,442,625.9,442.4,626.7,443z M651,439.2c-0.9,0.2-1.6,0.2-1.9,0.5c-1.3,1.5-2.8,2.1-4.6,1.3c-1.8-0.9-2.2-2.5-2.3-4.7
		c2.9,0,5.7,0,8.4,0c0.1-3.6-1.3-5.8-3.8-6.2c-2.9-0.5-5.4,0.9-6,3.7c-0.3,1.8-0.2,3.8,0.2,5.6c0.5,2.2,2.4,3.2,4.6,3.3
		C647.9,442.7,649.8,442,651,439.2z M744,498.2c0-0.2-0.1-0.5-0.1-0.7c-0.4-0.2-0.7-0.5-1.1-0.5c-2.8,0.2-4.8-1.3-6.5-3.4
		c-1.3-1.6-5.1-1.5-6.4,0.2c-0.6,0.8-0.4,2.1-0.5,3.2c0.8-0.1,1.7,0,2.4-0.3c2.2-0.9,2.7-0.7,3.3,1.6c0.1,0.5,0.7,1.5,0.9,1.4
		C738.8,499.3,741.4,498.8,744,498.2z M547.5,495.1c-0.6-0.4-1.1-0.8-1.6-1c-1.7-0.7-3.5-0.7-4.6,0.7c-0.4,0.5,0.5,2.3,1.2,3.3
		c1.5,2.2,2.9,2.3,5.1,0.8c0.3-0.2,0.7-0.2,1-0.4c1.5-0.8,3.1-1.7,4.8-2.6C550.3,492.9,549,492.8,547.5,495.1z M799.6,371.9
		c-0.1,0.3-0.2,0.6-0.3,0.9c2.2,1.1,4.3,2.6,7.1,2.1c1-0.2,1.9-0.8,2.8-1.2c0-0.1-0.1-0.2-0.1-0.2c1.9-0.6,3.8-1.3,5.5-1.9
		c-1-1-2-2-3.2-3.1c-0.4,0.5-0.7,0.8-0.9,1.2c-1.8-1.4-3.4,0.4-5.2,0c0,0.5,0,0.9,0,1.2c-0.9-0.2-1.7-0.3-3-0.5
		c0.6,0.9,0.9,1.3,1.3,1.9C802.1,372.2,800.9,372.1,799.6,371.9z M611.7,344.3c-0.4,0.1-0.8,0.3-1.2,0.4c-0.9,3.4-1.8,6.8-2.6,10.2
		c-0.1,0.4,0.6,1.2,1.1,1.4c0.3,0.1,1.1-0.3,1.4-0.6c1.6-1.6,3.1-3.3,4.5-5.1c0.4-0.5,0.4-1.6,0.1-2
		C614.1,347.1,612.8,345.7,611.7,344.3z M352.7,318c-0.4,3.4-0.8,6.2-1.2,8.9c-0.2,1.4-0.4,2.8,1.5,3.2c1.5,0.3,3.2-0.7,3.5-2.4
		c0.3-1.3,0.4-2.8,0.3-4.1C356.6,321.3,355.1,319.7,352.7,318z M387.8,348c2.9,0,4.3-1.1,3.8-2.6c-0.9-2.9-2-5.8-3.2-8.6
		c-0.3-0.6-1.6-1.1-2.3-1c-0.5,0.1-1.2,1.3-1.1,2c0.1,1.2,0.6,2.4,1.1,3.5c0.5,1.4,1.5,2.7,0.9,4.5
		C386.7,346.4,387.6,347.4,387.8,348z M113.6,415.9c-3.1-2.5-5.8-4.9-8.7-7c-1.2-0.9-2.7,0.1-2.6,1.5c0.3,2.2,1.2,4.3,3.3,5.3
		C108,416.8,110.5,417.5,113.6,415.9z M188.2,465.1c-0.6,0.6-1.7,1.2-1.8,1.9c-0.2,1.6,2.6,3,3.8,2c1.6-1.4,2.9-3.2,4.1-4.9
		c0.3-0.5,0-2-0.5-2.3c-0.9-0.6-2.1-0.8-3.2-0.7c-1,0.1-1.9,0.8-3.3,1.4C187.7,463.1,188,464.2,188.2,465.1z M596.2,107.5
		c0-0.2,0-0.4,0-0.7c-1.4-0.3-2.9-1.1-4.1-0.8c-1.1,0.3-2,1.8-2.9,2.8c0.6,0.6,1.3,1.1,1.7,1.7c0.4,0.6,0.9,1.4,0.8,2
		c-0.2,1.1-0.7,2.1-1.2,3.4c2.5-0.6,4.5-1.2,6.7-1.8c0.6-2.5-2.3-3-3.3-4.8C594.6,108.7,595.4,108.1,596.2,107.5z M773.8,403.6
		c0.2,0,0.4,0,0.5,0c0.4,1,0.8,2,1.3,3c0.3,0.5,0.9,1.2,1.2,1.2c1.3-0.3,2.5-0.9,3.7-1.4c1.6-0.7,3.2-1.5,4.9-2c0.7-0.2,1.6,0,3.1,0
		c-1.6-1.1-2.6-2-3.8-2.5c-0.6-0.3-1.6-0.3-2.1,0.1c-1.8,1.3-3.7,1.3-5.5,0.3C775.3,401.3,774.3,401.9,773.8,403.6z M140.5,462
		c0.1-0.4,0.2-0.7,0.3-1.1c-1.7-1-3.4-2-5.1-2.8c-0.4-0.2-1.2,0.2-1.7,0.6c-1,0.7-1.8,1.5-2.7,2.4c-2.2,2-4.4,4.1-6.6,6.1
		c-0.1,0.1,0,0.4,0,0.8c1.5-0.2,3-0.3,4.3-0.6c0.4-0.1,1-1.2,0.8-1.4c-1-1.5,0-2.3,1.1-2.7c1.2-0.5,2.5-0.5,3.8-0.6
		C136.6,462.2,138.5,462.1,140.5,462z M179.8,159.4c-0.2-0.4-0.6-1.5-1.3-2c-2-1.4-4.2-1.7-6.6-0.5c-2.3,1.1-2.5,2.2-0.3,3.6
		c1.4,0.9,3.2,1.4,4.8,2C178.6,163.3,179.8,162.4,179.8,159.4z M583.4,391c-2.2-1.6-3.9-2.9-5.7-4.1c-0.3-0.2-1.2-0.1-1.3,0.2
		c-1.6,3.2-3.7,6.1-4.1,10.2c1.8-1.2,3.3-2.1,4.6-3.2c1.4-1.2,2.6-2.6,4.7-2.1C581.9,392,582.4,391.5,583.4,391z M415.6,77.6
		c-1.1,0.6-2.5,0.9-2.8,1.6c-0.9,2.1-1.4,4.4-1.8,6.7c-0.1,0.4,0.6,1,0.9,1.5c0.4-0.4,0.8-0.8,1.1-1.2c0.7-1,1.1-2.7,2-3
		c2.5-0.8,3.1-2.3,2.5-4.6c0.5-0.2,0.9-0.4,1.9-0.8c-1.3-1.5-2.4-2.8-3.6-4.3C414.7,75.2,413.9,76.4,415.6,77.6z M641,403.8
		c0.1-0.2,0.3-0.3,0.4-0.5c1,0.8,2,1.6,2.9,2.4c0.9,0.7,1.7,1.6,2.8,0.4c1-1.2,0.6-2.4-0.6-3.1c-1.5-0.9-3-1.7-4.6-2.5
		c-1.4-0.7-3-0.9-3.8,0.7c-0.6,1.2-1.1,2.9-0.7,4c0.6,1.5,2.4,1.5,4.1,1.1C641.4,405.4,641.2,404.6,641,403.8z M794.1,420.7
		c-2.6-0.1-5.1-0.6-6.7-2.8c-2.3-3.1-5.4-2.7-8.5-1.9c-0.8,0.2-1.4,1-2.2,1.5c0.8,0.4,1.7,1.1,2.5,1.1c2.4,0,4.5,0.6,6.6,1.9
		C788.5,422.2,791.3,422.1,794.1,420.7z M766.5,277.6c-0.6,0.1-1.6,0.2-2.5,0.5c-1.3,0.4-2.3,0.8-1.2,2.7c1,1.6,2.2,3.8,0.5,5.9
		c0.4,0.2,0.8,0.4,1.1,0.5c-0.3,0.6-0.6,1.1-0.8,1.6c1.2-0.4,2.8-1.1,2.7-1.7c-0.1-1.6,1.1-2,1.8-2.8c0.6-0.6,1.2-1.2,1.6-1.5
		C768.7,281.1,767.7,279.6,766.5,277.6z M458.3,416.2c-2.2,3.9-1.6,7.3,1.7,10.5c0.4-0.7,0.9-1.3,1.3-2
		C464.6,419.1,464.5,418.7,458.3,416.2z M727.7,292.3c-1.1-0.9-1.7-1.8-2.6-2.1c-0.5-0.1-1.7,0.7-1.9,1.3c-0.7,2.8-1.1,5.6-1.7,8.4
		c0.2,0.1,0.5,0.2,0.7,0.3c1.3-1.7,2.6-3.5,3.9-5.2c1,1.5,3.4,1.2,4.7-0.7c0.3-0.4,0.4-1.1,0.3-1.6c-0.1-0.2-0.8-0.4-1.3-0.5
		C729,292.2,728.1,292.3,727.7,292.3z M139.4,283.2c-1.9-1.6-7.1-1.6-8.7,0.1c-0.4,0.4-0.4,1.6-0.1,2.2c0.6,1.2,0.7,1.9-0.7,2.4
		c-0.4,0.1-0.8,0.3-1.2,0.4c0.2,0.3,0.4,0.7,0.7,1c1-0.2,2-0.4,2.9-0.8c1.1-0.4,2-1.4,3.1-1.5C137.8,286.8,138.6,285.2,139.4,283.2z
		 M576.3,351.5c-0.3-0.2-0.6-0.4-0.9-0.7c-0.3,0.6-0.6,1.3-1,1.9c-1.2,1.9-2.4,3.8-3.7,5.6c-1,1.4-0.7,2.4,0.9,3.1
		c0.8,0.3,1.6,0.8,2.4,0.9c0.4,0.1,1.3-0.3,1.4-0.6C576.3,358.4,577.3,355,576.3,351.5z M686.5,205.4c0.2,0.4,0.4,1,0.8,1.6
		c0.7,1.3,1.5,2.5,2.2,3.8c1.2,2.4,3,2.7,4.4,0.3c0.7-1.2,0.9-2.9,1-4.3c0-0.5-1-1.6-1.6-1.6C691.1,205.1,688.9,205.3,686.5,205.4z
		 M509.2,472.3c-0.2-0.2-0.3-0.5-0.5-0.7c-2.6,0.5-5.2,0.9-7.8,1.4c-2.3,0.4-2.9,1.8-1.5,3.6c0.5,0.7,1,1.5,1.7,1.9
		c0.5,0.3,1.7,0.5,2.1,0.2C505.4,476.7,507.3,474.5,509.2,472.3z M330.5,296.7c-0.1,1.4-0.3,2.3-0.2,3.3c0.1,1.5,0.5,3,0.7,4.5
		c0.2,2.6,1.2,3.6,3.9,3.7c2,0,2.8-1,1.8-2.8c-1.4-2.6-3-5-4.6-7.4C332,297.6,331.4,297.4,330.5,296.7z M652.7,439.6
		c1.3,3.2,5.3,3.9,7.6,1.9c2-1.7,1.7-4.4-0.7-5.6c-1-0.5-2.1-0.7-3.1-1.1c-1.2-0.4-2.7-0.7-2.1-2.4c0.6-1.6,2.1-1.4,3.4-1
		c0.5,0.1,0.9,0.7,1.5,0.9c0.5,0.2,1,0,1.8,0c-1.7-2.3-3.7-3.2-6-2.3c-1.1,0.5-2.3,1.8-2.4,2.9c-0.1,0.9,1.1,2.2,2,2.9
		c1,0.7,2.5,0.7,3.7,1.3c0.6,0.3,1.4,1.1,1.3,1.7c0,0.7-0.8,1.9-1.3,2c-1.3,0.1-2.7-0.3-4.1-0.5
		C653.8,440.3,653.2,439.9,652.7,439.6z M71.3,419.5c-2.2-2-4.3-4-6.6-5.8c-0.2-0.1-1.1,0.4-1.5,0.8c-0.7,0.7-1.1,1.7-1.9,2.3
		c-1.1,0.9-0.9,1.6,0.2,2.2C64.4,420.4,67.5,421.2,71.3,419.5z M265.7,88.8c-3.2,2-5.9,3.6-8.5,5.4c-1.2,0.9-2.5,2.1-1.4,4.3
		c1.4-0.7,2.7-1.6,4.1-2.1c0.9-0.3,2.1,0,3.1,0.1c0.5,0,1,0.2,1.5,0.4c0.1-0.5,0.2-1,0.2-1.6c0.1-1.3,0.2-2.5,0.4-3.8
		C265.2,90.8,265.4,90,265.7,88.8z M684.6,195.3c0.6-0.9,1.4-1.8,1.9-2.8c0.2-0.5,0.1-1.3-0.2-1.7c-0.1-0.2-1.1-0.1-1.5,0.2
		c-1.3,1-2.6,2.1-3.7,3.3c-0.4,0.4-0.3,1.6,0.1,2.1c0.9,1.1,2,2,3,3c1.4,1.3,2.6,0.5,3.6-0.5c1.1-1.1,0.9-2.4-0.3-3.2
		C686.8,195.2,685.6,195.4,684.6,195.3z M466.2,445.3C466.2,445.3,466.2,445.3,466.2,445.3c-0.1-0.8,0.1-1.7-0.3-2.4
		c-0.5-0.9-1.3-2-2.2-2.3c-0.6-0.2-1.8,0.6-2.4,1.2c-2.3,2.3-0.5,4.4,0.7,6.4c0.4,0.7,1.8,1.7,2.1,1.5c0.9-0.6,1.6-1.5,2.1-2.5
		C466.5,446.7,466.2,446,466.2,445.3z M254.7,289.2c0.6-0.6,1.8-1.3,2.1-2.2c0.9-2.3-0.1-4.1-2.5-5.1c-0.5-0.2-0.9-0.5-1.2-0.8
		c-0.7-0.7-1.6-1.8-2.4-0.4c-0.7,1.2-2.2,2.6-0.6,4.2C251.6,286.5,253.2,287.8,254.7,289.2z M516.8,88.8c-1.2,0.6-2.3,1.1-3.4,1.7
		c-2,1-2.4,2.1-1.5,4.1c0.9,2,3.4,3.2,5.5,2.6c0.4-0.1,1-0.9,1-1.3C518,93.6,517.4,91.4,516.8,88.8z M586.6,483.5
		c0,0.2,0,0.3,0.1,0.5c0.5,0.2,1.1,0.2,1.4,0.6c2.6,2.7,5.7,2,8.8,1.5c1.2-0.2,2.4-0.9,1.6-2.1c-0.8-1.1-2.4-2.3-3.6-2.2
		C592.1,482,589.4,482.9,586.6,483.5z M243.4,224.3c0.9-2.4,1.8-4.3,2.3-6.4c0.4-1.5-2.1-4.7-3.1-4.2c-1.1,0.6-2.1,1.9-2.7,3
		c-0.3,0.6,0.2,1.7,0.6,2.4C241.2,220.8,242.1,222.2,243.4,224.3z M99.6,311.8c-0.2,0-0.4,0-0.6,0c-0.3,1.9-0.8,3.8-0.8,5.8
		c-0.1,2.6,2,4.6,4.6,4.5c1.9,0,2.5-0.8,1.5-2.5C102.9,317,101.2,314.4,99.6,311.8z M737.1,446.2c0,0-0.1-0.2-0.2-0.2
		c-2.7-2.1-5.8-0.8-8.7-1.1c-0.6-0.1-2.1,1.6-2,1.9c0.5,1,1.4,1.9,2.4,2.5c0.8,0.5,1.8,1.4,3.1,0.3
		C733.3,448.2,735.2,447.3,737.1,446.2z M710.1,436.2c-0.3,2.2,0.5,3,1.7,3.8c1.3,0.9,2.6,2,3.4,3.4c1.3,2.2,2.9,2.9,5.5,1.7
		c-1.7-2.2-3.2-4.7-5.2-6.6C714.2,437.3,712.2,437,710.1,436.2z M408.3,289.5c-0.3,0.4-0.4,0.5-0.4,0.6c0.8,3.7,3.3,6.2,5.8,8.7
		c0.2,0.2,1.4-0.1,1.7-0.4c2-3,0.2-6.7-3.4-6.7C410.3,291.7,408.8,291.6,408.3,289.5z M70.7,298.2c2.4,3.2,2.8,3.2,5,0.3
		c0.9-1.1,2.1-2,3.1-3c0.4-0.4,0.8-1.2,0.7-1.6c-0.7-1.5-1.5-2.9-2.3-4.4c-0.8,1.2-1.4,1.9-1.9,2.7c-0.2,0.4-0.5,1.1-0.4,1.4
		c0.6,1.6-0.1,2.3-1.4,2.9C72.6,297.1,71.7,297.6,70.7,298.2z M600.2,336c-2.8-0.1-5,0.9-5.7,2.8c-0.8,2.3-1.2,5,0.3,8
		C598.2,343.7,598.8,339.9,600.2,336z M645.3,143.5c0.1,0.4,0.1,0.7,0.2,1.1c1.2,0.3,2.5,1,3.6,0.9c3.6-0.5,5.8-1.9,4.7-5.6
		c-0.1-0.5-1.3-1.2-1.5-1C649.9,140.4,647.6,142,645.3,143.5z M101.3,265.7c-1.5,1.4-1.9,2.6-1,3.9c0.9,1.4,0.5,2.4-0.4,3.5
		c-0.8,1-1.6,2.1-2.1,3.3c-0.2,0.5-0.1,1.5,0.2,1.9c0.2,0.3,1.2,0.3,1.7,0.1c2-0.7,4-3.6,3.6-5.5C102.9,270.6,102,268.3,101.3,265.7
		z M704.8,232c-0.7,0.8-1.6,1.5-2,2.4c-0.3,0.6,2.4,4.7,2.9,4.6c2-0.5,3.9-1,5.9-1.7c0.4-0.1,0.6-0.7,0.9-1
		c-0.4-0.2-0.8-0.5-1.2-0.7c-1.5-0.7-3-1.5-4.5-2.2C706.2,233,705.7,232.6,704.8,232z M470.4,425.9c-1.4,2.9-1,4.8,0.5,6.5
		c1,1.1,2.1,2.2,3.3,3.2c0.5,0.4,1.3,0.4,2,0.7c0.2-0.8,0.8-1.9,0.5-2.3C474.8,431.3,472.7,428.9,470.4,425.9z M495.1,81.3
		c-0.5-2-0.8-3.5-1.3-5c-0.7-2.1-0.8-4.1,0.8-6c0.4-0.5,0.5-1.4,0.5-2.1c0-0.3-1.1-0.8-1.4-0.6c-0.6,0.4-1.3,1-1.4,1.7
		c-0.7,2.9-1.2,5.8-1.7,8.8c-0.1,0.4,0.2,1.2,0.6,1.4C492.2,80,493.3,80.5,495.1,81.3z M144.8,423.6c-1.1-1-1.7-1.7-2.4-2.1
		c-1.3-0.9-2.8-1.6-4.2-2.4c-0.6,1.5-1.2,3-1.7,4.5c-0.6,1.9,0.5,2.5,2.1,2.1C140.6,425.2,142.5,424.4,144.8,423.6z M555,297.4
		c-0.2,0-0.5,0.1-0.7,0.1c-0.4,3.1-1,6.1-1.3,9.2c-0.1,1.6,0.9,2.2,2.2,1.5c1.7-0.9,3-3.9,2.3-5.6
		C556.8,300.8,555.9,299.1,555,297.4z M695.9,296.8c-0.1-0.1-0.2-0.2-0.3-0.4c-0.6,0.4-1.3,0.8-1.9,1.2c-0.6,0.3-1.2,0.9-1.7,0.8
		c-1.9-0.6-3,0.6-4.2,1.6c-1,0.8-2.2,1.5-1,2.9c1,1.1,2.2,1.9,3.8,0.5c0.4-0.4,1.1-0.4,1.7-0.6C693.4,300.8,694.6,298.8,695.9,296.8
		z M770.6,372.6c0.3,0,0.6,0,0.8-0.1c0.2-1.8,0.6-3.6,0.6-5.5c0-1.8-1.4-2-2.9-1.8c-1.6,0.2-3.3,0.4-3.8,2.3
		c-0.1,0.3,0.3,0.8,0.6,1.1C767.5,370.1,769.1,371.3,770.6,372.6z M391.9,148.4c0.3,0.1,0.6,0.3,0.9,0.4c0.3-1,1.2-2.2,1-3
		c-0.8-2.7,0.4-4.4,2-6.3c1.6-1.9,3.1-3.8,4.5-5.9c0.3-0.4,0-1.3-0.1-2c-0.7,0.3-1.8,0.5-2,1c-1.3,3.4-3.4,6.3-6,8.8
		c-0.4,0.4-0.7,1.8-0.4,2.1C393.3,145,393.1,146.6,391.9,148.4z M540,461.1c0.5,2.3,2,2.7,3.4,2.3c1-0.3,2.4-1.3,2.5-2.1
		c0.3-2.5,0.1-5,0.1-7.6c-1.8,0.1-3.4-0.1-4.7,0.4c-1.9,0.8-1.7,2.8-1.4,4.4c0.3,2,2,2.7,5,1.9C543.8,463.7,541.9,461.8,540,461.1z
		 M553.6,453.8c-1.7,0.1-3.4-0.2-4.7,0.3c-1.8,0.7-1.7,2.6-1.5,4.2c0.1,0.7,0.6,1.8,1.1,2c1.2,0.5,2.5,0.5,3.8,0.7
		c-1,2.9-3,0.6-4.7,0.3c0.4,2.3,1.9,2.3,3.4,2.2c1.7-0.1,2.5-1.1,2.6-2.7C553.6,458.6,553.6,456.3,553.6,453.8z M810.1,356.5
		c0.4-0.9,0.5-1.5,0.8-1.8c1-1.1,0.8-2.2-0.4-2.6c-1.6-0.5-3.4-0.5-5.1-0.7c0,0.2-0.1,0.4-0.1,0.5c0.3,0.2,0.6,0.5,0.6,0.5
		c-1,1-2,2-3.5,3.4C805.4,356,807.9,356.3,810.1,356.5z M138,456c3.8,3.9,6.1,4.8,8.6,3.7c-0.6-1.3-1.6-2.7-1.7-4.1
		c-0.1-1.6-0.7-1.5-1.7-1.3C141.5,454.9,139.8,455.4,138,456z M119,414.9c0.4-0.3,1.1-0.6,1.2-1c0.2-0.6,0-1.4-0.4-1.8
		c-0.8-0.9-1.8-1.7-2.8-2.4c-0.7-0.4-1.8-0.8-2.5-0.5c-0.7,0.3-1.4,1.4-1.3,2.2c0.1,0.8,0.8,1.9,1.5,2.3
		C116,414.3,117.4,414.5,119,414.9z M708.9,290.5c-2.9-0.6-4.8,0.5-6.3,2.2c-1.3,1.5-2.4,3.1-1.7,5.8
		C703.8,296,706.9,294.2,708.9,290.5z M231.7,307.6c0.1,2.8,1.7,4.7,3.3,4.3c2.3-0.5,1.8-2.8,2.1-4.3c0.1-0.7-1.8-1.8-2.8-2.8
		C233.2,305.9,232.2,307,231.7,307.6z M268.6,141.2c-0.3-0.1-0.6-0.2-0.8-0.3c-0.4,1-1.2,2.1-0.9,2.8c0.3,0.9,1.5,1.5,2.4,2.1
		c0.8,0.5,1.7,0.7,2.5,1c0.9,0.4,1.8,0.8,2.7,1.2c-0.3-0.9-0.7-1.8-1-2.7c0-0.1-0.1-0.3-0.1-0.2c0.4-0.5,1-1,0.9-1.1
		c-0.6-0.8-1.4-1.6-1.9-2.2c-0.5,1.1-0.8,1.9-1.4,3C270,143.2,269.3,142.2,268.6,141.2z M649,329c-0.2-1.1-0.2-1.8-0.4-2.4
		c-0.2-0.7-0.7-1.4-1-2c-0.6,0.4-1.3,0.8-1.9,1.1c-0.3,0.2-0.6,0.6-0.8,0.6c-1.8,0-1.6,1.1-1.1,2.2c0.4,0.9,0.7,2,1.3,2.7
		c0.3,0.4,1.6,0.6,2,0.3C647.9,330.8,648.5,329.7,649,329z M452.3,149.6c0.2,0.2,0.5,0.4,0.7,0.6c1.6-0.6,3.3-1,4.7-1.8
		c1.1-0.6,0.8-3.1-0.3-4.4c-1.1-1.2-2.4-0.7-3,0.2C453.5,145.9,453,147.8,452.3,149.6z M484.2,420.4c-0.8-3.4-5.8-7.5-9.5-7.7
		C477,416.5,479.3,420,484.2,420.4z M304.8,390.9c-0.4,2.1-0.5,2.1,1.7,4.4c1.4,1.5,2.2,2.8-0.1,4.5c1.4,1.1,2.7,2,3.9,2.9
		c1.4-1.4,1.5-2.7,0.5-4.1c-1.1-1.6-2.3-3.2-3.5-4.8C306.6,392.9,305.9,392.1,304.8,390.9z M481.2,434.9c0.4-0.7,0.9-1.3,1.5-2.3
		c-0.6-0.3-1.2-0.7-1.8-1c-0.5-0.2-1.3-0.1-1.6-0.4c-2.1-2.4-4.2-4.9-6.3-7.3c-0.5-0.6-1.2-1-2.1-1.7
		C471,424.2,479.3,434.2,481.2,434.9z M592.7,375.1c0-2.2-1.2-2.9-3-1.8c-1.1,0.7-2.1,1.5-3,2.5c-1.2,1.3-0.8,2.6,0.9,3.1
		C589.3,379.3,592.7,376.8,592.7,375.1z M764.9,376.5c3.2,2.4,7.3,3.2,9,1.5c-1.4-1.2-2.8-2.5-4.3-3.6c-0.7-0.5-1.6-0.7-2.4-1.1
		c-0.3,0.8-0.5,1.6-0.9,2.8C766.2,376.1,765.6,376.3,764.9,376.5z M308.5,307.7c-0.7,2.7,4.9,11.8,7.5,13
		C315.3,315.3,311.3,312.2,308.5,307.7z M617,126.4c-0.4-0.3-0.8-0.8-1.3-1c-1.9-0.6-3.7-1.1-5.6-1.5c-0.4-0.1-1,0.4-1.5,0.6
		c0.3,0.5,0.6,1.1,1,1.4c0.3,0.2,0.9,0.1,1.5,0.1c-0.3,0.5-0.6,0.9-0.8,1.3C614,130,615,129.8,617,126.4z M483.3,407.4
		c-0.5-2-0.8-3.8-1.3-5.5c-0.1-0.3-1-0.8-1-0.8c-1,1-2.1,1.9-2.6,3.1c-0.3,0.6,0.4,1.7,0.8,2.4c0.5,0.7,1.2,1.2,2,1.7
		c0.4,0.3,1.1,0.5,1.4,0.3C482.9,408.4,483.1,407.7,483.3,407.4z M693.6,386.1c-1.8,0.7-3.6,0.4-3.7,2.7c0,1.7,1,2.7,2.7,2.7
		c1.7,0,4.2-1.9,3.7-2.9C695.9,387.5,694.6,386.9,693.6,386.1z M788.9,295.9c0-0.2,0-0.5-0.1-0.7c-1.4-0.7-2.8-1.5-4.2-2.2
		c-0.7-0.3-2.1-0.8-2.3-0.5c-0.6,0.9-1.1,2-1.1,3.1c0,0.5,1.3,1.4,2,1.4C785.1,296.8,787,296.3,788.9,295.9z M83.6,223.6
		c1.2,3.4,2.8,4.3,6.9,3.8c0.6-3.3-0.9-4.8-4.1-4C85.5,223.6,84.5,223.5,83.6,223.6z M703.5,263c1.4-0.4,2.3-0.7,3.3-0.9
		c1.9-0.5,2.1-1.8,1.4-3.3c-0.7-1.8-1.9-1.1-3-0.5c-0.8,0.4-1.7,0.8-2.4,1.4c-0.5,0.4-1,1.4-0.9,1.8
		C702.2,262.1,703,262.5,703.5,263z M121.7,216.5c-0.9-1.9-2.5-2.1-4.3-1.4c-0.9,0.4-2.3,1.4-2.2,2.1c0.1,1.9,1.5,3,3,3.2
		C119.5,219.1,120.5,217.9,121.7,216.5z M137.7,373.8c1.4,0.9,2.7,1.7,3.9,2.5c0.3,0.2,0.7,0.5,0.8,0.4c0.4-0.2,0.8-0.6,1-1
		c0.2-0.7,0.3-1.4,0.4-2.5c-0.2-0.5-0.5-1.4-0.8-2.2C140,370.6,138.8,371.4,137.7,373.8z M121.4,465c0.6-0.4,1.4-0.7,1.7-1.3
		c1.4-2.9,2.8-5.9,4-8.9c0.1-0.3-0.6-0.9-0.9-1.3c-0.8,0.8-1.7,1.6-2.2,2.5c-0.3,0.5-0.3,1.7,0,2c1,1,0.7,1.5-0.2,2.3
		c-1.1,0.9-2.1,1.8-3,2.8c-0.3,0.3-0.3,0.9-0.3,1.4C120.5,464.6,121,464.7,121.4,465z M666,503.7c0.3,0,0.7-0.1,1-0.1
		c0-0.7,0.1-1.5-0.2-2.2c-1.4-3.4-1.5-3.4,1.1-6.1c0.1-0.2,0.5-0.3,0.5-0.4c0-0.7-0.1-1.4-0.2-2.1c-0.7,0.1-1.7,0-2,0.4
		c-0.8,1.1-1.6,2.4-1.8,3.7C664.1,499.2,664.5,501.6,666,503.7z M579.9,458.7c-1.2-1.6-0.9-3.9-2.7-4.9c-0.2,0.1-0.4,0.2-0.5,0.3
		c0.8,2.2,1.7,4.3,2.3,6c-1.1,1.4-1.9,2.6-2.8,3.8c0.2,0.2,0.4,0.4,0.6,0.5c1.1-0.7,2.7-1.1,3.2-2c1.3-2.7,2-5.6,3-8.5
		c-0.3-0.1-0.5-0.2-0.8-0.4C581.4,455.2,580.6,456.9,579.9,458.7z M123,209.9c1.2-0.5,1.9-0.7,2.4-1.1c0.6-0.5,1.1-1.2,1.6-1.9
		c-0.7-0.4-1.4-0.7-2.1-1.1c-1.3-0.8-2.6-1.7-3.7-2.7c-0.5-0.4-0.6-1.3-1-2.3c-0.4,1-0.7,1.6-0.9,2.2c-0.7,2-0.2,3.1,1.8,3.2
		C123.2,206.4,124.1,207.2,123,209.9z M406.4,49.1c2.1-0.9,3.3-2.5,3-4c-0.3-1.6-1.6-3.1-2.5-4.6c-0.3,0.1-0.6,0.2-0.9,0.4
		C404.7,43.5,406.1,46.1,406.4,49.1z M260.1,408.5c-0.1,0.2-0.1,0.3-0.2,0.5c1.6,1.8,3.1,3.6,4.8,5.2c0.6,0.6,1.5,1.8,2.5,0.5
		c1-1.2,0.8-2.4-0.6-3.3c-1.2-0.8-2.4-1.6-3.7-2.2C262,408.8,261,408.7,260.1,408.5z M271.9,409.8c1.4,0.5,2.8,1.2,4.3,1.5
		c0.8,0.2,2.4,0.1,1.8-1.3c-0.8-1.8-2.1-3.4-3.5-5.5C273.5,406.6,272.7,408,271.9,409.8z M494.3,478.8c-4.5,2.2-4.4,7.8-8.2,10.6
		C489.9,488.3,494,482.7,494.3,478.8z M423.1,83.6c-0.4,0-0.8,0.1-1.2,0.1c-0.4,1.7-0.9,3.4-1,5.2c-0.1,1.7,1.1,2.5,2.6,2.6
		c0.4,0,1.4-0.7,1.3-0.9C424.3,88.2,423.7,85.9,423.1,83.6z M546.3,315.9c3.2-1.6,3.9-6.6,1.5-9.2
		C546.4,308.1,545.5,313.3,546.3,315.9z M513.3,379.2c-0.2-0.1-0.4-0.1-0.6-0.2c-0.3-1.2-0.5-2.5-0.9-3.7c-0.2-0.6-0.4-1.3-0.9-1.8
		c-0.2-0.2-1-0.1-1.4,0.1c-1.7,1.2-1.5,3.3,0.4,4.3c-0.5,0.9-1.4,1.9,0.6,2.1c-0.3,0.7-0.6,1.3-0.9,1.9c0.2,0.1,0.4,0.3,0.5,0.4
		C511.4,381.3,512.4,380.2,513.3,379.2z M253.8,403.2c-0.6,5.3-0.1,6.9,1.9,7.1c1.1-1,2-1.7,3.2-2.6
		C258.3,405.4,255.6,405.1,253.8,403.2z M484.2,44.6c1.5,2.9,3.2,1.6,4.7,1.4c0.6-0.1,1.7-0.2,1.8-0.5c0.3-0.8,0.3-1.9,0-2.7
		c-0.2-0.4-1.5-0.7-2.1-0.5C487.1,42.9,485.7,43.8,484.2,44.6z M694.1,118.8c2.1,2.7,4.1,3.4,6.4,2.7c1.4-0.5,2.5-1.1,2.3-2.7
		C700,118.8,697.3,118.8,694.1,118.8z M421.9,276.2c2.1-3-0.6-8.1-5.1-9.8C418.6,269.9,420.2,272.9,421.9,276.2z M237.8,467.6
		c-2.1-0.9-3.5-1.5-4.8-1.9c-1.2-0.4-2.4,0.3-1.8,1.4c0.8,1.5,2.3,2.6,3.5,3.9C235.6,469.9,236.5,468.9,237.8,467.6z M696.7,150.4
		c0-0.2,0-0.4,0-0.6c-3.4-0.3-6.7-0.5-10.1-0.8c0,0.2-0.1,0.5-0.1,0.7c0.7,0.2,1.5,0.4,2.7,0.7c-1.3,0.3-2.1,0.5-3,0.8
		C690.2,153.5,693.3,150.8,696.7,150.4z M149.8,188.3c-1.8,1.7-3.1,2.9-4.1,4.2c-0.1,0.1,1.7,2.1,1.9,2c1.3-0.8,2.6-1.8,3.6-3
		C151.5,191.1,150.5,189.9,149.8,188.3z M198.4,497.9c1.7,1,2.1,2.2,1.5,4c-0.3,0.9,0.5,2.2,1,3.1c0.1,0.3,1.2,0,1.5,0
		c-0.2-1.3-0.3-2.2-0.5-3.1c1.1-0.1,2.2-0.2,4-0.3C203.6,499.2,200.9,498.9,198.4,497.9z M745.7,393.7c-3.8-2.7-6.5-2.6-8.8-0.1
		C739.7,396.9,742.4,394.1,745.7,393.7z M107.2,299.1c1.5,1.9,3.9,2.4,5.4,1.1c1.3-1.2,0.6-2.2-0.4-3.1
		C110.7,295.5,109.9,295.8,107.2,299.1z M548.7,121.1c0.7-0.4,1.1-0.6,1.6-0.8c2.2-1.3,2.7-3.4,1.2-5.5c-0.3-0.4-1.8-0.5-1.8-0.4
		C548.9,116.5,547.7,118.5,548.7,121.1z M419.1,393c-1.5-2.2-3.1-4.4-4.8-6.9c-1.2,2.5,0,4.3,0.5,6C415.4,394,417.2,394.3,419.1,393
		z M32.5,395.1c1.2-0.8,1.9-1.2,2.6-1.7c-1-1.3-2-2.6-3-3.8c-0.9,0.8-1.8,1.7-2.7,2.5C30.4,393.1,31.4,394,32.5,395.1z M613.7,339.6
		c0.3,0.2,0.5,0.3,0.8,0.5c1.2-1.2,2.4-2.4,3.6-3.6c1.7-1.8,1.6-2.3-0.8-3.8C616.2,335,613.3,336.5,613.7,339.6z M769.1,431.9
		c2.5,0.6,4.8,2,7.5,0.8c-0.8-0.3-1.7-0.6-2.3-0.8c0.2-0.7,0.6-1.7,0.4-1.8c-0.6-0.5-1.4-0.9-2.2-1
		C770.6,428.9,769.7,430,769.1,431.9z M95.3,436.2c1,0.1,2,0.4,2.8,0.2c1.2-0.4,2.3-1.3,3.5-1.8c1.1-0.4,2.4-0.6,3.8-0.9
		C103.4,431.6,97,433.4,95.3,436.2z M763.3,394.4c0,0.3,0,0.7-0.1,1c1.6,1,3.2,2.1,4.9,3.2c0.6-1.5,1.1-2.6,1.5-3.9
		c0.1-0.3-0.5-1.2-0.7-1.2C767,393.8,765.2,394.1,763.3,394.4z M253,477.1c1.7,0.2,3.4,0.4,5,0.6c-0.1-2.2-1.8-3.9-3.3-3.3
		c-1.6,0.6-3,1.7-4.3,2.7c-0.3,0.2,0.2,1.3,0.3,1.9c0.7-0.2,1.5-0.2,2.1-0.6C253,478.3,252.9,477.5,253,477.1z M514.5,298.5
		c-1.5,0.2-2.9,0.4-4.3,0.4c-1.6,0-2.4,0.7-2.8,2.1C511.1,303.4,514.1,302.3,514.5,298.5z M434,274.8c0.8-1.6,1.7-2.8,1.8-4
		c0.1-0.8-0.9-2-1.7-2.6c-0.5-0.4-1.6-0.1-2.4-0.1c0.1,1,0,2,0.3,2.9C432.4,272.1,433.1,273.2,434,274.8z M738.1,266.5
		c-0.8-0.5-1.8-1.5-2.3-1.3c-1.6,0.6-3.1,1.6-4.5,2.6c-0.2,0.2,0.2,1.2,0.3,1.9c2-0.7,4-1.3,5.9-2
		C737.7,267.5,737.7,267.1,738.1,266.5z M641.8,362.7c1.9,0.1,4.4-2,4.4-3.3c0-0.5-0.6-1.3-1-1.3c-1.8-0.3-5,1.8-4.7,3
		C640.6,361.7,641.5,362.3,641.8,362.7z M142.4,203.3c0.2,0.1,0.4,0.1,0.6,0.2c0.2-0.3,0.5-0.5,0.6-0.8c0.4-1.2,0.6-2.5,1-3.7
		c0.7-2.3-0.6-3.8-2.9-3.2c-0.7,0.2-1.3,1.1-1.9,1.7c0.7,0.4,1.3,1,2,1c1.8,0.1,1.9,1,1.5,2.3C142.9,201.6,142.7,202.4,142.4,203.3z
		 M543.2,488.5c0.4,0,0.9-0.1,1.3-0.1c0.4-1.4,1.5-3.2,0.9-4.2c-0.8-1.4-2.7-2.2-5-1.9C541.5,484.6,542.3,486.6,543.2,488.5z
		 M627.7,332.8c-2.6-2.1-4.5-2.2-5.6-0.1c-0.4,0.7-0.1,2,0.3,2.7c0.2,0.3,1.7,0.3,2.3-0.1C625.8,334.6,626.7,333.6,627.7,332.8z
		 M221.3,366.2c0.1-0.3,0.2-0.6,0.3-0.9c-1.9-1.7-3.9-3.4-5.9-5c-0.2-0.2-1-0.1-1.3,0.1c-0.2,0.2-0.3,1,0,1.3
		c1.5,1.5,3.1,3.1,4.8,4.4C219.6,366.5,220.6,366.2,221.3,366.2z M69.1,368.6c-0.8-1.4-1.4-2.8-2.3-3.8c-0.4-0.5-1.6-0.6-2.3-0.3
		c-0.5,0.2-1.1,1.2-1.1,1.8C63.5,367.8,67.3,369.4,69.1,368.6z M139.1,265.7c-0.3,0-0.6-0.1-0.9-0.1c-0.9,2-3.1,3.4-2.7,6.7
		c1.5-0.6,3.5-0.8,3.7-1.5C139.7,269.2,139.2,267.4,139.1,265.7z M174.4,174.3c0.1-0.2,0.2-0.3,0.2-0.5c0.9,0.2,1.7,0.5,2.6,0.6
		c0.8,0.1,1.7,0.3,2.3-0.1c0.8-0.4,1.2-1.3,1.8-2c-0.9-0.1-1.8-0.4-2.7-0.4c-1.3,0-2.7,0.2-4,0.3c-0.5,0-1,0-1.5,0.1
		c-0.1,0-0.2,0.8-0.1,0.9C173.4,173.7,173.9,174,174.4,174.3z M307.7,320.8c2-1.5,0.4-6-2.9-8.1
		C303.7,316.4,306.6,318.2,307.7,320.8z M417.8,446.3c-0.3-2.5,0.6-5.1-2.4-6.9c-0.3,2.6-0.5,5-0.8,7.6
		C416,446.6,416.9,446.5,417.8,446.3z M495.5,339.2c0.2,0.1,0.5,0.1,0.7,0.2c0.9-2.6,1.8-5.1,2.9-8.1
		C495.4,332.3,494.1,335.9,495.5,339.2z M385.9,58.2c-0.3,0.1-0.5,0.3-0.8,0.4c1.1,2.2,2,4.5,3.3,6.6c0.3,0.5,1.7,0.3,2.6,0.2
		c0.4,0,0.7-0.7,1-1c-0.6-0.5-1.2-0.9-1.8-1.4c-1-0.8-2-1.6-2.9-2.5C386.7,59.9,386.3,59,385.9,58.2z M708.9,300.6
		c0.7,0.4,1.3,0.8,2,1.2c-0.1,0.5-0.1,1.1-0.2,2c1.6-0.3,2.9-0.5,4.3-0.8C712.7,298.3,711.8,297.9,708.9,300.6z M560.9,481.1
		c2.3,1.3,4.3,2.5,6.9,4c0-1.5,0.4-2.8-0.1-3.5C567,480.3,562.9,480.1,560.9,481.1z M318.7,101.8c1.2,1.1,2.3,2.1,3.5,3.1
		c1.1-1.7,3.3-3,1.1-4.7C321.4,98.8,320.2,100.7,318.7,101.8z M402.1,411.2c-0.4,0.1-0.7,0.1-1.1,0.2c-0.1,1.6-0.4,3.3-0.2,4.8
		c0.1,0.7,1.5,1.7,2.2,1.7c1.4,0,1.2-1.3,0.9-2.3C403.4,414.1,402.7,412.6,402.1,411.2z M347.5,512.1c-0.1,0.3-0.1,0.7-0.2,1
		c1.2,0.4,2.4,0.9,3.7,1.2c0.2,0,0.5-0.8,0.8-1.3c1.6,0.2,3.3,0.3,4.9,0.5c1.6,0.1,3.2,0.2,4.8,0.3c0-0.4,0-0.7,0.1-1.1
		C356.9,512.5,352.2,512.3,347.5,512.1z M644.4,121.3c-2,0.2-3.4,0.3-4.9,0.6c-2.5,0.4-2.5,0.5-1.7,3.3
		C640.2,124.8,642.6,124.5,644.4,121.3z M515.8,398.6c0.2-1.9,2.8-0.4,2.9-2.6c0.1-1.5,0.5-3.1,0.8-4.6c-0.2-0.1-0.4-0.1-0.6-0.2
		c-0.5,1.2-0.9,2.4-1.4,3.6c-0.2-0.6-0.4-1-0.7-2c-0.9,0.9-2,1.5-2.1,2.2C514.6,396.1,515.3,397.2,515.8,398.6z M621.3,445.6
		c0.5,1.2,1,2.2,1.5,3.3c1,2.2,1.5,2.3,3.3,0.7c0.4-0.4,0.8-0.8,1.3-1.4c-1.6-0.4-3-0.8-3.9-1c0.1-1.2,0.1-2.2,0.2-3.2
		c-0.2-0.1-0.5-0.1-0.7-0.2C622.4,444.4,621.8,445,621.3,445.6z M84.5,387.3c-1.5-1.4-6.9-1.8-8.1-0.8c-0.2,0.2-0.5,0.6-0.5,0.9
		c0,0.3,0.4,0.7,0.7,0.7C79.1,388.4,81.7,388.4,84.5,387.3z M712.5,182.4c1.4-1,2.8-2,4.2-3.1c0.1-0.1-0.2-0.9-0.5-1
		c-1.9-0.9-3.3,0.4-4.8,1.3c-0.1,0.1-0.3,0.2-0.3,0.3c-0.2,0.5-0.6,1.1-0.4,1.5C711,181.7,711.7,181.9,712.5,182.4z M230.2,369.5
		c0.8-0.4,1.6-0.7,2.4-1.1c-0.1-0.3-0.1-0.5-0.2-0.8c-2.6,0.3-5.1,0.6-7.7,1c0,0.4,0,0.8,0,1.2c2.3,0.4,4.6,0.8,6.9,1.1
		c0.1-0.3,0.1-0.5,0.2-0.8C231.3,369.9,230.7,369.7,230.2,369.5z M711.8,185.9c0-0.3,0-0.5,0.1-0.8c-1.1-0.6-2.4-0.9-3.2-1.7
		c-1.6-1.7-1.5-1.8-3.3,0.2c0.6,0.1,1.1,0.2,1.4,0.2c0.5,1.3,0.8,3.1,1.5,3.2C709.4,187.2,710.7,186.4,711.8,185.9z M188.3,233.7
		c-1.3-0.3-2.2-0.7-3.1-0.6c-0.5,0.1-1.4,0.8-1.4,1.3c0,1.6,0.3,3.2,0.5,4.8c0.2,0.1,0.4,0.1,0.6,0.2
		C185.9,237.6,187,235.9,188.3,233.7z M109.8,223.9c-0.1-0.7,0-1.8-0.5-2.8c-0.4-0.8-1.3-1.4-2.1-1.8c-0.3-0.1-1,0.8-1.5,1.2
		c-0.5-1.4-1-2.9-1.6-4.4c-0.2,0.1-0.5,0.2-0.7,0.2c0.3,1,0.5,2.1,0.8,3.1c0.2,0.7,0.4,1.7,0.9,2.1
		C106.7,222.4,108.2,223.1,109.8,223.9z M708.1,348c-2.6-1.2-8.2,2.5-9.5,6.1C701.9,351.9,704.8,350.1,708.1,348z M126.6,372.1
		c-0.9,0.1-1.6,0.2-2.2,0.3c0,0.2,0,0.3,0,0.5c1.5,0.3,3,0.6,5.1,1c-0.7-0.7-1-1-1.4-1.3c2-0.5,2.2-0.8,1.7-3.7
		c-1.7,0.6-3.2,1.1-5.2,1.8C125.5,371.3,125.9,371.6,126.6,372.1z M363,32.4c-1.3,1.2-2.4,2.1-3.5,3.1c0.8,0.6,1.5,1.6,2.3,1.8
		c1.3,0.3,3.2-1.6,3-2.8C364.7,33.8,363.8,33.4,363,32.4z M335.6,340.5c0.3-0.1,0.6-0.2,0.9-0.3c-0.3-1.2-0.6-2.5-0.9-3.7
		c-0.4-1.5-0.7-3-1.3-4.4c-0.2-0.5-1-0.7-1.5-1c-0.2,0.4-0.6,1-0.5,1.3C333.3,335.1,334.5,337.8,335.6,340.5z M384.6,315
		c-0.9-0.9-1.5-1.6-2.3-2.1c-0.4-0.2-1.6-0.1-1.7,0.1c-0.6,1.7-1.1,3.4-1.6,5.1c0.2,0.1,0.4,0.2,0.6,0.3
		C381.2,317.4,382.7,316.4,384.6,315z M709.9,484.5c-0.1,0.2-0.2,0.3-0.3,0.5c0.6,0.9,1.2,1.9,2,2.7c1.3,1.2,3.4,0.8,4-0.8
		c0.2-0.4-0.3-1.5-0.6-1.5C713.3,484.9,711.6,484.7,709.9,484.5z M299,143.2c2.5,1.6,3.5,1.5,3.5-0.4c0-2.1-0.2-4.1-0.4-6.2
		c-0.1,0-0.2,0-0.3,0C300.8,138.8,299.9,141,299,143.2z M386.1,15.4c-0.5-1.6-0.6-2.7-1.1-3.6c-0.3-0.6-1.2-1-1.8-1.3
		c-0.2-0.1-0.8,0.3-0.9,0.6c-0.4,1.1-0.6,2.3-0.9,3.5C382.8,14.9,384.3,15.1,386.1,15.4z M586,146c-1-1.2-1.9-2.2-2.8-3.2
		c-3,2.4-2.9,3.2,0.6,5.6C584.5,147.7,585.2,147,586,146z M711.9,386.6c-0.2-0.3-0.4-0.6-0.6-0.9c-1.5,0.6-3.3,0.9-4.5,2
		c-0.5,0.4,0.5,2.4,0.8,3.6c0.2,0,0.5,0.1,0.7,0.1C709.6,389.8,710.8,388.2,711.9,386.6z M154.5,158.1c0.5-3-1.9-5.9-4.6-6.4
		c-0.5-0.1-1.2,0-1.6,0.3c-0.2,0.2-0.3,1.1,0,1.4c0.3,0.4,1,0.6,1.4,0.5c1.7-0.3,2.3,0.6,2.9,1.9C153,156.6,153.7,157.2,154.5,158.1
		z M807.1,310.5c0.5-0.4,1.1-1,1.7-1.6c-0.6-0.6-1.2-1.5-1.9-1.7c-1-0.2-2.2,0-3.2,0.3c-0.4,0.1-0.9,0.6-0.9,0.9
		c0,0.4,0.4,1,0.8,1.1C804.5,309.9,805.6,310.1,807.1,310.5z M506.5,52.4c-0.3-0.3-0.5-0.5-0.8-0.8c-0.4,0.8-0.6,1.7-1.2,2.3
		c-0.6,0.6-1.6,0.8-2.4,1.2c-0.6,0.3-1.3,0.7-1.9,1.1c0.8,0.5,1.6,1.3,2.4,1.3C504.8,57.3,506.6,54.8,506.5,52.4z M546.6,82.4
		c0.2,0.2,0.4,0.4,0.7,0.6c1.1-0.5,2.3-0.8,3.3-1.5c0.7-0.5,1.4-1.4,1.3-2.1c0-0.7-1-1.3-1.7-2.2C548.8,79.2,547.7,80.8,546.6,82.4z
		 M304.8,478.9c2-1.1,3.8-2.1,5.6-3.1c-2.5-1-4.8-0.7-7.2,0.4C303.7,477.2,304.2,477.9,304.8,478.9z M94.2,336.6
		c-0.2-0.2-0.4-0.3-0.6-0.5c-1.3,1.1-2.7,2.1-3.7,3.3c-0.3,0.3,0.4,1.6,0.9,2.2c0.2,0.2,1.5,0,1.7-0.3
		C93.2,339.8,93.6,338.2,94.2,336.6z M685.1,399.1c0.9-0.8,1.6-1.4,2.2-2.1c0.3-0.3,0.6-0.6,0.8-0.9c-2.1-2.1-2.8-2.1-5.8-0.1
		C683.2,397,684.1,398,685.1,399.1z M593.6,495.2c1-1.7,1.8-3.1,2.8-4.8c-2.1,0-3.7,0-5.8,0C591.7,492.2,592.5,493.6,593.6,495.2z
		 M719.4,497.7c0.8-1,1.7-1.6,1.7-2.2c0-2.4-2.4-1.1-3.5-1.9c-0.2-0.1-1.3,0.9-2,1.5C716.7,495.8,717.8,496.6,719.4,497.7z
		 M482.8,343.5c-0.1,1.4-0.4,2.5-0.1,3.4c0.2,0.9,1,1.7,1.6,2.5c0.4-0.7,1-1.3,1.2-2c0.2-0.7,0.1-1.4,0-2.1
		C485.3,343.6,484.3,343.1,482.8,343.5z M349.6,41.8c1.4-1.2,2.3-1.9,3.1-2.6c-1.2-0.8-2.5-1.6-3.8-2.3c-0.1-0.1-1.2,0.9-1.1,1.2
		C348.2,39.2,348.8,40.2,349.6,41.8z M701.3,409.5c-3.2-2.2-6.2-1.9-6.7,0.8C698.3,411.4,699.6,411.2,701.3,409.5z M287,309.8
		c0.3-0.1,0.5-0.1,0.8-0.2c0.5-1,1.2-2,1.4-3.1c0.4-1.6-0.4-2.4-1.9-1.7c-0.9,0.4-1.9,1.5-2,2.4C285.3,308,286.4,308.9,287,309.8z
		 M737.1,485.7c1.5-1.1,1.8-2,0.9-3.1c-0.3-0.4-0.5-0.9-0.6-1.4c-0.1-0.8,0.2-2.1-1.1-1.7c-0.8,0.2-1.8,1.7-1.6,2.3
		C735.1,483.2,736.2,484.4,737.1,485.7z M392.1,430.1c-1.9,3.5-0.9,9.5,1.4,11.1C393.1,437.7,392.6,434.1,392.1,430.1z M802.9,299
		c-0.8,0.2-1.6,0.4-2.4,0.5c-0.4,0.1-0.9,0.2-1.2,0.1c-1.8-1.1-2.5-1-3.7,0.8C798.5,302.3,800.5,302.1,802.9,299z M78.7,469.7
		c-0.2,0.1-0.4,0.3-0.6,0.4c0,1.1-0.1,2.3,0,3.4c0.1,0.7,0.2,1.5,0.6,2c0.3,0.3,1.5,0.3,1.8,0.1c0.5-0.6,1-1.7,0.7-2.3
		C80.6,472,79.6,470.9,78.7,469.7z M760.5,271.7c0.2,0.1,0.4,0.3,0.7,0.4c2.7-0.7,2.6-0.7,2.8-3.1c0.1-0.8,0.5-1.6,0.7-2.4
		c0.2-0.7,0.5-1.4,0.8-2c-0.3-0.1-0.6-0.3-0.8-0.4C763.3,266.6,761.9,269.1,760.5,271.7z M193.4,388.8c0.7,0.6,1.8,1.6,2.9,2.4
		c0.3,0.2,1.2,0.2,1.5,0c0.3-0.3,0.4-1.1,0.2-1.4c-0.8-1.2-1.8-2.3-2.7-3.4C194.6,387.2,194.1,387.8,193.4,388.8z M151.4,455.3
		c0.2,1.6,0,3.1,0.7,3.8c0.9,1.1,2.8-0.2,4.1-2.5C154.9,456.3,153.6,455.9,151.4,455.3z M229.9,121.5c-2.3,1.5-2.7,3.9-1,6.1
		C231.1,125.4,231.4,123.9,229.9,121.5z M654.8,383.1c-1.8-2.1-3.8-1.8-5.8-1.2c-0.3,0.1-0.8,0.5-0.8,0.8c0,0.3,0.4,0.8,0.7,0.9
		C650.8,384.5,652.7,384.5,654.8,383.1z M560,301.6c0.9-1.4,1.5-2.3,2.2-3.6c-2-0.7-3.6-1.4-5.3-2c-0.1,0.2-0.2,0.4-0.3,0.6
		C557.6,298.1,558.7,299.7,560,301.6z M109.9,281.4c0,0.1,0,0.3,0.1,0.4c1.5,0,3,0,5.2,0c-1.3-2.5-2.3-4.7-3.4-6.8
		c-0.3,0.1-0.6,0.3-0.9,0.4c0.7,1.6,1.5,3.2,2.3,4.9C111.9,280.7,110.9,281,109.9,281.4z M503.9,386.8c-2.5,0.2-2.9,0.8-3.3,5.1
		C503.5,391,504.5,389.5,503.9,386.8z M473.3,78.1c1.5,1,2.5,2.1,3.8,2.6c0.6,0.2,1.7-0.9,2.8-1.5C477.4,77.3,476,75.9,473.3,78.1z
		 M718.4,404c-1-1.7-1.8-3-2.9-4.9c-0.4,2.4-0.8,4.3-1.2,6.9C715.8,405.3,717,404.7,718.4,404z M506.7,101.3c-0.6,2,1,4.9,3.1,5.5
		c0.9,0.3,2-0.4,3-0.7c0-0.3-0.1-0.5-0.1-0.8C510,105.2,508,103.9,506.7,101.3z M66.1,295.6c0.1-0.3,0.3-0.6,0.4-0.9
		c-1-1.1-2-2.1-3.6-3.7c-0.6,1.8-1,3-1.3,4.1C63.1,295.3,64.6,295.5,66.1,295.6z M635.1,152c2.1,0.1,3.8,0.3,5.5,0.3
		c0.3,0,0.9-0.6,0.9-0.9c0-0.7-0.2-1.5-0.6-2.2c-0.1-0.2-1-0.3-1.3-0.1C638.2,149.9,636.9,150.8,635.1,152z M628.5,128.8
		c1.5-1.1,2.8-1.8,3.9-2.8c0.3-0.3,0.5-1.1,0.3-1.5c-0.2-0.3-0.9-0.5-1.4-0.5C629.1,124.4,628.4,125.4,628.5,128.8z M82.3,233.2
		c-0.7,1.2-1.6,2.1-1.4,2.7c0.3,0.9,1.2,1.8,2.1,2.2c0.5,0.3,1.5-0.4,2.4-0.7C84.3,235.9,83.5,234.8,82.3,233.2z M618.6,465.1
		c0.3-2.2,0.7-4,0.8-5.8c0-0.3-0.5-0.8-0.9-1.1c-0.1-0.1-0.7,0.2-0.9,0.4C616.6,460.1,616.8,463.2,618.6,465.1z M161,203
		c0,0.3,0,0.5,0,0.8c1.9-0.5,3.8-1,5.7-1.4c0-0.2-0.1-0.4-0.1-0.6c-0.9,0-1.7,0-2.6,0c-0.7-1.9-2.4-2.6-3.1-1.2
		C160.5,201.1,160.9,202.1,161,203z M311.3,111.3c0.1,0.2,0.3,0.3,0.4,0.5c1.4-0.4,2.7-0.8,4.1-1.3c0.5-0.2,1.2-0.8,1.2-1.2
		c0-0.5-0.5-1.2-1-1.4c-0.4-0.2-1.3-0.1-1.7,0.3C313.2,109.1,312.3,110.2,311.3,111.3z M745.7,480.2c2.1-1.4,2.5-3.5,0.7-4.6
		c-0.6-0.3-1.6,0.1-2.4,0.2c0.1,0.6,0.2,1.3,0.4,1.9C744.7,478.5,745.2,479.3,745.7,480.2z M351.8,286.7c0.8,1.1,1.4,1.8,2,2.6
		c0.6-0.7,1.9-1.4,1.8-1.9c-0.2-1-1.1-1.9-1.8-2.9C353.2,285.1,352.6,285.7,351.8,286.7z M599.7,358.7c2.9-2.4,3.3-4.1,1.3-5.5
		c-0.9,1.2-1.8,2.3-2.9,3.7C598.7,357.6,599.2,358.1,599.7,358.7z M608,161.4c-0.4,0-0.7,0-1.1-0.1c-0.5,1.3-1.1,2.6-1.5,4
		c-0.1,0.5,0.5,1.1,0.8,1.7c0.6-0.3,1.8-0.6,1.8-1C608.3,164.5,608.1,162.9,608,161.4z M735.3,400.1c2.4,0.4,4.1,2,6.4,0.8
		C740.2,398.2,737.9,397.7,735.3,400.1z M382.6,451.8c0.4-3.1-0.8-6.3-2.6-6.8C379.3,447.4,380.1,449.7,382.6,451.8z M160.2,187.4
		c-0.4,1.8-0.8,3.3-1,4.9c0,0.1,1.3,0.8,1.6,0.6C162.3,191.8,162.2,188.9,160.2,187.4z M529.2,336.7c0,0.3,0,0.6,0,1
		c1.1,0.4,2.2,1,3.4,1.1c0.6,0.1,1.3-0.8,1.9-1.2c-0.6-0.5-1.1-1.5-1.7-1.5C531.6,336,530.4,336.5,529.2,336.7z M584,489.1
		c-1.6,1.7-1.3,3.4,0.7,4.9C586.8,492.1,586.7,491.2,584,489.1z M553.7,349.7c-0.4,0-0.7,0-1.1,0c-0.1,1.6-0.4,3.1-0.3,4.7
		c0,0.4,1.4,0.7,2.2,1.1c0.2-0.2,0.3-0.3,0.5-0.5C554.6,353.2,554.2,351.4,553.7,349.7z M542.7,75.3c-2.4-1.7-2.9,0.2-3.8,1.2
		c-0.9,0.9-1.3,1.9,0.4,3.1C540.5,78.2,541.6,76.8,542.7,75.3z M697.4,238.7c-0.3,0.2-0.7,0.3-1,0.5c0.3,1.2,0.2,2.7,1,3.4
		c0.6,0.6,2.1,0.4,3.2,0.5c0.1-0.3,0.2-0.5,0.3-0.8C699.7,241.1,698.5,239.9,697.4,238.7z M403.2,27.1c-1.4-0.3-2.3-0.6-3.3-0.7
		c-0.6-0.1-1.3,0.2-2,0.3c0.2,0.9,0.2,1.8,0.6,2.6c0.1,0.2,1.3,0.1,1.9-0.2C401.3,28.7,402,28,403.2,27.1z M578,138.1
		c-1.7,2-1.8,3.5-0.7,5c0.3,0.4,0.9,0.5,1.4,0.8c0.3-0.5,0.8-1.1,0.7-1.6C579.1,141,578.6,139.7,578,138.1z M566.2,367.5
		c1.9-0.7,3.5-1.2,5.4-1.9C568.1,362.9,566.9,363.4,566.2,367.5z M793.5,243.7c-0.2,0.2-0.3,0.5-0.5,0.7c1,1,1.9,2.2,3.1,2.8
		c0.6,0.3,1.8-0.7,2.8-1.1c-0.1-0.2-0.1-0.5-0.2-0.7C797,244.8,795.3,244.3,793.5,243.7z M461.9,21.1c-0.8,1.1-1.5,2.2-2.2,3.2
		c1,0.1,2.4,0.8,3.1,0.3C464.3,23.8,463.7,22.5,461.9,21.1z M152.4,483.6c0.2,0,0.4-0.1,0.6-0.1c-0.5-1-0.8-2.5-1.6-2.8
		c-1.5-0.7-3.3-1-4.3,0.4C148.9,481.9,150.6,482.7,152.4,483.6z M736.1,174.4c2.2,0,2.8-0.7,2.8-3.9c-0.8,0-2.3-0.2-2.3,0
		C736.2,171.8,736.2,173.1,736.1,174.4z M242.9,91.7c0.1-0.3,0.1-0.5,0.2-0.8c-0.9-0.8-1.8-1.7-2.8-2.2c-0.4-0.2-1.4,0.4-1.9,0.9
		c-0.2,0.2,0.1,1.5,0.3,1.5C240.1,91.4,241.5,91.5,242.9,91.7z M375.4,22.9c-0.2,0.1-0.4,0.2-0.7,0.3c-0.5,1.7-1.5,3.3,0,5.2
		c0.8-1.2,1.5-2.5,1.8-3.8C376.6,24.1,375.8,23.5,375.4,22.9z M540.1,403.4c-3.1-0.2-5.5,2.6-4.7,5.2
		C536.9,406.8,538.4,405.3,540.1,403.4z M361,41.9c-0.7,0.9-1.6,1.6-1.5,1.8c0.5,0.9,1.3,1.7,1.9,2.6c0.6-0.6,1.7-1.3,1.6-1.7
		C362.8,43.8,361.9,43.1,361,41.9z M62,395.7c0-0.3,0-0.7,0-1c-0.8-0.4-1.7-1.2-2.4-1c-0.8,0.2-1.4,1.3-2,2c-0.1,0.1,0.6,1.1,0.7,1
		C59.6,396.5,60.8,396.1,62,395.7z M172.4,135c-0.3,0-0.6,0-0.8,0.1c-0.4,1-0.7,2-1.1,3c0.6,0.2,1.3,0.7,1.9,0.6
		c0.7-0.2,1.4-0.8,2-1.3C173.7,136.5,173.1,135.7,172.4,135z M581.2,417.2c-3.3-1.9-3.3-1.9-4.7,0.6
		C579.7,419.3,579.8,419.2,581.2,417.2z M783.4,423.8c0,0.3-0.1,0.5-0.1,0.8c3.2,0.2,6.3,0.3,9.5,0.5c0-0.2,0-0.4,0-0.6
		C789.8,422.8,786.6,423.4,783.4,423.8z M256.2,179.9c0.7-1.6,1.4-2.8,1.8-4.1c0.1-0.4-0.4-1.1-0.7-1.6c-0.5,0.3-1.1,0.4-1.3,0.8
		C255.2,176.3,254.7,177.8,256.2,179.9z M736.3,439.7c-2.1-1.9-3.4-2.1-5.3-0.7C732.6,441,733.8,441.2,736.3,439.7z M381.4,523.8
		c0-0.2,0-0.4,0-0.5c1,0.6,1.9,1.1,3.4,2c-1.3-3.5-3.8-4.2-6.8-1.7C379.2,523.6,380.3,523.7,381.4,523.8z M521,189.1
		c1.5-1.7,2.9-3.4,4-4.7C522.3,184.8,521.2,185.8,521,189.1z M362.7,226.6c-0.9,0.5-1.9,0.9-2.6,1.5c-0.4,0.3-0.3,1.2-0.4,1.8
		c0.6,0.1,1.4,0.5,1.9,0.3C363.9,229.2,362.6,227.5,362.7,226.6z M523.1,55.2c-0.6-1.1-1-2.1-1.7-2.8c-0.3-0.3-1.3-0.3-1.8-0.1
		c-0.3,0.2-0.6,1.2-0.4,1.6C520,55.2,521.1,56.1,523.1,55.2z M685.3,207.4c-1.9,0.2-3.5,1.7-3.2,2.9c0.2,0.5,1.2,1.2,1.5,1.1
		C685.6,210.7,685.2,209,685.3,207.4z M634.3,322.9c-0.2-0.1-0.4-0.2-0.6-0.3c-0.8,0.7-1.7,1.2-2.4,2c-0.4,0.4-0.3,1.3-0.4,1.9
		c0.8-0.1,2.1,0.1,2.4-0.4C633.9,325.3,634,324,634.3,322.9z M550.4,362c1.4,0.3,2.4,0.8,3.2,0.6c0.5-0.1,1.2-1.2,1.1-1.8
		c-0.1-0.6-0.9-1.2-1.5-1.8C552.3,360,551.6,360.7,550.4,362z M612.1,488.1c-2.6-1.3-7-0.5-9,1.8
		C606.3,489.3,609.2,488.7,612.1,488.1z M575.3,87.7c2.3,1.9,3.3,0.2,4.3-0.8c0.4-0.4,0.2-1.3,0.2-2c-0.2-0.1-0.5-0.1-0.7-0.2
		C578,85.7,576.8,86.6,575.3,87.7z M153.7,215c-0.2,0-0.5-0.1-0.7-0.1c-0.4,1.6-0.8,3.2-1.2,5C155.2,218.9,155.5,217.8,153.7,215z
		 M544.3,420c0.7-0.3,1.4-0.5,2.1-0.8c0.6-0.2,1.5-0.9,1.8-0.6c2,1.4,3-0.5,4.4-1.2c-1.1,0.1-2.4,0.7-3.3,0.4
		C546.8,416.8,545.7,418.6,544.3,420z M440.1,36.9c0.1,0.3,0.2,0.5,0.3,0.8c1.5-0.3,3-0.6,4.5-1c0.3-0.1,0.5-0.9,0.7-1.3
		c-0.5-0.2-1.1-0.7-1.4-0.6C442.8,35.4,441.4,36.2,440.1,36.9z M415.4,282.4c-0.2-2.1-2.1-4.2-3.5-4.2c-0.3,0-0.8,0.2-0.8,0.4
		c-0.1,0.4,0,1.1,0.2,1.3C412.5,280.8,413.8,281.5,415.4,282.4z M700.5,128.7c0-0.3,0-0.7,0-1c-2.7-0.7-5.3,0.3-8,0.5
		c0,0.2,0,0.4,0,0.5C695.2,128.7,697.9,128.7,700.5,128.7z M791.4,294.5c0.1-0.1,0.2-0.3,0.2-0.4c-1.5-1.2-3.1-2.4-4.7-3.4
		c-0.4-0.3-1.1-0.2-1.7-0.3c0.2,0.6,0.3,1.5,0.7,1.7C787.8,292.9,789.6,293.6,791.4,294.5z M369.9,485.8c0.1-2.5-0.9-3.7-2.2-4.5
		c-0.5-0.3-1.3,0-1.9,0c-0.1,0.2-0.1,0.4-0.2,0.7C366.8,483.1,368.1,484.3,369.9,485.8z M642.1,462.3c0-0.2,0-0.4,0-0.7
		c-1-0.2-2.1-0.5-3.1-0.6c-0.5,0-1.2,0.3-1.4,0.7c-0.2,0.4,0,1.2,0.3,1.5c0.3,0.3,1,0.4,1.5,0.2
		C640.3,463.3,641.1,462.7,642.1,462.3z M567.4,485.3c-1.4,0.6-2.6,1.1-3.9,1.7c0.3,1.3,0.8,2.2,2.2,1.8
		C567.2,488.3,568,487.2,567.4,485.3z M214.6,157.8c0.3,0.1,0.6,0.1,0.8,0.2c0.4-1.2,0.7-2.4,1.1-3.6c-0.8,0-2-0.4-2.5,0
		C212.3,155.8,214.3,156.6,214.6,157.8z M742,386.7c-1.4-3.2-3.3-4.2-6.1-3.3C738.1,384.6,740,385.7,742,386.7z M699.5,472.1
		c-0.5,1-1,1.6-1,2c0.1,0.7,0.6,1.2,1,1.9c1.1-1.6,2.1,0.5,3.5,0C701.8,474.6,700.7,473.4,699.5,472.1z M642.9,332.4
		c0.2-0.2,0.4-0.3,0.6-0.5c-0.7-1-1.2-2.2-2-3.1c-0.3-0.4-1.1-0.3-1.7-0.4c0.1,0.7-0.1,1.7,0.3,2.1
		C640.8,331.4,641.9,331.9,642.9,332.4z M77,236.2c-0.3,0.1-0.7,0.3-1,0.4c0.1,0.9-0.2,2.1,0.3,2.6c0.6,0.7,1.8,0.7,2.8,1.1
		c0.2-0.3,0.4-0.6,0.6-0.9C78.9,238.3,78,237.3,77,236.2z M43.9,390c0.9,0.4,1.6,0.8,2.4,1c0.4,0.1,1.1,0.1,1.4-0.2
		c0.4-0.3,0.6-0.9,0.7-1.4c0-0.2-0.7-0.4-1.1-0.6C45.3,387.7,44.5,388.8,43.9,390z M659.3,409.9c-1.7-1-3-2.2-4.6-0.2
		c0.5,0.8,1,1.6,1.6,2.5C657.4,411.4,658.2,410.7,659.3,409.9z M271.4,498.6c-1.2,1-1.8,1.9-0.5,3.1c1.3,1.2,2.1,0.3,3.1-0.7
		C273.1,500.2,272.3,499.4,271.4,498.6z M417.4,37.9c0.4,2.2,1.6,2.6,3,2.4c0.5-0.1,0.9-0.7,1.4-1.1c-0.4-0.4-0.7-1.2-1.2-1.3
		C419.6,37.7,418.6,37.9,417.4,37.9z M822.1,329.7c0.7,2.5,2.3,1.9,3.9,1.3C825,328.1,824.7,327.9,822.1,329.7z M684.8,163.6
		c0.9,2.3,1.4,2.4,4.6,0.6C687.9,162.9,686.5,162.3,684.8,163.6z M44.1,377.9c2.3,0.4,3.6-0.2,4.4-2.2
		C46.1,375.1,44.6,375.8,44.1,377.9z M480,449.4c0.8-1.6,1.3-2.7,1.9-3.9c-0.2-0.1-0.4-0.3-0.6-0.4c-1.1,0.5-2.2,1-3.6,1.6
		C478.6,447.6,479.2,448.3,480,449.4z M661.8,503.2c-0.2-1.9-0.6-3.3-2.5-3.5c-0.2,0-0.8,0.8-0.7,1.2
		C658.8,502.6,659.8,503.4,661.8,503.2z M159.7,203.7c0-0.3,0-0.6,0.1-1c-1.1-0.4-2.3-0.9-3.4-1.2c-0.4-0.1-0.9,0.2-1.3,0.3
		c0.2,0.5,0.3,1.4,0.6,1.4C156.9,203.5,158.3,203.6,159.7,203.7z M162.8,149c0.2-0.2,0.5-0.5,0.7-0.7c-0.9-0.9-1.7-1.8-2.6-2.6
		c-0.3,0.4-1,0.8-1,1.2C160,148.6,161.4,148.8,162.8,149z M115.3,467.5c-0.7-2.1-2.2-1.9-3.9-1.8C111.8,468.4,113,468.9,115.3,467.5
		z M780.7,427.2c1.3,3.2,2.3,3.4,4.5,1.1C783.5,427.8,782.1,427.5,780.7,427.2z M364.5,65.4c0.2,2,0.4,3.6,0.6,5.4
		C367.3,68.5,367.2,66.8,364.5,65.4z M30.9,317.1c0.1-0.2,0.3-0.4,0.4-0.7c-1.3-1-2.6-2-3.9-2.9c-0.3-0.2-0.9-0.1-1.1,0.1
		c-0.2,0.2-0.1,1,0,1.1C27.8,315.6,29.4,316.3,30.9,317.1z M364.4,15.3c1.8-0.3,3.6-0.6,5.6-0.9C368.4,12.4,365.7,12.9,364.4,15.3z
		 M752.9,251.4c-2.4-1.2-4.3-0.4-5.5,2.3C749.2,253,750.9,252.3,752.9,251.4z M215,206c-1-2.5-1.9-2.9-4.2-1.9
		C211.7,205.8,213,206.5,215,206z M331.8,513.9c-0.2,0.2-0.4,0.3-0.7,0.5c0.7,2.7,1.6,3.5,4.2,3.6
		C334.1,516.6,332.9,515.2,331.8,513.9z M387,141.2c1.1-1.7,2.1-3.1,3-4.5C386.6,137.7,385.8,139,387,141.2z M743.5,408.1
		c1.6,1.5,3.1,1.3,4.5,0C746.6,405.8,745.1,406.7,743.5,408.1z M593.8,162.3c-0.4,0-0.8,0-1.1,0c0.1,2,0.2,4,0.3,6.1
		c0.3,0,0.6,0,0.9,0C593.8,166.4,593.8,164.3,593.8,162.3z M276.9,198.3c-1.3,0.9-2.3,1.7-1.2,2.9c0.9,1.1,1.9,0.5,2.7-0.5
		C278,199.9,277.5,199.2,276.9,198.3z M344.4,244.5c-0.3-0.2-0.6-0.3-0.9-0.5c-0.8,1-1.7,2-2.5,3.1c-0.2,0.2-0.1,0.9,0.1,1.1
		c0.2,0.2,1,0.3,1.1,0.1C342.9,247,343.6,245.8,344.4,244.5z M60.9,389.9c1.4,0.3,2.5,0.6,3.6,0.9c-0.1-0.6-0.1-1.4-0.4-1.8
		C63,387.6,62.1,388.1,60.9,389.9z M739.2,472.9c-1.2-1.7-2.5-1.1-3.6-0.4c-0.2,0.1-0.3,1.1-0.1,1.2
		C736.9,474.9,738,474,739.2,472.9z M576.3,466c0,0.2-0.1,0.4-0.1,0.6c1.6,1.1,3.2,2.3,5.4,0.7C579.8,466.9,578.1,466.4,576.3,466z
		 M776.9,398.1c0,0.3,0,0.5,0,0.8c1.9,0,3.8,0,5.6,0c0-0.3,0-0.5,0-0.8C780.7,398.1,778.8,398.1,776.9,398.1z M458.1,449.1
		c-2.7,0-3,0.4-2.2,3.7c0.9-0.6,1.7-1.2,2.8-1.9c-0.8-0.1-1.2-0.2-1.6-0.3C457.4,450.1,457.7,449.6,458.1,449.1z M481.8,193.1
		c-0.6,0.7-1.3,1.4-1.9,2c0.4,0.3,0.7,0.7,1.1,1c-0.4,0.5-0.8,1.1-1.4,1.9C481.8,197.8,481.8,197.8,481.8,193.1z M162.5,229.3
		c0.1,1.1,0,2,0.3,2.8c0.1,0.4,0.8,0.8,1.2,0.9c0.3,0,1-0.6,0.9-0.9C164.8,230.6,164.3,229.4,162.5,229.3z M157,468.5
		c1,2.6,2.4,2.7,4.6,0C159.9,468.5,158.6,468.5,157,468.5z M574.9,143.6c-0.9,1.5-1.6,2.9-2.6,4.6
		C575.3,147.2,576.2,145.4,574.9,143.6z M623,367.6c1.7,1.8,3.2,1.9,5.2,0C626.1,367.6,624.6,367.6,623,367.6z M383.4,129.5
		c-0.8,0.7-1.5,1.3-2.8,2.4c1.1,0.3,2.2,1,2.7,0.7C384.6,131.9,384.7,130.6,383.4,129.5z M620.7,491.2c2.6,1,4.2-0.1,4-2.9
		C623.2,489.3,622,490.2,620.7,491.2z M314.8,72.5c-0.4,2.9,0.9,4.2,2.7,3.7C316.9,75.1,315.9,73.8,314.8,72.5z M613.4,300
		c0.1-1.6,0.2-2.8,0.3-4c-0.6,0.3-1.4,0.4-1.8,0.8C610.6,298.2,611.8,298.8,613.4,300z M422.2,266.8c0.3-0.2,0.6-0.4,0.9-0.6
		c-0.7-1.1-1.3-2.2-2.1-3.2c-0.2-0.2-0.9,0.1-1.9,0.2C420.4,264.7,421.3,265.7,422.2,266.8z M739.2,273.1c0-0.3,0.1-0.6,0.1-0.8
		c-1.5-2.2-1.8-2.2-4,0.5C736.9,272.9,738.1,273,739.2,273.1z M416.4,398.8c-1.7-0.9-3-1.5-4.8-2.4
		C412.6,399.3,413.8,399.9,416.4,398.8z M50.6,300.2c-0.4,1.3-0.7,2.3-1,3.2c1.1-0.3,2.1-0.6,3.7-1.1
		C52.2,301.5,51.7,301.1,50.6,300.2z M143.3,218.4c0,1.4,0,2.7,0,4.7C145.6,221.1,144.5,219.7,143.3,218.4z M240.4,401.8
		c1.9,1.8,3.9,0.5,5.9,0.3c-0.3-0.5-0.7-1-1.1-0.9C243.7,401.3,242.3,401.5,240.4,401.8z M415.4,414.6c0.2,2,0.5,4,0.8,6.3
		C417.7,419.2,417.1,416.7,415.4,414.6z M135.1,206.2c0.4,0.1,0.8,0.2,1.1,0.3c0.3-1.1,0.6-2.1,0.9-3.2c-0.5-0.1-1-0.2-1.5-0.3
		C135.5,204,135.3,205.1,135.1,206.2z M262.7,168.7c-0.4,0-0.8,0-1.1,0c-0.1,0.8-0.3,1.7-0.4,2.5c0.8,0,1.6,0,2.4,0
		C263.3,170.4,263,169.5,262.7,168.7z M312.3,324.6c0,1.9,0,3.2,0,4.7C314.5,327.7,314.5,327.4,312.3,324.6z M710.6,292.1
		c1.3-0.9,2.5-1.6,4.1-2.7C711.2,289,710.6,289.4,710.6,292.1z M206.7,292.8c1.1-1.3,2.2-2.6,3.4-4
		C208.3,288.3,206.9,289.8,206.7,292.8z M85.9,288.6c0.2-0.1,0.5-0.2,0.7-0.2c-0.3-1-0.4-2-0.9-2.9c-0.1-0.2-1.2,0.1-2.2,0.2
		C84.6,286.9,85.2,287.8,85.9,288.6z M104.9,365c0.1,0.3,0.1,0.5,0.2,0.8c0.8-0.1,1.8,0.1,2.3-0.3c0.5-0.3,0.4-1.4,0.6-2.1
		c-0.2-0.1-0.4-0.2-0.6-0.3C106.5,363.8,105.7,364.4,104.9,365z M662.9,114.9c-2.4-1.6-3.5-1.2-4.5,1.3
		C660,115.8,661.1,115.4,662.9,114.9z M525.5,496.8c1,1.8,1.8,3,2.6,4.6C529,499.4,528.2,498.1,525.5,496.8z M750.3,401.2
		c0-0.3,0-0.6,0-0.9c-1.6,0-3.2,0-4.7,0c0,0.2,0,0.5,0,0.7C747.1,401,748.7,401.1,750.3,401.2z M454.6,448.1
		c0.1,0.2,0.2,0.4,0.3,0.6c0.8-0.2,1.8-0.2,2.2-0.7c0.5-0.5,0.4-1.5,0.5-2.3c-0.2-0.1-0.5-0.2-0.7-0.2
		C456.2,446.4,455.4,447.2,454.6,448.1z M777.2,187.1c0.5,1.7,1,3.2,1.6,5.1C779.9,188.6,779.9,188.6,777.2,187.1z M507.2,372.4
		c0.4-0.1,0.8-0.1,1.2-0.2c-0.2-1.3-0.4-2.6-0.6-3.8c-0.3,0-0.7,0.1-1,0.1C506.9,369.8,507.1,371.1,507.2,372.4z M294.3,451.8
		c-1.8-0.8-3-1.3-4.3-1.9C290.6,452,291.7,452.9,294.3,451.8z M263.6,164.3c1.4,1.1,2.4,2,3.6,3
		C267.1,164.5,266.4,163.9,263.6,164.3z M566.9,92.5c-0.2,1.5-0.3,2.5-0.4,3.5c0.8-0.2,1.7-0.5,2.8-0.8
		C568.4,94.1,567.9,93.5,566.9,92.5z M589.6,238c-0.7-0.8-1.2-1.5-1.8-2.1c-0.2,0-0.4,0-0.6,0.1c-0.1,0.7-0.3,1.5-0.3,2.2
		c0,0.4,0.6,0.7,0.9,1.1C588.5,238.9,589,238.5,589.6,238z M256.5,411.2c-0.2,0-0.4,0-0.5,0.1c-0.1,0.7-0.4,1.4-0.2,2
		c0.2,0.6,0.8,1.1,1.3,1.6c0.1,0.1,0.7-0.2,0.7-0.3c0-0.6-0.1-1.2-0.3-1.8C257.2,412.2,256.8,411.7,256.5,411.2z M359.9,355.4
		c0.1,0.2,0.2,0.5,0.3,0.7c1-0.3,2-0.5,3.3-0.9c-0.7-0.9-1.2-1.5-1.7-2.2C361,354,360.4,354.7,359.9,355.4z M193.6,502.5
		c0,0.3,0.1,0.5,0.1,0.8c1.6,1.2,2,1.2,3.2-1.1C195.8,502.3,194.7,502.4,193.6,502.5z M339.8,296.5c0.3,0,0.6,0,0.9-0.1
		c1.7-1.4,0.4-2.4-0.5-3.5c-0.2,0-0.4,0-0.7,0.1C339.6,294.2,339.7,295.4,339.8,296.5z M581.8,274.5c0.2,0.1,0.5,0.2,0.7,0.2
		c0.6-1.3,1.2-2.7,1.7-4C582,271.4,581.7,272.9,581.8,274.5z M538.6,490c-0.2,0.2-0.4,0.4-0.6,0.6c0.6,0.6,1,1.4,1.7,1.8
		c0.4,0.2,1.1-0.2,1.7-0.3c0-0.2,0-0.4,0.1-0.6C540.5,491,539.6,490.5,538.6,490z M593.3,342.8c-0.2-0.1-0.4-0.2-0.6-0.4
		c-0.9,0.5-1.8,1-2.7,1.5c0,0.2,0.1,0.5,0.1,0.7c0.9,0,1.9,0.1,2.8-0.1C593.1,344.5,593.2,343.5,593.3,342.8z M703.5,389.5
		c-0.1,0.1-0.3,0.2-0.4,0.3c0,1,0,1.9,0,3.4c0.9-0.7,1.9-1.3,1.8-1.4C704.6,390.9,704,390.2,703.5,389.5z M643.2,408.4
		c-0.9-0.6-1.5-0.9-2.5-1.5c-0.1,1.4-0.1,2.4-0.2,3.4c0.2,0.1,0.4,0.2,0.6,0.2C641.8,409.9,642.4,409.3,643.2,408.4z M628.5,285
		c0.3,0.2,0.7,0.5,1,0.7c0.8-1.2,1.6-2.4,2.4-3.6c-0.3-0.2-0.5-0.4-0.8-0.6C630.3,282.7,629.4,283.8,628.5,285z M719.3,438.3
		c-0.2,0.2-0.3,0.3-0.5,0.5c0.9,0.9,1.7,1.7,2.6,2.6C722,439,720.6,438.7,719.3,438.3z M288.4,453c0-0.3-0.1-0.5-0.1-0.8
		c-0.8,0-1.5,0-2.3,0c0.2,0.8,0.4,1.7,0.7,2.5c0.2-0.1,0.4-0.1,0.7-0.2C287.7,454,288,453.5,288.4,453z M152,202.3
		c-1.4-1.8-1.9-1.7-3.4,1.1C149.7,203,150.7,202.7,152,202.3z M192.3,476.3c0.2,0.3,0.3,0.6,0.5,0.9c1.5-0.8,2.9-1.7,4.4-2.5
		c-0.1-0.3-0.3-0.5-0.4-0.8C195.2,474.7,193.8,475.5,192.3,476.3z M399.4,153.9c-0.1-0.2-0.3-0.5-0.4-0.7c-0.8,0.4-1.6,0.9-2.6,1.4
		c0.7,0.8,1.2,1.2,1.8,1.9C398.6,155.5,399,154.7,399.4,153.9z M683.2,478.3c0.2-0.1,0.3-0.2,0.5-0.3c-0.9-1.6-1.8-3.2-2.7-4.8
		c-0.3,0.2-0.5,0.3-0.8,0.5C680.5,475.6,682.3,476.7,683.2,478.3z M758.8,263.6c-1.4-0.8-2.3-2.2-3.9-1.5
		C756,263,756.8,264.7,758.8,263.6z M132.8,192.9c0.3,1.4,0.5,2.3,0.7,3.5C135.5,194.7,135.4,194.3,132.8,192.9z M319.7,321.2
		c-0.1,0.1-0.2,0.1-0.3,0.2c0.3,1,0.6,2,1,3c0.1,0.3,0.8,0.4,1.1,0.6c0.1-0.5,0.3-1.1,0.1-1.4C321.1,322.7,320.4,322,319.7,321.2z
		 M111.6,422.4c-0.1-0.3-0.3-0.6-0.4-0.8c-0.9,0.5-1.8,1-2.6,1.6c-0.2,0.1,0.2,0.9,0.4,1.7C110.1,423.9,110.9,423.1,111.6,422.4z
		 M519.4,57.8c-1.9,0.5-2.9,1.7-3.4,3.2c0.2,0.2,0.4,0.3,0.7,0.5C517.5,60.3,518.5,59,519.4,57.8z M234.1,336.1c0-0.3,0-0.6,0-0.9
		c-1-0.1-2.1-0.2-3.1-0.3c0,0.5,0.1,1.3,0.1,1.3C232.1,336.3,233.1,336.2,234.1,336.1z M632.8,492.6c1.8-0.1,3-0.2,4.3-0.2
		C635.8,491.6,634.6,490,632.8,492.6z M184,181.4c0.3-0.2,0.7-0.5,1-0.7c-0.4-0.7-0.8-1.3-1.2-2c-0.5,0.3-0.9,0.5-1.4,0.8
		C183,180.2,183.5,180.8,184,181.4z M323.8,65.7c-0.1,0.2-0.2,0.5-0.2,0.7c1,1.4,2.1,1.7,3.8,0.2C326,66.2,324.9,65.9,323.8,65.7z
		 M91.9,433.8c0.2,0.2,0.3,0.4,0.5,0.7c1.3-1,2.5-1.9,3.8-2.9c-0.2-0.3-0.4-0.5-0.6-0.8C94.4,431.8,93.1,432.8,91.9,433.8z
		 M370.9,516.8c-0.1-0.4-0.1-0.8-0.2-1.2c-1.2,0.2-2.4,0.4-3.6,0.5c0,0.3,0.1,0.6,0.1,0.9C368.4,516.9,369.6,516.8,370.9,516.8z
		 M603.5,497.4c-1.1-1.5-2-2.7-2.9-4C600.1,495,601,496.3,603.5,497.4z M441.6,75.3c1.9,1.5,2.1,1.4,3.8-1.4
		C443.9,74.4,442.9,74.8,441.6,75.3z"/>
	<path class="st0" d="M658.1,466.8c0,0,41.9-38.3,36.5-40.1c-5.5-1.8-136.8-25.5-136.8-25.5l-29.2,32.8l11.8,48.4L658.1,466.8z"/>
</g>
</svg>
